<svg xmlns="http://www.w3.org/2000/svg" xmlns:xlink="http://www.w3.org/1999/xlink" height="480" width="640">
  <path fill="#d0103a" d="M0 0h640v480H0z"/>
  <path fill="#fedf00" d="M0 0h436.2v480H0z"/>
  <path fill="#0018a8" d="M0 0h204.8v480H0z"/>
  <path d="M300.397 136.627c7.712 0 10.866 6.617 18.678 6.617 4.76 0 7.638-1.666 11.687-3.896 2.896-1.64 4.743-2.614 8.068-2.614 3.404 0 6.49 1.03 7.232 3.947.984 1.662 1.8 4.883 1.368 6.737-.82 3.616-1.326 6.044-2.727 8.29-.668 1.66-1.298 2.496-1.298 4.202 0 4.093 6.67 6.6 9.368 6.668.826.013 7.77.127 12.042-4.2-2.32-.1-4.913-1.896-4.913-4.214 0-2.624 1.844-4.4 4.343-6.167.476-.136 1.284.284 1.714.067.61-.316.323-1.003.866-1.433 1.244-.994 2.063-1.616 3.647-1.616 1.04 0 1.66.146 2.487.746.44.317.603.71 1.146.71 1.142 0 1.708-.726 2.86-.726.927 0 1.493.126 2.307.643.678.36.663 1.603 1.432 1.603.386 0 2.42-.828 3.48-.828 2.207 0 3.384.8 4.81 2.472.384.463.63 1.368 1.02 1.368.788 0 2.602.607 3.733 1.638.486.486.702.716 1.076 1.304.26.42.66 1.44 1.12 1.617.638.208.99.168 1.698.623 1.618 1.036 2.86 2.983 2.803 4.87-.02.633-.31 1.616-.48 2.12-1.883 6.68-6.363 8.67-10.886 14.323-1.923 2.41-3.44 4.33-3.44 7.418 0 .747.92 2.114 1.326 2.736-.248-1.46.416-3.233 1.948-3.316 2.1-.113 3.724 1.484 4.007 3.664.066.487-.126 1.327-.332 1.824 1.13-.746 2.62-1.26 3.978-1.41.736-.078 1.16-.1 1.907-.082 3.367.083 7.062 1.97 9.31 3.88 6.88 6.844 7.71 14.396 7.336 16.77-.836 6.278-.31 14.828-13.8 18.636 2.496 1.06 4.193 2.927 4.193 6.234 0 2.61-1.924 4.66-4.434 4.66-1.436 0-2.432-.362-3.438-1.368-2.806 2.804-3.347 6.666-3.347 9.634 0 2.376.463 3.777 1.448 6.926 1.062 2.273 1.81 3.607 3.71 6.247 1.006-1.616 2.07-2.626 3.89-2.626 1.764 0 3.267.666 3.98 2.172.216.486.023.882.272 1.367.316.61.848.746 1.176 1.367.61.94.01 1.742.462 2.716.283.633.906.724 1.176 1.367.43.972.643 1.64.643 2.714 0 3.008-2.737 6.167-6.746 6.167-.906 0-1.402-.362-2.307-.272 1.72 1.72 3.03 2.466 4.343 4.626 1.9 2.974 2.376 6.09 2.804 8.694.08.666.09 1.06.09 1.718 0 4.6-.7 7.193-2.713 11.218-1.924 3.866-3.663 6.994-7.068 8.604-6.46 3.924-9.42 6.066-16.013 6.333-4.23.814-6.66 1.176-10.948 1.447-6.496.36-8.628.362-14.113.724-7.193.486-12.18 1.604-17.28 6.604 2.408 1.764 4.07 3.494 4.07 6.47 0 3.062-1.888 6.234-4.794 6.196-.68.226-1.176.022-1.81.362-.767.396-.723 1.266-1.447 1.718-1.28.816-2.274.996-3.8.996-2.692 0-4.624-.634-6.424-2.634-2.206 1.832-2.962 3.484-6.43 4.886-.813.462-1.23 1.086-2.17 1.086-1.48 0-2.16-.938-3.347-1.81-1.89-1.38-2.896-2.296-4.434-4.07-2.26 1.346-3.63 2.443-6.243 2.443-1.606 0-2.623-.227-3.98-1.086-.713-.44-.826-1.097-1.638-1.638-.747-.464-1.37-.294-2.172-.633-3.02-1.3-4.976-3.64-4.976-6.83 0-2.884 1.82-4.716 4.433-6.926-6.01-6.01-9.94-6.88-17.008-6.333-6.462-.36-8.672-.362-14.023-.724-4.332-.294-6.74-.736-11.04-1.447-3.244-.632-6.167-.7-8.14-2.08-10.236-4.773-16.76-11.32-18.096-22.628-.113-.96-.09-1.616-.09-2.488 0-6.836 2.296-9.397 6.423-13.626-1.063-.26-1.776.102-2.806-.27-2.678-.94-4.433-2.727-4.433-6.476 0-1.017.046-1.696.643-2.678.36-.623 1.018-.747 1.176-1.448.203-.928-.07-1.684.36-2.443.284-.678.816-.69 1.087-1.268.893-1.864 2.013-3.347 4.07-3.347 1.766 0 2.896.927 3.8 2.443 1.72-.792 2.194-2.08 3.167-3.71 1.617-2.702 2.362-4.69 2.362-7.734 0-2.194-.216-3.484-.904-6.664-.498-1.493-.702-2.61-1.81-3.62-1.006 1.007-2.002 1.368-3.438 1.368-2.872 0-6.066-2.466-6.066-6.338 0-2.137 1.062-3.72 2.986-4.614-1.66-1.334-2.896-1.447-4.614-2.633-2.613-1.66-3.63-3.392-6.248-6.97-1.12-1.686-1.413-2.862-1.99-4.796-.69-2.33-1.086-3.72-1.086-6.162 0-.633.012-1.007.09-1.63.646-4.907 1.628-7.983 4.616-11.86 1.833-2.296 3.077-3.71 6.79-4.886 2.308-.996 3.687-1.72 6.198-1.72.768 0 1.2 0 1.946.092 1.164.147 1.89.26 2.896.814.386.216 1.086.86 1.086.407 0-.62-.272-.79-.272-1.31 0-2.082 1.493-3.982 3.674-3.982 1.604 0 2.116 1.324 2.86 2.626.476-.792.723-1.336.723-2.262 0-3.438-1.844-6.19-3.98-7.87-4.66-6.826-10.496-8.66-10.496-16.014 0-2.228 1.076-3.744 2.986-4.886.664-.328 1.3 0 1.842-.347.463-.294.41-.893.704-1.368.464-.736.874-1.062 1.62-1.617 1.062-.927 1.996-.66 3.17-1.464.69-.408.728-.937 1.18-1.48 1.312-1.683 2.49-2.347 4.66-2.347 1.04 0 1.623.006 2.686.388.328.126.94.62 1.02.626.208-.26.77-.844 1.437-1.16.87-.42 1.224-.68 2.196-.68 1.108 0 1.836.62 2.943.62.407 0 .6-.406.83-.62.983-.668 1.66-1.046 2.748-1.046 1.163 0 1.79.38 2.763 1.003.916.676 1.048 1.36 1.986 1.892.62.306.96.17 1.638.362 2.68.86 4.626 2.678 4.626 6.292 0 1.47-.36 2.62-1.448 3.482-.87.77-1.696.633-2.804.996 3.696 2.872 6.726 3.686 11.316 3.686 4.206 0 9.36-1.72 9.36-6.926 0-1.967-1.08-3.008-1.86-4.806-1.38-3.2-2.128-6.083-2.128-8.666 0-2.76.3-4.433 1.907-6.672 1.66-2.307 3.667-2.846 6.606-2.846z" fill="#c7b37f"/>
  <g fill="none" stroke="#703d29">
    <path d="M272.378 169.014c.276 1.046 1.12 2.023 2.444 2.437.796.26 2.638.16 3.832-1.393.968-1.26.894-2.8.632-4.03-.234-.796-.877-1.666-1.726-2.22l-6.08 6.167-.002.06z" stroke-width=".666" stroke-linejoin="round"/>
    <path d="M401.03 236.122c-1.194-2.886-4.28-1.693-4.47 0-.436 3.668 2.78 4.776 6.068 4.18 1.133-.296 1.963-1.01 2.493-1.94.6-1.06.78-2.42.39-3.728a4.9 4.9 0 0 0-.847-1.662 4.973 4.973 0 0 0-1.28-1.21c-.88-.66-1.84-.617-3.343-.617-6.673 0-10.46 6.686-12.087 13.426-.64 2.263-1.28 7.278-.263 12.042 1.094 6.076 3.288 8.69 6.862 11.264 1.393 1.443 3.293 2.728 6.763 4.12.76.428 2.766 1.318 4.168 1.716 1.43.41 2.762.36 3.942.09 3.302-.716 4.837-3.787 3.174-6.93-1.363-2.673-6.376-3.98-7.266-.696-.16.278-.41.886-.402 1.642.01.876.374 1.93 1 2.33 1.436.914 3.736.666 3.63-1.882" stroke-width=".664" stroke-linecap="round"/>
    <path d="M383.802 273.966c1.118-1.316 3.684-3.29 6.62-3.66 2.978-.366 6.666.6 8.21 1.923 6.167 2.774 8.034 6.766 9.96 11.29.487 1.406.89 3.623.836 6.773-.09 3.688-1 7.61-1.98 9.404-.862 1.664-3.084 8.966-16.324 13.996-7.143 2.94-18.112 3.618-26.676 3.917-10.404.41-20.002.796-26.676 7.663" stroke-width=".817"/>
    <g stroke-width=".717">
      <path d="M386.4 286.728c-.298-1.096-.022-2.144.846-3.334 1.16-1.69 3.632-2.14 6.872-.896.76.416 1.688.963 2.637 2.088.32.426.864 1.113 1.146 1.693.677 1.16.966 2.108 1.09 2.49 2.46 6.993-1.46 14.672-6.664 17.613-3.972 2.362-8.71 3.416-14.38 4.08-2.66.3-4.004.28-6.668.398-2.063.097-3.846.062-6.623.042-1.38-.017-2.69-.01-4.03-.04-2.186-.062-4.448-.103-7.216.1-2.913.21-6.103.286-7.664.696-1.608.268-3.492.627-6.467.97-.694.133-1.196.24-1.8.423l-1.203.368c-3.666 1.088-7.03 2.413-9.766 4.174-.844.644-1.798 1.088-2.48 1.733-.426.4-.943.804-1.36 1.214-1.914 1.882-3.87 3.92-4.328 6.68-.084.61-.084 1.042-.084 1.604 0 1.79 1.467 4.23 6.388 6.026m6.631-170.12c.822 1.488 1.276 2.393.796 3.93-.642 1.744-1.778 2.788-3.633 2.788-3.98 0-6.322-4.713-4.628-7.713 3.186-6.324 9.306-2.334 14.977.303-.274-1.366-.762-1.81-.702-3.6.124-4.202 3.24-6.108 4.483-9.988.742-2.312 1.037-4.32-.666-6.962-1.477-1.434-3.188-1.412-6.116-.666-3.862 1.61-8.478 6.848-16.622 6.968-8.143-.12-12.808-4.46-16.66-6.968-1.926-.766-3.638-.778-6.116.666-1.692 1.642-1.397 3.66-.666 6.962 1.244 3.88 4.36 6.786 4.483 9.987.06 1.692-.428 2.136-.7 3.6 6.67-2.636 12.03-6.894 14.976-.302 1.642 3.116-.647 7.713-4.628 7.713-1.766 0-2.987-1.12-3.633-2.787-.486-1.486 0-2.786.796-3.93"/>
      <path d="M314.66 169.866c1.638 1.176 2.624 2.623 2.443 4.976-.197 2.663-.816 3.168-2.806 4.626m2.397-3.798c-.09 1.638-.723 2.633-2.26 3.166" stroke-linecap="round"/>
    </g>
    <path d="M276.736 163.274l.697.497.746.797.496.996.26.846.06 1.093-.06.746-.26.846-.497.697-.698.647-.846.447-1.096.26-.944.148-.996-.448-.896-.646-.647-.796-.398-.996v-.4l4.876-4.626z" fill="#c7b37f" stroke="none"/>
    <path d="M276.206 167.166c-.306-1.662-2.237-1.99-2.986-1.016-1.16 1.602-.31 4.004 2.034 4.737.796.26 2.637.16 3.83-1.394.97-1.26.896-2.8.633-4.03-.234-.796-.873-1.49-1.726-2.14-2.72-2.07-7.116-1.692-8.668 1.89-1.862 4.494 2.19 7.863 6.92 10.4 4.7 3.196 10.062 3.776 14.083 3.733 9.166-.1 16.122-4.48 20.66-6.966 1.066-.68 2.14-.46 2.687.2.616.744.606 1.946-.26 2.736" stroke-width=".666" stroke-linecap="round"/>
    <path d="M248.064 281.184l-2.04.746-2.09 1.693-.896 1.244-1.144 1.99-.498 1.493-.398 1.84-.2 1.394m19.01-10.102l-.16 1.792-.298 1.244-.896 2.14-1.393 1.84-1.492 1.196-1.094.647-1.643.348" stroke-width=".676"/>
    <path d="M319.744 329.107c-.37 1.666-1.922 3.66-6.3 4.236l-.666.136" stroke-width=".766"/>
    <path d="M404.218 276.206c2.137 1.993 3.638 4.42 4.792 7.76.487 1.404.89 3.623.834 6.773-.09 3.687-1 7.607-1.98 9.403-.862 1.666-3.083 8.967-16.324 13.996-7.143 2.94-18.112 3.62-26.676 3.918-10.264.404-19.726.786-26.332 7.37" stroke-width=".868"/>
    <path d="M387.488 282.848c.76-1.038 3.63-2.36 6.77-1.107.737.41 1.61.928 2.377 2.076" stroke-width=".696"/>
    <path d="M401.606 273.786c.6.192 1 .366 1.436.49 1.43.41 2.776.44 3.942.09 2.83-.848 4.647-3.492 3.174-6.93-.342-.796-.996-1.66-1.74-2.133" stroke-width=".868"/>
    <path d="M240.282 199.763c-1.9 1.176-3.317 1.466-4.796 3.167-1.472 2.914-2.06 4.48-2.624 6.816m46.1-61.692c0 1.72-1.266 2.806-2.986 3.167" stroke-width=".666" stroke-linecap="round"/>
    <path d="M397.114 192.02c4.73-.097 18.47 3.608 18.667 19.76.098 16.962-9.844 18.668-13.827 19.62" stroke-width=".638"/>
    <path d="M398.366 192.02c8.166-.366 16.67 6.648 16.942 20.63.29 11.706-8.01 17.014-11.996 18.076" stroke-width=".664"/>
    <path d="M393.81 248.422l.127-1.6.633-2.644.764-1.978.848-1.633 1.1-1.32m7.782-3.397l-.126 1.666-.46 1.07-.696 1.02-.796.697-1.22.448-1.07.076-.796-.126M386.49 187.79l.36-1.693.746-1.667.97-1.668 1.667-2.14 1.32-1.467 2.138-2.166 1.842-1.866 1.17-1.343 1.642-1.866 1.368-2.066.822-1.692.447-2.19.137-2.714-.248-.787m-12.279 128.174l1.617-.324 1.218-.647.672-.67.472-.772.324-1.244.026-.87m-168.248-12.162l1.194.1 1.642-.126 1.643-.647m6.001-36.648l-.2 1.393-.323.622-.474.697-.647.498-.722.323-.946.16-.647.06m9.903-16.62l-.348 2.164-.424.946-.87 1.194-1.17.896-1.194.697-2.314.672m16.299-39.768l-.447 1.294-.66.946-.746 1.046-1.046.947-1.244.697-1.046.248-.646-.06m.378-6.198l.026.996" stroke-width=".664"/>
    <g stroke-width=".632">
      <path d="M264.286 224.068a6.866 6.866 0 0 1-2.09 1.298m160.619 44.826c.086.093.372.14.472.2 1.418.846 4.21-.21 3.39-2.4" stroke-linecap="round"/>
      <path d="M397.786 239.603c1.006 1.316 2.904 1.667 4.406 1.266 1.134-.296 1.964-1.01 2.494-1.94.698-1.06.78-2.42.39-3.727a4.907 4.907 0 0 0-.848-1.66c-.426-.663-.966-1.16-1.364-1.428-.11-.07-.217-.167-.332-.246m6.423 34.016a3.94 3.94 0 0 0 .066-.72c0-1.168-.486-2.22-1.286-2.934-.274-.246-.64-.624-.87-.79m.476.47c-.046-1.864-1.67-3.197-3.462-3.63m-4.172 2.84c-.436-.366-.9-.667-1.307-1.082-2.46-2.663-4.292-6.362-4.316-10.674-.024-4.143 1.642-8.36 3.682-10m-66.6 84.648l1.79-1.643 1.246-.946 2.34-1.443 2.188-1.044 1.643-.398 3.086-.696 3.682-.648m-29.609 19.364c-1.293 1.99-4.378 4.976-7.613 6.17-3.234-1.194-6.32-4.18-7.613-6.17"/>
      <path d="M314.42 332.627c-.406 1.603-1.143 2.96-2.22 4.13" stroke-linecap="round"/>
      <path d="M314.74 330.64l-.46 2.19m-2.336 4.18l-.946.944-1.692.946-1.94.697m-6.644-177.829c.243-.767.49-1.326.466-2.67-.126-4.2-3.24-6.106-4.484-9.987-.74-2.31-1.036-4.32.666-6.96 1.477-1.434 3.188-1.412 6.116-.667 3.86 1.61 8.617 6.848 16.66 6.97-8.143-.122-12.81-4.46-16.66-6.97-1.928-.766-3.798-.976-6.276.467-1.692 1.642-1.238 3.86-.497 6.16 1.244 3.882 4.2 6.787 4.323 9.99.036 1.242-.292 1.81-.634 2.668m18.621-13.492c8.01-.423 14.877-6.806 17.092-6.246 1.976-.392 3.078-.216 4.626 1.102-1.46-1.317-3.1-1.276-4.973-.64-3.86 1.61-8.477 6.847-16.62 6.968m79.698 112.886c-3.334-2.388-6.19-6.948-6.22-12.336-.023-4.144 1.642-8.36 3.682-10.002m-69.96 97.676c-1.296 1.99-4.38 4.976-7.614 6.17-3.234-1.194-6.32-4.18-7.613-6.17"/>
      <path d="M306.67 163.674c.832-.462 1.606-.9 2.318-1.292 1.066-.68 2.323-.468 2.87.202.616.746.71 2.037-.146 2.826" stroke-linecap="round"/>
      <path d="M294.707 169.274c6.496-1.147 9.976-3.61 13.36-6.602m32.273 164.183c.464.31.746.966.746.966.126.3.288.684.333.86.267 1.622-.74 2.47-1.974 2.614-1.696.197-2.967-.81-3.61-2.03m-41.609-161.362c6.496-1.147 9.974-3.61 13.36-6.602m97.677 106.904c-1.046.402-1.616.348-2.916-.23-.634-.236-1.146-.603-1.86-1.01-2.648-1.446-6.674-3.727-8.41-9.06a18.812 18.812 0 0 1-1.71-4.476c-.27-1.11-.468-2.208-.6-3.336-.068-1.92.14-3.926.618-6.222.79-3.79 1.744-6.86 4.08-9.066 1.16-1.676 2.14-2.637 4.28-2.687M266.26 196.123c1.78 1.612 2.64 3.384 2.64 6.722 0 3.1-2.694 8.16-8.963 9.962-2.44.686-4.866.132-6.317-.766"/>
      <path d="M266.294 206.62c1.146.796 1.693 1.69 1.693 3.244 0 1.066-.69 2.446-1.86 3.764-1.92 2.142-6.173 3.962-8.78 4.007-1.966.024-3.986-.384-6.03-1.76-2.184-1.46-3.333-3.434-3.83-6.376"/>
      <path d="M266.192 212.294c1.297 1.192 1.696 2.684 1.696 4.663 0 2.746-1.116 4.864-3.68 7.108-.673.602-1.22.972-1.94 1.396m129.429-22.077v3.632m-.282-4.402v4.976m.282-16.746v6.618m-.282-7.968v8.907m-1.9 81.961c-1.236 2.463-2.223 3.742-4.18 6.67-1.976 1.947-3.343 2.84-6.822 4.08-2.414 1.21-3.934 1.696-6.668 2.19-2.632.696-4.17.726-6.867.847-2.47.112-3.874.008-6.342-.163-2.64-.183-4.107-.66-6.744-.783-2.178-.19-3.408-.366-6.696-.36-2.248.006-3.636.02-6.76.41-2.062.366-3.232.667-6.174 1.444-2.686 1.088-6.72 2.986-6.368 3.83-.647-.846-3.683-2.742-6.37-3.83-1.94-.787-3.11-1.078-6.174-1.443-2.214-.39-3.6-.406-6.76-.41-2.186-.007-3.417.17-6.696.36-2.638.233-4.103.6-6.744.784-2.47.17-3.872.276-6.343.163-2.696-.122-4.236-.26-6.867-.846-2.633-.696-4.163-.98-6.668-2.19-2.48-1.238-3.847-2.133-6.822-4.08-.213-.21-.416-.412-.607-.61m42.168 63.367l1.79-.223m30.274-2.366l1.808-.173 1.722-.69 1.206-.73 1.637-1.94.346-.73.268-1.68.086-.774m46.91-136.696c.777-2.64-.17-6.43-2.73-6.364M267.786 234.72c-.66 2.194-2.044 3.693-3.697 4.668m3.641-46.716c-.64 1.86-1.81 3.17-3.663 4.007-1.847.833-3.986.064-6.13-.828"/>
      <path d="M243.808 202.368c1.63.802 3.084-.374 2.766-2.366-.16-.933-1.166-2.112-2.617-2.198" stroke-linecap="round"/>
      <path d="M260.167 286.63c.33.31.4.714.846.796.67.126 1.194.374 1.866-.622.827-1.104.382-2.82-.48-3.902-.922-1.167-3.692-2.18-6.83-.936-.76.416-1.69.964-2.64 2.09-.32.426-.863 1.113-1.143 1.692-.678 1.16-.966 2.107-1.09 2.488-2.06 6.823.384 11.946 4.162 16.676"/>
      <path d="M340.218 327.827c.408.426.646.796.646.796.126.3.23.684.274.86.268 1.622-.74 2.47-1.973 2.614-1.696.197-2.83-.802-3.37-2.02" stroke-linecap="round"/>
      <path d="M389.44 164.768c3.346.408 6.262 3.602 6.262 7.036 0 4.43-1.492 6.078-3.824 9.246-2.496 3.39-10.648 9.602-10.648 16.668 0 4.28 1.194 7.016 4.28 8.408 1.988.9 4.314-.074 6.373-1.03 2.687-2.34 1.663-6.44-1.144-6.93-3.286-.698-3.903 4.673-.698 4.23m17.826 69.061c-.294-1.772-1.8-3.122-3.616-3.122-2.024 0-3.666 1.68-3.666 3.766 0 1.016.394 1.938 1.034 2.616"/>
      <path d="M383.866 196.123c-1.78 1.612-2.638 3.384-2.638 6.722 0 3.1 2.692 8.16 8.962 9.962 2.44.686 4.772.62 6.233-.267M240.39 200.192c-1.622.608-3.423 1.468-4.83 3.463-1.19 1.683-1.882 4.023-2.31 6.07-.19.896-.413 3.733.16 6.663.424 2.163 1.317 4.177 2.306 6.636a7.94 7.94 0 0 0 1.037 1.236c.33.33.802.624 1.136.88m64.012 92.043c4.86 2.16 8.404 3.76 11.418 8.618.946 1.494 1.194 3.634 1.194 4.877 0 2.687-1.096 6.723-3.334 7.613-2.078 1.766-4.13 2.29-6.667 2.04-1.924-.188-3.73-1.692-4.03-2.687m-46.478-112.606c2.737 2.14 3.88 4.216 3.88 7.614 0 3.78-1.84 6.12-3.98 7.463"/>
      <path d="M261.614 236.422c4.08 6.076 6.246 8.088 6.37 14.132.116 6.672-1.693 9.663-6.077 13.634" stroke-linecap="round"/>
      <path d="M329.747 169.326c.742-.487 1.286-1.267 1.6-2.23.48-1.49.49-2.767-.306-3.902.982 1.286 1.072 2.37.796 3.93-.176.994-.81 1.617-1.6 2.23m61.468 86.161v16.164h.043c0 .01-.007 1.63-.137 2.488a34.413 34.413 0 0 1-.274 1.73"/>
      <path d="M381.414 263.968v17.423h.043c0 .013-.006 1.63-.136 2.49-.136 1-.28 1.847-.467 2.64m.669-42.949v14.63m.282-13.386v11.817m0-26.844v8.868m-.282-9.901v10.92m.282-18.933v3.436m-.282-4.134v4.977m-1.844 66.193c-.106.224-.218.466-.338.694-1.236 2.464-2.222 3.743-4.18 6.672-1.974 1.947-3.343 2.838-6.82 4.08-2.416 1.21-3.936 1.696-6.67 2.19-2.63.694-4.17.724-6.866.846-2.472.11-3.874.007-6.342-.163-2.642-.183-4.107-.66-6.744-.783-2.18-.19-3.41-.367-6.696-.362-2.248.007-3.636.02-6.76.412-2.062.366-3.232.666-6.174 1.443-2.687 1.088-6.722 2.986-6.37 3.83-.646-.846-3.682-2.742-6.368-3.83-1.942-.787-3.112-1.078-6.176-1.443-2.214-.392-3.602-.406-6.76-.412-2.186-.006-3.417.17-6.696.362-2.638.232-4.103.6-6.746.783-2.468.17-3.87.274-6.342.163-2.696-.122-4.236-.26-6.866-.846-2.636-.697-4.164-.982-6.67-2.19-2.48-1.24-3.847-2.133-6.82-4.08-1.036-1.02-1.798-1.86-2.47-2.787m-2.009-3.189c.426 3.163-.906 6.272-2.266 7.702-.846.896-2.688 2.607-4.976 2.637-3.78.06-4.91-2.66-6.14-3.184"/>
      <path d="M266.616 278.848c.702.693 1.326 1.64 1.862 2.638.946 1.79.664 4.787-.096 6.17a4.427 4.427 0 0 1-.304.478m-20.243 18.014c2.248 2.36 6.66 4.923 10.873 7.073 7.142 2.942 18.11 3.62 26.676 3.918 10.067.397 19.323.81 24.966 7.04m17.366-4.073c1.662 1.636 3.368 3.39 4.074 6.63m-7.346 11.462a8.22 8.22 0 0 1-.693.66c-2.078 1.763-4.13 2.288-6.668 2.04-1.924-.19-3.78-1.632-4.278-2.677m-6.363-2.907c.093.127.19.26.293.37 1.208 1.406 3.116 2.288 6.106 2.462m26.87-.076c-1.294 1.99-4.38 4.976-7.613 6.17-3.236-1.196-6.32-4.18-7.614-6.17l-.302-.466m16.68.462c.23.26.478.488.74.71 2.078 1.764 4.13 2.288 6.668 2.04 1.926-.19 3.463-1.476 4.07-2.688 0 0 .347-.373.444-.73"/>
      <path d="M339.04 336.634l-.743 1.194-1.13.937-1.71.71-1.66.066"/>
      <path d="M343.06 326.26c.916.703 1.814 1.767 2.302 2.903.314.73.46 1.633.606 2.366a6.864 6.864 0 0 1-1.423 4.142c-1.278 1.49-3.272 2.39-6.396 2.476a6.482 6.482 0 0 1-.47 0m.186-.282c-2.03.08-3.843-.788-6.18-2.16m63.676-67.869c-1.682-1.46-3.222-3.48-4.804-6.46a18.803 18.803 0 0 1-1.71-4.474c-.27-1.11-.468-2.208-.6-3.334-.068-1.92.14-3.926.618-6.222.79-3.792 2.203-6.726 4.08-9.066.64-.796 1.38-1.786 2.08-2.232m-1.376-76.817c2.638.2 4.89 2.932 4.868 6.61-.046 3.89-1.36 6.497-4.41 9.31-2.637 3.283-10.66 9.066-10.36 14.678.036.98.664 1.994 1.164 2.81m-3.162 3.462c.662.666 1.242 1.014 2.062 1.38 1.447.664 3.073.317 4.26-.283m-21.173-43.221c.86.68 1.716 1.466 2.186 2.6 1.862 4.492-2.19 7.86-6.92 10.4-2.677 1.818-6.666 2.79-8.3 3.28"/>
      <path d="M364.602 161.666c-.906-.01-1.98-.267-3.16-1.497-.268-.283-.683-.668-.707-.994m-14.867 4.904c-.473-.237-.98-.682-1.32-.962-.887-.993-1.48-2.336-.796-4.386.632-1.897 3.677-7.216 3.827-10.898.228-6.626-1.936-8.946-6.32-10.24"/>
      <path d="M347.316 146.464l-.132 2.116-.673 2.16-1.1 2.96-.84 1.896-.88 1.896-.44 1.323-.177.97.133.926m38.012 126.278c.176.423.697.836.697.836.647 1.08 3.162 2.98 6.46 3.01 3.78.06 4.68-2.698 4.777-3.186.477-2.886-.61-3.676-1.99-4.488 0 0-.872-.46-1.917-.277" stroke-linecap="round"/>
      <path d="M236.947 274.36c-1.336.34-2.69.36-3.686.02-2.83-.86-6.124-3.66-3.964-6.93m13.386-31.824c.284.286.376.71.418 1.07.437 3.667-2.777 4.736-6.066 4.14-1.134-.297-2.486-1.36-3.016-2.28a4.707 4.707 0 0 1-.614-2.303m22.067-23.667c.673.627.97 1.112 1.236 1.764m-1.134-8.616c.63.37.912.84 1.168 1.307"/>
      <path d="M267.862 210.622c-.31.762-.843 1.684-1.666 2.38-1.92 2.14-6.173 3.96-8.778 4.006-1.967.026-3.988-.384-6.03-1.76-2.186-1.46-3.61-3.638-4.082-6.678" stroke-linecap="round"/>
      <path d="M266.43 196.283c1.108.942 1.968 2.142 2.367 3.39"/>
      <path d="M267.83 203.238c-.886 2.928-3.626 6.648-8.622 7.84-2.436.616-6.67-.166-6.64-1.066" stroke-linecap="round"/>
      <path d="M240.038 202.664c.267 2.637 2.032 4.613 6.377 4.677 4.704.09 7.664-6.767 3.384-11.68"/>
      <path d="M229.463 226.63c.687.862 1.496 1.64 2.323 2.327 1.677 1.396 3.666 2.626 6.934 3.298m6.28.493c4.203-.606 6.673-3.638 6.103-7.302-.368-2.793-2.92-4.94-4.662-6.064" stroke-linecap="round"/>
      <path d="M249.86 188.11c1.823-.07 2.86 1.688 2.844 2.984"/>
      <path d="M249.42 163.078c1 2.614 2.947 4.667 6.032 6.824m144.178 30.964c1.72 2.364.694 6.996-4.082 7.084-1.827.036-3.476-.978-4.44-2.61" stroke-linecap="round"/>
      <path d="M381.696 169.12v16.8"/>
      <path d="M243.767 202.33c1.443 1.044 3.296-.72 2.68-2.692-.486-1.264-2.282-2.628-4.77-.937-2.747 1.87-1.99 7.764 3.286 7.863 4.703.09 7.663-6.767 3.383-11.68-4.02-4.63-11.346-3.646-16.12.264-2.034 1.617-6.873 6.863-7.067 11.626-.372 1.797-.612 3.272-.684 6.076.02 1.188.13 2.62.484 4.18.72 3.364 1.9 6.81 3.076 7.617.46.664.862 1.197 1.303 1.638.82.82 1.064 1.263 1.89 1.94 2.704 2.26 6.186 4.014 10.46 3.832 4.677-.2 7.366-3.483 6.867-7.364-.483-3.763-4.282-6.636-6.768-3.88-1.692 1.193-2.293 4.89.697 6.77 1.692.498 3.184-1.64 1.99-2.886m129.663-71.961c2.7-1.466 4.78-1.196 6.32.94 1.672 2.322 1.91 6.41 1.642 7.22-.647 2.687-1.324 3.803-3.46 6.762" stroke-linecap="round"/>
      <path d="M380.63 162.032c3.086-2.04 6.427-1.174 8.26 1.643 1.346 1.99 1.688 3.666 1.693 6.12-.162 4.224-2.806 7.672-6.722 9.206" stroke-linecap="round"/>
      <path d="M396.06 169.16c2.637.198 4.677 2.496 4.677 6.174 0 3.83-1.07 6.493-4.13 9.306-2.637 3.283-10.66 9.066-10.36 14.678.076 2.088 1.836 4.066 3.366 4.166"/>
      <path d="M396.36 202.33c-1.443 1.044-3.284-.643-2.488-2.434.66-1.237 2.19-2.786 4.677-1.096 2.747 1.87 1.99 7.764-3.286 7.863-4.704.09-7.883-6.69-3.383-11.68 4.106-4.664 11.72-3.662 16.498.138 2.032 1.618 6.122 6.06 7 11.887 1.06 7.063.924 16.728-6.36 21.07-2.93 2.148-6.988 3.126-10.67 2.968-4.678-.206-7.366-3.483-6.867-7.366.482-3.762 4.106-6.366 6.767-3.88 2.764 1.63 2.28 6.417-.697 6.77-1.76.21-3.184-1.64-1.99-2.886" stroke-linecap="round"/>
      <path d="M392.87 199.898c.776-3.49 3.767-3.816 6.18-3.78 6.69.096 11.148 7.912 11.224 16.473.096 9.662-4.064 16.176-11.036 16.476-1.807.078-4.918-.782-4.972-2.986"/>
      <path d="M396.928 198.336c6.96 1.644 9.39 7.806 9.39 13.78 0 4.876-.484 11.636-9.97 13.877" stroke-linecap="square"/>
      <path d="M408.39 266.33a3.906 3.906 0 1 0-6.264 2.343"/>
      <path d="M394.46 269.41c1.31 1.942 2.892 4.1 6.236 6.913m-1.266 10.649c-3.276-2.16-9.496-4.967-16.12-2.194-2.086 1.03-3.482 2.302-4.27 4.378-1.422 3.737.166 7.866 1.783 9.667.846.896 2.688 2.607 4.976 2.637 3.78.06 4.68-2.696 4.776-3.184.448-2.737-1.146-3.832-1.99-4.13-.66-.23-2.76-.17-3.208 1.322-.16.497-.176 1.366.222 2.012" stroke-linecap="round"/>
      <path d="M340.474 328.422c1.046 2.14-.144 3.216-1.693 3.384-2.138.26-3.283-1.443-3.432-2.986-.242-2.6 1.866-4.767 4.38-4.727 2.26.037 4.104 1.497 4.968 3.606.314.73.46 1.633.604 2.367a6.862 6.862 0 0 1-1.422 4.143c-1.28 1.49-3.273 2.39-6.396 2.476-4.224.17-7.613-3.782-7.613-7.812 0-7.712 11.438-11.918 16.972-13 6.673-1.33 8.964-1.828 17.913-2.326 3.683-.2 6.207-.098 10.16-.607 3.63-.366 6.376-.638 9.007-1.384 4.633-1.066 8.768-2.936 12.64-6.37 2.91-2.643 4.677-4.627 6.926-8.16 1.164-3.133 1.698-9.34-1.248-13.93-2.606-4.06-6.22-6.166-10.36-6.763-3.732-.64-7.004 1.07-8.968 4.773-.946 1.79-.664 4.787.096 6.17.647 1.194 2.494 2.966 4.782 2.986 3.78.06 4.68-2.696 4.776-3.184.447-2.737-1.146-3.832-1.99-4.13-.66-.23-2.76-.17-3.208 1.322-.16.497-.176 1.366.222 2.012" stroke-linecap="round"/>
      <path d="M337.216 316.173c-4.86 2.16-8.403 3.76-11.417 8.618-.946 1.494-1.196 3.634-1.196 4.877 0 2.687 1.094 6.723 3.334 7.613 2.076 1.766 4.13 2.29 6.666 2.04 1.926-.188 3.732-1.692 4.03-2.687" stroke-linecap="round"/>
      <path d="M386.107 224.128c-2.268.767-3.88 4.216-3.88 7.614 0 3.78 1.84 6.12 3.98 7.463"/>
      <path d="M387.697 236.422c-4.08 6.076-6.246 8.088-6.37 14.132-.116 6.672 1.693 9.663 6.076 13.634" stroke-linecap="round"/>
      <path d="M366.86 162.06c.106-.166.22-.327.36-.617 1.692-2.488 4.68-3.143 6.866-1.493 2.638 1.99 3.304 6.378 2.688 8.967-.448 2.24-1.967 4.104-4.048 6.463"/>
      <path d="M266.1 160.836c-2.687-1.194-4.717-.964-6.32.94-1.84 2.19-1.91 6.41-1.64 7.22.646 2.687 1.323 3.803 3.46 6.762" stroke-linecap="round"/>
      <path d="M268.68 162.032c-3.086-2.04-6.427-1.174-8.26 1.643-1.344 1.99-1.688 3.666-1.693 6.12.162 4.224 2.806 7.672 6.722 9.206"/>
      <path d="M249.677 164.768c-3.346.408-6.016 3.244-6.016 6.678 0 4.428 1.09 6.22 3.68 9.603 2.492 3.39 10.647 9.602 10.647 16.668 0 4.28-1.194 7.016-4.28 8.408-1.99.9-4.314-.074-6.373-1.03-2.688-2.34-1.663-6.44 1.144-6.93 3.284-.698 3.9 4.673.697 4.23"/>
      <path d="M244.06 169.16c-2.637.198-6.033 2.38-6.033 6.06 0 3.83 1.626 6.607 4.686 9.418 2.638 3.284 10.088 8.942 9.89 14.466-.076 2.09-1.48 4.642-2.873 4.344"/>
      <path d="M238.08 236.122c1.194-2.886 4.28-1.693 4.47 0 .436 3.668-2.778 4.776-6.067 4.18-1.134-.296-1.963-1.01-2.493-1.94-.698-1.06-.78-2.42-.39-3.728a4.903 4.903 0 0 1 .848-1.662 4.97 4.97 0 0 1 1.28-1.21c.88-.66 1.838-.617 3.342-.617 6.673 0 10.46 6.686 12.087 13.426.64 2.263 1.28 7.278.264 12.042-1.094 6.076-3.288 8.69-6.86 11.264-1.396 1.443-3.296 2.728-6.766 4.12-.76.428-2.764 1.318-4.168 1.716-1.43.41-2.776.44-3.94.09-2.83-.848-4.648-3.493-3.176-6.93 1.147-2.676 6.374-3.98 7.266-.696.16.278.41.886.402 1.642-.01.876-.376 1.93-1 2.33-1.438.914-3.737.666-3.63-1.882" stroke-linecap="round"/>
      <path d="M233.764 270.394c1.046.402 1.616.348 2.916-.23.634-.236 1.146-.603 1.86-1.01 2.648-1.446 6.673-3.727 8.41-9.06a18.803 18.803 0 0 0 1.71-4.476c.27-1.11.468-2.208.6-3.336.068-1.92-.14-3.926-.618-6.222-.79-3.79-1.744-6.86-4.08-9.066-1.16-1.676-2.14-2.637-4.28-2.687m-9.446 30.901a3.906 3.906 0 1 1 6.264 2.343"/>
      <path d="M232.243 261.446c.294-1.772 1.8-3.122 3.616-3.122 2.026 0 3.666 1.68 3.666 3.766a3.793 3.793 0 0 1-1.033 2.616"/>
      <path d="M239.373 261.248c3.334-2.388 6.19-6.948 6.22-12.336.022-4.144-1.643-8.36-3.683-10.002"/>
      <path d="M244.666 269.41c-1.308 1.942-2.89 4.1-6.234 6.913" stroke-linecap="round"/>
      <path d="M264.698 273.683c-.927-2.18-2.77-3.19-6.772-3.61-2.984-.32-6.667.6-8.21 1.922-6.168 2.776-8.034 6.767-9.962 11.29-.486 1.406-.89 3.624-.834 6.774.09 3.686 1 7.606 1.98 9.402.862 1.664 3.084 8.966 16.324 13.996 7.143 2.94 18.112 3.618 26.676 3.916 10.404.41 20.003.797 26.676 7.663"/>
      <path d="M239.68 276.872c3.277-2.16 9.496-4.967 16.12-2.194 2.086 1.03 3.482 2.302 4.27 4.378 1.422 3.737-.166 7.866-1.783 9.667-.846.896-2.688 2.607-4.976 2.637-3.78.06-4.68-2.696-4.776-3.184-.448-2.737 1.144-3.832 1.99-4.13.66-.23 2.76-.17 3.207 1.322.16.497.176 1.366-.222 2.012" stroke-linecap="round"/>
      <path d="M262.71 286.728c.3-1.096.146-2.244-.846-3.334-.996-1.094-3.633-2.14-6.872-.896-.76.416-1.688.963-2.638 2.088-.32.426-.864 1.113-1.144 1.693-.677 1.16-.966 2.108-1.09 2.49-2.46 6.993 1.646 14.42 6.666 17.613 4.378 2.786 8.867 3.682 14.38 4.08 2.666.23 4.004.28 6.668.398 2.063.097 3.846.062 6.623.042 1.38-.017 2.69-.01 4.03-.04 2.186-.062 4.448-.103 7.216.1 2.912.21 6.102.286 7.663.696 1.608.268 3.492.627 6.467.97.693.133 1.194.24 1.798.423.406.123.807.247 1.204.368 3.666 1.088 7.03 2.413 9.764 4.174.846.644 1.818 1.07 2.482 1.733.61.61.942.804 1.36 1.214 1.913 1.882 3.87 3.92 4.327 6.68.084.61.084 1.042.084 1.604 0 1.79-1.466 4.23-6.387 6.026"/>
      <path d="M298.637 328.422c-1.046 2.14.143 3.216 1.692 3.384 2.14.26 3.283-1.443 3.432-2.986.242-2.6-1.866-4.767-4.38-4.727-2.26.037-4.104 1.497-4.968 3.606-.314.73-.46 1.633-.604 2.367a6.863 6.863 0 0 0 1.423 4.143c1.278 1.49 3.272 2.39 6.394 2.476 4.224.17 7.614-3.782 7.614-7.812 0-7.712-11.438-11.918-16.972-13-6.673-1.33-8.964-1.828-17.913-2.326-3.682-.2-6.206-.098-10.16-.607-3.63-.366-6.376-.638-9.008-1.384-4.632-1.066-8.767-2.936-12.638-6.37-2.913-2.643-4.68-4.627-6.927-8.16-1.164-3.133-1.698-9.34 1.248-13.93 2.606-4.06 6.22-6.166 10.36-6.763 3.732-.64 7.004 1.07 8.968 4.773.946 1.79.664 4.787-.096 6.17-.647 1.194-2.494 2.966-4.78 2.986-3.783.06-4.682-2.696-4.778-3.184-.448-2.737 1.144-3.832 1.99-4.13.66-.23 2.76-.17 3.208 1.322.16.497.176 1.366-.222 2.012"/>
      <path d="M273.26 162.06c-.104-.166-.22-.327-.36-.617-1.69-2.488-4.68-3.143-6.866-1.493-2.637 1.99-3.303 6.378-2.688 8.967.448 2.24 1.967 4.104 4.048 6.463" stroke-linecap="round"/>
      <path d="M366.746 169.697c-4.03 4.378-8.06 6.777-14.082 6.97-1.88.062-6.474-.696-7.664-2.084-1.342-.966-2.836-2.693-1.89-6.43.63-1.896 3.677-7.213 3.826-10.896.228-6.626-1.936-8.708-6.32-9.902-6.266-2.208-12.97 3.976-17.016 6.324-2.116.704-3.194.787-6.126.796-1.93-.008-3.048-.09-6.163-.796-4.046-1.36-10.76-7.633-17.017-6.326-3.383 1.194-6.647 4.277-6.32 9.902.16 3.682 3.196 9 3.827 10.897.946 2.836-.648 4.473-1.89 6.43-2.09 1.487-6.683 2.144-7.664 2.084-6.02-.194-10.06-1.693-14.082-6.97"/>
      <path d="M297.33 314.413c.8.31.196-.19 6.246 2.06 4.86 2.16 8.29 4.032 11.304 8.79.946 1.494 1.194 3.633 1.194 4.877 0 .802-.097 1.636-.293 2.46" stroke-linecap="round"/>
      <path d="M297.668 336.038a7.98 7.98 0 0 0 3.26.826c4.226.17 7.616-3.78 7.616-7.81 0-2.796-1.62-6.16-3.662-7.04"/>
      <path d="M298.673 328.416c-1.02 2.274.433 3.604 1.88 3.672 2.14.26 3.346-1.443 3.496-2.986.162-1.678-.733-3.31-2.098-4.16" stroke-linecap="round"/>
      <path d="M390.1 164.797c3.21 0 6.01 3.676 6.01 7.243 0 4.227-2.247 6.814-3.894 8.77-1.326 1.676-2.762 2.986-4.47 4.704"/>
      <path d="M386.29 161.41c1.093.607 2.062 1.363 2.782 2.446 1.344 1.99 1.686 3.666 1.693 6.12-.16 4.226-3.2 7.16-6.918 8.934m-4.773-17.499c.222.19.436.407.64.66 1.842 2.19 1.984 6.426 1.643 7.22-.662 2.696-1.663 3.868-3.742 6.47m-6.066-14.446c2.638 1.99 3.422 6.433 2.648 8.977-.624 2.633-2.217 4.06-4.202 6.26m11.126 41.079c.316.926.837 1.246 1.493 1.934 1.426 1.494 3.617 2.78 6.168 3.622 2.44.687 4.64.17 6.318-.876m-163.006 64.036c1.24-.023 2.476.816 3.284 2.22.16.278.41.886.403 1.642-.01.876-.394 1.81-1.02 2.21-1.437.913-3.99.62-3.882-2.017" stroke-linecap="round"/>
      <path d="M241.49 231.296c4.93.92 9.677 6.867 11.23 13.364.64 2.262 1.282 7.277.264 12.04-1.096 6.076-3.288 8.69-6.862 11.266a16.494 16.494 0 0 1-2.127 1.827l-1.06.712m-7.929-12.136c2.026 0 3.798 1.94 3.798 4.014a3.793 3.793 0 0 1-1.034 2.614"/>
      <path d="M234.637 260.704c2.11 0 4.117 2.033 4.117 4.19a3.9 3.9 0 0 1-1.482 3.062"/>
      <path d="M263.978 239.488c1.937 2.6 3.216 4.84 3.81 7.726m-.066 8.487a17.27 17.27 0 0 1-1.46 4.046c-.814 1.62-2.234 3.423-3.663 4.642" stroke-linecap="round"/>
      <path d="M264.286 224.333c1.868 1.46 2.994 2.97 3.62 4.78"/>
      <path d="M267.866 219.47c-.49 1.7-1.604 2.99-3.37 4.602m-9.166-17.179l2.167-.668 1.276-.964.823-1.162.71-1.816.283-1.476" stroke-linecap="round"/>
      <path d="M240.966 199.302c-.68.17-1.643.422-2.447.863-1.212.678-2.6 1.476-3.626 2.93-1.188 1.682-1.88 4.022-2.31 6.07-.187.896-.41 3.732.162 6.662.423 2.163 1.317 4.177 2.306 6.636.366.623.676.976 1.037 1.336 1.293 1.294 2.487 2.09 4.478 1.692"/>
      <path d="M263.043 189.81c-.36 1.286-1.04 2.877-3.066 2.703" stroke-linecap="round"/>
      <path d="M246.677 198.628c-1.936-1.892-6.036-2.386-10.11.193-.626.333-1.06.76-1.668 1.19-.66.468-1.01 1.006-1.44 1.69-.47.636-1.048 1.716-1.397 2.432-.48.988-.68 1.637-.943 2.66-.746 2.862-.74 6.6-.664 6.267.113.967.206 1.867.364 2.676.64 2.798 1.368 4.76 2.224 6.18.9 1.493 3.14 4.922 7.717 6.374 1.8.177 4.873-.647 4.972-2.986"/>
      <path d="M363.763 167.07c.306-1.663 2.297-1.972 3.046-.996 1.163 1.602.39 4.084-1.963 4.816-.796.26-2.637.16-3.83-1.393-.97-1.26-.896-2.8-.633-4.03.234-.797.873-1.49 1.726-2.14 2.72-2.07 7.116-1.692 8.668 1.89 1.862 4.494-2.19 7.863-6.92 10.4-4.7 3.196-10.062 3.776-14.083 3.732-9.166-.1-16.12-4.48-20.66-6.967-1.064-.68-2.14-.46-2.686.2-.616.746-.607 1.947.26 2.736" stroke-linecap="round"/>
      <path d="M366.606 166.62c.97.046 1.23.423 1.628.81 1.162 1.604.31 4.086-2.033 4.818m17.837 61.642c-3.49 3.798-.28 10.316 2.327 11.79.902.7 1.288.33 2.01.76" stroke-linecap="round"/>
      <path d="M383.123 206.434c-1.144.796-1.648 1.69-1.692 3.244-.036 1.3.19 2.746 1.41 4.016 1.903 1.978 6.624 3.7 9.23 3.746 1.966.024 3.987-.386 6.03-1.76 2.184-1.462 3.334-3.436 3.83-6.376m-20.861 61.79c0 .012-.006 1.63-.134 2.488-.38 2.792-.823 4.4-2.09 6.916-1.236 2.466-2.223 3.744-4.18 6.673-1.974 1.947-3.343 2.84-6.822 4.08-2.413 1.21-3.934 1.696-6.668 2.19-2.632.696-4.17.724-6.867.846-2.472.112-3.874.007-6.343-.163-2.64-.183-4.106-.66-6.744-.782-2.178-.19-3.41-.367-6.696-.36-2.248.006-3.636.02-6.76.41-2.063.366-3.233.667-6.176 1.444-2.686 1.088-6.722 2.986-6.37 3.83-.646-.846-3.68-2.742-6.368-3.83-1.942-.787-3.112-1.078-6.176-1.443-2.213-.39-3.6-.406-6.76-.41-2.186-.008-3.416.17-6.696.36-2.638.232-4.103.6-6.744.783-2.467.17-3.87.276-6.34.163-2.697-.122-4.236-.26-6.868-.846-2.633-.696-4.164-.98-6.668-2.19-2.48-1.24-3.847-2.133-6.822-4.08-1.967-1.928-2.944-3.217-4.18-6.672-1.266-2.617-1.71-4.123-2.09-6.916-.13-.96-.136-2.476-.136-2.488V169.33H381.13v101.774h.042z"/>
    </g>
    <g fill="#c7b37f" stroke="#c7b37f">
      <path d="M247.942 286.646a2.6 2.6 0 1 1 6 0 2.6 2.6 0 0 1-6 0zm-16.362-17.671c0-1.236.79-2.24 1.766-2.24.976 0 1.767 1.004 1.767 2.24 0 1.237-.79 2.24-1.767 2.24-.976 0-1.766-1.003-1.766-2.24z" stroke-width=".328"/>
      <path d="M241.312 223.69c0-1.016.764-1.84 1.706-1.84.94 0 1.706.826 1.706 1.84 0 1.016-.764 1.84-1.706 1.84-.942 0-1.706-.824-1.706-1.84zm30.63-66.632c-.107-1.018.604-1.918 1.367-2.008.86-.09 1.648.663 1.766 1.68.108 1.02-.604 1.92-1.366 2.01-.864.09-1.66-.663-1.768-1.682z" stroke="none"/>
    </g>
    <g stroke="#c7b37f" stroke-width=".632" stroke-linecap="round">
      <path d="M239.31 233.946c-.368.16-.67.292-.847.682-.264.277-.32.378-.623.83-.16.332-.188.716-.243 1.19m4.716 26.748c.347-.42.667-.648.89-1.08.278-.36.443-.667.687-.94.22-.346.318-.666.613-.916.273-.608.41-.804.67-1.318m-1.263 13.938c-.692.27-.942.39-1.617.696-.438.232-.676.38-1.096.642a17.4 17.4 0 0 0-1.244.836c-.49.36-.744.696-1.22.976m14.964-37.889c-.32-.33-.494-.623-.82-.846-.343-.337-.63-.636-.896-.846-.367-.3-.683-.437-.966-.716"/>
      <path d="M264.19 224.94c-.477.212-.726.38-1.22.643-.667.187-.96.284-1.498.31" stroke-linecap="butt"/>
      <path d="M237.44 208.436c.163.68.2.927.418 1.488.276.706.606 1.076.926 1.707.437.667.71 1.02 1.273 1.672.496.486.81.73 1.39 1.11.66.36.906.486 1.487.796m-.988-6.86c.486.26.736.466 1.244.667.46.19.733.27 1.22.383.666.16 1.04.188 1.716.204.73.017.946 0 1.866-.16m7.171-40.666c-.798-.466-1.286-.67-2.046-1.194-.773-.634-1.198-.86-1.87-1.618-.486-.473-.767-.76-1.16-1.294-.36-.486-.498-.804-.816-1.318m7.498-4.662c.26.67.322 1.078.642 1.717.434.868.77 1.323 1.423 2.04.906.994 1.672 1.276 2.742 2.09m1.462-6.917c.26.602.324.972.637 1.643.277.604.467.773.83 1.22.466.668.767.864 1.346 1.317.67.628 1.146.683 1.88 1.12"/>
    </g>
    <path d="M333.3 161.622c-.062-1.696-1.722-1.87-2.362-1.87-1.847 0-2.346 1.16-4.66 2.388-2.888 1.66-4.13 1.896-6.698 1.918-2.667-.023-3.843-.367-6.73-1.918-2.306-1.237-2.693-2.362-4.64-2.362a2.33 2.33 0 0 0-2.248 2.463s-.02.616.06.863c.03.13.19.09.24.204-.026-.77.132-1.168.61-1.686.488-.664 1.297-.84 1.626-.84 1.847 0 2.63 1.186 4.836 2.422 2.887 1.66 4.13 1.896 6.697 1.918 2.666-.023 3.844-.367 6.732-1.918 2.303-1.237 2.966-2.62 4.812-2.62.64 0 1.092.414 1.3 1.066.13.4.068.67.09.828.017.077.112.07.133.163.064-.297.214-.404.192-1.108z" fill="#703d29" stroke-width=".177"/>
  </g>
  <g fill="#703d29">
    <path d="M264.397 294.03c.618-.66.91-.36 1.006-.607.07-.19-.082-.21-.293-.288-.282-.106-.68-.166-.863-.27-.292-.11-.667-.26-.86-.37-.12-.046-.4-.187-.478.026-.148.392 1.024.368.63 1.41-.066.178-.233.662-.816 1.2l-2.66 2.883c-.06.067-.168.21-.22.186-.06-.023-.06-.2-.062-.288l.038-4.09c.004-.777.07-1.362.196-1.688.176-.47.716-.076.83-.378.07-.19.016-.197-.306-.318-.16-.06-.47-.126-1.114-.366-.342-.128-.668-.3-1-.426-.16-.067-.43-.263-.63.006-.03.08.077.196.103.217.37.267.464.443.472.943l.073 7.446c.006.637.064.686.166.724.11.042.186-.007.406-.266l6.26-6.7z"/>
    <path d="M267.488 296.18c.34-1.08.98-.43 1.103-.816.044-.137 0-.176-.308-.272-.684-.186-.967-.266-1.336-.372-.36-.113-.744-.286-1.144-.41-.092-.03-.338-.146-.4.06-.126.397 1.134.444.807 1.48l-1.724 6.466c-.34 1.082-.986.663-1.11.962-.02.067-.024.143.068.172.267.084.722.178 1.162.316.8.263 1.166.418 1.644.637.236.076.342.068.382-.067.116-.366-1.198-.203-.767-1.604l1.713-6.432zm3.699 1.096c.204-.687.623-.692.904-.48 1.042.31 1.368 1.327 1.036 2.46-.2.676-.462 1.298-2.018.834-.31-.093-.69-.206-.606-.492l.686-2.313zm-2.837 4.926c-.428 1.443-1.16.818-1.26 1.186-.067.23.16.268.273.292.616.162 1.044.26 1.6.424.433.13.698.268.873.31.237.07.34.026.37-.078.122-.412-1.037-.246-.674-1.47l.687-1.98c.118-.4.08-.6.626-.338.616.163.67.31.767.886l.33 2.064c.123.76.24 1.678 1.063 1.82.412.12 1.167.07 1.272-.284.027-.092-.014-.18-.107-.206-.102-.03-.226.007-.33-.023-.08-.024-.277-.082-.316-.292-.316-1.663-.7-3.682-.68-3.66.036-.116.366-.13.74-.306.382-.186.806-.62 1.023-1.264.166-.628.428-2.203-1.828-2.87-.69-.206-1.406-.368-2.096-.672-.66-.192-.718-.263-1.192-.403-.124-.037-.244-.01-.278.104-.122.41 1.127.32.747 1.603l-1.492 6.037zm8.424 2.466c-.33 1.382-1.378.64-1.487.994-.06.266.12.287.307.333.418.1.774.136 1.474.304.7.168 1.034.298 1.462.398.303.073.604.168.67-.12.08-.326-1.34-.31-.997-1.74l1.26-6.247c.134-.667.262-.69.68-.487l.89.214c1.212.242.668 1.46.986 1.66.27.066.266-.414.277-.668l.142-1.096c.016-.12.066-.28-.1-.32-.973-.232-1.686-.364-3.21-.72-1.626-.367-2.216-.68-3.187-.814-.166-.038-.196.124-.234.238l-.636 1.493c-.067.146-.18.386.038.44.47.11.622-1.486 1.703-1.2l.878.21c.428.102.62.186.386.743l-1.293 6.387zm12.698-3.237c.414-.64.836-.602.886-.772.037-.2-.117-.192-.34-.233-.296-.066-.6-.063-.896-.117-.306-.067-.693-.16-.9-.216-.126-.024-.426-.116-.468.108-.076.41 1.072.174.867 1.278-.033.188-.13.696-.693 1.322l-2.11 3.3c-.047.078-.12.234-.183.222-.063-.01-.086-.186-.102-.274l-.673-4.036c-.133-.766-.167-1.342-.102-1.694.09-.494.693-.2.76-.618.038-.2-.017-.198-.366-.26-.17-.032-.484-.04-1.16-.167-.36-.066-.71-.18-1.06-.244-.167-.03-.467-.184-.62.098-.016.082.11.178.14.196.41.198.634.364.63.846l1.364 7.32c.1.63.183.666.288.686.116.022.182-.04.366-.323l4.182-6.623zm.696 6.726c.006.292-.02.384.233.6.69.266 1.082.628 1.73.736 1.387.234 2.638-.66 2.796-2.194.26-1.496-.366-2.12-1.406-2.862-1.304-.933-1.862-1.184-1.73-1.973.132-.788.684-1.166 1.384-1.038 1.823.306 1.616 2.622 1.86 2.663.232.04.288-.097.31-.36l.147-1.698c.026-.274.087-.446-.072-.472-.138-.023-.436.12-.672.098-.318-.063-.686-.687-1.666-.732-1.24-.207-2.263.64-2.48 1.996-.207 1.236.342 1.8 1.178 2.4 1.667 1.122 2.21 1.387 2.042 2.388-.168.942-.89 1.4-1.716 1.263-1.176-.197-1.664-1.38-1.804-2.666-.016-.16-.02-.27-.19-.298-.266-.046-.216.316-.212.486l.06 1.668zm16.821-4.461c.346-.68.78-.686.8-.86.017-.2-.136-.177-.36-.196-.3-.026-.606 0-.906-.024-.31-.026-.607-.096-.918-.12-.128-.01-.436-.07-.464.166-.032.418 1.086.063.997 1.182-.016.19-.07.606-.463 1.378l-1.763 3.603c-.038.08-.094.244-.168.24-.064-.008-.106-.177-.13-.263l-1.09-3.943c-.212-.747-.307-1.317-.28-1.674.04-.6.67-.27.694-.693.016-.202-.038-.194-.38-.22-.173-.014-.487.01-1.173-.046-.364-.03-.724-.106-1.078-.133-.16-.013-.486-.134-.608.16-.007.086.128.167.16.182.428.163.668.296.714.776l2.123 7.136c.164.616.26.643.36.66.116.01.176-.067.318-.367l3.478-6.926z"/>
    <path d="M307.684 308.48c-.01 1.218-1.04.994-1.046 1.472-.002.203.213.146.33.146.292 0 .682-.043.926-.04.376.007.74.066 1.268.06.14 0 .408.014.41-.163.004-.66-1.38.24-1.36-2.063l.037-4.06c0-.108.024-.19.088-.19.064 0 .118.06.193.166l6.116 6.266c.076.096.128.168.278.17.13 0 .13-.096.133-.368l.068-6.698c.01-1.264.922-.96.926-1.318 0-.036 0-.166-.204-.168-.097 0-.473.044-1.16.038-.742-.007-1.063-.067-1.226-.068-.14 0-.172.118-.173.2-.003.396 1.31.192 1.3 1.278l-.034 3.977c-.004.298-.026.44-.09.44-.066 0-.192-.144-.33-.313l-4.276-6.303c-.19-.228-.062-.31-.406-.313-.67-.006-.86.04-1.13.038-.203 0-.396-.06-.6-.063-.13 0-.184.093-.186.2-.006.674 1.206-.192 1.186 2.1l-.04 4.638zm10.406-6.376c.01-1.134.813-.697.816-1.103 0-.143-.062-.167-.376-.17-.61-.006-.998.04-1.386.036-.376 0-.796-.066-1.214-.068-.096 0-.364-.04-.366.164-.003.418 1.164.094 1.144 1.18l.01 6.732c-.01 1.134-.78.817-.784 1.236 0 .068.02.142.117.143.28.007.743-.04 1.206-.037.838.007 1.236.068 1.633.062.247 0 .344-.046.346-.176.003-.382-1.206.167-1.192-1.312l.06-6.696zm4.606 6.649c.013 1.42-1.207.868-1.203 1.324.003.263.186.26.38.247.428-.006.782-.064 1.603-.06.72-.007 1.076.038 1.604.034.312 0 .627.03.626-.266-.003-.336-1.376.023-1.388-1.446l-.047-6.397c-.006-.672.102-.633.642-.637l.913-.007c1.236-.068.904 1.27 1.334 1.266.278 0 .166-.467.133-.61l-.128-1.097c-.012-.12-.013-.287-.174-.286-1 .01-1.718.062-3.287.076-1.67.013-2.29-.028-3.29-.02-.16 0-.16.17-.17.29l-.167 1.677c-.02.166-.082.418.144.416.483-.007.147-1.666 1.36-1.677l.904-.01c.44-.006.66.066.664.63l.048 6.64zm6.269-2.269c-.193.016-.342.04-.36-.08-.014-.167.04-.303.082-.46l.66-2.172c.042-.136.084-.16.106-.162.063-.007.02 0 .093.088l1.048 2.086c.066.138.14.264.163.43.008.12-.142.12-.336.136l-1.467.114zm1.84.602c.278-.022.34.093.768.993.143.31.236.62.266.782.066.726-.716.666-.688 1 .013.167.16.132.343.117.31-.026.704-.106 1.176-.142.707-.066 1-.03 1.386-.06.29-.024.388-.008.372-.21-.03-.393-.673.117-.983-.7l-3.466-7.06c-.168-.346-.19-.367-.288-.36-.14.012-.176.24-.236.438l-2.337 7.43c-.216.688-.767.66-.746.933.013.164.18.117.33.106.312-.024.62-.097.94-.122.343-.027.668-.006 1.01-.03.226-.02.666.038.646-.212-.026-.32-1.167-.038-1.236-.896-.022-.286.096-.714.16-.968.186-.806.407-.87.69-.886l2.11-.166zm8.306-4.96c-.11-.817-.068-.836 1.222-1.004 2.066-.27 1.407 1.223 1.908 1.167.246-.033.14-.416.11-.67l-.197-1.166c-.016-.107-.104-.216-.243-.197-.938.123-1.667.267-2.423.367-1.63.214-2.404.268-2.84.326-.16.02-.222.126-.208.233.06.473 1.216-.064 1.366 1l.73 6.642c.19 1.444-.706.912-.633 1.466.01.072.08.123.22.106.686-.077 1.027-.184 1.367-.227.47-.062.87-.066 1.274-.12.266-.036.496-.017.466-.264-.043-.32-1.208.136-1.38-1.18l-.232-1.76c-.09-.688-.16-.824.34-.89l.787-.102c1.108-.146.976 1.148 1.316 1.103.267-.034.137-.46.106-.604l-.362-2.096c-.063-.32-.167-.28-.24-.27-.214.028-.103 1.122-1.02 1.242l-.67.09c-.46.06-.47-.024-.637-.633l-.218-1.667zm3.93 2.714c.44 2.383 2.16 3.703 4.286 3.31 3.37-.626 3.482-3.62 3.177-6.266-.46-2.49-2.316-3.712-4.372-3.306-2.62.49-3.668 2.688-3.09 6.26zm1.174-.91c-.316-1.703-.087-3.422 1.692-3.788 1.36-.276 2.9.847 3.38 3.442.363 1.96.063 3.632-1.748 4.004-1.886.386-3.006-1.946-3.324-3.66zm8.336-4.16c-.168-.696.166-.774.643-.867 1.066-.263 1.847.466 2.12 1.603.164.686.268 1.36-1.33 1.732-.314.076-.7.168-.77-.122l-.664-2.346zm.006 6.686c.36 1.463-.687 1.283-.498 1.664.066.23.267.144.382.116.62-.126 1.033-.297 1.697-.432.44-.106.732-.127.91-.17.24-.067.307-.147.282-.262-.1-.418-1.022.307-1.32-.936l-.482-2.008c-.098-.407-.18-.473.374-.606.622-.126.736-.066 1.098.387l1.32 1.623c.484.696.994 1.247 1.82 1.06.418-.1 1.046-.623.96-.883-.022-.092-.102-.147-.196-.124-.106.026-.192.12-.297.146-.083.02-.282.068-.42-.096-1.104-1.282-2.397-2.763-2.413-2.822-.028-.116.26-.294.49-.634.236-.362.436-.864.266-1.697-.128-.634-.73-2.12-3.018-1.672-.7.17-1.4.386-2.1.664-.668.168-.763.132-1.234.247-.126.03-.216.114-.188.23.1.42 1.136-.284 1.448 1.016l1.227 6.11zm8.621-1.928c.366 1.376-.963 1.126-.846 1.676.066.264.24.197.427.16.416-.11.747-.244 1.444-.424.698-.182 1.064-.224 1.47-.332.3-.078.618-.097.447-.376-.084-.323-1.33.367-1.697-1.066l-1.36-6.226c-.146-.666-.066-.64.37-.76l.886-.228c1.186-.366 1.184 1.013 1.6.906.27-.07.04-.492-.017-.626l-.39-1.034c-.04-.112-.082-.274-.238-.233-.968.26-1.663.477-3.172.87-1.62.392-2.228.626-3.196.776-.166.04-.116.203-.096.32l.228 1.67c.018.166.02.426.24.37.468-.12-.236-1.666.94-1.86l.874-.226c.427-.11.646-.08.69.476l1.386 6.364zm6.498-7.334c-.303-1.093.688-.894.48-1.286-.038-.138-.097-.146-.407-.06-.69.163-.96.313-1.323.416-.363.1-.78.166-1.183.278-.093.027-.36.064-.307.26.112.403 1.193-.244 1.483.803l1.632 6.623c.303 1.093-.626 1-.414 1.404.016.068.06.132.162.106.27-.074.702-.244 1.147-.367.808-.226 1.204-.286 1.687-.392.24-.066.32-.138.284-.264-.102-.368-1.116.482-1.608-.933l-1.622-6.487zm2.291 2.669c.77 2.298 2.667 3.367 4.706 2.68 3.26-1.086 2.946-4.07 2.414-6.664-.803-2.4-2.81-3.363-4.79-2.666-2.428.838-3.168 3.16-2.33 6.64zm1.038-1.066c-.66-1.642-.663-3.376 1.148-3.986 1.308-.46 2.99.436 3.828 2.94.63 1.88.666 3.687-1.176 4.208-1.813.644-3.247-1.608-3.8-3.16zm7.627-6.419c-.262-.666.048-.788.418-.934 1.01-.398 1.894.204 2.323 1.292.26.666.444 1.302-1.076 1.9-.3.12-.67.264-.78-.014l-.883-2.244zm.797 6.63c.662 1.398-.403 1.36-.263 1.706.088.223.286.107.396.063.6-.197.98-.438 1.62-.66.42-.166.71-.228.878-.296.23-.09.284-.19.246-.29-.168-.4-.968.447-1.436-.742l-.768-1.922c-.164-.39-.244-.443.286-.662.6-.197.72-.168 1.14.23l1.633 1.426c.663.623 1.168 1.097 1.948.786.4-.167.964-.662.828-1.006-.036-.09-.12-.132-.21-.097-.1.04-.176.146-.276.186-.08.03-.27.106-.43-.036-1.27-1.116-2.766-2.392-2.78-2.46-.046-.11.206-.324.396-.694.186-.38.313-.906.033-1.617-.2-.61-1.018-1.998-3.208-1.136-.67.264-1.332.676-2.002.84-.63.248-.728.236-1.188.416-.12.06-.198.143-.164.264.167.4 1.086-.44 1.676.804l1.926 4.89z"/>
  </g>
  <g fill="#fedf00" transform="matrix(.64 0 0 .64 0 16)">
    <path d="M412.66 249.26h82.18v82.023h-82.18z" fill="#d62b1e"/>
    <path id="a" d="M461.2 313.83s-.048 2.93-.866 6.287c-.933 2.72-.94 2.72-1.796 4.043-1.163 1.78-2.668 3.082-3.81 3.887-1.96 1.268-3.96 1.888-6.96 1.71-6.49-.486-8.037-6.44-9.282-11.273-1.32-6.13-6.073-7.923-7.463-6.064-1.4 1.09-1.48 2.914-.31 4.666 1.243 1.866 4.098 2.8 4.098 2.8l-2.933 3.73s-6.302-.82-7.636-7.392c-.466-2.488.742-7.134 4.89-8.622 6.298-1.773 8.687 2.006 10.32 6.192 2.246 4.384 3.21 12.434 9.43 11.19 3.383-.677 4.976-6.698 4.976-7.862l2.467-2.644 3.664 1.167.1.078z" fill="#fff"/>
    <use height="100%" width="100%" xlink:href="#a" transform="matrix(-1 0 0 1 907.62 0)"/>
    <path d="M461.12 278.96l10.76-11.643s1.624-1.31 1.61-3.401l-2.22.346-.496-1.14-.11-1.148 2.98-.63c.06-.484.008-.86.093-1.384.08-.494.19-.76.31-1.244l-3.264.218c.166-.67.128-.876.31-1.406.166-.447.198-.618.604-1.103.606-.09 1.168-.228 1.907-.304.728-.074 1.143-.04 1.873-.086 1.78-3.32 9.19-6.373 14.464-.904 3.81 3.968 2.99 11.22-1.96 13.14-2.798 1.087-6.063.444-6.86-1.11l1.97-3.867c2.72 1.626 4.976-.396 4.82-2.496-.197-2.664-1.92-4.297-4.364-4.61-2.264-.197-3.872 1.093-4.898 3.11-.626 1.23-.336 2.134-.644 3.6-.226 1.482-.1 2.31-.637 3.81-.32 1.087-1.166 2.433-2.37 3.69l-11.03 11.936-42.94 46.446-3.228-2.984 43.21-46.737z"/>
    <path d="M429.61 283.04s2.7 13.372 11.874 33.43c4.666-1.71 7.42-2.798 12.362-2.798 4.943 0 7.697.933 12.362 2.8 9.174-20.06 11.874-33.432 11.874-33.432l-24.236-31.177-24.236 31.177z" fill="#fff"/>
    <path d="M466.12 262.41l16.82 21.637s-2.243 10.62-9.078 26.364c-2.646-.6-4.916-1.127-7.733-1.318l-.01-46.67zm-4.74 0l-16.82 21.637s2.243 10.62 9.078 26.364c2.646-.6 4.916-1.127 7.733-1.318l.01-46.67z"/>
  </g>
  <g fill="#d62b1e">
    <path d="M322.304 176.62H374.9v62.496h-62.696z" fill="#fedf00"/>
    <path d="M329.67 176.62h7.842v62.496h-7.842zm16.028 0h7.842v62.496h-7.842zm16.027 0h7.842v62.496h-7.842z"/>
  </g>
  <g fill="#d62b1e" stroke="#d62b1e" stroke-width=".613">
    <path d="M264.3 273.642c.16.946.487 2.668 1.386 4.23.946 1.493.697 1.462 2.737 3.84 1.063 1.176 2.696 2.183 3.986 2.877 1.294.696 2.26 1.038 4.38 1.696 4.17 1.096 7.097 1.163 10.606 1.023 2.738-.11 4.828-.447 6.66-.68 2.468-.332 4.307-.63 7.116-.647 1.366-.067 2.666-.07 3.93 0 1.64.086 3.06.323 4.678.647 3.483.696 7.016 2.04 7.016 2.04l.01-64.82-62.606-.014v37.467s.108 1.83.204 2.44z" fill="#fedf00" stroke="none"/>
    <path d="M270.406 283.166l2.466 1.436 3.378 1.216-.004-62.177h-6.84zm29.224 2.376l.006-61.904h-6.862v62.734s4.006-.614 6.844-.633zm11.672-61.898h-6.832v62.084c1.9.206 3.866.646 6.844 1.077l-.012-63.16zm-23.362 0v63.332c-.06.006-3.906.202-6.872-.002v-63.32z" stroke-width=".328"/>
  </g>
  <g transform="matrix(.64 0 0 .64 0 16)">
    <path d="M686.48 402.39c-.233 1.477-.76 4.012-2.163 6.608-1.477 2.333-.932 2.27-4.276 6-1.646 1.838-4.214 3.412-6.228 4.496-2.02 1.09-3.616 1.623-6.84 2.496-6.62 1.71-11.092 1.817-16.676 1.698-4.28-.17-7.646-.698-10.26-1.062-3.868-.618-6.73-.827-11.118-1.01-2.133-.09-4.16-.11-6.142 0-2.406.132-4.782.606-7.31 1.01-6.44 1.09-11.032 3.188-11.032 3.188l.067-86.666 82.193-.024v68.643s-.168 2.86-.318 3.81z" fill="#fedf00"/>
    <g id="b">
      <path d="M624.62 346.91s-.366.176-.694.28c-.298.33-.447.62-.78.814-.444.39-.77.603-1.26.843-.23.164-.42.216-.696.438-.26.32-.078.63-.26 1-.186.406-.368.697-.666.938-.366.434-.66.61-1.063 1-.418.396-.687.726-1.093 1-.136.072-.2.142-.346.187-.216.067-.36-.01-.663.062-.388.134-.61.663-.78.72.11.217.106.37.218.693.168.323.706 1.216.812 1.437.21.306.27.7.632.78.637.17.868.166 1.312.126.792.182 1.28.168 2.03.47.614.263.864.674 1.47.843.474.21.772.34 1.28.438.388.074.61.132 1 .094.26-.024.378-.12.626-.166.06-.01.08 0 .126 0l-.03.376c-.006 0 .004.03 0 .032v.062h.062l2.06.906a1.72 1.72 0 0 0-.186.376c-.098.32-.114.69-.063.844.63 1.887 1.16 3.067 1.47 3.187.616.236.806.866 1.166 1.6-.123.132-.227.2-.344.312-.614.69-1.162 1.008-1.666 1.812-.746 1.188-1.248 1.203-.312 2.78.66.926.814 1.1 1.63 2.407.363.668.663 1.172.782 1.968.207.762.278 1.19.313 1.97l.967.374.667-.667.626-1.187.03-.906c-.24-.203-.308-.474-.26-.782.07-.368.614-.29.72-.626.282-.46-.333-.734-.668-1.093-.606-.67-1.43-.833-1.626-1.844-.062-.273.078-.427.376-.72.866-.84 1.13-.972 1.97-1.81.24.14.61.192.968.124.28-.063.63.126 1.406.376.61.173.873.086 1.22.03l.374-.093c.06.21.11.416.126.687.063 1.062-.166 2.996.166 3.6.132.214.187.333.282.664.1.24.214.396.22.666.01.696.046 1.14 0 1.876-.046.69-.104 1.042-.22 1.76-.074.46-.166.714-.437 1.062-.283.364-.696.418-.97.688l-.092 1 1.126.47 1.28.31.688-.28c0-.264.04-.4.166-.626.128-.247.232-.44.47-.63.362-.144.76.128.906-.096.16-.242.06-.338.032-.76-.047-.662-.186-.99-.283-1.667-.164-1.11-.21-1.686-.166-2.76.032-.616.04-.966.167-1.662.172-.883.486-1.31.688-2.188.226-.977.266-1.606.376-2.468 3.17.462 6.807.397 9.344-.376.17-.037.76-.26.76-.26.8.69 1.706 1.264 2.718 1.626-.006.1-.016.846 0 .968.037.288-.04.482.126.72.106.16.197.24.376.28.263.06.466.023.667-.166.226-.2.183-.464.26-.76.03-.14.006-.664 0-.687.366.066.49.062.874.062.367 0 .63.014.876-.03.004.08.02.368.03.467.027.246-.076.436.03.667.112.23.26.36.6.407a.66.66 0 0 0 .632-.094c.296-.186.264-.498.313-.844.016-.11.01-.693 0-.782.212-.067.827-.292 1.03-.376a6.12 6.12 0 0 1-.093.812c-.07.376-.12.68-.26.938-.206.668-.44.866-.76 1.376-.376.634-.672.986-1.03 1.662-.212.266-.368.386-.663.667-.267.337-.343.666-.696.906-.324.438-.61.724-.938 1.062-.693.66-1.16.11-2.093.844l-.22 1.03 1.438.632 1.282.26.437-.26c-.01-.3.033-.614.22-.76.213-.27.44-.36.78-.407.362-.06.748.034 1.032-.218.36-.31.36-.914.626-1.47.86-1.723 1.62-2.662 3-3.906.613-.697 1.138-.768 1.667-1.438.246-.322.62-.47.63-.876.01-.284-.143-.416-.218-.688-.104-.377-.187-1-.187-1 1.62.744.97.646 1.26 1.406.224.616-.034 1.04.06 1.687.112.766.467 1.114.632 1.876.078.906-.143 1.42-.312 2.313-.16.786-.13 1.277-.47 2-.32.69-.67 1.077-1.166 1.662-.21.176-.37.26-.694.407l-.124 1.03 1.126.376 1.626.437.376-.343c.166-.666-.064-1.617.407-1.688.406-.062.693 0 .782-.312.036-.132.067-.326.092-.626.22-1.886.422-3.646.626-4.6.23-.968.216-1.178.407-1.907.176-.664-.086-.282.406-1.687.734-2.097-.208-2.376-1.063-3.666-.462-.693-.622-.944-.687-1.6-.097-.817.164-1.496.126-2.76-.04-1.32-.023-2.16 0-2.876.116-.063.222-.12.344-.188 1.17-.642 1.636-.836 2.374-2.47a3.43 3.43 0 0 0 .312-1.467c-.006-.332-.066-.662-.094-1.032-.03-.4-.19-.637-.312-.937-.13-.318-.326-.66-.663-.844-.772-.924-1.78-1.132-2.718-1.47-1.486-.63-2.606-.433-4.126-.66-1.673-.133-2.607-.16-4.282-.063-2.006.116-3.128.62-6.126.76-1.916.223-2.977.37-4.906.407-2.26.042-4.42-.46-6.78-.344-2.46.21-2.493.762-6.188 1.063a66.916 66.916 0 0 1-3.843.187l-2.168-.687c.867-.306 1.067-.488 1.47-1.03.27-.367.232-.68.662-1.064.266-.312.443-.622.78-.97a2.2 2.2 0 0 0-.937-.436c-.363-.076-.673-.042-.937 0-.494.066-.772.124-1.22.344-.368.177-.623.367-.843.693 0 0-1.286-.828-2.187-1.218-1.12-.486-1.6-.712-3-.907zm1.97 11.906h.06c-.01.01-.018.022-.03.03l-.03-.03z" fill="#d62b1e"/>
      <g fill="none" stroke="#fedf00" stroke-width=".987" stroke-linecap="round">
        <path d="M668.77 369.62l-.763.244c-.867.402-1.678.418-2.6.496-2.644.202-4.272-1.067-6.998-.847-1.406.108-2.026 1.19-3.46 1.648a9.247 9.247 0 0 1-1.702.283l.612-1.034s-1.284.26-2.116.263a7.66 7.66 0 0 1-1.623-.13l1.018-.96s-.814-.133-1.294-.336a3.918 3.918 0 0 1-1.06-.63 20.484 20.484 0 0 0 1.69-.363c1.666-.386 2.04-1.147 3.89-1.326 1.16-.112 3.032-.047 7.643.716 3.036.602 4.38.267 6.636-.268.76-.346 1.01-1.01 1.103-1.788.092-.776-.404-1.404-.874-1.81-.123-.106-.444-.336-1.113-.363"/>
        <path d="M624.8 360.61c-.63-.066-.884.01-1.34.291-.48.297-.64.698-.888 1.144.446.1.7.36 1.142.263.347-.084.627-.238.76-.607.317-.363.433-.676.43-1.166l-.104-.024z" fill="#fcd900" stroke-width=".613" stroke-linecap="butt"/>
        <path d="M636.04 363.79s.264.48.407.8c.248.664.376.878.624 1.467.2.8.116 1.284.242 2.098.022.143.06.263.076.376l-.06 1.13m6.801-6.961s-.22.812-.364 1.333c-.362 1.363-.676 2.087-.944 3.46-.046.23-.078.442-.103.644m-10.869-3.977c.79.176.644 3.36 1.79 4.09"/>
        <path d="M660.12 369.78l.384-.26a8.164 8.164 0 0 0 2.686-1.79" stroke-linecap="butt"/>
        <path d="M662.38 368.02h.007c3.633-.883 6.886-2.648 7.68-2.87"/>
        <path d="M666.97 363.61c.3-.01.686-.033.83-.068 1.467-.21 1.703.687 2.726 1.268 1.867 1.04 2.098 2.307 4.3 3.366.116.066.223.107.32.166l.848.43"/>
        <path d="M617.7 364.63c.268.067.432.08.707.064.332-.03.484-.238.817-.26.27-.01.462-.03.684.126.14.1.2.19.28.342.087.166.163.282.124.466-.06.284-.324.418-.614.42-.237 0-.434-.062-.644-.272a.467.467 0 0 1-.04-.39c-.283.108-.49.112-.776.017a1.04 1.04 0 0 1-.638-.613z" fill="#fcd900" stroke-width=".613" stroke-linecap="butt"/>
      </g>
      <path d="M626.13 364.17c-.797-.237-1.966-.826-1.966-.826.323-.26.687-.266.863-.666.39-.41.373-.79.693-1.32.216-.62.184-.964.67-1.343.29-.23.763-.27 1.12-.166.362.113.768.4.847.766.137.66-.16.886-.246 1.464-.086.668-.292.894-.194 1.46.066.376.227.62.364.907 0 0-1.264-.16-2.04-.38zm-.99.96a.628.628 0 1 1 .64.618.627.627 0 0 1-.64-.618zm-1.76-16.61s-.09-.06-.144-.104c-.383-.31-.42-.663-.6-1.11-.173-.434-.268-.69-.316-1.164-.06-.406 0-.64 0-1.048 0-.37.04-.678 0-.944-.04-.376-.03-.612-.21-.944-.097-.18-.394-.337-.314-.42.094-.096.267-.02.42 0 .4.06.63.166.943.42.376.306.626.67.67 1.06.167.647.26.897.408 1.467.083.296.13.47.284.734.16.276.32.383.624.63l-.01.022c-.3.326-.446.638-.778.833-.306.27-.66.403-.846.673l-.033-.01zm3.6 10.64l2.23 1.03c1.16-.634 2.474-1.923 3.497-3.918.88-1.718 1.02-2.66 1.364-4.313l-1.788-.682-.367.073c-.662 1.724-.693 2.706-1.618 4.193-.802 1.29-1.718 2.306-2.66 3.034l-.677.483zm4.94 18.12c.36-.493.613-.81.922-1.264.466-.606.8-.702 1.312-1.16.166.016.336-.012.48.07-.027.646-.066.96-.18 1.642-.1.48-.186.746-.346 1.21-.136.388-.16.64-.39.98-.164.226-.29.316-.476.617-.61-.742-1.33-1.297-1.322-1.906zm33.01 1.86c.673.21.92.27 1.47.638.61.3.894.676 1.466.944.027.164.104.32.063.483-.632.122-.928.207-1.63.26a8.39 8.39 0 0 1-1.26 0c-.41-.022-.668.026-1.048-.104-.26-.086-.384-.19-.63-.313.673-.696.88-1.637 1.468-1.797zm-9.76-2.04c.673.21.92.27 1.468.638.61.3.896.676 1.468.944.027.164.104.32.063.482-.632.123-.928.208-1.632.262-.49.036-.768.027-1.268 0-.41-.023-.668.024-1.048-.106-.26-.086-.384-.19-.63-.313.673-.696.88-1.637 1.468-1.797zm-17.34 2.13c.673.21.92.27 1.47.638.61.3.894.676 1.467.944.026.164.103.32.063.483-.632.122-.928.207-1.63.26-.49.037-.77.028-1.26 0-.41-.02-.668.026-1.048-.104-.26-.086-.384-.19-.63-.313.673-.696.88-1.637 1.468-1.797zm-8.98-29.8c-.613-.278-1.06-1.046-.66-1.694.166-.22.412-.174.666-.396.19-.272.142-.607.136-.838-.006-.377-.142-.673-.208-.944-.072-.406-.14-.636-.136-1.048.006-.628-.038-1.076.346-1.673.246-.317.662-.692.826-.612.147.136-.067.602-.033.822.036.462.13.717.288 1.163.203.663.48.81.704 1.363.208.616.4.808.42 1.363.016.467-.026.736-.21 1.164-.166.37-.3.68-.61.84-.27.224-.468.324-.796.418a1.16 1.16 0 0 1-.628-.108z" fill="#0066bd"/>
    </g>
    <use height="100%" width="100%" xlink:href="#b" y="36.691"/>
  </g>
  <path d="M264.102 176.62h62.696v62.496h-62.696zm68.202 0H374.9v62.496h-62.696zM264.3 273.642c.16.946.487 2.668 1.386 4.23.946 1.493.697 1.462 2.737 3.84 1.063 1.176 2.696 2.183 3.986 2.877 1.294.696 2.26 1.038 4.38 1.696 4.17 1.096 7.097 1.163 10.606 1.023 2.738-.11 4.828-.447 6.66-.68 2.468-.332 4.307-.63 7.116-.647 1.366-.067 2.666-.07 3.93 0 1.64.086 3.06.323 4.678.647 3.483.696 7.016 2.04 7.016 2.04l.01-64.82-62.606-.014v37.467s.108 1.83.204 2.44zm110.407-.012c-.16.946-.486 2.667-1.384 4.23-.946 1.492-.697 1.46-2.736 3.84-1.064 1.176-2.697 2.182-3.986 2.876-1.293.697-2.26 1.04-4.377 1.697-4.172 1.096-7.1 1.163-10.608 1.023-2.738-.11-4.828-.446-6.66-.68-2.468-.33-4.307-.63-7.116-.646-1.366-.067-2.666-.07-3.93 0-1.64.086-3.06.323-4.678.647-3.483.697-7.06 2.04-7.06 2.04l.036-64.82 62.604-.014v37.468s-.107 1.83-.203 2.44z" stroke-width=".61" fill="none" stroke="#703d29"/>
</svg>
