<svg xmlns="http://www.w3.org/2000/svg" viewBox="0 0 612 612" height="480" width="640">
  <g fill-rule="evenodd" stroke-width="1pt">
    <path d="M-86.333 0h682.66v612h-682.66z"/>
    <path fill="#090" d="M369.762 0h227.666v612H369.762z"/>
    <path fill="#bf0000" d="M142.22 0h227.666v612H142.22z"/>
  </g>
  <path d="M398.362 266.182c-.11.68 1.464 1.433 1.826.99 1.682-2.016 3.883-6.97 4.334-8.364.133-.697-2.107-1.486-2.686-.913-1.676 1.886-3.1 6.773-3.674 8.287zM188.016 387.838c-1.676 6.917-26.38-6.677-29.138-11.632 14.136 7.49 29.476 6.924 29.138 11.632zM109.91 266.973c1.236 1.47 3.318.486 1.42-1.604-1.662-1.61-1.04-2.117-1.987-4.076-.936-2.188-.887-3.396-2.016-4.96-1-1.482-2.6.03-1.496 1.28 1.263 1.476.916 2.664 1.687 3.992 1.426 2.444 1.08 3.727 2.39 6.266zm33.224 40.113c3.974 1.964 6.99 6.836 7.19 10.812.336 4.676.996 8.44 3.06 11.69-3.27-.91-4.837-6.124-6.302-11.118-.47-6.17-3.266-7.41-4.938-11.384zm8.29 9.676c2.76 6.077 6.697 7.013 6.794 10.78.333 4.336.662 4.667 1.837 8.82-3.237-.863-4.062-1.146-4.926-7.632-.64-4.66-4.19-7.776-3.706-11.968z" fill-rule="evenodd" stroke="#000" stroke-width=".973" fill="#fff"/>
  <path stroke-linejoin="round" d="M216.673 343.96c4.208 3.446 6.938 7.382 8.21 12.467 1.328 4.738 3.196 8.616 6.933 12.774-4.46-3.04-7.266-7.18-8.668-12.166-1.232-4.9-2.686-8.663-6.476-13.076zm78.767 0c-4.302 3.466-7.093 7.426-8.394 12.64-1.367 4.766-3.266 8.666-6.064 12.86 4.66-3.06 7.427-7.223 8.86-12.24 1.26-4.928 2.746-8.613 6.697-13.16zm-6.296 0c-4.61 3.62-8.968 7.732-10.26 12.848-1.366 4.766-2.176 8.412-6.286 13.164 4.87-3.06 6.804-7.682 8.238-12.698 1.26-4.928 4.146-8.612 7.308-13.306zm-62.12 19.676c1.644 2.914 3.32 7.36 6.636 6.638.063-2.23-3.47-3.776-6.636-6.638zm4.806.994c6.26 2.66 11.646 1.928 12.317 6.866-6.86.633-8.006-1.776-12.316-6.866zm30.636-.604c-1.667 2.746-3.366 6.928-6.627 6.163-.064-2.106 3.617-3.66 6.626-6.166zm-4.38.836c-6.34 2.43-11.813 1.83-12.496 6.668 6.948.6 8.123-1.684 12.496-6.668z" fill-rule="evenodd" stroke="#000" stroke-width=".973" fill="#fff"/>
  <path d="M273.867 366.968c.124-.89-.482-1.666-1.21-1.9-1.42-.633-2.83-.967-4.237-1.368-1.6-.38-2.494.767-2.6 1.62-.007 1.264-.066 2.318 0 3.268.088 1.183.312 1.27 1.06 1.446 1.197.202 2.732.41 3.936 1.216.963.688 1.87.123 2.346-.91.308-.79.477-2.336.607-3.272zm-17.226 0c-.11-.89.367-1.742 1.007-1.976 1.266-.633 2.627-.663 3.86-.61 1.476-.022 1.86.313 1.863 1.066.008 1.263.06 2.47 0 3.42-.078 1.183-.062 1.27-.72 1.446-1.07.202-2.893.266-3.968 1.064-.862.688-1.823.123-1.87-.987.022-.834-.048-2.486-.164-3.42zm-20.902-.234c-.126-.89.484-1.666 1.216-1.9 1.426-.633 2.844-.967 4.267-1.368 1.606-.38 2.606.767 2.61 1.62.008 1.264.067 2.32 0 3.268-.087 1.184-.313 1.27-1.064 1.446-1.203.203-2.744.41-3.963 1.217-.967.688-1.878.123-2.367-.91-.31-.79-.48-2.337-.61-3.273zm17.302 0c.11-.89-.36-1.742-1.012-1.976-1.273-.636-2.64-.666-3.878-.61-1.486-.026-1.86.31-1.864 1.063-.008 1.264-.06 2.47 0 3.42.078 1.183.062 1.27.724 1.446 1.074.2 2.907.266 3.987 1.064.863.687 1.83.122 1.876-.987-.02-.837.06-2.488.166-3.424zM186.47 238.618c-2.012-3.23-4.42 4.48-12.69 10.216-3.86 2.62-6.63 9.6-6.666 14.196-.127 3.163.36 6.3-.002 9.362-.222 1.93-2.234 6.216-.868 7.312 3.64 2.706 8.36 8.848 10.637 10.967 1.89 1.668 3.63-8.66 4.947-13.117 1.62-4.896.84-10.746 6.066-16.27 2.99-3.062 10.626-6.067 9.678-7.418l-10.11-16.238z" fill-rule="evenodd" stroke="#000" stroke-width=".973" fill="#fff"/>
  <path d="M186.47 238.618c-2.012-3.23-4.42 4.48-12.69 10.216-3.86 2.62-6.63 9.6-6.666 14.196-.127 3.163.36 6.3-.002 9.362-.222 1.93-2.234 6.216-.868 7.312 3.64 2.706 8.36 8.848 10.637 10.967 1.89 1.668 3.63-8.66 4.947-13.117 1.62-4.896.84-10.746 6.066-16.27 2.99-3.062 10.626-6.067 9.678-7.418l-10.11-16.238z" fill-rule="evenodd" fill="#fff"/>
  <path d="M173.246 248.074c-.788 6.468 2.266 7.287 6.13 8.346 2.973 1.067 6.41 4.247 6.667 7.133m-19.166 2.624c1.266 4.714 4.668 4.124 7.43 6.183 2.976 1.067 6.102 4.817 7.368 7.703" stroke="#000" stroke-width=".487" fill="none"/>
  <path d="M182.686 236.19l1.606-.967 28.922 48.71-1.604.967-28.924-48.71z" fill-rule="evenodd" stroke="#000" stroke-width=".973" fill="#fff"/>
  <path d="M182.686 236.19l1.606-.967 28.922 48.71-1.604.967-28.924-48.71z" fill-rule="evenodd" fill="#fff"/>
  <path d="M186.8 233.263a3.334 3.334 0 1 1-6.668-.002 3.334 3.334 0 0 1 6.668.002z" fill-rule="evenodd" stroke="#000" stroke-width=".973" fill="#fff"/>
  <path d="M186.8 233.263a3.334 3.334 0 1 1-6.668-.002 3.334 3.334 0 0 1 6.668.002z" fill-rule="evenodd" fill="#fff"/>
  <path d="M274.79 144.77c-1.033-1.66-2.27 2.3-6.62 6.26-1.977 1.346-3.366 4.932-3.368 7.292-.066 1.62.18 3.238 0 4.806-.116.992-1.16 3.194-.442 3.767 1.87 1.39 4.29 4.646 6.414 6.636.97.86 1.812-4.393 2.64-6.74.782-2.616.432-6.62 2.698-7.846 1.636-1.67 6.407-3.113 4.972-3.812l-6.194-8.343z" fill-rule="evenodd" transform="matrix(-1.9463 0 0 2.0144 869.49 -62.133)" stroke="#000" stroke-width=".492" fill="#fff"/>
  <path d="M324.944 239.496c2.01-3.342 4.416 4.636 12.68 10.674 3.86 2.71 6.63 9.936 6.666 14.69.124 3.264-.363 6.622 0 9.68.22 2 2.233 6.434.867 7.67-3.637 2.8-8.347 9.166-10.63 11.36-1.89 1.714-3.626-8.86-4.944-13.678-1.62-6.066-.84-11.12-6.062-16.803-2.986-3.16-10.617-6.27-9.67-7.68l10.103-16.806z" fill-rule="evenodd" fill="#fff"/>
  <path d="M273.36 143.06l.774-.497 14.86 26.027-.773.497-14.86-26.027z" fill-rule="evenodd" transform="matrix(-1.9463 0 0 2.0144 869.49 -62.133)" stroke="#000" stroke-width=".492" fill="#fff"/>
  <path d="M268.43 149.76c-.406 2.81 1.237 3.666 2.713 4.21 1.628.642 2.86 2.063 3.604 3.646" transform="matrix(-1.9463 0 0 2.0144 869.49 -62.133)" stroke="#000" stroke-width=".26" fill="none"/>
  <path d="M267.36 161.26c.646 2.422 2.264 2.006 3.74 2.66 1.628.642 3.136 2.32 3.78 3.802" transform="matrix(-1.9463 0 0 2.0144 864.433 -36.44)" stroke="#000" stroke-width=".26" fill="none"/>
  <path d="M327.726 236.06l-1.606-1-28.907 60.414 1.603 1 28.91-60.414z" fill-rule="evenodd" fill="#fff"/>
  <path d="M274.96 142.07a1.713 1.713 0 1 1-3.426 0 1.713 1.713 0 0 1 3.426 0z" fill-rule="evenodd" transform="matrix(-1.9463 0 0 2.0144 869.49 -62.133)" stroke="#000" stroke-width=".492" fill="#fff"/>
  <path d="M324.613 234.066c0 1.906 1.49 3.46 3.33 3.46s3.333-1.646 3.333-3.46-1.492-3.46-3.332-3.46c-1.84 0-3.33 1.646-3.33 3.46z" fill-rule="evenodd" fill="#fff"/>
  <g fill-rule="evenodd" fill="#fff">
    <path stroke="#000" stroke-width=".973" d="M210.616 194.123h11.72v2.688h-11.72zm0 6.08h11.72v22.466h-11.72zm-.7-8.166l13 .076c.61-4.41-3.892-9.17-6.46-9.123-2.64.126-6.64 4.818-6.64 9.06zm77.696 3.132h11.72v2.69h-11.72zm0 6.1h11.72v22.467h-11.72zm-.708-8.166l13 .076c.61-4.41-3.89-9.17-6.46-9.122-2.64.122-6.64 4.816-6.64 9.046z"/>
    <path d="M210.616 194.123h11.72v2.688h-11.72zm0 6.08h11.72v22.466h-11.72zm-.7-8.166l13 .076c.61-4.41-3.892-9.17-6.46-9.123-2.64.126-6.64 4.818-6.64 9.06zm77.696 3.132h11.72v2.69h-11.72zm0 6.1h11.72v22.467h-11.72zm-.708-8.166l13 .076c.61-4.41-3.89-9.17-6.46-9.122-2.64.122-6.64 4.816-6.64 9.046z"/>
  </g>
  <path fill-rule="evenodd" fill="#fff" d="M287.61 199.28h11.72v22.467h-11.72zm0-6.1h11.72v2.69h-11.72zm-.7-3.064l13 .076c.61-4.41-3.89-9.17-6.46-9.123-2.64.12-6.64 4.813-6.64 9.046zm-76.296 8.077h11.72v22.466h-11.72zm0-6.08h11.72v2.688h-11.72zm-.7-3.076l13 .076c.61-4.41-3.892-9.17-6.46-9.123-2.64.126-6.64 4.818-6.64 9.06z"/>
  <g fill-rule="evenodd" fill="#fff">
    <path d="M200.764 226.478l7.462 8.21 92.767.163 7.604-8.21-23.72-.303-11.668-8.06-37.268-.16-10.797 8.362h-24.482z" stroke="#000" stroke-width=".973"/>
    <path d="M200.764 226.478l7.462 8.21 92.767.163 7.604-8.21-23.72-.303-11.668-8.06-37.268-.16-10.797 8.362h-24.482z"/>
  </g>
  <path d="M238.736 212.808l32.03-.034c4.337-2.292 6.69-9.614 6.668-13.71-.06-12.103-8.626-17.907-17.02-18.217-1.273-.064-2.76-1.066-3.087-2.216-.837-2.627-.62-9.468-1.638-9.376-.817-.012-.678 6.697-1.304 9.16-.4 1.228-1.777 2.436-3.16 2.606-10.676.628-17.396 8.247-17.128 18.14.178 6.64.94 10.447 6.626 13.746z" stroke="#000" stroke-width=".973" fill="none"/>
  <path d="M238.736 212.808l32.03-.034c4.337-2.292 6.69-9.614 6.668-13.71-.06-12.103-8.626-17.907-17.02-18.217-1.273-.064-2.76-1.066-3.087-2.216-.837-2.627-.62-9.316-1.638-9.376-.663.064-.678 6.697-1.304 9.16-.4 1.228-1.777 2.436-3.16 2.606-10.676.628-17.396 8.247-17.128 18.14.178 6.64.94 10.447 6.626 13.746z" fill-rule="evenodd" fill="#fff"/>
  <path d="M236.732 202.142c.807 3.988 2.728 3.377 2.686 1.446-.473-6.16.026-12.227 6.473-16.27 1.73-1.266-.2-2.434-1.67-1.826-4.632 1.948-7.446 10.88-6.387 16.66z" stroke="#000" stroke-width=".487" fill="none"/>
  <path d="M242.12 204.664c.808 3.988 4.107 3.816 3.6 1.218-1.236-4.973-1.04-12.226 3.343-16.368 1.73-1.26-.202-2.433-1.672-1.824-4.63 1.96-6.23 10.196-6.17 16.964z" stroke="#000" stroke-width=".487" fill="none"/>
  <path d="M301.46 126.42c.416 2.06 1.402 1.736 1.33.743-.244-3.166.012-6.282 2.81-8.36.888-.66-.103-1.26-.868-.937-2.38 1-3.826 6.69-3.282 8.664z" transform="matrix(-1.9484 0 0 1.9463 860.366 -41.81)" stroke="#000" stroke-width=".26" fill="none"/>
  <path d="M302.08 126.07c.416 2.06 2.11 1.96 1.798.626-.636-2.666-.634-6.282 1.718-7.89.89-.648-.104-1.26-.86-.938-2.38 1-3.2 6.238-2.666 8.202z" transform="matrix(-1.9484 0 0 1.9463 866.18 -38.618)" stroke="#000" stroke-width=".26" fill="none"/>
  <g fill-rule="evenodd" fill="#fff">
    <path d="M186.01 330.247h137.62l-12.32-10.037H198.327l-12.316 10.037z" stroke="#000" stroke-width=".973"/>
    <path d="M186.01 330.247h137.62l-12.32-10.037H198.327l-12.316 10.037z"/>
  </g>
  <g fill="#fff" fill-rule="evenodd">
    <g stroke="#000" stroke-width=".6">
      <path d="M209.892 239.94h13.077v18.094h-13.08zm.768 28.434h12.623v3.802H210.66zm-.29 6.676h12.926v14.142H210.36zm-.916 17.03h14.142v7.908h-14.142zm1.732-27.112h11.396l2.26-3.762h-16.697l2.044 3.762zm16.376-13.868l.107-9.89h7.86c-3.086 2.643-6.96 6.626-7.96 9.89zm72.888-11.17h-12.866v18.094h12.867zm-.213 28.434H286.82v3.802h12.407zm.233 6.676h-12.636v14.142h12.636zm.818 17.03h-13.902v7.908h13.902z" stroke-width=".973"/>
      <path d="M288.44 167.7h6.866l1.16-1.933h-8.066l1.06 1.933z" transform="matrix(-1.9134 0 0 1.9463 860.108 -41.963)"/>
      <path d="M296.23 160.68l.066-6.082h4.033c-1.684 1.307-3.067 2.89-4.088 6.082z" transform="matrix(-1.9134 0 0 1.9463 849.894 -41.963)"/>
    </g>
    <path d="M209.892 239.94h13.077v18.094h-13.08zm.768 28.434h12.623v3.802H210.66zm-.29 6.676h12.926v14.142H210.36zm-.916 17.03h14.142v7.908h-14.142zm1.732-27.112h11.396l2.26-3.762h-16.697l2.044 3.762zm16.376-13.868l.107-9.89h7.86c-3.086 2.643-6.96 6.626-7.96 9.89zm72.888-11.17h-12.866v18.094h12.867zm-.213 28.434H286.82v3.802h12.407zm.233 6.676h-12.636v14.142h12.636zm.818 17.03h-13.902v7.908h13.902zm-2.084-27.112H286.99l-2.22-3.762h16.433l-2.01 3.762zm-16.12-13.868l-.106-9.89h-7.716c3.03 2.643 6.86 6.626 7.822 9.89z"/>
  </g>
  <path d="M211.916 266.16c.078 2.116 2.474 1.17 2.474.106 0-3.264.043-6.793-.088-9.103-.016-1.703 4.068-1.277 4.036-.228.016 2.766.047 6.636.062 9.76-.03 1.672 2.63 1.436 2.693 0-.016-3.6-.018-8.837 0-11.488.023-3.414-8.963-3.34-9.033-.076.006 2.68-.048 7.48-.044 11.03zm76.944.38c.077 2.116 2.473 1.17 2.473.106 0-3.264.043-6.792-.087-9.103-.016-1.703 4.068-1.276 4.034-.227.016 2.766.047 6.636.062 9.76-.03 1.67 2.664 1.436 2.62 0-.017-3.678.067-8.838.076-11.49.023-3.413-8.963-3.34-9.033-.076.004 2.68-.06 7.48-.046 11.03zm-76.91 21.184h9.276v11.667h-9.276z" stroke="#000" stroke-width=".487" fill="none"/>
  <path fill-rule="evenodd" d="M217.886 281.612h3.27v1.9h-3.27zm-6.703 0h3.194v1.9h-3.194z"/>
  <path fill-rule="evenodd" d="M216.376 276.88h2.61v4.714h-2.61zm0 6.46h2.61v6.02h-2.61z"/>
  <path stroke="#000" stroke-width=".487" fill="none" d="M288.69 276.648h9.276v11.667h-9.276z"/>
  <path fill-rule="evenodd" d="M294.626 281.436h3.27v1.9h-3.27zm-6.703 0h3.194v1.9h-3.194z"/>
  <path fill-rule="evenodd" d="M292.014 276.804h2.61v4.714h-2.61zm0 6.46h2.61v6.02h-2.61z"/>
  <path fill-rule="evenodd" stroke="#000" stroke-width=".973" fill="#fff" d="M280.164 277.327h1.696v11.482h-1.696z"/>
  <path d="M249.13 292.647l2.608 7.627h6.7l-4.66-7.63-3.648.003zm-3.192 7.627l1.444 7.46 6.69.076-2.434-7.628-6.7.002zm11.327.076l4.638 7.374h9.604l-7.46-7.462-6.692.078zm-66.112 16.878c6.043-4.69 8.262-8.692 8.288-14.446h12.318c.026 3.22 1.19 6.144 2.966 6.017l12.47-.076-.076-7.374h-9.048l-.003-40.223c-.33-14.217 17.286-22.606 24.484-22.43l-42.806-.076v-1.292h90.022l.076 1.292-43.414.076c12.874.026 26.29 12.217 26.394 22.607v11.404h-1.673l-.076-11.264c0-11.263-14.173-21.77-26.647-21.442-9.836.282-26.09 9.667-24.938 21.366v3.6l23.34.16-.227 4.03 3.666 2.34 7.31 2.33-.107 6.042 6.238 1.643.044 6.038 6.282 2.696v6.26l3.984 2.464-.183 6.347 6.4 3.8H271.66l7.983 8.896H267.76l-6.86-8.896h-7.763l3.498 8.82-8.286-.077-1.98-8.743h-10.11l.074 9.426-36.192.002zm36.116-24.407v7.463h8.667l-1.762-7.46h-6.917z" fill-rule="evenodd" stroke="#000" stroke-width=".973" fill="#fff"/>
  <path d="M249.13 292.647l2.608 7.627h6.7l-4.66-7.63-3.648.003zm-3.192 7.627l1.444 7.46 6.69.076-2.434-7.628-6.7.002zm11.327.076l4.638 7.374h9.604l-7.46-7.462-6.692.078zm-66.112 16.878c6.043-4.69 8.262-8.692 8.288-14.446h12.318c.026 3.22 1.19 6.144 2.966 6.017l12.47-.076-.076-7.374h-9.048l-.003-40.223c-.33-14.217 17.286-22.606 24.484-22.43l-42.806-.076v-1.292h90.022l.076 1.292-43.414.076c12.874.026 26.29 12.217 26.394 22.607v11.404h-1.673l-.076-11.264c0-11.263-14.173-21.77-26.647-21.442-9.836.282-26.09 9.667-24.938 21.366v3.6l23.34.16-.227 4.03 3.666 2.34 7.31 2.33-.107 6.042 6.238 1.643.044 6.038 6.282 2.696v6.26l3.984 2.464-.183 6.347 6.4 3.8H271.66l7.983 8.896H267.76l-6.86-8.896h-7.763l3.498 8.82-8.286-.077-1.98-8.743h-10.11l.074 9.426-36.192.002zm36.116-24.407v7.463h8.667l-1.762-7.46h-6.917z" fill-rule="evenodd" fill="#fff"/>
  <path stroke="#000" stroke-width=".483" fill="none" d="M237.724 279.468h6.4v12.392h-6.4z"/>
  <path d="M298.06 171.73h2.707l-.017-4.694c-.036-1.997 1.793-4.01 2.668-4.077.97-.038 2.4 1.883 2.448 3.92l.04 4.764 2.87-.006v-11.83l-10.716.066v11.764z" transform="matrix(1.9463 0 0 1.9848 -360 -48.13)" stroke="#000" stroke-width=".26" fill="none"/>
  <path stroke="#000" stroke-width=".481" fill="none" d="M271.784 298.172h6.64v6.094h-6.64zm-3.874-8.768h6.64v6.093h-6.64zm-6.306-8.74h6.64v6.094h-6.64zm-6.41-7.374h6.64v6.092h-6.64z"/>
  <path d="M261.874 292.762l6.69.227 11.936 10.667v-6.234l-4.03-2.89v-4.942l-6.863-3.343v-6.323l-6.703-1.9V271.7l-2.89-2.366-.16 23.418z" stroke="#000" stroke-width=".487" fill="none"/>
  <path fill-rule="evenodd" fill="#fff" d="M280.164 277.327h1.696v11.482h-1.696z"/>
  <g stroke-linejoin="round" fill-rule="evenodd" stroke="#000" stroke-width=".973" fill="#fff">
    <path d="M163.766 161.06c.68 9.07-2.236 14.048-7.038 13.29-1.324-6.03 1.687-8.406 7.038-13.29zm-10.66 20.086c-4.27-2.172-1.19-18.766.46-26.708 1.213 8.966 3.24 21.683-.46 26.708z"/>
    <path d="M164.723 181.93c7.178 2.497 12.86-6.233 14.782-14.186-6.924 8.176-16.666 8.186-14.782 14.186zm-6.447 8.36c-6.613-1.483-2.232-19.078-1.212-26.116 1.234 7.27 6.103 23.708 1.212 26.116zm1.917-.64c.314-6.067 6.363-4.314 10.638-7.663-.68 3.033-3.247 8.407-10.636 7.664zm-6.87 8.128c-6.662-1.6-2.22-20.436-2.634-28.233 1.63 6.736 6.793 26.407 2.632 28.233zm2.607-.828c4.667 1.48 10.693-1.48 11.068-6.906-3.924 2.662-10.19.626-11.067 6.906z"/>
    <path d="M140.168 206.236c-6.32.426-2.94-16.702-2.936-30.722 1.964 14.04 7.277 26.89 2.936 30.722z"/>
    <path d="M142.017 206.61c3.693 1.8 10.03-1.08 11.866-7.148-6.49 2.822-10.83.064-11.866 7.147z"/>
  </g>
  <g fill-rule="evenodd" fill="#fff">
    <path d="M163.766 161.06c.68 9.07-2.236 14.048-7.038 13.29-1.324-6.03 1.687-8.406 7.038-13.29zm-10.66 20.086c-4.27-2.172-1.19-18.766.46-26.708 1.213 8.966 3.24 21.683-.46 26.708z"/>
    <path d="M164.723 181.93c7.178 2.497 12.86-6.233 14.782-14.186-6.924 8.176-16.666 8.186-14.782 14.186zm-6.447 8.36c-6.613-1.483-2.232-19.078-1.212-26.116 1.234 7.27 6.103 23.708 1.212 26.116zm1.917-.64c.314-6.067 6.363-4.314 10.638-7.663-.68 3.033-3.247 8.407-10.636 7.664zm-6.87 8.128c-6.662-1.6-2.22-20.436-2.634-28.233 1.63 6.736 6.793 26.407 2.632 28.233zm2.607-.828c4.667 1.48 10.693-1.48 11.068-6.906-3.924 2.662-10.19.626-11.067 6.906z"/>
    <path d="M140.168 206.236c-6.32.426-2.94-16.702-2.936-30.722 1.964 14.04 7.277 26.89 2.936 30.722z"/>
    <path d="M142.017 206.61c3.693 1.8 10.03-1.08 11.866-7.148-6.49 2.822-10.83.064-11.866 7.147z"/>
  </g>
  <g stroke-linejoin="round" fill-rule="evenodd" stroke="#000" stroke-width=".973" fill="#fff">
    <path d="M183.773 169.444c-.946 7.867-4.16 12.446-8.966 11.687-1.323-6.03 2.67-8.244 8.966-11.686zm-12.71 20.203c7.98 1.132 10.866-4.993 16.227-12.823-7.63 6.448-16.63 6.68-16.227 12.823z"/>
    <path d="M168.806 188.732c-4.36-6.22-.146-11.776 3.178-17.363-.714 8.31 2.118 12.936-3.178 17.36zm-1.926 8.622c-.492-6.106 8.206-6.24 12.14-9.078-1.324 2.96-3.328 10.894-12.14 9.078z"/>
    <path d="M166.06 197.47c-6.016-.68-3.618-10.893.793-16.668-1.816 7.832 3.177 13.277-.794 16.67z"/>
    <path d="M160.614 206.976c-6.846-3.026-2.468-11.612.116-16.68-1.1 6.667 4.386 11.726-.117 16.68z"/>
    <path d="M161.877 206.178c3.693 4.69 10.692-1.4 12.028-8.61-6.09 6.07-10.69 4.236-12.028 8.61z"/>
  </g>
  <g fill-rule="evenodd" fill="#fff">
    <path d="M183.773 169.444c-.946 7.867-4.16 12.446-8.966 11.687-1.323-6.03 2.67-8.244 8.966-11.686zm-12.71 20.203c7.98 1.132 10.866-4.993 16.227-12.823-7.63 6.448-16.63 6.68-16.227 12.823z"/>
    <path d="M168.806 188.732c-4.36-6.22-.146-11.776 3.178-17.363-.714 8.31 2.118 12.936-3.178 17.36zm-1.926 8.622c-.492-6.106 8.206-6.24 12.14-9.078-1.324 2.96-3.328 10.894-12.14 9.078z"/>
    <path d="M166.06 197.47c-6.016-.68-3.618-10.893.793-16.668-1.816 7.832 3.177 13.277-.794 16.67z"/>
    <path d="M160.614 206.976c-6.846-3.026-2.468-11.612.116-16.68-1.1 6.667 4.386 11.726-.117 16.68z"/>
    <path d="M161.877 206.178c3.693 4.69 10.692-1.4 12.028-8.61-6.09 6.07-10.69 4.236-12.028 8.61z"/>
  </g>
  <g stroke-linejoin="round" fill-rule="evenodd" stroke="#000" stroke-width=".973" fill="#fff">
    <path d="M326.66 170.222c.91 4.088 1.137 12.146 8.4 10.666 1.068-7.49-6.032-7.83-8.4-10.666z"/>
    <path d="M339.01 189.63c-.263-7.717-8.686-6.016-16.77-12.37 1.967 6.694 8.926 14.866 16.77 12.37z"/>
    <path d="M340.722 188.616c4.88-3.367 1.136-10.706-3.404-17.136 1.703 7-2.04 13.427 3.404 17.136zm2.14 8.74c-7.866.604-9.266-3.33-12.367-8.397 6.37 3.48 12.667 1.286 12.368 8.396zm1.948.232c-3.747-3.066.907-9.646-.682-16.226 2.96 4.16 7.49 14.11.682 16.228z"/>
    <path d="M348.1 206.742c-7.868 1.863-10.402-2.306-12.37-9.303 6.392 6.86 9.948 3.1 12.37 9.3z"/>
    <path d="M349.228 206.646c6.484-.076 3.026-10.93.226-16.886.767 6.976-4.047 12.86-.226 16.884z"/>
  </g>
  <g fill-rule="evenodd" fill="#fff">
    <path d="M326.66 170.222c.91 4.088 1.137 12.146 8.4 10.666 1.068-7.49-6.032-7.83-8.4-10.666z"/>
    <path d="M339.01 189.63c-.263-7.717-8.686-6.016-16.77-12.37 1.967 6.694 8.926 14.866 16.77 12.37z"/>
    <path d="M340.722 188.616c4.88-3.367 1.136-10.706-3.404-17.136 1.703 7-2.04 13.427 3.404 17.136zm2.14 8.74c-7.866.604-9.266-3.33-12.367-8.397 6.37 3.48 12.667 1.286 12.368 8.396zm1.948.232c-3.747-3.066.907-9.646-.682-16.226 2.96 4.16 7.49 14.11.682 16.228z"/>
    <path d="M348.1 206.742c-7.868 1.863-10.402-2.306-12.37-9.303 6.392 6.86 9.948 3.1 12.37 9.3z"/>
    <path d="M349.228 206.646c6.484-.076 3.026-10.93.226-16.886.767 6.976-4.047 12.86-.226 16.884z"/>
  </g>
  <g stroke-linejoin="round" fill-rule="evenodd" stroke="#000" stroke-width=".973" fill="#fff">
    <path d="M346.873 161.1c.984 4.643-.917 13.613 6.344 13.443 3.037-6.132-3.436-9.96-6.344-13.443z"/>
    <path d="M366.777 181.366c4.676-3.138.462-13.44-.97-26.04-1.11 10.343-3.663 21.638.97 26.04z"/>
    <path d="M364.32 182.168c.673-6.664-8.366-6.927-14.478-14.422 1.687 6.01 6.112 14.79 14.477 14.422zm6.102 8.832c-4.81-4.36.906-16.87 1.143-26.668.746 8.96 4.677 24.98-1.143 26.667zm-2.734-1.268c-7.032.462-8.887-4.698-9.708-7.637 3.776 2.72 9.746 1.438 9.708 7.637zm7.064 7.764c6.407-.228 3.406-20.738 2.667-27.214-.637 6.89-6.176 24.72-2.66 27.214zm-2.38-.363c-4.672.713-9.41-2.002-10.694-6.642 4.036 1.767 10.707.366 10.696 6.644z"/>
    <path d="M369.094 206.01c6.788 2.367 3.71-24.387 2.962-30.66-.636 7.88-7.39 27.23-2.962 30.66z"/>
    <path d="M367.737 206.006c-6.816.864-10.097-2.686-11.76-7.664 6.936 2.213 10.666 1.427 11.76 7.664z"/>
  </g>
  <g fill-rule="evenodd" fill="#fff">
    <path d="M363.663 237.72c.716-6.986-4.636-19.687-.837-26.468.617-.93-1.137-3.4-2.206-1.9-1.67 2.39-3.386 9.207-4.104 6.69-.76-2.736-.878-7.677-3.346-8.617-1.676-.66-3.8-.91-3.194 1.622.603 2.34 1.964 6.67.468 6.78-.87.126-3.37-3.186-6.476-4.716-1.7-1.366-4.23.77-1.76 2.812 8.066 6.677 16.88 9.637 20.462 24.786z" stroke="#000" stroke-width=".973"/>
    <path d="M363.663 237.72c.716-6.986-4.636-19.687-.837-26.468.617-.93-1.137-3.4-2.206-1.9-1.67 2.39-3.386 9.207-4.104 6.69-.76-2.736-.878-7.677-3.346-8.617-1.676-.66-3.8-.91-3.194 1.622.603 2.34 1.964 6.67.468 6.78-.87.126-3.37-3.186-6.476-4.716-1.7-1.366-4.23.77-1.76 2.812 8.066 6.677 16.88 9.637 20.462 24.786z"/>
  </g>
  <g fill-rule="evenodd" fill="#fff">
    <path d="M346.873 161.1c.984 4.643-.917 13.613 6.344 13.443 3.037-6.132-3.436-9.96-6.344-13.443z"/>
    <path d="M366.777 181.366c4.676-3.138.462-13.44-.97-26.04-1.11 10.343-3.663 21.638.97 26.04z"/>
    <path d="M364.32 182.168c.673-6.664-8.366-6.927-14.478-14.422 1.687 6.01 6.112 14.79 14.477 14.422zm6.102 8.832c-4.81-4.36.906-16.87 1.143-26.668.746 8.96 4.677 24.98-1.143 26.667zm-2.734-1.268c-7.032.462-8.887-4.698-9.708-7.637 3.776 2.72 9.746 1.438 9.708 7.637zm7.064 7.764c6.407-.228 3.406-20.738 2.667-27.214-.637 6.89-6.176 24.72-2.66 27.214zm-2.38-.363c-4.672.713-9.41-2.002-10.694-6.642 4.036 1.767 10.707.366 10.696 6.644z"/>
    <path d="M369.094 206.01c6.788 2.367 3.71-24.387 2.962-30.66-.636 7.88-7.39 27.23-2.962 30.66z"/>
    <path d="M367.737 206.006c-6.816.864-10.097-2.686-11.76-7.664 6.936 2.213 10.666 1.427 11.76 7.664z"/>
  </g>
  <g fill-rule="evenodd" fill="#fff">
    <path d="M244.38 141.09c-1.017-1.062-.723-1.468.78-1.486 1.194-.076 3.668.73 4.466.078.822-.697.496-3.13.86-4.297.16-.66.616-1.673 1.64-.078 3.032 4.86 6.82 10.692 8.438 16.407.886 3.203.443 8.36-2.97 11.094l-2.42-7.034c-1.162-3.343-7.348-11.366-10.783-14.687z" transform="matrix(-1.937 0 0 1.9463 867.173 -41.633)" stroke="#000" stroke-width=".601"/>
    <path d="M383.806 233.07c1.97-2.067 1.4-2.867-1.613-2.89-2.31-.146-6.89 1.423-8.627.162-1.692-1.162-.96-6.09-1.666-8.363-.31-1.27-1.193-3.268-3.18-.164-6.872 9.467-13.207 20.81-16.343 31.933-1.716 6.233-.868 16.27 6.76 21.69l4.692-13.686c2.23-6.607 14.23-22.12 20.884-28.686z"/>
  </g>
  <g stroke-linejoin="round" fill-rule="evenodd" stroke="#000" stroke-width=".973" fill="#fff">
    <path d="M390.38 216.068c-2.647 8.61-4.238 16.487-.417 16.308 4.083-.71 2.308-8.932.417-16.308zm-.272 23.89c4.364 2.31 9.046-8.787 8.07-17.628-2.192 7.492-9.677 12.118-8.07 17.627zm-1.614-.228c.676-6.062-1.81-6.892-6.067-11.676.346 6.632 1.972 12.01 6.067 11.674z"/>
    <path d="M389.933 248.692c6.08 1.443 10.906-10.666 10.687-19.697-2.116 9.897-13.146 13.862-10.687 19.697z"/>
    <path d="M388.273 248.366c2.037-4.69-2.12-4.116-4.878-12.62-.913 8.697.413 12.666 4.878 12.62zm1.473 9.124c6.694 1.134 9.994-13.426 13.27-20.396-6.486 9.14-14.266 14.23-13.27 20.396z"/>
    <path d="M388.213 266.99c1.927-6.368-3.62-6.068-6.39-13.09.466 10.176 1.777 13.846 6.39 13.09zm1.9 9.247c4.17.3 11.667-11.342 11.828-18.633-3.66 7.92-14.74 13.167-11.826 18.633z"/>
    <path d="M387.01 264.896c1.736-6.6-3.107-6.636-6.266-11.91-.162 9.468 1.324 12.666 6.267 11.91zm.16 10.09c7.362 1.287 9.234-8.406 13.672-18.266-4.28 7.846-13.96 12.26-13.673 18.264z"/>
    <path d="M386.648 273.637c2.384-6.064-3.14-6.068-6.086-12.636-.162 10.706 1.7 13.846 6.086 12.636z"/>
  </g>
  <g fill-rule="evenodd" fill="#fff">
    <path d="M390.38 216.068c-2.647 8.61-4.238 16.487-.417 16.308 4.083-.71 2.308-8.932.417-16.308zm-.272 23.89c4.364 2.31 9.046-8.787 8.07-17.628-2.192 7.492-9.677 12.118-8.07 17.627zm-1.614-.228c.676-6.062-1.81-6.892-6.067-11.676.346 6.632 1.972 12.01 6.067 11.674z"/>
    <path d="M389.933 248.692c6.08 1.443 10.906-10.666 10.687-19.697-2.116 9.897-13.146 13.862-10.687 19.697z"/>
    <path d="M388.273 248.366c2.037-4.69-2.12-4.116-4.878-12.62-.913 8.697.413 12.666 4.878 12.62zm1.473 9.124c6.694 1.134 9.994-13.426 13.27-20.396-6.486 9.14-14.266 14.23-13.27 20.396z"/>
    <path d="M388.213 266.99c1.927-6.368-3.62-6.068-6.39-13.09.466 10.176 1.777 13.846 6.39 13.09zm1.9 9.247c4.17.3 11.667-11.342 11.828-18.633-3.66 7.92-14.74 13.167-11.826 18.633z"/>
    <path d="M387.01 264.896c1.736-6.6-3.107-6.636-6.266-11.91-.162 9.468 1.324 12.666 6.267 11.91zm.16 10.09c7.362 1.287 9.234-8.406 13.672-18.266-4.28 7.846-13.96 12.26-13.673 18.264z"/>
    <path d="M386.648 273.637c2.384-6.064-3.14-6.068-6.086-12.636-.162 10.706 1.7 13.846 6.086 12.636z"/>
  </g>
  <g fill-rule="evenodd" fill="#fff">
    <path d="M266.81 166.87c3.334.016 3.986-4.687 3.986-6.937-1.64.312-4.61 3.28-3.986 6.937z" transform="matrix(-1.937 0 0 1.9463 867.387 -41.81)" stroke="#000" stroke-width=".601"/>
    <path d="M369.927 282.968c-6.468.03-7.72-9.122-7.72-11.666 3.18.607 8.933 6.386 7.72 11.666z"/>
  </g>
  <g stroke-linejoin="round" fill-rule="evenodd" stroke="#000" stroke-width=".973" fill="#fff">
    <path d="M372.836 241.38c-2.647 8.61-3.706 12.696-.113 16.32 4.69-2.61 2.006-7.944.113-16.32zm-1.48 22.246c1.97-6.278-2.874-7.79-6.446-14.866-.262 9.344 1.06 16.19 6.448 14.866z"/>
    <path d="M373.288 264.98c3.443 1.324 7.68-6.666 6.336-14.637-2.42 7.187-8.36 8.926-6.336 14.638zm-3.636 7.166c3.33-6.144-1.968-6.41-4.66-12.694-.16 9.46.717 13.36 4.66 12.696z"/>
    <path d="M369.66 280.986c2.636-6.823-2.987-6.068-6.238-12.263-.162 10.706 1.626 13.01 6.238 12.263zm2.497-8.613c2.877.074 8.472-4.966 6.81-11.234-2.42 6.267-9.268 4.726-6.81 11.232z"/>
    <path d="M371.36 280.068c4.692.983 8.246-6.2 7.718-11.12-3.67 4.68-8.704 4.964-7.72 11.12z"/>
  </g>
  <g fill-rule="evenodd" fill="#fff">
    <path d="M372.836 241.38c-2.647 8.61-3.706 12.696-.113 16.32 4.69-2.61 2.006-7.944.113-16.32zm-1.48 22.246c1.97-6.278-2.874-7.79-6.446-14.866-.262 9.344 1.06 16.19 6.448 14.866z"/>
    <path d="M373.288 264.98c3.443 1.324 7.68-6.666 6.336-14.637-2.42 7.187-8.36 8.926-6.336 14.638zm-3.636 7.166c3.33-6.144-1.968-6.41-4.66-12.694-.16 9.46.717 13.36 4.66 12.696z"/>
    <path d="M369.66 280.986c2.636-6.823-2.987-6.068-6.238-12.263-.162 10.706 1.626 13.01 6.238 12.263zm2.497-8.613c2.877.074 8.472-4.966 6.81-11.234-2.42 6.267-9.268 4.726-6.81 11.232z"/>
    <path d="M371.36 280.068c4.692.983 8.246-6.2 7.718-11.12-3.67 4.68-8.704 4.964-7.72 11.12z"/>
  </g>
  <g fill-rule="evenodd" fill="#fff">
    <path d="M236.63 169.06c-.297-.386-1.16.01-.937.938.198 1.266 2.06 7.704 6.233 9.922 2.27 1.636 14.2 4.27 19.61 6.39 2.977.6 6.47 2.084 7.423 4.464-.81-3.1-1.46-6.396-2.6-8.203-1.016-2.466-3.703-6.166-6.486-6.31-6.17-.187-11.86-.627-16.72-2.736-2.61-1.048-4.01-2.464-6.626-4.463z" transform="matrix(-1.937 0 0 1.9463 867.173 -41.633)" stroke="#000" stroke-width=".601"/>
    <path d="M400.764 268.046c.676-.76 2.228.02 1.816 1.826-.386 2.447-3.973 14.996-10.138 19.313-4.397 3.184-27.608 8.313-37.986 10.49-6.767 1.167-10.696 4.067-14.38 8.67 1.666-6.032 2.823-10.6 4.844-16.966 1.966-4.803 7.17-10.068 12.66-10.34 10.013-.363 22.97-1.22 32.387-6.324 4.86-2.04 7.77-4.796 10.896-8.667z"/>
  </g>
  <g stroke-linejoin="round" fill-rule="evenodd" stroke="#000" stroke-width=".973" fill="#fff">
    <path d="M386.698 297.666c1.067-4.228-.29-6.688.866-12.208-6.346 8.61-3.96 12.642-.866 12.208z"/>
    <path d="M387.297 298.704c4.202 1.17 16.13-8.406 16.448-16.66-2.964 6.136-17.713 10.674-16.448 16.66zm-6.87 6.31c2.876-1.67 2.064-8.22-.642-10.464-.634 6.49-4.463 10.308.643 10.466z"/>
    <path d="M383.394 306.83c6.082 1.693 10.83-7.616 16.02-11.614-4.777 4.118-19.226 6.096-16.02 11.613zm-6.99 4.673c3.666-2.33.236-6.93-.013-16.016-3.672 6.667-4.3 16.663.014 16.016z"/>
    <path d="M377.083 313.74c1.814 2.43 16.24-6.943 18.696-12.148-11.468 8.63-21.686 7.39-18.696 12.147zm-1.34 7.678c3.294-2.402-2.837-8.718-4.11-17.196.076 10.327-1.34 18.18 4.11 17.196z"/>
    <path d="M379.324 318.468c1.662 2.667 11.896-4.376 16.312-12.03-6.79 6.946-18.21 7.638-16.312 12.03zm-10.468 11.67c3.71-.66 3.2-10.046.37-17.69-3.194 9.23-4.608 18.696-.37 17.688z"/>
    <path d="M378.16 324.92c1.28 1.618 16.38-9.062 16.162-13.363-4.778 6.866-20.747 8.226-16.162 13.363zm-17.624 13.883c6.12-2.1 2.713-10.39 3.72-19.327-4.03 8.732-8.79 17.496-3.72 19.327z"/>
    <path d="M370.218 331.63c.816 2.808 13.112-2.4 19.048-10.968-7.17 6.666-21.096 6.323-19.048 10.967z"/>
    <path d="M362.277 340.126c2.66 4.406 17.9-3.663 20.116-11.234-4.93 6.663-21.964 6.664-20.116 11.236z"/>
    <path d="M369.272 343.66c2.8.302 9.31-6.03 11.142-7.812-6.234 2.696-12.308 6.17-11.142 7.812z"/>
  </g>
  <g stroke-linejoin="round" fill-rule="evenodd" stroke="#000" stroke-width=".973" fill="#fff">
    <path d="M346.304 310.784c3.332.483 7.69-6.634 4.78-11.833-1.446 6.19-11.144 10.69-4.78 11.836zm7.136-3.66c2.672 1.44 9.08-6.486 8.263-10.02-3.637 6.794-10.94 7.466-8.264 10.02z"/>
    <path d="M346.837 317.308c2.6 2.43 14.784-10.048 18.443-16.72-10.63 9.06-21.608 11.343-18.443 16.72zm-2.937 7.476c1.966 2.96 10.146-6.97 16.324-13.398-6.663 6.477-17.68 9.44-16.324 13.398z"/>
    <path d="M343.736 317.668c2.003-6.29-1.316-6.132-2.816-12.71-2.966 3.637-2.633 13.693 2.814 12.71zm-3.27 7.3c3.98-1.11-2.466-7.88-3.806-12.71-.607 8.883-.602 13.312 3.806 12.71zm-3.886 6.382c3.673-1.338-2.078-4.69-2.666-12.103-1.826 2.726-2.783 13.086 2.666 12.102z"/>
    <path d="M331.086 332.914c2.342-1.267 1.378-7.31-2.217-8.11-.838 4.743-.73 8.18 2.216 8.11z"/>
  </g>
  <g fill-rule="evenodd" fill="#fff">
    <path d="M346.304 310.784c3.332.483 7.69-6.634 4.78-11.833-1.446 6.19-11.144 10.69-4.78 11.836zm7.136-3.66c2.672 1.44 9.08-6.486 8.263-10.02-3.637 6.794-10.94 7.466-8.264 10.02z"/>
    <path d="M346.837 317.308c2.6 2.43 14.784-10.048 18.443-16.72-10.63 9.06-21.608 11.343-18.443 16.72zm-2.937 7.476c1.966 2.96 10.146-6.97 16.324-13.398-6.663 6.477-17.68 9.44-16.324 13.398z"/>
    <path d="M343.736 317.668c2.003-6.29-1.316-6.132-2.816-12.71-2.966 3.637-2.633 13.693 2.814 12.71zm-3.27 7.3c3.98-1.11-2.466-7.88-3.806-12.71-.607 8.883-.602 13.312 3.806 12.71zm-3.886 6.382c3.673-1.338-2.078-4.69-2.666-12.103-1.826 2.726-2.783 13.086 2.666 12.102z"/>
    <path d="M331.086 332.914c2.342-1.267 1.378-7.31-2.217-8.11-.838 4.743-.73 8.18 2.216 8.11z"/>
  </g>
  <g fill-rule="evenodd" fill="#fff">
    <path d="M386.698 297.666c1.067-4.228-.29-6.688.866-12.208-6.346 8.61-3.96 12.642-.866 12.208z"/>
    <path d="M387.297 298.704c4.202 1.17 16.13-8.406 16.448-16.66-2.964 6.136-17.713 10.674-16.448 16.66zm-6.87 6.31c2.876-1.67 2.064-8.22-.642-10.464-.634 6.49-4.463 10.308.643 10.466z"/>
    <path d="M383.394 306.83c6.082 1.693 10.83-7.616 16.02-11.614-4.777 4.118-19.226 6.096-16.02 11.613zm-6.99 4.673c3.666-2.33.236-6.93-.013-16.016-3.672 6.667-4.3 16.663.014 16.016z"/>
    <path d="M377.083 313.74c1.814 2.43 16.24-6.943 18.696-12.148-11.468 8.63-21.686 7.39-18.696 12.147zm-1.34 7.678c3.294-2.402-2.837-8.718-4.11-17.196.076 10.327-1.34 18.18 4.11 17.196z"/>
    <path d="M379.324 318.468c1.662 2.667 11.896-4.376 16.312-12.03-6.79 6.946-18.21 7.638-16.312 12.03zm-10.468 11.67c3.71-.66 3.2-10.046.37-17.69-3.194 9.23-4.608 18.696-.37 17.688z"/>
    <path d="M378.16 324.92c1.28 1.618 16.38-9.062 16.162-13.363-4.778 6.866-20.747 8.226-16.162 13.363zm-17.624 13.883c6.12-2.1 2.713-10.39 3.72-19.327-4.03 8.732-8.79 17.496-3.72 19.327z"/>
    <path d="M370.218 331.63c.816 2.808 13.112-2.4 19.048-10.968-7.17 6.666-21.096 6.323-19.048 10.967z"/>
    <path d="M362.277 340.126c2.66 4.406 17.9-3.663 20.116-11.234-4.93 6.663-21.964 6.664-20.116 11.236z"/>
    <path d="M369.272 343.66c2.8.302 9.31-6.03 11.142-7.812-6.234 2.696-12.308 6.17-11.142 7.812z"/>
  </g>
  <g fill-rule="evenodd" fill="#fff">
    <path d="M236.83 169.62c-.377-.307-.876-.76-.704.176 1.41 7.41 1.866 9.483 8.36 12.044 6.6 2.608 8.967 1.63 14.688 1.633 3.034-.11 6.667 1.404 8.67 3.618.98 1.03 1.688 1.443 1.296.13-.396-1.312-.78-3.016-1.398-4.38-1.348-3-4.834-6.866-8.32-7.01-4.88-1.717-10.14-.864-16.166-2.164-2.62-.724-6.138-2.183-7.318-3.946z" transform="matrix(-1.7066 -.9227 -.9183 1.7137 926.17 287.993)" stroke="#000" stroke-width=".601"/>
    <path d="M377.47 343.746c.926-.178 2.193-.494 1.04.96-9.208 11.4-11.872 14.64-26.3 12.937-13.662-1.796-16.792-6.48-26.29-10.836-6.07-2.99-12.488-3.664-18.11-1.8-2.617.86-4.2.91-2.324-.976 1.877-1.886 4.094-4.46 6.402-6.216 6.066-3.9 13.632-6.692 20.63-4.336 9.898 1.66 18.076 7.892 27.86 10.284 6.134 1.178 10.767 1 16.103-.008z"/>
  </g>
  <g fill-rule="evenodd" fill="#fff">
    <path d="M287.66 208.42c.884.11 1.444 1.822 1.88.663.737-1.877.22-3.37-.61-3.206-.978.26-2.634 2.466-1.27 2.642z" transform="matrix(-1.9236 0 0 1.9463 863.242 -41.866)" stroke="#000" stroke-width=".603"/>
    <path d="M299.92 363.792c-1.7.214-2.778 3.646-3.616 1.29-1.42-3.663-.426-6.668 1.17-6.237 1.883.608 6.068 4.78 2.444 4.947z"/>
  </g>
  <g stroke-linejoin="round" fill-rule="evenodd" stroke="#000" stroke-width=".973" fill="#fff">
    <path d="M318.636 348.932c4.813 1.262 6.063-4.296 6.636-8.327-4.34.936-8.887 3.46-6.636 8.327zm-1.936 4.928c.848 3.838 10.264-.118 12.094-6.493-6.694 3.906-13.298-.36-12.094 6.493z"/>
    <path d="M313.233 363.672c4.3.712 1.907-6.028 1.66-12.676-2.41 6.42-6.848 12.1-1.66 12.676zm-6.433 6.368c4.684.686 1.713-8.446.44-14.616-1.638 6.626-4.924 14.022-.44 14.616z"/>
    <path d="M310.687 360.24c.67 6.11 10.262-.61 16.886-3.76-7.442 1.162-16.722-1.263-16.886 3.76zm-6.323 7.147c.67 6.11 10.26-.61 16.886-3.762-7.443 1.164-16.722-1.26-16.886 3.762z"/>
    <path d="M302.79 367.182c4.464.13 1.18-9.687-.093-16.666-1.638 6.626-4.47 16.466.092 16.666zm-3.843 6.214c.67 6.11 9.417.073 14.9-3.448-7.62 1.61-16.736-1.666-14.9 3.448z"/>
  </g>
  <g fill-rule="evenodd" fill="#fff">
    <path d="M318.636 348.932c4.813 1.262 6.063-4.296 6.636-8.327-4.34.936-8.887 3.46-6.636 8.327zm-1.936 4.928c.848 3.838 10.264-.118 12.094-6.493-6.694 3.906-13.298-.36-12.094 6.493z"/>
    <path d="M313.233 363.672c4.3.712 1.907-6.028 1.66-12.676-2.41 6.42-6.848 12.1-1.66 12.676zm-6.433 6.368c4.684.686 1.713-8.446.44-14.616-1.638 6.626-4.924 14.022-.44 14.616z"/>
    <path d="M310.687 360.24c.67 6.11 10.262-.61 16.886-3.76-7.442 1.162-16.722-1.263-16.886 3.76zm-6.323 7.147c.67 6.11 10.26-.61 16.886-3.762-7.443 1.164-16.722-1.26-16.886 3.762z"/>
    <path d="M302.79 367.182c4.464.13 1.18-9.687-.093-16.666-1.638 6.626-4.47 16.466.092 16.666zm-3.843 6.214c.67 6.11 9.417.073 14.9-3.448-7.62 1.61-16.736-1.666-14.9 3.448z"/>
  </g>
  <g stroke-linejoin="round" fill-rule="evenodd" stroke="#000" stroke-width=".973" fill="#fff">
    <path d="M348.73 364.83c2.648 4.406 12.426-3.206 17.768-7.128-7.667 2.368-19.607 1.468-17.76 7.13z"/>
    <path d="M338.76 369.407c.963 6.062 17.448.883 19.8-2.862-7.686 3.213-20.706-1.602-19.8 2.862z"/>
    <path d="M330.983 373.26c.497 2.772 13.116 1.72 19.496-.428-6.9.868-20.78-4.01-19.498.43z"/>
    <path d="M324.396 376.66c.04 2.642 14.712 4 19.648-.126-9.864 1.464-20.628-6.99-19.648.124z"/>
    <path d="M312.79 378.94c-.668 3.63 16.396 2.783 20.407 1.014-8.67-.662-19.638-6.216-20.407-1.016z"/>
    <path d="M312.66 376.724c3.697 3.3 12.86-11.443 16.86-17.938-7.118 7.423-19.966 16.062-16.86 17.938z"/>
    <path d="M323.044 373.22c4.283 2.846 8.214-7.663 10.388-16.2-4.078 6.686-14.49 10.87-10.388 16.2z"/>
    <path d="M331.336 370.387c4.283 2.846 6.696-6.676 7.73-12.466-2.938 6.07-11.832 8.138-7.73 12.468z"/>
    <path d="M339.36 366.37c4.283 2.846 9.66-6.066 8.413-12.844-1.644 8.032-12.616 8.613-8.413 12.844zm-16.267 22.174c2.11 6.372 24.296-4.696 28.016-11.413-7.127 6.026-30.08 6.207-28.016 11.416z"/>
  </g>
  <g fill-rule="evenodd" fill="#fff">
    <path d="M348.73 364.83c2.648 4.406 12.426-3.206 17.768-7.128-7.667 2.368-19.607 1.468-17.76 7.13z"/>
    <path d="M338.76 369.407c.963 6.062 17.448.883 19.8-2.862-7.686 3.213-20.706-1.602-19.8 2.862z"/>
    <path d="M330.983 373.26c.497 2.772 13.116 1.72 19.496-.428-6.9.868-20.78-4.01-19.498.43z"/>
    <path d="M324.396 376.66c.04 2.642 14.712 4 19.648-.126-9.864 1.464-20.628-6.99-19.648.124z"/>
    <path d="M312.79 378.94c-.668 3.63 16.396 2.783 20.407 1.014-8.67-.662-19.638-6.216-20.407-1.016z"/>
    <path d="M312.66 376.724c3.697 3.3 12.86-11.443 16.86-17.938-7.118 7.423-19.966 16.062-16.86 17.938z"/>
    <path d="M323.044 373.22c4.283 2.846 8.214-7.663 10.388-16.2-4.078 6.686-14.49 10.87-10.388 16.2z"/>
    <path d="M331.336 370.387c4.283 2.846 6.696-6.676 7.73-12.466-2.938 6.07-11.832 8.138-7.73 12.468z"/>
    <path d="M339.36 366.37c4.283 2.846 9.66-6.066 8.413-12.844-1.644 8.032-12.616 8.613-8.413 12.844zm-16.267 22.174c2.11 6.372 24.296-4.696 28.016-11.413-7.127 6.026-30.08 6.207-28.016 11.416z"/>
  </g>
  <g fill-rule="evenodd" fill="#fff">
    <path d="M366.62 143.7c.368-3.69-2.38-10.116-.43-13.694.266-.478-.684-1.747-1.133-.977-.868 1.227-1.74 4.73-2.11 3.436-.39-1.406-.46-3.893-1.718-4.376-.81-.282-1.966-.467-1.643.783.31 1.202 1.004 2.862.236 2.97-.446.064-1.73-1.637-2.813-2.423-.873-.7-2.174.396-.9 1.446 4.146 3.38 8.16 4.9 10.61 12.736z" transform="matrix(-1.911 0 0 1.9463 846.868 -41.607)" stroke="#000" stroke-width=".6"/>
    <path d="M146.236 238.176c-.703-6.986 4.66-19.686.822-26.468-.61-.93 1.116-3.4 2.166-1.9 1.64 2.39 3.326 9.207 4.03 6.69.747-2.736.862-7.677 3.286-8.617 1.646-.66 3.732-.91 3.136 1.624-.692 2.34-1.92 6.67-.46 6.78.863.126 3.31-3.186 6.377-4.716 1.666-1.366 4.162.77 1.716 2.81-7.92 6.678-16.692 9.638-20.08 24.787z"/>
  </g>
  <g fill-rule="evenodd" fill="#fff">
    <path d="M132.01 343.318c-.93-.178-2.202-.494-1.044.96 9.262 11.4 11.93 14.64 26.42 12.936 13.63-1.794 16.874-6.48 26.416-10.834 6.097-2.99 12.66-3.664 18.198-1.802 2.63.86 4.22.913 2.336-.974-1.886-1.886-4.113-4.46-6.433-6.216-6.08-3.9-13.696-6.692-20.728-4.337-9.946 1.66-18.163 7.896-27.983 10.287-6.16 1.177-10.817 1-16.18-.008z" stroke="#000" stroke-width=".973"/>
    <path d="M132.01 343.318c-.93-.178-2.202-.494-1.044.96 9.262 11.4 11.93 14.64 26.42 12.936 13.63-1.794 16.874-6.48 26.416-10.834 6.097-2.99 12.66-3.664 18.198-1.802 2.63.86 4.22.913 2.336-.974-1.886-1.886-4.113-4.46-6.433-6.216-6.08-3.9-13.696-6.692-20.728-4.337-9.946 1.66-18.163 7.896-27.983 10.287-6.16 1.177-10.817 1-16.18-.008z"/>
  </g>
  <g fill-rule="evenodd" fill="#fff">
    <path d="M209.873 363.686c1.72.214 2.81 3.646 3.667 1.29 1.436-3.663.43-6.66-1.184-6.238-1.906.608-6.128 4.78-2.473 4.948z" stroke="#000" stroke-width=".973"/>
    <path d="M209.873 363.686c1.72.214 2.81 3.646 3.667 1.29 1.436-3.663.43-6.66-1.184-6.238-1.906.608-6.128 4.78-2.473 4.948z"/>
  </g>
  <path d="M206.038 366.79c4.616 1.06 4.66-10.067-.162-14.78 2.076 7.14-3.468 13.668.162 14.78zm-1.791-.098c.304 6.283-12.966-.69-16.377-4.8 7.84 3.33 16.99.674 16.377 4.8zm-6.817-7.666c.476 6.118-11.608.618-16.06-3.38 7.87 2.643 14.627-.832 16.06 3.38zm2.21.733c4.614 1.062 3.866-10.446-.62-14.396 2.163 7.672-3.01 13.287.62 14.397zm-4.862-7.003c4.616 1.06 1.967-8.86-1.464-12.802.666 7.217-1.72 12.223 1.464 12.802zm-2.434-.03c.476 6.27-8.847 1.224-12.466-3.76 7.79 2.642 11.94-.46 12.463 3.76zm-2.648-4.004c3.023-2.174-.184-7.923-6.94-7.667.664 3.472 2.662 9.68 6.94 7.667zm22.722 23.842c.306 6.283-12.968 2.666-17.137-2.974 8.374 1.684 16.76-1.26 17.14 2.976z" fill-rule="evenodd" stroke="#000" stroke-width=".973" fill="#fff"/>
  <g fill-rule="evenodd" fill="#fff">
    <g stroke="#000" stroke-width=".973">
      <path d="M126.637 232.64c-1.98-2.067-1.407-2.867 1.62-2.89 2.322-.146 6.923 1.423 8.67.162 1.6-1.162.962-6.09 1.672-8.363.31-1.27 1.196-3.26 3.19-.164 6.902 9.467 13.272 20.81 16.423 31.933 1.723 6.233.102 16.964-6.626 22.604.202-6.676-1.877-9.327-4.41-13.99-3.13-6.13-14.766-22.73-21.44-29.196z"/>
      <path d="M149.966 282.368c6.49.03 7.604-8.667 7.604-11.1-3.194.608-8.82 6.93-7.604 11.1z"/>
    </g>
    <path d="M126.637 232.64c-1.98-2.067-1.407-2.867 1.62-2.89 2.322-.146 6.923 1.423 8.67.162 1.6-1.162.962-6.09 1.672-8.363.31-1.27 1.196-3.26 3.19-.164 6.902 9.467 13.272 20.81 16.423 31.933 1.723 6.233.102 16.964-6.626 22.604.202-6.676-1.877-9.327-4.41-13.99-3.13-6.13-14.766-22.73-21.44-29.196z"/>
    <path d="M149.966 282.368c6.49.03 7.604-8.667 7.604-11.1-3.194.608-8.82 6.93-7.604 11.1z"/>
  </g>
  <path d="M206.038 366.79c4.616 1.06 4.66-10.067-.162-14.78 2.076 7.14-3.468 13.668.162 14.78zm-1.79-.098c.303 6.283-12.967-.69-16.378-4.8 7.84 3.33 16.99.674 16.377 4.8zm-6.818-7.666c.476 6.118-11.608.618-16.06-3.38 7.87 2.643 14.627-.832 16.06 3.38zm2.21.733c4.614 1.062 3.866-10.446-.62-14.396 2.163 7.672-3.01 13.287.62 14.397zm-4.862-7.003c4.616 1.06 1.967-8.86-1.464-12.802.666 7.217-1.72 12.223 1.464 12.802zm-2.434-.03c.476 6.27-8.847 1.224-12.466-3.76 7.79 2.642 11.94-.46 12.463 3.76zm-2.648-4.004c3.023-2.174-.184-7.923-6.94-7.667.664 3.472 2.662 9.68 6.94 7.667zm22.722 23.842c.306 6.283-12.968 2.666-17.137-2.974 8.374 1.684 16.76-1.26 17.14 2.976z" fill-rule="evenodd" fill="#fff"/>
  <g stroke-linejoin="round" fill-rule="evenodd" stroke="#000" stroke-width=".973" fill="#fff">
    <path d="M160.806 363.224c.476 6.27-14.016-.626-17.633-6.61 7.793 2.642 17.11 1.3 17.633 6.61zm8.878 2.264c3.023-2.174-3.16-7.772-8.067-9.088.663 3.472 4.68 11.1 8.067 9.088zm.933 3.66c.323 4.737-16.64 2.14-19.688-2.24 13.648 2.467 19.24-1.82 19.688 2.24z"/>
    <path d="M178.036 372.292c1.76 4.4-13.464 3.327-18.81.768 8.638-.076 17.6-3.834 18.81-.768z"/>
    <path d="M186.163 376.6c1.686 3.943-12.4 3.868-19.264 1.677 9.09-.074 17.696-6.68 19.262-1.678zm10.247 2.12c2.494 4.667-12.363 6.12-17.183 2.823 8.69-1.18 16.067-6.497 17.182-2.823z"/>
    <path d="M177.993 369.627c-4.727 2.98-4.473-6.807-8.233-11.893 6.907 6.38 11.436 9.06 8.233 11.893zm8.392 3.163c-3.964 3.612-7.134-8.647-10.743-16.313 6.834 6.442 14.402 12.396 10.743 16.313zm11.066 3.37c-3.367 3.892-13.066-11.433-16.696-19.42 6.376 6.217 19.267 16.122 16.697 19.42z"/>
  </g>
  <g fill-rule="evenodd" fill="#fff">
    <path d="M160.806 363.224c.476 6.27-14.016-.626-17.633-6.61 7.793 2.642 17.11 1.3 17.633 6.61zm8.878 2.264c3.023-2.174-3.16-7.772-8.067-9.088.663 3.472 4.68 11.1 8.067 9.088zm.933 3.66c.323 4.737-16.64 2.14-19.688-2.24 13.648 2.467 19.24-1.82 19.688 2.24z"/>
    <path d="M178.036 372.292c1.76 4.4-13.464 3.327-18.81.768 8.638-.076 17.6-3.834 18.81-.768z"/>
    <path d="M186.163 376.6c1.686 3.943-12.4 3.868-19.264 1.677 9.09-.074 17.696-6.68 19.262-1.678zm10.247 2.12c2.494 4.667-12.363 6.12-17.183 2.823 8.69-1.18 16.067-6.497 17.182-2.823zm-17.407-7.993c-4.727 2.98-4.473-6.807-8.233-11.893 6.907 6.38 11.436 9.06 8.233 11.893z"/>
    <path d="M186.386 372.78c-3.964 3.612-7.134-8.647-10.743-16.313 6.834 6.442 14.402 12.396 10.743 16.313zm11.066 3.37c-3.367 3.892-13.066-11.433-16.696-19.42 6.376 6.217 19.267 16.122 16.697 19.42z"/>
  </g>
  <path d="M188.016 387.838c-1.676 6.917-26.38-6.677-29.138-11.632 14.136 7.49 29.476 6.924 29.138 11.632z" fill-rule="evenodd" fill="#fff"/>
  <g fill-rule="evenodd" fill="#fff">
    <path d="M108.607 267.616c-.678-.76-2.24.02-1.824 1.826.386 2.447 3.99 14.996 10.186 19.313 4.418 3.184 27.64 8.313 38.167 10.49 6.794 1.167 10.646 4.067 14.447 8.67-1.672-6.032-2.836-10.6-4.866-16.966-1.974-4.803-7.204-10.068-12.62-10.34-10.06-.363-23.08-1.22-32.642-6.324-4.884-2.04-7.807-4.796-10.948-8.667z" stroke="#000" stroke-width=".973"/>
    <path d="M108.607 267.616c-.678-.76-2.24.02-1.824 1.826.386 2.447 3.99 14.996 10.186 19.313 4.418 3.184 27.64 8.313 38.167 10.49 6.794 1.167 10.646 4.067 14.447 8.67-1.672-6.032-2.836-10.6-4.866-16.966-1.974-4.803-7.204-10.068-12.62-10.34-10.06-.363-23.08-1.22-32.642-6.324-4.884-2.04-7.807-4.796-10.948-8.667z"/>
  </g>
  <g stroke-linejoin="round" fill-rule="evenodd" stroke="#000" stroke-width=".973" fill="#fff">
    <path d="M166.28 317.26c3.172 2.336 6.673-6.034 2.644-13.99-.127 7.668-6.214 10.23-2.644 13.99z"/>
    <path d="M169.328 324.966c4.387 1.347 6.76-6.414 2.872-12.622.482 6.67-6.897 10.687-2.872 12.622z"/>
    <path d="M172.66 331.114c4.238 2.11 6.842-6.732 2.797-11.664.332 7.428-6.06 9.618-2.796 11.664z"/>
    <path d="M170.907 331.686c-1.678 6.018-11.416-4.327-13.066-9.41 6.046 6.006 14.268 6.342 13.068 9.41z"/>
    <path d="M166.602 323.904c-1.908 6.018-14.162-7.9-16.868-14.122 6.043 6.004 18.22 10.686 16.868 14.122z"/>
    <path d="M164.064 316.386c-1.907 6.703-16.217-9.497-18.987-14.883 6.36 6.928 20.426 10.74 18.987 14.883z"/>
    <path d="M163.664 310.74c4.687-.91-.266-4.814-6.01-11.168-.27 6.68.827 11.36 6.01 11.168zm-7.914-3.783c2.023-2.204-1.94-3.142-6.86-8.66-.723 3.714 4.664 10.614 6.86 8.66zm22.7 24.776c2.664 1.6 4.32-3.766 1.123-8.613-.73 6.146-3.476 6.676-1.124 8.61z"/>
  </g>
  <g fill-rule="evenodd" fill="#fff">
    <path d="M166.28 317.26c3.172 2.336 6.673-6.034 2.644-13.99-.127 7.668-6.214 10.23-2.644 13.99z"/>
    <path d="M169.328 324.966c4.387 1.347 6.76-6.414 2.872-12.622.482 6.67-6.897 10.687-2.872 12.622z"/>
    <path d="M172.66 331.114c4.238 2.11 6.842-6.732 2.797-11.664.332 7.428-6.06 9.618-2.796 11.664z"/>
    <path d="M170.907 331.686c-1.678 6.018-11.416-4.327-13.066-9.41 6.046 6.006 14.268 6.342 13.068 9.41z"/>
    <path d="M166.602 323.904c-1.908 6.018-14.162-7.9-16.868-14.122 6.043 6.004 18.22 10.686 16.868 14.122z"/>
    <path d="M164.064 316.386c-1.907 6.703-16.217-9.497-18.987-14.883 6.36 6.928 20.426 10.74 18.987 14.883zm-.41-6.646c4.687-.91-.266-4.814-6.01-11.168-.27 6.68.827 11.36 6.01 11.168z"/>
    <path d="M166.74 306.967c2.023-2.204-1.94-3.142-6.86-8.66-.723 3.714 4.664 10.614 6.86 8.66zm22.7 24.776c2.664 1.6 4.32-3.766 1.123-8.613-.73 6.146-3.476 6.676-1.124 8.61z"/>
  </g>
  <g stroke-linejoin="round" fill-rule="evenodd" stroke="#000" stroke-width=".973" fill="#fff">
    <path d="M122.717 298.66c-6.446 3.266-14.096-9.762-16.402-16.12 4.778 6.16 17.43 11.768 16.402 16.12z"/>
    <path d="M127.36 306.143c-3.012 3.34-12.497-6.732-16.793-10.33 6.084 4.4 17.127 4.926 16.794 10.33z"/>
    <path d="M132.626 312.966c-.994 4.664-14.836-6.694-18.072-10.66 6.968 6.624 18.98 6.116 18.072 10.66z"/>
    <path d="M130.39 317.91c-2.134 4.108-13.392-6.072-16.096-11.383 6.88 6.002 17.838 7.32 16.096 11.383zm-6.772-20.026c3.662-3.746 2.04-6.6-.66-11.404-1.416 6.062-3.66 8.48.66 11.404zm4.714 7.066c6.443.286.062-7.666-1.46-14.14.66 7.606-1.662 13.42 1.46 14.14z"/>
    <path d="M133.43 311.198c4.463-1.01 3.176-7.327-.247-14.978.71 8.266-3.78 13.042.246 14.978zm-1.614 12.496c-1.68 6.02-14.38-6.607-16.4-11.006 6.423 6.396 17.636 7.243 16.4 11.006z"/>
    <path d="M139.616 331.62c-1.906 6.02-16.216-6.16-19.288-10.7 8.02 6.307 20.272 6.722 19.288 10.7z"/>
    <path d="M147.264 339.423c-2.134 6.996-16.062-4.172-20.2-9.636 8.866 6.763 21.334 4.667 20.2 9.636zm-13.077-17.963c3.78 1.966 6.307-8.77 3.176-16.346.028 8.266-7.682 14.41-3.176 16.346z"/>
    <path d="M140.66 329.966c4.642 1.36 3.102-10.216-.78-17.716-.602 7.43-3.864 14.488.78 17.716zm8.064 7.988c6.074.284 1.683-9.913-2.602-16.662.712 7.607-1.66 14.793 2.602 16.664zm-8.904 4.364c-1.626 2.684-6.267-2.196-11.383-6.684 6.61 1.44 12.06 3.29 11.382 6.684z"/>
  </g>
  <g fill-rule="evenodd" fill="#fff">
    <path d="M122.717 298.66c-6.446 3.266-14.096-9.762-16.402-16.12 4.778 6.16 17.43 11.768 16.402 16.12z"/>
    <path d="M127.36 306.143c-3.012 3.34-12.497-6.732-16.793-10.33 6.084 4.4 17.127 4.926 16.794 10.33z"/>
    <path d="M132.626 312.966c-.994 4.664-14.836-6.694-18.072-10.66 6.968 6.624 18.98 6.116 18.072 10.66z"/>
    <path d="M130.39 317.91c-2.134 4.108-13.392-6.072-16.096-11.383 6.88 6.002 17.838 7.32 16.096 11.383zm-6.772-20.026c3.662-3.746 2.04-6.6-.66-11.404-1.416 6.062-3.66 8.48.66 11.404zm4.714 7.066c6.443.286.062-7.666-1.46-14.14.66 7.606-1.662 13.42 1.46 14.14z"/>
    <path d="M133.43 311.198c4.463-1.01 3.176-7.327-.247-14.978.71 8.266-3.78 13.042.246 14.978zm-1.614 12.496c-1.68 6.02-14.38-6.607-16.4-11.006 6.423 6.396 17.636 7.243 16.4 11.006z"/>
    <path d="M139.616 331.62c-1.906 6.02-16.216-6.16-19.288-10.7 8.02 6.307 20.272 6.722 19.288 10.7z"/>
    <path d="M147.264 339.423c-2.134 6.996-16.062-4.172-20.2-9.636 8.866 6.763 21.334 4.667 20.2 9.636zm-13.077-17.963c3.78 1.966 6.307-8.77 3.176-16.346.028 8.266-7.682 14.41-3.176 16.346z"/>
    <path d="M140.66 329.966c4.642 1.36 3.102-10.216-.78-17.716-.602 7.43-3.864 14.488.78 17.716zm8.064 7.988c6.074.284 1.683-9.913-2.602-16.662.712 7.607-1.66 14.793 2.602 16.664zm-8.904 4.364c-1.626 2.684-6.267-2.196-11.383-6.684 6.61 1.44 12.06 3.29 11.382 6.684z"/>
  </g>
  <g stroke-linejoin="round" fill-rule="evenodd" stroke="#000" stroke-width=".973" fill="#fff">
    <path d="M136.906 266.366c4.736-3.604 1.123-10.067 0-16.29-1.624 6.912-6.636 13.668 0 16.29zm-.166 8.768c-7.116-.864-6.044-10.066-6.268-16.886 2.14 7.916 7.97 9.263 6.267 16.886zm1.128-1.207c6.018-.348 6.7-7.196 6.02-14.122-3.06 6.366-6.662 7.366-6.02 14.122z"/>
    <path d="M137.646 272.423c-4.68.373-7.114-4.226-8.186-11.394 4.44 6.604 8.478 4.646 8.186 11.392zm1.673-.666c6.018.776 6.067-6.232 4.816-11.396-1.846 4.922-6.74 6.473-4.816 11.396z"/>
    <path d="M129.937 268.9c.48 4.674 3.37 12.437 8.026 10.67 1.926-6.616-4.093-6.74-8.026-10.67z"/>
    <path d="M139.396 280.062c-2.086-4.01 4.734-6.02 6.178-11.234.83 7.462.134 12.367-6.178 11.234z"/>
  </g>
  <g fill-rule="evenodd" fill="#fff">
    <path d="M136.906 266.366c4.736-3.604 1.123-10.067 0-16.29-1.624 6.912-6.636 13.668 0 16.29zm-.166 8.768c-7.116-.864-6.044-10.066-6.268-16.886 2.14 7.916 7.97 9.263 6.267 16.886zm1.128-1.207c6.018-.348 6.7-7.196 6.02-14.122-3.06 6.366-6.662 7.366-6.02 14.122z"/>
    <path d="M137.646 272.423c-4.68.373-7.114-4.226-8.186-11.394 4.44 6.604 8.478 4.646 8.186 11.392zm1.673-.666c6.018.776 6.067-6.232 4.816-11.396-1.846 4.922-6.74 6.473-4.816 11.396z"/>
    <path d="M129.937 268.9c.48 4.674 3.37 12.437 8.026 10.67 1.926-6.616-4.093-6.74-8.026-10.67z"/>
    <path d="M139.396 280.062c-2.086-4.01 4.734-6.02 6.178-11.234.83 7.462.134 12.367-6.178 11.234z"/>
  </g>
  <g stroke-linejoin="round" fill-rule="evenodd" stroke="#000" stroke-width=".973" fill="#fff">
    <path d="M119.984 232.498c3.746-4.034.437-10.436-.686-16.668-1.623 6.91-4.166 13.743.686 16.668zm-.12 7.617c-6.68.667-8.174-12.716-8.843-18.47 2.14 7.916 9.72 11.633 8.844 18.47zm1.37-.12c4.66-2.403 3.67-7.676 6.03-11.463-3.126 4.77-6.977 6.464-6.03 11.462z"/>
    <path d="M119.933 248.663c-6.884.69-10.986-14.237-11.2-20.068 2.14 7.916 12.002 12.22 11.2 20.068zm1.307-.226c6.474-1.49 6.7-6.676 4.73-12.46-2.062 6.823-6.676 6.377-4.73 12.46z"/>
    <path d="M119.843 267.21c-7.67 1.284-7.037-10.69-13.048-19.376 6.2 6.462 14.66 14.682 13.048 19.376zm1.71-.41c6.714.166 6.272-8.436 6.966-11.926-1.314 3.476-8.032 6.777-6.966 11.927z"/>
    <path d="M108.022 247.992c2.837 9.212 6.868 18.443 11.826 17.742 2.38-6.237-4.702-6.906-11.826-17.742z"/>
    <path d="M121.63 264.39c-2.086-4.01 4.734-6.02 6.178-11.233.83 7.462.134 12.367-6.178 11.234zm-11.66-6.872c4.062 8.3 6.88 17.836 11.444 16.46 2.077-6.464-6.146-7.806-11.444-16.46z"/>
    <path d="M122.66 273.4c-2.39-4.392 4.43-6.946 6.102-11.996.906 7.92.06 13.674-6.102 11.996z"/>
  </g>
  <g fill-rule="evenodd" fill="#fff">
    <path d="M119.984 232.498c3.746-4.034.437-10.436-.686-16.668-1.623 6.91-4.166 13.743.686 16.668zm-.12 7.617c-6.68.667-8.174-12.716-8.843-18.47 2.14 7.916 9.72 11.633 8.844 18.47zm1.37-.12c4.66-2.403 3.67-7.676 6.03-11.463-3.126 4.77-6.977 6.464-6.03 11.462z"/>
    <path d="M119.933 248.663c-6.884.69-10.986-14.237-11.2-20.068 2.14 7.916 12.002 12.22 11.2 20.068zm1.307-.226c6.474-1.49 6.7-6.676 4.73-12.46-2.062 6.823-6.676 6.377-4.73 12.46z"/>
    <path d="M119.843 267.21c-7.67 1.284-7.037-10.69-13.048-19.376 6.2 6.462 14.66 14.682 13.048 19.376zm1.71-.41c6.714.166 6.272-8.436 6.966-11.926-1.314 3.476-8.032 6.777-6.966 11.927z"/>
    <path d="M108.022 247.992c2.837 9.212 6.868 18.443 11.826 17.742 2.38-6.237-4.702-6.906-11.826-17.742z"/>
    <path d="M121.63 264.39c-2.086-4.01 4.734-6.02 6.178-11.233.83 7.462.134 12.367-6.178 11.234zm-11.66-6.872c4.062 8.3 6.88 17.836 11.444 16.46 2.077-6.464-6.146-7.806-11.444-16.46z"/>
    <path d="M122.66 273.4c-2.39-4.392 4.43-6.946 6.102-11.996.906 7.92.06 13.674-6.102 11.996z"/>
  </g>
  <path d="M134.24 217.226c3.993 1.08 8.182-3.404 6.73-10.116-4.664 1.138-6.66 6.28-6.73 10.117zm-12.788-3.366c.36 1.886 2.646 2.068 1.978-.61-.667-2.163-.662-3.79 0-6.66.893-2.206.696-6.96-.076-7.626-.678-1.664-2.922-.686-1.978.61 1.04 1.6 1.094 4.622.38 6.08-.94 2.162-.686 6.01-.304 6.996z" fill-rule="evenodd" stroke="#000" stroke-width=".973" fill="#fff"/>
  <path d="M134.24 217.226c3.993 1.08 8.182-3.404 6.73-10.116-4.664 1.138-6.66 6.28-6.73 10.117zm-12.788-3.366c.36 1.886 2.646 2.068 1.978-.61-.667-2.163-.662-3.79 0-6.66.893-2.206.696-6.96-.076-7.626-.678-1.664-2.922-.686-1.978.61 1.04 1.6 1.094 4.622.38 6.08-.94 2.162-.686 6.01-.304 6.996z" fill-rule="evenodd" fill="#fff"/>
  <path d="M136.27 206.677c-.378 2.948-2.873 3.216-2.148-.96.606-3.38.71-6.92 0-8.668-.97-3.447-.647-9.31.083-11.767.736-2.684 3.174-1.07 2.16.96-1.13 2.346-1.19 7.22-.414 9.498 1.024 3.363.747 7.826.33 10.926zm18.688 29.467c-1.643 2.27-4.002.962-2.61-2.692 1.178-2.623 1.304-6.66 2.616-7.494 1.833-2.797 4.938-6.128 6.7-6.82 1.82-1.8 3.333-.066 1.663 1.48-2.028 2.028-4.228 4.663-6.46 6.466-2.28 3.716-1.276 6.68-2.918 9.06z" fill-rule="evenodd" stroke="#000" stroke-width=".973" fill="#fff"/>
  <g fill-rule="evenodd" fill="#fff">
    <path d="M242.64 131.62c.18.97 1.484.926 1.14-.444-.286-1.112-.932-2.18-.697-3.086.46-1.13.67-3.077.226-3.882-.36-.86-1.47-.28-.987.386.634.77.114 2.926-.263 3.674-.482 1.106.274 2.334.47 3.364z" transform="matrix(-2.463 -.9787 -1.138 2.6207 903.448 146.416)" stroke="#000" stroke-width=".36"/>
    <path d="M168.688 239.806c-1.643 2.27-4.694.882-2.293-2.236 1.967-2.624 4.77-4.686 4.977-7.19.163-3.307 2.103-8.32 3.866-10.013 1.82-1.802 3.924.733 1.978 1.936-2.187 1.42-3.608 7.26-3.66 9.608-.074 3.26-3.326 6.616-4.968 7.996z"/>
  </g>
  <path d="M163.868 236.144c-1.643 2.27-4.002.962-2.61-2.692 1.178-2.623 1.304-6.66 2.616-7.494 1.833-2.797 4.938-6.128 6.7-6.82 1.82-1.8 3.333-.066 1.663 1.48-2.028 2.028-4.228 4.663-6.46 6.466-2.28 3.716-1.276 6.68-2.918 9.06z" fill-rule="evenodd" fill="#fff"/>
  <g fill-rule="evenodd" fill="#fff">
    <path d="M242.23 131.78c-.094.784 1.23.974 1.172-.163-.06-1.187-1.824-2.273-.742-4.08.67-.884.68-2.604.234-3.366-.303-.864-1.68-.296-1.094.37.634.77-.1 2.26-.608 2.993-1.226 2.166 1.01 3.22.938 4.246z" transform="matrix(1.9463 0 0 4.087 -343.233 -314.163)" stroke="#000" stroke-width=".346"/>
    <path d="M128.22 224.436c-.184 3.206 2.396 3.98 2.28-.666-.117-4.86-3.66-9.29-1.444-16.676 1.107-3.613 1.127-10.234.466-13.763-.687-3.49-3.07-1.21-2.127 1.608 1.04 3.16-.196 9.196-.99 12.237-2.383 8.862 1.967 13.164 1.827 17.36z"/>
  </g>
  <path d="M136.27 206.677c-.378 2.948-2.873 3.216-2.148-.96.606-3.38.71-6.92 0-8.668-.97-3.447-.647-9.31.083-11.767.736-2.684 3.174-1.07 2.16.96-1.13 2.346-1.19 7.22-.414 9.498 1.024 3.363.747 7.826.33 10.926zm-26.36 60.296c1.236 1.47 3.318.486 1.42-1.604-1.662-1.61-1.04-2.117-1.987-4.076-.936-2.188-.887-3.396-2.016-4.96-1-1.482-2.6.03-1.496 1.28 1.263 1.476.916 2.664 1.687 3.992 1.426 2.444 1.08 3.727 2.39 6.266zm33.224 40.113c3.974 1.964 6.99 6.836 7.19 10.812.336 4.676.996 8.44 3.06 11.69-3.27-.91-4.837-6.124-6.302-11.118-.47-6.17-3.266-7.41-4.938-11.384zm8.29 9.676c2.76 6.077 6.697 7.013 6.794 10.78.333 4.336.662 4.667 1.837 8.82-3.237-.863-4.062-1.146-4.926-7.632-.64-4.66-4.19-7.776-3.706-11.968z" fill-rule="evenodd" fill="#fff"/>
  <path d="M301.604 401.667c.076 1.926.306 3.472 1.447 6.018-6.64-2.66-16.016-1.236-22.43 1.76-2.86 1.366-6.32-1.662-2.964-4.336 4.773-3.867 16.814-1.674 23.96-2.433zm-93.687-.1c.094 1.813-.116 3.476-.784 6.06 7.22-2.99 14.97-.607 22.262 2.434 6.013 2.076 6.418-1.614 4.633-2.766-1.622-2.203-4.467-4.622-8.192-4.676-2.48-.036-12.026-.12-17.82-.063zm6.094-36.26c-2.012-.868-4.362-.033-6.46 2.176-7.06 6.907-16.32 13.637-21.997 18.873-2.49 2.164-6.037 6.047 6.69 9.928.386.146 8.132 3.017 13.04 3.2 2.006-.067 2 2.937 1.627 3.736-.847 1.692-.234 2.2-1.946 3.736-1.783 1.604.19 3.462 1.692 2.13 6.983-6.196 16.686-1.872 26.036 1.168 2.21.612 6.262.44 6.217-2.608.037-3.32 2.442-6.667 3.914-6.763 3.816.662 22.676.872 28.486.166 3.387-.44 3.692 4.64 6.404 6.64 1.26 1.33 6.068 1.68 9.366.226 6.618-3.028 16.46-3.028 20.498-.134 1.664 1.267 2.978.24 2.032-1.047-1.22-1.76-1.19-2.676-1.797-3.966-1.62-3.094-.307-3.86 1.287-4.074 18.01-2.322 23.766-8.467 18.26-13.477-7.11-6.237-16.026-12.606-21.846-19.874-1.86-1.964-3.07-2.74-6.92-1.14-11.764 6.36-26.698 9.266-41.313 9.662-13.6.116-32.297-6.174-40.06-9.46z" fill-rule="evenodd" fill-opacity=".186" stroke="#000" stroke-width=".973"/>
  <path d="M301.604 401.667c.076 1.926.306 3.472 1.447 6.018-6.64-2.66-16.016-1.236-22.43 1.76-2.86 1.366-6.32-1.662-2.964-4.336 4.773-3.867 16.814-1.674 23.96-2.433zm-93.687-.1c.094 1.813-.116 3.476-.784 6.06 7.22-2.99 14.97-.607 22.262 2.434 6.013 2.076 6.418-1.614 4.633-2.766-1.622-2.203-4.467-4.622-8.192-4.676-2.48-.036-12.026-.12-17.82-.063zm6.094-36.26c-2.012-.868-4.362-.033-6.46 2.176-7.06 6.907-16.32 13.637-21.997 18.873-2.49 2.164-6.037 6.047 6.69 9.928.386.146 8.132 3.017 13.04 3.2 2.006-.067 2 2.937 1.627 3.736-.847 1.692-.234 2.2-1.946 3.736-1.783 1.604.19 3.462 1.692 2.13 6.983-6.196 16.686-1.872 26.036 1.168 2.21.612 6.262.44 6.217-2.608.037-3.32 2.442-6.667 3.914-6.763 3.816.662 22.676.872 28.486.166 3.387-.44 3.692 4.64 6.404 6.64 1.26 1.33 6.068 1.68 9.366.226 6.618-3.028 16.46-3.028 20.498-.134 1.664 1.267 2.978.24 2.032-1.047-1.22-1.76-1.19-2.676-1.797-3.966-1.62-3.094-.307-3.86 1.287-4.074 18.01-2.322 23.766-8.467 18.26-13.477-7.11-6.237-16.026-12.606-21.846-19.874-1.86-1.964-3.07-2.74-6.92-1.14-11.764 6.36-26.698 9.266-41.313 9.662-13.6.116-32.297-6.174-40.06-9.46z" fill-rule="evenodd" fill="#fff"/>
  <g fill-rule="evenodd" fill="#fff">
    <path d="M338.683 332.01c.816 2.81 12.048-2.323 17.767-13.66-7.476 8.16-19.676 8.07-17.767 13.66z" stroke="#000" stroke-width=".973"/>
    <path d="M338.683 332.01c.816 2.81 12.048-2.323 17.767-13.66-7.476 8.16-19.676 8.07-17.767 13.66z"/>
  </g>
  <g fill-rule="evenodd" fill="#fff">
    <path d="M263.46 178.87c1.696 2.678 3.968 4.444 4.06 6.487.173 2.36.344 2.47.964 4.783-1.68-.468-2.104-.62-2.668-4.14-.28-2.47-2.708-4.866-2.466-7.13z" transform="matrix(-2.0176 0 0 1.844 868.637 -14.906)" stroke="#000" stroke-width=".606"/>
    <path d="M367.293 314.93c-3.42 4.766-7.986 8.196-8.192 11.963-.347 4.336-.692 4.667-1.922 8.82 3.39-.863 4.246-1.146 6.16-7.632.666-4.667 6.464-8.966 4.966-13.16z"/>
  </g>
  <g fill-rule="evenodd" fill="#fff">
    <path d="M264.38 180.28c2.042 1.004 2.606 2.667 2.687 4.726.04 2.384.617 4.226 1.673 6.897-2.103.306-2.486-3.147-2.726-6.713-.242-2.666-.67-2.87-1.636-4.91z" transform="matrix(-2.039 0 0 1.9463 881.602 -42.498)" stroke="#000" stroke-width=".489"/>
    <path d="M362.836 308.38c-4.163 1.966-6.11 6.192-6.274 9.2-.08 4.64-1.266 8.226-3.41 11.477 4.288.694 6.07-6.126 6.667-11.12.493-6.17 1.368-6.683 3.13-9.666z"/>
  </g>
  <g fill-rule="evenodd" fill="#fff">
    <path d="M242.23 131.44c.18.97 1.36 1.068 1.016-.312-.286-1.112-.336-1.948 0-2.862.46-1.133.306-3.062-.04-3.867-.347-.86-1.6-.364-1.016.31.636.77.664 2.376.197 3.126-.483 1.106-.362 2.674-.166 3.694z" transform="matrix(2.0818 0 0 3.0397 -129.796 -193.086)" stroke="#000" stroke-width=".387"/>
    <path d="M374.47 206.467c.372 2.948 2.83 3.216 2.116-.96-.696-3.38-.698-6.92 0-8.668.966-3.446.637-9.31-.08-11.767-.726-2.683-3.126-1.07-2.116.962 1.11 2.343 1.167 7.22.403 9.496-1.006 3.363-.732 7.826-.324 10.926z"/>
  </g>
  <g fill-rule="evenodd" fill="#fff">
    <path d="M242.23 131.78c-.094.784 1.23.974 1.172-.163-.06-1.187-1.824-2.273-.742-4.08.67-.884.68-2.604.234-3.366-.303-.864-1.68-.296-1.094.37.634.77-.1 2.26-.608 2.993-1.226 2.166 1.01 3.22.938 4.246z" transform="matrix(-1.9167 0 0 4.087 846.476 -314.367)" stroke="#000" stroke-width=".348"/>
    <path d="M381.43 224.222c.18 3.204-2.368 3.98-2.246-.666.116-4.86 3.494-9.29 1.42-16.676-1.09-3.61-1.108-10.232-.447-13.76.68-3.49 3.026-1.21 2.096 1.607-1.023 3.16.19 9.196.973 12.237 2.347 8.862-1.936 13.164-1.797 17.36z"/>
  </g>
  <g fill-rule="evenodd" fill="#fff">
    <path d="M242.23 131.44c.18.97 1.36 1.068 1.016-.312-.286-1.112-.336-1.948 0-2.862.46-1.133.306-3.062-.04-3.867-.347-.86-1.6-.364-1.016.31.636.77.664 2.376.197 3.126-.483 1.106-.362 2.674-.166 3.694z" transform="matrix(-1.9167 0 0 1.9463 862.132 -42.178)" stroke="#000" stroke-width=".604"/>
    <path d="M388.086 213.644c-.342 1.887-2.603 2.06-1.946-.608.648-2.164.642-3.79 0-6.66-.88-2.206-.686-6.96.076-7.627.666-1.666 2.876-.687 1.946.607-1.02 1.6-1.074 4.623-.37 6.08.924 2.163.673 6.01.297 6.996z"/>
  </g>
  <g fill-rule="evenodd" fill="#fff">
    <path d="M374.236 217.334c-3.323 1.41-7.618-8.036-4.444-9.807 2.463-.62 8.098 8.01 4.446 9.807z" stroke="#000" stroke-width=".973"/>
    <path d="M374.236 217.334c-3.323 1.41-7.618-8.036-4.444-9.807 2.463-.62 8.098 8.01 4.446 9.807z"/>
  </g>
  <g fill-rule="evenodd" fill="#fff">
    <path d="M242.22 131.74c.18.97 1.234.867 1.32-.666-.012-1.006.432-2.074.267-2.87-.197-1.186-.906-2.386-1.26-3.19-.36-.86-1.142-.47-.806.273.386.964.76 2.098.876 2.906.208 1.666-.6 2.417-.406 3.437z" transform="matrix(2.367 -.9787 1.098 2.6207 -362.4 141.044)" stroke="#000" stroke-width=".367"/>
    <path d="M366.67 236.06c1.488 2.27 3.86.962 2.617-2.692-1.136-2.623-1.268-6.66-2.622-7.496-1.77-2.796-4.766-6.127-6.466-6.82-1.767-1.8-3.216-.064-1.606 1.48 1.967 2.03 4.08 4.664 6.26 6.467 2.2 3.716 1.23 6.68 2.814 9.06z"/>
  </g>
  <g fill-rule="evenodd" fill="#fff">
    <path d="M242.64 131.62c.18.97 1.484.926 1.14-.444-.286-1.112-.932-2.18-.697-3.086.46-1.13.67-3.077.226-3.882-.36-.86-1.47-.28-.987.386.634.77.114 2.926-.263 3.674-.482 1.106.274 2.334.47 3.364z" transform="matrix(2.367 -.9787 1.098 2.6207 -367.113 144.086)" stroke="#000" stroke-width=".367"/>
    <path d="M361.48 238.476c1.49 2.27 4.63.882 2.214-2.236-1.898-2.623-4.603-4.684-4.803-7.19-.166-3.306-2.027-8.32-3.73-10.012-1.766-1.802-3.784.733-1.906 1.934 2.11 1.42 3.482 7.262 3.436 9.61.07 3.26 3.21 6.616 4.792 7.994z"/>
  </g>
  <path stroke-linejoin="round" d="M220.83 343.96c4.612 3.6 8.766 7.687 10.037 12.773 1.328 4.737 2.13 8.363 6.172 13.077-4.767-3.042-6.66-7.637-8.06-12.624-1.234-4.9-4.068-8.662-7.16-13.227z" fill-rule="evenodd" stroke="#000" stroke-width=".973" fill="#fff"/>
  <path d="M220.83 343.96c4.612 3.6 8.766 7.687 10.037 12.773 1.328 4.737 2.13 8.363 6.172 13.077-4.767-3.042-6.66-7.637-8.06-12.624-1.234-4.9-4.068-8.662-7.16-13.227zm-6.167 0c4.208 3.446 6.938 7.382 8.21 12.467 1.328 4.738 3.196 8.616 6.933 12.774-4.46-3.04-7.266-7.18-8.668-12.166-1.232-4.9-2.686-8.663-6.476-13.076zm78.767 0c-4.302 3.466-7.093 7.426-8.394 12.64-1.367 4.766-3.266 8.666-6.064 12.86 4.66-3.06 7.427-7.223 8.86-12.24 1.26-4.928 2.746-8.613 6.697-13.16zm-6.296 0c-4.61 3.62-8.968 7.732-10.26 12.848-1.366 4.766-2.176 8.412-6.286 13.164 4.87-3.06 6.804-7.682 8.238-12.698 1.26-4.928 4.146-8.612 7.308-13.306zm-16.278 12.008c.124-.89-.482-1.666-1.21-1.9-1.42-.633-2.83-.967-4.237-1.368-1.6-.38-2.494.767-2.6 1.62-.007 1.264-.066 2.318 0 3.268.088 1.183.312 1.27 1.06 1.446 1.197.202 2.732.41 3.936 1.216.963.688 1.87.123 2.346-.91.308-.79.477-2.336.607-3.272zm-17.226 0c-.11-.89.367-1.742 1.007-1.976 1.266-.633 2.627-.663 3.86-.61 1.476-.022 1.86.313 1.863 1.066.008 1.263.06 2.47 0 3.42-.078 1.183-.062 1.27-.72 1.446-1.07.202-2.893.266-3.968 1.064-.862.688-1.823.123-1.87-.987.022-.834-.048-2.486-.164-3.42zm-20.902-.234c-.126-.89.484-1.666 1.216-1.9 1.426-.633 2.844-.967 4.267-1.368 1.606-.38 2.606.767 2.61 1.62.008 1.264.067 2.32 0 3.268-.087 1.184-.313 1.27-1.064 1.446-1.203.203-2.744.41-3.963 1.217-.967.688-1.878.123-2.367-.91-.31-.79-.48-2.337-.61-3.273zm17.302 0c.11-.89-.36-1.742-1.012-1.976-1.273-.636-2.64-.666-3.878-.61-1.486-.026-1.86.31-1.864 1.063-.008 1.264-.06 2.47 0 3.42.078 1.183.062 1.27.724 1.446 1.074.2 2.907.266 3.987 1.064.863.687 1.83.122 1.876-.987-.02-.837.06-2.488.166-3.424zm-16.018 7.902c1.646 2.914 3.32 7.36 6.637 6.638.063-2.23-3.47-3.776-6.636-6.638zm4.806.994c6.26 2.66 11.646 1.928 12.317 6.866-6.86.633-8.006-1.776-12.316-6.866zm30.636-.604c-1.667 2.746-3.366 6.928-6.627 6.163-.064-2.106 3.617-3.66 6.626-6.166zm-4.38.836c-6.34 2.43-11.813 1.83-12.496 6.668 6.948.6 8.123-1.684 12.496-6.668z" fill-rule="evenodd" fill="#fff"/>
  <path d="M286.79 302.67l13.61.003c.062 6.144 3.066 10.67 7.3 13.836h-26.08c4.08-3.7 6.196-8.087 6.17-13.84z" fill-opacity=".634" fill-rule="evenodd" stroke="#000" stroke-width=".973" fill="#fff"/>
  <path d="M286.79 302.67l13.61.003c.062 6.144 3.066 10.67 7.3 13.836h-26.08c4.08-3.7 6.196-8.087 6.17-13.84z" fill-rule="evenodd" fill="#fff"/>
  <path d="M189.69 386.766c-.76.672-.7 2.29.76 2.888 13.693 4.877 26.717 13.89 64.476 13.636 38.12-.36 61.616-9.168 63.716-13.23 1.626-.62 3.166-1.88 1.064-3.66-6.866-6.604-14.264-10.108-19.16-17.033-.87-1.246-3.242-.64-4.716 0-14.66 6.11-27.992 8.692-41.97 8.667-13.646-.026-27.87-3.784-40.676-9.046-1.226-.626-3.234.066-4.182.986-6.94 6.92-12.403 11.663-19.31 16.88z" stroke="#000" stroke-width=".487" fill="none"/>
  <path d="M208.004 376.394c-1.637-1.066-2.374.317-1.216 1.76 1.602 1.648 3.933 2.64 6.46 3.346 1.477.41 4.623-.11 6.086.074 1.216.162 1.903 2.606 4.106 2.61 2.223-.096 3.66-6.007 3.726-8.973.1-1.966-2.616-.71-2.367.08.71 1.963-.694 6.312-1.98 6.31-1.02-.064-2.114-2.178-3.66-2.434-1.2-.2-3.022.14-4.26.16-3.612.036-6.17-1.766-6.917-2.813z" fill-rule="evenodd"/>
  <path d="M211.06 374.798c1.93.963 3.614-.76 4.716.467 2.814 3.194 6.434-1.63 2.206-1.368-1.71.066-1.976-1.294-4.942-.99-1.678.202-2.9 1.364-1.977 1.9zm.448 13.994c-1.624-.666-2.036.782-1.14 1.674 1.266 1.148 6.478 1.606 7.766.686 2.112-1.6.668-6.81-.38-6.996-.69-.722-2.374-.777-1.673 1.142.29.89 1.686 3.103.63 4.106-.964.924-3.636 0-6.092-.608zm11.716 1.286c.336-.86-.668-2.338-2.13-.61-1.29 1.363-.244 7.106 3.878 8.136 4.03.99 7.048-.46 7.602-2.66.384-1.466-1.823-2.74-.683-4.032.964-1.01 2.79.014 3.676-1.693.46-.902.496-2.76-1.978-3.966-1.072-.638-2.93.692-2.89 1.6.068 1.246 1.99.433 1.292 1.62-.61.826-2.794.48-3.496 2.43-.42 1.24 2.684 3.63.988 4.108-1.424.493-3.28.812-6.17-.228-1.17-.618-1.666-3.18-.988-4.713zm-14.62-7.902c-.967.14-2.28.836-2.364 1.977-.06.916.696 2.6 1.977 1.442 1.324-1.027.308-1.614.608-1.14.66.66-.308.714-1.62 2.36-.846 1.246-2.66 1.046-3.674.606-1.694-.823-.996-1.36-2.736-2.13-1.738-.864-2.79 1.16-1.14 2.064 1.823 1.046 4.81 3.133 7.766 1.698 1.76-.99 3.8-1.89 3.724-4.107-.1-1.44-.74-2.94-2.738-2.66zm94.672-.76c-1.346-.96-.622-2.706 1.446-2.063 1.674.62 4.463 2.69 4.636 6.17.208 2.824-4.34 4.89-6.08 4.793-2.98-.24-2.46-2.604-.23-2.436 1.72.126 3.834-.488 3.966-2.28.1-1.666-2.768-2.46-3.727-3.196zm-9.81-6.91c-1.738-1.762 1.9-3.66 2.964-1.62 1.404 2.708 3.074 6.373 4.336 8.364 1.004 2.463-.313 2.786-1.14 1.442-1.384-2.336-3.48-6.46-6.16-8.287zm-8.606 6.237c1.87-.814 1.826 1.62 1.14 1.977-1.234.686-2.89-1.14-1.14-1.98zm6.648-2.044c1.87-.813 1.824 1.62 1.14 1.977-1.236.688-2.89-1.14-1.14-1.977z" fill-rule="evenodd"/>
  <path d="M232.49 380.968c-2.808-1.793.67-4.467 2.607-2.433 2.778 2.836 6.433 9.06 7.63 11.406 1.992 2.314.386-6.276.987-8.82.41-1.416 1.617-1.217 1.62.16.01 3.6-.63 10.62.38 11.18 1.7.966 1.394 2.646 2.812 2.28 1.622-.362 1.296-.76 2.663-.837 1.366 0 1.4 1.36 2.964 1.14.997-.13 1.296-1.26 2.607-1.294 1.106-.096.63 2.342-.073 2.737-1.146.644-4.716-.7-6.78-.607-1.264.034-3.64 1.207-4.942.684-1.71-.61-1.33-2.78-2.61-2.433-1.332.31-1.08 2.736-4.266 3.6-1.486.34-1.987-.997-1.216-1.9 1.38-1.477 4.16-2.666 3.726-4.03-1.288-3.836-6.176-8.464-8.82-10.72zm24.406.626c1.36 4.438 1.283 10.34 2.064 14.372.377 1.686 1.896.173 1.747-1.066-.697-4.33-.86-9.646-1.977-13.762-.462-1.426-2.34-1.148-1.826.466zm3.737 1.16c-.366-1.86 1.416-2.026 1.674-.916.913 3.67.796 11.744 2.686 12.014 3.088.366 7.417-.284 11.266-1.062 1.888-.376 2.276-1.742 2.206-2.283-.363-2.196 1.687-2.022 2.204.306.28 1.214-.272 3.392-2.684 3.876-4.618.872-10.736 2.217-14.296 1.446-3.118-.66-2.102-8.71-3.042-13.377z" fill-rule="evenodd"/>
  <path d="M266.664 386.834c.077-2.342 1.836-2.686 1.823-.686.06 4.79 6.666 3.647 6.846 1.76.878-1.4.236-2.004-.61-3.673-1.06-2.03 1.176-2.602 2.13-.837.716 1.263 1.21 6.29-.076 6.312-1.78 1.41-6.694 2.104-8.67.63-1.1-.768-1.63-2.214-1.443-3.496zm-2.434-6.248c.26 1.6 4.333.99 4.18-.162-.14-.98-4.407-.76-4.18.162zm6.314 1.226c.16 1.612 2.803 1.067 2.66-.076-.14-1.208-2.812-1.446-2.66.076zm7.98-1.83c-1.34-1.862 1.27-1.97 2.13-.607 2.226 3.33 3.693 8.694 6.864 12.317.918 1.67 2.07.177 2.206-.228.144-.43-.7-1.09-.76-2.686-.106-1.164 2.27-2.608 3.964-1.62 1.674 1.06.286 2 1.064 2.683.744.666 2.616.206 2.893-.162.83-1.306-.302-.64-1.446-1.293-1.324-.948-.63-6.066 2.206-3.346 1.628.943 2.107 3.964 1.62 6.628-.617 1.66-3.24 2.077-4.713 1.748-1.66-.606-3-2.602-2.66-1.977.82 1.36-.204 2.68-.99 3.194-1.94 1.218-3.298 1.867-4.714-.162-2.61-3.76-3.893-10.103-6.64-13.61z" fill-rule="evenodd"/>
  <path d="M206.66 121.273c-.112-2.246 3.37-2.418 2.97.67-.61 3.86 7.266 13.692 7.91 19.6.43 4.03-2.368 7.666-6.14 9.76-3.397 2.632-8.623 2.27-11.068.76-1.48-1.19-2.828-6.268-1.72-6.882.39-.64 2.162 6.987 6.062 6.96 6.308-.033 9.607-4.02 9.766-7.676.27-6.193-8.684-16.982-8.78-22.28zm16.66 16.297c.878-.626 2.28 2.112 1.29 2.797-.823.648-2.43-2.036-1.29-2.796zm2.336-6.646c-.444.216-1.326-.09-1.063-.467 1.242-1.774 3.89-4.444 6.808-6.377.69-.286 1.623.766 1.267 1.266-1.148 1.64-3.943 3.676-6.01 4.68zm20.634-16.29c.492-1.028 3.448-2.19 4.2-2.886.698-.716 1.03.6.733 1.223-.492 1.027-3.044 2.762-4.163 2.81-.602.024-1.07-.63-.77-1.16zm7.006.33c.64-1.804 2.706-4.64 4.126-6.44.73-.46 2.04-.098 1.794.694-.643 1.63-3.07 4.206-4.768 6.466-.616.46-1.3-.2-1.162-.62zm-6.014 4.616c-.428.214-.197 1.126.216 1.264.878.292 2.476.36 3.2-.06 1.06-.648.672-4.634-.836-2.606-.944 1.312-1.633.89-2.68 1.29zm-11.872 9.147c-2.147-1.672.677-4.014 2.82-2.378 4.373 3.296-6.62 16.93-12.447 21.833-1.084 1.167-2.036-1.766-.646-3.01 4.26-3.606 8.227-7.91 10.992-12.36.632-.866 1.042-2.7-.72-4.087zm24.873-10.86c.267-1.6-2.69.033-2.64-2.088-.028-1.124 3.12-1.91 4.436-.62 2.222 2.264.66 6.06-3.136 6.297-3.08.136-8.22 4.374-7.44 6.266.89 1.1 8.88 1.827 13.626 1.1 2.877-.404 2.273 2.17-.673 2.617-2.848.327-6.168.023-7.828.86-3.132.894-4.498 6.1-6.238 6.666-.39.273-1.436-1.378-1.038-1.998 1.264-1.962 3.263-4.962 6.462-6.82 1.388-.663-3.826-.74-6.49-1.216-1.32-.398-.937-2.076-.43-3.01.67-1.46 6.686-6.38 7.667-6.3 1.86.078 3.747-.464 3.93-1.668zm8.29.428c.926-.816 1.4-2.18 2.368-3.01.633-.633 1.38.106 1.24 1.39-.12 1.01-1.477 1.883-2.39 2.643-.744.667-1.61-.646-1.216-1.023zm10.63-3.766c1.377-.163 1.72 2.603.216 2.933-.913.306-1.71-2.777-.214-2.934zm-3.463 8.212c-.022 2.287 1.107 2.077 3.26 2 2.092-.08 3.93.063 3.923-2.013-.01-2.143-1.186-4.016-1.63-2.66-.303 1.37-.646 3.61-1.34 2.634-.762-.84-.464-1.023-1.746.364-.717.768-.798-.37-1.23-1.076-.298-.42-1.336.338-1.338.668zm-16.026 11.678c-.614 3.027-.043 7.264 1.606 7.312 1.916.062 6.878-6.617 7.764-10.082 1.126-1.933 3.068-2.27 2.262-.264-1.22 3.113-1.11 9.772-.04 11.728.677 1.064 4.83-.966 6.617-2.467 1.26-2.73.234-7.768.672-10.83.212-2.016 2.067-2.437 1.96-.668-.183 3.342-.6 9.472-.266 12.266.14 1.6 4.716 3.962 6.46-.884.39-3.06 1.96-6.06-.074-9.44-1.262-2.112 1.86-1.847 3.628 1.04 1.174 1.964-.99 6.216-.913 7.73.197 3.866-2.81 6.06-4.992 6.107-1.96.04-3.22-2.367-4.82-2.39-1.772-.114-3.694 2.76-6.06 2.666-6.68-.388-2.672-8.69-4.402-8.79-1.926-.114-4.194 8.136-6.666 7.84-2.336-.28-4.766-6.722-3.782-9.448.88-2.638 2.638-3.132 2.277-1.62z" fill-rule="evenodd" stroke="#000" stroke-width=".973" fill="#fff"/>
  <path d="M286.896 121.33c-2.77-1.69.176-6.086 1.63-4.64 2.616 3.132 6.263 10.668 7.096 11.182 1.17.39 1.116-6.496 1.94-8.172.63-1.977 2.92-1.33 2.463 1.2-.166.847-3.122 10.463-2.894 10.843 2.064 4.11 4.09 8.28 6.374 12.69.632 1.9-1.76.62-2.024.224-1.46-2.18-4.01-10.61-4.01-10.13-1.174 6.86-1.46 7.69-2.696 12.672-.38 1.696-2.73 1.304-2.2-1.607.61-2.31 3.87-13.674 3.68-14.003-2.64-4.66-6.066-8.36-8.26-10.36z" fill-rule="evenodd" stroke="#000" stroke-width=".973" fill="#fff"/>
  <path d="M290.897 148.366c-.773-.088-1.97 1.718 1.876 2.428 6.142.93 10.77-.8 12.496-6.843 1.973-6.004 3.28-11.69 4.31-13.836 1.29-2.6 2.938-2.298 1.72-6.948-.867-2.626-2.46-1.834-2.796-.43-.9 3.83-4.31 16.214-6.376 18.496-2.01 4.163-6.068 6.81-12.234 6.137z" fill-rule="evenodd" stroke="#000" stroke-width=".973" fill="#fff"/>
  <path d="M301.193 128.61c-.66-1.18-1.836-.266-1.606 1.026.137 1.168 1.084 1.803 2.036 1.77 1.127-.04 3.61.038 3.617-1.833.004-1.316-1.03-2.413-1.796-.962-.734 1.316-1.678 1.177-2.16 0zm1.286-4.943c-.396.274-.04 1.736.43 1.72 1.68-.066 4.06-.692 6.336-1.48.373-.26.218-1.142-.314-1.124-1.62.064-4.198.01-6.463.884zm14.266 3.678c1.216-1.9 4.672-2.094 3.366.62-.866 1.87-9.21 18.01-10.36 20.062-1.244 2.308-2.26 1.166-1.378-.632 1.19-2.313 7.98-19.488 8.36-20.06z" fill-rule="evenodd" stroke="#000" stroke-width=".973" fill="#fff"/>
  <path d="M304.17 161.382c-.366-1.284-2.348-3.184-2.124.262.397 6.238 8.966 4.266 11.66 2.06 2.366-2.088.312 7.04 3.442 8.018 1.724.663 4.97-1.8 6.666-3.87 4.426-6.744 7.243-13.976 11.6-19.647 1.607-2.217-.88-3.8-1.887-2.036-3.702 6.207-8.3 18.874-13.32 22.164-4.093 2.62-2.88-3.373-3.023-6.173-.18-1.32-1.79-3.262-3.936-1.48-1.603 1.174-3.836 2.128-6.946 1.937-1.226-.068-2.268-.047-2.834-2.213z" fill-rule="evenodd" stroke="#000" stroke-width=".973" fill="#fff"/>
  <path d="M319.47 139.802c.044-.362-1.813-.612-1.722 1.29.066 1.334 1.66 1.697 1.936 1.606 2.61-1.826-.633-.916-.214-2.796zm-3.66 7.298c-.496.116-.948 1.694.216 1.784 1.064.076 6.236-.372 6.388-.304.746-.028 1.03-1.463-.67-1.378-1.937.098-4.486-.388-6.034-.102zm27.618-1.86c1.71-6.41 6.864.99 2.206 4.64-6.636 6.618-7.332 16.064-16.27 17.64-2.41.618-6.662-1.084-7.91-1.977-.49-.36.318-2.638 1.826-1.62 2.178 1.7 6.676 2.084 9.06.16 6.08-4.986 9.216-11.688 11.1-18.932zm-92.878 14.248c-.403.464-1.636.388-1.746 1.038-.484 2.41 0 3.633-.63 6.966-.61 2.226-2.062 2.31-1.947.497.14-2.36 2.077-6.666.708-6.894-.91-.214-1.613-1.432-.67-2.034 1.778-1.234 2.733-1.046 3.966-.674.428.13.637.767.23 1.113z" fill-rule="evenodd" stroke="#000" stroke-width=".973" fill="#fff"/>
  <path d="M249.306 166.346c-2.36 2.063-4.647 2.906-6.717 6.614-.887 1.067-.862 2.666-1.392 3.92-.63 1.444-2.24 1.73-2.77 1.427-.886-.682-.766-3.264-1.746-1.82-.837 1.33-1.38 3.16-2.62 3.137-1.12-.023-3.234-2.316-2.162-2.427 3.67-.376 3.624-3.312 4.998-3.606 1.642-.206 1.643 2.426 2.696 1.898.748-.383 1.1-3.448 1.91-4.276 2.49-2.642 4.467-3.886 6.996-6.764 1.284-1.02 2.2.826.91 1.886zm8.602 7.902c-1.888.382-1.666 2.81-1.012 3.11.916.427 2.33.606 2.86-2.186.247-1.147.47 6.7 2.983 3.06 1.446-1.697 6.03.29 6.63-1.72 1.074-1.338 1.406-2.272.668-4.26-.243-.6-1.714-.306-1.63 1.164.073 1.23-.873 2.748-2.103 2.49-.697-.11.337-3.01-.263-3.796-.33-.432-.833-.386-1.16.063-.463.626.462 3.406-1.064 3.772-1.914.44-.91-1.86-1.72-2.28-2.606-1.313-2.866.34-4 .682zm14.733-4.67c1.386-.39.963-.39 3.13-2.176.86-.642 1.016 1.238.927 1.982-.168 1.263-1.668.37-2.123 1.483-.682 1.444-.406 4.803-.633 6.17-.164.704-1.28.644-1.39.09-.32-1.67.23-3.302.177-6.388-.017-.71-1.03-1.82-.086-2.166zm-6.6-7.614c-.336 1.61-.31 2.764-.31 3.79.077.836 1.606.297 1.6.19-.076-1.326.226-3.16-.166-3.67-.212-.276-1.047-.694-1.126-.31z" fill-rule="evenodd" stroke="#000" stroke-width=".973" fill="#fff"/>
  <path d="M206.66 121.273c-.112-2.246 3.37-2.418 2.97.67-.61 3.86 7.266 13.692 7.91 19.6.43 4.03-2.368 7.666-6.14 9.76-3.397 2.632-8.623 2.27-11.068.76-1.48-1.19-2.828-6.268-1.72-6.882.39-.64 2.162 6.987 6.062 6.96 6.308-.033 9.607-4.02 9.766-7.676.27-6.193-8.684-16.982-8.78-22.28z" fill-rule="evenodd" fill="#fff"/>
  <path d="M214.894 119.97c.662.03 2.476 2.38 2.367 3.116-.08.347-1.94-.06-2.607-.632-.42-.366-.26-2.604.162-2.686zm-8.747 17.027c-1.668.906.263 2.69 1.606 1.936 4.66-3.018 11.666-6.19 13.118-12.167.47-2.026 2.36-6.13 4.138-6.822 1.726-.67 4.233 3.124 6.87.14.96-1.707 4.323 1.12 6.134-.707.99-2.206.618-3.42.66-6.63-.073-1.384-1.13-1.797-1.897.443-.4 1.014.07 2.038-.266 2.667-.247.403-1.018.792-1.466.466-.413-.31-.127-1.173-1.116-1.666-.386-.192-1-.362-1.267.14-1.173 2.092-1.823 4.044-3.466 1.82-1.464-1.916-2.206-6.228-3.278-.696-.386 1.6-2.817 3.92-4.26 3.92-1.79 0-1.34-4.713-6.276-3.996-2.022.432-1.882 4.3-1.68 6.73.496 1.988 6.406.66 6.11 1.86-1.01 4.616-7.276 8.807-12.688 11.46z" fill-rule="evenodd" stroke="#000" stroke-width=".973" fill="#fff"/>
  <path d="M169.166 168.606c-.26.766.763 2.806 1.796 2.968 1.023.076 1.646-2.216 1.216-2.968-.243-.647-2.83-.636-3.01 0zm6.41 7.96c-.666-.706-2.69 1.19-1.026 2.63.88.71 4.096 1.742 4.976.242 1.19-1.93-1.174-8.942-.127-9.868.818-.724 4.607 4.683 6.478 6.072 4.394.61 3.34-7.624 8.076-6.972 3.228.43 3.68-3.602 3.13-6.12-.36-2.416-4.27-6.904-6.07-7.464-2.366-1.97-3.42 1.462-1.936 2.68 1.912 1.63 6.273 4.623 6.808 6.668.263.966-2.336 2.884-3.29 2.366-2.2-1.203-4.248-6.363-6.173-7.63-.667-.4-2.27.606-1.494 2.11.874 1.724 4.734 4.39 4.96 6.227.204 1.676-1.72 6.3-2.984 6.3-1.39 0-4.932-4.38-6.038-6.44-.662-.987-2.467-.892-2.668.47-.317 2.046.296 6.376.784 9.067.388 2.64-1.43 2.668-2.403 1.77zM167.93 162.6c-.663.626 1.29 1.86 1.666 1.63.71-.614 3.47-3.768 2.937-4.867-.473-.98-4.266-3.126-4.883-2.063-1.146 1.84 3.676 2.663 2.836 3.202-.364.21-1.662 1.106-2.646 2.19zm6.812-13.778s1.186 4.066 2.16 2.366c.78-1.17-2.16-2.366-2.16-2.366zm1.928 6.462c-.436.237-1.668 1.206-.86 1.72 1.268.746 4.683 1.336 3.944-1.1-.46-1.436 6.166.04 3.797-3.846-.366-1.076-2.06-2.627-2.883-2.846-.63-.14-2.327.847-1.202 1.39.82.426 3.3 1.88 2.378 2.836-1.046.997-1.773-.448-3.073-.216-.666.124-.23 1.986-.697 2.492-.206.282-1.16-.623-1.604-.43zm8.913-16.42c-.71.363-1.978 2.274-2.024 3.162-.028.474.492 1.126.897.923.743-.373 1.892-2.19 1.934-3.026.03-.627-.37-1.28-.81-1.062zm4.632-.494c-1.368-1.672 1.462-4.166 2.72-.807.768 2.1 8.942 12.867 10.614 16.607 1.18 2.47-.046 3.49-1.608 1.72-4.14-6.282-7.636-11.866-11.828-17.42zm8.39.216c1.466-1.68 4.432-4.806 3.63-6.604-.616-1.646-2.423-1.39-2.73-1.034-1.77 2.11 1.266 1.68.82 2.303-.9 1.69-1.8 2.622-2.264 4.26-.107.38.28 1.37.646 1.086z" stroke-width=".973" stroke-linejoin="round" fill-rule="evenodd" stroke="#000" fill="#fff"/>
  <path d="M169.166 168.606c-.26.766.763 2.806 1.796 2.968 1.023.076 1.646-2.216 1.216-2.968-.243-.647-2.83-.636-3.01 0zm6.41 7.96c-.666-.706-2.69 1.19-1.026 2.63.88.71 4.096 1.742 4.976.242 1.19-1.93-1.174-8.942-.127-9.868.818-.724 4.607 4.683 6.478 6.072 4.394.61 3.34-7.624 8.076-6.972 3.228.43 3.68-3.602 3.13-6.12-.36-2.416-4.27-6.904-6.07-7.464-2.366-1.97-3.42 1.462-1.936 2.68 1.912 1.63 6.273 4.623 6.808 6.668.263.966-2.336 2.884-3.29 2.366-2.2-1.203-4.248-6.363-6.173-7.63-.667-.4-2.27.606-1.494 2.11.874 1.724 4.734 4.39 4.96 6.227.204 1.676-1.72 6.3-2.984 6.3-1.39 0-4.932-4.38-6.038-6.44-.662-.987-2.467-.892-2.668.47-.317 2.046.296 6.376.784 9.067.388 2.64-1.43 2.668-2.403 1.77zM167.93 162.6c-.663.626 1.29 1.86 1.666 1.63.71-.614 3.47-3.768 2.937-4.867-.473-.98-4.266-3.126-4.883-2.063-1.146 1.84 3.676 2.663 2.836 3.202-.364.21-1.662 1.106-2.646 2.19zm6.812-13.778s1.186 4.066 2.16 2.366c.78-1.17-2.16-2.366-2.16-2.366zm1.928 6.462c-.436.237-1.668 1.206-.86 1.72 1.268.746 4.683 1.336 3.944-1.1-.46-1.436 6.166.04 3.797-3.846-.366-1.076-2.06-2.627-2.883-2.846-.63-.14-2.327.847-1.202 1.39.82.426 3.3 1.88 2.378 2.836-1.046.997-1.773-.448-3.073-.216-.666.124-.23 1.986-.697 2.492-.206.282-1.16-.623-1.604-.43zm8.913-16.42c-.71.363-1.978 2.274-2.024 3.162-.028.474.492 1.126.897.923.743-.373 1.892-2.19 1.934-3.026.03-.627-.37-1.28-.81-1.062zm4.632-.494c-1.368-1.672 1.462-4.166 2.72-.807.768 2.1 8.942 12.867 10.614 16.607 1.18 2.47-.046 3.49-1.608 1.72-4.14-6.282-7.636-11.866-11.828-17.42zm8.39.216c1.466-1.68 4.432-4.806 3.63-6.604-.616-1.646-2.423-1.39-2.73-1.034-1.77 2.11 1.266 1.68.82 2.303-.9 1.69-1.8 2.622-2.264 4.26-.107.38.28 1.37.646 1.086zm106.666 21.907c-.366-1.284-2.348-3.184-2.124.262.397 6.238 8.966 4.266 11.66 2.06 2.366-2.088.312 7.04 3.442 8.018 1.724.663 4.97-1.8 6.666-3.87 4.426-6.744 7.243-13.976 11.6-19.647 1.607-2.217-.88-3.8-1.887-2.036-3.702 6.207-8.3 18.874-13.32 22.164-4.093 2.62-2.88-3.373-3.023-6.173-.18-1.32-1.79-3.262-3.936-1.48-1.603 1.174-3.836 2.128-6.946 1.937-1.226-.068-2.268-.047-2.834-2.213zM221.2 136.67c.878-.626 2.28 2.112 1.29 2.797-.823.648-2.43-2.036-1.29-2.796z" fill-rule="evenodd" fill="#fff"/>
  <path d="M326.327 134.76c-1.047-.847 1.03-4.968 2.436-3.346 3.868 4.464 6.66 18.968 6.766 29.806 0 0-1.734 1.448-1.747 1.218 0-6.778-2.322-23.466-7.463-27.676z" fill-rule="evenodd" stroke="#000" stroke-width=".973" fill="#fff"/>
  <path d="M223.636 131.024c-.444.216-1.326-.09-1.063-.467 1.242-1.774 3.89-4.444 6.808-6.377.69-.286 1.623.766 1.267 1.266-1.148 1.64-3.943 3.676-6.01 4.68zm101.79 3.736c-1.046-.847 1.03-4.968 2.436-3.346 3.868 4.464 6.66 18.968 6.766 29.806 0 0-1.734 1.448-1.747 1.218 0-6.778-2.322-23.466-7.463-27.676z" fill-rule="evenodd" fill="#fff"/>
  <path d="M327.702 160.082c.696-1.94 9.96-17.49 11.177-20.91.62-1.66 3.28 2.83.683 6.246-2.28 2.063-9.01 13.09-10.266 16.967-.678 1.746-2.332.916-1.696-1.292z" fill-rule="evenodd" stroke="#000" stroke-width=".973" fill="#fff"/>
  <path d="M268.063 117.867c.267-1.6-2.69.033-2.64-2.088-.028-1.124 3.12-1.91 4.436-.62 2.222 2.264.66 6.06-3.136 6.297-3.08.136-8.22 4.374-7.44 6.266.89 1.1 8.88 1.827 13.626 1.1 2.877-.404 2.273 2.17-.673 2.617-2.848.327-6.168.023-7.828.86-3.132.894-4.498 6.1-6.238 6.666-.39.273-1.436-1.378-1.038-1.998 1.264-1.962 3.263-4.962 6.462-6.82 1.388-.663-3.826-.74-6.49-1.216-1.32-.398-.937-2.076-.43-3.01.67-1.46 6.686-6.38 7.667-6.3 1.86.078 3.747-.464 3.93-1.668zm-24.873 10.86c-2.147-1.672.677-4.014 2.82-2.378 4.373 3.296-6.62 16.93-12.447 21.833-1.084 1.167-2.036-1.766-.646-3.01 4.26-3.606 8.227-7.91 10.992-12.36.632-.866 1.042-2.7-.72-4.087z" fill-rule="evenodd" fill="#fff"/>
  <path d="M238.834 120.66c-1.248-2.868 1.872-3.93 2.34-1.886 2.167 9.42 7.368 16.664 11.31 22.96 1.188 2.003.236 3.197-2.668 1.364-2.002-1.376-4.036-6.383-6.02-6.68-1.784-.33-6.06 8.134-14.777 6.72-2.26-.633-2.11-7.347-2.163-10.31-.096-1.39 1.44-1.76 1.493.137.08 2.734-.003 8.413 3.494 8.604 2.862.16 9.167-3.87 10.6-7.022 1.184-3.24-3.182-9.68-4.63-12.98z" fill-rule="evenodd" stroke="#000" stroke-width=".973" fill="#fff"/>
  <path d="M214.894 119.97c.662.03 2.476 2.38 2.367 3.116-.08.347-1.94-.06-2.607-.632-.42-.366-.26-2.604.162-2.686zm-8.747 17.027c-1.668.906.263 2.69 1.606 1.936 4.66-3.018 11.666-6.19 13.118-12.167.47-2.026 2.36-6.13 4.138-6.822 1.726-.67 4.233 3.124 6.87.14.96-1.707 4.323 1.12 6.134-.707.99-2.206.618-3.42.66-6.63-.073-1.384-1.13-1.797-1.897.443-.4 1.014.07 2.038-.266 2.667-.247.403-1.018.792-1.466.466-.413-.31-.127-1.173-1.116-1.666-.386-.192-1-.362-1.267.14-1.173 2.092-1.823 4.044-3.466 1.82-1.464-1.916-2.206-6.228-3.278-.696-.386 1.6-2.817 3.92-4.26 3.92-1.79 0-1.34-4.713-6.276-3.996-2.022.432-1.882 4.3-1.68 6.73.496 1.988 6.406.66 6.11 1.86-1.01 4.616-7.276 8.807-12.688 11.46zm32.687-16.347c-1.248-2.868 1.872-3.93 2.34-1.886 2.167 9.42 7.368 16.664 11.31 22.96 1.188 2.003.236 3.197-2.668 1.364-2.002-1.376-4.036-6.383-6.02-6.68-1.784-.33-6.06 8.134-14.777 6.72-2.26-.633-2.11-7.347-2.163-10.31-.096-1.39 1.44-1.76 1.493.137.08 2.734-.003 8.413 3.494 8.604 2.862.16 9.167-3.87 10.6-7.022 1.184-3.24-3.182-9.68-4.63-12.98zm6.236-6.917c.492-1.027 3.448-2.19 4.2-2.884.698-.716 1.03.6.733 1.223-.492 1.027-3.044 2.762-4.163 2.81-.602.024-1.07-.63-.77-1.16zm7.006.33c.64-1.803 2.706-4.64 4.126-6.44.73-.46 2.04-.097 1.794.696-.643 1.63-3.07 4.206-4.768 6.466-.616.46-1.3-.2-1.162-.62zm-6.014 4.617c-.428.214-.197 1.126.216 1.264.878.292 2.476.36 3.2-.06 1.06-.648.672-4.634-.836-2.606-.944 1.312-1.633.89-2.68 1.29zm21.292-1.286c.926-.816 1.398-2.18 2.367-3.01.633-.633 1.38.106 1.24 1.39-.12 1.01-1.477 1.883-2.39 2.643-.744.667-1.61-.646-1.216-1.023zm10.63-3.766c1.376-.163 1.718 2.603.214 2.933-.913.306-1.71-2.777-.214-2.934zm-3.464 8.212c-.022 2.287 1.107 2.077 3.26 2 2.092-.08 3.93.063 3.923-2.013-.01-2.143-1.186-4.016-1.63-2.66-.303 1.37-.646 3.61-1.34 2.634-.762-.84-.464-1.023-1.746.364-.717.768-.798-.37-1.23-1.076-.298-.42-1.336.338-1.338.668zm-16.026 11.678c-.614 3.027-.043 7.264 1.606 7.312 1.916.062 6.878-6.617 7.764-10.082 1.126-1.933 3.068-2.27 2.262-.264-1.22 3.113-1.11 9.772-.04 11.728.677 1.064 4.83-.966 6.617-2.467 1.26-2.73.234-7.768.672-10.83.212-2.016 2.067-2.437 1.96-.668-.183 3.342-.6 9.472-.266 12.266.14 1.6 4.716 3.962 6.46-.884.39-3.06 1.96-6.06-.074-9.44-1.262-2.112 1.86-1.847 3.628 1.04 1.174 1.964-.99 6.216-.913 7.73.197 3.866-2.81 6.06-4.992 6.107-1.96.04-3.22-2.367-4.82-2.39-1.772-.114-3.694 2.76-6.06 2.666-6.68-.388-2.672-8.69-4.402-8.79-1.926-.114-4.194 8.136-6.666 7.84-2.336-.28-4.766-6.722-3.782-9.448.88-2.638 2.638-3.132 2.277-1.62z" fill-rule="evenodd" fill="#fff"/>
  <path d="M286.896 121.33c-2.77-1.69.176-6.086 1.63-4.64 2.616 3.132 6.263 10.668 7.096 11.182 1.17.39 1.116-6.496 1.94-8.172.63-1.977 2.92-1.33 2.463 1.2-.166.847-3.122 10.463-2.894 10.843 2.064 4.11 4.09 8.28 6.374 12.69.632 1.9-1.76.62-2.024.224-1.46-2.18-4.01-10.61-4.01-10.13-1.174 6.86-1.46 7.69-2.696 12.672-.38 1.696-2.73 1.304-2.2-1.607.61-2.31 3.87-13.674 3.68-14.003-2.64-4.66-6.066-8.36-8.26-10.36z" fill-rule="evenodd" fill="#fff"/>
  <path d="M290.897 148.366c-.773-.088-1.97 1.718 1.876 2.428 6.142.93 10.77-.8 12.496-6.843 1.973-6.004 3.28-11.69 4.31-13.836 1.29-2.6 2.938-2.298 1.72-6.948-.867-2.626-2.46-1.834-2.796-.43-.9 3.83-4.31 16.214-6.376 18.496-2.01 4.163-6.068 6.81-12.234 6.137z" fill-rule="evenodd" fill="#fff"/>
  <path d="M301.193 128.61c-.66-1.18-1.836-.266-1.606 1.026.137 1.168 1.084 1.803 2.036 1.77 1.127-.04 3.61.038 3.617-1.833.004-1.316-1.03-2.413-1.796-.962-.734 1.316-1.678 1.177-2.16 0zm1.286-4.943c-.396.274-.04 1.736.43 1.72 1.68-.066 4.06-.692 6.336-1.48.373-.26.218-1.142-.314-1.124-1.62.064-4.198.01-6.463.884zm14.266 3.678c1.216-1.9 4.672-2.094 3.366.62-.866 1.87-9.21 18.01-10.36 20.062-1.244 2.308-2.26 1.166-1.378-.632 1.19-2.313 7.98-19.488 8.36-20.06zm2.726 12.467c.044-.362-1.813-.612-1.722 1.29.066 1.334 1.66 1.697 1.936 1.606 2.61-1.826-.633-.916-.214-2.796z" fill-rule="evenodd" fill="#fff"/>
  <path d="M327.702 160.082c.696-1.94 9.96-17.49 11.177-20.91.62-1.66 3.28 2.83.683 6.246-2.28 2.063-9.01 13.09-10.266 16.967-.678 1.746-2.332.916-1.696-1.292z" fill-rule="evenodd" stroke="#000" stroke-width=".973" fill="#fff"/>
  <path d="M316.81 147.1c-.496.116-.948 1.694.216 1.784 1.064.076 6.236-.372 6.388-.304.746-.028 1.03-1.463-.67-1.378-1.937.098-4.486-.388-6.034-.102zm11.892 12.982c.696-1.94 9.96-17.49 11.177-20.91.62-1.66 3.28 2.83.683 6.246-2.28 2.063-9.01 13.09-10.266 16.967-.678 1.746-2.332.916-1.696-1.292z" fill-rule="evenodd" fill="#fff"/>
  <path d="M343.428 146.26c1.71-6.41 6.864.99 2.206 4.64-6.636 6.618-7.332 16.064-16.27 17.64-2.41.618-6.662-1.084-7.91-1.977-.49-.36.318-2.638 1.826-1.62 2.178 1.7 6.676 2.084 9.06.16 6.08-4.986 9.216-11.688 11.1-18.932z" fill-rule="evenodd" stroke="#000" stroke-width=".973" fill="#fff"/>
  <path d="M343.428 146.26c1.71-6.41 6.864.99 2.206 4.64-6.636 6.618-7.332 16.064-16.27 17.64-2.41.618-6.662-1.084-7.91-1.977-.49-.36.318-2.638 1.826-1.62 2.178 1.7 6.676 2.084 9.06.16 6.08-4.986 9.216-11.688 11.1-18.932zm-86.62 18.997c-1.89.382-1.667 2.81-1.013 3.11.916.427 2.33.606 2.86-2.186.247-1.147.47 6.7 2.983 3.06 1.446-1.697 6.03.29 6.63-1.72 1.074-1.338 1.406-2.272.668-4.26-.243-.6-1.714-.306-1.63 1.164.073 1.23-.873 2.748-2.103 2.49-.697-.11.337-3.01-.263-3.796-.33-.432-.833-.386-1.16.063-.463.626.462 3.406-1.064 3.772-1.914.44-.91-1.86-1.72-2.28-2.606-1.313-2.866.34-4 .682zm14.732-4.67c1.386-.39.963-.39 3.13-2.176.86-.642 1.016 1.238.927 1.982-.168 1.263-1.668.37-2.123 1.483-.682 1.444-.406 4.803-.633 6.17-.164.704-1.28.644-1.39.09-.32-1.67.23-3.302.177-6.388-.017-.71-1.03-1.82-.086-2.166zm-6.6-7.614c-.336 1.61-.31 2.764-.31 3.79.077.836 1.606.297 1.6.19-.076-1.326.226-3.16-.166-3.67-.212-.276-1.047-.694-1.126-.31zm-16.836 4.282c-2.36 2.063-4.647 2.906-6.717 6.614-.887 1.067-.862 2.666-1.392 3.92-.63 1.444-2.24 1.73-2.77 1.427-.886-.682-.766-3.264-1.746-1.82-.837 1.33-1.38 3.16-2.62 3.137-1.12-.023-3.234-2.316-2.162-2.427 3.67-.376 3.624-3.312 4.998-3.606 1.642-.206 1.643 2.426 2.696 1.898.748-.383 1.1-3.448 1.91-4.276 2.49-2.642 4.467-3.886 6.996-6.764 1.284-1.02 2.2.826.91 1.886z" fill-rule="evenodd" fill="#fff"/>
  <path d="M260.66 169.498c-.403.464-1.636.388-1.746 1.038-.484 2.41 0 3.633-.63 6.966-.61 2.226-2.062 2.31-1.947.497.14-2.36 2.077-6.666.708-6.894-.91-.214-1.613-1.432-.67-2.034 1.778-1.234 2.733-1.046 3.966-.674.428.13.637.767.23 1.113z" fill-rule="evenodd" fill="#fff"/>
  <path d="M238.133 347.463c.816 1.812 2.007 1.732 1.828-.002-.346-2.22-1.016-6.29-1.396-7.966-.216-2.268-2.66-1.822-1.936.637.78 2.647.614 6.34 1.604 7.423zm6.987.117c-.01.918 1.413.834 1.4.108-.148-2.31-.324-6.432.32-6.66.603-.878 2.63-.268 4.41-.43.748-.11.693-2.17-.968-2.04-1.84.166-6.696-.433-6.99 1.288-.422 3.096 1.914-.186 1.828 7.633zm14.09-8.934c1.18.848 1.016 1.962-.43 1.61-1.72-.43-2.88-.29-2.866.663.026.927.76 1.11 1.808 2.137 1.012 1.06-.62.888-1.872 3.06-1.067 1.798 1.11 2.036 3.674 1.366.664-.187 1.613.938-.107 1.862-1.14.61-4.318 1.366-6.11-.962-1.6-3.99 2.614-4.642.823-6.606-.923-.667-1.266-1.396-1.088-2.61.368-2.668 4.184-2.227 6.16-1.612zm6.296 8.797c1.648-2.824 2.614-4.94 3.046-7.337.378-2.166 1.933-2.373 2.26-.638.42 2.437 1.816 4.862 3.61 7.066.992 1.373-1.006 2.68-1.79 1.613-1.438-1.826-1.498-4.37-2.347-4.362-.98.02-2.09 2.836-3.136 4.914-.304.604-2.16-.002-1.642-1.266z" stroke-width=".973" fill-rule="evenodd" stroke="#000" fill="#fff"/>
  <path d="M238.133 347.463c.816 1.812 2.007 1.732 1.828-.002-.346-2.22-1.016-6.29-1.396-7.966-.216-2.268-2.66-1.822-1.936.637.78 2.647.614 6.34 1.604 7.423zm6.987.117c-.01.918 1.413.834 1.4.108-.148-2.31-.324-6.432.32-6.66.603-.878 2.63-.268 4.41-.43.748-.11.693-2.17-.968-2.04-1.84.166-6.696-.433-6.99 1.288-.422 3.096 1.914-.186 1.828 7.633zm14.09-8.934c1.18.848 1.016 1.962-.43 1.61-1.72-.43-2.88-.29-2.866.663.026.927.76 1.11 1.808 2.137 1.012 1.06-.62.888-1.872 3.06-1.067 1.798 1.11 2.036 3.674 1.366.664-.187 1.613.938-.107 1.862-1.14.61-4.318 1.366-6.11-.962-1.6-3.99 2.614-4.642.823-6.606-.923-.667-1.266-1.396-1.088-2.61.368-2.668 4.184-2.227 6.16-1.612zm6.296 8.797c1.648-2.824 2.614-4.94 3.046-7.337.378-2.166 1.933-2.373 2.26-.638.42 2.437 1.816 4.862 3.61 7.066.992 1.373-1.006 2.68-1.79 1.613-1.438-1.826-1.498-4.37-2.347-4.362-.98.02-2.09 2.836-3.136 4.914-.304.604-2.16-.002-1.642-1.266zm133.847-82.261c-.11.68 1.464 1.433 1.826.99 1.682-2.016 3.883-6.97 4.334-8.364.133-.697-2.107-1.486-2.686-.913-1.676 1.886-3.1 6.773-3.674 8.287z" fill-rule="evenodd" fill="#fff"/>
</svg>
