<svg xmlns="http://www.w3.org/2000/svg" height="480" width="640">
  <defs>
    <clipPath id="a">
      <path fill-opacity=".67" d="M-79.698 0h682.67v612h-682.67z"/>
    </clipPath>
  </defs>
  <g clip-path="url(#a)" fill-rule="evenodd" transform="translate(74.717) scale(.9376)">
    <path fill="#fff" d="M-120 0h763.27v611.49H-120z"/>
    <path d="M-118.31.617h760.88v216.09h-760.88z"/>
    <path fill="#0061ff" d="M21.3 203.23h606.01v113.82H21.3z"/>
    <path d="M642.76 1.763v610.26H262.03L642.76 1.763z" fill="#e20000"/>
    <path d="M-118.69 1.763v610.26h380.72L-118.69 1.763z" fill="#e20000"/>
    <path d="M440.37 203.34l-76.31-19.363L428.98 136l-79.726 11.39 41.003-69.476-70.616 41.003 12.63-80.867-47.837 63.783L264.97 26.8l-21.64 76.31-47.837-64.92 13.667 83.146-70.616-43.282 41.003 69.476-77.46-12.63 63.783 47.838-79.727 20.6h364.22z" fill="#ffd600"/>
  </g>
</svg>
