<svg xmlns="http://www.w3.org/2000/svg" height="480" width="640">
  <defs>
    <clipPath id="a">
      <path fill-opacity=".67" d="M0 0h640v480H0z"/>
    </clipPath>
  </defs>
  <g clip-path="url(#a)">
    <path fill-rule="evenodd" fill="#fff" d="M.426.42H403.1v240.067H.427z"/>
    <path d="M.426.422L.41 18.44l96.093 69.27 36.166 1.267L.424.422z" fill="#c00"/>
    <path d="M41.673.422l116.494 73.046V.422H41.673z" fill="#006"/>
    <path d="M173.607.422v93.26H.423v63.288h173.184v93.26h63.286v-93.26h173.186V93.673H226.893V.423h-63.286z" fill="#c00"/>
    <path d="M242.436.422V69.26L366.407.966 242.436.422z" fill="#006"/>
    <path d="M246.032 76.764l32.064-.31L402.604.966l-33.037.647-123.636 76.164z" fill="#c00"/>
    <path d="M401.34 21.09l-96.12 66.62 93.863.42v84.37h-79.93l79.19 61.61 1.163 26.2-42.297-.606-116.763-68.222v68.828h-84.37v-68.827l-108.69 68.643-49.046.186v239.794h799.294V.426l-397.637-.43M.43 27.06l-.42 49.8 84.146 1.266L.43 27.06zM.426 162.497v61.066l79.93-60.633-79.93-.633z" fill="#006"/>
    <path d="M308.217 164.606l-33.322-.31 126.697 76.067-.826-17.174-91.463-67.684zM31.637 240.63l117.767-74.226-30.93.247L.423 240.618" fill="#c00"/>
    <path d="M626.376 247.8l2.03 2.03-2.03-2.03z" fill="#49497d"/>
    <path d="M627.406 247.8l2.03 2.03-2.03-2.03z" fill="#0e0e6e"/>
    <path d="M621.316 249.83l2.03 2.032-2.03-2.03z" fill="#262678"/>
    <path d="M623.346 249.83l2.03 2.032-2.03-2.03z" fill="#808067"/>
    <path d="M629.436 249.83l2.03 2.032-2.03-2.03z" fill="#68687b"/>
    <path d="M464.32 261.862l2.03 2.03-2.03-2.03z" fill="#0e0e6e"/>
    <path d="M617.266 261.862l2.03 2.03-2.03-2.03z" fill="#1b1b74"/>
    <path d="M619.286 261.862l2.03 2.03-2.03-2.03z" fill="#6e6c70"/>
    <path d="M467.892 266.636c0 62.467-6.046 111.67 33.062 162.66 8.043 8.463 23.346 27.726 36.462 26.986 13.732-.773 31.39-21.093 39.246-31.046 34.034-44.77 28.624-98.17 29.78-160.134-16.368 6.902-23.022 9.176-36.462 9.136-9.964 1.022-26.31-6.67-34.493-10.046-6 4.007-14.706 8.786-30.36 9.323-18.07.796-23.796-2.267-37.236-6.872z" fill="#cc3"/>
    <path d="M631.466 261.862l2.03 2.03-2.03-2.03z" fill="#99994e"/>
    <path d="M633.497 261.862l2.03 2.03-2.03-2.03z" fill="#49497d"/>
    <path d="M696.433 261.862l2.03 2.03-2.03-2.03z" fill="#0e0e6e"/>
    <path d="M466.36 263.892l2.03 2.03-2.03-2.03z" fill="#a4a43d"/>
    <path d="M468.38 263.892l2.03 2.03-2.03-2.03z" fill="#6e6c70"/>
    <path d="M460.41 263.892l2.03 2.03-2.03-2.03z" fill="#3a3a7c"/>
    <path d="M613.196 263.892l2.03 2.03-2.03-2.03z" fill="#1b1b74"/>
    <path d="M616.226 263.892l2.03 2.03-2.03-2.03z" fill="#6e6c70"/>
    <path d="M617.266 263.892l2.03 2.03-2.03-2.03z" fill="#a4a43d"/>
    <path d="M626.376 263.892l2.03 2.03-2.03-2.03z" fill="#d0d046"/>
    <path d="M633.497 263.892l2.03 2.03-2.03-2.03z" fill="#a4a43d"/>
    <path d="M636.627 263.892l2.03 2.03-2.03-2.03z" fill="#8d8d6b"/>
    <path d="M637.667 263.892l2.03 2.03-2.03-2.03z" fill="#3a3a7c"/>
    <path d="M690.342 263.892l2.03 2.03-2.03-2.03z" fill="#262678"/>
    <path d="M692.372 263.892l2.03 2.03-2.03-2.03z" fill="#63627c"/>
    <path d="M694.403 263.892l2.03 2.03-2.03-2.03z" fill="#8d8d6b"/>
    <path d="M464.47 266.922l2.03 2.03-2.03-2.03z" fill="#737370"/>
    <path d="M466.6 266.922l2.03 2.03-2.03-2.03z" fill="#63627c"/>
    <path d="M468.63 266.922l2.03 2.03-2.03-2.03z" fill="#1b1b74"/>
    <path d="M609.134 266.922l2.03 2.03-2.03-2.03z" fill="#262678"/>
    <path d="M611.164 266.922l2.03 2.03-2.03-2.03z" fill="#6e6c70"/>
    <path d="M613.196 266.922l2.03 2.03-2.03-2.03z" fill="#a4a43d"/>
    <path d="M623.346 266.922l2.03 2.03-2.03-2.03z" fill="#e6e69d"/>
    <path d="M462.064 261.24c-1.092 27.667-.264 68.687 4.064 88.07 4.763 16.404 4.126 23.866 11.203 33.098l99.07-.772c6.97-9.712 10.397-24.44 10.968-30.296 6.632-29.776 6.664-62.636 6.796-92.028-9.962 6.296-23.008 9.06-36.67 7.402-10.162-.774-19.63-3.09-30.464-9.264-9.476 6.676-12.778 8.268-28.423 8.93-12.18.6-22.048 1.688-36.643-6.14z" fill="#fff"/>
    <path d="M627.406 266.922l2.03 2.03-2.03-2.03z" fill="#f2f1d7"/>
    <path d="M629.436 266.922l2.03 2.03-2.03-2.03z" fill="#d9d868"/>
    <path d="M637.667 266.922l2.03 2.03-2.03-2.03z" fill="#a4a43d"/>
    <path d="M639.687 266.922l2.03 2.03-2.03-2.03z" fill="#99994e"/>
    <path d="M641.617 266.922l2.03 2.03-2.03-2.03z" fill="#49497d"/>
    <path d="M643.648 266.922l2.03 2.03-2.03-2.03z" fill="#0e0e6e"/>
    <path d="M684.262 266.922l2.03 2.03-2.03-2.03z" fill="#3a3a7c"/>
    <path d="M686.282 266.922l2.03 2.03-2.03-2.03z" fill="#667"/>
    <path d="M688.312 266.922l2.03 2.03-2.03-2.03z" fill="#99994e"/>
    <path d="M690.342 266.922l2.03 2.03-2.03-2.03m-121.812 2.03l2.03 2.03-2.03-2.03z" fill="#a4a43d"/>
    <path d="M470.66 267.962l2.03 2.03-2.03-2.03z" fill="#99994e"/>
    <path d="M472.69 267.962l2.03 2.03-2.03-2.03z" fill="#6e6c70"/>
    <path d="M474.62 267.962l2.03 2.03-2.03-2.03z" fill="#49497d"/>
    <path d="M476.66 267.962l2.03 2.03-2.03-2.03m26.394 0l2.03 2.03-2.03-2.03z" fill="#1b1b74"/>
    <path d="M606.074 267.962l2.03 2.03-2.03-2.03z" fill="#63627c"/>
    <path d="M607.104 267.962l2.03 2.03-2.03-2.03z" fill="#8d8d6b"/>
    <path d="M609.134 267.962l2.03 2.03-2.03-2.03z" fill="#a4a43d"/>
    <path d="M619.286 267.962l2.03 2.03-2.03-2.03z" fill="#e6e69d"/>
    <path d="M621.316 267.962l2.03 2.03-2.03-2.03z" fill="#fbfaf2"/>
    <path d="M631.466 267.962l2.03 2.03-2.03-2.03z" fill="#f2f1d2"/>
    <path d="M633.497 267.962l2.03 2.03-2.03-2.03z" fill="#d9d868"/>
    <path d="M643.648 267.962l2.03 2.03-2.03-2.03z" fill="#a4a43d"/>
    <path d="M646.678 267.962l2.03 2.03-2.03-2.03z" fill="#6e6c70"/>
    <path d="M647.708 267.962l2.03 2.03-2.03-2.03z" fill="#3a3a7c"/>
    <path d="M674.1 267.962l2.03 2.03-2.03-2.03z" fill="#0e0e6e"/>
    <path d="M676.13 267.962l2.03 2.03-2.03-2.03z" fill="#32327b"/>
    <path d="M678.16 267.962l2.03 2.03-2.03-2.03z" fill="#68687b"/>
    <path d="M680.19 267.962l2.03 2.03-2.03-2.03z" fill="#808067"/>
    <path d="M683.682 268.622l1.362.677-1.362-.678z" fill="#a4a43d"/>
    <path d="M460.41 269.982l2.03 2.03-2.03-2.03z" fill="#dddc7a"/>
    <path d="M462.44 269.982l2.03 2.03-2.03-2.03z" fill="#d0d046"/>
    <path d="M478.01 260.662l1.363.677-1.362-.678z" fill="#a4a43d"/>
    <path d="M480.71 269.982l2.032 2.03-2.03-2.03z" fill="#808067"/>
    <path d="M482.742 269.982l2.03 2.03-2.03-2.03z" fill="#667"/>
    <path d="M484.772 269.982l2.03 2.03-2.03-2.03z" fill="#68687b"/>
    <path d="M486.802 269.982l2.03 2.03-2.03-2.03z" fill="#49497d"/>
    <path d="M498.983 269.982l2.03 2.03-2.03-2.03z" fill="#737370"/>
    <path d="M601.013 269.982l2.03 2.03-2.03-2.03z" fill="#99994e"/>
    <path d="M603.044 269.982l2.03 2.03-2.03-2.03z" fill="#a4a43d"/>
    <path d="M616.226 269.982l2.03 2.03-2.03-2.03z" fill="#e6e69d"/>
    <path d="M617.266 269.982l2.03 2.03-2.03-2.03z" fill="#fbfaf2"/>
    <path d="M636.627 269.982l2.03 2.03-2.03-2.03z" fill="#f2f1d2"/>
    <path d="M637.667 269.982l2.03 2.03-2.03-2.03z" fill="#d9d868"/>
    <path d="M649.068 260.662l1.362.677-1.362-.678z" fill="#a4a43d"/>
    <path d="M661.768 269.982l2.03 2.03-2.03-2.03z" fill="#808067"/>
    <path d="M663.8 269.982l2.03 2.03-2.03-2.03z" fill="#667"/>
    <path d="M666.83 269.982l2.03 2.03-2.03-2.03z" fill="#68687b"/>
    <path d="M667.86 269.982l2.03 2.03-2.03-2.03z" fill="#3a3a7c"/>
    <path d="M667.34 260.662l1.362.677-1.362-.678z" fill="#68687b"/>
    <path d="M670.04 269.982l2.03 2.03-2.03-2.03z" fill="#737370"/>
    <path d="M672.07 269.982l2.03 2.03-2.03-2.03z" fill="#99994e"/>
    <path d="M674.1 269.982l2.03 2.03-2.03-2.03z" fill="#a4a43d"/>
    <path d="M690.342 269.982l2.03 2.03-2.03-2.03z" fill="#dddc7a"/>
    <path d="M692.372 269.982l2.03 2.03-2.03-2.03z" fill="#d0d046"/>
    <path d="M464.47 262.013l2.03 2.03-2.03-2.03z" fill="#f2f1d7"/>
    <path d="M466.6 262.013l2.03 2.03-2.03-2.03z" fill="#e0dea1"/>
    <path d="M468.63 262.013l2.03 2.03-2.03-2.03z" fill="#dddc7a"/>
    <path d="M609.134 262.013l2.03 2.03-2.03-2.03z" fill="#d9d868"/>
    <path d="M611.164 262.013l2.03 2.03-2.03-2.03z" fill="#e6e3af"/>
    <path d="M639.687 262.013l2.03 2.03-2.03-2.03z" fill="#f6f6e4"/>
    <path d="M641.617 262.013l2.03 2.03-2.03-2.03z" fill="#e1e18c"/>
    <path d="M682.22 262.013l2.032 2.03-2.03-2.03z" fill="#d4d466"/>
    <path d="M684.262 262.013l2.03 2.03-2.03-2.03z" fill="#e1e18c"/>
    <path d="M686.282 262.013l2.03 2.03-2.03-2.03z" fill="#eeedc1"/>
    <path d="M472.69 264.043l2.03 2.03-2.03-2.03z" fill="#f2f1d2"/>
    <path d="M474.62 264.043l2.03 2.03-2.03-2.03z" fill="#e0dea1"/>
    <path d="M476.66 264.043l2.03 2.03-2.03-2.03z" fill="#dddc7a"/>
    <path d="M478.68 264.043l2.03 2.03-2.03-2.03z" fill="#d0d046"/>
    <path d="M603.044 264.043l2.03 2.03-2.03-2.03z" fill="#dddc7a"/>
    <path d="M606.074 264.043l2.03 2.03-2.03-2.03z" fill="#e6e3af"/>
    <path d="M607.104 264.043l2.03 2.03-2.03-2.03z" fill="#f6f6e4"/>
    <path d="M646.678 264.043l2.03 2.03-2.03-2.03z" fill="#eeedc1"/>
    <path d="M647.708 264.043l2.03 2.03-2.03-2.03z" fill="#e1e18c"/>
    <path d="M649.738 264.043l2.03 2.03-2.03-2.03z" fill="#d4d466"/>
    <path d="M674.1 264.043l2.03 2.03-2.03-2.03z" fill="#d9d868"/>
    <path d="M676.13 264.043l2.03 2.03-2.03-2.03z" fill="#e1e18c"/>
    <path d="M678.16 264.043l2.03 2.03-2.03-2.03z" fill="#eeedc1"/>
    <path d="M680.19 264.043l2.03 2.03-2.03-2.03z" fill="#f6f6e4"/>
    <path d="M482.742 266.073l2.03 2.03-2.03-2.03z" fill="#f2f1d7"/>
    <path d="M484.772 266.073l2.03 2.03-2.03-2.03z" fill="#f2f1d2"/>
    <path d="M486.802 266.073l2.03 2.03-2.03-2.03z" fill="#eeedc1"/>
    <path d="M496.283 266.743l1.362.677-1.362-.677z" fill="#f2f1d2"/>
    <path d="M498.983 266.073l2.03 2.03-2.03-2.03z" fill="#fbfaf2"/>
    <path d="M609.134 266.073l4.06 4.06v-4.06h-4.06z" fill="#fef8f1"/>
    <path d="M663.8 266.073l2.03 2.03-2.03-2.03z" fill="#f2f1d7"/>
    <path d="M666.83 266.073l2.03 2.03-2.03-2.03z" fill="#f2f1d2"/>
    <path d="M667.86 266.073l2.03 2.03-2.03-2.03z" fill="#e6e3af"/>
    <path d="M661.26 266.743l1.362.677-1.363-.677z" fill="#e6e69d"/>
    <path d="M663.96 266.073l2.03 2.03-2.03-2.03z" fill="#e0dea1"/>
    <path d="M667.34 266.743l1.362.677-1.362-.677z" fill="#f2f1d2"/>
    <path d="M670.04 266.073l2.03 2.03-2.03-2.03z" fill="#fbfaf2"/>
    <path d="M606.074 268.103l2.03 2.03-2.03-2.03z" fill="#fef8f1"/>
    <path d="M607.104 268.103l2.03 2.03-2.03-2.03z" fill="#fbbe66"/>
    <path d="M606.074 270.133l2.03 2.03-2.03-2.03z" fill="#fbc477"/>
    <path d="M609.134 270.133l2.03 2.03-2.03-2.03z" fill="#fcb144"/>
    <path d="M606.074 272.164l2.03 2.03-2.03-2.03z" fill="#fe9f11"/>
    <path d="M609.134 272.164l2.03 2.03-2.03-2.03z" fill="#fea622"/>
    <path d="M603.044 274.194l2.03 2.03-2.03-2.03m8.12 0l2.03 2.03-2.03-2.03z" fill="#fae3c9"/>
    <path d="M621.316 274.194l2.03 2.03-2.03-2.03z" fill="#fbead6"/>
    <path d="M623.346 274.194l2.03 2.03-2.03-2.03z" fill="#f9d6aa"/>
    <path d="M631.466 274.194l2.03 2.03-2.03-2.03z" fill="#fae3c9"/>
    <path d="M633.497 274.194l2.03 2.03-2.03-2.03z" fill="#fef8f1"/>
    <path d="M603.044 276.224l2.03 2.03-2.03-2.03z" fill="#f9d099"/>
    <path d="M611.164 276.224l2.03 2.03-2.03-2.03z" fill="#fdab33"/>
    <path d="M616.226 276.224l2.03 2.03-2.03-2.03z" fill="#fcf1e4"/>
    <path d="M617.266 276.224l2.03 2.03-2.03-2.03z" fill="#fbc477"/>
    <path d="M619.286 276.224l2.03 2.03-2.03-2.03z" fill="#fea622"/>
    <path d="M636.627 276.224l2.03 2.03-2.03-2.03z" fill="#fcb766"/>
    <path d="M637.667 276.224l2.03 2.03-2.03-2.03z" fill="#f9d6aa"/>
    <path d="M603.044 278.264l2.03 2.03-2.03-2.03z" fill="#faca88"/>
    <path d="M613.196 278.264l2.03 2.03-2.03-2.03m26.392 0l2.03 2.03-2.03-2.03z" fill="#fea622"/>
    <path d="M641.617 278.264l2.03 2.03-2.03-2.03z" fill="#f8dcbb"/>
    <path d="M460.41 280.284l2.03 2.03-2.03-2.03z" fill="#f6f6e4"/>
    <path d="M603.044 280.284l2.03 2.03-2.03-2.03z" fill="#fbc477"/>
    <path d="M643.648 280.284l2.03 2.03-2.03-2.03z" fill="#fbbe66"/>
    <path d="M646.678 280.284l2.03 2.03-2.03-2.03z" fill="#f8dcbb"/>
    <path d="M603.044 282.316l2.03 2.03-2.03-2.03z" fill="#faca88"/>
    <path d="M649.738 282.316l2.03 2.03-2.03-2.03z" fill="#fcb766"/>
    <path d="M661.768 282.316l2.03 2.03-2.03-2.03z" fill="#f8dcbb"/>
    <path d="M601.013 284.346l2.03 2.03-2.03-2.03z" fill="#fef8f1"/>
    <path d="M603.044 284.346l2.03 2.03-2.03-2.03z" fill="#fe9f11"/>
    <path d="M669.89 284.346l2.03 2.03-2.03-2.03z" fill="#fdab33"/>
    <path d="M661.92 284.346l2.03 2.03-2.03-2.03z" fill="#fcb144"/>
    <path d="M663.96 284.346l2.03 2.03-2.03-2.03z" fill="#fbc477"/>
    <path d="M666.98 284.346l4.06 4.06-4.06-4.06z" fill="#f9d6aa"/>
    <path d="M668.01 284.346l2.03 2.03-2.03-2.03z" fill="#fef8f1"/>
    <path d="M601.013 286.376l2.03 2.03-2.03-2.03z" fill="#fcb144"/>
    <path d="M629.436 286.376l2.03 2.03-2.03-2.03z" fill="#fdab33"/>
    <path d="M631.466 286.376l2.03 2.03-2.03-2.03zm8.121 0l2.03 2.03-2.03-2.03z" fill="#fbc477"/>
    <path d="M641.617 286.376l2.03 2.03-2.03-2.03z" fill="#fea622"/>
    <path d="M498.983 288.406l2.03 2.03-2.03-2.03z" fill="#fae3c9"/>
    <path d="M626.376 288.406l2.03 2.03-2.03-2.03z" fill="#fcb144"/>
    <path d="M627.406 288.406l2.03 2.03-2.03-2.03z" fill="#fae3c9"/>
    <path d="M643.648 288.406l2.03 2.03-2.03-2.03z" fill="#f8dcbb"/>
    <path d="M646.678 288.406l2.03 2.03-2.03-2.03z" fill="#fdab33"/>
    <path d="M667.86 288.406l2.03 2.03-2.03-2.03z" fill="#fe9f11"/>
    <path d="M669.89 288.406l2.03 2.03-2.03-2.03z" fill="#fcb766"/>
    <path d="M661.92 288.406l2.03 2.03-2.03-2.03z" fill="#f9d099"/>
    <path d="M663.96 288.406l2.03 2.03-2.03-2.03z" fill="#fbead6"/>
    <path d="M498.983 290.436l2.03 2.03-2.03-2.03z" fill="#fcb144"/>
    <path d="M623.346 290.436l2.03 2.03-2.03-2.03z" fill="#fbbe66"/>
    <path d="M647.708 290.436l2.03 2.03-2.03-2.03z" fill="#f9d099"/>
    <path d="M666.83 290.436l2.03 2.03-2.03-2.03z" fill="#fbead6"/>
    <path d="M496.963 292.466l2.03 2.03-2.03-2.03z" fill="#fcf1e4"/>
    <path d="M621.316 292.466l2.03 2.03-2.03-2.03z" fill="#fbbe66"/>
    <path d="M649.738 292.466l2.03 2.03-2.03-2.03z" fill="#f9d099"/>
    <path d="M666.83 292.466l2.03 2.03-2.03-2.03z" fill="#fae3c9"/>
    <path d="M496.963 294.496l2.03 2.03-2.03-2.03z" fill="#fbc477"/>
    <path d="M619.286 294.496l2.03 2.03-2.03-2.03m32.483 0l2.03 2.03-2.03-2.03z" fill="#fcb144"/>
    <path d="M666.83 294.496l2.03 2.03-2.03-2.03z" fill="#fbbe66"/>
    <path d="M460.41 296.626l2.03 2.03-2.03-2.03z" fill="#f6f6e4"/>
    <path d="M496.963 296.626l2.03 2.03-2.03-2.03z" fill="#fea622"/>
    <path d="M619.286 296.626l2.03 2.03-2.03-2.03z" fill="#fbead6"/>
    <path d="M661.768 296.626l2.03 2.03-2.03-2.03z" fill="#fcf1e4"/>
    <path d="M667.86 296.626l2.03 2.03-2.03-2.03z" fill="#fef8f1"/>
    <path d="M494.923 298.666l2.03 2.03-2.03-2.03z" fill="#fcf1e4"/>
    <path d="M617.266 298.666l2.03 2.03-2.03-2.03z" fill="#fbbe66"/>
    <path d="M663.8 298.666l2.03 2.03-2.03-2.03z" fill="#faca88"/>
    <path d="M667.86 298.666l2.03 2.03-2.03-2.03z" fill="#f9d099"/>
    <path d="M494.923 300.686l2.03 2.03-2.03-2.03z" fill="#f9d6aa"/>
    <path d="M617.266 300.686l2.03 2.03-2.03-2.03z" fill="#fcf1e4"/>
    <path d="M627.406 300.686l2.03 2.03-2.03-2.03z" fill="#fae3c9"/>
    <path d="M629.436 300.686l2.03 2.03-2.03-2.03z" fill="#fea622"/>
    <path d="M631.466 300.686l2.03 2.03-2.03-2.03z" fill="#fcb144"/>
    <path d="M633.497 300.686l2.03 2.03-2.03-2.03z" fill="#f9d6aa"/>
    <path d="M663.8 300.686l2.03 2.03-2.03-2.03z" fill="#fef8f1"/>
    <path d="M666.83 300.686l2.03 2.03-2.03-2.03z" fill="#fea622"/>
    <path d="M667.86 300.686l2.03 2.03-2.03-2.03z" fill="#fdab33"/>
    <path d="M494.923 302.617l-2.03 6.09 2.03-6.09z" fill="#faca88"/>
    <path d="M616.226 302.617l2.03 2.03-2.03-2.03z" fill="#fea622"/>
    <path d="M617.266 302.617l2.03 2.03-2.03-2.03z" fill="#fef8f1"/>
    <path d="M627.406 302.617l2.03 2.03-2.03-2.03z" fill="#f9d099"/>
    <path d="M636.627 302.617l2.03 2.03-2.03-2.03z" fill="#fdab33"/>
    <path d="M637.667 302.617l2.03 2.03-2.03-2.03z" fill="#fae3c9"/>
    <path d="M666.83 302.617l2.03 2.03-2.03-2.03z" fill="#f8dcbb"/>
    <path d="M667.86 302.617l2.03 2.03-2.03-2.03z" fill="#f90"/>
    <path d="M660.66 303.977l.677 1.363-.678-1.363z" fill="#fbead6"/>
    <path d="M619.286 304.647l2.03 2.03-2.03-2.03z" fill="#fea622"/>
    <path d="M621.316 304.647l2.03 2.03-2.03-2.03z" fill="#fbbe66"/>
    <path d="M623.346 304.647l2.03 2.03-2.03-2.03z" fill="#faca88"/>
    <path d="M626.376 304.647l2.03 2.03-2.03-2.03z" fill="#fcb144"/>
    <path d="M627.406 304.647l2.03 2.03-2.03-2.03z" fill="#fae3c9"/>
    <path d="M629.436 304.647l2.03 2.03-2.03-2.03z" fill="#fe9f11"/>
    <path d="M639.687 304.647l2.03 2.03-2.03-2.03z" fill="#fdab33"/>
    <path d="M641.617 304.647l2.03 2.03-2.03-2.03z" fill="#fbc477"/>
    <path d="M643.648 304.647l2.03 2.03-2.03-2.03z" fill="#faca88"/>
    <path d="M646.678 304.647l2.03 2.03-2.03-2.03z" fill="#f9d6aa"/>
    <path d="M649.068 306.317l1.362.677-1.362-.677z" fill="#fae3c9"/>
    <path d="M661.768 304.647l2.03 2.03-2.03-2.03z" fill="#fef8f1"/>
    <path d="M667.86 304.647l2.03 2.03-2.03-2.03z" fill="#fbc477"/>
    <path d="M470.66 306.677l2.03 2.03-2.03-2.03z" fill="#fef8f1"/>
    <path d="M472.69 306.677l2.03 2.03-2.03-2.03z" fill="#fcf1e4"/>
    <path d="M626.376 306.677l2.03 2.03-2.03-2.03z" fill="#fcb766"/>
    <path d="M629.436 306.677l2.03 2.03-2.03-2.03z" fill="#fbead6"/>
    <path d="M631.466 306.677l2.03 2.03-2.03-2.03z" fill="#fea622"/>
    <path d="M647.708 306.677l2.03 2.03-2.03-2.03z" fill="#fe9f11"/>
    <path d="M649.738 306.677l-2.03 4.06 2.03-4.06z" fill="#fcb144"/>
    <path d="M663.8 306.677l2.03 2.03-2.03-2.03z" fill="#fe9f11"/>
    <path d="M666.83 306.677l2.03 2.03-2.03-2.03z" fill="#fbbe66"/>
    <path d="M667.86 306.677l2.03 2.03-2.03-2.03z" fill="#fcf1e4"/>
    <path d="M470.66 308.707l2.03 2.03-2.03-2.03z" fill="#fae3c9"/>
    <path d="M472.69 308.707l4.06 4.06-4.06-4.06z" fill="#fe9f11"/>
    <path d="M474.62 308.707l2.03 2.03-2.03-2.03zm18.273 0l2.03 2.03-2.03-2.03z" fill="#fbead6"/>
    <path d="M494.923 308.707l2.03 2.03-2.03-2.03z" fill="#fae3c9"/>
    <path d="M613.196 308.707l2.03 2.03-2.03-2.03z" fill="#fe9f11"/>
    <path d="M616.226 308.707l2.03 2.03-2.03-2.03z" fill="#fbc477"/>
    <path d="M617.266 308.707l2.03 2.03-2.03-2.03z" fill="#fea622"/>
    <path d="M623.346 308.707l2.03 2.03-2.03-2.03z" fill="#fbc477"/>
    <path d="M626.376 308.707l2.03 2.03-2.03-2.03z" fill="#fef8f1"/>
    <path d="M633.497 308.707l2.03 2.03-2.03-2.03z" fill="#fbc477"/>
    <path d="M649.738 308.707l2.03 2.03-2.03-2.03z" fill="#fff"/>
    <path d="M661.768 308.707l2.03 2.03-2.03-2.03z" fill="#fdab33"/>
    <path d="M669.89 308.707l2.03 2.03-2.03-2.03z" fill="#fbc477"/>
    <path d="M470.66 310.737l2.03 2.03-2.03-2.03z" fill="#fef8f1"/>
    <path d="M476.66 310.737l2.03 2.03-2.03-2.03z" fill="#fbead6"/>
    <path d="M486.802 310.737l2.03 2.03-2.03-2.03z" fill="#f9d6aa"/>
    <path d="M496.963 310.737l2.03 2.03-2.03-2.03z" fill="#fe9f11"/>
    <path d="M600.343 311.407l1.363.677-1.363-.677z" fill="#f9d6aa"/>
    <path d="M613.196 310.737l2.03 2.03-2.03-2.03z" fill="#f8dcbb"/>
    <path d="M619.286 310.737l2.03 2.03-2.03-2.03z" fill="#fcf1e4"/>
    <path d="M636.627 310.737l2.03 2.03-2.03-2.03z" fill="#f9d6aa"/>
    <path d="M649.738 310.737l2.03 2.03-2.03-2.03z" fill="#fdab33"/>
    <path d="M661.92 310.737l2.03 2.03-2.03-2.03z" fill="#fcb766"/>
    <path d="M663.96 310.737l2.03 2.03-2.03-2.03z" fill="#fef8f1"/>
    <path d="M464.32 312.768l2.03 2.03-2.03-2.03z" fill="#63627c"/>
    <path d="M472.69 312.768l2.03 2.03-2.03-2.03z" fill="#fcb766"/>
    <path d="M476.66 312.768l2.03 2.03-2.03-2.03z" fill="#fea622"/>
    <path d="M484.772 312.768l2.03 2.03-2.03-2.03z" fill="#fbead6"/>
    <path d="M488.832 312.768l2.03 2.03-2.03-2.03z" fill="#fe9f11"/>
    <path d="M490.862 312.768l2.03 2.03-2.03-2.03z" fill="#fcf1e4"/>
    <path d="M496.963 312.768l2.03 2.03-2.03-2.03z" fill="#fbbe66"/>
    <path d="M498.983 312.768l2.03 2.03-2.03-2.03z" fill="#fbc477"/>
    <path d="M601.013 312.768l2.03 2.03-2.03-2.03z" fill="#fbbe66"/>
    <path d="M611.164 312.768l2.03 2.03-2.03-2.03z" fill="#fea622"/>
    <path d="M637.667 312.768l2.03 2.03-2.03-2.03z" fill="#f9d6aa"/>
    <path d="M663.96 312.768l2.03 2.03-2.03-2.03z" fill="#fcb144"/>
    <path d="M696.433 312.768l2.03 2.03-2.03-2.03z" fill="#8d8d6b"/>
    <path d="M460.41 314.798l2.03 2.03-2.03-2.03z" fill="#e6e3af"/>
    <path d="M472.69 314.798l2.03 2.03-2.03-2.03z" fill="#f8dcbb"/>
    <path d="M478.68 314.798l2.03 2.03-2.03-2.03z" fill="#fdab33"/>
    <path d="M484.772 314.798l2.03 2.03-2.03-2.03z" fill="#fe9f11"/>
    <path d="M488.832 314.798l2.03 2.03-2.03-2.03z" fill="#faca88"/>
    <path d="M496.963 314.798l2.03 2.03-2.03-2.03z" fill="#fcf1e4"/>
    <path d="M611.164 314.798l2.03 2.03-2.03-2.03m28.423 0l2.03 2.03-2.03-2.03z" fill="#f9d099"/>
    <path d="M666.98 314.798l2.03 2.03-2.03-2.03z" fill="#fbbe66"/>
    <path d="M474.62 316.828l2.03 2.03-2.03-2.03z" fill="#fea622"/>
    <path d="M480.71 316.828l2.032 2.03-2.03-2.03z" fill="#fdab33"/>
    <path d="M482.742 316.828l2.03 2.03-2.03-2.03z" fill="#fea622"/>
    <path d="M486.802 316.828l2.03 2.03-2.03-2.03z" fill="#fe9f11"/>
    <path d="M488.832 316.828l2.03 2.03-2.03-2.03z" fill="#fef8f1"/>
    <path d="M498.983 316.828l2.03 2.03-2.03-2.03z" fill="#fbbe66"/>
    <path d="M611.164 316.828l2.03 2.03-2.03-2.03z" fill="#fef8f1"/>
    <path d="M641.617 316.828l2.03 2.03-2.03-2.03z" fill="#fbbe66"/>
    <path d="M668.01 316.828l2.03 2.03-2.03-2.03z" fill="#f9d099"/>
    <path d="M474.62 318.868l2.03 2.03-2.03-2.03z" fill="#f9d6aa"/>
    <path d="M486.802 318.868l2.03 2.03-2.03-2.03z" fill="#f9d099"/>
    <path d="M498.983 318.868l2.03 2.03-2.03-2.03z" fill="#fcf1e4"/>
    <path d="M609.134 318.868l2.03 2.03-2.03-2.03m34.614 0l2.03 2.03-2.03-2.03z" fill="#fdab33"/>
    <path d="M670.04 318.868l2.03 2.03-2.03-2.03z" fill="#fbead6"/>
    <path d="M476.66 320.888l2.03 2.03-2.03-2.03z" fill="#fea622"/>
    <path d="M484.772 320.888l2.03 2.03-2.03-2.03z" fill="#fe9f11"/>
    <path d="M601.013 320.888l2.03 2.03-2.03-2.03z" fill="#fcb144"/>
    <path d="M609.134 320.888l2.03 2.03-2.03-2.03z" fill="#faca88"/>
    <path d="M643.648 320.888l2.03 2.03-2.03-2.03z" fill="#f8dcbb"/>
    <path d="M670.04 320.888l2.03 2.03-2.03-2.03z" fill="#fcb144"/>
    <path d="M460.41 322.92l2.03 2.03-2.03-2.03z" fill="#d3d079"/>
    <path d="M476.66 322.92l2.03 2.03-2.03-2.03zm24.363 0l2.03 2.03-2.03-2.03z" fill="#faca88"/>
    <path d="M609.134 322.92l2.03 2.03-2.03-2.03m34.614 0l2.03 2.03-2.03-2.03z" fill="#fae3c9"/>
    <path d="M672.07 322.92l2.03 2.03-2.03-2.03z" fill="#f8dcbb"/>
    <path d="M690.342 322.92l2.03 2.03-2.03-2.03z" fill="#f2f1d7"/>
    <path d="M697.103 324.28l.678 1.362-.677-1.363z" fill="#68687b"/>
    <path d="M461.08 326.31l.677 1.362-.678-1.363z" fill="#d9d868"/>
    <path d="M476.66 324.96l2.03 2.03-2.03-2.03z" fill="#f8dcbb"/>
    <path d="M641.617 324.96l2.03 2.03-2.03-2.03z" fill="#f9d6aa"/>
    <path d="M643.648 324.96l2.03 2.03-2.03-2.03z" fill="#fe9f11"/>
    <path d="M672.07 324.96l2.03 2.03-2.03-2.03z" fill="#fcb144"/>
    <path d="M691.012 326.31l.678 1.362-.678-1.363z" fill="#f2f1d2"/>
    <path d="M476.66 326.98l2.03 2.03-2.03-2.03z" fill="#fcf1e4"/>
    <path d="M639.687 326.98l2.03 2.03-2.03-2.03z" fill="#fef8f1"/>
    <path d="M641.617 326.98l2.03 2.03-2.03-2.03z" fill="#fe9f11"/>
    <path d="M647.708 326.98l-2.03 4.06 2.03-4.06z" fill="#fdab33"/>
    <path d="M649.738 326.98l2.03 2.03-2.03-2.03z" fill="#fcb766"/>
    <path d="M674.1 326.98l2.03 2.03-2.03-2.03z" fill="#fea622"/>
    <path d="M676.13 326.98l2.03 2.03-2.03-2.03z" fill="#f9d099"/>
    <path d="M696.433 326.98l2.03 2.03-2.03-2.03z" fill="#63627c"/>
    <path d="M467.02 330.37l.677 1.362-.678-1.363z" fill="#808067"/>
    <path d="M478.68 329.01l2.03 2.03-2.03-2.03m6.092 0l2.03 2.03-2.03-2.03z" fill="#fea622"/>
    <path d="M607.104 329.01l2.03 2.03-2.03-2.03z" fill="#fe9f11"/>
    <path d="M639.687 329.01l2.03 2.03-2.03-2.03z" fill="#fae3c9"/>
    <path d="M647.708 329.01l2.03 2.03-2.03-2.03z" fill="#fef8f1"/>
    <path d="M661.768 329.01l2.03 2.03-2.03-2.03z" fill="#fcb144"/>
    <path d="M678.16 329.01l2.03 2.03-2.03-2.03z" fill="#fcb766"/>
    <path d="M680.19 329.01l4.062 4.06-4.06-4.06z" fill="#fef8f1"/>
    <path d="M691.012 330.37l.678 1.362-.678-1.363z" fill="#e6e69d"/>
    <path d="M697.103 330.37l.678 1.362-.677-1.363z" fill="#32327b"/>
    <path d="M479.36 332.4l.68 1.362-.68-1.362z" fill="#fcb766"/>
    <path d="M486.802 331.04l2.03 2.03-2.03-2.03z" fill="#fef8f1"/>
    <path d="M607.104 331.04l2.03 2.03-2.03-2.03z" fill="#fbbe66"/>
    <path d="M639.687 331.04l2.03 2.03-2.03-2.03z" fill="#fbead6"/>
    <path d="M643.648 331.04l2.03 2.03-2.03-2.03z" fill="#fe9f11"/>
    <path d="M646.678 331.04l2.03 2.03-2.03-2.03z" fill="#fcf1e4"/>
    <path d="M661.768 331.04l2.03 2.03-2.03-2.03z" fill="#fbead6"/>
    <path d="M680.19 331.04l2.03 2.03-2.03-2.03z" fill="#fdab33"/>
    <path d="M466.36 333.07l2.03 2.03-2.03-2.03z" fill="#667"/>
    <path d="M462.44 333.07l2.03 2.03-2.03-2.03z" fill="#f6f6e4"/>
    <path d="M486.802 333.07l2.03 2.03-2.03-2.03z" fill="#f9d6aa"/>
    <path d="M603.044 333.07l2.03 2.03-2.03-2.03z" fill="#fdab33"/>
    <path d="M606.074 333.07l2.03 2.03-2.03-2.03z" fill="#fe9f11"/>
    <path d="M607.104 333.07l2.03 2.03-2.03-2.03z" fill="#fcf1e4"/>
    <path d="M641.617 333.07l2.03 2.03-2.03-2.03z" fill="#fea622"/>
    <path d="M643.648 333.07l2.03 2.03-2.03-2.03m10.16 0l2.03 2.03-2.03-2.03z" fill="#faca88"/>
    <path d="M682.22 333.07l2.032 2.03-2.03-2.03z" fill="#fcb144"/>
    <path d="M690.342 333.07l2.03 2.03-2.03-2.03z" fill="#dddc7a"/>
    <path d="M466.36 336.1l2.03 2.03-2.03-2.03z" fill="#68687b"/>
    <path d="M462.44 336.1l2.03 2.03-2.03-2.03z" fill="#f2f1d2"/>
    <path d="M479.36 336.46l.68 1.362-.68-1.362z" fill="#fcb144"/>
    <path d="M486.802 336.1l2.03 2.03-2.03-2.03z" fill="#fea622"/>
    <path d="M607.104 336.1l2.03 2.03-2.03-2.03z" fill="#fef8f1"/>
    <path d="M609.134 336.1l2.03 2.03-2.03-2.03z" fill="#fea622"/>
    <path d="M613.196 336.1l2.03 2.03-2.03-2.03z" fill="#fcb144"/>
    <path d="M616.226 336.1l2.03 2.03-2.03-2.03z" fill="#fbead6"/>
    <path d="M641.617 336.1l2.03 2.03-2.03-2.03z" fill="#f8dcbb"/>
    <path d="M643.648 336.1l2.03 2.03-2.03-2.03z" fill="#fcf1e4"/>
    <path d="M663.8 336.1l2.03 2.03-2.03-2.03z" fill="#fef8f1"/>
    <path d="M666.83 336.1l2.03 2.03-2.03-2.03z" fill="#fe9f11"/>
    <path d="M684.262 336.1l2.03 2.03-2.03-2.03z" fill="#fbead6"/>
    <path d="M690.342 336.1l2.03 2.03-2.03-2.03z" fill="#d9d868"/>
    <path d="M466.36 337.13l2.03 2.03-2.03-2.03z" fill="#3a3a7c"/>
    <path d="M462.44 337.13l2.03 2.03-2.03-2.03z" fill="#e6e3af"/>
    <path d="M488.832 337.13l2.03 2.03-2.03-2.03z" fill="#faca88"/>
    <path d="M609.134 337.13l2.03 2.03-2.03-2.03z" fill="#fbead6"/>
    <path d="M616.226 337.13l2.03 2.03-2.03-2.03z" fill="#fe9f11"/>
    <path d="M617.266 337.13l2.03 2.03-2.03-2.03z" fill="#fcf1e4"/>
    <path d="M639.687 337.13l2.03 2.03-2.03-2.03z" fill="#fbead6"/>
    <path d="M641.617 337.13l2.03 2.03-2.03-2.03z" fill="#fae3c9"/>
    <path d="M643.648 337.13l2.03 2.03-2.03-2.03z" fill="#fbead6"/>
    <path d="M666.83 337.13l2.03 2.03-2.03-2.03m16.24 0l2.03 2.03-2.03-2.03z" fill="#fbbe66"/>
    <path d="M674.1 337.13l2.03 2.03-2.03-2.03z" fill="#fcf1e4"/>
    <path d="M676.13 337.13l2.03 2.03-2.03-2.03z" fill="#fef8f1"/>
    <path d="M678.16 337.13l2.03 2.03-2.03-2.03z" fill="#f8dcbb"/>
    <path d="M680.19 337.13l2.03 2.03-2.03-2.03z" fill="#fcb766"/>
    <path d="M684.262 337.13l2.03 2.03-2.03-2.03z" fill="#fae3c9"/>
    <path d="M694.403 337.13l2.03 2.03-2.03-2.03z" fill="#808067"/>
    <path d="M466.36 339.16l2.03 2.03-2.03-2.03z" fill="#32327b"/>
    <path d="M469.06 340.62l.677 1.363-.678-1.363z" fill="#a4a43d"/>
    <path d="M462.44 339.16l2.03 2.03-2.03-2.03z" fill="#e6e69d"/>
    <path d="M478.68 339.16l2.03 2.03-2.03-2.03z" fill="#fbc477"/>
    <path d="M490.862 339.16l2.03 2.03-2.03-2.03z" fill="#f9d6aa"/>
    <path d="M611.164 339.16l2.03 2.03-2.03-2.03z" fill="#fbbe66"/>
    <path d="M617.266 339.16l2.03 2.03-2.03-2.03z" fill="#f9d099"/>
    <path d="M636.627 339.16l2.03 2.03-2.03-2.03z" fill="#fae3c9"/>
    <path d="M637.667 339.16l2.03 2.03-2.03-2.03z" fill="#fcb144"/>
    <path d="M646.678 339.16l2.03 2.03-2.03-2.03z" fill="#fae3c9"/>
    <path d="M666.83 339.16l2.03 2.03-2.03-2.03z" fill="#f8dcbb"/>
    <path d="M672.07 339.16l2.03 2.03-2.03-2.03z" fill="#f9d099"/>
    <path d="M682.22 339.16l2.032 2.03-2.03-2.03z" fill="#fbc477"/>
    <path d="M684.262 339.16l2.03 2.03-2.03-2.03z" fill="#fbead6"/>
    <path d="M694.403 339.16l2.03 2.03-2.03-2.03z" fill="#737370"/>
    <path d="M462.44 341.19l2.03 2.03-2.03-2.03z" fill="#d9d868"/>
    <path d="M478.68 341.19l2.03 2.03-2.03-2.03z" fill="#f9d099"/>
    <path d="M492.893 341.19l2.03 2.03-2.03-2.03m18.27 0l2.032 2.03-2.03-2.03z" fill="#f9d6aa"/>
    <path d="M617.266 341.19l2.03 2.03-2.03-2.03z" fill="#fbc477"/>
    <path d="M627.406 341.19l2.03 2.03-2.03-2.03z" fill="#fef8f1"/>
    <path d="M629.436 341.19l2.03 2.03-2.03-2.03z" fill="#f8dcbb"/>
    <path d="M631.466 341.19l2.03 2.03-2.03-2.03z" fill="#fbc477"/>
    <path d="M633.497 341.19l2.03 2.03-2.03-2.03z" fill="#fea622"/>
    <path d="M646.678 341.19l2.03 2.03-2.03-2.03z" fill="#fbead6"/>
    <path d="M688.312 341.19l2.03 2.03-2.03-2.03z" fill="#f2f1d2"/>
    <path d="M694.403 341.19l2.03 2.03-2.03-2.03z" fill="#68687b"/>
    <path d="M468.38 343.22l2.03 2.03-2.03-2.03z" fill="#99994e"/>
    <path d="M462.44 343.22l2.03 2.03-2.03-2.03z" fill="#d0d046"/>
    <path d="M494.923 343.22l2.03 2.03-2.03-2.03z" fill="#fcb144"/>
    <path d="M496.963 343.22l2.03 2.03-2.03-2.03z" fill="#fae3c9"/>
    <path d="M611.164 343.22l2.03 2.03-2.03-2.03z" fill="#fef8f1"/>
    <path d="M619.286 343.22l2.03 2.03-2.03-2.03z" fill="#fcb766"/>
    <path d="M621.316 343.22l2.03 2.03-2.03-2.03z" fill="#fbc477"/>
    <path d="M623.346 343.22l2.03 2.03-2.03-2.03z" fill="#fcb144"/>
    <path d="M626.376 343.22l2.03 2.03-2.03-2.03z" fill="#fea622"/>
    <path d="M641.617 343.22l2.03 2.03-2.03-2.03z" fill="#fe9f11"/>
    <path d="M643.648 343.22l2.03 2.03-2.03-2.03z" fill="#f9d6aa"/>
    <path d="M672.07 343.22l2.03 2.03-2.03-2.03z" fill="#fef8f1"/>
    <path d="M688.312 343.22l2.03 2.03-2.03-2.03z" fill="#e0dea1"/>
    <path d="M694.403 343.22l2.03 2.03-2.03-2.03z" fill="#3a3a7c"/>
    <path d="M468.38 346.26l2.03 2.03-2.03-2.03z" fill="#737370"/>
    <path d="M464.47 346.26l2.03 2.03-2.03-2.03z" fill="#fbfaf2"/>
    <path d="M480.71 346.26l2.032 2.03-2.03-2.03z" fill="#fea622"/>
    <path d="M498.983 346.26l2.03 2.03-2.03-2.03z" fill="#fe9f11"/>
    <path d="M601.013 346.26l2.03 2.03-2.03-2.03z" fill="#fcb144"/>
    <path d="M603.044 346.26l2.03 2.03-2.03-2.03z" fill="#fbc477"/>
    <path d="M606.074 346.26l2.03 2.03-2.03-2.03z" fill="#faca88"/>
    <path d="M607.104 346.26l2.03 2.03-2.03-2.03z" fill="#fbc477"/>
    <path d="M609.134 346.26l2.03 2.03-2.03-2.03z" fill="#fcb144"/>
    <path d="M611.164 346.26l2.03 2.03-2.03-2.03z" fill="#fdab33"/>
    <path d="M639.687 346.26l2.03 2.03-2.03-2.03z" fill="#fbc477"/>
    <path d="M641.617 346.26l2.03 2.03-2.03-2.03z" fill="#fef8f1"/>
    <path d="M670.04 346.26l2.03 2.03-2.03-2.03z" fill="#fdab33"/>
    <path d="M688.312 346.26l2.03 2.03-2.03-2.03z" fill="#e1e18c"/>
    <path d="M693.042 346.61l.678 1.363-.678-1.362z" fill="#a4a43d"/>
    <path d="M694.403 346.26l2.03 2.03-2.03-2.03z" fill="#262678"/>
    <path d="M468.38 347.28l2.03 2.03-2.03-2.03z" fill="#68687b"/>
    <path d="M464.47 347.28l2.03 2.03-2.03-2.03z" fill="#f2f1d2"/>
    <path d="M480.71 347.28l2.032 2.03-2.03-2.03z" fill="#faca88"/>
    <path d="M636.627 347.28l2.03 2.03-2.03-2.03z" fill="#fe9f11"/>
    <path d="M637.667 347.28l2.03 2.03-2.03-2.03z" fill="#fbead6"/>
    <path d="M666.83 347.28l2.03 2.03-2.03-2.03z" fill="#fbc477"/>
    <path d="M670.04 347.28l2.03 2.03-2.03-2.03z" fill="#faca88"/>
    <path d="M688.312 347.28l2.03 2.03-2.03-2.03z" fill="#d4d466"/>
    <path d="M468.38 349.31l2.03 2.03-2.03-2.03z" fill="#32327b"/>
    <path d="M464.47 349.31l2.03 2.03-2.03-2.03z" fill="#e6e69d"/>
    <path d="M480.71 349.31l2.032 2.03-2.03-2.03z" fill="#fef8f1"/>
    <path d="M482.742 349.31l2.03 2.03-2.03-2.03z" fill="#fe9f11"/>
    <path d="M636.627 349.31l2.03 2.03-2.03-2.03z" fill="#fbead6"/>
    <path d="M666.83 349.31l2.03 2.03-2.03-2.03z" fill="#fea622"/>
    <path d="M670.04 349.31l2.03 2.03-2.03-2.03z" fill="#fcf1e4"/>
    <path d="M692.372 349.31l2.03 2.03-2.03-2.03z" fill="#808067"/>
    <path d="M468.38 361.34l2.03 2.032-2.03-2.03z" fill="#0e0e6e"/>
    <path d="M460.41 361.34l2.03 2.032-2.03-2.03z" fill="#a4a43d"/>
    <path d="M464.47 361.34l2.03 2.032-2.03-2.03z" fill="#d9d868"/>
    <path d="M482.742 361.34l2.03 2.032-2.03-2.03z" fill="#f8dcbb"/>
    <path d="M663.8 361.34l2.03 2.032-2.03-2.03z" fill="#f9d6aa"/>
    <path d="M668.01 361.34l2.03 2.032-2.03-2.03z" fill="#faca88"/>
    <path d="M686.282 361.34l2.03 2.032-2.03-2.03z" fill="#f2f1d2"/>
    <path d="M692.372 361.34l2.03 2.032-2.03-2.03z" fill="#68687b"/>
    <path d="M460.41 363.372l2.03 2.03-2.03-2.03z" fill="#8d8d6b"/>
    <path d="M484.772 363.372l2.03 2.03-2.03-2.03z" fill="#f9d6aa"/>
    <path d="M626.376 363.372l2.03 2.03-2.03-2.03z" fill="#fdab33"/>
    <path d="M627.406 363.372l2.03 2.03-2.03-2.03z" fill="#fff"/>
    <path d="M630.796 364.042l1.363.678-1.364-.678z" fill="#fcb144"/>
    <path d="M661.768 363.372l-2.03 4.06 2.03-4.06z" fill="#fef8f1"/>
    <path d="M663.8 363.372l2.03 2.03-2.03-2.03z" fill="#fe9f11"/>
    <path d="M666.98 363.372l-2.03 4.06 2.03-4.06z" fill="#fdab33"/>
    <path d="M686.282 363.372l2.03 2.03-2.03-2.03z" fill="#e6e69d"/>
    <path d="M692.372 363.372l2.03 2.03-2.03-2.03z" fill="#3a3a7c"/>
    <path d="M460.41 366.402l2.03 2.03-2.03-2.03z" fill="#667"/>
    <path d="M466.6 366.402l2.03 2.03-2.03-2.03z" fill="#f2f1d2"/>
    <path d="M486.802 366.402l2.03 2.03-2.03-2.03z" fill="#f9d6aa"/>
    <path d="M626.376 366.402l2.03 2.03-2.03-2.03z" fill="#fe9f11"/>
    <path d="M627.406 366.402l2.03 2.03-2.03-2.03z" fill="#faca88"/>
    <path d="M629.436 366.402l2.03 2.03-2.03-2.03z" fill="#fea622"/>
    <path d="M631.466 366.402l2.03 2.03-2.03-2.03z" fill="#fcf1e4"/>
    <path d="M661.768 366.402l2.03 2.03-2.03-2.03z" fill="#fdab33"/>
    <path d="M666.98 366.402l2.03 2.03-2.03-2.03z" fill="#fef8f1"/>
    <path d="M686.282 366.402l2.03 2.03-2.03-2.03z" fill="#d9d868"/>
    <path d="M690.342 366.402l2.03 2.03-2.03-2.03z" fill="#a4a43d"/>
    <path d="M692.372 366.402l2.03 2.03-2.03-2.03z" fill="#0e0e6e"/>
    <path d="M460.41 367.432l2.03 2.03-2.03-2.03z" fill="#3a3a7c"/>
    <path d="M466.6 367.432l2.03 2.03-2.03-2.03z" fill="#e6e69d"/>
    <path d="M488.832 367.432l4.06 4.06-4.06-4.06z" fill="#fae3c9"/>
    <path d="M490.862 367.432l2.03 2.03-2.03-2.03z" fill="#fe9f11"/>
    <path d="M629.436 367.432l2.03 2.03-2.03-2.03z" fill="#f8dcbb"/>
    <path d="M647.708 367.432l2.03 2.03-2.03-2.03z" fill="#fcf1e4"/>
    <path d="M649.738 367.432l2.03 2.03-2.03-2.03z" fill="#fdab33"/>
    <path d="M661.92 367.432l2.03 2.03-2.03-2.03z" fill="#fcb144"/>
    <path d="M663.96 367.432l2.03 2.03-2.03-2.03z" fill="#fef8f1"/>
    <path d="M684.262 367.432l2.03 2.03-2.03-2.03z" fill="#fbfaf2"/>
    <path d="M690.342 367.432l2.03 2.03-2.03-2.03z" fill="#8d8d6b"/>
    <path d="M460.41 369.462l2.03 2.03-2.03-2.03z" fill="#0e0e6e"/>
    <path d="M462.44 369.462l2.03 2.03-2.03-2.03z" fill="#a4a43d"/>
    <path d="M466.6 369.462l2.03 2.03-2.03-2.03z" fill="#d4d466"/>
    <path d="M627.406 369.462l2.03 2.03-2.03-2.03z" fill="#f9d6aa"/>
    <path d="M646.678 369.462l2.03 2.03-2.03-2.03z" fill="#f9d099"/>
    <path d="M647.708 369.462l2.03 2.03-2.03-2.03z" fill="#fe9f11"/>
    <path d="M669.89 369.462l2.03 2.03-2.03-2.03z" fill="#faca88"/>
    <path d="M684.262 369.462l2.03 2.03-2.03-2.03z" fill="#eeedc1"/>
    <path d="M690.342 369.462l2.03 2.03-2.03-2.03z" fill="#68687b"/>
    <path d="M462.44 361.492l2.03 2.03-2.03-2.03z" fill="#737370"/>
    <path d="M468.63 361.492l2.03 2.03-2.03-2.03z" fill="#f6f6e4"/>
    <path d="M490.862 361.492l2.03 2.03-2.03-2.03z" fill="#fbbe66"/>
    <path d="M623.346 361.492l2.03 2.03-2.03-2.03z" fill="#fcb144"/>
    <path d="M626.046 362.863l.678 1.362-.678-1.362z" fill="#f8dcbb"/>
    <path d="M641.617 361.492l2.03 2.03-2.03-2.03z" fill="#fbbe66"/>
    <path d="M643.648 361.492l2.03 2.03-2.03-2.03z" fill="#fe9f11"/>
    <path d="M666.83 361.492l2.03 2.03-2.03-2.03z" fill="#fbc477"/>
    <path d="M667.86 361.492l2.03 2.03-2.03-2.03z" fill="#fcf1e4"/>
    <path d="M684.262 361.492l2.03 2.03-2.03-2.03z" fill="#d3d079"/>
    <path d="M688.312 361.492l2.03 2.03-2.03-2.03z" fill="#a4a43d"/>
    <path d="M690.342 361.492l2.03 2.03-2.03-2.03z" fill="#262678"/>
    <path d="M462.44 363.623l2.03 2.03-2.03-2.03z" fill="#49497d"/>
    <path d="M468.63 363.623l2.03 2.03-2.03-2.03z" fill="#e0dea1"/>
    <path d="M488.832 363.623l2.03 2.03-2.03-2.03z" fill="#fae3c9"/>
    <path d="M617.266 363.623l2.03 2.03-2.03-2.03z" fill="#fdab33"/>
    <path d="M619.286 363.623l2.03 2.03-2.03-2.03z" fill="#fbc477"/>
    <path d="M621.316 363.623l2.03 2.03-2.03-2.03z" fill="#fbead6"/>
    <path d="M627.406 363.623l2.03 2.03-2.03-2.03z" fill="#fcb144"/>
    <path d="M663.8 363.623l2.03 2.03-2.03-2.03z" fill="#f9d6aa"/>
    <path d="M688.312 363.623l2.03 2.03-2.03-2.03z" fill="#99994e"/>
    <path d="M462.44 366.663l2.03 2.03-2.03-2.03z" fill="#0e0e6e"/>
    <path d="M464.47 366.663l2.03 2.03-2.03-2.03z" fill="#a4a43d"/>
    <path d="M468.63 366.663l2.03 2.03-2.03-2.03z" fill="#d4d466"/>
    <path d="M486.802 366.663l2.03 2.03-2.03-2.03z" fill="#f9d099"/>
    <path d="M488.832 366.663l2.03 2.03-2.03-2.03m10.16 0l2.03 2.03-2.03-2.03z" fill="#fe9f11"/>
    <path d="M601.013 366.663l2.03 2.03-2.03-2.03z" fill="#f9d6aa"/>
    <path d="M603.044 366.663l2.03 2.03-2.03-2.03z" fill="#f9d099"/>
    <path d="M611.164 366.663l2.03 2.03-2.03-2.03z" fill="#f9d6aa"/>
    <path d="M613.196 366.663l2.03 2.03-2.03-2.03z" fill="#fae3c9"/>
    <path d="M616.226 366.663l2.03 2.03-2.03-2.03z" fill="#fef8f1"/>
    <path d="M631.466 366.663l2.03 2.03-2.03-2.03z" fill="#fbead6"/>
    <path d="M633.497 366.663l2.03 2.03-2.03-2.03z" fill="#fae3c9"/>
    <path d="M636.627 366.663l2.03 2.03-2.03-2.03z" fill="#faca88"/>
    <path d="M637.667 366.663l2.03 2.03-2.03-2.03z" fill="#fbc477"/>
    <path d="M639.687 366.663l2.03 2.03-2.03-2.03z" fill="#fdab33"/>
    <path d="M649.738 366.663l2.03 2.03-2.03-2.03z" fill="#fe9f11"/>
    <path d="M661.768 366.663l2.03 2.03-2.03-2.03z" fill="#f9d6aa"/>
    <path d="M682.22 366.663l2.032 2.03-2.03-2.03z" fill="#e6e3af"/>
    <path d="M688.312 366.663l2.03 2.03-2.03-2.03z" fill="#667"/>
    <path d="M464.47 367.683l2.03 2.03-2.03-2.03z" fill="#737370"/>
    <path d="M470.66 367.683l2.03 2.03-2.03-2.03z" fill="#f2f1d7"/>
    <path d="M484.772 367.683l2.03 2.03-2.03-2.03z" fill="#fea622"/>
    <path d="M494.923 367.683l2.03 2.03-2.03-2.03z" fill="#fe9f11"/>
    <path d="M496.963 367.683l2.03 2.03-2.03-2.03z" fill="#fbbe66"/>
    <path d="M498.983 367.683l2.03 2.03-2.03-2.03z" fill="#fcf1e4"/>
    <path d="M647.708 367.683l2.03 2.03-2.03-2.03z" fill="#fea622"/>
    <path d="M649.738 367.683l2.03 2.03-2.03-2.03z" fill="#fbead6"/>
    <path d="M682.22 367.683l2.032 2.03-2.03-2.03z" fill="#dddc7a"/>
    <path d="M686.282 367.683l2.03 2.03-2.03-2.03z" fill="#a4a43d"/>
    <path d="M688.312 367.683l2.03 2.03-2.03-2.03z" fill="#262678"/>
    <path d="M464.47 369.613l2.03 2.03-2.03-2.03z" fill="#49497d"/>
    <path d="M467.17 370.973l.678 1.363-.678-1.363z" fill="#a4a43d"/>
    <path d="M470.66 369.613l2.03 2.03-2.03-2.03z" fill="#d3d079"/>
    <path d="M486.802 369.613l2.03 2.03-2.03-2.03z" fill="#f9d099"/>
    <path d="M488.832 369.613l2.03 2.03-2.03-2.03z" fill="#fcb144"/>
    <path d="M490.862 369.613l2.03 2.03-2.03-2.03z" fill="#faca88"/>
    <path d="M492.893 369.613l2.03 2.03-2.03-2.03z" fill="#f8dcbb"/>
    <path d="M494.923 369.613l2.03 2.03-2.03-2.03z" fill="#fef8f1"/>
    <path d="M639.687 369.613l2.03 2.03-2.03-2.03z" fill="#f8dcbb"/>
    <path d="M647.708 369.613l2.03 2.03-2.03-2.03z" fill="#fcf1e4"/>
    <path d="M680.19 369.613l2.03 2.03-2.03-2.03z" fill="#f6f6e4"/>
    <path d="M686.282 369.613l2.03 2.03-2.03-2.03z" fill="#8d8d6b"/>
    <path d="M472.69 371.643l2.03 2.03-2.03-2.03z" fill="#fbfaf2"/>
    <path d="M639.687 371.643l2.03 2.03-2.03-2.03z" fill="#fbbe66"/>
    <path d="M646.678 371.643l2.03 2.03-2.03-2.03z" fill="#faca88"/>
    <path d="M680.19 371.643l2.03 2.03-2.03-2.03z" fill="#e1e18c"/>
    <path d="M686.282 371.643l2.03 2.03-2.03-2.03z" fill="#49497d"/>
    <path d="M466.6 373.674l2.03 2.03-2.03-2.03z" fill="#68687b"/>
    <path d="M472.69 373.674l2.03 2.03-2.03-2.03z" fill="#e6e69d"/>
    <path d="M639.687 373.674l2.03 2.03-2.03-2.03z" fill="#fe9f11"/>
    <path d="M643.648 373.674l2.03 2.03-2.03-2.03z" fill="#fdab33"/>
    <path d="M678.16 373.674l2.03 2.03-2.03-2.03z" fill="#fbfaf2"/>
    <path d="M684.262 373.674l2.03 2.03-2.03-2.03z" fill="#a4a43d"/>
    <path d="M686.282 373.674l2.03 2.03-2.03-2.03z" fill="#0e0e6e"/>
    <path d="M466.6 376.704l2.03 2.03-2.03-2.03z" fill="#1b1b74"/>
    <path d="M468.63 376.704l2.03 2.03-2.03-2.03z" fill="#a4a43d"/>
    <path d="M472.69 376.704l2.03 2.03-2.03-2.03z" fill="#d0d046"/>
    <path d="M637.667 376.704l2.03 2.03-2.03-2.03z" fill="#fbead6"/>
    <path d="M641.617 376.704l2.03 2.03-2.03-2.03z" fill="#fe9f11"/>
    <path d="M643.648 376.704l2.03 2.03-2.03-2.03z" fill="#fbead6"/>
    <path d="M678.16 376.704l2.03 2.03-2.03-2.03z" fill="#e6e69d"/>
    <path d="M684.262 376.704l2.03 2.03-2.03-2.03z" fill="#667"/>
    <path d="M468.63 377.734l2.03 2.03-2.03-2.03z" fill="#6e6c70"/>
    <path d="M474.62 377.734l2.03 2.03-2.03-2.03z" fill="#e6e3af"/>
    <path d="M638.227 379.094l.678 1.362-.678-1.362z" fill="#faca88"/>
    <path d="M641.617 377.734l2.03 2.03-2.03-2.03z" fill="#fae3c9"/>
    <path d="M676.13 377.734l2.03 2.03-2.03-2.03z" fill="#fbfaf2"/>
    <path d="M682.22 377.734l2.032 2.03-2.03-2.03z" fill="#a4a43d"/>
    <path d="M684.262 377.734l2.03 2.03-2.03-2.03m-116.722 2.03l2.03 2.03-2.03-2.03z" fill="#1b1b74"/>
    <path d="M470.66 379.764l2.03 2.03-2.03-2.03z" fill="#a4a43d"/>
    <path d="M474.62 379.764l2.03 2.03-2.03-2.03z" fill="#d0d046"/>
    <path d="M476.66 379.764l2.03 2.03-2.03-2.03z" fill="#fbfaf2"/>
    <path d="M639.687 379.764l2.03 2.03-2.03-2.03z" fill="#f9d6aa"/>
    <path d="M676.13 379.764l2.03 2.03-2.03-2.03z" fill="#e6e69d"/>
    <path d="M682.22 379.764l2.032 2.03-2.03-2.03m-111.662 2.03l2.03 2.03-2.03-2.03z" fill="#6e6c70"/>
    <path d="M476.66 381.794l2.03 2.03-2.03-2.03z" fill="#8cbf84"/>
    <path d="M477.624 381.794c7.06 14.84 31.99 49.848 61.04 49.166 18.6-.662 39.393-34.82 47.667-49.166h-98.606z" fill="#0cf"/>
    <path d="M680.19 381.794l2.03 2.03-2.03-2.03z" fill="#a4a43d"/>
    <path d="M682.22 381.794l2.032 2.03-2.03-2.03m-111.662 2.03l2.03 2.03-2.03-2.03z" fill="#1b1b74"/>
    <path d="M472.69 383.826l2.03 2.03-2.03-2.03z" fill="#a4a43d"/>
    <path d="M476.66 383.826l2.03 2.03-2.03-2.03z" fill="#adb333"/>
    <path d="M478.68 383.826l2.03 2.03-2.03-2.03z" fill="#1ac6b6"/>
    <path d="M674.1 383.826l2.03 2.03-2.03-2.03z" fill="#68b070"/>
    <path d="M680.19 383.826l2.03 2.03-2.03-2.03z" fill="#667"/>
    <path d="M472.69 386.866l2.03 2.03-2.03-2.03z" fill="#68687b"/>
    <path d="M478.68 386.866l2.03 2.03-2.03-2.03z" fill="#7fb16c"/>
    <path d="M672.07 386.866l2.03 2.03-2.03-2.03z" fill="#27c2aa"/>
    <path d="M678.16 386.866l-2.03 4.06 2.03-4.06z" fill="#a4a43d"/>
    <path d="M680.19 386.866l2.03 2.03-2.03-2.03m-107.6 2.03l2.03 2.03-2.03-2.03z" fill="#0e0e6e"/>
    <path d="M474.62 387.886l4.06 4.06-4.06-4.06z" fill="#a4a43d"/>
    <path d="M480.71 387.886l2.032 2.03-2.03-2.03z" fill="#34be9e"/>
    <path d="M672.07 387.886l2.03 2.03-2.03-2.03z" fill="#96b247"/>
    <path d="M678.16 387.886l2.03 2.03-2.03-2.03z" fill="#63627c"/>
    <path d="M474.62 389.916l2.03 2.03-2.03-2.03z" fill="#3a3a7c"/>
    <path d="M480.71 389.916l2.032 2.03-2.03-2.03z" fill="#a2b23d"/>
    <path d="M482.742 389.916l2.03 2.03-2.03-2.03z" fill="#0dc9c1"/>
    <path d="M670.04 389.916l2.03 2.03-2.03-2.03z" fill="#6bb47c"/>
    <path d="M676.13 389.916l2.03 2.03-2.03-2.03z" fill="#8d8d6b"/>
    <path d="M476.66 391.946l2.03 2.03-2.03-2.03z" fill="#737370"/>
    <path d="M482.742 391.946l2.03 2.03-2.03-2.03z" fill="#74b166"/>
    <path d="M668.01 391.946l2.03 2.03-2.03-2.03z" fill="#27c2aa"/>
    <path d="M674.1 391.946l-2.03 4.06 2.03-4.06z" fill="#a4a43d"/>
    <path d="M676.13 391.946l2.03 2.03-2.03-2.03z" fill="#262678"/>
    <path d="M476.66 393.976l2.03 2.03-2.03-2.03z" fill="#0e0e6e"/>
    <path d="M478.68 393.976l4.062 4.06-4.06-4.06z" fill="#a4a43d"/>
    <path d="M484.772 393.976l2.03 2.03-2.03-2.03z" fill="#42bb92"/>
    <path d="M666.98 393.976l2.03 2.03-2.03-2.03z" fill="#0dc9c1"/>
    <path d="M668.01 393.976l2.03 2.03-2.03-2.03z" fill="#96b247"/>
    <path d="M674.1 393.976l2.03 2.03-2.03-2.03z" fill="#68687b"/>
    <path d="M478.68 396.006l2.03 2.03-2.03-2.03z" fill="#3a3a7c"/>
    <path d="M484.772 396.006l2.03 2.03-2.03-2.03z" fill="#adb333"/>
    <path d="M486.802 396.006l2.03 2.03-2.03-2.03z" fill="#27c2aa"/>
    <path d="M666.98 396.006l2.03 2.03-2.03-2.03z" fill="#74b166"/>
    <path d="M672.07 396.006l2.03 2.03-2.03-2.03z" fill="#8d8d6b"/>
    <path d="M480.71 398.036l2.032 2.03-2.03-2.03z" fill="#6e6c70"/>
    <path d="M486.802 398.036l2.03 2.03-2.03-2.03z" fill="#96b247"/>
    <path d="M488.832 398.036l2.03 2.03-2.03-2.03z" fill="#0dc9c1"/>
    <path d="M663.96 398.036l2.03 2.03-2.03-2.03z" fill="#42bb92"/>
    <path d="M670.04 398.036l-4.06 6.09 4.06-6.09z" fill="#a4a43d"/>
    <path d="M672.07 398.036l2.03 2.03-2.03-2.03z" fill="#1b1b74"/>
    <path d="M480.71 400.066l2.032 2.03-2.03-2.03z" fill="#0e0e6e"/>
    <path d="M482.742 400.066l2.03 2.03-2.03-2.03z" fill="#8d8d6b"/>
    <path d="M488.832 400.066l2.03 2.03-2.03-2.03z" fill="#7fb16c"/>
    <path d="M661.92 400.066l2.03 2.03-2.03-2.03z" fill="#34be9e"/>
    <path d="M670.04 400.066l2.03 2.03-2.03-2.03z" fill="#3a3a7c"/>
    <path d="M482.742 402.096l2.03 2.03-2.03-2.03z" fill="#1b1b74"/>
    <path d="M484.772 402.096l22.332 22.333-22.332-22.334z" fill="#a4a43d"/>
    <path d="M490.862 402.096l2.03 2.03-2.03-2.03z" fill="#74b166"/>
    <path d="M669.89 402.096l2.03 2.03-2.03-2.03z" fill="#27c2aa"/>
    <path d="M661.92 402.096l2.03 2.03-2.03-2.03z" fill="#adb333"/>
    <path d="M668.01 402.096l2.03 2.03-2.03-2.03z" fill="#667"/>
    <path d="M484.772 404.127l2.03 2.03-2.03-2.03z" fill="#32327b"/>
    <path d="M492.893 404.127l2.03 2.03-2.03-2.03z" fill="#42bb92"/>
    <path d="M667.86 404.127l-8.122 10.16 8.12-10.16z" fill="#0dc9c1"/>
    <path d="M669.89 404.127l2.03 2.03-2.03-2.03z" fill="#adb333"/>
    <path d="M666.98 404.127l2.03 2.03-2.03-2.03z" fill="#737370"/>
    <path d="M486.802 406.167l2.03 2.03-2.03-2.03z" fill="#49497d"/>
    <path d="M494.923 406.167l2.03 2.03-2.03-2.03z" fill="#42bb92"/>
    <path d="M667.86 406.167l2.03 2.03-2.03-2.03z" fill="#96b247"/>
    <path d="M663.96 406.167l-2.03 4.06 2.03-4.06z" fill="#8d8d6b"/>
    <path d="M666.98 406.167l2.03 2.03-2.03-2.03z" fill="#0e0e6e"/>
    <path d="M488.832 408.187l2.03 2.03-2.03-2.03z" fill="#63627c"/>
    <path d="M496.963 408.187l2.03 2.03-2.03-2.03z" fill="#42bb92"/>
    <path d="M666.83 408.187l2.03 2.03-2.03-2.03z" fill="#96b247"/>
    <path d="M663.96 408.187l2.03 2.03-2.03-2.03z" fill="#0e0e6e"/>
    <path d="M490.862 410.217l2.03 2.03-2.03-2.03z" fill="#6e6c70"/>
    <path d="M498.983 410.217l2.03 2.03-2.03-2.03z" fill="#42bb92"/>
    <path d="M663.8 410.217l2.03 2.03-2.03-2.03z" fill="#96b247"/>
    <path d="M669.89 410.217l-4.06 6.09 4.06-6.09z" fill="#a4a43d"/>
    <path d="M661.92 410.217l2.03 2.03-2.03-2.03z" fill="#262678"/>
    <path d="M492.893 412.247l2.03 2.03-2.03-2.03z" fill="#6e6c70"/>
    <path d="M601.013 412.247l2.03 2.03-2.03-2.03z" fill="#42bb92"/>
    <path d="M661.768 412.247l2.03 2.03-2.03-2.03z" fill="#96b247"/>
    <path d="M669.89 412.247l2.03 2.03-2.03-2.03z" fill="#262678"/>
    <path d="M494.923 414.278l2.03 2.03-2.03-2.03z" fill="#6e6c70"/>
    <path d="M603.044 414.278l2.03 2.03-2.03-2.03z" fill="#68b070"/>
    <path d="M647.708 414.278l2.03 2.03-2.03-2.03z" fill="#27c2aa"/>
    <path d="M649.738 414.278l2.03 2.03-2.03-2.03z" fill="#adb333"/>
    <path d="M667.86 414.278l2.03 2.03-2.03-2.03z" fill="#262678"/>
    <path d="M496.963 416.308l2.03 2.03-2.03-2.03z" fill="#667"/>
    <path d="M606.074 416.308l2.03 2.03-2.03-2.03z" fill="#74b166"/>
    <path d="M646.678 416.308l2.03 2.03-2.03-2.03z" fill="#34be9e"/>
    <path d="M647.708 416.308l2.03 2.03-2.03-2.03z" fill="#adb333"/>
    <path d="M663.8 416.308l-2.032 4.06 2.03-4.06z" fill="#8d8d6b"/>
    <path d="M666.83 416.308l2.03 2.03-2.03-2.03z" fill="#262678"/>
    <path d="M498.983 418.338l2.03 2.03-2.03-2.03z" fill="#49497d"/>
    <path d="M607.104 418.338l2.03 2.03-2.03-2.03z" fill="#96b247"/>
    <path d="M609.134 418.338l2.03 2.03-2.03-2.03z" fill="#0dc9c1"/>
    <path d="M643.648 418.338l2.03 2.03-2.03-2.03z" fill="#42bb92"/>
    <path d="M663.8 418.338l2.03 2.03-2.03-2.03z" fill="#0e0e6e"/>
    <path d="M601.013 420.368l2.03 2.03-2.03-2.03z" fill="#49497d"/>
    <path d="M609.134 420.368l2.03 2.03-2.03-2.03z" fill="#a2b23d"/>
    <path d="M611.164 420.368l2.03 2.03-2.03-2.03z" fill="#27c2aa"/>
    <path d="M641.617 420.368l2.03 2.03-2.03-2.03z" fill="#74b166"/>
    <path d="M647.708 420.368l-6.09 8.12 6.09-8.12z" fill="#a4a43d"/>
    <path d="M649.738 420.368l2.03 2.03-2.03-2.03z" fill="#808067"/>
    <path d="M661.768 420.368l2.03 2.03-2.03-2.03z" fill="#0e0e6e"/>
    <path d="M603.044 422.398l2.03 2.03-2.03-2.03z" fill="#262678"/>
    <path d="M611.164 422.398l2.03 2.03-2.03-2.03z" fill="#adb333"/>
    <path d="M613.196 422.398l2.03 2.03-2.03-2.03z" fill="#42bb92"/>
    <path d="M637.667 422.398l2.03 2.03-2.03-2.03z" fill="#0dc9c1"/>
    <path d="M639.687 422.398l2.03 2.03-2.03-2.03z" fill="#96b247"/>
    <path d="M647.708 422.398l2.03 2.03-2.03-2.03z" fill="#6e6c70"/>
    <path d="M606.074 424.43l2.03 2.03-2.03-2.03z" fill="#1b1b74"/>
    <path d="M607.104 424.43l2.03 2.03-2.03-2.03z" fill="#8d8d6b"/>
    <path d="M616.226 424.43l2.03 2.03-2.03-2.03z" fill="#74b166"/>
    <path d="M617.266 424.43l2.03 2.03-2.03-2.03z" fill="#0dc9c1"/>
    <path d="M636.627 424.43l2.03 2.03-2.03-2.03z" fill="#34be9e"/>
    <path d="M637.667 424.43l2.03 2.03-2.03-2.03z" fill="#adb333"/>
    <path d="M646.678 424.43l2.03 2.03-2.03-2.03z" fill="#49497d"/>
    <path d="M607.104 426.46l2.03 2.03-2.03-2.03z" fill="#0e0e6e"/>
    <path d="M609.134 426.46l2.03 2.03-2.03-2.03z" fill="#6e6c70"/>
    <path d="M611.164 426.46l4.06 4.06-4.06-4.06z" fill="#a4a43d"/>
    <path d="M617.266 426.46l2.03 2.03-2.03-2.03z" fill="#96b247"/>
    <path d="M619.286 426.46l2.03 2.03-2.03-2.03z" fill="#27c2aa"/>
    <path d="M633.497 426.46l2.03 2.03-2.03-2.03z" fill="#68b070"/>
    <path d="M643.648 426.46l2.03 2.03-2.03-2.03z" fill="#32327b"/>
    <path d="M611.164 428.49l2.03 2.03-2.03-2.03z" fill="#49497d"/>
    <path d="M621.316 428.49l2.03 2.03-2.03-2.03z" fill="#6bb47c"/>
    <path d="M629.436 428.49l2.03 2.03-2.03-2.03z" fill="#27c2aa"/>
    <path d="M631.466 428.49l2.03 2.03-2.03-2.03z" fill="#96b247"/>
    <path d="M637.667 428.49l-2.03 4.06 2.03-4.06z" fill="#a4a43d"/>
    <path d="M639.687 428.49l2.03 2.03-2.03-2.03z" fill="#808067"/>
    <path d="M641.617 428.49l2.03 2.03-2.03-2.03z" fill="#0e0e6e"/>
    <path d="M613.196 430.62l2.03 2.03-2.03-2.03z" fill="#262678"/>
    <path d="M616.226 430.62l2.03 2.03-2.03-2.03z" fill="#8d8d6b"/>
    <path d="M623.346 430.62l2.03 2.03-2.03-2.03z" fill="#8bb262"/>
    <path d="M626.376 430.62l2.03 2.03-2.03-2.03z" fill="#1ac6b6"/>
    <path d="M627.406 430.62l2.03 2.03-2.03-2.03z" fill="#6bb47c"/>
    <path d="M637.667 430.62l2.03 2.03-2.03-2.03z" fill="#68687b"/>
    <path d="M616.226 432.66l2.03 2.03-2.03-2.03z" fill="#0e0e6e"/>
    <path d="M617.266 432.66l2.03 2.03-2.03-2.03z" fill="#667"/>
    <path d="M619.286 432.66l2.03 2.03-2.03-2.03z" fill="#a4a43d"/>
    <path d="M633.497 432.66l2.03 2.03-2.03-2.03z" fill="#99994e"/>
    <path d="M636.627 432.66l2.03 2.03-2.03-2.03m-16.242 2.03l2.03 2.03-2.03-2.03z" fill="#32327b"/>
    <path d="M621.316 434.68l2.03 2.03-2.03-2.03z" fill="#99994e"/>
    <path d="M629.436 434.68l2.03 2.03-2.03-2.03z" fill="#a4a43d"/>
    <path d="M631.466 434.68l2.03 2.03-2.03-2.03z" fill="#667"/>
    <path d="M633.497 434.68l2.03 2.03-2.03-2.03m-12.182 2.03l2.03 2.03-2.03-2.03z" fill="#0e0e6e"/>
    <path d="M623.346 436.61l2.03 2.03-2.03-2.03z" fill="#667"/>
    <path d="M626.376 436.61l2.03 2.03-2.03-2.03z" fill="#a4a43d"/>
    <path d="M627.406 436.61l2.03 2.03-2.03-2.03z" fill="#99994e"/>
    <path d="M629.436 436.61l2.03 2.03-2.03-2.03z" fill="#32327b"/>
    <path d="M626.376 438.64l2.03 2.03-2.03-2.03z" fill="#262678"/>
    <path d="M627.406 438.64l2.03 2.03-2.03-2.03z" fill="#0e0e6e"/>
    <path d="M629.436 302.617c3.133 7.368 13.176 16.604 16.937 19.492-3.614 3.986-4.216 3.662-3.766 10.96 6.11-6.394 6.22-7.06 10.16-6.09 8.61 8.69 1.642 27.043-6.674 31.066-7.113 4.28-6.822-.148-16.486 6.216 4.89 4.18 10.663-.613 16.182.668 2.616 2.986-1.196 8.424.76 13.646 4.09-.394 3.6-8.663 4.66-11.647 2.99-10.97 20.967-18.623 21.87-28.687 3.79-1.778 7.676-.666 12.182 2.03-2.296-9.428-9.883-9.327-11.918-12.27-4.842-7.4-9.134-16.842-19.476-18.03-7.862-1.664-7.266.6-12.296-2.933-3.127-2.44-12.648-7.063-11.126-3.31z" fill="#f90"/>
    <path d="M662.008 310.987a1.636 1.636 0 1 1-3.272-.002 1.636 1.636 0 0 1 3.272.003z" fill-rule="evenodd" fill="#fff"/>
    <path d="M604.328 333.876c6.06-6.212 7.663-18.893 9.79-23.197 6.166 1.243 6.11 2.067 11.446-1.8-8.608-2.417-9.16-2.203-10.128-6.13 3.676-11.628 23.192-13.997 30.063-9.68 7.108 4.29 2.69 6.218 12.313 12.14 1.413-6.276-6.47-9.046-6.6-13.736 1.463-3.618 8.006-2.878 11.62-7-2.268-3.432-9.33.86-12.423 1.417-11.097 2.484-26.266-9.827-36.68-6.934-3.343-2.618-4.03-6.437-3.896-11.718-7.264 6.433-3.63 13.096-6.282 16.27-4.28 7.737-9.74 16.476-6.843 26.642 2.197 7.718 3.836 6.19 3.16 12.24-.696 3.906-.326 14.478 2.27 11.384z" fill="#f90"/>
    <path d="M601.184 310.008c.8-.422 1.79-.117 2.21.682a1.636 1.636 0 1 1-2.21-.682z" fill-rule="evenodd" fill="#fff"/>
    <path d="M646.374 338.236c-7.93-1.11-20.076 3.308-24.916 3.62-1.608-6.066-.874-6.443-7.46-8.864 2.332 8.632 2.847 8.97-.01 11.84-11.798 2.964-23.974-12.61-23.748-20.776-.004-8.302 3.126-4.916 4.02-16.817-6.1 2.037-4.91 9.36-8.39 12.67-3.866.618-6.606-6.364-12.003-6.326-1.77 3.71 6.663 7.642 7.64 9.9 7.864 8.212 6.17 27.664 13.326 33.62-.427 4.164-3.426 6.78-8.014 9.396 9.263 2.89 13.086-3.667 16.666-3.896 8.837-.34 18.283.33 26.486-7.407 6.468-6.874 3.313-6.484 8.846-9.03 3.702-1.422 12.66-7.208 8.67-7.83z" fill="#f90"/>
    <path d="M626.674 363.272a1.636 1.636 0 1 1 1.686-2.806 1.637 1.637 0 0 1-1.686 2.806z" fill-rule="evenodd" fill="#fff"/>
  </g>
</svg>
