<svg xmlns="http://www.w3.org/2000/svg" xmlns:xlink="http://www.w3.org/1999/xlink" height="480" width="640">
  <path fill="#e41e20" d="M0 0h640v480H0z"/>
  <path id="a" d="M272.09 93.316c-4.667-.08-12.413 1.488-12.24 6.07-13-2.228-14.364 3.142-13.69 7.92 1.237-1.896 2.743-2.926 3.9-3.12 1.734-.288 3.648.272 6.4 1.41 1.863 1.138 3.894 2.974 4.8 4.11-4.688 1.097-8.133.39-11.73-.24-1.773-.31-4.264-1.308-6.73-2.34-1.476-1.033-1.94-2.004-4.26-4.38-2.736-2.8-6.647-2.013-4.74 2.34 2.098 4.042 6.603 6.846 10.02 6.67 2.126.36 6.292 1.106 8.88 1.11 3.69.004 7.618-.62 9.81-.06-1.317.827-2.807 2.262-6.76 2.82-3.002.677-7.667-1.786-10.36-2.43.364 2.34 3.307 4.63 9.12 6.67 9.664 2.08 17.492 3.66 22.74 6.61 6.248 2.86 8.667 6.416 10.92 9.21 4.703 6.66 4.96 9.83 6.26 10.77.968 8.886-2.13 13.884-7.89 16.42-2.88.768-7.994-.678-9.87-2.88-1.876-2.2-3.7-6.986-3.18-11.91.606-2.326 3.164-8.38.9-9.63-10.427-6.763-23.09-11.69-32.26-16.06-2.603-.948-4.666 2.466-6.37 3.78-16.662-1.896-29.694-12.426-36.91-23.64-4.3-7.637-11.39.016-10.2 7.23 1.926 8.062 8.06 13.874 16.42 18 7.666 4.16 16.998 8.263 26.66 8.04 6.147.974 6.096 7.632-1.08 8.88-12.077.077-21.712-.226-30.81-9-6.9-6.3-10.784 1.207-8.79 6.46 3.38 13.112 22.086 16.784 41.01 12.64 7.328-1.213 2.94 6.64.87 6.72-7.907 6.67-22.063 11.217-34.63-.06-6.706-4.368-9.662-.696-7.44 6.61 6.632 16.442 26.692 12.99 41.22 4.89 3.74-2.084 7.133 2.766 2.68 6.46-18.067 12.624-27.1 12.768-36.26 7.92-10.202-4.024-11.1 7.293-6.04 11.01 6.736 4.132 23.876 1.034 36.46-6.87 6.39-4.008 6.636 2.26 2.22 4.74-14.922 12.896-20.804 16.292-36.36 14.19-7.713-.6-7.698 8.91-1.63 12.63 8.286 6.08 24.464-3.363 37.02-13.77 6.286-2.824 6.163 1.807 3.64 7.29-7.672 9.68-14.873 16.387-21.81 18.03-6.936 2.643-13.608 2.222-18.33.6-6.76-1.98-6.482 4.007-3.3 9.46 1.92 3.28 9.87 4.332 18.46 1.29 8.682-3.043 17.796-10.18 24.12-18.64 6.604-4.82 4.82 1.664 2.31 6.21-12.666 20.024-24.26 27.462-39.61 26.19-6.766-1.16-8.302 4.112-3.99 8.97 7.672 6.28 17.04 6.082 26.32-.12 7.362-7.098 21.446-22.38 28.83-30.67 6.206-4.16 6.867-.06 6.34 8.37-1.388 4.826-4.866 9.91-14.34 13.62-6.472 3.694-1.612 8.786 3.24 8.88 2.67.06 8.092-3.07 12.24-7.74 6.467-6.146 6.782-10.27 8.79-19.83 2.843-4.66 7.92-2.486 7.92 2.4-2.436 9.676-4.627 11.293-9.46 16.21-4.708 4.42 3.28 6.894 6.97 4.08 7.786-6.26 10.63-12.037 13.23-18.21 1.878-4.466 7.326-2.296 4.8 4.98-6.034 17.388-16.96 24.234-33.3 27.76-1.768.312-2.83 1.36-2.22 3.39 2.33 2.417 4.662 4.61 6.99 7.02-10.728 3.123-19.444 4.878-30.18 8.01-6.267-3.463-9.622-6.383-14.79-9.84-1.39-3.247-2.036-8.203-9.81-4.71-6.267-2.433-7.697-1.64-10.62.9 4.22.167 6.066 1.287 7.71 3.21 2.16 6.69 7.14 6.24 12.24 4.62 3.317 2.794 6.084 4.938 8.4 7.74-6.19-.212-10.604-.322-16.68-.61-6.896-6.33-10.6-6.983-14.82-1.02-3.216.494-4.68.664-6.78 4.47 3.46-1.42 6.64-1.846 7.14-.3 6.268 3.634 10.362 2.823 13.47 0 6.047.37 11.496.683 17.66 1.08-2.224 1.89-6.276 2.893-7.6 4.8-9.082-2.698-13.822.9-16.42 8.31-1.217 2.992-1.787 6.07-1.26 9.27.88-2.926 2.293-6.442 4.89-7.02 8.096 2.067 11.14-1.248 11.68-6.09 3.902-3.183 9.786-3.886 13.68-7.11 4.663 1.468 6.766 2.36 11.34 3.81 1.63 4.966 6.32 6.916 11.31 6.64 7.13.224 6.872 3.16 6.46 6.49 1.896-3.36 1.842-6.63-2.66-9.6-1.698-4.34-6.138-6.316-9.78-3.81-4.37-1.24-6.617-3.023-9.87-4.26 11.01-3.61 18.82-4.298 29.82-7.8 2.764 2.698 4.936 4.463 7.71 6.78 1.462.873 2.862 1.093 3.72 0 6.894-9.977 9.973-18.77 16.38-26.36 2.448-2.722 6.64-6.394 8.97-7.29 1.716-.447 3.818-.174 6.16 1.29 1.343 1.466 2.398 4.164 1.96 8.19-.642 6.78-2.038 7.606-3.66 11.07-1.62 3.466-3.603 6.697-6.64 8.26-4.073 6.307-9.448 8.396-12.63 10.47-6.362 4.16-9.063 2.333-13.98 2.07-6.367.716-8.06 3.816-2.86 8.1 4.872 2.636 9.26 2.848 12.81 2.19 3.066-.666 6.632-4.61 9.18-6.63 2.868-3.313 7.624.616 4.38 4.47-6.893 7.003-11.783 11.62-19.06 11.62-7.636 1.028-6.208 6.32-1.14 7.41 9.12 3.766 17.367-3.286 21.64-7.92 3.228-3.63 6.62-3.67 4.96 1.8-3.204 9.9-7.683 13.726-14.73 14.22-6.797-.638-6.86 3.937-1.62 6.96 9.668 6.686 16.662-4.7 19.92-11.68 2.33-6.207 6.9-3.266 6.27 1.86.06 6.836-3.04 12.416-11.31 19.41 6.328 10.082 13.706 20.336 20.04 30.46l19.206-213.893-19.2-33.794c-2-1.847-8.763-9.816-10.63-10.92-.644-.69-1.036-1.176-.09-1.63.916-.344 3.06-.73 4.6-.99-4.072-4.08-7.66-6.388-16.27-7.62 1.88-.8 3.706-.336 9.24-.6-2.197-3.12-7.104-7.896-13.44-10.2 4.184-2.976 6-3.176 9.16-6.66-7.187-.61-13.326-1.88-19.6-3.76-3.904-1.827-9.327-3.377-11.97-3.42zm.69 8.37c3.8 0 6.16 1.302 6.16 2.88 0 1.606-2.36 2.91-6.16 2.91-3.782 0-6.18-1.423-6.18-3.03 0-1.678 2.398-2.76 6.18-2.76z"/>
  <use height="100%" width="100%" xlink:href="#a" transform="matrix(-1 0 0 1 640 0)"/>
</svg>
