<svg xmlns="http://www.w3.org/2000/svg" height="480" width="640">
  <g fill-rule="evenodd" stroke-width="1pt">
    <path fill="red" d="M0 0h640v243.674H0z"/>
    <path d="M0 236.428h640v243.674H0z"/>
  </g>
  <path d="M228.67 148.173c166.22 43.304 68.99 266.64-71.216 167.26l-8.817 13.646c76.628 64.668 162.67 10.66 173.9-46.368 22.297-68.788-7.62-141.48-92.61-160.03l-1.366 16.676z" fill-rule="evenodd" fill="#ffec00"/>
  <path fill-rule="evenodd" fill="#ffec00" d="M169.966 330.827l21.73 10.126-10.142 21.696-21.73-10.126zm148.986-99.48h23.98v23.942h-23.98zm-11.684-38.892l22.342-8.694 8.707 22.31-22.342 8.693zm-26.894-29.188l17.036-16.86 16.877 17.01-17.036 16.86zm-26.284-39.787l22.434 8.466-8.468 22.4-22.434-8.466zM316.1 270.01l22.266 8.888-8.902 22.23-22.266-8.887zm-69.876 70.06l22.06-9.388 9.402 22.026-22.068 9.39zm-39.604 2.77h23.98v23.94h-23.98zm41.29-116.937l-20.36-16.006-20.246 14.47 8.034-22.92-20.348-14.966 24.447-.17 8.667-22.66 7.782 22.702 24.7-.242-19.686 16.232 6.996 23.44z"/>
  <path d="M336.03 346.376c-1.21.418-6.23 12.39-9.676 18.248 1.797.61 2.66.696 3.626 1.026 13.666 4.8 20.384 9.18 26.186 17.604 2.888 2.79 7.032 2.93 10.198.697 0 0 2.796-1.114 6.43-6.02 2.968-4.62 2.194-8.11-1.384-11.16-10.944-7.962-22.9-13.902-36.38-21.296z" fill-rule="evenodd" fill="#fe0"/>
  <path d="M366.247 372.842c0 2.388-1.94 4.324-4.33 4.324s-4.333-1.936-4.333-4.324 1.94-4.326 4.332-4.326 4.33 1.936 4.33 4.326zM343.87 369.17c0 2.388-1.94 4.324-4.33 4.324s-4.333-1.936-4.333-4.324 1.94-4.326 4.332-4.326 4.33 1.936 4.33 4.326zm10.898 6.976c0 2.39-1.94 4.326-4.33 4.326s-4.333-1.936-4.333-4.326 1.94-4.324 4.332-4.324 4.33 1.937 4.33 4.326z" fill-rule="evenodd"/>
  <path d="M324.47 363.667c-42.67-24.273-87.31-60.62-129.88-74.796-18.76-11.636-19.683-33.384-7.17-49.876 1.302-2.337 2.836-1.768 3.614-.624 1.463 8.03 6.97 16.326 11.37 21.496 44.693 28.383 87.732 66.804 131.71 86.613-3.448 6.767-6.104 12.32-9.66 18.086z" fill-rule="evenodd" fill="#fe0"/>
  <path fill-rule="evenodd" fill="#ffec00" d="M297.174 306.467l17.86 16.986-16.01 17.824-17.86-16.986z"/>
  <path d="M331.64 348.82L206.68 273.3m109.63 68.093l-42.24-27.28m18.21 42.687l-42.76-24.766" stroke="#000" stroke-width="3.06" fill="none"/>
</svg>
