<svg xmlns="http://www.w3.org/2000/svg" viewBox="0 0 612 612" height="480" width="640">
  <path fill-rule="evenodd" fill="#3a7dce" d="M-86.333 0h682.67v612h-682.67z"/>
  <path d="M111.82 240.36c-3.08-6.3-3.08-6.3-3.08-12.696-1.64 0-1.828.296-2.72.048-.89-.246-1.226 6.808-4.113 4.626-.48-.69 2.07-4.968-.698-6.788-.89-.693.216-4.184-.17-6.76 0 0-3.612 1.87-6.16-4.722-1.3-1.723-3.08 1.674-3.08 1.674s.77 2.017-.624 2.61c-1.973-1.477-3.418-.703-6.92-2.732-2.602-2.03.63-4.364-4.236-6.076 3.082-7.873 3.082-6.3 10.78-9.447-4.62-3.16-4.62-3.16-7.698-7.874-4.62-1.674-6.16-3.148-10.78-6.297-6.16-7.874-9.24-23.618-9.24-34.64 3.9-3.69 9.24 12.696 16.94 17.32l10.78 4.723c6.16 3.148 7.7 6.296 12.32 9.446l13.86 4.724c6.16 4.723 9.24 11.022 13.86 12.696 6.006 0 6.97-2.948 7.674-3.13 9.063-.476 13.674-1.668 16.478-4.448 1.828-2.214 6.207 1.28 18.627-3.444l-1.638-6.3s3.272-2.764 7.7-1.673c-.12-2.878-.41-10.663 3.96-14.016-2.648-2.84-.87-4.877-.87-4.877s2.464-2.412 2.742-3.69c-1.298-6.94 1.127-7.046 1.67-9.088.644-2.04-2.094-1.342-1.36-4.166.742-2.814 6.203-3.482 6.8-6.8.6-2.32-1.27-3.482-1.163-4.036.963-2.216.146-7.43 0-9.448 8.278-2.264 10.974-9.162 13.86-6.298 1.64-9.448 3.08-12.696 12.32-12.696 1.3-2.903-3.37-6.364-1.64-6.298 3.08-.394 6.438-.197 9.06 4.676 1.14 1.612 1.346-2.216 2.6-2.608 1.166-.394 3.92-.4 4.33-2.264.436-1.92 1.06-4.428 2.6-7.677 1.3-2.66 2.31.984 3.466 6.003 6.497.246 21.176 1.722 27.334 3.444 4.62 1.23 7.7-1.23 12.126-1.722 3.272 3.346 6.362.836 8.086 7.97 2.446 3.86 6.46.346 7.316 1.477 6.16 14.614 22.86 4.723 24.206 4.97 2.26 0 6.023 6.49 6.803 6.328 2.894-.498 2.076-2.616 4.6-1.704-.673 6.462 4.96 11.76 4.96 16.844 0 0 1.37.69 2.64-.623 1.27-1.21 2.436-4.323 3.666-4.26 2.696.394 3.788.748 6.894 1.303 8.36 2.917 12.603 3.676 16.846 6.07 1.61 2.823 2.97 4.268 6.03 3.74 2.626 1.736.683 4.01 2.176 4.167 3.08-1.676 4.09-3.297 7.17-1.722 3.08 1.674 6.16 4.724 7.7 7.873 0 1.674-1.64 7.872 0 17.32.77 3.148 1.143 6.646 4.46 11.046-.878 6.648 4.164 14.884 4.164 17.246 0 3.148-2.466 4.773-3.996 7.92 6.16 4.726 0 12.697-3.08 17.32 23.1 4.726 12.32 14.172 30.8 9.448-4.62 11.022-2.984 10.137 1.636 21.16-9.24 6.298-.192 8.216-6.36 16.088-.386.493 3.666 6.84 9.334 6.84-1.64 12.696-6.16 7.873-4.62 26.767-12.127-.244-7.22 14.123-16.4 12.697.48 9.006 4.668 9.792 3.08 18.894-6.16 1.676-6.16 1.676-9.24 6.3l-4.62-1.676c-1.64 7.873-4.62 9.447 0 17.32 0 0-6.967.197-7.7 0-.144 2.707 2.648 3.446 3.08 6.298-.24 1.132-8.768 6.1-16.4 6.3-1.73 3.886 4.62 8.02 4.236 9.987-7.22 1.427-10.396 10.48-10.396 10.48s3.706 1.626 3.08 3.16c-1.972-1.477-3.08-1.676-6.16-1.676-1.64.394-6.293-.096-8.892 6.114-3.96 1.33-6.814.86-8.81 4.9-1.327-3.86-3.236.037-6.668 1.634-2.33 1.6-6.47 6.226-6.893 6.067.097-1.082 1.444-6.02 1.444-6.02l-7.7 1.676-.948.097c-.606.06-.444-4.696-1.903-4.427-1.46.17-6.634 6.867-7.067 6.036-1.42.18-1.87-1.808-3.096-1.636-1.224.173-3.61 6-4.478 6.163-.867.166-4.306-3.64-7.263-3.026-16.16 6.463-17.667-10.776-19.924-1.622-3.176-1.722-2.626-.723-6.863.142-2.06.643-2.247-2.783-4.078-2.732-3.664.106-3.47 3.66-6.47 2.69-1.634-7.38-11.6-6.063-12.463-9.2-.782-3.286 4.276-3.27 6.91-6.496 1.26-3.21-1.306-4.43 3.77-7.627 6.613-4.674 2.81-6.3 3.97-9.736 2.074-4.964 2.086-6.176.364-10.664 0 0-6.16-14.17-6.16-14.17-3.08-.886-3.08 6.214-7.604 6.888-9.24 3.148-26.662-7.972-28.392-7.972-2.697.06-14.632 2.914-14.178-3.222-1.8 6.966-8.416 1.402-8.824 1.402-6.16 0-3.802 4.87-7.94 4.674-1.88-.64-20.838-1.77-20.838-1.77v3.148l-12.32-6.3-10.78-3.147c-9.24-3.16-4.62-11.023-20.02-6.3v-9.447h-7.7c3.08-18.896 0-9.447-1.64-26.767l-6.16 1.676c-6.16-8.612 8.666-6.888-4.62-12.696 0 0 .242-9.4-3.08-6.3-.673.396 1.64 4.726 1.64 4.726-12.32-1.674-16.4-4.724-16.4-17.32 0 0 10.166 1.477 9.24 0-1.443-2.36-3.32-17.713-2.983-18.747-.146-2.067 9.432-7.282 7.68-12.263 1.178-.443 4.642-.49 4.642-.49" fill="#fff"/>
  <path stroke-linejoin="round" d="M627.66 303.26c-.493 1.108-.406 2.216.104 3.006.914-1.37.142-2.003-.104-3.006z" stroke="#fff" stroke-linecap="round" stroke-width="2.249" fill="none"/>
  <path stroke-linejoin="round" d="M131.61 178.94s-2.683-.316-2.003 1.96c.844-1.74 1.96-1.844 2.003-1.96zm.68-6.27c-1.423.063-3.163-.21-2.683 2.066.844-1.74 2.63-1.96 2.683-2.066zm9.72 30.2s2.214-.168 1.634 2.108c-.844-1.74-1.68-2.002-1.634-2.108z" stroke="#fff" stroke-width="2.108" fill="none"/>
</svg>
