<svg xmlns="http://www.w3.org/2000/svg" height="480" width="640">
  <g fill-rule="evenodd" stroke-width="1pt">
    <path fill="#00c4ff" d="M0-.01h640.003v160.43H0z"/>
    <path fill="#fff" d="M0 169.763h640.003v160.43H0z"/>
    <path fill="#00c4ff" d="M0 319.636h640.003v160.43H0z"/>
  </g>
  <path d="M382.49 221.33c0 14.664-11.864 26.37-26.6 26.37s-26.498-11.806-26.498-26.37 11.864-26.37 26.6-26.37 26.498 11.806 26.498 26.37z" stroke-opacity=".387" fill-rule="evenodd" transform="matrix(1.6462 0 0 1.62 -266.894 -116.667)" stroke="#000" stroke-width=".626" fill="#ffd600"/>
  <path d="M364.43 196.28c-4.34-1.06-8.786.422-10.186.318-1.926 0-6.79-1.68-10.186 0m-6.36 4.892c4.306-3.01 9.116 1.086 10.394.316 3.492-2.294 6.736-1.868 10.08.21 2.166 1.272 6.914-3.71 10.29.316" stroke-opacity=".387" transform="matrix(1.2703 0 0 1.231 -130.873 -28.912)" stroke="#000" stroke-width=".6" fill="none"/>
  <path d="M333.88 206.63c2.276-1.866 9.694-1.926 17.324 2.414 1.166-.28 1.89-1.084.946-2.204-6.74-1.996-12.426-4.616-18.686-2.626-1.68 1.19-1.26 1.96.316 2.416z" stroke-opacity=".387" fill-rule="evenodd" transform="matrix(1.2703 0 0 1.231 -130.873 -28.912)" stroke="#000" stroke-width=".6" fill="#efc000"/>
  <path d="M333.88 206.63c2.276-1.866 9.694-1.926 17.324 2.414 1.166-.28 1.89-1.084.946-2.204-6.74-1.996-12.426-4.616-18.686-2.626-1.68 1.19-1.26 1.96.316 2.416z" stroke-opacity=".387" fill-rule="evenodd" transform="matrix(-1.2703 0 0 1.231 768.984 -28.912)" stroke="#000" stroke-width=".6" fill="#efc000"/>
  <path stroke-linejoin="round" d="M330.84 211.83c7.626-4.83 17.464-2.31 21.63.316-6.09-1.166-6.196-1.68-10.606-1.786-3.116.106-7.7-.21-11.024 1.47z" stroke-opacity=".387" fill-rule="evenodd" transform="matrix(1.2703 0 0 1.231 -130.873 -28.912)" stroke="#000" stroke-width=".626" fill="#f0bf00"/>
  <path d="M348.06 211.3c-3.676 7.666-10.08 7.77-14.694-.42" stroke-opacity=".387" transform="matrix(1.2703 0 0 1.231 -130.873 -28.912)" stroke="#000" stroke-width=".626" fill="none"/>
  <path d="M308.78 234.09c-1.383 1.614-4.77 2.413-7.664 2.01s-3.937-1.96-2.663-3.474c1.384-1.614 4.77-2.413 7.666-2.01s3.937 1.96 2.663 3.474z" fill-rule="evenodd" fill-opacity=".368"/>
  <path d="M301.898 232.147c.143.363-.297.82-.984 1.046s-1.368.12-1.6-.23c-.144-.364.297-.822.983-1.046s1.36-.12 1.6.23z" fill-rule="evenodd" fill="gold"/>
  <path d="M349.18 224.6c-4.24 7.127 1.637 2.1 2.476 4.164 1.66 1.913 3.3 1.462 4.276 0 .977-1.66 7.128 3.113 2.927-3.938" stroke-opacity=".387" transform="matrix(1.2703 0 0 1.231 -130.873 -28.912)" stroke="#000" stroke-width=".626" fill="none"/>
  <path stroke-linejoin="round" d="M341.64 236.31c3.638-.413 9.763-3.188 11.93-.9 1.874-2.063 8.476.6 12.714.9-3.076 1.876-9.302.6-12.266 2.688-2.89-1.763-9.267-.16-12.38-2.688z" stroke-opacity=".387" transform="matrix(1.2703 0 0 1.231 -130.873 -28.912)" stroke="#000" stroke-linecap="round" stroke-width=".626" fill="none"/>
  <path stroke-linejoin="round" d="M347.6 239.68c6.614 2.26 6.762 1.913 12.716.226-1.238 3.264-4.398 3.96-6.19 3.826-1.867-.12-4.388.114-6.626-4.06z" stroke-opacity=".387" transform="matrix(1.2703 0 0 1.231 -130.873 -28.912)" stroke="#000" stroke-width=".626" fill="none"/>
  <path stroke-linejoin="round" d="M343.17 268.06c-3.977 10.41.38 16.368-1.667 20.964-1.874 6.398-10.026 18.776-3.82 24.69 4.93.227-.863-7.377 9.01-21.466 4.676-6.696-1.196-10.77 3.626-23.707.448-1.106-6.623-2.03-7.26-.39z" stroke-opacity=".387" fill-rule="evenodd" transform="matrix(1.2703 0 0 1.231 -130.873 -28.912)" stroke="#000" stroke-width=".626" fill="gold"/>
  <path stroke-linejoin="round" d="M342.97 268.16c-1.628 11.683-.62 47.677 3.037 46.14 4.06 1.306 4.683-36.162 4.212-46.946-.063-1.194-7.037-1.938-7.26-.196z" stroke-opacity=".387" fill-rule="evenodd" transform="matrix(1.2703 0 0 1.231 -119.922 -28.068)" stroke="#000" stroke-width=".626" fill="gold"/>
  <path stroke-linejoin="round" d="M343.17 268.06c-3.977 10.41.38 16.368-1.667 20.964-1.874 6.398-10.026 18.776-3.82 24.69 4.93.227-.863-7.377 9.01-21.466 4.676-6.696-1.196-10.77 3.626-23.707.448-1.106-6.623-2.03-7.26-.39z" stroke-opacity=".387" transform="matrix(-.908 -.861 -.8884 .88 837.014 363.18)" stroke="#000" stroke-width=".626" fill="none"/>
  <path stroke-linejoin="round" d="M343.17 268.06c-3.977 10.41.38 16.368-1.667 20.964-1.874 6.398-10.026 18.776-3.82 24.69 4.93.227-.863-7.377 9.01-21.466 4.676-6.696-1.196-10.77 3.626-23.707.448-1.106-6.623-2.03-7.26-.39z" stroke-opacity=".387" transform="matrix(.889 .8794 -.9076 .8614 204.616 -268.71)" stroke="#000" stroke-width=".626" fill="none"/>
  <path stroke-linejoin="round" d="M343.17 268.06c-3.977 10.41.38 16.368-1.667 20.964-1.874 6.398-10.026 18.776-3.82 24.69 4.93.227-.863-7.377 9.01-21.466 4.676-6.696-1.196-10.77 3.626-23.707.448-1.106-6.623-2.03-7.26-.39z" stroke-opacity=".387" transform="matrix(-.0073 -1.231 -1.2703 .007 601.74 676.9)" stroke="#000" stroke-width=".626" fill="none"/>
  <path stroke-linejoin="round" d="M342.97 268.16c-1.628 11.683-.62 47.677 3.037 46.14 4.06 1.306 4.683-36.162 4.212-46.946-.063-1.194-7.037-1.938-7.26-.196z" stroke-opacity=".387" transform="matrix(-1.1663 -.49 -.6067 1.1292 836.787 164.23)" stroke="#000" stroke-width=".626" fill="none"/>
  <path stroke-linejoin="round" d="M342.97 268.16c-1.628 11.683-.62 47.677 3.037 46.14 4.06 1.306 4.683-36.162 4.212-46.946-.063-1.194-7.037-1.938-7.26-.196z" stroke-opacity=".387" transform="matrix(-.906 -.864 -.8916 .877 827.91 348.79)" stroke="#000" stroke-width=".626" fill="none"/>
  <path stroke-linejoin="round" d="M342.97 268.16c-1.628 11.683-.62 47.677 3.037 46.14 4.06 1.306 4.683-36.162 4.212-46.946-.063-1.194-7.037-1.938-7.26-.196z" stroke-opacity=".387" transform="matrix(-.4964 -1.133 -1.1693 .481 748.116 628.492)" stroke="#000" stroke-width=".626" fill="none"/>
  <path d="M349.18 224.6c-4.24 7.127 1.637 2.1 2.476 4.164 1.66 1.913 3.3 1.462 4.276 0 .977-1.66 7.128 3.113 2.927-3.938" stroke-opacity=".082" transform="matrix(1.2703 0 0 1.231 -130.873 -28.912)" stroke="#000" stroke-width=".626" fill="none"/>
  <path stroke-linejoin="round" d="M341.64 236.31c3.638-.413 9.763-3.188 11.93-.9 1.874-2.063 8.476.6 12.714.9-3.076 1.876-9.302.6-12.266 2.688-2.89-1.763-9.267-.16-12.38-2.688z" stroke-opacity=".082" fill-rule="evenodd" transform="matrix(1.2703 0 0 1.231 -130.873 -28.912)" stroke="#000" stroke-linecap="round" stroke-width=".626" fill="#f0bf00"/>
  <path stroke-linejoin="round" d="M347.6 239.68c6.614 2.26 6.762 1.913 12.716.226-1.238 3.264-4.398 3.96-6.19 3.826-1.867-.12-4.388.114-6.626-4.06z" stroke-opacity=".082" fill-rule="evenodd" transform="matrix(1.2703 0 0 1.231 -130.873 -28.912)" stroke="#000" stroke-width=".626" fill="#f0bf00"/>
  <path stroke-linejoin="round" d="M343.17 268.06c-3.977 10.41.38 16.368-1.667 20.964-1.874 6.398-10.026 18.776-3.82 24.69 4.93.227-.863-7.377 9.01-21.466 4.676-6.696-1.196-10.77 3.626-23.707.448-1.106-6.623-2.03-7.26-.39z" stroke-opacity=".149" fill-rule="evenodd" transform="matrix(-.908 -.861 -.8884 .88 837.014 363.18)" stroke="#000" stroke-width=".626" fill="gold"/>
  <path stroke-linejoin="round" d="M343.17 268.06c-3.977 10.41.38 16.368-1.667 20.964-1.874 6.398-10.026 18.776-3.82 24.69 4.93.227-.863-7.377 9.01-21.466 4.676-6.696-1.196-10.77 3.626-23.707.448-1.106-6.623-2.03-7.26-.39z" stroke-opacity=".149" fill-rule="evenodd" transform="matrix(.889 .8794 -.9076 .8614 204.616 -268.71)" stroke="#000" stroke-width=".626" fill="gold"/>
  <path stroke-linejoin="round" d="M343.17 268.06c-3.977 10.41.38 16.368-1.667 20.964-1.874 6.398-10.026 18.776-3.82 24.69 4.93.227-.863-7.377 9.01-21.466 4.676-6.696-1.196-10.77 3.626-23.707.448-1.106-6.623-2.03-7.26-.39z" stroke-opacity=".149" fill-rule="evenodd" transform="matrix(-.0073 -1.231 -1.2703 .007 601.74 676.9)" stroke="#000" stroke-width=".626" fill="gold"/>
  <path stroke-linejoin="round" d="M342.97 268.16c-1.628 11.683-.62 47.677 3.037 46.14 4.06 1.306 4.683-36.162 4.212-46.946-.063-1.194-7.037-1.938-7.26-.196z" stroke-opacity=".149" fill-rule="evenodd" transform="matrix(-1.1663 -.49 -.6067 1.1292 836.787 164.23)" stroke="#000" stroke-width=".626" fill="gold"/>
  <path stroke-linejoin="round" d="M342.97 268.16c-1.628 11.683-.62 47.677 3.037 46.14 4.06 1.306 4.683-36.162 4.212-46.946-.063-1.194-7.037-1.938-7.26-.196z" stroke-opacity=".149" fill-rule="evenodd" transform="matrix(-.906 -.864 -.8916 .877 827.91 348.79)" stroke="#000" stroke-width=".626" fill="gold"/>
  <path stroke-linejoin="round" d="M342.97 268.16c-1.628 11.683-.62 47.677 3.037 46.14 4.06 1.306 4.683-36.162 4.212-46.946-.063-1.194-7.037-1.938-7.26-.196z" stroke-opacity=".149" fill-rule="evenodd" transform="matrix(-.4964 -1.133 -1.1693 .481 748.116 628.492)" stroke="#000" stroke-width=".626" fill="gold"/>
  <path stroke-linejoin="round" d="M342.97 268.16c-1.628 11.683-.62 47.677 3.037 46.14 4.06 1.306 4.683-36.162 4.212-46.946-.063-1.194-7.037-1.938-7.26-.196z" stroke-opacity=".387" fill-rule="evenodd" transform="matrix(0 -1.231 1.2703 0 41.183 668.378)" stroke="#000" stroke-width=".626" fill="gold"/>
  <path stroke-linejoin="round" d="M343.17 268.06c-3.977 10.41.38 16.368-1.667 20.964-1.874 6.398-10.026 18.776-3.82 24.69 4.93.227-.863-7.377 9.01-21.466 4.676-6.696-1.196-10.77 3.626-23.707.448-1.106-6.623-2.03-7.26-.39z" stroke-opacity=".387" fill-rule="evenodd" transform="matrix(-1.2703 0 0 1.231 770.68 -28.276)" stroke="#000" stroke-width=".626" fill="gold"/>
  <path stroke-linejoin="round" d="M343.17 268.06c-3.977 10.41.38 16.368-1.667 20.964-1.874 6.398-10.026 18.776-3.82 24.69 4.93.227-.863-7.377 9.01-21.466 4.676-6.696-1.196-10.77 3.626-23.707.448-1.106-6.623-2.03-7.26-.39z" stroke-opacity=".387" fill-rule="evenodd" transform="matrix(.908 -.861 .8884 .88 -196.843 363.81)" stroke="#000" stroke-width=".626" fill="gold"/>
  <path stroke-linejoin="round" d="M343.17 268.06c-3.977 10.41.38 16.368-1.667 20.964-1.874 6.398-10.026 18.776-3.82 24.69 4.93.227-.863-7.377 9.01-21.466 4.676-6.696-1.196-10.77 3.626-23.707.448-1.106-6.623-2.03-7.26-.39z" stroke-opacity=".387" fill-rule="evenodd" transform="matrix(-.889 .8794 .9076 .8614 436.664 -268.39)" stroke="#000" stroke-width=".626" fill="gold"/>
  <path stroke-linejoin="round" d="M343.17 268.06c-3.977 10.41.38 16.368-1.667 20.964-1.874 6.398-10.026 18.776-3.82 24.69 4.93.227-.863-7.377 9.01-21.466 4.676-6.696-1.196-10.77 3.626-23.707.448-1.106-6.623-2.03-7.26-.39z" stroke-opacity=".387" fill-rule="evenodd" transform="matrix(.0073 -1.231 1.2703 .007 38.068 676.9)" stroke="#000" stroke-width=".626" fill="gold"/>
  <path stroke-linejoin="round" d="M342.97 268.16c-1.628 11.683-.62 47.677 3.037 46.14 4.06 1.306 4.683-36.162 4.212-46.946-.063-1.194-7.037-1.938-7.26-.196z" stroke-opacity=".387" fill-rule="evenodd" transform="matrix(1.1663 -.49 .6067 1.1292 -196.68 164.874)" stroke="#000" stroke-width=".626" fill="gold"/>
  <path stroke-linejoin="round" d="M342.97 268.16c-1.628 11.683-.62 47.677 3.037 46.14 4.06 1.306 4.683-36.162 4.212-46.946-.063-1.194-7.037-1.938-7.26-.196z" stroke-opacity=".387" fill-rule="evenodd" transform="matrix(.906 -.864 .8916 .877 -188.602 348.79)" stroke="#000" stroke-width=".626" fill="gold"/>
  <path stroke-linejoin="round" d="M342.97 268.16c-1.628 11.683-.62 47.677 3.037 46.14 4.06 1.306 4.683-36.162 4.212-46.946-.063-1.194-7.037-1.938-7.26-.196z" stroke-opacity=".387" fill-rule="evenodd" transform="matrix(.4964 -1.133 1.1693 .481 -107.76 628.492)" stroke="#000" stroke-width=".626" fill="gold"/>
  <path stroke-linejoin="round" d="M343.17 268.06c-3.977 10.41.38 16.368-1.667 20.964-1.874 6.398-10.026 18.776-3.82 24.69 4.93.227-.863-7.377 9.01-21.466 4.676-6.696-1.196-10.77 3.626-23.707.448-1.106-6.623-2.03-7.26-.39z" stroke-opacity=".149" fill-rule="evenodd" transform="matrix(.908 -.861 .8884 .88 -196.843 363.81)" stroke="#000" stroke-width=".626" fill="gold"/>
  <path stroke-linejoin="round" d="M343.17 268.06c-3.977 10.41.38 16.368-1.667 20.964-1.874 6.398-10.026 18.776-3.82 24.69 4.93.227-.863-7.377 9.01-21.466 4.676-6.696-1.196-10.77 3.626-23.707.448-1.106-6.623-2.03-7.26-.39z" stroke-opacity=".149" fill-rule="evenodd" transform="matrix(-.889 .8794 .9076 .8614 436.664 -268.39)" stroke="#000" stroke-width=".626" fill="gold"/>
  <path stroke-linejoin="round" d="M343.17 268.06c-3.977 10.41.38 16.368-1.667 20.964-1.874 6.398-10.026 18.776-3.82 24.69 4.93.227-.863-7.377 9.01-21.466 4.676-6.696-1.196-10.77 3.626-23.707.448-1.106-6.623-2.03-7.26-.39z" stroke-opacity=".149" fill-rule="evenodd" transform="matrix(.0073 -1.231 1.2703 .007 38.068 676.9)" stroke="#000" stroke-width=".626" fill="gold"/>
  <path stroke-linejoin="round" d="M342.97 268.16c-1.628 11.683-.62 47.677 3.037 46.14 4.06 1.306 4.683-36.162 4.212-46.946-.063-1.194-7.037-1.938-7.26-.196z" stroke-opacity=".149" fill-rule="evenodd" transform="matrix(1.1663 -.49 .6067 1.1292 -196.68 164.874)" stroke="#000" stroke-width=".626" fill="gold"/>
  <path stroke-linejoin="round" d="M342.97 268.16c-1.628 11.683-.62 47.677 3.037 46.14 4.06 1.306 4.683-36.162 4.212-46.946-.063-1.194-7.037-1.938-7.26-.196z" stroke-opacity=".149" fill-rule="evenodd" transform="matrix(.906 -.864 .8916 .877 -188.602 348.79)" stroke="#000" stroke-width=".626" fill="gold"/>
  <path stroke-linejoin="round" d="M342.97 268.16c-1.628 11.683-.62 47.677 3.037 46.14 4.06 1.306 4.683-36.162 4.212-46.946-.063-1.194-7.037-1.938-7.26-.196z" stroke-opacity=".149" fill-rule="evenodd" transform="matrix(.4964 -1.133 1.1693 .481 -107.76 628.492)" stroke="#000" stroke-width=".626" fill="gold"/>
  <path stroke-linejoin="round" d="M342.97 268.16c-1.628 11.683-.62 47.677 3.037 46.14 4.06 1.306 4.683-36.162 4.212-46.946-.063-1.194-7.037-1.938-7.26-.196z" stroke-opacity=".387" fill-rule="evenodd" transform="matrix(0 1.231 -1.2703 0 698.48 -184.42)" stroke="#000" stroke-width=".626" fill="gold"/>
  <path stroke-linejoin="round" d="M343.17 268.06c-3.977 10.41.38 16.368-1.667 20.964-1.874 6.398-10.026 18.776-3.82 24.69 4.93.227-.863-7.377 9.01-21.466 4.676-6.696-1.196-10.77 3.626-23.707.448-1.106-6.623-2.03-7.26-.39z" stroke-opacity=".387" fill-rule="evenodd" transform="matrix(1.2703 0 0 -1.231 -131 612.223)" stroke="#000" stroke-width=".626" fill="gold"/>
  <path stroke-linejoin="round" d="M343.17 268.06c-3.977 10.41.38 16.368-1.667 20.964-1.874 6.398-10.026 18.776-3.82 24.69 4.93.227-.863-7.377 9.01-21.466 4.676-6.696-1.196-10.77 3.626-23.707.448-1.106-6.623-2.03-7.26-.39z" stroke-opacity=".387" fill-rule="evenodd" transform="matrix(-.908 .861 -.8884 -.88 836.614 130.14)" stroke="#000" stroke-width=".626" fill="gold"/>
  <path stroke-linejoin="round" d="M343.17 268.06c-3.977 10.41.38 16.368-1.667 20.964-1.874 6.398-10.026 18.776-3.82 24.69 4.93.227-.863-7.377 9.01-21.466 4.676-6.696-1.196-10.77 3.626-23.707.448-1.106-6.623-2.03-7.26-.39z" stroke-opacity=".387" fill-rule="evenodd" transform="matrix(.889 -.8794 -.9076 -.8614 204.116 742.347)" stroke="#000" stroke-width=".626" fill="gold"/>
  <path stroke-linejoin="round" d="M343.17 268.06c-3.977 10.41.38 16.368-1.667 20.964-1.874 6.398-10.026 18.776-3.82 24.69 4.93.227-.863-7.377 9.01-21.466 4.676-6.696-1.196-10.77 3.626-23.707.448-1.106-6.623-2.03-7.26-.39z" stroke-opacity=".387" fill-rule="evenodd" transform="matrix(-.0073 1.231 -1.2703 -.007 601.612 -192.966)" stroke="#000" stroke-width=".626" fill="gold"/>
  <path stroke-linejoin="round" d="M342.97 268.16c-1.628 11.683-.62 47.677 3.037 46.14 4.06 1.306 4.683-36.162 4.212-46.946-.063-1.194-7.037-1.938-7.26-.196z" stroke-opacity=".387" fill-rule="evenodd" transform="matrix(-1.1663 .49 -.6067 -1.1292 836.362 319.092)" stroke="#000" stroke-width=".626" fill="gold"/>
  <path stroke-linejoin="round" d="M342.97 268.16c-1.628 11.683-.62 47.677 3.037 46.14 4.06 1.306 4.683-36.162 4.212-46.946-.063-1.194-7.037-1.938-7.26-.196z" stroke-opacity=".387" fill-rule="evenodd" transform="matrix(-.906 .864 -.8916 -.877 828.282 136.16)" stroke="#000" stroke-width=".626" fill="gold"/>
  <path stroke-linejoin="round" d="M342.97 268.16c-1.628 11.683-.62 47.677 3.037 46.14 4.06 1.306 4.683-36.162 4.212-46.946-.063-1.194-7.037-1.938-7.26-.196z" stroke-opacity=".387" fill-rule="evenodd" transform="matrix(-.4964 1.133 -1.1693 -.481 747.437 -44.66)" stroke="#000" stroke-width=".626" fill="gold"/>
  <path stroke-linejoin="round" d="M343.17 268.06c-3.977 10.41.38 16.368-1.667 20.964-1.874 6.398-10.026 18.776-3.82 24.69 4.93.227-.863-7.377 9.01-21.466 4.676-6.696-1.196-10.77 3.626-23.707.448-1.106-6.623-2.03-7.26-.39z" stroke-opacity=".149" fill-rule="evenodd" transform="matrix(-.908 .861 -.8884 -.88 836.614 130.14)" stroke="#000" stroke-width=".626" fill="gold"/>
  <path stroke-linejoin="round" d="M343.17 268.06c-3.977 10.41.38 16.368-1.667 20.964-1.874 6.398-10.026 18.776-3.82 24.69 4.93.227-.863-7.377 9.01-21.466 4.676-6.696-1.196-10.77 3.626-23.707.448-1.106-6.623-2.03-7.26-.39z" stroke-opacity=".149" fill-rule="evenodd" transform="matrix(.889 -.8794 -.9076 -.8614 204.116 742.347)" stroke="#000" stroke-width=".626" fill="gold"/>
  <path stroke-linejoin="round" d="M343.17 268.06c-3.977 10.41.38 16.368-1.667 20.964-1.874 6.398-10.026 18.776-3.82 24.69 4.93.227-.863-7.377 9.01-21.466 4.676-6.696-1.196-10.77 3.626-23.707.448-1.106-6.623-2.03-7.26-.39z" stroke-opacity=".149" fill-rule="evenodd" transform="matrix(-.0073 1.231 -1.2703 -.007 601.612 -192.966)" stroke="#000" stroke-width=".626" fill="gold"/>
  <path stroke-linejoin="round" d="M342.97 268.16c-1.628 11.683-.62 47.677 3.037 46.14 4.06 1.306 4.683-36.162 4.212-46.946-.063-1.194-7.037-1.938-7.26-.196z" stroke-opacity=".149" fill-rule="evenodd" transform="matrix(-1.1663 .49 -.6067 -1.1292 836.362 319.092)" stroke="#000" stroke-width=".626" fill="gold"/>
  <path stroke-linejoin="round" d="M342.97 268.16c-1.628 11.683-.62 47.677 3.037 46.14 4.06 1.306 4.683-36.162 4.212-46.946-.063-1.194-7.037-1.938-7.26-.196z" stroke-opacity=".149" fill-rule="evenodd" transform="matrix(-.906 .864 -.8916 -.877 828.282 136.16)" stroke="#000" stroke-width=".626" fill="gold"/>
  <path stroke-linejoin="round" d="M342.97 268.16c-1.628 11.683-.62 47.677 3.037 46.14 4.06 1.306 4.683-36.162 4.212-46.946-.063-1.194-7.037-1.938-7.26-.196z" stroke-opacity=".149" fill-rule="evenodd" transform="matrix(-.4964 1.133 -1.1693 -.481 747.437 -44.66)" stroke="#000" stroke-width=".626" fill="gold"/>
  <path stroke-linejoin="round" d="M342.97 268.16c-1.628 11.683-.62 47.677 3.037 46.14 4.06 1.306 4.683-36.162 4.212-46.946-.063-1.194-7.037-1.938-7.26-.196z" stroke-opacity=".387" fill-rule="evenodd" transform="matrix(-1.2703 0 0 -1.231 769.626 611.997)" stroke="#000" stroke-width=".626" fill="gold"/>
  <path stroke-linejoin="round" d="M343.17 268.06c-3.977 10.41.38 16.368-1.667 20.964-1.874 6.398-10.026 18.776-3.82 24.69 4.93.227-.863-7.377 9.01-21.466 4.676-6.696-1.196-10.77 3.626-23.707.448-1.106-6.623-2.03-7.26-.39z" stroke-opacity=".387" fill-rule="evenodd" transform="matrix(0 1.231 1.2703 0 40.634 -194.91)" stroke="#000" stroke-width=".626" fill="gold"/>
  <path stroke-linejoin="round" d="M343.17 268.06c-3.977 10.41.38 16.368-1.667 20.964-1.874 6.398-10.026 18.776-3.82 24.69 4.93.227-.863-7.377 9.01-21.466 4.676-6.696-1.196-10.77 3.626-23.707.448-1.106-6.623-2.03-7.26-.39z" stroke-opacity=".387" fill-rule="evenodd" transform="matrix(-.8884 -.88 .908 -.861 434.918 742.67)" stroke="#000" stroke-width=".626" fill="gold"/>
  <path stroke-linejoin="round" d="M343.17 268.06c-3.977 10.41.38 16.368-1.667 20.964-1.874 6.398-10.026 18.776-3.82 24.69 4.93.227-.863-7.377 9.01-21.466 4.676-6.696-1.196-10.77 3.626-23.707.448-1.106-6.623-2.03-7.26-.39z" stroke-opacity=".387" fill-rule="evenodd" transform="matrix(.9076 .8614 .889 -.8794 -196.836 129.834)" stroke="#000" stroke-width=".626" fill="gold"/>
  <path stroke-linejoin="round" d="M343.17 268.06c-3.977 10.41.38 16.368-1.667 20.964-1.874 6.398-10.026 18.776-3.82 24.69 4.93.227-.863-7.377 9.01-21.466 4.676-6.696-1.196-10.77 3.626-23.707.448-1.106-6.623-2.03-7.26-.39z" stroke-opacity=".387" fill-rule="evenodd" transform="matrix(-1.2703 -.007 .0073 -1.231 768.322 616.032)" stroke="#000" stroke-width=".626" fill="gold"/>
  <path stroke-linejoin="round" d="M342.97 268.16c-1.628 11.683-.62 47.677 3.037 46.14 4.06 1.306 4.683-36.162 4.212-46.946-.063-1.194-7.037-1.938-7.26-.196z" stroke-opacity=".387" fill-rule="evenodd" transform="matrix(-.6067 -1.1292 1.1663 -.49 239.93 741.64)" stroke="#000" stroke-width=".626" fill="gold"/>
  <path stroke-linejoin="round" d="M342.97 268.16c-1.628 11.683-.62 47.677 3.037 46.14 4.06 1.306 4.683-36.162 4.212-46.946-.063-1.194-7.037-1.938-7.26-.196z" stroke-opacity=".387" fill-rule="evenodd" transform="matrix(-.8916 -.877 .906 -.864 429.72 734.68)" stroke="#000" stroke-width=".626" fill="gold"/>
  <path stroke-linejoin="round" d="M342.97 268.16c-1.628 11.683-.62 47.677 3.037 46.14 4.06 1.306 4.683-36.162 4.212-46.946-.063-1.194-7.037-1.938-7.26-.196z" stroke-opacity=".387" fill-rule="evenodd" transform="matrix(-1.1693 -.481 .4964 -1.133 616.186 666.337)" stroke="#000" stroke-width=".626" fill="gold"/>
  <path stroke-linejoin="round" d="M343.17 268.06c-3.977 10.41.38 16.368-1.667 20.964-1.874 6.398-10.026 18.776-3.82 24.69 4.93.227-.863-7.377 9.01-21.466 4.676-6.696-1.196-10.77 3.626-23.707.448-1.106-6.623-2.03-7.26-.39z" stroke-opacity=".149" fill-rule="evenodd" transform="matrix(-.8884 -.88 .908 -.861 434.918 742.67)" stroke="#000" stroke-width=".626" fill="gold"/>
  <path stroke-linejoin="round" d="M343.17 268.06c-3.977 10.41.38 16.368-1.667 20.964-1.874 6.398-10.026 18.776-3.82 24.69 4.93.227-.863-7.377 9.01-21.466 4.676-6.696-1.196-10.77 3.626-23.707.448-1.106-6.623-2.03-7.26-.39z" stroke-opacity=".149" fill-rule="evenodd" transform="matrix(.9076 .8614 .889 -.8794 -196.836 129.834)" stroke="#000" stroke-width=".626" fill="gold"/>
  <path stroke-linejoin="round" d="M343.17 268.06c-3.977 10.41.38 16.368-1.667 20.964-1.874 6.398-10.026 18.776-3.82 24.69 4.93.227-.863-7.377 9.01-21.466 4.676-6.696-1.196-10.77 3.626-23.707.448-1.106-6.623-2.03-7.26-.39z" stroke-opacity=".149" fill-rule="evenodd" transform="matrix(-1.2703 -.007 .0073 -1.231 768.322 616.032)" stroke="#000" stroke-width=".626" fill="gold"/>
  <path stroke-linejoin="round" d="M342.97 268.16c-1.628 11.683-.62 47.677 3.037 46.14 4.06 1.306 4.683-36.162 4.212-46.946-.063-1.194-7.037-1.938-7.26-.196z" stroke-opacity=".149" fill-rule="evenodd" transform="matrix(-.6067 -1.1292 1.1663 -.49 239.93 741.64)" stroke="#000" stroke-width=".626" fill="gold"/>
  <path stroke-linejoin="round" d="M342.97 268.16c-1.628 11.683-.62 47.677 3.037 46.14 4.06 1.306 4.683-36.162 4.212-46.946-.063-1.194-7.037-1.938-7.26-.196z" stroke-opacity=".149" fill-rule="evenodd" transform="matrix(-.8916 -.877 .906 -.864 429.72 734.68)" stroke="#000" stroke-width=".626" fill="gold"/>
  <path stroke-linejoin="round" d="M342.97 268.16c-1.628 11.683-.62 47.677 3.037 46.14 4.06 1.306 4.683-36.162 4.212-46.946-.063-1.194-7.037-1.938-7.26-.196z" stroke-opacity=".149" fill-rule="evenodd" transform="matrix(-1.1693 -.481 .4964 -1.133 616.186 666.337)" stroke="#000" stroke-width=".626" fill="gold"/>
  <path d="M328.14 202.66h-3.16" stroke-opacity=".171" transform="matrix(1.2703 0 0 1.231 -130.216 -27.967)" stroke="#000" stroke-width="1pt" fill="none"/>
  <path d="M328.14 202.66h-3.16" stroke-opacity=".171" transform="matrix(1.2703 0 0 1.231 -131.217 -26.466)" stroke="#000" stroke-width="1pt" fill="none"/>
  <path d="M328.14 202.66h-3.16" stroke-opacity=".171" transform="matrix(1.4064 0 0 1.231 -176.307 -23.11)" stroke="#000" stroke-width="1pt" fill="none"/>
  <path d="M328.14 202.66h-3.16" stroke-opacity=".171" transform="matrix(1.4064 0 0 1.231 -177.688 -20.892)" stroke="#000" stroke-width="1pt" fill="none"/>
  <path d="M328.14 202.66h-3.16" stroke-opacity=".171" transform="matrix(1.6786 0 0 1.231 -267.194 -18.637)" stroke="#000" stroke-width="1pt" fill="none"/>
  <path d="M328.14 202.66h-3.16" stroke-opacity=".171" transform="matrix(1.86 0 0 1.231 -326.693 -16.183)" stroke="#000" stroke-width="1pt" fill="none"/>
  <path d="M328.14 202.66h-3.16" stroke-opacity=".171" transform="matrix(1.7693 0 0 1.231 -297.676 -13.662)" stroke="#000" stroke-width="1pt" fill="none"/>
  <path d="M328.14 202.66h-3.16" stroke-opacity=".171" transform="matrix(1.724 0 0 1.231 -282.603 -10.92)" stroke="#000" stroke-width="1pt" fill="none"/>
  <path d="M328.14 202.66h-3.16" stroke-opacity=".171" transform="matrix(1.7693 0 0 1.231 -297.39 -8.426)" stroke="#000" stroke-width="1pt" fill="none"/>
  <path d="M328.14 202.66h-3.16" stroke-opacity=".171" transform="matrix(2.223 0 0 1.231 -444.826 -6.617)" stroke="#000" stroke-width="1pt" fill="none"/>
  <path d="M328.14 202.66h-3.16" stroke-opacity=".171" transform="matrix(1.9063 0 0 1.231 -341.188 -2.192)" stroke="#000" stroke-width="1pt" fill="none"/>
  <path d="M328.14 202.66h-3.16" stroke-opacity=".078" transform="matrix(1.9063 0 0 1.231 -341.046 .162)" stroke="#000" stroke-width="1pt" fill="none"/>
  <path d="M328.14 202.66h-3.16" stroke-opacity=".078" transform="matrix(1.9063 0 0 1.231 -340.044 3.348)" stroke="#000" stroke-width="1pt" fill="none"/>
  <path d="M328.14 202.66h-3.16" stroke-opacity=".078" transform="matrix(1.9063 0 0 1.231 -339.902 6.12)" stroke="#000" stroke-width="1pt" fill="none"/>
  <path d="M328.14 202.66h-3.16" stroke-opacity=".078" transform="matrix(1.9063 0 0 1.231 -338.186 9.167)" stroke="#000" stroke-width="1pt" fill="none"/>
  <path d="M328.14 202.66h-3.16" stroke-opacity=".078" transform="matrix(1.9063 0 0 1.231 -336.47 11.66)" stroke="#000" stroke-width="1pt" fill="none"/>
  <path d="M328.14 202.66h-3.16" stroke-opacity=".078" transform="matrix(1.9063 0 0 1.231 -334.9 14.67)" stroke="#000" stroke-width="1pt" fill="none"/>
  <path d="M328.14 202.66h-3.16" stroke-opacity=".078" transform="matrix(1.9063 0 0 1.231 -333.04 17.34)" stroke="#000" stroke-width="1pt" fill="none"/>
  <path d="M328.14 202.66h-3.16" stroke-opacity=".078" transform="matrix(1.9063 0 0 1.231 -331.763 19.97)" stroke="#000" stroke-width="1pt" fill="none"/>
  <path d="M328.14 202.66h-3.16" stroke-opacity=".078" transform="matrix(1.9063 0 0 1.231 -329.038 23.166)" stroke="#000" stroke-width="1pt" fill="none"/>
  <path d="M328.14 202.66h-3.16" stroke-opacity=".078" transform="matrix(1.226 0 0 1.231 -104.697 26.07)" stroke="#000" stroke-width="1pt" fill="none"/>
  <path d="M328.14 202.66h-3.16" stroke-opacity=".078" transform="matrix(1.9063 0 0 1.231 -341.046 .162)" stroke="#000" stroke-width="1pt" fill="none"/>
  <path d="M328.14 202.66h-3.16" stroke-opacity=".078" transform="matrix(1.9063 0 0 1.231 -340.044 3.348)" stroke="#000" stroke-width="1pt" fill="none"/>
  <path d="M328.14 202.66h-3.16" stroke-opacity=".078" transform="matrix(1.9063 0 0 1.231 -339.902 6.12)" stroke="#000" stroke-width="1pt" fill="none"/>
  <path d="M328.14 202.66h-3.16" stroke-opacity=".078" transform="matrix(1.9063 0 0 1.231 -338.186 9.167)" stroke="#000" stroke-width="1pt" fill="none"/>
  <path d="M328.14 202.66h-3.16" stroke-opacity=".078" transform="matrix(1.9063 0 0 1.231 -336.47 11.66)" stroke="#000" stroke-width="1pt" fill="none"/>
  <path d="M328.14 202.66h-3.16" stroke-opacity=".078" transform="matrix(1.9063 0 0 1.231 -334.9 14.67)" stroke="#000" stroke-width="1pt" fill="none"/>
  <path d="M328.14 202.66h-3.16" stroke-opacity=".078" transform="matrix(1.9063 0 0 1.231 -333.04 17.34)" stroke="#000" stroke-width="1pt" fill="none"/>
  <path d="M328.14 202.66h-3.16" stroke-opacity=".078" transform="matrix(1.9063 0 0 1.231 -331.763 19.97)" stroke="#000" stroke-width="1pt" fill="none"/>
  <path d="M328.14 202.66h-3.16" stroke-opacity=".078" transform="matrix(1.9063 0 0 1.231 -329.038 23.166)" stroke="#000" stroke-width="1pt" fill="none"/>
  <path d="M328.14 202.66h-3.16" stroke-opacity=".078" transform="matrix(1.226 0 0 1.231 -103.976 26.828)" stroke="#000" stroke-width="1pt" fill="none"/>
  <path d="M328.14 202.66h-3.16" stroke-opacity=".134" fill-rule="evenodd" fill-opacity=".867" transform="matrix(-1.2703 0 0 1.231 769.71 -28.694)" stroke="#000" stroke-width="1pt" fill="#00699d"/>
  <path d="M328.14 202.66h-3.16" stroke-opacity=".134" fill-rule="evenodd" fill-opacity=".867" transform="matrix(-1.2703 0 0 1.231 770.71 -26.1)" stroke="#000" stroke-width="1pt" fill="#00699d"/>
  <path d="M328.14 202.66h-3.16" stroke-opacity=".134" fill-rule="evenodd" fill-opacity=".867" transform="matrix(-1.4064 0 0 1.231 816.79 -23.746)" stroke="#000" stroke-width="1pt" fill="#00699d"/>
  <path d="M328.14 202.66h-3.16" stroke-opacity=".134" fill-rule="evenodd" fill-opacity=".867" transform="matrix(-1.4064 0 0 1.231 817.08 -21.63)" stroke="#000" stroke-width="1pt" fill="#00699d"/>
  <path d="M328.14 202.66h-3.16" stroke-opacity=".134" fill-rule="evenodd" fill-opacity=".867" transform="matrix(-1.6786 0 0 1.231 906.69 -19.176)" stroke="#000" stroke-width="1pt" fill="#00699d"/>
  <path d="M328.14 202.66h-3.16" stroke-opacity=".134" fill-rule="evenodd" fill-opacity=".867" transform="matrix(-1.86 0 0 1.231 966.086 -16.82)" stroke="#000" stroke-width="1pt" fill="#00699d"/>
  <path d="M328.14 202.66h-3.16" stroke-opacity=".134" fill-rule="evenodd" fill-opacity=".867" transform="matrix(-1.7693 0 0 1.231 937.163 -14.188)" stroke="#000" stroke-width="1pt" fill="#00699d"/>
  <path d="M328.14 202.66h-3.16" stroke-opacity=".134" fill-rule="evenodd" fill-opacity=".867" transform="matrix(-1.724 0 0 1.231 921.99 -11.666)" stroke="#000" stroke-width="1pt" fill="#00699d"/>
  <path d="M328.14 202.66h-3.16" stroke-opacity=".134" fill-rule="evenodd" fill-opacity=".867" transform="matrix(-1.7693 0 0 1.231 936.888 -9.062)" stroke="#000" stroke-width="1pt" fill="#00699d"/>
  <path d="M328.14 202.66h-3.16" stroke-opacity=".134" fill-rule="evenodd" fill-opacity=".867" transform="matrix(-2.223 0 0 1.231 1084.31 -6.163)" stroke="#000" stroke-width="1pt" fill="#00699d"/>
  <path d="M328.14 202.66h-3.16" stroke-opacity=".134" fill-rule="evenodd" fill-opacity=".867" transform="matrix(-1.9063 0 0 1.231 980.676 -2.828)" stroke="#000" stroke-width="1pt" fill="#00699d"/>
  <path d="M328.14 202.66h-3.16" stroke-opacity=".063" fill-rule="evenodd" fill-opacity=".867" transform="matrix(-1.9063 0 0 1.231 980.63 -.474)" stroke="#000" stroke-width="1pt" fill="#00699d"/>
  <path d="M328.14 202.66h-3.16" stroke-opacity=".063" fill-rule="evenodd" fill-opacity=".867" transform="matrix(-1.9063 0 0 1.231 979.63 2.712)" stroke="#000" stroke-width="1pt" fill="#00699d"/>
  <path d="M328.14 202.66h-3.16" stroke-opacity=".063" fill-rule="evenodd" fill-opacity=".867" transform="matrix(-1.9063 0 0 1.231 979.386 6.482)" stroke="#000" stroke-width="1pt" fill="#00699d"/>
  <path d="M328.14 202.66h-3.16" stroke-opacity=".063" fill-rule="evenodd" fill-opacity=".867" transform="matrix(-1.9063 0 0 1.231 977.674 8.63)" stroke="#000" stroke-width="1pt" fill="#00699d"/>
  <path d="M328.14 202.66h-3.16" stroke-opacity=".063" fill-rule="evenodd" fill-opacity=".867" transform="matrix(-1.9063 0 0 1.231 976.963 11.026)" stroke="#000" stroke-width="1pt" fill="#00699d"/>
  <path d="M328.14 202.66h-3.16" stroke-opacity=".063" fill-rule="evenodd" fill-opacity=".867" transform="matrix(-1.9063 0 0 1.231 974.382 13.933)" stroke="#000" stroke-width="1pt" fill="#00699d"/>
  <path d="M328.14 202.66h-3.16" stroke-opacity=".063" fill-rule="evenodd" fill-opacity=".867" transform="matrix(-1.9063 0 0 1.231 972.626 16.71)" stroke="#000" stroke-width="1pt" fill="#00699d"/>
  <path d="M328.14 202.66h-3.16" stroke-opacity=".063" fill-rule="evenodd" fill-opacity=".867" transform="matrix(-1.9063 0 0 1.231 971.26 19.34)" stroke="#000" stroke-width="1pt" fill="#00699d"/>
  <path d="M328.14 202.66h-3.16" stroke-opacity=".063" fill-rule="evenodd" fill-opacity=".867" transform="matrix(-1.9063 0 0 1.231 968.623 22.62)" stroke="#000" stroke-width="1pt" fill="#00699d"/>
  <path d="M328.14 202.66h-3.16" stroke-opacity=".063" fill-rule="evenodd" fill-opacity=".867" transform="matrix(-1.226 0 0 1.231 744.08 26.426)" stroke="#000" stroke-width="1pt" fill="#00699d"/>
  <path d="M328.14 202.66h-3.16" stroke-opacity=".063" transform="matrix(-1.9063 0 0 1.231 980.63 -.474)" stroke="#000" stroke-width="1pt" fill="none"/>
  <path d="M328.14 202.66h-3.16" stroke-opacity=".063" transform="matrix(-1.9063 0 0 1.231 979.63 2.712)" stroke="#000" stroke-width="1pt" fill="none"/>
  <path d="M328.14 202.66h-3.16" stroke-opacity=".063" transform="matrix(-1.9063 0 0 1.231 979.386 6.482)" stroke="#000" stroke-width="1pt" fill="none"/>
  <path d="M328.14 202.66h-3.16" stroke-opacity=".063" transform="matrix(-1.9063 0 0 1.231 977.674 8.63)" stroke="#000" stroke-width="1pt" fill="none"/>
  <path d="M328.14 202.66h-3.16" stroke-opacity=".063" transform="matrix(-1.9063 0 0 1.231 976.963 11.026)" stroke="#000" stroke-width="1pt" fill="none"/>
  <path d="M328.14 202.66h-3.16" stroke-opacity=".063" transform="matrix(-1.9063 0 0 1.231 974.382 13.933)" stroke="#000" stroke-width="1pt" fill="none"/>
  <path d="M328.14 202.66h-3.16" stroke-opacity=".063" transform="matrix(-1.9063 0 0 1.231 972.626 16.71)" stroke="#000" stroke-width="1pt" fill="none"/>
  <path d="M328.14 202.66h-3.16" stroke-opacity=".063" transform="matrix(-1.9063 0 0 1.231 971.26 19.34)" stroke="#000" stroke-width="1pt" fill="none"/>
  <path d="M328.14 202.66h-3.16" stroke-opacity=".063" transform="matrix(-1.9063 0 0 1.231 968.623 22.62)" stroke="#000" stroke-width="1pt" fill="none"/>
  <path d="M328.14 202.66h-3.16" stroke-opacity=".063" transform="matrix(-1.226 0 0 1.231 744.08 26.426)" stroke="#000" stroke-width="1pt" fill="none"/>
  <path stroke-linejoin="round" d="M330.84 211.83c7.626-4.83 17.464-2.31 21.63.316-6.09-1.166-6.196-1.68-10.606-1.786-3.116.106-7.7-.21-11.024 1.47z" stroke-opacity=".387" fill-rule="evenodd" transform="matrix(-1.2703 0 0 1.231 770.29 -29.23)" stroke="#000" stroke-width=".626" fill="#f0bf00"/>
  <path d="M348.06 211.3c-3.676 7.666-10.08 7.77-14.694-.42" stroke-opacity=".387" transform="matrix(1.2703 0 0 1.231 -97.703 -29.648)" stroke="#000" stroke-width=".626" fill="none"/>
  <path d="M341.926 233.637c-1.43 1.46-4.93 2.31-7.816 1.924s-4.067-1.874-2.637-3.324c1.43-1.46 4.928-2.31 7.816-1.924s4.067 1.876 2.637 3.326z" fill-rule="evenodd" fill-opacity=".368"/>
  <path d="M336.073 231.618c.142.362-.298.82-.986 1.046s-1.368.12-1.6-.232c-.144-.36.297-.82.983-1.044s1.36-.12 1.603.232z" fill-rule="evenodd" fill="gold"/>
</svg>
