<svg xmlns="http://www.w3.org/2000/svg" height="480" width="640">
  <defs>
    <clipPath id="a">
      <path fill-opacity=".67" d="M0 0h640v480H0z"/>
    </clipPath>
  </defs>
  <g clip-path="url(#a)">
    <path fill="#006" d="M-374-16H660v612H-374z"/>
    <path d="M-374 240L660 496V-16L-374 240z" fill-rule="evenodd" fill="#bd1021"/>
    <path d="M660 11.43v467.14L-264.29 240 660 11.43z" fill-rule="evenodd" fill="#fff"/>
    <g stroke="#000">
      <path stroke-linejoin="round" d="M478 297.4s-6.392-6.23 1.163-13.668c-4.068-3.486-.29-10.17-.29-10.17s-6.976-2.616.29-13.366c-6.23-3.487-2.906-11.333-2.906-11.333s-17.144-6.393-.87-12.494c-13.368 6.81-26.863-7.848-26.863-7.848l-19.468.682c-3.302-16.172-28.97-2.127-9.888-48.62-4.94-.872-10.46-2.324-16.982 1.744-6.622 4.067-21.212 12.784-30.61 4.067s6.1-21.212 6.392-21.602c.29-.29 20.63-10.76 23.636-17.726-.29-6.23-6.682-9.298-.872-20.63 6.683-10.763 47.66-20.923 66.26-24.41 9.007-4.068 13.076-11.914 13.076-11.914l2.034 7.666s41.262-12.206 43.296-18.016.872 6.23.872 6.23c16.272-1.463 36.903-16.4 39.81-9.008 13.666-2.616 39.81-14.238 39.81-14.238s9.006-.29 2.613 9.69c4.068 6.392-1.162 11.913-1.462 11.913-.29 0 1.743 6.394-3.487 9.88 1.746 6.622-3.197 9.88-3.197 9.88s2.326 6.684-6.973 10.17c.872 6.812-6.23 6.976-6.23 6.976s.872 6.102-3.196 8.717c0 4.66-4.66 6.974-4.66 6.974s2.906 1.743-1.163 4.66c-4.067 2.906-46.2 28.766-46.2 28.476 0-.29 30.8 6.62 32.834 6.683s26.28 16.664 26.28 16.664l-23.637 29.066s-26.16-2.906-27.312-1.462 6.62 2.034 6.973 4.368c1.466 2.324 3.78 7.847 8.428 7.266 4.66-.682-8.717 8.427-17.434 9.3 0 3.196 11.04 3.486 13.947.87 2.907-2.616-6.973 7.666-8.136 9.008s13.077-2.034 13.077-2.034-2.324 9.69-14.818 12.496c4.94 8.136 2.906 13.367 2.614 13.367s-8.136-8.137-16.69-6.684c2.033 7.846 8.136 16.108 9.88 16.272 1.742 1.162-13.668.87-16.692-3.488s-3.778 10.46 1.743 16.11c-6.392.29-11.914-3.487-11.914-3.487s-3.776 8.717-1.162 13.077c2.617 4.36-9.006-8.718-9.006-8.718l-22.084 9.3-4.94-8.428z" fill-rule="evenodd" stroke-width="1.761" fill="#9c3900"/>
      <path d="M307.326 280.1c.618 0 32.082-.618 46.672-8.797 7.244 11.384 17.076 19.146 17.076 19.146l4.668-16.66s11.386.618 12.42 3.106c-1.663 3.103-2.07 7.243-2.07 7.243s7.76.618 8.28 1.662c.616 1.036-2.07 9.83-2.07 9.83l33.116 7.763s2.687-12.936 6.176-11.384c2.688 1.664 13.972 17.696 30.013 18.63s17.076-13.466 17.076-13.466l3.62 2.07s6.728-14.487 7.763-14.487 2.688 2.07 11.384 2.07c2.687 3.104 3.623 10.347 3.623 10.347s-9.833 9.833-6.728 17.696 3.623 6.69 3.623 6.69l71.408 17.077s3.624 6.693-2.686 8.798c0 .617-71.927-16.66-71.927-16.66s-6.728 7.762-11.902 6.21-1.662 3.106-1.662 3.106l77.618 6.21s6.692 7.244 1.662 9.314c-6.174.617-83.827-6.174-83.827-6.174s-4.66 9.83-9.833 1.662c-3.62 6.69-7.762-1.662-7.762-1.662s-6.726 6.174-7.762-.62c-6.692 4.14-9.314-2.686-9.314-2.686l-33.118-2.07-2.07 3.104s6.692 1.66-3.106 6.174c-8.796 3.622 62.78 2.07 64.333 2.687 1.662.62-4.14 6.176-4.14 6.176s31.666 2.07 37.267-4.667c6.692-6.73-2.07 8.796-2.07 8.796s24.84-1.034 24.84-2.07-.62 7.763-17.696 6.727c10.36 6.728 23.286 10.867 23.286 10.867s-12.936 3.104-27.942-.618c2.686 6.727 13.972 12.936 13.972 12.936s-8.28 7.246-26.91-10.36c6.176 9.316 1.036 12.938.62 11.902-.62-1.036-9.316-13.97-30.013-18.628 12.936 8.28 7.243 11.902 7.243 11.902s-6.726-11.902-17.693 0c-4.14-10.867-20.18-17.076-39.844-18.112-6.21-7.243-9.83-6.174-24.32-9.314-8.28-9.313-20.18-19.663-20.18-19.663s.617-13.97 14.488-12.42c1.662 4.668 1.662 3.106 1.662 3.106s16.624-6.692 20.18 2.07c6.728-11.902 16.042-1.78 17.696 2.36 4.468.664 26.907 1.262 26.907 1.262s-2.688-4.667-1.036-4.14c1.662.618 13.97-4.666 13.464-6.208-.617-1.663-1.034-6.727 1.036-6.21 2.07.617-17.693-2.688-28.46 6.693-3.622-3.623-1.036-13.466-1.036-13.466l-32.08-6.726-1.664 8.28s-9.314 1.66-8.796-.618c.617-2.07-2.07 7.243-2.07 7.243s-12.42-3.104-12.42-3.62 3.623-18.63 3.623-18.112c0 .618-10.36 1.036-24.838 11.902-4.14-12.936-36.74-30.012-36.74-30.63z" fill-rule="evenodd" stroke-width="1.878" fill="#ffc221"/>
      <path d="M386.98 284.763l-6.727 30.013m12.936-18.63l-2.07 9.83m36.189-2.068l-3.106 9.314m60.646 63.808c-.617 0-16.668 2.07-18.63 1.664-2.068-.617 26.367 8.28 26.367 11.9m-36.706-9.818s-16.04-10.348-18.628-9.314c-2.687 1.036 16.04-.617 17.694-2.07m-32.086-.62s-16.668.617-18.11-1.036 16.04 11.384 19.146 10.36m-33.118-16.669c-.618 0-11.386-4.14-16.04-6.176 4.138 4.14 7.243 9.833 17.692 11.902m2.688-13.446c-.618-1.036-20.698-7.246-20.698-10.36 4.666 1.663 11.383 3.622 17.692 2.07m110.221-16.628l-2.07 9.314" stroke-width="1.878" fill="none"/>
      <path d="M347.688 237.67s-21.734 18.628 0 29.494c1.034-7.244 2.687-8.278 2.687-8.278s18.11 6.726 28.977-9.316c-4.667-6.726-12.937-4.138-12.937-4.138s-17.076 0-18.628-7.76z" fill-rule="evenodd" stroke-width="1.878" fill="#ffc221"/>
      <path d="M366.8 246.964l-16.006 12.936m61.222 76.91s3.46 3.814.364 8.47m72.46-4.662l-6.692.62m-40.881-3.633l10.36 1.662m17.486-28.162s.29 10.46-8.427 10.17c-8.717-.29-6.812.29-6.812.29" stroke-width="1.878" fill="none"/>
      <path d="M472.774 308.148s3.487 1.162 2.616 3.778c-.872 2.614.87 10.17-9.298 17.434-10.763 2.324-9.69-9.007-9.69-9.007" stroke-width="1.878" fill="none"/>
      <path d="M476.66 311.346s6.392-3.777 7.264 2.326c.87 6.102-6.23 17.436-9.69 19.18-4.368 1.742-9.297-.292-8.717-3.197m18.889-16.688s6.813-4.66 7.666 1.462c1.746 6.103-4.648 19.76-7.264 20.06m7.837-20.061s2.907-1.463 4.94.29m-14.237 20.629c-1.162.29-6.102.68-7.846-3.196m-18.3-6.976c-.29 0-6.102.292-6.102.292m28.472 22.67l-.68-9.69-2.326-3.196-4.068 4.068s-.683 9.69-2.326 10.46m2.327-10.76c-.292-.68-3.198-6.1-3.198-6.1l-4.94 6.1s-.68 8.72-2.324 9.692m2.318-9.887c0-.29-2.034-6.81-2.034-6.81s-6.81 3.196-6.392 6.62c-.68 2.326-.872 8.717-2.326 9.3m2.327-10.461s.682-6.23-1.162-6.23c-1.742 0-9.69 7.266-9.88 13.667" stroke-width="1.878" fill="none"/>
      <path stroke-linejoin="round" d="M348.402 237.826s2.906-2.906 3.777-6.392c.87-3.487-1.163-7.266 2.324-10.46 3.487-3.198 49.397-22.666 63.176-26.444 3.777-3.778 10.76-11.914 11.623-13.668.87-1.743 3.487 8.717-4.36 13.367 8.428-2.326 13.96-4.94 17.436-3.78-3.487 4.94-12.786 13.078-17.144 13.078 10.17-3.778 19.47-6.976 22.084-4.94 2.616 2.034-12.496 12.204-18.697 12.786 10.17-2.616 23.83-6.683 26.672-2.326-6.62 1.744-3.78 3.196-16.11 9.69-1.463 1.163-8.717 1.462-8.717 1.462 8.717-.872 20.63-4.36 21.792 2.034-6.973 2.616-9.688 6.102-16.4 7.666-6.81 1.463-19.178 4.067-27.316 7.264-8.136 3.196-20.06 12.496-20.06 12.496s-26.86.87-26.86.68c0-.29-4.94-11.914-6.23-12.206z" fill-rule="evenodd" stroke-width="1.878" fill="#fff"/>
      <path d="M360.606 236.797s.29-6.81 2.906-7.846c2.616-2.034 16.693-6.976 18.6-11.333 2.904-4.36-4.36 7.664-3.198 10.76m-13.077-.292s6.393 2.326 4.94 7.266" stroke-width="1.878" fill="none"/>
      <path d="M373.39 230.422a4.794 4.794 0 1 1-9.69.001 4.794 4.794 0 0 1 9.691-.001z" stroke-width="1.631" fill="none"/>
      <path d="M670.116 220.104l60.27 9.69s6.62-6.394 2.616-9.88c7.666-1.743 6.622-11.623 6.622-11.623s8.717-3.776 1.462-12.496c4.942-4.94-1.162-8.717-1.162-8.717s2.034-8.717-4.36-9.69c1.746-6.972-11.04-9.297-11.04-9.297s-26.443 7.266-46.04 7.847c6.102 6.102-2.326 9.88-2.326 9.88s4.94 3.486 3.487 6.392c-1.463 2.906.872 6.1-6.62 8.136 8.426 3.778-.873 10.17-.873 10.17s9.3 6.392 6.976 9.688z" fill-rule="evenodd" stroke-width="1.878" fill="#fff"/>
      <path d="M666.17 209.366s44.46 6.23 46.494 6.23 9.88 2.616 11.333 6.23m-66.602-13.081l61.893 1.463m-61.698-2.903s68.698-3.487 62.766-9.69m-61.032-3.196s68.988-6.394 69.67-6.622m-61.699-1.744s67.244-9.007 67.826-7.666m-221.127-29.347s18.016 19.76 16.272 33.126" stroke-width="1.878" fill="none"/>
      <path d="M419.303 170.997s6.81 8.426 8.136 9.298 22.666 2.034 23.827 10.762c1.162 6.62-4.368 3.777-3.486 7.846 1.463 6.23 16.11 11.913 29.93 4.068m-13.666 4.07s12.203 18.017 30.22-1.46m-9.301 7.847s14.82 7.846 27.023-12.496M496.3 216.16s7.264 6.102 22.376-2.033m20.927-8.137s22.376 4.647 23.828 6.1m-16.404-11.032c.29 0 16.692.682 16.692.682m-26.286-9.303s26.733-1.743 30.22 3.778m-41.842-12.206s37.486 1.463 39.228 3.487m-30.804 34.863s6.393-1.743 7.266-.87m-21.788 16.662s8.426 7.266 19.18 4.068m-14.633 8.146s9.69 4.368 20.923 1.742m-17.723 6.612s9.688 6.393 16.98 6.23m-20.334-1.44s6.683 4.94 6.973 7.666m-16.269-1.761s2.033 10.46 9.298 14.237m-14.244-9.689s-3.196 13.668 4.94 22.084M601.64 281.41c0 .29-.68 6.393-.29 6.976m-62.016-69.867l16.692-.872s6.81-2.324 1.742-6.1m2.034 3.494c.292 0 14.82 1.16 18.698 6.62 3.778 4.368 8.428 13.076 11.042 14.63 2.616 1.46 3.197-.683 3.197-.683m-6.396-2.326s-7.846 13.368-1.743 17.436m-2.624-2.616s-6.973 9.3-1.463 13.948m-1.449-1.17s-6.62 9.008 1.163 16.11m-3.699-39.003c-.376.376-6.76 4.874-9 3.76m2.26 10.493s2.626 2.624 4.876 2.26M479 273.776l4.19 2.872m-3.626 7.666l3.624 2.186m-69.266-144.7s7.64 3.974 13.76 0c6.112-3.97 36.446-18.943 43.086-21.388 7.638-2.446 11.917-16.6 13.446-22.61M478.41 114.2l42.78-12.627s7.027-6.806 7.332-16.6m-3.062 11.611s42.778-4.278 42.778-20.167m-6.716 10.999S606.44 76.393 610.72 70.81" stroke-width="1.878" fill="none"/>
      <path d="M436.233 161.48s27.196-14.067 31.473-16.684c4.277-1.628 14.066-13.76-.61-13.76" stroke-width="1.878" fill="none"/>
      <path d="M449.376 166.98c.306 0 22.306-14.363 29.64-16.196 3.972-6.6 1.833-11.306-4.89-10.083" stroke-width="1.878" fill="none"/>
      <path d="M480.846 137.118c.612-.306 11.918-.612 7.946 8.26-6.802 4.278-30.86 16.806-30.86 16.806m17.111-34.629l47.67-16.89s3.973-8.26-1.832-9.472m39.727-14.363c0 .307 6.112 3.668 2.446 9.168-6.722 3.973-38.6 11.612-38.6 11.612m84.331-26.667L663.966 96.66m41.661-2.443l-39.11 11.917m36.768-2.139l-34.63 10.39m28.106-.613c-.917 0-26.667 7.64-26.667 7.64m20.173 0l-16.89 6.417m11.917 2.138c-.61 0-13.76 6.806-13.76 6.806m9.777 1.223l-12.22 6.806m-8.867 7.336s1.628.61 1.222 2.446m-32.087 14.36s6.196 1.834.306 6.723c-2.444 3.36-9.472 2.446-13.76 8.666m46.76-83.724s6.418 1.628 1.628 9.778c-12.834 4.89-38.807 12.833-38.807 12.833s-1.22 2.14-4.682 3.973c-3.36 1.832-40.334 12.22-40.334 12.22m84.336-29.332s7.028 3.066 0 8.26c-7.946 4.684-36.76 13.14-36.76 13.14s-.307 2.444-1.628 3.36c-1.223.917-37.89 13.14-37.89 13.14" stroke-width="1.878" fill="none"/>
      <path d="M667.636 116.116s7.334 2.14.917 8.26c-7.64 4.684-32.084 12.834-32.084 12.834s-2.446 3.066-6.418 4.278c-3.972 1.222-29.333 11.61-29.333 11.61m68.76-28.721c2.14.917 7.946 1.834.917 7.334-8.26 3.667-28.417 11.612-28.417 11.612l-1.834 3.36-32.083 13.76m63.249-27.806s3.064 3.667-3.668 7.946c-7.334 3.972-23.222 10.083-23.222 10.083m23.226-9.473s3.36 2.14-.916 6.196c-4.89 2.444-24.14 12.628-24.14 12.628l-12.628 8.26" stroke-width="1.878" fill="none"/>
      <path d="M623.63 112.06c0 .307 6.194 4.684 3.36 9.473 4.684 3.362 3.667 7.028 3.667 7.028s6.416 3.668 6.6 8.863c6.417 1.628 6.11 6.194 6.11 6.194l-2.138 3.36s6.416-.304.916 7.946c3.36 1.833 1.834 3.972 1.834 3.972m-1.839-3.666c-.917 0-22.306 7.944-27.806 12.833" stroke-width="1.878" fill="none"/>
      <path d="M489.41 144.767s6.418-.306 6.602 6.722c7.334-2.446 6.806 4.683 6.806 4.683s8.666-3.362 7.028 7.333c6.6-1.222 4.683 4.278 4.683 4.278s4.89-.306 4.89 2.444c3.36-3.066 7.028-1.627 7.028-1.627s2.444-3.36 6.806-2.444m-34.836-14.972c0 .61-28.723 16.6-28.723 16.6m34.218-11.307l-21.696 13.446m29.034-6.722c0 .306-18.946 11.306-18.946 11.306m23.227-7.028s-13.444 11-16.6 10.39m21.08-7.028s-7.64 6.806-14.067 8.666m22.001-11s2.444 3.066-12.833 11" stroke-width="1.878" fill="none"/>
    </g>
  </g>
</svg>
