<svg xmlns="http://www.w3.org/2000/svg" height="480" width="640" version="1">
  <g stroke-width="1pt">
    <path fill="#006" d="M0 0h640v480H0z"/>
    <path d="M0 0v27.96L307.037 260h38.647v-27.96L38.647 0H0zm346.684 0v27.96L38.647 260H0v-27.96L307.037 0h38.647z" fill="#fff"/>
    <path d="M144.036 0v260h67.614V0h-67.616zM0 83.333v83.333h346.684V83.333H0z" fill="#fff"/>
    <path d="M0 100v60h346.684v-60H0zM166.668 0v260h34.668V0h-34.668zM0 260l116.228-83.334h26.766L26.766 260H0zM0 0l116.228 83.333H89.463L0 18.633V0zm204.69 83.333L319.92 0h26.764L230.466 83.333H204.69zM346.686 260l-116.228-83.334h26.766l89.464 64.7V260z" fill="#c00"/>
    <path d="M299.762 392.623l-43.663 3.796 6.013 43.406-30.187-31.764-30.186 31.764 6.014-43.406-43.663-3.796 37.68-22.364-24.244-36.496 40.97 16.614 13.42-41.713 13.42 41.712 40.97-16.616-24.242 36.494m224.444 62.372l-10.637-16.864 17.81 6.742 6.824-18.126 6.826 18.126 17.807-6.742-10.637 16.864 16.37 9.718-18.966 1.66 2.616 18.86-13.116-13.793-13.117 13.794 2.616-18.86-18.964-1.66m16.368-291.816l-10.637-16.866 17.81 6.742 6.824-18.122 6.826 18.12 17.807-6.74-10.637 16.866 16.37 9.717-18.966 1.66 2.616 18.86-13.116-13.793-13.117 13.794 2.616-18.86-18.964-1.66m-89.418 104.883l-10.637-16.863 17.808 6.742 6.826-18.126 6.826 18.126 17.808-6.742-10.636 16.863 16.37 9.72-18.966 1.66 2.616 18.86-13.117-13.796-13.117 13.796 2.617-18.86-18.964-1.66m216.212-37.929l-10.668-16.864 17.822 6.742 6.782-18.126 6.864 18.126 17.772-6.742-10.608 16.864 16.362 9.718-18.97 1.66 2.608 18.86-13.118-13.793-13.117 13.793 2.61-18.86-18.936-1.66m-22.261 73.394l-10.367 6.426 2.914-11.84-9.316-7.863 12.166-.896 4.606-11.29 4.606 11.29 12.166.897-9.317 7.863 2.912 11.84" fill-rule="evenodd" fill="#fff"/>
  </g>
</svg>
