<svg xmlns="http://www.w3.org/2000/svg" height="480" width="640">
  <defs>
    <clipPath id="a">
      <path fill-opacity=".67" d="M0 0h288v216H0z"/>
    </clipPath>
  </defs>
  <g transform="scale(2.2222)" clip-path="url(#a)">
    <path fill="#39c" d="M0 0v216h324V0H0z"/>
    <path fill="#ff0" d="M0 144v12h324v-12H0zm0 24v12h324v-12H0z"/>
  </g>
  <path fill="#9cc" d="M142.647 28.067l2.962 2.962-2.963-2.963zm-2.962 6.903l2.962 2.963-2.962-2.962m6.904 0l2.96 2.963-2.96-2.962z"/>
  <path fill="#ccf" d="M139.696 36.923l2.962 2.962-2.962-2.962m6.904 0l2.96 2.962-2.96-2.962z"/>
  <path fill="#6cc" d="M136.743 42.827l2.962 2.962-2.962-2.963z"/>
  <path fill="#c66" d="M142.647 42.827l2.962 2.962-2.963-2.963z"/>
  <path fill="#6cc" d="M148.66 42.827l2.963 2.962-2.962-2.963z"/>
  <path fill="#ccf" d="M136.743 46.78l2.962 2.96-2.962-2.96zm11.807 0l2.963 2.96-2.962-2.96z"/>
  <path fill="#fcc" d="M139.696 48.73l2.962 2.964-2.962-2.963m6.904 0l2.96 2.964-2.96-2.963z"/>
  <path fill="#6cc" d="M133.79 61.684l2.963 2.962-2.962-2.962z"/>
  <path d="M142.16 34.066l-20.696 78.46-78.68 21.367 78.463 20.476 20.922 78.46 20.918-78.46 78.462-20.922-78.462-20.922-20.918-78.46z" stroke="#fff" stroke-width="3.69" fill="#c00"/>
  <path fill="#6cc" d="M161.603 61.684l2.962 2.962-2.962-2.962z"/>
  <path fill="#9cf" d="M133.79 64.636l2.963 2.962-2.962-2.962m17.713 0l2.962 2.962-2.962-2.962z"/>
  <path fill="#fcc" d="M136.743 67.688l2.962 2.962-2.962-2.962m11.808 0l2.963 2.962-2.962-2.962z"/>
  <path fill="#69c" d="M130.838 60.64l2.963 2.962-2.962-2.962z"/>
  <path fill="#c33" d="M137.726 62.61l.984 1.967-.984-1.968m11.808 0l.984 1.967-.984-1.968z"/>
  <path fill="#69c" d="M164.466 60.64l2.962 2.962-2.962-2.962z"/>
  <path fill="#9cf" d="M130.838 63.492l2.963 2.962-2.962-2.962m23.617 0l2.962 2.962-2.962-2.962z"/>
  <path fill="#fcc" d="M133.79 66.444l2.963 2.962-2.962-2.962m17.713 0l2.962 2.962-2.962-2.962z"/>
  <path fill="#69c" d="M127.886 69.396l2.962 2.962-2.962-2.962zm29.621 0l2.962 2.962-2.963-2.962z"/>
  <path fill="#9cc" d="M127.886 72.348l2.962 2.962-2.962-2.962m29.62 0l2.963 2.962-2.963-2.962z"/>
  <path fill="#cff" d="M127.886 76.3l2.962 2.962-2.962-2.962m29.62 0l2.963 2.962-2.963-2.962z"/>
  <path fill="#69c" d="M124.934 78.262l2.962 2.962-2.962-2.962z"/>
  <path fill="#fcc" d="M130.838 78.262l2.963 2.962-2.962-2.962m23.617 0l2.962 2.962-2.962-2.962z"/>
  <path fill="#69c" d="M160.36 78.262l2.96 2.962-2.96-2.962z"/>
  <path fill="#9cc" d="M124.934 81.204l2.962 2.963-2.962-2.962z"/>
  <path fill="#c33" d="M131.82 83.174l.986 1.967-.986-1.966m23.618 0l.984 1.967-.984-1.966z"/>
  <path fill="#9cc" d="M160.36 81.204l2.96 2.963-2.96-2.962z"/>
  <path fill="#cff" d="M124.934 84.167l2.962 2.962-2.962-2.963m36.426 0l2.96 2.962-2.96-2.963z"/>
  <path fill="#fcc" d="M127.886 87.11l2.962 2.96-2.962-2.96m29.62 0l2.963 2.96-2.963-2.96z"/>
  <path fill="#9cc" d="M121.982 90.06l2.962 2.963-2.962-2.962z"/>
  <path fill="#c33" d="M128.87 92.03l.984 1.968-.986-1.968m29.62 0l.986 1.968-.986-1.968z"/>
  <path fill="#9cc" d="M163.31 90.06l2.964 2.963-2.963-2.962z"/>
  <path fill="#ccf" d="M121.982 93.013l2.962 2.962-2.962-2.962m41.33 0l2.962 2.962-2.963-2.962z"/>
  <path fill="#fcc" d="M124.934 96.966l2.962 2.962-2.962-2.962m36.426 0l2.96 2.962-2.96-2.962z"/>
  <path fill="#9cc" d="M119.03 98.917l2.962 2.962-2.962-2.963z"/>
  <path fill="#c33" d="M126.917 100.886l.984 1.968-.983-1.968m36.426 0l.986 1.968-.986-1.968z"/>
  <path fill="#9cc" d="M166.264 98.917l2.962 2.962-2.962-2.963z"/>
  <path fill="#ccf" d="M119.03 101.87l2.962 2.96-2.962-2.96m47.234 0l2.962 2.96-2.962-2.96z"/>
  <path fill="#fcc" d="M121.982 104.82l2.962 2.963-2.962-2.962m41.33 0l2.962 2.963-2.963-2.962z"/>
  <path fill="#9cc" d="M116.078 107.773l2.962 2.962-2.962-2.962z"/>
  <path fill="#c33" d="M121.982 107.773l2.962 2.962-2.962-2.962m41.33 0l2.962 2.962-2.963-2.962z"/>
  <path fill="#9cc" d="M169.216 107.773l2.962 2.962-2.962-2.962m-61.994 2.962l2.962 2.963-2.962-2.962z"/>
  <path fill="#ccf" d="M110.174 110.726l2.962 2.963-2.962-2.962m64.946 0l2.962 2.962-2.962-2.962z"/>
  <path fill="#9cc" d="M178.072 110.726l2.962 2.963-2.962-2.962m-79.707 2.962l2.962 2.962-2.962-2.962z"/>
  <path fill="#ccf" d="M101.317 113.678l2.963 2.962-2.963-2.962z"/>
  <path fill="#fcc" d="M113.126 113.678l2.962 2.962-2.962-2.962z"/>
  <path fill="#c33" d="M116.078 113.678l2.962 2.962-2.962-2.962m63.138 0l2.962 2.962-2.962-2.962z"/>
  <path fill="#fcc" d="M172.168 113.678l2.962 2.962-2.962-2.962z"/>
  <path fill="#ccf" d="M183.976 113.678l2.962 2.962-2.962-2.962z"/>
  <path fill="#9cc" d="M186.928 113.678l2.962 2.962-2.962-2.962z"/>
  <path fill="#69c" d="M86.667 116.63l2.962 2.962-2.963-2.962z"/>
  <path fill="#9cc" d="M89.61 116.63l2.96 2.962-2.96-2.962z"/>
  <path fill="#cff" d="M92.46 116.63l2.963 2.962-2.962-2.962z"/>
  <path fill="#fcc" d="M104.27 116.63l2.962 2.962-2.962-2.962z"/>
  <path fill="#c33" d="M109.19 117.613l1.97.984-1.97-.984m67.9 0l1.967.984-1.968-.984z"/>
  <path fill="#fcc" d="M181.024 116.63l2.962 2.962-2.962-2.962z"/>
  <path fill="#cff" d="M192.833 116.63l2.962 2.962-2.962-2.962z"/>
  <path fill="#9cc" d="M196.786 116.63l2.962 2.962-2.962-2.962z"/>
  <path fill="#69c" d="M198.737 116.63l2.962 2.962-2.963-2.962M77.7 119.682l2.963 2.962-2.962-2.962z"/>
  <path fill="#9cc" d="M80.663 119.682l2.962 2.962-2.962-2.962z"/>
  <path fill="#cff" d="M83.606 119.682l2.962 2.962-2.962-2.962z"/>
  <path fill="#fcc" d="M96.413 119.682l2.962 2.962-2.962-2.962z"/>
  <path fill="#c33" d="M100.334 120.666l1.968.984-1.968-.986m86.61 0l1.97.984-1.97-.986z"/>
  <path fill="#fcc" d="M189.88 119.682l2.963 2.962-2.963-2.962z"/>
  <path fill="#cff" d="M201.69 119.682l2.96 2.962-2.96-2.962z"/>
  <path fill="#9cc" d="M204.64 119.682l2.963 2.962-2.962-2.962z"/>
  <path fill="#69c" d="M207.693 119.682l2.962 2.962-2.962-2.962m-138.76 2.962l2.963 2.962-2.962-2.962z"/>
  <path fill="#9cf" d="M71.796 122.634l2.962 2.962-2.962-2.962z"/>
  <path fill="#fcc" d="M86.667 122.634l2.962 2.962-2.963-2.962z"/>
  <path fill="#c33" d="M91.478 123.617l1.968.984-1.968-.983m103.324 0l1.967.984-1.968-.983z"/>
  <path fill="#fcc" d="M198.737 122.634l2.962 2.962-2.963-2.962z"/>
  <path fill="#9cf" d="M213.497 122.634l2.962 2.962-2.963-2.962z"/>
  <path fill="#69c" d="M216.46 122.634l2.96 2.962-2.96-2.962z"/>
  <path fill="#6cc" d="M69.988 126.486l2.962 2.962-2.962-2.962z"/>
  <path fill="#9cf" d="M62.94 126.486l2.962 2.962-2.962-2.962z"/>
  <path fill="#fcc" d="M74.76 126.486l2.96 2.962-2.96-2.962zm136.796 0l2.962 2.962-2.962-2.962z"/>
  <path fill="#9cf" d="M222.363 126.486l2.963 2.962-2.963-2.962z"/>
  <path fill="#6cc" d="M226.306 126.486l2.962 2.962-2.962-2.962m-174.174 2.962l2.962 2.962-2.962-2.962z"/>
  <path fill="#ccf" d="M64.084 128.438l2.962 2.962-2.962-2.962z"/>
  <path fill="#fcc" d="M66.892 128.438l2.962 2.962-2.962-2.962z"/>
  <path fill="#c33" d="M70.813 129.42l1.968.986-1.967-.984m144.663 0l1.968.986-1.968-.984z"/>
  <path fill="#fcc" d="M219.4 128.438l2.964 2.962-2.963-2.962z"/>
  <path fill="#ccf" d="M231.21 128.438l2.962 2.962-2.962-2.962z"/>
  <path fill="#6cc" d="M234.162 128.438l2.962 2.962-2.962-2.962z"/>
  <path fill="#9cc" d="M42.276 131.39l2.962 2.962-2.962-2.962z"/>
  <path fill="#ccf" d="M46.227 131.39l2.963 2.962-2.962-2.962z"/>
  <path fill="#fcc" d="M67.036 131.39l2.962 2.962-2.962-2.962zm171.222 0l2.962 2.962-2.962-2.962z"/>
  <path fill="#ccf" d="M240.066 131.39l2.962 2.962-2.962-2.962z"/>
  <path fill="#9cc" d="M243.018 131.39l2.962 2.962-2.962-2.962M36.37 134.342l2.963 2.962-2.962-2.962z"/>
  <path fill="#c66" d="M61.132 134.342l2.962 2.962-2.962-2.962zm183.03 0l2.962 2.962-2.962-2.962z"/>
  <path fill="#9cc" d="M248.922 134.342l2.963 2.962-2.963-2.962m-206.647 2.962l2.962 2.963-2.962-2.963z"/>
  <path fill="#ccf" d="M46.227 137.294l2.963 2.963-2.962-2.963z"/>
  <path fill="#fcc" d="M67.036 137.294l2.962 2.963-2.962-2.963m171.222 0l2.962 2.963-2.962-2.963z"/>
  <path fill="#ccf" d="M240.066 137.294l2.962 2.963-2.962-2.963z"/>
  <path fill="#9cc" d="M243.018 137.294l2.962 2.963-2.962-2.963z"/>
  <path fill="#6cc" d="M61.132 140.247l2.962 2.962-2.962-2.963z"/>
  <path fill="#ccf" d="M64.084 140.247l2.962 2.962-2.962-2.963z"/>
  <path fill="#fcc" d="M66.892 140.247l2.962 2.962-2.962-2.963z"/>
  <path fill="#c33" d="M70.813 141.23l1.968.984-1.967-.984m144.663 0l1.968.984-1.968-.984z"/>
  <path fill="#fcc" d="M219.4 140.247l2.964 2.962-2.963-2.963z"/>
  <path fill="#ccf" d="M231.21 140.247l2.962 2.962-2.962-2.963z"/>
  <path fill="#6cc" d="M234.162 140.247l2.962 2.962-2.962-2.963M69.988 143.2l2.962 2.96-2.962-2.96z"/>
  <path fill="#9cf" d="M62.94 143.2l2.962 2.96-2.962-2.96z"/>
  <path fill="#fcc" d="M74.76 143.2l2.96 2.96-2.96-2.96zm136.796 0l2.962 2.96-2.962-2.96z"/>
  <path fill="#9cf" d="M222.363 143.2l2.963 2.96-2.963-2.96z"/>
  <path fill="#6cc" d="M226.306 143.2l2.962 2.96-2.962-2.96z"/>
  <path fill="#69c" d="M68.844 146.16l2.962 2.963-2.962-2.962z"/>
  <path fill="#9cf" d="M71.796 146.16l2.962 2.963-2.962-2.962z"/>
  <path fill="#fcc" d="M86.667 146.16l2.962 2.963-2.963-2.962z"/>
  <path fill="#c33" d="M91.478 147.134l1.968.984-1.968-.984m103.324 0l1.967.984-1.968-.984z"/>
  <path fill="#fcc" d="M198.737 146.16l2.962 2.963-2.963-2.962z"/>
  <path fill="#9cf" d="M213.497 146.16l2.962 2.963-2.963-2.962z"/>
  <path fill="#69c" d="M216.46 146.16l2.96 2.963-2.96-2.962M77.7 149.104l2.963 2.962-2.962-2.962z"/>
  <path fill="#9cc" d="M80.663 149.103l2.962 2.962-2.962-2.962z"/>
  <path fill="#cff" d="M83.606 149.103l2.962 2.962-2.962-2.962z"/>
  <path fill="#fcc" d="M96.413 149.103l2.962 2.962-2.962-2.962z"/>
  <path fill="#c33" d="M100.334 160.086l1.968.984-1.968-.984m86.61 0l1.97.984-1.97-.984z"/>
  <path fill="#fcc" d="M189.88 149.103l2.963 2.962-2.963-2.962z"/>
  <path fill="#cff" d="M201.69 149.103l2.96 2.962-2.96-2.962z"/>
  <path fill="#9cc" d="M204.64 149.103l2.963 2.962-2.962-2.962z"/>
  <path fill="#69c" d="M207.693 149.103l2.962 2.962-2.962-2.962m-121.036 2.962l2.962 2.962-2.963-2.962z"/>
  <path fill="#9cc" d="M89.61 162.066l2.96 2.962-2.96-2.962z"/>
  <path fill="#cff" d="M92.46 162.066l2.963 2.962-2.962-2.962z"/>
  <path fill="#fcc" d="M104.27 162.066l2.962 2.962-2.962-2.962z"/>
  <path fill="#c33" d="M109.19 163.038l1.97.984-1.97-.984m67.9 0l1.967.984-1.968-.984z"/>
  <path fill="#fcc" d="M181.024 162.066l2.962 2.962-2.962-2.962z"/>
  <path fill="#cff" d="M192.833 162.066l2.962 2.962-2.962-2.962z"/>
  <path fill="#9cc" d="M196.786 162.066l2.962 2.962-2.962-2.962z"/>
  <path fill="#69c" d="M198.737 162.066l2.962 2.962-2.963-2.962z"/>
  <path fill="#9cc" d="M98.366 166.007l2.962 2.962-2.962-2.963z"/>
  <path fill="#ccf" d="M101.317 166.007l2.963 2.962-2.963-2.963z"/>
  <path fill="#fcc" d="M113.126 166.007l2.962 2.962-2.962-2.963z"/>
  <path fill="#c33" d="M116.078 166.007l2.962 2.962-2.962-2.963m63.138 0l2.962 2.962-2.962-2.963z"/>
  <path fill="#fcc" d="M172.168 166.007l2.962 2.962-2.962-2.963z"/>
  <path fill="#ccf" d="M183.976 166.007l2.962 2.962-2.962-2.963z"/>
  <path fill="#9cc" d="M186.928 166.007l2.962 2.962-2.962-2.963m-79.706 2.962l2.962 2.96-2.962-2.96z"/>
  <path fill="#ccf" d="M110.174 167.96l2.962 2.96-2.962-2.96m64.946 0l2.962 2.96-2.962-2.96z"/>
  <path fill="#9cc" d="M178.072 167.96l2.962 2.96-2.962-2.96m-61.994 2.96l2.962 2.963-2.962-2.962z"/>
  <path fill="#c33" d="M121.982 160.91l2.962 2.963-2.962-2.962m41.33 0l2.962 2.963-2.963-2.962z"/>
  <path fill="#9cc" d="M169.216 160.91l2.962 2.963-2.962-2.962z"/>
  <path fill="#fcc" d="M121.982 163.863l2.962 2.962-2.962-2.962m41.33 0l2.962 2.962-2.963-2.962z"/>
  <path fill="#ccf" d="M119.03 166.816l2.962 2.963-2.962-2.963z"/>
  <path fill="#c33" d="M126.917 168.784l.984 1.968-.983-1.968m36.426 0l.986 1.968-.986-1.968z"/>
  <path fill="#ccf" d="M166.264 166.816l2.962 2.963-2.962-2.963z"/>
  <path fill="#9cc" d="M119.03 169.768l2.962 2.962-2.962-2.962m47.234 0l2.962 2.962-2.962-2.962z"/>
  <path fill="#fcc" d="M124.934 172.72l2.962 2.962-2.962-2.962m36.426 0l2.96 2.962-2.96-2.962z"/>
  <path fill="#ccf" d="M121.982 176.672l2.962 2.962-2.962-2.962z"/>
  <path fill="#c33" d="M128.87 177.64l.984 1.97-.986-1.97m29.62 0l.986 1.97-.986-1.97z"/>
  <path fill="#ccf" d="M163.31 176.672l2.964 2.962-2.963-2.962z"/>
  <path fill="#9cc" d="M121.982 178.624l2.962 2.962-2.962-2.962m41.33 0l2.962 2.962-2.963-2.962z"/>
  <path fill="#fcc" d="M127.886 181.676l2.962 2.962-2.962-2.962m29.62 0l2.963 2.962-2.963-2.962z"/>
  <path fill="#cff" d="M124.934 184.628l2.962 2.962-2.962-2.962z"/>
  <path fill="#c33" d="M131.82 186.497l.986 1.968-.986-1.968m23.618 0l.984 1.968-.984-1.968z"/>
  <path fill="#cff" d="M160.36 184.628l2.96 2.962-2.96-2.962z"/>
  <path fill="#9cc" d="M124.934 187.48l2.962 2.962-2.962-2.962m36.426 0l2.96 2.962-2.96-2.962z"/>
  <path fill="#69c" d="M124.934 190.432l2.962 2.962-2.962-2.962z"/>
  <path fill="#fcc" d="M130.838 190.432l2.963 2.962-2.962-2.962m23.617 0l2.962 2.962-2.962-2.962z"/>
  <path fill="#69c" d="M160.36 190.432l2.96 2.962-2.96-2.962z"/>
  <path fill="#cff" d="M127.886 193.384l2.962 2.962-2.962-2.962zm29.621 0l2.962 2.962-2.963-2.962z"/>
  <path fill="#9cc" d="M127.886 196.336l2.962 2.963-2.962-2.964m29.62 0l2.963 2.963-2.963-2.964z"/>
  <path fill="#69c" d="M127.886 199.29l2.962 2.96-2.962-2.96m29.62 0l2.963 2.96-2.963-2.96z"/>
  <path fill="#fcc" d="M133.79 202.24l2.963 2.963-2.962-2.962m17.713 0l2.962 2.963-2.962-2.962z"/>
  <path fill="#9cf" d="M130.838 206.193l2.963 2.962-2.962-2.962z"/>
  <path fill="#c33" d="M137.726 207.162l.984 1.968-.984-1.968m11.808 0l.984 1.968-.984-1.968z"/>
  <path fill="#9cf" d="M164.466 206.193l2.962 2.962-2.962-2.962z"/>
  <path fill="#69c" d="M130.838 208.146l2.963 2.962-2.962-2.962m23.617 0l2.962 2.962-2.962-2.962z"/>
  <path fill="#fcc" d="M136.743 211.097l2.962 2.962-2.962-2.963m11.808 0l2.963 2.962-2.962-2.963z"/>
  <path fill="#9cf" d="M133.79 214.06l2.963 2.96-2.962-2.96zm17.713 0l2.962 2.96-2.962-2.96z"/>
  <path fill="#6cc" d="M133.79 217l2.963 2.963L133.79 217m17.713 0l2.962 2.963-2.962-2.962z"/>
  <path fill="#fcc" d="M139.696 219.963l2.962 2.962-2.962-2.962m6.904 0l2.96 2.962-2.96-2.962z"/>
  <path fill="#ccf" d="M136.743 222.906l2.962 2.962-2.962-2.962m11.808 0l2.963 2.962-2.962-2.962z"/>
  <path fill="#6cc" d="M136.743 226.867l2.962 2.963-2.962-2.963z"/>
  <path fill="#c66" d="M142.647 226.867l2.962 2.963-2.963-2.963z"/>
  <path fill="#6cc" d="M148.66 226.867l2.963 2.963-2.962-2.963z"/>
  <path fill="#ccf" d="M139.696 231.762l2.962 2.962-2.962-2.962m6.904 0l2.96 2.962-2.96-2.962z"/>
  <path fill="#9cc" d="M139.696 234.714l2.962 2.962-2.962-2.962m6.904 0l2.96 2.962-2.96-2.962m-2.963 6.904l2.962 2.962-2.963-2.962z"/>
</svg>
