<svg xmlns="http://www.w3.org/2000/svg" height="480" viewBox="0 0 612 612" width="640" version="1">
  <defs>
    <clipPath id="a">
      <path fill-opacity=".67" d="M-86.333 0h682.67v612h-682.67z"/>
    </clipPath>
  </defs>
  <g fill-rule="evenodd" clip-path="url(#a)">
    <path fill="#009" d="M-86.333 0h682.67v612h-682.67z"/>
    <path d="M-86.333 0l682.67 612V0h-682.67z" fill="#fc0"/>
    <path fill="#fff" d="M-21.46 76.087L-46.867 67.36l-24.397 17.727 9.32-28.68-24.398-17.726h30.166L-46.867 0l9.32 28.68h30.164L-30.78 46.407m60.873 66.67L6.696 129.703l9.32-28.68-24.398-17.726h30.166l9.32-28.68 9.32 28.68h30.164L46.17 101.022l9.32 28.68m27.16 64.611l9.318-28.68-24.397-17.726h30.166l9.32-28.68 9.32 28.68h30.164l-24.397 17.726 9.32 28.68-24.397-17.726m60.869 43.666l-24.397-17.726h30.164l9.32-28.68 9.32 28.68h30.164l-24.397 17.726 9.32 28.68-24.396-17.726-24.397 17.726m60.871 8.204h30.166l9.32-28.68 9.32 28.68h30.164l-24.397 17.726 9.32 28.68-24.397-17.726-24.397 17.726 9.32-28.68m81.707 36.884l9.32-28.68 9.32 28.68h30.164l-24.397 17.726 9.32 28.68-24.397-17.726-24.397 17.726 9.32-28.68-24.398-17.726m116.416 26.94l9.32 28.68h30.164L424.9 374.092l9.32 28.68-24.397-17.726-24.397 17.726 9.32-28.68-24.398-17.726h30.166m86.27 26.93l9.32 28.68h30.164l-24.397 17.726 9.32 28.68-24.397-17.726-24.397 17.726 9.32-28.68-24.398-17.726h30.166m94.689 64.62h30.166L676.8 483.322l9.32 28.68-24.397-17.726-24.397 17.726 9.32-28.68-24.398-17.726h30.166l9.32-28.68"/>
  </g>
</svg>
