<svg xmlns="http://www.w3.org/2000/svg" xmlns:xlink="http://www.w3.org/1999/xlink" height="480" width="640">
  <path fill="#00267f" d="M0 0h640v480H0z"/>
  <path fill="#ffc726" d="M213.333 0h213.333v480H213.333z"/>
  <path id="a" d="M319.77 136.627c-6.933 18.907-14 38.687-29.12 63.664 4.694-1.646 12.907-2.933 18.187-2.8v79.62l-22.463 3.334c-.8-.08-1.067-1.333-1.067-3.04-2.16-24.693-8-46.44-14.72-66.907-.48-2.933-8.987-14.133-2.427-12.16.8.107 9.674 3.68 8.187 1.974-11.947-12.373-29.413-21.28-46.373-23.92-1.494-.373-2.374.374-1.04 2.107 22.606 34.64 41.333 76.62 41.173 124.027 8.747 0 29.947-6.173 38.72-6.173v66.107h11.067l2.633-166.693z"/>
  <use height="100%" width="100%" xlink:href="#a" transform="matrix(-1 0 0 1 639.64 0)"/>
</svg>
