<svg xmlns="http://www.w3.org/2000/svg" height="480" width="640">
  <defs>
    <clipPath id="a">
      <path fill-opacity=".67" d="M-90.633 0h682.67v612h-682.67z"/>
    </clipPath>
  </defs>
  <g clip-path="url(#a)" fill-rule="evenodd" transform="translate(84.876) scale(.9376)">
    <path d="M-178 0l428.8 266L-178 612zm867.6 0L260.8 266l428.8 266z" fill="#00cf00"/>
    <path d="M-178 0l428.8 266L679.6 0zm0 612l428.8-266 428.8 266z" fill="red"/>
    <path d="M679.6 0h-79.902l-777.7 464.3v47.703H-98.1l777.7-464.3z" fill="#fff"/>
    <path d="M398.866 266c0 81.767-66.286 148.06-148.062 148.06S102.76 337.768 102.76 266s66.286-148.063 148.063-148.063S398.866 174.232 398.866 266z" fill="#fff"/>
    <path d="M-178 0v47.703l777.7 464.3h79.902V464.3L-98.098 0z" fill="#fff"/>
    <path stroke="#00de00" stroke-width="3.901" fill="red" d="M279.943 200.164l-19.26.322-9.948 16.442-9.92-16.472-19.22-.41 9.303-16.822-9.246-16.876 19.222-.332 9.977-16.467 9.918 16.496 19.222.41-9.333 16.817zm-64.6 111.62l-19.26.322-9.948 16.442-9.92-16.47-19.22-.41 9.303-16.824-9.246-16.876 19.222-.332 9.977-16.467 9.918 16.496 19.222.41-9.333 16.817zm130.67 0l-19.26.322-9.948 16.442-9.92-16.47-19.22-.41 9.303-16.824-9.246-16.876 19.222-.332 9.977-16.467 9.918 16.496 19.222.41-9.333 16.817z"/>
  </g>
</svg>
