<svg xmlns="http://www.w3.org/2000/svg" height="480" width="640" version="1">
  <path fill="#cf142b" d="M0 0h640v480H0z"/>
  <path fill="#00247d" d="M0 0h320v160H0z"/>
  <path d="M0 0v17.888L284.224 160H320v-17.888L36.776 0H0zm320 0v17.888L36.776 160H0v-17.888L284.224 0H320z" fill="#fff"/>
  <path d="M133.333 0v160h63.334V0h-63.334zM0 63.333v63.334h320V63.333H0z" fill="#fff"/>
  <path d="M0 64v32h320V64H0zM144 0v160h32V0h-32zM0 160l106.667-63.333h23.86L23.86 160H0zM0 0l106.667 63.333h-23.86L0 11.926V0zm189.483 63.333L296.16 0H320L213.333 63.333h-23.86zM320 160l-106.667-63.333h23.86L320 148.076V160z" fill="#cf142b"/>
  <path d="M663.83 148.26v136.613c0 36.197-72.36 47.967-72.36 47.967s-72.368-11.76-72.368-47.967V148.26h144.72z" fill="#fff"/>
  <path d="M663.83 283.773c0 36.197-72.36 47.967-72.36 47.967s-72.368-11.76-72.368-47.967c0 0 0-2.916 1.472-4.673 0 0-.797 6.02 3.828 10.674 0 0-3.628-6.423-.08-12.736 0 0-1.316 8.122 3.748 12.786 0 0-2.79-6.636.36-14.033 0 0-1.666 12.104 3.947 14.617 0 0 1.614-6.966-.678-11.42 0 0 3.787 1.628 3.687 11.62 0 0 1.196-1.487 1.616-8.766 0 0 .16 8.323 3.03 10.263 0 0 .878-.844-.318-4.624s.618-6.106.797-6.026c0 0-.628 4.18 2.877 7.318 0 0-1.62-6.664.694-7.44 0 0-.438 6.66 3.948 6.797 0 0 .32-1.61-.638-3.418 0 0-.837-2.146-.2-3.787 0 0 1.396 6.033 3.31 6.878 0 0-1.167-2.96-.08-6.878 0 0 .24 4.19 3.987 6.918 0 0-2.47-3.243-1.494-6.81l24.102 1.18 12.48.696 37.442-2.647 6.46-6.66s2.66 3.64-1.476 9.13c0 0 3.99-.726 6.266-6.968 0 0 1.634 3.468-.6 7.28 0 0 4.428-4.424 6.066-9.46 0 0 1.716 4.864-2.472 10.092 0 0 3.748-1.247 6.343-6.796 0 0 1.277 3.343-2.362 8.066 0 0 6.78-3.6 6.68-11.04 0 0 2.83 4.1-.4 9.73 0 0 3.47-3.096 3.79-7.72 0 0 1.913 2.09-.16 7.84 0 0 4.226-3.98 4.864-8.283 0 0 .917 3.98-2.71 9.007 0 0 2.47-.603 4.824-6.61 0 0 .638 1.932-1.616 6.47 0 0 2.314-.402 3.868-4.826 0 0 .28 2.664-.398 6.027 0 0 1.794-1.166 2.193-6.193 0 0 1.002 1.648 1.02 3.698.016 2.062-.002.706-.002.706z" fill="#2f8f22"/>
  <path d="M616.67 206.436s-2.616.427-6.746-.667c-3.23-.986-4.636-.686-6.637 0 0 0 1.31-2.696-1.88-4.646 0 0 1.037 2.62-.398 3.843 0 0-.638.6-1.396-.304 0 0-1.116-1.146-2.292-2.03 0 0 2.71-.946 2.213-3.7-.6-2.764-1.974-3.116-2.77-3.467 0 0 .278 1.246 0 2.09 0 0-2.962-1.648 1.066-3.98 4.007-2.333 3.27-3.7 2.662-4.886-.718-1.186-2.263-2.492-3.01-2.966 0 0 .797 1.247.667 2.313-.14 1.066-1.966 1.76-1.696-.12.36-1.87-.02-1.66-.06-3.64 0 0 3.67 1.207 4.966-2.27 0 0 1.374-3.6-3.132-6.39 0 0 1.097 1.468.668 2.674 0 0-.966 1.81-2.093.342s-1.864-1.76-1.734-3.48c0 0 4.086.666 2.97-3.88 0 0-.668 2.967-6.96-1.024 0 0 3.447-3.64 2.112-6.394 0 0-.42-1.307-4.167-.643 0 0 3.26-2.06 1.874-3.8 0 0-.7-1.166-3.73.362 0 0 1.177-2.03-1.794-4.222 0 0-1.993 1.046-3.06 2.01 0 0-2.033-2.673-3.33-3.698 0 0-2.362.906-2.96 3.6 0 0-1.096-1.308-3.688-1.91 0 0-1.196 2.21.36 4.14 0 0-1.168-.04-3.27-.966 0 0-2.413-1.146-2.066.926.36 2.07.638 2.633 1.017 3.498 0 0-6.413-1.267-6.183 1.67.16 2.03.917 3.778 2.692 6.246 0 0-3.032 3.96-6.624.984 0 0-.897.966 1.037 3.498 0 0 1.934 2.13.34 3.48 0 0-2.134 1.707-3.17-1.61 0 0-3.46 3.438.618 6.072 0 0 2.613 1.488 6.284-.806 0 0-.817 6.694-3.37 6.327 0 0-1.636-1.126 1.216-2.472 0 0-3.967-.603-4.606 3.337 0 0-.49 3.066 2.97 4.162 0 0 2.672.966-.1 3.036 0 0-1.964 1.488-.677 3.7 0 0 1.636 2.432-2.363 2.673 0 0-2.113-.02-2.87-.3 0 0-.864 1.684-.268 3.396 0 0-1.936-1.442-6.342.164-4.406 1.697-4.067.47-4.426.964-.36.482-1.217 2.11-1.217 2.11s2.313 2.816 2.362 2.766c.04-.06-.438 3.217-.438 3.217l1.137.643 9.07-4.04 9.212-4.8 7.406.463 4.698 1.118 6.168.46 4.418-2.366h6.4l7.038 3.607 8.034 4.794 4.187.734 3.226-.172v-6.606l-1.67-2.364z" fill="#d40000" stroke="#000" stroke-width=".632" stroke-linejoin="round"/>
  <path d="M443.603 213.043s3.61 1.79 4.974-.382c0 0 1.916-3.648-2.288-4.914 0 0 2.287-2.746-.166-6.278 0 0-1.286-1.367-3.63-.36 0 0-.926-1.932-3.11-1.872 0 0-1.913-.03-2.67 2.08 0 0-2.633-1.084-4.098.484 0 0-2.423 2.714.967 4.866l2.432.222 2.392-1.106 2.67.766c.003 0-.686 2.704 2.336 6.608z" fill="#d40000" stroke="#000" stroke-width=".632" stroke-linejoin="round"/>
  <path d="M621.83 206.626c4.227-.398 6.72 3.17 6.72 3.17 2.216 6.198-2.49 7.973-2.49 7.973.36 1.166.4 2.692.4 2.692 6.617.806 6.46 8.244 6.46 8.244l-2.192-1.81c-3.828-1.488-7.776 1.77-10.606 7.238-2.83 6.47-1.476 8.042-.997 14.616.48 6.473 11.006 10.334 11.006 10.334s-4.984 12.827-8.214 21.07c-3.23 8.243-9.968 4.826-11.922 3.09-1.964-1.738-2.442-.773-3.43 0-.986.77 4.427 4.992-6.422 8.973-9.86 3.98-11.663 7.037-13.198 8.042-1.634 1.004-8.463.32-9.13-.624-.678-.844-.28-.844-2.83-2.413-2.663-1.668-6.86-2.936-11.666-6.227-4.706-2.292-4.686-6.228-4.646-6.83.04-.603 1.634-6.61-3.876-1.61-6.61 3.9-10.2-1.866-10.2-1.866-1.076-1.416-6.662-13.704-6.662-13.704-1.236-4.684-3.668-9.932-3.668-9.932.12-.04-.24.663 3.828-1.77 4.067-2.33 6.888-6.21 7.296-10.06 1.408-3.84.04-10.416-.478-11.743-.62-1.326-3.66-7.41-7.302-8.684-3.762-1.276-6.268 1.89-6.268 1.89s-1.168-7.44 6.46-8.244c0 0 .04-1.627.4-2.693 0 0-4.706-2.776-2.49-7.976 0 0 1.493-3.667 6.72-3.17l-1.022 1.936s-1.066 10.616 14.474 3.6c16.638-7.12 16.072-8.446 23.924-3.982l6.46-.12s9.33-4.317 12.32-2.46c2.99 1.867 13.766 7.888 13.766 7.888s10.407 3.903 12.44-3.296l-1.166-3.464z" fill="#64b4d1" stroke="#000" stroke-width=".399"/>
  <path stroke-miterlimit="10" d="M476.078 262.66s-.64-3.268-1.107-6.368c0 0-1.163-3.31.816-6.636l2.44-2.807s1.616-2.04 3.393-2.318c0 0 1.877-.066 2.066-.438.18-.382 2.233-3.76 7.117 0 0 0 1.667-2.493 3.96-2.916 0 0 2.683-.786 3.833 1.146 0 0 2.904-2.202 6.397 1.342 0 0 3.46-1.94 6.96 1.918 0 0 3.41-1.663 6.603 1.88 2.094 3.646 1.676 4.993 1.676 4.993l1.664 6.63 6.604 6.796-12.8 4.826h-6.74l-11.484 3.076-20.396 1.668-6.682-6.696 8.013-6.996z" fill="#fff" stroke="#00247d" stroke-width=".632"/>
  <path d="M467.84 286.647s-3.06.182-4.606.966c-1.666.784-2.76 1.628-4.646 2.774 0 0-.838 1.116-4.367.437 0 0-6.1-1.462-6.1 3.303 0 0-7.298.602-4.307 6.996 0 0 2.033 6.006 6.22 1.448 0 0-2.692 3.86 2.612 6.37 0 0 3.708.904 4.784-2.896 0 0 .6-1.608-.837-3.378 0 0 1.796-.362 3.06-2.292 0 0-3.827 4.838.36 6.68 0 0 6.26 1.32 6.66-4.168 0 0-.428-2.633 1.61-3.438 0 0 4.193-.966 6.107-6.64 0 0-6.028-3.21-6.443-6.06zm-12.32-48.107s-4.704-2.167-6.937 0c0 0-3.11-1.926-6.38 0 0 0-3.11 2.033-6.263 4.27 0 0-1.616 1.3-.967 6.388 0 0 .798 2.883.32 4.33 0 0-1.038-.204-3.11 2.263 0 0-2.633 3.048-4.946.368 0 0 .717 3.744 6.063 3.14 0 0-2.112 1.66-.278 6.912 0 0 1.366 3.016-.797 6.796 0 0 3.788-1.627 3.628-6.99 0 0-.32-3.016.797-6.148 0 0-1.116 1.938 1.476 6.072 0 0 1.993 2.976.36 6.07 0 0 3.747-1.366 3.388-6.91-.368-4.644-2.632-2.664-1.166-6.836 0 0 .36 2.142 1.476 3.222 1.116 1.08 2.662 2.89 1.964 6.906 0 0 2.233-2.776 1.714-6.63-.617-2.866-1.076-3.718-1.076-3.718l7.067-4.002 3.61-6.363.16-10.13z" fill="#d40000" stroke="#000" stroke-width=".632" stroke-linejoin="round"/>
  <path stroke-miterlimit="10" d="M434.796 266.37s-2.91-.2-3.39-2.464m-6.104-1.486s1.014-.04 1.932.884c0 0 .7 1.046 1.697.924" fill="none" stroke="#000" stroke-width=".632"/>
  <path d="M439.1 247.806s-1.613 0-2.36-.724c0 0-.88-.602-1.397.363 0 0-.797 1.367.678 1.97 0 0 1.836.926-1.076 2.776 0 0 3.47-1.247 2.074-2.936 0 0-1.616-1.086-.967-1.488 0 0 .16-.322.76.08.697.402 1.793.242 2.27-.04z"/>
  <path fill="#784421" stroke="#000" stroke-width=".399" d="M484.877 266.09l1.784-.603-11.668-40.264-.427.114z"/>
  <path d="M446.067 300.66s-2.76-1.647-6.024.263c0 0 .232-1.006 1.97-1.448 0 0 .94-2.664 3.672-2.413 0 0-1.076 1.286-2.612 2.373 0 0 1.616.166 1.994 1.224z"/>
  <path stroke-miterlimit="2.613" d="M436.368 307.064s-4.366-2.744-2.004-7.368c0 0 .688-1.327 2.004-1.066 0 0 2.72.844.698 4.616 0 0-1.077 2.443-.698 3.8zm8.862 4.343s-6.22-2.834-4.307-7.66c0 0 .692-1.63 1.97-1.608 0 0 2.4.12 1.92 3.317 0 0-.72 3.136.417 6.86z" fill="#64b4d1" stroke="#00247d" stroke-width=".399"/>
  <path d="M443.904 293.39s-1.87 1.38-2.63 2.306c0 0-.76-.946-1.766-1.618 0 0 1.148-.16 1.767.366 0 0 .964-.924 2.63-1.162z"/>
  <path stroke-miterlimit="2.613" d="M449.436 310.19s4.874-1.236 3.978-6.272c0 0-.48-2.2-2.642-1.9 0 0-2.487.636-.868 3.836 0 0 .967 2.286-.668 4.337z" fill="#64b4d1" stroke="#00247d" stroke-width=".399"/>
  <path stroke-miterlimit="2.613" d="M471.46 203.646s3.14.963 4.846 1.668c0 0 4.646 2.06 10.317 0 0 0 3.903-1.646 4.424-1.668l-2.99 4.663-.16 2.362 1.87 2.744s-1.12.463-4.47-1.698c0 0-3.71-2.866-8.136 0 0 0-2.42 1.64-4.464 1.698l2.87-3.206-1.106-2.888-3.02-3.667z" fill="#f6ce00" stroke="#000" stroke-width=".632"/>
  <path d="M461.32 304.174s.18-.24-.03-.347c0 0-.21-.09-.36.204 0 0-.607.807-.077 1.912 0 0 .407.766.21 1.666 0 0-.028.226.162.266 0 0 .172-.06.206-.226 0 0 .244-.78-.176-1.644 0 0-.608-1.186.076-1.82z" fill="#fff"/>
  <path d="M618.84 213.043s-3.61 1.79-4.974-.382c0 0-1.914-3.648 2.288-4.914 0 0-2.288-2.746.164-6.278 0 0 1.286-1.367 3.63-.36 0 0 .926-1.932 3.11-1.872 0 0 1.913-.03 2.67 2.08 0 0 2.633-1.084 4.098.484 0 0 2.422 2.714-.967 4.866l-2.433.222-2.393-1.106-2.67.766c-.002 0 .686 2.704-2.334 6.608z" fill="#d40000" stroke="#000" stroke-width=".632" stroke-linejoin="round"/>
  <path stroke-miterlimit="2.613" d="M491.048 210.21s-.09.723-.807.803c0 0-.748.242-1.184-.69 0 0-.06-.212-.062-.316-.06-.436-.2-1.69 1.166-2.714 0 0 2.214-1.81 6.44.382 0 0 3.36 1.608 6.662 2.976 0 0 6.98 3.218 6.7 3.46 0 0 2.63 1.326 6.668 1.487 0 0 6.602.402 7.834-3.468 0 0 1.776-2.936 0-4.806 0 0-.717-.844-1.897-.69-.496.067-1.043.296-1.67.91 0 0-.868 1.248.138 2.173 0 0 1.296.794 1.764-.884 0 0 .02-.12.06.03.026.097.318 1.377-.37 2.462 0 0-3.32 6.024-12.46-.182l-12.042-6.764s-6.04-3.097-9.66 1.748c0 0-2.91 4.02.838 6.666 0 0 2.79 1.668 4.646-.986 0 0 1.467-2.614-.836-3.76 0 0-2.013-.944-2.81 1.066-.798 2.01 1.664 2.633 1.773 1.106 0 0 .06-.343.12-.02z" fill="#f6ce00" stroke="#000" stroke-width=".632"/>
  <path stroke-miterlimit="2.613" d="M443.316 230.937v-7.64c0-.692.004-1.086.9-1.81.898-.723 1.866-1.87 3.23 1.39 0 0 2.692-2.836 3.69-3.268 0 0 1.664-1.328 2.63.602 0 0 1.436-2.172 2.672-2.716 0 0 2.692-1.76 2.81 3.6l2.096-1.932s1.614-1.326 3.41.483c0 0 3.06 2.966 3.468 3.8 0 0 .673.914.726 2.367 0 0-.008 1.623.83 2.628 0 0 .966.844 1.883 1.026 0 0 2.183.06 2.96 2.11 0 0 .36-.366 1.436 9.473v17.912l-12.082 14.416-19.378-6.66-7.716-3.196-1.734-6.668 7.476-4.826 4.068-10.978-1.316-7.72-1.867-4.403z" fill="#e4cb6e" stroke="#000" stroke-width=".399"/>
  <path d="M496.71 240.446l.917-1.367 2.193-1.69s3.36 8.79 3.61 10.708v2.728s6.023 1.282 6.9 9.002l-4.146 7.64-6.6-3.62-1.873-1.366v-22.036z" fill="#784421" stroke="#000" stroke-width=".399"/>
  <path d="M436.166 300.797s.24-.317.076-.462c0 0-.104-.16-.387.21 0 0-1.32 1.477-.27 3.748 0 0 .12.324.33.218 0 0 .18-.09.014-.36 0 0-.94-1.87.24-3.363z" fill="#fff"/>
  <path stroke-miterlimit="10" d="M464.76 299.314s.198-.683-.28-1.407c0 0-.318-.623-.2-1.207" fill="none" stroke="#000" stroke-width=".632"/>
  <path stroke-miterlimit="10" d="M469.06 221.106s.017 1.886.666 3.273c.638 1.386 2.366 3.786 2.476 6.082" fill="none" stroke="#000" stroke-width=".399"/>
  <path d="M604.626 286.647s3.06.182 4.606.966c1.666.784 2.76 1.628 4.646 2.774 0 0 .837 1.116 4.366.437 0 0 6.102-1.462 6.102 3.303 0 0 7.297.602 4.306 6.996 0 0-2.033 6.006-6.22 1.448 0 0 2.692 3.86-2.612 6.37 0 0-3.708.904-4.784-2.896 0 0-.6-1.608.837-3.378 0 0-1.796-.362-3.06-2.292 0 0 3.826 4.838-.36 6.68 0 0-6.262 1.32-6.662-4.168 0 0 .43-2.633-1.61-3.438 0 0-4.192-.966-6.106-6.64 0 0 6.028-3.21 6.443-6.06z" fill="#d40000" stroke="#000" stroke-width=".632" stroke-linejoin="round"/>
  <path stroke-miterlimit="10" fill="none" stroke="#000" stroke-width=".399" d="M466.643 229.46l4.978 40.18m-3.828-40.268l6.683 37.463m-4.636-37.627l6.43 37.144"/>
  <path fill="#784421" stroke="#000" stroke-width=".399" d="M469.01 263.146l1.782-.603-11.66-40.266-.427.116z"/>
  <path stroke-miterlimit="10" fill="none" stroke="#000" stroke-width=".399" d="M462.407 227.723l11.776 29.762m-12.662-29.271l11.366 31.08"/>
  <path d="M442.967 308.642s-1.366-1.31-1.176-3.66c0 0 .08-.6-.17-.67 0 0-.268-.112-.307.47 0 0-.38 2.464 1.276 3.86 0 0 .11.142.294.1 0 0 .196-.042.083-.2z" fill="#fff"/>
  <path stroke-miterlimit="10" fill="none" stroke="#000" stroke-width=".399" d="M462.938 227.32l12.14 27.14m-16.46-26.464l7.446 36.66"/>
  <path stroke-miterlimit="2.613" d="M620.63 266.09c-6.32-3.018-6.486-9.713-6.486-9.713-1.286-6.666 1.316-11.942 1.316-11.942 3.44-7.268 9.333-8.62 9.333-8.62s-6.773 4.006-7.388 9.404c0 0-1.266 4.662-.638 9.046.717 4.493.448 3.347 1.666 6.816l2.207 6.01z" fill="#f6ce00" stroke="#000" stroke-width=".632"/>
  <path d="M497.627 239.08l-22.347 7.066-1.22 9.966c-6.302 7.682-16.078 9.046-16.078 9.046l8.384 8.927 16.11 3.378 8.462-6.614 7.666-7.077c-.798-3.78-.36-9.39-.36-9.39 0-.946.36-3.167.36-3.167s-1.316-9.087-.967-12.224z" fill="#784421" stroke="#000" stroke-width=".243"/>
  <path stroke-miterlimit="10" d="M474.368 263.69s14.718-4.697 23.494-8.287m-30.669 16.677s18.362-3.32 31.28-10.677l4.746-3.206" fill="none" stroke="#000" stroke-width=".399"/>
  <path stroke-miterlimit="10" d="M603.33 260.826l-6.106 3.634s-20.636 9.47-36.17 9.722m36.166-2.992s-16.786 8.127-24.836 8.248" fill="none" stroke="#000" stroke-width=".399"/>
  <path d="M617.046 238.44s4.706-2.167 6.938 0c0 0 3.11-1.926 6.38 0 0 0 3.11 2.033 6.263 4.27 0 0 1.616 1.3.967 6.388 0 0-.797 2.883-.32 4.33 0 0 1.038-.204 3.112 2.263 0 0 2.63 3.048 4.944.368 0 0-.72 3.744-6.066 3.14 0 0 2.113 1.66.28 6.912 0 0-1.366 3.016.797 6.796 0 0-3.79-1.627-3.63-6.99 0 0 .32-3.016-.796-6.148 0 0 1.116 1.938-1.476 6.072 0 0-1.993 2.976-.368 6.07 0 0-3.748-1.366-3.39-6.91.36-4.644 2.632-2.664 1.167-6.836 0 0-.36 2.14-1.476 3.222-1.117 1.08-2.662 2.89-1.964 6.906 0 0-2.233-2.776-1.716-6.63s1.077-3.718 1.077-3.718l-7.068-4.002-3.61-6.363-.16-10.13z" fill="#d40000" stroke="#000" stroke-width=".632" stroke-linejoin="round"/>
  <path stroke-miterlimit="10" d="M437.1 263.87s.667-3.118 3.648-1.89c0 0 1.017-6.108 6.46-6.29 6.442-.18 6.74 6.31 6.74 6.67 0 0 1.6-2.366 4.27-2.082 0 0 4.602-.27 2.888 7.118l.87.927s3.616-8.264 10.763-6.083c0 0 7.067 2.16 2.462 8.987 0 0 3.483 4.624 6.436 4.1 2.964-.42 6.686-1.326 8.616-6.613 2.93-6.187 9.76-6.97 11.484-6.67 1.734.302 3.104 1.428 3.387 2.666 0 0 3.61-12.06 16.69-10.167l6.202 2.616 1.974.904-2.94 8.304-7.17 16.2-6.44 1.674-6.682-3.267-1.974 1.068-.16 4.862-7.496 6.396-6.204 2.144-6.742 3.92-1.336 3.606s-3.17-1.336-6.76 0l-1.184-2.9-3.36-3.198-13.01-6.138-2.36-7.68-2.376-1.06-2.66 3.046-3.886.463-6.802-3.92-6.16-17.794z" fill="#fff" stroke="#00247d" stroke-width=".632"/>
  <path stroke-miterlimit="2.613" d="M493.76 204.88s-4.966-.22-4.787 4.927" fill="none" stroke="#000" stroke-width=".632"/>
  <path stroke-miterlimit="2.613" d="M626.426 269.666c-8.643-2.664-11.006-11.942-11.006-11.942-1.764-6.967 1.077-13.068 1.077-13.068 3.948-9.27 10.627-9.27 10.627-9.27 3.36-.09 3.76 2.776 3.76 2.776.317 2.03-1.108 2.764-1.108 2.764-2.293 1.247-3.738-.442-3.738-.442-.967-1.247-.22-2.362-.22-2.362.688-.826 1.716-.463 1.716-.463.892.276.797 1.39.797 1.39.006.03.026.03.026.03.04-.01.026-.024.026-.024s.2-1.367-1.137-1.608c0 0-2.6-.663-6.66 3.237 0 0-4.018 6.127-4.01 11.762 0 0-.607 12.466 12.472 16.682 0 0-1.406 2.02-3.887 9.317 0 0-2.81 9.38-6.496 14.46 0 0-3.667 7.233-11.622 4.278 0 0-4.736-2.08-4.724-6.62 0 0-.33-3.136 2.612-3.377 0 0 2.782-.21 2.76 2.17 0 0 .076 2.68-2.96 1.992 0 0-1.06-.226-.866-1.267 0 0 .17-.936 1.46-.628 0 0 .04.006.046-.016 0 0 .014-.022-.03-.036 0 0-.496-.222-1.02-.04 0 0-.468.167-.606.89 0 0-.03.687.6.92 0 0 .763.27 1.36.21 0 0 .806 1.624 2.626 2.174 2.634.766 4.62.027 6.898-.992 1.39-1.108 2.288-3.046 2.667-3.62.27-.476 2.602-6.7 4.366-11.32 0 0 1.636-4.846 2.76-7.378l.48-.994z" fill="#f6ce00" stroke="#000" stroke-width=".632"/>
  <path stroke-miterlimit="2.613" d="M602.038 283.17s1.614-.22 1.614 1.22c0 0-.098 2.104-2.66 1.644 0 0-2.628-.663-1.63-3.378 0 0 .697-1.99 2.99-1.703 0 0 2.317.106 3.334 3.272 0 0 .777 2.67-.663 4.96-1.486 2.668-6.244 4.238-7.067 4.982 0 0-7.268 2.866-9.436 4.488 0 0-3.324 2.468-1.863 4.766 0 0 .668.876 1.42.876 0 0 .973.046 1.137-.96 0 0 .006-.02-.01-.046 0 0-.016 0-.02.026 0 0-.07.608-.698.834 0 0-.708.366-1.46-.272 0 0-.788-.764-.13-1.926 0 0 .862-1.443 2.87-.69 0 0 1.77.876 1.043 2.766 0 0-.66 1.73-2.782 1.724 0 0-1.607-.063-2.634-1.13-1.603-1.68-1.69-4.964-.277-6.647 0 0 1.336-1.8 4.017-2.896 1.663-.636 4.486-1.91 7.636-3.106 2.144-.84 4.108-1.848 6.383-3.368 0 0 1.137-1.266 1.466-3.438 0 0 .313-1.628-.68-1.986 0 0-.603-.226-1.066-.16 0 0-.014 0-.018.01 0 0-.024.024.032.016z" fill="#f6ce00" stroke="#000" stroke-width=".632"/>
  <path stroke-miterlimit="2.613" d="M602.173 283.16s1.784-.323 2.9 1.8c0 0 .668 1.366.764 2.167m.683-7.684s-1.788.31-.868 2.838c.867 2.384 2.478 3.166 2.966 3.497" fill="none" stroke="#000" stroke-width=".632"/>
  <path stroke-miterlimit="2.613" d="M471.468 210.208s.088.724.806.806c0 0 .76.24 1.186-.69 0 0 .06-.213.062-.316.06-.436.2-1.69-1.167-2.714 0 0-2.213-1.81-6.44.382 0 0-3.36 1.608-6.662 2.976 0 0-6.98 3.217-6.698 3.468 0 0-2.632 1.327-6.66 1.488 0 0-6.602.402-7.834-3.467 0 0-1.773-2.937 0-4.807 0 0 .72-.844 1.9-.688.494.066 1.04.293 1.67.91 0 0 .867 1.247-.14 2.17 0 0-1.296.796-1.764-.883 0 0-.02-.12-.06.03-.026.097-.32 1.377.37 2.463 0 0 3.318 6.023 12.46-.183l12.04-6.764s6.042-3.096 9.66 1.76c0 0 2.91 4.02-.837 6.664 0 0-2.792 1.67-4.646-.986 0 0-1.466-2.614.837-3.76 0 0 2.014-.944 2.812 1.067.797 2.01-1.666 2.633-1.774 1.106 0 0-.06-.343-.12-.022zm-29.482 46.882c6.32-3.018 6.486-9.713 6.486-9.713 1.287-6.666-1.316-11.942-1.316-11.942-3.44-7.268-9.333-8.62-9.333-8.62s6.774 4.006 7.39 9.404c0 0 1.266 4.662.637 9.046-.72 4.493-.46 3.347-1.666 6.816l-2.208 6.01z" fill="#f6ce00" stroke="#000" stroke-width=".632"/>
  <path stroke-miterlimit="2.613" d="M468.746 204.88s4.966-.22 4.786 4.927" fill="none" stroke="#000" stroke-width=".632"/>
  <path stroke-miterlimit="2.613" d="M436.08 269.666c8.643-2.664 11.006-11.942 11.006-11.942 1.764-6.967-1.077-13.068-1.077-13.068-3.947-9.27-10.626-9.27-10.626-9.27-3.36-.09-3.76 2.776-3.76 2.776-.317 2.03 1.108 2.764 1.108 2.764 2.292 1.247 3.738-.442 3.738-.442.967-1.247.22-2.362.22-2.362-.69-.826-1.716-.463-1.716-.463-.892.276-.797 1.39-.797 1.39-.006.03-.026.03-.026.03-.04-.01-.024-.024-.024-.024s-.2-1.367 1.136-1.608c0 0 2.602-.663 6.662 3.237 0 0 4.017 6.127 4.007 11.762 0 0 .61 12.466-12.47 16.682 0 0 1.406 2.02 3.888 9.317 0 0 2.81 9.38 6.494 14.46 0 0 3.668 7.233 11.622 4.278 0 0 4.737-2.08 4.726-6.62 0 0 .328-3.136-2.612-3.377 0 0-2.782-.21-2.762 2.17 0 0-.076 2.68 2.96 1.992 0 0 1.063-.226.868-1.267 0 0-.17-.936-1.46-.628 0 0-.04.006-.046-.016 0 0-.016-.022.03-.036 0 0 .494-.222 1.018-.04 0 0 .47.167.606.89 0 0 .03.687-.698.92 0 0-.763.27-1.36.21 0 0-.806 1.624-2.626 2.174-2.633.766-4.62.027-6.898-.992-1.39-1.108-2.288-3.046-2.667-3.62-.268-.476-2.6-6.7-4.366-11.32 0 0-1.636-4.846-2.76-7.378l-.48-.994z" fill="#f6ce00" stroke="#000" stroke-width=".632"/>
  <path stroke-miterlimit="2.613" d="M460.468 283.17s-1.616-.22-1.616 1.22c0 0 .1 2.104 2.662 1.644 0 0 2.627-.663 1.63-3.378 0 0-.698-1.99-2.99-1.703 0 0-2.318.106-3.336 3.272 0 0-.778 2.67.663 4.96 1.486 2.668 6.243 4.238 7.067 4.982 0 0 7.267 2.866 9.436 4.488 0 0 3.324 2.468 1.864 4.766 0 0-.67.876-1.422.876 0 0-.972.046-1.136-.96 0 0-.006-.02.01-.046 0 0 .016 0 .02.026 0 0 .07.608.698.834 0 0 .708.366 1.46-.272 0 0 .787-.764.13-1.926 0 0-.863-1.443-2.872-.69 0 0-1.77.876-1.04 2.766 0 0 .646 1.73 2.78 1.724 0 0 1.606-.063 2.634-1.13 1.603-1.68 1.69-4.964.277-6.647 0 0-1.337-1.8-4.02-2.896-1.662-.636-4.484-1.91-7.636-3.106-2.144-.84-4.107-1.848-6.383-3.368 0 0-1.136-1.266-1.466-3.438 0 0-.314-1.628.678-1.986 0 0 .603-.226 1.066-.16 0 0 .016 0 .02.01 0 0 .024.024-.032.016z" fill="#f6ce00" stroke="#000" stroke-width=".632"/>
  <path stroke-miterlimit="2.613" d="M460.333 283.16s-1.786-.323-2.9 1.8c0 0-.66 1.366-.766 2.167m-.681-7.686s1.787.31.867 2.838c-.868 2.383-2.478 3.164-2.967 3.496m22.936-76.36s4.32-2.706 8.733.29" fill="none" stroke="#000" stroke-width=".632"/>
  <path stroke-miterlimit="2.613" d="M462.36 236.943s.6-2.412-2.162-6.636c0 0-1.796-3.86-2.762-6.332m6.221-2.664s1.667 3.794 2.093 6.493c0 0 1.932 4.76 2.342 6.726" fill="none" stroke="#000" stroke-width=".399"/>
  <path stroke-miterlimit="10" d="M464.444 238.697s1.624 1.76 1.44 4.704m-6.824-6.674s1.796.866 1.677 6.63c0 0-.18 3.478 2.61 6.227m-4.429 1.226s6.616-.613 6.926 2.846c0 0 .12 3.317 2.033 3.68 0 0 2.867.27 3.436 2.926m-9.626-6.61s.987 1.478 1.944 2.11m6.263-6.76s1.427 2.163 1.696 3.43m4.486-29.466s1.316 1.79 2.692 2.634m2.671 7.961s2.79 1.368 2.313 8.406c0 0-.36 4.126.798 6.38" fill="none" stroke="#000" stroke-width=".399"/>
  <path d="M466.09 228.796l.178.663s6.004.21 7.706-3.197l-.29-.664s-4.366-.222-7.696 3.186z" fill="#784421" stroke="#000" stroke-width=".399"/>
  <path stroke-miterlimit="10" d="M474.116 266.643s17.307-6.16 23.977-8.168" fill="none" stroke="#000" stroke-width=".399"/>
  <path fill="#784421" stroke="#000" stroke-width=".243" d="M472.26 223.724l-.202-.668 8.66-3.267.202.672z"/>
  <path stroke-miterlimit="10" fill="none" stroke="#000" stroke-width=".399" d="M472.986 223.448l6.682 27.866m-4.697-28.229l6.61 27.727m-6.402-28.148l7.118 27.626m-4.326-28.686l9.702 20.66m-8.419-21.147l10.347 20.64m-9.397-20.901l11.192 20.334m-13.012 10.446l4.392-1.447m-7.717-1.309s12.873-3.76 22.616-7.69m-22.789 9.1s16.316-4.317 22.788-7.467M479.764 263.447l.864 2.613 2.336-.747-.798-2.69m4.197-1.163l.866 2.612 2.336-.747-.798-2.69m-13.466-14.71l-.202-3.636 21.392-6.496 1.167 2.976M484.16 239.846l1.166 3.122m6.314-6.393l1.36 2.97m.412-3.608l1.274 2.81m.42-3.326l1.34 2.936"/>
  <path stroke-miterlimit="10" fill="none" stroke="#000" stroke-width=".399" d="M496.47 236.104l2.363-1.327.997 2.613M497.627 236.462l1.198 2.706"/>
  <path stroke-miterlimit="10" d="M444.676 276.173s-4.187-4.24 0-8.393c0 0-4.646-2.223-3.827-6.8m11.304 17.662s-4.336.69-3.06-7.862c0 0-1.796 3.347-2.413 6.067-.464 1.288-.168 3.367 1.678 4.49.733.46 4.62 1.462 6.877-1.113m-6.937-13.611s-1.764 1.63-.608 4.616m2.331-4.223s.21 2.896 1.646 4.624m-.406-6.669s-.012 3.407 2.44 6.618m-1.22-6.696s.024 3.83 2.866 6.183m11.246-.674s1.434-3.137 4.464-2.986c0 0-1.466.663-1.436 2.13 0 0-.18 2.423 2.42 2.664 0 0 2.096.273 3.14-.873" fill="none" stroke="#00247d" stroke-width=".632"/>
  <path stroke-miterlimit="10" d="M472.746 284.617s-7.446-3.498-6.67-8.634c0 0 .3-3.076 3.308-4.624m-1.672 3.196s-.668 2.172.808 3.68m.866-6.167s-.897 2.382.698 4.162m1.196-6.32s-1.076 1.972.21 3.76m-6.998 9.26s4.067 3.628 7.237 3.668m-8.623-2.443s3.8 3.076 6.177 3.63m-7.613-2.669s4.7 4.136 7.613 4.437m11.497 3.8s-4.618 2.49-1.038 6.12m-1.892-7.863s6.233-2.746 7.606-3.77m-6.621 6.187s7.666-4.616 9.808-6.61m-6.922 6.911s6.46-4.312 9.93-6.182m-6.663 6.031s4.466-3.498 8.763-6.03m1.626-4.374s-2.183-3.197-9.36 0c0 0 2.63-2.388 7.836-4.24m7.246-13.733s.688 2.692-.04 4.16" fill="none" stroke="#00247d" stroke-width=".632"/>
  <path stroke-miterlimit="10" d="M492.364 278.376s1.496-2.202 6.293-3.287c0 0 1.024 2.663 3.978 1.99 0 0 4.466-.876 3.11-6.76 0 0-.927-3.66-6.016-4.01m16.137-6.118s6.173.93 6.084 6.162c0 0 .418 6.333-6.26 7.67m6.616-10.122s1.42-3.088 4.69-4.366m-3.861-1.808s1.413 2.266 2.38 2.696m-3.119-.786s1.332 1.627 1.78 1.9m-2.212-.332s.7 1.036 1.323 1.362m-27.939-26.846s1.007-1.633 3.61-.94m10.217 13.188s1.686-6.612 7.118-4.17m-2.244-.641s.67-3.06-.807-4.6M606 243.844s.706 1.26.102 2.29" fill="none" stroke="#00247d" stroke-width=".632"/>
  <path stroke-miterlimit="2.613" d="M617.246 311.397s6.22-2.836 4.306-7.66c0 0-.69-1.63-1.97-1.608 0 0-2.398.12-1.918 3.316 0 0 .72 3.137-.417 6.86z" fill="#64b4d1" stroke="#00247d" stroke-width=".399"/>
  <path d="M619.498 308.642s1.367-1.31 1.176-3.66c0 0-.08-.6.17-.67 0 0 .268-.113.308.47 0 0 .38 2.463-1.276 3.86 0 0-.113.14-.296.1 0 0-.196-.042-.082-.2z" fill="#fff"/>
  <path stroke-miterlimit="2.613" d="M626.097 307.064s4.366-2.744 2.003-7.368c0 0-.688-1.327-2.003-1.066 0 0-2.722.844-.6 4.616 0 0 1.078 2.443.6 3.8z" fill="#64b4d1" stroke="#00247d" stroke-width=".399"/>
  <path d="M627.188 300.796s-.24-.316-.076-.462c0 0 .106-.16.388.21 0 0 1.322 1.478.27 3.748 0 0-.12.324-.328.22 0 0-.18-.092-.016-.363 0 0 .942-1.87-.24-3.364z" fill="#fff"/>
  <path stroke-miterlimit="2.613" d="M613.028 310.19s-4.874-1.236-3.978-6.272c0 0 .48-2.2 2.642-1.9 0 0 2.487.636.868 3.836 0 0-.967 2.286.668 4.337z" fill="#64b4d1" stroke="#00247d" stroke-width=".399"/>
  <path d="M611.144 304.174s-.18-.24.03-.347c0 0 .21-.09.36.204 0 0 .607.807.077 1.912 0 0-.406.766-.208 1.666 0 0 .027.226-.163.266 0 0-.173-.06-.207-.226 0 0-.243-.78.176-1.644 0 0 .607-1.186-.076-1.82z" fill="#fff"/>
  <path d="M616.627 300.66s2.76-1.647 6.024.263c0 0-.232-1.006-1.97-1.448 0 0-.94-2.664-3.672-2.413 0 0 1.077 1.286 2.612 2.373 0 0-1.616.166-1.993 1.224zm2.033-7.27s1.87 1.38 2.63 2.306c0 0 .76-.946 1.767-1.618 0 0-1.148-.16-1.767.366 0 0-.966-.924-2.63-1.162z"/>
  <path stroke-miterlimit="10" d="M607.716 299.314s-.2-.683.28-1.407c0 0 .318-.623.2-1.207m19.676-40.33s2.912-.2 3.39-2.464m6.104-1.486s-1.014-.04-1.93.884c0 0-.7 1.046-1.698.924" fill="none" stroke="#000" stroke-width=".632"/>
  <path d="M623.466 247.806s1.616 0 2.363-.724c0 0 .877-.602 1.396.363 0 0 .798 1.367-.677 1.97 0 0-1.836.926 1.076 2.776 0 0-3.47-1.247-2.073-2.936 0 0 1.613-1.086.966-1.488 0 0-.16-.322-.767.08-.6.402-1.796.242-2.273-.04z"/>
  <path stroke-miterlimit="2.613" d="M626.626 211.188s.684-.93.404-3.726 2.147-3.116 3.08-2.313c0 0 .964.836.077 2.608-.612 1.022-1.33 2.347-3.66 3.43z" fill="#64b4d1" stroke="#00247d" stroke-width=".399"/>
  <path d="M626.438 209.102s.91-.978.476-3.1c0 0-.003-.21.117-.224 0 0 .22-.066.268.163 0 0 .49 2.264-.638 3.494 0 0-.187.18-.313 0 0 0-.137-.13 0-.322z" fill="#fff"/>
  <path stroke-miterlimit="2.613" d="M624.76 210.172s-.07-1.127-2.018-3.04c-1.947-1.916-.346-3.68.846-3.664 0 0 1.236.02 1.68 1.9.267 1.09.474 2.692-.607 4.804z" fill="#64b4d1" stroke="#00247d" stroke-width=".399"/>
  <path d="M624.448 207.723s.036-1.38-1.728-2.82c0 0-.143-.168-.06-.267 0 0 .13-.187.3-.042 0 0 1.898 1.62 1.944 3.177 0 0-.02.27-.24.204 0 0-.193-.017-.216-.26z" fill="#fff"/>
  <path stroke-miterlimit="2.613" d="M622.107 209.326s-.61-.918-2.913-1.77c-2.406-.864-1.766-2.964-.743-3.404 0 0 1.06-.46 2.176.947.66.814 1.43 1.99 1.482 4.228z" fill="#64b4d1" stroke="#00247d" stroke-width=".399"/>
  <path d="M621.063 207.638s-.646-1.266-2.748-1.82c0 0-.2-.09-.163-.206 0 0 .04-.226.266-.167 0 0 2.367.667 3.094 2.062 0 0 .094.262-.13.284 0 .002-.183.07-.307-.142z" fill="#fff"/>
  <path stroke-miterlimit="2.613" d="M623.613 210.244s-1.12.316-3.696-.927c-2.674-1.242-3.702.92-3.26 2.076 0 0 .47 1.197 2.464.987 1.162-.122 2.693-.423 4.483-2.136z" fill="#64b4d1" stroke="#00247d" stroke-width=".399"/>
  <path d="M617.626 211.066s1.168.72 3.286-.1c0 0 .216-.04.26.076 0 0 .097.208-.113.284 0 0-2.264.898-3.702.11 0 0-.22-.163-.066-.31 0 0 .112-.162.333-.06z" fill="#fff"/>
  <path stroke-miterlimit="2.613" d="M619.846 202.107s1.286.623.987 2.13" fill="none" stroke="#000" stroke-width=".632"/>
  <path stroke-miterlimit="10" d="M626.628 202.318s.603 1.692-.062 2.46" fill="none" stroke="#000" stroke-width=".632"/>
  <path stroke-miterlimit="2.613" d="M436.818 211.188s-.684-.93-.406-3.726c.28-2.796-2.146-3.116-3.08-2.313 0 0-.964.836-.077 2.608.612 1.022 1.33 2.347 3.662 3.43z" fill="#64b4d1" stroke="#00247d" stroke-width=".399"/>
  <path d="M436.906 209.102s-.91-.978-.476-3.1c0 0 .003-.21-.117-.224 0 0-.22-.066-.268.163 0 0-.49 2.264.638 3.494 0 0 .187.18.313 0 0 0 .138-.13 0-.322z" fill="#fff"/>
  <path stroke-miterlimit="2.613" d="M437.692 210.172s.072-1.127 2.02-3.04c1.946-1.916.346-3.68-.847-3.664 0 0-1.236.02-1.68 1.9-.267 1.09-.474 2.692.607 4.804z" fill="#64b4d1" stroke="#00247d" stroke-width=".399"/>
  <path d="M437.896 207.723s-.036-1.38 1.728-2.82c0 0 .143-.168.06-.267 0 0-.13-.187-.3-.042 0 0-1.898 1.62-1.944 3.177 0 0 .02.27.24.204 0 0 .192-.017.216-.26z" fill="#fff"/>
  <path stroke-miterlimit="2.613" d="M440.236 209.326s.61-.918 2.913-1.77c2.404-.864 1.764-2.964.742-3.404 0 0-1.06-.46-2.174.947-.66.814-1.43 1.99-1.482 4.228z" fill="#64b4d1" stroke="#00247d" stroke-width=".399"/>
  <path d="M441.29 207.638s.646-1.266 2.748-1.82c0 0 .2-.09.163-.206 0 0-.04-.226-.264-.167 0 0-2.367.667-3.094 2.062 0 0-.093.262.132.284 0 .002.182.07.306-.142z" fill="#fff"/>
  <path stroke-miterlimit="2.613" d="M438.73 210.244s1.12.316 3.696-.927c2.674-1.242 3.702.92 3.26 2.076 0 0-.47 1.197-2.464.987-1.16-.122-2.692-.423-4.482-2.136z" fill="#64b4d1" stroke="#00247d" stroke-width=".399"/>
  <path d="M444.717 211.066s-1.168.72-3.286-.1c0 0-.216-.04-.26.076 0 0-.096.208.114.284 0 0 2.264.898 3.7.11 0 0 .22-.163.066-.31 0 0-.11-.162-.333-.06z" fill="#fff"/>
  <path stroke-miterlimit="2.613" d="M442.497 202.107s-1.286.623-.987 2.13" fill="none" stroke="#000" stroke-width=".632"/>
  <path stroke-miterlimit="10" d="M436.816 202.318s-.603 1.692.062 2.46" fill="none" stroke="#000" stroke-width=".632"/>
  <path d="M492.633 187.69s.816 2.327.463 4.434c-.314 1.886.116 2.372.796 2.746.69.322 1.966-.243 2.12-1.72 0 0 1.614 3.16-1.626 6.277 0 0-2.268 1.388-4.17-.467-.676-.663-.973-2.468-.644-4.132 0 0 .494-2.27-.33-4.6 0 0 1.286 1.373.968 4.11 0 0-.668 4.908 2.976 4.667 0 0 2.612-.03 2.687-3.076 0 0-.942 1.084-2.108.723-.827-.266-1.686-1.066-1.46-2.316.14-1.32.608-3.626.33-6.646zm-4.117 8.063s-.2 3.88-3.748 4.826c0 0 .6-.703-.3-2.633 0 0-.776-1.126-.716-2.876 0 0-1.13.884.16 3.216.777 1.408.1 3.097-.14 3.167-.24.06 6.86-.806 4.744-6.69zm-4.606-3.86s-.867-.966-.917-3.197c-.06-2.232-.478-2.774-.777-3.036 0 0 .438 1.93.318 3.116-.12 1.186.08 1.87.24 2.433 0 0-1.934.3-3.16-2.616-1.163-2.69-2.333-2.473-2.91-2.463 0 0 .673.076 2.032 2.633 1.368 2.467 1.736 2.967 6.164 3.118zm-9.06-6.831s1.116 2.674 1.166 4.082c0 0-2.692-.866-3.29-3.117 0 0-2.77.946-1.764 4.142 0 0-2.392-.846-3.47-2.796 0 0 1.337 1.006 2.673 1.448 0 0-.14-2.674 3.09-3.64 0 0 .48 2.306 2.093 2.866 0 0-.12-1.447-.398-3.076zm4.266-4.682s.897 1.306 2.73 1.366c.878.03 1.82-.17 2.733-1.367 0 0-.12 2.27-2.733 2.29 0 0-2.73.1-2.73-2.29zm-11.299 16.63s1.36 1.236 1.644 1.643c0 0 .968.936 1.78-.274 0 0 1.048-1.934 2.333-1.883 0 0-.912.634-1.937 2.46 0 0-.276.676-1.04.76-.366.037-.806.162-1.488-.66 0 0-.69-.72-1.29-2.137zm14.03-24.64c-2.73 0-.43 2.112-.43 2.112.06 3.347-2.626 4.377-4.464 3.408-1.83-.97-.4-3.408-.4-3.408s-2.062 1.366-.746 3.317c1.316 1.96 4.764 1.084 6.03-.726 1.266 1.81 4.716 2.684 6.03.724 1.317-1.962-.747-3.318-.747-3.318s1.43 2.437-.398 3.408c-1.83.97-4.616-.06-4.466-3.408 0 0 2.302-2.112-.43-2.11zm1.666-3.618s.966 1.63.747 4.1c0 0 .866-2.472-.748-4.1zm-8.372 3.83s-.21-1.78-1.946-1.93c0 0 1.466 1.066 1.944 1.93zm13.466 0s.21-1.78 1.944-1.93c0 0-1.466 1.066-1.944 1.93zm-16.209 2.714s1.376.423 2.213-.603c0 0-1.686.422-2.213.603zm-4.466-10.916s1.6-.182 3.2 2.2c0 0-1.686.846-1.974 1.368 0 0 0-.784.777-1.478 0 0-.3-1.206-2.003-2.08zm26.794 0s-1.6-.182-3.2 2.2c0 0 1.686.846 1.974 1.368 0 0 0-.784-.777-1.478 0 0 .298-1.206 2.003-2.08zm-12.36 1.777s1.436.394 3.23-.602c0 0 2.212-1.176 3.618 0 0 0-1.227-.646-3.69.602 0 0-2.362 1.296-3.268 0z"/>
  <path d="M483.87 167.606s1.227-2.16 4.966-1.723c0 0-1.017 2.99-4.964 1.723z" fill="#fff"/>
  <ellipse cx="486.449" cy="166.939" rx=".739" ry=".937" fill="#784421"/>
  <ellipse cx="486.449" cy="166.939" rx=".439" ry=".676"/>
  <path d="M476.866 163.022s2.362.16 3.798 1.066c0 0 1.626.906 3.26-.393 0 0 1.886-1.086 3.096-2.693 0 0-2.887 1.99-3.964 2.292 0 0-.987-.764-1.376-1.84 0 0 .16-.813 1.706-2.32 0 0-2.093.632-2.612 2.41 0 0 .39 1.087 1.196 1.932 0 0-.39.18-1.406-.463 0 0-2.213-.764-3.798-.09zm6.001 14.188c-2.043 1.766 0 1.686 0 1.686s2.044.18 0-1.684zm-1.182-11.063s-1.436.394-3.23-.602c0 0-2.214-1.176-3.62 0 0 0 1.227-.646 3.69.602 0 0 2.362 1.296 3.26 0z"/>
  <path d="M479.18 167.606s-1.227-2.16-4.966-1.723c0 0 1.017 2.99 4.966 1.723z" fill="#fff"/>
  <ellipse cx="476.601" cy="166.939" rx=".739" ry=".937" fill="#784421"/>
  <ellipse cx="476.601" cy="166.939" rx=".439" ry=".676"/>
  <path d="M664.063 148.26v136.613c0 36.197-72.36 47.967-72.36 47.967s-72.36-11.76-72.36-47.967V148.26h144.72z" fill="none" stroke="#000" stroke-width="1.28"/>
</svg>
