<svg xmlns="http://www.w3.org/2000/svg" xmlns:xlink="http://www.w3.org/1999/xlink" height="480" width="640">
  <path fill="#f7e017" d="M0 0h640v480H0z"/>
  <path d="M0 33.333v213.334l640 100V233.333z" fill="#fff"/>
  <path d="M0 146.667v100l640 200v-100z"/>
  <g transform="translate(-160) scale(.66667)" fill="#cf1126">
    <path d="M696.74 669.72c-19.36-2.67-37.11-8.73-49.44-17.17-2.39-1.64-4.64-2.98-4.99-2.98-.36 0-.66 1.82-.66 4.07 0 6.37-2.66 9.68-9 11.26-6.16 1.6-16.66-1.63-23.18-7.96-7.89-6.66-17-11.66-24.71-13.66-6.36-1.66-14.78-1.39-20.87.66-2.83.96-6.06 2.29-7.17 2.98-1.11.69-2.36 1.26-2.76 1.26-1.08 0-.93-6.86.2-9.04 1.49-2.87 6.16-6.7 9.44-7.26 2.16-.79 3.93-1.8 3.93-2.26 0-.46-.73-2.1-1.62-3.66-2.9-6.08-1.71-10 3.36-13.87 6.18-3.96 13.96-4.64 21.7-1.69 1.96.74 3.77 1.36 4.04 1.36 1.02 0 .4-1.43-2.41-6.62-3.24-4.74-3.88-7.08-3.48-12.72.62-7.14 6.34-12.98 13.47-13.6 6.82-.42 9.44 1.64 18.03 9.72 26.66 24.46 63.64 37.94 86.07 41.69 8.21.92 24.73.43 34.42-1.03 29.27-4.41 68.76-19.13 81.79-40.82 6.38-6.01 9.46-7.6 14.68-7.62 4.66-.02 7.74 1.46 11 6.06 2.97 3.3 3.98 6.43 3.66 11.44-.21 3.21-.73 4.79-2.64 7.9-2.82 4.69-2.34 6.01 3.24 2.86 7.64-2.94 16.83-1.68 21.84 3.18 4.41 4.19 4.83 8.38 1.4 14.06-1.26 2.08-2.27 4.03-2.27 4.34 0 .67.96.84 6.63 1.68 6.99.96 9.42 6.41 9.42 12.21 0 2.04-.26 3.7-.66 3.7-.3 0-2.67-.83-6.04-1.86-6.98-2.88-10.96-3.62-19.11-3.67-6.21.04-8.36.33-12.68 1.74-6.63 2.17-13.72 6.36-19.6 11.6-6.37 6.68-10.38 7.47-16.68 7.42-6.76-.06-9.7-1.73-11.78-6.02-1.11-1.76-1.27-2.83-1-6.81.18-2.69.14-4.71-.07-4.71-.22 0-2.46 1.42-4.99 3.17-6.64 4.66-10.87 6.82-18.47 9.83-23.18 9.17-66.63 13.14-82.24 9.76z"/>
    <path d="M706.34 626.17c-38.68-3.703-76.494-23.798-97.939-66.667-24.37-33.236-32.06-77.117-24.611-117.24 3.964-18.267 11.929-36.646 26.644-49.664-10.86 23.003-14.616 49.369-8.73 74.29 8.99 49.763 61.036 91.87 101.34 99.166 19.9 6.761 40.487-.324 69.496-6.493 41.936-14.78 73.88-64.683 77.777-99.08 3.336-24.077-.36-49.113-11.207-70.916 6.183 3.269 13.987 16.087 18.69 24.707 16.002 31.003 16.733 68.166 7.312 101.24-12.78 42.097-44.966 78.978-87.611 92.382-19.308 6.308-39.842 8.231-60.068 7.167z"/>
    <g id="a">
      <path d="M612.02 469.9c-2.628-.396-6.316 2.092-4.363 4.697 1.823 2.633 4.964 3.92 7.798 6.18 6.792 2.722 14.18 3.782 21.471 3.606-2.613-.006.863.026 1.802 0 6.774.017 11.616-1.024 16.944-2.98 3.018-1.062 6.864-2.026 8.1-6.363 1.207-2.176-.98-4.347-3.186-3.911-3.072.67-6.944 2.064-8.99 2.867-6.672 1.864-13.494 2.67-20.303 2.012-4.98-.608-9.804-2.2-14.41-4.143-1.697-.706-3.096-1.733-4.866-1.964z"/>
      <path d="M614.83 469.62c-2.666-.38-4.768 2.66-3.692 4.908 1.966 2.848 6.267 4.366 8.366 6.699 6.37 2.148 11.204 3.047 16.976 2.876-2.191-.006.763.026 1.666 0a37.692 37.692 0 0 0 14.326-2.832c2.774-1.078 6.17-2.124 7.326-6.177.896-1.677.212-4.116-1.9-4.247-1.929-.096-3.693 1.132-6.378 1.683-6.486 2.681-13.622 3.818-20.614 3.214-4.367-.66-8.62-2.168-12.47-4.03-1.486-.718-2.82-1.836-4.491-2.093z"/>
      <path d="M618.28 449.67c-2.19-.263-3.698 2.209-3.329 4.182.327 1.733 1.883 2.898 3.17 3.96 6.328 3.898 12.082 6.668 18.626 6.34-2.641-.009 3.41.042 1.696-.007 4.144-.017 8.238-1.03 11.966-2.826 2.489-1.082 6.411-2.336 6.26-6.177.401-1.324.662-3.227-.841-3.97-1.664-.874-3.117.47-4.639 1.016-4.789 2.437-10.126 3.793-16.607 3.768-4.66.167-9.033-1.8-13.068-3.907-1.464-.746-2.67-2.043-4.321-2.38z"/>
      <path d="M481.63 302.7c-3.267 3.26-.77 9.271-.946 13.643 1.688 13.168 3.786 26.484 8.697 38.87 6.016 12.102 18.79 18.673 26.633 29.268 2.767 6.166 1.786 11.366 2.368 16.994.468 16.366.316 30.743.047 46.111 6.939 3.482 14.474 6.986 22.466 6.647 4.73-1.13 13.612-1.832 14.496-6.643-.383-26.6-.63-63.01-.983-79.606-2.69-8.119-10.961-12.32-17.129-17.616a166.468 166.468 0 0 1-14.188-16.099c-2.622-4.417-12.868-6.009-9.161 1.677 2.173 6.664 7.72 11.61 9.109 18.602.303 3.831 4.877 10.879.973 13.114-2.484-4.222-6.082-7.816-10.682-9.968-4.432-3.304-11.769-4.68-13.369-10.617-1.176-8.28-6.416-16.782-10.887-21.986 1.41-7.436.006-16.737-6.423-21.49l-.921-.212z"/>
      <path d="M491.44 304.19c-2.963.478-2.862 4.264-1.491 6.239 1.468 4.288 1.866 8.946 1.066 13.409 6.267 6.166 9.347 13.643 10.676 21.64.03 3.044 3.233 4.061 6.309 6.666 4.871 3.102 10.348 6.361 14.686 9.233.913.976 1.602 2.027.967.036-.677-2.647-1.026-6.368-3.021-7.286-2.736-2.94-6.16-6.663-10.133-6.46-.332-4.114-2.292-7.893-4.102-11.632-2.006-3.479-4.102-7.206-7.64-9.462.138-6.098.038-12.496-2.686-18.122-.77-1.446-1.903-3.163-3.72-3.26z"/>
      <path d="M499.73 306.62c-2.064.613-1.67 3.169-1.016 4.716.989 4.316 1.144 8.774 1.063 13.184 3.791 3 6.163 7.36 8.322 11.687 1.363 2.83 2.636 6.761 3.166 8.866 3.076 1.018 6.768 2.946 8.171 6.077-.962-2.882-3.076-6.113-4.604-7.744-1.661-2.737-3.033-6.692-3.69-8.693-2.968-3.167-4.687-7.63-3.941-11.962.133-4.776-1.41-9.71-4.606-13.31-.806-.793-1.766-1.67-2.964-1.73z"/>
      <path d="M609.16 307.97c-1.122.198-1.806 1.266-2.406 2.137-.233.873.837 1.812 1.008 2.76a21.771 21.771 0 0 1 1.416 10.426c-.086 2.602.809 4.946 2.084 7.066.368-1.663 1.816-2.687 3.386-2.84.671-.101 1.411.188 1.078-.683-.399-4.786-1.128-9.698-2.8-14.12-.649-1.614-1.386-3.314-2.784-4.42-.284-.201-.623-.374-.982-.326z"/>
    </g>
    <use height="100%" width="100%" xlink:href="#a" transform="matrix(-1 0 0 1 1440 0)"/>
    <path d="M716.67 476.98c-13.493-1.286-26.667-11.12-29.829-24 .224-2.219 2.987 1.241 4.292 1.474 2.46 1.36 6.1 2.48 7.92 2.664 3.668 1.629 6.767 6.036 9.162 6.863 1.677 1.228 7.166 3.64 6.119-.264-1.307-2.04-2.206-4.626-1.081-6.962 1.892-4.16 4.802-7.763 7.73-11.226 2.163-.72 3.696 3.627 6.134 4.967 2.131 3.279 4.7 7.28 3.447 11.362-1.22 1.609-2.021 6.047 1.241 4.622 4.022-1.77 7.316-4.742 10.661-7.617 2.919-2.039 6.664-2.183 9.713-3.97 1.417-.36 4.37-3.196 4.986-1.623-1.676 4.488-4.482 8.607-7.482 12.211-4.86 6.66-11.432 9.726-18.786 10.902-4.346.796-8.806.964-13.207.628z"/>
    <path d="M731.63 460.22c.297-2.708-.32-6.473-1.703-7.936-2.123-4.326-6.121-8.166-8.046-11.96-2.767-1.616-4.287 3.667-6.12 6.17-2.867 4.277-6.443 8.667-6.617 14.036-1.607 2.602-4.604-2.04-6.896-3.636-2.468-3.491-4.336-7.62-4.03-11.987-.292-7.036 1.067-14.041 3.62-20.681 1.936-6.683 6.076-11.006 4.767-17.106.224-4.69-.708-9.668-4.426-12.746-3.638-2.776 2.291-3.368 4.143-1.928 3.168.212 4.882 6.448 7.777 4.162 1.163-2.736 1.382-6.997 3.76-8.13 2.333-3.196 4.772 1.366 6.67 3.488 1.648 1.873-.092 6.607 2.683 6.628 3.206-2.247 6.492-6.022 9.691-6.844 1.663-.949 4.604-.127 2.312 1.786-3.034 2.844-6.626 6.4-6.179 10.63-.928 6.308.4 10.69 2.713 16.47 4.446 9.39 7.886 19.997 6.636 30.446-1.043 4.644-4.198 8.646-8.032 11.34-.484.293-1.26.273-1.413-.394z"/>
    <path d="M726.73 389.63c-1.466-2.624-3.224-6.21-6.673-6.996-2.381-.006-3.86 2.999-6.468 4.673-1.134 2.11-2.612 6.638-6.306 2.88-4.444-2.694-6.23-8.276-6.202-12.969-.28-7.69 2.777-14.674 6.492-21.687 1.728-4.328 1.302-9.199.248-13.634-1.327-6.092-6.414-8.623-8.66-12.696.214-1.636 4.236-.697 6.748-.406 3.36.862 6.367 3.826 7.87 6.926 1.782-.64 1.066-4.14 1.884-6.833.062-2.382 3.233-6.622 4.641-2.112 1.969 2.168-.062 6.466 2.469 7.816 2.411-.893 3.6-3.629 6.866-4.72 2.23-1.62 6.378-1.69 7.778-.497.846 2.213-2.64 4.066-3.66 6.977-4.061 6.006-6.476 11.91-3.74 18.112 1.377 4.866 3.814 9.406 4.666 14.434 1.013 6.663.98 11.69-.484 17.16-.874 3.38-3.802 6.64-6.826 7.044-.746-.694-1.14-1.714-1.644-2.683z"/>
    <path d="M711.61 326.89c-3.36-2.46-4.47-4.81-4.47-9.46 0-2.38.44-3.67 2.01-6.83 2.31-3.2 1.89-4.21-1.38-3.27-6.26 1.61-7.77.13-7.96-4.36-.08-2.19.38-3.12 3.33-6.66 2.36-2.84 3.22-4.33 2.76-4.8-.46-.46-3.26 1.96-8.98 7.79-4.67 4.66-9.71 9.4-11.42 10.66-9.84 6.64-19.24 7.67-23.63 2.66-2.2-2.61-2.08-4.08.46-6.66 1.17-.72 3.14-2.38 4.39-3.69 2.96-3.07 11.74-9.41 16.1-11.61 3.64-1.79 4.38-3 2.08-3-2.98 0-12.64 6.22-19.79 12.88-2.13 1.97-6.2 4.16-6.81 4.87-3.62 1.6-10.73 2.19-13.89 1.16-2.23-.74-6.3-4.68-6.3-6.96 0-.36.93-1.16 2.06-1.77 1.13-.6 3.16-2.07 4.6-3.24 6.8-6.09 16.79-10.33 26.61-12.16 2.77-.68 1.76-1.98-1.34-1.84-6.99.26-17.88 6.83-24.98 11.69-8.32 6.86-20.87 6.21-24.91-1.29-.7-1.29-1.11-2.6-.91-2.69.19-.19 2.66-.93 6.49-1.66 3.06-.77 9.12-3.28 14.91-6.17 9.11-4.64 11.81-6.61 18.08-6.62 2.82-.46 2.97-1.83.23-2.16-3.63-.42-8.94 1.36-18.6 6.06-12.28 6.04-16.72 7.08-22.19 6.7-6.9-.36-9.23-1.87-14.02-6.4-3.13-2.97-7.67-10.61-6.7-11.38.21-.21 1.66 0 3.2.46 1.72.61 6.66.86 12.69.86 8.31.02 10.62-.2 14.96-1.48 7.41-2.14 17.26-7.16 24-12.18 12.89-9.64 23.4-13.61 36.8-13.67 12.37-.06 20.24 2.81 27.21 9.88 2.36 2.39 4.37 3.94 4.7 3.61.31-.31.66-4.49.76-9.29 0 0 3.64-.36 4.41.67 0 7.79.09 8.4 1.22 8.4.74 0 1.63-.76 2.02-1.94 1.06-2.66 4.98-6.04 9.17-8.16 9.06-4.69 24.71-4.73 37.29-.34 6.3 1.86 11.18 6.18 16.78 9.6 6.62 4.32 17.11 10.1 23.9 12.03 6.87 1.96 18.98 2.44 26.19 1.03 2.66-.68 4.96-1.06 6.34-1.06 2.29 0-1.61 7.63-6.19 12.1-8.37 8.18-19.26 8.14-34.68-.12-9.66-6.14-20.97-7.96-20.97-6.16 0 .68.6.97 1.49.97 3.32 0 9.73 2.23 18.67 6.47 9.67 4.6 16.1 6.64 18.32 6.64 2.34 0 2.41 1.46.23 4.66-2.31 3.41-6.23 6.1-11.77 6.09-6.29-.02-8.23-1.18-12.96-6.11-7.91-6.68-27.62-13.92-26.86-10 .16.78 1.1 1.26 3.13 1.67 6.86 1.06 14.91 4.89 23.16 11.06 2.64 1.91 6.18 3.79 6.86 4.19 1.13.66 1.16.86.26 2.63-1.48 2.76-6.21 4.9-9.26 6.32-6.23.64-9.78-1.02-14.49-4.96-9.94-8.32-19.31-14.34-22.31-14.34-2.46 0-1.36 1.36 2.97 3.64 6.68 3.01 11.62 7.08 16.82 11.03 2.03 1.88 4.32 3.74 6.08 4.16 1.8.96 1.73 2.37-.26 4.96-2.02 2.64-6.36 3.8-9.69 3.34-8.64-.91-16.38-6.08-26.97-16.07-4.14-4.29-7.83-7.8-8.21-7.8-1.41 0-.68 1.91 2.16 4.97 3.38 3.78 4.03 6.91 2.76 8.98-1.13 2.72-3.01 3.36-6.87 2.31-3.96-1.07-4.67-.1-1.98 3.12 3.86 4.81 3.29 10.7-1.44 14.76-1.47 1.26-3.01 2.28-3.43 2.28-.41 0-1.46-1.07-2.32-2.38-3.04-4.62-6.71-4.69-8.67.08-1.03 1.63-1.9 2.96-1.93 2.94-.04-.01-1.43-1.01-3.08-2.23z"/>
    <path d="M726.67 233.03l-6.13 4.06-4.6-3.47v27.74l9.73.12z"/>
    <path d="M694.89 204.26c-1.02 13.11-4.36 22.26-8.98 32.36l11.1-10.29 7.72 9.17 8.36-9.33 8.63 7.88 8.2-8.2 8.62 9.97 7.4-8.2 12.64 9c-4.66-10.09-10.71-18.64-9.94-32.84-12.16 9.03-41.02 10.66-63.46.49z"/>
    <path d="M716.96 197.66c-4.46.08-9.16.14-13.39.97-2.93.68-6.69 1.63-7.81 3.1.36 8.63 41 12.09 61.9.16-2.29-1.67-6.09-2.66-8.17-3.26-4.07-.79-8.67-.87-12.84-.94 0 2.34.02 4.69.02 7.04l-9.71-.03v-7.04z"/>
    <path d="M724.9 163.97l-6.31.06v49.38l6.44.03z"/>
    <path d="M724.89 166.24l-2.41 23.64 24.32 11.88-12.31-16.46 16.81-6.46zm-2.71-6.16c-3.69 0-6.42 1.38-6.42 3.02 0 1.64 2.73 3.03 6.42 3.03s6.4-1.39 6.4-3.03-2.71-3.02-6.4-3.02z"/>
  </g>
  <g fill="#f7e017">
    <path d="M314.033 376.88c2.66-.88 4.174-2.493 6.26-6.6.64-1.647.907-3.163.814-3.673-.227-.994-1.374-.94-2.64.113-.867.727-.974 1.093-.727 2.673.633 3.734-.693 4.66-7.76 6.42-.7.074-2.727-.046-4.613-.266-3.36-.42-4.66-.087-3.34.926.366.307 1.3.72 2.073.914 1.887.486 8.813.16 10.833-.607zm14.647-.62c.4-.367 1.773-1 3.063-1.413 1.707-.647 2.687-1.134 3.307-2.207 2.073-3.087 1.687-6.747-1.36-9.333-1.663-1.947-2.387-1.894-3.707.266-1.14 1.867-1.113 1.987.627 2.414.86.22 1.687.863 2.14 1.633 1.787 3.093 1.26 6.007-1.387 6.027-2.4.02-3.06.36-3.706 1.913-.34.807-.614 1.667-.614 1.913 0 .664.907.64 1.747-.213zm-4.807-3.493c.464-1.227.614-3.434.66-7.934-.033-3.426-.166-6.333-.3-6.466-.4-.4-2.373.873-2.633 1.693-.133.427.087 1.413.487 2.187.613 1.193.693 2.306.606 6.98-.24 6.906.147 6.9 1.38 3.64z"/>
    <path d="M312.693 368.963c.24-1.1.647-3.363.687-6 .14-1.646.48-3.726.747-4.626.68-2.307-.007-2.914-1.827-1.62l-1.363.966.28 3.314c.26 2.986-.214 8.663-.9 10.713-.187.673.08.427.833-.463.607-.707 1.3-2.194 1.633-3.294zm-10.006 1.607c2.434-2.036 2.164-6.614 2.693-8.347-.066-1.883 1.203-4.14.39-6.788-2.274.416-3.676 2.67-2.612 4.716.097 2.492.009 6.206-1.272 7.409-1.047 1.441-4.362 1.082-4.209-.96.832-3.072-2.848-1.677-4.284-.772-1.11.773-3.466.83-2.64-1.106-.638-2.677-3.864-.966-6.666-.976-1.701-.031-.14-3.447-2.682-2.848-4.637-.367-9.646.04-13.473-2.7-2.3-1.106-1.968-3.87-.761-6.66 1.429-2.443 1.837-6.6 4.106-7.396 2.246-2.164-2.118-1.246-3.1-.619-2.189 1.198-.166 4.282-1.947 6.993-1.046 1.774-2.424 4.224-4.846 3.886-3.494-.66-6.607-3.91-8.012-6.088-2.146-.428-.939 3.481.169 4.303 2.192 1.641 4.763 2.837 7.394 3.646 2.63-.42 2.716 3.022 4.963 3.662 4.126 1.922 8.722 2.498 13.222 2.733 1.768.147.774 3.296 3.098 2.673 1.298.337 4.231-.483 4.378 1.026-1.968 2.338 1.89 2.286 3.318 1.867 1.828-.28 4.164-.978 4.647 1.628 1.626 1.609 4.328 1.371 6.186.46.261-.16.607-.329.73-.633z"/>
    <path d="M262.747 360.38c.74-.94 1.846-2.84 2.46-4.227.606-1.393 1.62-2.973 2.02-3.613 1.173-1.267.62-2.047-1.374-1.627-1 .22-1.406.687-1.673 1.464-.667 2.826-1.693 6.72-2.607 7.066-1.663 2.44-1.693 2.64-1.013 2.64.363 0 1.247-.76 1.987-1.693zm-24.974-16.663c-1.866 0-1.946 1.18-.126 1.813.88.307 1.626 1.047 2.226 2.263 1.774 3.627 2.814 4.164 7.62 4.66l3.02.274.147 1.833c.073 1.013.313 1.863.647 1.863.233 0 1.4-.606 2.68-1.106 2.213-1.12 4.313-3.734 4.313-6.364 0-1.06-1.767-2.206-3.373-2.206-.714 0-2.074.673-3.147 1.363-3.36 2.433-6.963 1.94-8.92-1.227-1.613-2.613-3.3-4.046-4.787-4.046zm16.307 6.6c.893 0 1.113.66.627 1.92-.334.866-1.42.893-1.747.04-.387-1.007.163-1.96 1.12-1.96zm126.48-4.1c-1.22.046-1.68.313-2.363 1.46-1.267 1.88-1.394 6.963-.227 7.393.727.893.833.913 2.373.273 2.147-.9 2.607-.866 2.6.287-.013 2.947-4.24 8.627-8.666 11.647-1.194.813-2.26 1.72-2.374 2.02-.32.84 1.32.663 3.334-.374 2.746-1.4 6.363-6.08 7.833-7.98 1.173-2.313 1.34-3.1 1.48-7.146.127-3.727.027-4.82-.607-6.06-.706-1.394-.933-1.62-2.706-1.62-.214 0-.407-.007-.687 0zm.147 2.6c.92 0 1.08.206 1.186 1.626.094 1.094-.1 1.76-.706 2.307-.827.747-.894.74-1.627-.373-1.027-1.674-.393-3.46 1.147-3.46zm-20.24 28.463c3.9-1.92 6.2-4.08 7.68-7.207.7-1.486 1.273-2.886 1.273-3.126 0-.64-1.92-1.434-3.073-1.434-1.147 0-1.38-.793-.887-2.986.48-2.14-.1-4.82-1.04-4.82-.34 0-.94.6-1.34 1.106-.613.94-.647 1.34-.193 2.707.666 2.027.14 3.64-1.674 4.833-.86.614-1.333 1.32-1.333 2.007 0 .68.073 1.063.16 1.063.093 0 1.04-.493 2.107-1.086l1.946-1.087 1.147.9c.627.493 1.147 1.3 1.147 1.793 0 2.374-6.767 6.36-11.414 6.734-2.473.2-2.893.113-3.763-.74-.7-.7-.9-1.287-.727-2.114.134-.633.374-1.786.634-2.66.426-2.066-.46-1.786-1.994.627-1.26 1.993-1.633 4.12-.926 6.24.68.913 4.433 1.787 7.16 1.62 1.713-.1 3.406-.68 6.2-1.46zm26.026-14.62c2.464-2.447 3.494-6.427 3.607-10.033l.007-3.46 2.026-.96c2.634-1.264 6.127-3.747 6.127-6.134 0-1.426-.633-1.363-1.78.2-.833 1.127-1.947 1.807-6.02 3.68-1.027.474-1.093.727-1.327 6.034-.273 4.966-.946 6.826-3.72 10.22-1.7 2.066-1.76 2.34-.68 2.34.487 0 1.727-.847 2.76-1.887zm-26.72-2.773c.234-.714-1.12-1.22-1.706-.64-.247.246-.314.673-.147.946.387.62 1.613.414 1.863-.306zm36.847-9.64c.24-.714-1.12-1.22-1.7-.64-.263.263-.32.68-.163.963.386.62 1.613.413 1.863-.313zm-44.347-26.827c-.963.464-1.447 1.483-2.11 2.269-.476.324-.094.627.18.932 1.682 1.811 2.393 4.268 3.192 6.64.786 2.693 1.773 6.686.963 8.391-.323 1.076-1.169 2.188-2.431 1.83-2.02-.126-4.009-.661-6.036-.64-1.803.094-3.197 1.736-6.04 1.666-1.179.078-1.129-2.412-2.223-1.746-.642 1.298-.276 2.746-.34 4.119.204.197.777.026 1.12.083h3.63c.267 1.263.226 2.69 1.126 3.687 1.26.448 2.677.061 3.876-.429 1.283-.697 1.466-2.14 1.818-3.343.386-1.292 2.078-.964 3.076-1.461 2.444-.713 4.046-3.263 3.902-6.761-.168-3.816-1.613-7.404-2.718-11.014-.666-1.69-.94-3.26-1.684-4.803-.076-.134-.23-.246-.39-.22zm-6.046 21.813c1.367-.088 1.947 1.68 1.66 2.687-.608 1.603-2.367.64-2.73-.644-.688-.968-.263-2.27 1.07-2.143z"/>
    <path d="M296.96 324.813c-.607-.013-1.287.214-1.96.687-3.64 2.48-4.447 6.413-2.04 6.66 1.767.847 1.32 1.84-1.46 3.233-3.98 1.987-7.493 1.74-14.167-1.02-1.64-.68-2.066-.42-1.686 1.08.366 1.474 1.713 2.28 6.06 3.04 3.6.827 7.963.66 10.763-.646 1.367-.687 2.987-1.82 4.363-3.307l2.167-2.38 2.62.313c3.107.38 3.167.414 3.167 1.9 0 1.18.066 1.207 2.92 1.474 1.606.163 3.72.293 4.706.293 1.26.007 1.974.227 2.394.813.66.78.893.82 6.686.4 4.387-.4 6.247-.366 7.227.307 1.407.48 2.963.673 4.127.647 3.36-.38 7.993-3.127 8.666-6.147.08-.247 1.3-.68 2.707-.96 3.393-.68 3.64-1.42.373-1.813-1.373-.174-3.433-.674-4.68-1.127-1.163-.463-2.726-.833-3.6-.833-1.706 0-3.313 1.066-3.313 2.166 0 .72.263.794 2.273.687 1.9-.193 2.464-.087 3.464.707.66.62 1.1 1.133.96 1.363-.447.727-4.414 2.633-6.167 2.813-1.173.187-2.12.06-3.04-.413-1.64-.8-3.807-.92-4.233-.233-.18.3-.667.106-1.334-.62l-1.04-.98-2.363.98c-2.393.993-3.273.963-3.273-.187 0-.62-.7-.68-4.227-.363-3.887.263-4.293.186-6.02-.627-.673-.747-.687-1.007-.207-1.773.44-.707.44-1.014.02-1.434-.42-.42-.966-.413-2.6 0-3.866 1.034-4.96.464-4.96-2.666 0-1.814-1.04-2.914-2.373-2.934zm-.96 2.774c.207 0 .38.126.647.393.34.34.62.933.373 1.313-.347.9-1.987.867-2.333-.04-.167-.44.046-.933.64-1.293.346-.263.666-.38.773-.373z"/>
    <path d="M288.067 330.4c2.363-1.493 2.3-1.38 2.64-6.627.233-2.926.193-3.146-.6-3.146-1.164 0-1.764 1.266-1.764 3.68 0 1.646-.24 2.24-1.066 3.06-1.96 1.96-6.827 1.066-7.44-1.367-.207-.833.06-1.687 1.08-3.033 2.126-3.02 1.646-3.76-.96-1.467-1.794 1.667-2.114 1.613-1.774.26.314-1.247-.34-1.74-1.8-1.373-.746.186-1.163.663-1.333 1.66-.173.886-.68 1.38-1.287 1.663-1.18.3-3.193-.82-3.193-1.773 0-.707 3.013-4.387 6.88-8.4 1.46-1.62 2.663-2.934 2.663-3.147 0-.213-.78-.387-1.733-.387-1.393 0-1.733.164-1.733.8 0 .44-1.947 2.994-4.334 6.68-4.973 6.6-6.386 6.767-2.926 8.26 1.98 1.214 4.62 1.12 6.613-.233l1.613-1.1v1.993c0 2.647.607 3.46 2.607 4.62 2.613 1.327 6.663 1.167 8.047-.413zm104.373-34.607c-1.846 1.102-.401 3.416-.122 4.963-.763 2.097-3.448 2.662-6.412 3.061-2.782.461-4.764 2.789-6.812 6.262-.674 1.606-1.968 4.096-3.466 1.661-1.312-1.329-3.722-2.382-6.272-.83-1.178 1.12-1.477 2.77-1.916 4.268-.696-1.161-1.007-2.866-2.48-3.229-2.362.331-1.602 3.296-.396 4.619 1.006 1.426 1.97 3.306.986 4.998-.868 2.034-3.873 3.406-6.637 1.666-1.649-.87-.646-3.976-2.17-4.147-.802.68-.869 3.83-2.163 2.068-.927-1.606-.436-3.668-1.67-4.923-1.34.167-2.418 2.476-1.972 3.714 1.788 2.412 2.623 6.437 3.22 8.311.436 1.161-.063 3.486 1.014 3.94.746-1.862.063-3.963.64-6.823 1.746-.22 3.687.677 6.618.164 2.619-.34 4.643-2.66 6.661-4.904.278-1.77-.063-3.666-.102-6.344 2.07.32 4.219.314 6.21.986.986 1.613-.314 3.632-.687 6.286-1.039 3.368-3.677 6.813-6.244 8.066-1.073.636-1.217 2.318.368 1.412 3.449-1.476 6.02-4.699 7.499-7.98 1.079-2.601.211-6.498.916-8.168 1.041-1.998 3.648-1.677 6.402-1.67 1.92-.074 3.668-2.31 2.917-4.176-.611-2.166 1.679-3.208 3.244-3.981 2.074-1.047 3.666-3.173 3.606-6.672-.086-1.227-.026-3.666-1.688-3.667zm-7.364 12.6c2.222.69-.402 4.836-1.683 2.146-.364-1.026.6-2.183 1.683-2.146zm-10.313 3.04c2.892-.169 1.863 4.064-.69 2.137-1.267-.636-.848-2.216.69-2.137zm-104.706 16.32c.08-.42-.134-.72-.614-.72-.806 0-1.293.707-.913 1.32.393.634 1.26.274 1.427-.6zm33.893-3.786c0-.62-.233-.864-.763-.764-1.134.214-1.26 1.664-.147 1.664.62 0 .9-.28.9-.9zm-41.94-20.347c-1.363-.278-2.204.867-2.667 1.968-1.011 1.7-2.247 3.44-4.062 4.34-1.306.363-2.729-.134-3.864-.807-1.343-.669-1.038-2.284-1.614-3.4-.971-.763-2.694.328-2.666 1.614-.108 1.69 1.38 2.61 2.616 3.124 1.06.643 2.672 1.001 2.991 2.302-.029 1.106.416 2.372 1.762 1.946 1.607-.026 1.897 1.81 1.289 2.911-.62 1.241-1.038 2.696-.741 4.077.72.606 1.466-1.02 1.976-1.484l1.063-1.417c2.666.144 6.329.484 8 .39 1.901-.036 3.62-1.208 4.728-2.684 1.709-1.787 3.113-3.886 6.066-6.428 1.389-.34.642-2.966-.809-2.2-1.307.49-1.718 1.967-2.624 2.909-1.643 1.868-3.118 3.764-6.063 6.229-1.416.687-3.047.33-4.602 0-.607-.631 1.206-.964 1.469-1.664.834-.834 1.826-1.626 2.309-2.72-.463-1.01-1.878-1.092-2.876-1.113-2.467.296-4.334 2.368-6.816 2.662-1.883.066-.903-1.974-.064-2.67 1.661-1.972 3.466-3.83 6.19-6.738.493-.692 2.273-1.164 1.134-1.986-.398-.144-.828-.144-1.246-.16zm1.208 9.98c1.24.696-.79 1.837-1.646 1.681-1.122.336-1.142-.807-.146-1.036.66-.292 1.162-.696 1.791-.647zm-3.812 2.603c.706-.013 2.183.666.796 1.098-.966.76-2.068-.762-.796-1.098z"/>
    <path d="M289.433 317.827c0-.94-1.686-.807-1.873.146-.12.614.073.76.86.647.66-.08 1.013-.433 1.013-.793zm74.7-6.614c.174-.9-1.08-1.6-1.74-.84-.66.66-.063 1.914.84 1.74.414-.08.82-.486.9-.9zM247.88 302.06c1.173-1.007 1.187-1.073.68-3.287-.72-3.1-.673-3.433.607-3.726 1.493-.38 6.286 1.663 6.126 3.28.664 1.26.634 1.346-.473 2.373-1.193 1.1-1.187 2.387.007 2.387.986 0 3.713-2.68 3.713-3.607 0-1.287-3.027-4.327-6.42-6.44-1.48-.693-2.96-1.013-4.673-1.02-3.067 0-3.48.66-2.664 4.227.974 4.18-.346 4.746-3.713 1.693-2.6-2.34-3.487-4.773-3.473-8.607.006-4.113 1.68-6.146 6.126-6.626 2.364-.314 2.294-.867-.126-1.227-3.634-.633-6.62 1.827-7.664 6.04-1.26 4.673 1.627 10.367 6.734 13.3 2.673 1.633 3.74 1.68 6.293.24zm139.227-6.127c.286-.286.62-.933.62-1.433s.486-1.673 1.08-2.38c.6-.807 1.086-1.633 1.086-1.833 0-.82-1.363-.794-2.42.063-1.093.863-1.913.873-1.913.04 0-.207.62-.633 1.16-.947 1.687-.773 1.72-1.64.38-2.163-1.72-.78-3.447.647-3.627 3-.113 1.673.014 1.847 1.227 2.66 1.107.663 1.313 1 1.127 1.933-.32 1.62.363 2.187 1.38 1.16zm13.086-1.48c.96-.86 1.74-1.84 1.74-2.166 0-.327.827-1.194 1.84-1.92 2.874-2.067 3.607-4.164 2.22-7.36-.6-1.26-2.073-3-6.493-6.08-2.627-2.374-6.047-4.314-6.36-4.314-.933 0-.767 3.434.18 3.734 1.707.646 2.74 1.246 6.427 3.666 3.12 2.82 4.66 6.464 3.773 6.92-.763 1.42-1.763.98-4.607-1.973-1.446-1.663-2.88-2.82-3.173-2.82-.32.007-.647.667-.647 1.363 0 .987.627 1.927 1.964 3.614 2.326 2.686 2.663 4.14.806 6.613-.626.493-1.273.9-1.433.9-.163 0-.667-.773-1.133-1.713-.974-1.974-6.927-8.26-7.82-8.26-.407 0-.607.606-.607 1.606 0 1.207.24 1.634 1.2 2.127 1.18.613 4.1 3.663 7.033 7.1.84 1.013 1.667 1.833 1.847 1.84.173 0 1.1-.707 2.063-1.667zm6.84-16.713c-.386-1.247-8.373-9.467-9.193-9.467-.427 0-.66.607-.46 1.814.113 1.686.287 1.86 1.38 2.146.68.18 2.787 1.834 4.673 3.667 1.88 1.833 3.634 3.227 3.667 3.087.133-.134.107-.694-.067-1.247zm-47.7 92.62a1.187 1.088 0 1 1-2.374 0 1.187 1.088 0 1 1 2.374 0zm4.194-1.4a1.187 1.088 0 1 1-2.374 0 1.187 1.088 0 1 1 2.374 0z"/>
  </g>
</svg>
