<svg xmlns="http://www.w3.org/2000/svg" height="480" width="640" version="1">
  <g stroke-width="1pt">
    <path fill-rule="evenodd" fill="#229e46" d="M0 0h640v480H0z"/>
    <path d="M321.406 436.936l301.483-196.67-303.308-196.2L17.11 240.734l304.296 196.2z" fill-rule="evenodd" fill="#f8e609"/>
    <path d="M462.77 240.006c0 70.328-67.103 127.34-127.644 127.34-70.442 0-127.644-67.012-127.644-127.34s67.104-127.34 127.644-127.34c70.442 0 127.646 67.012 127.646 127.34z" fill-rule="evenodd" fill="#2b49a3"/>
    <path fill="#ffffef" fill-rule="evenodd" d="M283.3 316.274L279.367 314l-4.093 2.026.917-4.66-3.162-3.332 4.62-.63 2.124-4.08 1.894 4.22 4.46.81-3.346 3.13m86.098 26.224l-3.94-2.274-4.092 2.026.916-4.66-3.16-3.332 4.62-.63 2.122-4.08 1.894 4.22 4.46.81-3.346 3.13m-36.216-29.993l-3.404-1.964-3.636 1.748.792-3.93-2.73-2.88 3.904-.467 1.834-3.623 1.636 3.646 3.863.7-2.89 2.706m86.866-8.477l-3.342-1.928-3.472 1.718.777-3.868-2.68-2.827 3.833-.46 1.8-3.46 1.607 3.68 3.783.686-2.837 2.667M330.37 266.03l-3.94-2.273-4.093 2.026.916-4.66-3.162-3.332 4.622-.63 2.123-4.08 1.894 4.22 4.46.81-3.346 3.13M226.13 226.62l-3.94-2.274-4.094 2.026.916-4.648-3.16-3.333 4.62-.63 2.122-4.08 1.894 4.22 4.46.81-3.346 3.13m13.283 67.14l-3.94-2.276-4.094 2.026.916-4.648-3.16-3.334 4.62-.63 2.123-4.08 1.894 4.22 4.46.81-3.346 3.132m131.964-67.33l-3.48-2.007-3.616 1.788.81-4.017-2.794-2.944 3.994-.47 1.876-3.603 1.673 3.728 3.94.716-2.966 2.766m-6.666 38.24l-2.74-1.682-2.86 1.408.64-3.164-2.2-2.32 3.146-.368 1.477-2.838 1.318 2.936 3.103.663-2.327 2.18m-142.199 60.422l-2.63-1.618-2.734 1.362.61-3.037-2.11-2.226 3.02-.364 1.416-2.723 1.264 2.818 2.978.64-2.233 2.09m200.14 16.164l-2.144-1.136-2.227 1.01.6-2.27-1.72-1.666 2.46-.266 1.164-2.038 1.03 2.108 2.426.404-1.82 1.663"/>
    <path fill="#ffffef" fill-rule="evenodd" d="M219.263 287.603l-2.63-1.618-2.734 1.362.61-3.037-2.11-2.226 3.02-.364 1.416-2.723 1.264 2.818 2.978.64-2.233 2.09"/>
    <path fill="#ffffef" fill-rule="evenodd" d="M219.263 287.603l-2.63-1.618-2.734 1.362.61-3.037-2.11-2.226 3.02-.364 1.416-2.723 1.264 2.818 2.978.64-2.233 2.09m42.299 3.048l-2.63-1.62-2.733 1.363.61-3.037-2.11-2.226 3.02-.364 1.416-2.722 1.266 2.817 2.978.64-2.233 2.09m-4.786 16.989l-2.63-1.618-2.734 1.362.612-3.038-2.11-2.226 3.017-.364 1.417-2.724 1.266 2.817 2.977.64-2.233 2.09m87.381-22.301l-2.63-1.62-2.733 1.363.61-3.036-2.11-2.226 3.018-.363 1.417-2.724 1.266 2.817 2.977.64-2.233 2.09m-26.099 3.048l-2.63-1.618-2.734 1.362.612-3.037-2.11-2.226 3.018-.363 1.417-2.724 1.264 2.817 2.98.64-2.234 2.09m-68.8-6.838l-1.648-.962-1.714.847.384-1.902-1.323-1.394 1.89-.222.89-1.706.792 1.766 1.864.34-1.4 1.31m167.838 46.384l-2.63-1.618-2.733 1.36.612-3.036-2.11-2.226 3.017-.364 1.417-2.724 1.264 2.817 2.978.64-2.233 2.09m-20.832 6.844l-2.178-1.26-2.264 1.122.607-2.622-1.748-1.848 2.6-.294 1.174-2.262 1.048 2.34 2.466.46-1.86 1.736m10.371 2.297l-2.03-1.173-2.108 1.044.472-2.344-1.63-1.718 2.33-.274 1.093-2.103.976 2.177 2.296.417-1.723 1.616m29.11-22.761l-1.966-1.13-2.03 1.006.464-2.267-1.667-1.666 2.243-.262 1.063-2.024.94 2.092 2.21.402-1.668 1.663M394.24 327.69l-2.664-1.396-2.662 1.24.694-2.786-2.06-2.043 2.93-.326 1.376-2.6 1.227 2.686 2.89.496-2.167 1.92m.649 14.247l-2.33-1.396-2.418 1.24.642-2.786-1.87-2.044 2.673-.324 1.266-2.6 1.12 2.686 2.636.496-1.977 1.918m-18.929-23.066l-1.966-1.13-2.032 1.006.466-2.267-1.668-1.663 2.242-.263 1.064-2.026.94 2.093 2.213.402-1.66 1.664m-17.781 2.273l-1.964-1.13-2.03 1.006.464-2.267-1.67-1.663 2.244-.263 1.063-2.026.94 2.093 2.21.402-1.668 1.664m-30.408-24.69l-1.966-1.128-2.03 1.004.464-2.267-1.668-1.664 2.243-.264 1.063-2.024.94 2.094 2.212.402-1.66 1.663m3.734 67.024l-1.666-.966-1.72.86.386-1.91-1.33-1.4 1.9-.223.893-1.716.796 1.772 1.874.34-1.407 1.316m-46.131-86.63l-3.942-2.274-4.093 2.026.917-4.648-3.162-3.334 4.62-.63 2.124-4.08 1.894 4.22 4.46.81-3.346 3.132"/>
    <path d="M444.368 286.817c1.944-6.083 4.46-12.76 6.783-19.786-67.742-69.608-143.26-89.993-238.68-83.72-3.422 6.668-6.16 13.423-8.47 20.863 113.063-10.786 196.936 39.27 241.37 82.664z" fill-rule="evenodd" fill="#fff"/>
    <path d="M413.914 262.36l2.42 1.323c-.38.868-.48 1.61-.31 2.26.18.646.626 1.208 1.336 1.688.76.616 1.424.74 2.016.68.6-.06 1.046-.306 1.336-.734a1.27 1.27 0 0 0 .226-.863c-.027-.3-.192-.66-.496-1.076-.21-.28-.72-.873-1.63-1.777-1.04-1.16-1.66-2.138-1.86-2.936-.28-1.122-.11-2.14.61-3.06.4-.69.936-1.03 1.612-1.318.686-.29 1.433-.366 2.24-.198.81.167 1.664.64 2.66 1.143 1.463.987 2.33 2.048 2.63 3.184.306 1.138.117 2.263-.666 3.346l-2.404-1.484c.3-.666.376-1.24.218-1.723-.147-.486-.66-.96-1.21-1.397-.676-.46-1.302-.682-1.874-.663a1.01 1.01 0 0 0-.866.468c-.186.277-.228.69-.13.943.13.46.668 1.193 1.626 2.234.963 1.04 1.604 1.89 1.96 2.647.366.667.616 1.34.482 2.06-.023.706-.284 1.427-.778 2.16a4.11 4.11 0 0 1-1.812 1.493c-.76.33-1.67.412-2.437.24-.86-.177-1.794-.607-2.798-1.29-1.462-.992-2.36-2.093-2.687-3.3-.322-1.213-.126-2.623.6-3.926zm-11.478-7.633l2.472 1.22c-.346.872-.417 1.628-.22 2.26.208.637.672 1.183 1.4 1.636.776.482 1.466.68 2.043.696.6-.086 1.037-.346 1.306-.786a1.26 1.26 0 0 0 .19-.87c-.038-.302-.218-.666-.64-1.068-.22-.272-.76-.84-1.697-1.713-1.087-1.117-1.746-2.07-1.978-2.86-.323-1.11-.194-2.133.386-3.077a3.619 3.619 0 0 1 1.66-1.38c.674-.316 1.42-.413 2.23-.29.818.127 1.686.473 2.696 1.04 1.492.926 2.408 1.962 2.763 3.074.36 1.126.21 2.247-.427 3.366l-2.464-1.386c.276-.676.327-1.262.16-1.728-.168-.482-.69-.93-1.264-1.36-.697-.433-1.33-.628-1.9-.686-.37.026-.647.196-.838.604-.172.282-.204.694-.09.944.146.443.714 1.166 1.71 2.168.994 1 1.68 1.822 2.062 2.466.38.64.668 1.318.663 2.027.007.708-.227 1.437-.69 2.193a4.168 4.168 0 0 1-1.76 1.666c-.746.36-1.666.474-2.427.336-.866-.14-1.816-.636-2.848-1.176-1.498-.933-2.438-1.996-2.816-3.19-.374-1.2-.23-2.614.438-3.943zm-14.206-3.807l7.276-11.966 8.837 6.416-1.23 2.026-6.43-3.942-1.616 2.662 6.983 3.668-1.226 2.016-6.984-3.667-1.977 3.266 6.667 4.08-1.228 2.017-9.063-6.667zm-20.692-16.993l1.08-2.1 6.4 2.796-2.646 4.962c-.79.238-1.78.296-2.982.17a9.366 9.366 0 0 1-3.317-.986c-1.3-.673-2.29-1.628-2.976-2.672a6.911 6.911 0 0 1-.974-3.47 8.61 8.61 0 0 1 .977-3.703c.664-1.298 1.63-2.31 2.69-3.04 1.067-.727 2.26-1.09 3.67-1.09 1.008-.002 2.104.306 3.29.916 1.642.8 2.677 1.747 3.104 2.846.64 1.096.638 2.28.298 3.666l-2.728-.82c.14-.702.067-1.366-.26-1.967-.296-.606-.806-1.096-1.627-1.47-1.097-.667-2.146-.67-3.166-.306-1 .363-1.86 1.23-2.664 2.6-.76 1.48-1.006 2.76-.73 3.842.277 1.073.944 1.886 2.008 2.437.624.27 1.1.44 1.73.607.64.066 1.22.06 1.763-.06l.81-1.682-2.872-1.486zm-90.242-22.379l2.034-13.867 4.172.62 1.123 9.826 3.86-9.093 4.188.618-2.033 13.87-2.69-.382 1.6-10.918-4.343 10.612-2.686-.398-1.134-11.32-1.6 10.916-2.692-.382zm-14.108-1.638l1.306-13.96 10.307.974-.217 2.36-7.603-.706-.29 3.096 6.978.667-.22 2.362-6.98-.668-.363 3.8 7.764.73-.22 2.364-10.672-.998z" fill="#309e3a"/>
    <g stroke-opacity=".602">
      <path d="M216.6 191.28c.04-1.43.284-2.62.736-3.68a6.649 6.649 0 0 1 1.346-1.884c.666-.662 1.18-.966 1.844-1.21.88-.347 1.888-.606 3.023-.476 2.066.06 3.682.744 4.877 2.067 1.206 1.316 1.776 3.114 1.714 6.396-.06 2.26-.72 4.017-1.982 6.264-1.26 1.24-2.914 1.834-4.963 1.777-2.077-.066-3.708-.736-4.9-2.037-1.19-1.308-1.766-3.078-1.694-6.307z" fill="#309e3a"/>
      <path d="M219.414 191.262c-.043 1.686.29 2.8.997 3.643.708.837 1.626 1.27 2.748 1.3 1.122.03 2.066-.36 2.794-1.138.746-.797 1.14-2.007 1.184-3.633.043-1.606-.277-2.813-.96-3.622-.676-.81-1.696-1.23-2.767-1.262-1.162-.03-2.11.346-2.843 1.128-.733.777-1.12 1.972-1.163 3.684z" fill="#f7ffff"/>
    </g>
    <g stroke-opacity=".602">
      <path d="M233.062 198.61l.163-14.017 6.933.07c1.494.018 2.674.167 3.244.42.677.267 1.214.71 1.613 1.36s.693 1.386.684 2.216c-.013 1.062-.332 1.918-.966 2.698-.623.676-1.66 1.096-2.777 1.26.606.363 1.104.76 1.49 1.193.397.43.923 1.196 1.686 2.293l1.673 2.764-3.372-.04-2.002-3.074c-.71-1.098-1.198-1.788-1.46-2.072-.266-.29-.646-.487-.842-.693-.297-.11-.77-.17-1.418-.177l-.67-.008-.068 6.862-2.82-.033z" fill="#309e3a"/>
      <path d="M236.976 190.466l2.086.024c1.363.016 2.198-.03 2.636-.142.337-.112.603-.306.796-.684s.293-.627.3-1.048c.004-.472-.118-.863-.37-1.142-.243-.296-.694-.486-1.06-.667-.23-.034-.916-.06-2.067-.072l-2.2-.026-.04 3.666z" fill="#fff"/>
    </g>
    <g stroke-opacity=".602">
      <path d="M249.003 186.188l6.147.26c1.16.06 2.04.196 2.64.406a4.68 4.68 0 0 1 2.036 1.396c.663.646.968 1.426 1.218 2.34.26.907.366 2.016.29 3.326-.068 1.163-.262 2.138-.68 2.96-.4 1-.938 1.797-1.618 2.396-.61.463-1.19.79-2.034 1.016-.632.166-1.468.222-2.61.17l-6.296-.27.706-14z" fill="#309e3a"/>
      <path d="M261.706 187.686l-.468 9.274 2.103.106c.786.042 1.367.026 1.71-.046.46-.093.86-.268 1.16-.626.32-.26.69-.696.81-1.31.223-.62.36-1.47.416-2.663s0-1.918-.16-2.607c-.16-.69-.404-1.063-.73-1.397-.327-.342-.76-.683-1.27-.724-.39-.11-1.167-.193-2.306-.26l-1.264-.067z" fill="#fff"/>
    </g>
    <g stroke-opacity=".602">
      <path d="M317.63 210.22l3.26-13.63 4.4 1.06c1.666.402 2.737.732 3.21.99.73.392 1.274.996 1.634 1.81.36.81.41 1.766.162 2.84-.2.836-.618 1.604-.968 2-.438.6-.932.864-1.48 1.07-.64.212-1.064.31-1.67.3-.686-.028-1.66-.19-2.89-.49l-1.786-.432-1.23 6.142-2.743-.66z" fill="#309e3a"/>
      <path d="M323.086 199.662l-.926 3.868 1.6.362c1.082.26 1.82.364 2.218.308a1.86 1.86 0 0 0 1.681-1.448c.12-.496.073-.94-.14-1.33a1.94 1.94 0 0 0-.967-.87c-.312-.143-.96-.332-1.96-.67l-1.324-.32z" fill="#fff"/>
    </g>
    <g stroke-opacity=".602">
      <path d="M330.606 214.106l4.64-13.22 6.698 1.98c1.408.498 2.387.98 2.937 1.446.66.463.923 1.064 1.093 1.807s.12 1.606-.166 2.286c-.348.992-.928 1.71-1.736 2.163-.806.438-1.817.637-3.032.298.467.64.802 1.076 1.03 1.61.238.636.49 1.43.766 2.683l.704 3.16-3.18-1.126-.913-3.666c-.322-1.27-.662-2.08-.72-2.436-.168-.36-.36-.638-.607-.834-.246-.202-.673-.41-1.286-.627l-.636-.192-1.938 6.62-2.66-.942z" fill="#309e3a"/>
      <path d="M336.938 207.426l1.967.696c1.276.462 2.09.68 2.446.683.366.006.67-.093.943-.296.272-.2.478-.6.616-.896.166-.446.162-.846.017-1.2-.136-.36-.408-.66-.813-.876-.206-.106-.847-.36-1.924-.73l-2.076-.736-1.177 3.366z" fill="#fff"/>
    </g>
    <g stroke-opacity=".602">
      <path d="M347.01 213.6c.424-1.363.982-2.444 1.673-3.24a6.68 6.68 0 0 1 1.808-1.46c.696-.377 1.397-.698 2.102-.666.94-.093 1.963.03 3.038.37 1.966.614 3.344 1.717 4.14 3.308.803 1.693.867 3.48.19 6.668-.67 2.162-1.78 3.67-3.33 4.628-1.648.862-3.302.97-6.26.367-1.982-.62-3.37-1.718-4.164-3.294-.793-1.683-.868-3.44-.196-6.67z" fill="#309e3a"/>
      <path d="M349.826 214.386c-.47 1.614-.48 2.773-.026 3.778.466.996 1.22 1.663 2.293 2 1.073.334 2.07.223 2.996-.336.932-.662 1.64-1.62 2.122-3.172.476-1.636.496-2.783.066-3.76-.432-.962-1.204-1.618-2.313-1.964-1.11-.347-2.123-.243-3.04.312-.916.648-1.61 1.692-2.09 3.133z" fill="#fff"/>
    </g>
    <g stroke-opacity=".602">
      <path d="M374.306 233.12l6.416-12.46 6.27 2.736c1.326.69 2.23 1.3 2.71 1.84.49.632.768 1.18.836 1.94s-.092 1.606-.47 2.242c-.48.934-1.163 1.664-2.017 1.892-.86.322-1.872.28-3.043-.128.378.698.646 1.18.8 1.74.168.664.288 1.484.387 2.763l.262 3.216-2.993-1.666-.416-3.648c-.146-1.304-.27-2.14-.378-2.612-.106-.377-.27-.682-.487-.91-.214-.233-.61-.6-1.186-.798l-.607-.264-2.677 6.197-2.606-1.3z" fill="#309e3a"/>
      <path d="M380.603 227.226l1.863.962c1.2.626 1.977.962 2.33 1.016.36.064.676 0 .973-.162.296-.16.64-.428.733-.803.216-.42.276-.814.184-1.186-.087-.374-.316-.702-.686-.98-.19-.134-.79-.466-1.808-.993l-1.962-1.013-1.63 3.16z" fill="#fff"/>
    </g>
    <g stroke-opacity=".602">
      <path d="M426.107 268.704c.797-1.183 1.642-2.066 2.636-2.62a6.609 6.609 0 0 1 2.146-.862 6.46 6.46 0 0 1 2.2-.028c.93.184 1.864.696 2.806 1.236 1.704 1.166 2.708 2.612 3.014 4.366.31 1.768-.173 3.68-1.448 6.472-1.263 1.873-2.768 2.998-4.488 3.37-1.728.366-3.44-.028-6.14-1.182-1.718-1.168-2.732-2.622-3.04-4.362-.303-1.746.168-3.643 1.413-6.39z" fill="#309e3a"/>
      <path d="M428.678 260.264c-.886 1.316-1.266 2.618-1.112 3.61.16 1.087.69 1.946 1.62 2.678.932.632 1.92.816 2.967.66 1.066-.27 2.037-1.077 2.944-2.426.896-1.33 1.273-2.62 1.13-3.672-.138-1.047-.688-1.898-1.66-2.662s-1.962-.86-3-.683c-1.033.26-1.998 1.06-2.9 2.394z" fill="#fff"/>
    </g>
    <path d="M301.824 204.623l2.248-9.84 7.268 1.676-.378 1.662-6.287-1.217-.604 2.18 4.926 1.136-.382 1.666-4.918-1.132-.614 2.677 6.476 1.26-.378 1.66-7.466-1.717z" fill="#309e3a"/>
  </g>
</svg>
