<svg xmlns="http://www.w3.org/2000/svg" height="480" width="640">
  <path d="M0 0v480L640 0H0z" fill-rule="evenodd" fill="#ffca00"/>
  <path d="M0 480h640V0L0 480z" fill-rule="evenodd" fill="#ff6600"/>
  <g stroke="#000" stroke-width=".993">
    <path stroke-linejoin="round" d="M222.393 340.68s-18.31-.63-26.887 8.63c-7.676 9.26-36.76 36.224-39.146 37.044-1.086.728-24.416 6.47-24.416 6.47 11.466-11.434 24.267-16.61 34.777-36.636-6.246 10.048-9.266 14.446-16.39 19.972-6.333-2.482-19.168 8.28-30.76 13.36.21-.423 12.7-10.62 19.473-23.41-3.868 3.368-12.67 11.836-16.628 16.202-9.176.874-13.332 11.04-16.837 12.416-21.492 6.986-16.126 2.73-19.996 7.367-1.964 3.844-6.16 6.91-8.72 7.163-20.166 1.996-20.748 8.618-31.06 12.41-6.687 1.927-10.773.066-14.62-2.626 6.06-1.822 11.34-1.388 16.163-6.47 0 0 18.468-22.004 36.367-24.414 9.682-1.686 11.166-7.367 11.166-7.367s-28.623 7.998-33.463 12.208c-4.66 1.296-12.3 2.413-19.163 1.684 12.664-4.66 20.6-11.062 23.994-14.943 2.002-2.224 13.89-2.316 13.89-2.316s19.996-8.63 20.416-8.63 16.164-8.63 16.164-8.63-17.68 4.63-18.1 4.63-20.66.84-20.66.632c6.388-6.898 24.808-7.378 27.696-9.06 6.603-6.603 26.73-4 27.672-4.842.84-.84-21.268-7.677-30.618-6.682-9.26 1.894-23.362-9.68-23.362-9.68s19.363-2.96 26.677-.212 29.046 8.63 30.31 7.676c1.26-1.06 26.19-9.89 29.043-6.734-2.466-6.26-6.666-6.11-6.473-9.682 4.63.212 9.26.42 13.892.633 0 0 7.166-9.473 6.943-9.892-6.496-2.38-7.963-8.97-7.963-8.97 8.326 1.39 11.12.34 11.12.662 0 .21 7.368-8.21 7.368-8.21l6.062-7.997 3.788-17.26c-7.663 4.14-22.31-.208-22.098-.42 16.93-6.687 20.76-13.683 27.99-14.1-3.102-16.726 6.103-21.048 6.103-20.836 0 .208 6.316-13.684 6.316-13.684s-6.747-2.27-19.366 0c11.968-14.193 30.94-9.06 30.94-9.06 3.917-12.684 16.997-7.997 16.997-8.418-3.076-6.863 6.164-10.33 12.16-10.124-.86-6.107-6.333-10.6-8.436-14.78 10.028 6.448 20.476 3.946 26.76 13.328 3.168.36 6.313.702 9.47 1.063 0 0 10.623 1.894 10.736 1.894.21 0 10.944 1.06 10.944 1.06 1.882-6.333-4.764-4.663-3.16-17.678 12.82 6.37 11.938 19.03 22.1 26.238 8.01-.662 10.43 2.263 14.384 6.896 4.616-.98 10.262 1.068 13.188 6.76-.14-4.963 1.287-11.967 7.68-3.168l11.673-.42s-16.206-22.162-28.624-9.68c3.924-13.64 17.68-12.208 17.68-12.208s-3.676-6.198-3.366-13.06c-7.343-2.936-9.682-16.364-9.89-16.163-.213.21-12.61 2.437-18.103 17.048-10.487-11.4 3.723-26.666 4.66-28.073 1.444-6.392 2.888-10.784 4.334-16.176-1.134-6.313-.694-7.948 4.167-12.168-3.234-3.36-1.746-6.64 2.104-8.63-1.3-2.29-.238-4.68.362-6.87l61.42-2.938 11.68 16.912 1.896 8.63-4.42 11.366 13.26 16.786 4.84 6.06 10.102 6.896s9.474 3.998 9.683 4.21c.212.21 11.364 2.946 11.786 3.166.422.21 9.262 6.262 10.736 6.683s28.623 0 28.623 0l16.166-1.263-.212 24.836-7.998 1.894c-3.446 2.962-4.446 4.693-10.34 8.886-8.16 2.286-14.074 1.86-14.283 1.86-.21 0-8.21-2.107-8.418-2.317-.212-.208-9.062-2.946-9.062-2.946l-13.89-3.368c-6.713-.898-7.997 2.947-8.418 3.678-.42.632-2.736 27.993-2.736 27.993s-4.843 12.417-4.843 12.63c0 .208-4.488 8.298-7.998 11.164-.66 3.346-1.176 6.914-9.268 12.838-1.714 6.363-.326 10.614 6.47 11.676l8.42 3.367c4.208.983 8.418 1.963 12.627 2.946l13.892 2.947-9.892 21.678-24.414-4s-16.207-4.21-16.416-4.21c-.212 0-17.892-9.47-17.892-9.47s-6.683-12.838-6.683-13.06c0-.21-6.062-10.734-4.84-11.364.21-.63.21-6.733.21-6.946 0-.21-17.048-3.676-17.048-3.676l-17.89-1.896-19.674-6.263-14.943-4.418-9.683-3.367-10.734-.842s-14.1 2.103-14.1 2.316c0 .21-12.417 3.676-12.417 3.788 0 .21-7.997 18.732-7.997 18.732l-3.788 14.31 6.89 10.946 2.107 30.618-6.473 11.366 3.788 8.418 7.676 12.42 4.42 8.628-27.678 8.742-3.67-14.216s-9.472-23.36-9.26-23.672c.21-.21.42-7.79.42-7.998z" fill-rule="evenodd" stroke-linecap="round" fill="#fff"/>
    <path stroke-linejoin="round" d="M260.288 306.99c6.733 1.72 6.84-9.647 10.414-13.746 3.632-16.193 23.278-14.663 29.606-4.47-20.83-1.668-12.814 10.136-19.222 16.2 16.386-7.74 31.47-6.394 34.87 4.47-6.686 12.62-12.74 24.173-19.326 36.69-10.492 6.24-16.218-1.928-26.723-8.622l-8.046-1.343c-.296-9.09-1.172-19.188-1.472-28.28zm12.822 70.466s28.028-.877 28.128 12.612c2.662 7.762 10.68 7.166-1.76 27.626.497-26.33-16.39-26.97-28.236-26.36 14.774 2.068 17.406 24.18 10.926 32.628-16.734-.698-30.732-4.232-47.467-4.83-6.846-6.462-12.767-21.676 9.787-32.286 9.64-3.13 19.076-6.26 28.613-9.388zm187.61-74.662l8.046-3.128s24.732-30.04 43.813-13.413c-13.097 1.97-23.768 17.786-23.768 17.786 7.1-6.288 33.77-3.62 30.9 19.79-28.666 8.464-29.36 23.432-27.697 41.268-19.007-.32-39.977-10.167-40.867-40.69 2.633-7.3 7.03-14.303 9.663-21.604zm102.308-127.22c0 10.346-8.387 18.732-18.732 18.732s-18.732-8.387-18.732-18.732 8.387-18.732 18.732-18.732 18.732 8.387 18.732 18.732z" fill-rule="evenodd" stroke-linecap="round" fill="#fff"/>
    <path stroke-linejoin="round" d="M608.126 209.678c6.896 6.317 16.106 7.26 30.26 9.012 7.977-4.683 22.7-4.493 23.834-14.896 7.962-2.84 9.72-12.427 3.14-16.078-.28-2.813.168-13.73-12.06-13.982 1.642 4.06 3.107 16.2 3.107 16.2-6.373-.76-10.73 10.283-10.73 9.836 0-.223 3.614-17.49-13.604-18.016 6.866 9.787-1.696 17.668-1.696 17.668-1.79-2.236-1.8-6.168-6.086-7.362-8.46-3.666-10.06-13.863-9.7-19.39-4.43 3.743-7.734 7.486-7.67 12.447.066 8.168-.334 16.034.013 24.66z" fill-rule="evenodd" stroke-linecap="round" fill="#fff"/>
    <path d="M633 110.03c14.414-2.008 27.32-6.774 36.816-12.097 2.742-2.042 26.88 1.828 37.792-6.287-18.066-1.04-30.017-3.608-33.233-2.644-10.114 2.962-33.676 9.496-36.62 8.663-.163 1.67-3.03 8.942-4.866 11.264z" fill-rule="evenodd" stroke-linecap="round" fill="#fff"/>
    <path stroke-linejoin="round" d="M637.9 98.633c10.312-2.413 12.672-7.418 18.762-11.073 9.322-3.73 14.6-3.866 23.797-13.474-24.174 3.293-26.887 4.142-26.887 4.142-6.012 3.06-11.91 7.732-17.336 14.837 1.642 1.747 1.644 3.66 1.663 6.668z" fill-rule="evenodd" stroke-linecap="round" fill="#fff"/>
    <path stroke-linejoin="round" d="M636.18 93c0-.1 9.433-10.686 9.616-16.072.413-1.607 4.816-3.996 6.472-9.89 1.076-16.077 2.67-16.43 2.67-16.43 7.673-4.263 6.96-13.474 9.478-20.378 0 0-11.116 12.412-17.326 19.217-1.666 3.676-2.09 12.746-2.19 12.746-1.766 4.14-6.282 4.68-9.768 11.66-1.967 6.212-.326 9.983-3.277 16.767 2.014.036 3.1.63 4.614 1.49zm-20.808 247.39c0 13.96-11.307 26.267-26.266 26.267S464.86 364.34 464.86 340.39s11.307-26.266 26.266-26.266 26.266 11.308 26.266 26.267zM270.79 426.804c0 12.67-10.27 22.94-22.94 22.94s-22.94-10.27-22.94-22.94 10.27-22.94 22.94-22.94 22.94 10.27 22.94 22.94zM312.26 326.64c0 10.926-8.867 19.784-19.783 19.784s-19.784-8.868-19.784-19.784 8.867-19.784 19.784-19.784 19.784 8.867 19.784 19.784zm-90.36 22.994c-7.168.42-14.443 2.903-14.23 3.116.208.208 7.788 4.208 6.733 6.472-1.062 1.26-11.216 12.678-10.683 12.678 7.632 2.2 17.74-2.477 17.74-2.477s-4.124 6.64-4.807 8.68c6.803-3.666 13.184 1.122 14.732-2.642l-9.686-24.826zm160.204-66.724c-4.326 2.666-18.876-.332-18.876-.332 4.286 4.44 7 7.61 16.887 8.61-7.062 3.203-11.66 7.76-19.924 10.498 12.926 6.63 21.68-3.644 21.68-3.213s2.61 6.918.643 13.876c6.113-1.347 6.316-6.663 10.138-6.47-3.2-7.618-7.147-16.364-10.36-23.97zm81.063-66.7c-.366 2.4-.832 6.703-10.684 11.692 6.446 2.797 17.22-3.312 17.22-2.98s-8.76 16.602 6.29 22.186c-.4-11.786 1.666-21.192 1.666-21.192s6.633 7.61 9.602 16.667c6.6-6.99-2.318-20.2-2.318-20.2-7.176-1.666-14.837-4.406-21.767-6.06zm9.271-69.234s19.486 13.242 19.67 16.014c.08 1.77-1.773 9.11-8.096 12.398 16.18 1.77 16.782-7.76 16.782-7.76s-3.12 10.796-.69 14c8.36-6.144 8.097-13.326 8.097-13.326s6.667 8.434 4.303 12.99c1.77-.93 11.386-10.966 2.697-16.868 2.024-6.678 2.784-10.71-4.664-13.663-.786-3.964 1.293-6.23 1.94-7.844 0 0-7.264-2.193-8.096 4.048-.676 1.266-23.318-13.31-23.67-13.394-.076.383-8.482 13.48-8.482 13.394z" fill-rule="evenodd" stroke-linecap="round" fill="#fff"/>
    <path stroke-linejoin="round" d="M467.647 139s18.043 9.68 19.226 11.867" fill-rule="evenodd" fill-opacity=".3" stroke-linecap="round" fill="#fff"/>
    <path stroke-linejoin="round" d="M630.722 91.472c-2.392 0-11.92-2.98-18.212 1.666-2.876-4.618-6.96-8.237-16.074-6.292.082-4.126-1.662-3.696-3.732-4.892-2.297-6.004-6.974-7.22-13.08-4.048-6.187-6.366-16.188-6.646-23.21-1.72-10.616-3.16-24.666.623-60.963.23-1.816-.06-10.884 3.194-6.213 10.762-10.917-6.76-16.49 6.666-4.636 7.616 2.66 2.66 6.63 8.278 6.63 8.278s-18.98-13.67-29.406 1.606c-3.38 16.36 12.912 4.36 21.016 10.16 4.867 4.304 9.496 8.776 14.36 13.08 8.06-1.666 14.946-1.707 23-2.128-7.284 2.097-13.396 1.366-20.68 3.462 1.763 2.413 4.678 3.222 10.998 2.98l-13.446 4.698c8.236 6.372 18.63 2.187 26.66 3.31-6.03 7.636-16.366 16.6-28.418 11.86 6.62 8.962 16.793 7.807 28.182-3.806 9.634 1.66 16.714 2.83 27.892-1.29.688-.77 9.666-14.116 9.174-16.268 1.632.49 26.31 9.332 27.802 12.076.188-3.403 4.914-6.903-23.842-14.9-6.42-4.41 13.908-9.936 13.908-9.936l-.33 7.947c6.437-3.318 6.726-4.646 6.963-6.623 1.987-1.323 6.29 2.66 6.29 2.66l.242 7.004c2.396-.87 3.733-1.043 6.39-3.36s4.83 2.766 4.83 2.766c4.96.49 13.312-1.847 17.47-8.766-1.882-7.027-.99-8.986 2.76-10.388 6.137-9.997 7.643-18.66-2.203-18.714z" fill-rule="evenodd" stroke-linecap="round" fill="#fff"/>
    <path stroke-linejoin="round" d="M494.466 147.146s-3.038 3.796-2.448 11.133" fill-rule="evenodd" fill-opacity=".3" stroke-linecap="round" fill="#fff"/>
    <path stroke-linejoin="round" d="M406.638 139.706s7.778 11.862 10.433 12.693c2.666.74 20.99 19.384 21.977 20.186 1.174.494 11.42.247 11.42.247-7.63-6.6-13.828-13.374-20.742-20.062 0 0-10.617-6.247-10.678-6.37s-6.68-7.666-6.68-7.666c-1.79-.676-3.703-1.46-6.37-2.84l-1.36 2.902z" fill-rule="evenodd" stroke-linecap="round" fill="#fff"/>
    <path stroke-linejoin="round" d="M481.98 162.074c3.466-.844 8.264 2.024 8.6 4.47 1.867-1.097 6.99-1.097 7.608.337.676-1.01 3.71-3.71 6.832-2.63m-10.368-17.206s2.627 2.024 6.902 1.012" fill-rule="evenodd" fill-opacity=".3" stroke-linecap="round" fill="#fff"/>
    <path stroke-linejoin="round" d="M636.808 166.746c4.186-.697 38.462-20.62 46.816 4.682-2.887-21.416-18.626-21.018-18.626-21.018s-.697-10.26-16.14-8.666c9.466 6.973 1.494 12.66.797 13.647-2.468-6.607-3.62-10.026-11.067-12.948 3.023 11.62-3.32 13.18-4.98 18.726-3.36-2.39-6.91-6.773-7.868-10.06-2.667 7.703-.33 12.318 2.69 16.336 2.666-.664 6.11-.83 7.368-.697z" fill-rule="evenodd" stroke-linecap="round" fill="#fff"/>
    <path stroke-linejoin="round" d="M630.246 120.66c1.32 2.417 6.88 9.362-2.877 22.604-3.078-4.282-4.734-6.914-4.734-6.914s-8.316 6.41-7.367 23.984c-3.112-7.46-7.736-16.866 1.867-30.997-6.924 11.146-9.18 12.378-14.477 12.223 8.112-6.786 9.89-12.046 10.046-12.046 1.48.497 10.634.024 17.663-8.866z" fill-rule="evenodd" stroke-linecap="round" fill="#fff"/>
    <path d="M624.02 90.62c1.82 6.79-3.182 11.496-7.028 16.12 8.36 16.368-18.464 16.06-8.787-.22" fill-rule="evenodd" stroke-linecap="round" fill="#fff"/>
    <path d="M497.873 107.838s-1.976 2.627-.328 6.042m-11.036-6.87c2.394.69 4.386 3.686.616 6.01-1.66.92-9.327-2.692-13.343 4.9" fill-rule="evenodd" fill-opacity=".3" stroke-linecap="round" fill="#fff"/>
    <path d="M413.314 92.784c-3.144-.268-4.69 1.34-.927 6m3.921-16.774c-3.66-1.698-6.36 2.216-.98 6.267m11.496-4.947c-3.194-2.887-6.98 2.32-.874 4.278m16.796-4.278c-3.36-2.836-4.486 1.288-3.462 2.68" fill-rule="evenodd" stroke-linecap="round" fill="#fff"/>
    <path d="M462.608 126.68c0 8.696-6.968 16.663-16.664 16.663s-16.663-6.968-16.663-16.664 6.97-16.664 16.664-16.664 16.664 6.968 16.664 16.663z" fill-rule="evenodd" fill-opacity=".3" stroke-linecap="round" fill="#fff"/>
    <path stroke-linejoin="round" d="M461.607 130.684c-.424-.9-9.987-10.366-13.007-9.078-2.472.107-10.036 16.604-9.704 17.267 7.83 6.62 19.896.66 22.703-8.188z" fill-rule="evenodd" fill-opacity=".3" stroke-linecap="round" fill="#fff"/>
    <path stroke-linejoin="round" d="M466.62 126.71c-1.178-.764-2.08-1.468-3.122.07-1.04 1.626-6.732 16.34-6.732 16.34m27.677-46.612c-10.41-6.83-29.733 2.813-16.89 8.862-10.968-3.332-10.483 6.108-10.483 6.108m6.068-24.738c4.127-6.13 9.826-8.228 13.666-.644 4.967 6.623 14.306 1.67 14.306 1.67" fill-rule="evenodd" fill-opacity=".3" stroke-linecap="round" fill="#fff"/>
    <path d="M423.693 89.817s-4.636 2.162-.33 6.463m23.864-8.277s-4.472.663-2.983 6.464" fill-rule="evenodd" stroke-linecap="round" fill="#fff"/>
    <path d="M442.136 96.28c-.164 0-4.636.166-3.144 4.966m-1.996 3.147c-.167.166-6.63-2.318-2.816 4.636" fill-rule="evenodd" fill-opacity=".3" stroke-linecap="round" fill="#fff"/>
    <path stroke-linejoin="round" d="M467.607 76.237c-19.42-11.836-40.01-36.676-68.267-26.69 28.674 6.086 46.18 21.006 46.762 26.924 10.686-.832 13.602-.682 21.606.668z" fill-rule="evenodd" stroke-linecap="round" fill="#fff"/>
    <path stroke-linejoin="round" d="M429.34 76.74c-2.682-3.168-12.336-20.766-32.172-20.422 16.17 7.762 24.266 18.338 26.09 21.006 2.83-.167 4.83-.417 7.083-.684z" fill-rule="evenodd" stroke-linecap="round" fill="#fff"/>
    <path d="M412.334 76.49s2.262-16.606 6.602-18.606S407 63.483 407.168 67.987c-11.84-9.67-23.006-8.002-24.84-7.336-1.834.667-27.84-.684-30.923 6.26 19.17-.416 24.67.836 26.422 2.762 11.764-3 18.422-1.26 26.268 8.086 3.684-.668 8.26 0 8.26-.26z" fill-rule="evenodd" stroke-linecap="round" fill="#fff"/>
    <path stroke-linejoin="round" d="M393.843 86.167c-4.76-4.668-8.702-7.67-22.962-8.764-2.08-.266-7.673-1.426-10.96-2.672 9.067-6.28 36.69 2.686 39.674 6.67-.916 2.833.202 4.73 1.7 6.664-2.642-1.62-4.776-2.134-7.46-1.897z" fill-rule="evenodd" stroke-linecap="round" fill="#fff"/>
    <path d="M403.67 77.008s-7.098-6.6-12.66-6.39c3.168 1.91 6.773 7.373 8.966 9.34 1.63-1.748 1.147-1.64 3.606-2.96z" fill-rule="evenodd" stroke-linecap="round" fill="#fff"/>
    <path stroke-linejoin="round" d="M389.234 70.944c-.273.11-11.96 7.32 1.202 16.932-.874 6.172 6.443 7.046 6.443 7.046s6.41 8.193 6.41 8.14c-11.626-7.737-21.427-6.866-26.04-2.687-7.047-10.323-18.984-12.007-23.363-13.263-6.462-1.202-20.694-2.468-21.63 11.26-14.63-14.264 8.467-20.37 12.398-19.936 3.932-.71 26 3.66 27.418 6.336-1.266-13.064 10.697-19.99 17.16-13.82zm43.498 47.499s-38.783-7.23-61.432 1.39c-12.66 8.618-14.316 21.407-32.666 23.363-18.348 1.946-20.296 6.42-27.106 14.874 10.16-3.197 32.112-10.148 47.263-7.09 6.266-7.012 9.73-10.286 9.174-10.426 4.726-16.67 37.67-21.646 63.24-16.986.278-3.893 1.947-6.7 1.628-6.117zm-68.662-6.839l-67.967 1.668c-6.282 1.668-11.674 6.978-12.66 7.228-.97 1.262 2.604-13.622 10.16-12.927 9.867.973 36.836-.14 36.836-.14 8.202-3.067 17.1-6.116 22.62-4.03-1.947 4.866 1.113 8.2 1.113 8.2z" fill-rule="evenodd" stroke-linecap="round" fill="#fff"/>
    <path d="M479.833 96.626s-16.024-4.872-11.82 11.667c6.463 8.193 16.73-3.963 16.6-6.19" fill-rule="evenodd" fill-opacity=".3" stroke-linecap="round" fill="#fff"/>
    <path stroke-linejoin="round" d="M436.16 114.19c-3.64-6.798-26.666-13.662-33.226-11.008 12.14 6.7 29.49 11.46 30.62 14.697 1.426-2.667 2.607-3.64 2.706-3.69z" fill-rule="evenodd" fill-opacity=".3" stroke-linecap="round" fill="#fff"/>
    <path d="M610.642 94.11s-13.367 3.663-18.334.673-17.286-7.396-11.862-16.91" fill-rule="evenodd" fill-opacity=".3" stroke-linecap="round" fill="#fff"/>
    <path stroke-linejoin="round" d="M376.194 97.992s-33.917-.84-39.622 9.32c22.072-6.116 38.33-4.416 38.33-4.416l3.083-2.803-1.89-2.102z" fill-rule="evenodd" stroke-linecap="round" fill="#fff"/>
    <path d="M437.06 90.084s-7.84.238-4.037 6.702" fill-rule="evenodd" stroke-linecap="round" fill="#fff"/>
    <path stroke-linejoin="round" d="M608.284 191.48s11.344-.377 12.668-1.877m36.423.469s4.78 3.376 9-1.406m-30.936 2.166s3.188 6 11.344 3.374m-29.616 9.376s-2.437 6.093 9.663 6.63c3.096 1.876.936 7.876.936 7.876m6.628-42s6.76-.376 7.97 2.626m-6.463-11.166s2.262.188 3 2.906c.76 2.72 3.47 1.313 6.064.094m-39.112 170.789c-6.89-6.69-18.68-6.74-12.638 8.16 2.114-6.348 6.043-8.764 12.638-8.16zm-2.41 8.292c-1.66-1.208-2.67 1.208-2.117 1.66m6.329-42.466s-9.066-1.067-6.44 9.618m-21.449-33.36s-1.21 10.726 7.26 11.934m-19.621 64.214c0-.16-7.864-3.476-10.273 7.26m2.867-67.398s0 9.063 4.078 12.387m-7.391 10.131c-.16 0-13.142 6.136-13.142 11.934m-196.719 92.266c0-.16 8.36-8.806 10.172.91-.164 3.644-1.976 7.138-1.976 7.138m-.779-6.929s-4.707-.306-6.314 2.68m26.818-28.7c0-.16-10.63-3.34-12.16 4.868m-42.601.784s8.806-6.163 13.664.466m68.71-18.337c0-.16-8.146-.066-9.36 6.41" fill-rule="evenodd" stroke-linecap="round" fill="#fff"/>
    <path stroke-linejoin="round" d="M409.34 166.946c-.966.966-.837 1.008-1.836 1.243-.97.367-1.926.408-3.068.408-.784-.26-1.682-.864-2.463-1.636-.73-.872-1.09-1.664-1.43-2.464 0-.63-.268-1.667-.43-1.936.323.646.93 1.676 1.248 2.344.347 1.087.69 2.346 1.02 3.476.273 1.267.41 2.468.41 3.884-.206 1.664-.627 2.96-1.226 3.886-.846.46-1.317.682-2.463.817-1.232 0-1.627-.216-2.66-.613-.477-.62-1.462-1.678-2.042-2.463-.296-1.148-.646-2.066-.614-3.27-.498-.718-.734-1.36-1.226-2.046-.223-.818-.694-1.226-.82-2.044-.263-.642-.818-1.307-1.096-1.896" stroke-linecap="round" fill="none"/>
    <path stroke-linejoin="round" d="M261.416 391.284s-6.924 4.68-4.936 8.73m37.069-79.408s-9.62 2.31-4.76 10.676m4.628-6.332s-2.02 6.78 1.298 9.233m4.026-8.808c.146.434-1.298 7.213-3.316 8.368m-7.492-34.489s-.432 6.77 2.164 6.782m-19.489-23.948s-2.307 6.782 6.347 9.09m-22.214 13.269c0 .288 2.306 10.962 6.924 10.673m10.966 10.387s-11.828-6.636-12.983 10.82" fill-rule="evenodd" stroke-linecap="round" fill="#fff"/>
    <path d="M477.396 96.993c1.167-1.097 6.18-2.408 6.278 3.666 1.097 6.063-7.07 6.346-7.134 4.378-2.193-.903-2.306-6.648.866-8.036zm17.219-13.969s-10.486-1.278-9.616 7.496c6.127 6.418 10.787.06 11.817-2.908.614-2.128.344-3.942-2.302-4.688z" fill-rule="evenodd" stroke-linecap="round"/>
    <path stroke-linejoin="round" d="M360.37 113.367s1.262 9.448-6.296 7.243c-7.668-2.204 11.66 4.724-3.16 7.668-3.07 4.3-2.62 6.04-2.62 6.04s8.07-.816 3.062 9.806c-1.89 6.668 2.837-12.398 17.972-3.17-6.93-6.764-1.943-6.676 7.633-6.32-13.282-2.172-12.696-14.488 6.928-8.604-.026-1.837-3.602-7.32 2.836-10.393 12.697-3.464-26.138-.63-26.464-1.26z" stroke-linecap="round" fill="none"/>
    <path stroke-linejoin="round" d="M347.326 120.997c2.06.977 10.166 16.422 16.736-7.918-2.442-.688-12.61.292-12.61.292.23 3.714-.423 6.168-3.126 7.626z" fill="none"/>
    <path stroke-linejoin="round" d="M344.696 127.264c-.463 1.123-1.16 2.984-1.616 4.142 0 .78.004 1.624.14 2.21.106.966.416 1.66.826 2.484.392.666.463.694 1.106.83.627.302 2.747.31 3.462.413h2.347c1.104 0 2.08.01 3.037-.414.68-.196 1.22-.38 1.618-.968.676-.337.667-.676 1.106-1.38.193-.39.688-1.074.83-1.62.317-.49.413-.61.413-1.242.196-.39.14-1.19.14-1.796-.027-.87-.143-1.666-.278-2.486-.133-.443-.346-.726-.69-.663-1.41.667-2.96-.662-4.668-.662-1.623-.228-2.362-.622-3.866-.828-.63 0-3.666.928-4.006 1.667zm146.31 69.17h.204c-.6 0-.262-.036.82.613.722.268 1.413.62 2.04.818.372.642.777 1.163 1.23 1.636.244.612.66 1.676.816 2.26 0 .944.112 1.624-.408 2.044-.37.94-.932 1.03-1.43 1.636-.737.246-1.314.682-2.26 1.022-.987.266-1.406.686-2.462.817-1.09.492-1.807.68-3.068.613-.76 0-3.796-.17-4.646-.17 1-.034 4.196-.076 4.964-.24 1.123 0 1.766.12 2.463.614.918.318 1.44.697 2.248.818.66.223 1.672.323 2.26.613.326.644.942.832.614 1.43-.43.62-1.24.814-2.046 1.024-.636.364-4.69 1.07-6.13 1.434-1.927.166 3.874-.46 4.618-.617 1.17-.016 1.9-.16 2.86 0 .872.13 1.664.62 2.464.817.62.694 1.138 1.03 1.633 1.84.628.617.806.866.82 2.044-.268.614.22 1.964.163 2.736l-.898 2.69" fill="none"/>
    <path stroke-linejoin="round" d="M474.36 186.628h.203c-.663 0-.27-.013.82.206.688.482 1.898.667 3.064 1.022.662.308 1.268.664 1.84 1.022.6.3 1.38.844 1.84 1.43.837.28 1.01.782 1.637 1.228.217.986.484 1.608.612 2.463-.083 1.09-.448 1.304-.816 2.044-.602.408-.97.946-1.84 1.227-.816.326-1.843.693-3.07.817-1.734.33-3.416.697-6.11.818-.842 0-1.048.18-1.84.204 1.026.01 2.38.088 3.067.408 1.28.013 2.737.113 3.68.41 1.862.23 3.648.64 6.62.612.377.61.68.936.82 1.84-.496.363-.84 1.042-1.227 1.43-.612.377-1.22.766-2.26 1.023-1.13.404-2.39.41-3.68.41h-6.642c-.2-.08-1.636-.206-.82-.206.86.39 2.642.8 3.68 1.022.782.228 1.226.648 1.638 1.227.496.374 1.248 1.06 1.634 1.43.32.636.41.873.41 1.84-.097 1.264-.606 1.27-1.432 2.046-.988.647-1.762.78-2.86 1.022h-3.07c-.82-.22-6.667-3.004-6.163-3.188.84.3 6.36 3.303 6.766 4.21.216.647.206 1.716.206 2.668-.037.993-.16 1.7-.612 2.248-.042.796-.267.616-1.022.616l1.023-.616c-.042.796-.267.616-1.022.616m16.162-17.376h1.022c.673.467.668 1.032 1.638 1.226.74.283 1.483.678 2.042 1.022.3.604.41.726.41 1.636 0 1 .23 2.366-.203 2.862-.366.416-1.643.403-2.26.614-.876.303-1.626.766-2.378.913-.96.187-2.49.087-3.142.618-.914.07-1.67.206-2.667.206-.63 0-1.062-.042-1.43-.204.92.32 2.407.69 3.472 1.227.974.276 1.607.71 2.248 1.227.798.69 1.26.91 1.434 1.84.407.6.407 1.382.407 2.462-.226.676-.374 1.66-.616 2.26-.446.66-.98.783-1.636 1.226-.476.063-.34.163-.818.206" fill="none"/>
    <path stroke-linejoin="round" d="M466.376 186.424c.34.14 1.382.66 2.046 1.022 1.203.29 1.993.786 2.862 1.022.463.66.983.79 1.226 1.636.71.926.882 1.412 1.023 2.463-.087 1.144-.27 1.376-1.226 1.636-.712.237-1.63.374-2.463.41-.844.113-1.61.293-2.462.408-.677.29-1.764.206-2.667.206-.88.068-2.32.26-3.363.26 1.16.043 2.876.16 4.17.16 1.248.132 2.477.198 3.068.817.9.34 1.41 1.072 2.26 1.43.404.6.878.946 1.226 1.636-.283.796-.728 1.06-1.637 1.227-.677.29-1.762.204-2.667.204-.622-.313-1.91-.206-2.86-.206h-2.26c.842.29 2.2.617 3.272.818.766.43 1.926.792 2.463 1.226.332.61.878.794 1.227 1.43.468.37.66 1.06.204 1.636-.084 1.018-.37 1.628-.817 2.044-.647.44-1.222.832-2.26 1.432-1.443.627-2.816.806-4.498.817-1.11 0-1.663-.168-2.667-.206-.91-.314-2.063-.44-2.86-.613-.876-.24-2.064-2.086-3.203-2.127.784.1 1.716 1.972 1.976 2.636.29.68.206 1.764.206 2.668-.32.648-.396 1.69-.616 2.26-.04.71-.114 1.66-.408 2.043l.408-2.043c-.04.71-.114 1.662-.408 2.044" fill="none"/>
    <path stroke-linejoin="round" d="M464.968 181.332c0 .082.71.466 1.19 1.003.466.733.966 1.666 1.43 2.26.323.93.612 1.372.818 2.248.382.626.66 1.606.616 2.463-.036.964-.118 1.808-.614 2.463-.24.827-.66 1.164-1.43 1.43-.678.32-1.327.41-2.463.41-.76 0-2.398-.113-3.147-.113 1.296 0 3.49.113 4.78.113 1.424.09 2.367.21 3.07.817.892.262 1.61.7 2.044 1.227.694.612 1.36.633 1.636 1.43.214.648.204 1.716.204 2.66-.107 1.17-.444 1.197-1.432 1.43h-2.86c-.63-.21-1.808-.308-2.66-.41-.696-.093-1.48-.713-2.083-.912.636.608.436 1.7.448 2.763.166.723.204 1.666.204 2.668-.086 1.09-.347 1.38-1.023 1.84-1.086.236-2.686.204-4.087.204-1.146-.064-2.09-.206-3.272-.206-1.417 0-2.678-.167-3.987-.307.498.332.488 1.078.612 1.943.368.614.084 1.33 0 2.046-.07.887-.236 1.488-.616 2.044-.204 0-.362 1.12-.666 1.12" fill="none"/>
    <path stroke-linejoin="round" d="M446.103 178.667c0 .068-.063-.043 1.023.818.622.6.932 1.127 1.43 1.84.18.77.44 1.46.612 2.26 0 1.19-.143 1.666-.612 2.462-.78.62-1.716.928-2.86 1.022-.68.226-1.633.346-2.466.408-.683.194-.612.313-1.32.41 1.31-.047 1.376-.206 2.763-.206.893 0 2.08-.084 2.667.206.916.124 1.676.262 2.046.818.842.23 1.208.6 1.634 1.226.627.427.996.792 1.226 1.637 0 1.112-.126 1.74-.408 2.463-.368.71-.694 1.126-1.43 1.636-.628.464-1.29.666-2.046.817h-2.863c-.764 0 2.462.077 3.886.206.84.164 1.364.496 2.042.818.602.407 1.383.467 1.842 1.022.746.266 1.096.806 1.84 1.227.177.414.092.31.408.204" fill="none"/>
    <path stroke-linejoin="round" d="M436.663 176.166c1.004.496 1.666 2.266 1.71 3.297.284 1.036-.08 1.798-.407 2.862-.99.914-1.106 1.208-2.463 1.43-1.16.36-2.424.263-3.476.616-.7.287-1.363.66-2.26.817h-2.862c-.883.62.704.08 1.022 0 1.692 0 3.232.02 4.702-.206h6.927c1.047.168 1.198.616 1.638 1.43.436.628.676 1.426.612 2.464-.042 1.174-.23 1.62-.816 2.464-.687.728-1.098 1.046-1.84 1.636-.966.41-2.363.666-3.68.818-1.673 0-3.263-.092-4.702.204-1.086 0-6.422.29-6.044.67.716-.673 3.897-.466 6.044-.466 1.66-.32 2.96-.687 4.498-.613.978-.293 2.167-.397 3.27-.41 1.076.013 1.904.168 2.466.613.634.627 1.448 1.16 1.84 1.636.784.276 1.017.804 1.634 1.226.183.837.397 1.376.41 2.463-.264.72-.48 1.467-.818 2.046-.948.678-1.968 1.42-3.272 1.84-1.13.44-2.068.673-3.268.613-1.044 0-1.844.094-2.66.206-.76 0-6.88.113-7.63.113 1.844-.336 7.834-.112 9.063-.112 1.34 0 2.666.163 3.883.206.66.308 1.36.666 1.838 1.022.692.277 1.283 1.47 1.296 2.71" fill="none"/>
    <path stroke-linejoin="round" d="M427.328 170.276c.18.364.906 1.8 1.226 2.668.22.886.204 1.862.204 2.862 0 1.28-.288 1.83-.818 2.862-1.116.76-1.98 1.47-3.272 1.84-1.08.194-1.966.127-3.066 0-.726-.29-1.33-.634-1.84-1.022-.777 0 .46.17.818.204.613.416 1.626.66 2.464 1.022 1.176.476 1.62.86 2.463 1.84.747.603.937.727 1.022 1.84.618.686.447 1.38.203 2.044-.63.42-1.31 1.098-1.838 1.636-.922.386-1.266.698-2.463.613-1.113-.04-1.688-.334-2.66-.41-.42-.393-.236-.306.41 0 .663.37 1.813 1.086 2.26 1.637.704.48.906.996 1.226 2.044.392 1.064.697 1.693 1.227 2.26.037 1.003.204 1.646.204 2.666-.287.713-.478 1.39-1.024 1.84-.228.838-.742 1.176-1.022 2.046-.803.473-1.83 1.464-2.463 2.044-.834.28-2.86.488-4.098.603" fill="none"/>
    <path stroke-linejoin="round" d="M436.62 300.6c.302.71.64 1.494.816 2.26.09.74.204 1.313.204 2.248-.323.617-.396 1.363-.816 1.84-.267.76-.846 1.03-1.43 1.43-.79.34-1.346.6-2.466.616-1.076 0-2.032-.066-2.86-.207-.907-.424-2.984-1.16-2.366-.716.79.264 1.91.816 2.66 1.126.866.67 1.6.898 2.248 1.838.662.46.906.822 1.023 1.638-.81.28-1.94.688-3.068.816-.99 0-1.934-.046-2.667-.204-.662-.316-1.224-.626-2.046-.82l2.046.82c-.662-.316-1.224-.626-2.046-.82l-2.782-1.13c.66.624 3.667 1.814 4.01 2.664.288.718.47 1.692.614 2.667-.01 1.213-.117 2.696-.408 3.476-.233.847-.607 1.226-1.023 1.838h-.41m7.976-8.996h.203c-.67 0-.267-.027.82.408 1.136.712 1.416 1.007 2.248 2.26.393.866.708 1.122.82 2.044.344.678.132 1.426 0 2.046-.644.446-.836 1.023-1.434 1.43-.402.694-.924.96-1.43 1.43-.7.162-.986.36-1.84.41" stroke-linecap="round" fill="none"/>
    <path stroke-linejoin="round" d="M436.732 307.043v.204c0-.602-.034-.262.612.818.846.686 1.012 1.203 1.227 2.463.242.966.176 1.866 0 2.668-.63.368-1.466.993-2.362 1.128" fill="none"/>
    <path stroke-linejoin="round" d="M446.634 311.768h-.204c.66 0 .27-.013-.82.204-.862.286-1.882.204-2.86.204-.767-.267-1.467-.41-2.26-.816-.674-.14-.78-.384-1.636-.41m3.478 9.19h-.204c.664 0 .273.013-.816-.206-.882-.672-2.363-1.673-3.18-1.843" fill-rule="evenodd" fill="#fff"/>
    <path stroke-linejoin="round" d="M607.887 192.678c-.366.106-3.666.322-4.61.39h-2.86c-.996-.223-1.976-.397-3.067-.41-.816 0-.67-.604-1.39-.604" fill-rule="evenodd" stroke-linecap="round" fill="#fff"/>
    <path stroke-linejoin="round" d="M606 200.734c-.07 0 2.83-.224 2.766-.224.34 0-3.663.224-3.992.224-.914.164-1.847.206-2.864.206-.64.12-2.096.127-2.668.408h-2.86c-.618-.033-.613-.172-1.227-.206" fill-rule="evenodd" fill="#fff"/>
    <path stroke-linejoin="round" d="M426.473 297.427c.136.336 1.023 1.928 1.023 2.87-.013 1.074-.136 1.493-.612 2.044-.792.427-1.476.803-2.66.82h-3.68c-1.11 0-6.34-1.198-6.662-1.442.967.13 4.416 1.44 6.64 1.44 1.116.04 1.736.28 2.864.613 1.086.332 1.807.618 2.667.82.686.342 1.64.4 2.046.818.946.334.827.796 1.227 1.84-.08 1.036-.318 1.622-1.023 2.044-.46.664-1.293 1.044-2.26 1.43-.97.46-2.084.616-3.476.616h-2.86c-.676-.226-1.66-.373-2.26-.616l2.26.616c-.676-.226-1.66-.373-2.26-.616h-.206c.782.313.926.877 1.23 1.636.07.966.204 1.717.204 2.864-.194.822-.604 1.38-.82 2.046-.36.8-.688 1.363-1.226 2.042-.182.408-.416.742-.616.41" stroke-linecap="round" fill="none"/>
    <path stroke-linejoin="round" d="M414.64 293.136c0 .07-.028-.064.407 1.023.423.61.672 1.348.818 2.046 0 .99-.048 1.934-.204 2.667-.41.667-.7 1.066-1.43 1.43-.48.678-1.046.742-2.044.82-.69.293-1.666.198-2.26 0-.762-.18-1.633-.398-2.046-.82-.844-.198-1.374-.468-1.837-1.022-.766-.188-.604-.612-.207 0 .626.616.662 1.073 1.023 2.046.012 1.073.203 1.647.203 2.667.188.86.312 1.626-.204 2.26-.28.783-.806 1.016-1.228 1.636-1.094.236-2.032.408-3.27.408-.632-.466-1.996-.886-2.464-1.43a6.62 6.62 0 0 1-1.84-1.227c-.666-.27-2.764-2.06-3.08-2.667.606.482 2.882 2.382 3.286 2.976.66.376 1.068.864 1.43 1.227.664.394.983 1.12 1.638 1.637.464.8.774 1.08.817 2.246v2.864c-.014 1.278-.2 1.46-.816 2.248-.126.38-.283.026-.41.408" fill="none"/>
    <path stroke-linejoin="round" d="M406.877 307.043v.204c0-.64-.043-.267.818.818.708.382 1.62.824 2.26 1.023.627.466 1.364.46 1.944 1.02.93.124 2.01.676 3.07.614" fill-rule="evenodd" stroke-linecap="round" fill="#fff"/>
    <path stroke-linejoin="round" d="M406.162 287.81c.312.297 1.76 2.1 1.944 3.073-.013 1.2-.132 1.666-.816 2.046-.678.32-1.327.408-2.463.408-1.094-.24-1.767-.93-2.864-1.43-.68-.667-1.31-.77-1.838-1.227-1.028-.36-1.206-.668-.207.203.986.636 1.82 1.04 2.463 1.43.868.606 1.16.7 1.638 1.842.23 1.17.633 2.223.612 3.476.463.666.62 1.418 0 2.046-.603.296-.723.408-1.634.408a17.71 17.71 0 0 0-1.636-1.227c-.4-.294-.96-.868-1.226-1.226-.643-.482-1.24-.847-1.637-1.43-.877-.384-1.28-.796-2.046-1.226-.706-1.084-.032-.066.41.408.604.806.886 1.684 1.227 2.463v3.067c-.016.86-.2 1.674-.41 2.26-1.042 0-1.842-.096-2.668-.207-.612-.244-1.68-.633-2.26-.816-.963-.63-1.66-1.024-1.838-1.842-.487-.667-.908-1.373-1.226-1.84-.406-.613-.664-.76-1.023-1.02.498.63.962 1.683 1.84 2.248.61.922 1.133 1.208 1.432 2.26.46.646.617 1.643.612 2.462 0 .893.084 2.08-.206 2.667-.13.962-.424 1.407-.82 2.046a17.94 17.94 0 0 1-1.02 1.838c-.274 0-.206-.066-.206.204" stroke-linecap="round" fill="none"/>
    <path stroke-linejoin="round" d="M410.347 284.662v.204c0-.273-.766 1.746-1.634 2.26-1.03.198-1.602.407-2.667.407h-3.068c-.734-.264-1.643-.636-2.463-.816-.673-.69-1.314-.796-2.046-1.433-.607-.693-.792-.933-1.63-1.733-.3-.393-.08-.028.918.71.908.84 1.163 1.066 1.43 2.046.29.68.204 1.766.204 2.668-.042 1.166-.14 1.628-1.022 1.84-.626.366-1.402.41-2.463.41-.626-.464-1.367-.764-2.046-1.432-.69-.39-1.283-1.306-1.84-1.838-.32-.496-1.76-2.247-2.266-2.666.633.36 2.24 2.36 2.87 2.768.426.76.94 1.12 1.432 1.634.424.718.692 1.4 1.227 1.84.114.844.294 1.61.408 2.464-.04 1.09-.22 1.66-.82 2.046-.79.778-.992.81-1.837.41-.702-.488-1.46-.916-2.046-1.43-.762-.21-1.4-.494-1.84-1.024-.746-.262-1.27-.84-1.84-1.226-.322-.647-.866-1.232-1.43-1.637l1.43 1.637c-.322-.647-.866-1.232-1.43-1.637l-3.602-4.324c.46.634 4.464 6.01 4.73 6.766.616.493.97 1.22 1.226 2.26.088.826.204 1.646.204 2.462-.643.67-.72.977-1.637 1.226h-2.86c-1.132-.042-1.484-.278-2.464-.614-.83-.48-1.19-.774-1.634-1.43-.6-.41-.946-.883-1.637-1.227-.276-.413-.69-.627-.82-1.023-.37-.16-.31-.41-.61-.614" fill="none"/>
    <path stroke-linejoin="round" d="M412.096 280.764c-.067 0-1.476.116-2.666-.1-1.39-.088-2.926-.197-3.68-.82-1.082-.373-1.296-.86-1.84-1.43-.698-.72-1.36-1.444-1.84-2.466-.393-.898-.6-1.67-.613-2.86v-3.272c0-.667.387-3.726.106-4.006-.013 1.12-.616 4.24-.616 6.436 0 1.044-.093 1.844-.204 2.66-.477.763-.976 1.63-1.84 2.463-1.188 1.024-2.208 1.76-3.678 2.044-1.166.344-1.44.217-2.046-.82-.747-.668-1.13-1.474-1.227-2.666-.307-1.162-.164-2.323 0-3.476 0-1.023-.103-2.766-.103-3.788 0-.477.103 1.363.103 1.64 0 1.204.008 1.91-.616 2.86-.47 1.046-1.16 1.82-1.838 2.667-.694.718-1.314 1.012-2.26 1.226-.986 0-1.836.01-2.462-.408-.766-1.06-2.1-2.198-2.66-3.476v-8.084c.337.716.41 3.338.41 4.406-.08 1.064-.616 1.603-.818 2.667-.76.716-1.263 1.336-2.26 2.046-1.093.66-2.033.983-3.27 1.227-1.326-.016-1.307-.12-1.84-1.227-.66-.728-.916-1.64-1.022-2.667a20.42 20.42 0 0 1-.614-2.863c-.2-.81-.2-2.66-.408-3.276v2.262c.12.926.396 1.727.408 2.864 0 1.006-.07 1.812-.408 2.463-.11.817-.36 3.11-.403 3.068" stroke-linecap="round" fill="none"/>
    <path stroke-linejoin="round" d="M397.076 277.797c.088.442.408 1.804.408 2.863 0 1.2-.063 1.66-.612 2.464-.696.868-.963.816-2.248.816-1.118 0-1.878-.126-2.463-.612-.76-.27-1.146-.72-1.638-1.43-.66-.68-1.216-1.767-1.636-2.26-.204-.76-.614-2.633-.922-3.28-.214-.972.66 1.66.922 2.267.62.946 1.067 1.818 1.43 2.667.16.68.206 1.616.206 2.463-.41.678-.843 1.073-1.227 1.638a7.6 7.6 0 0 1-2.463.408c-.896-.136-1.414-.46-2.042-.818-.768-.262-1.166-.683-1.84-1.023-.386-.683-1.236-1.468-1.636-2.26-.498-.7-.664-1.782-1.022-2.463-.14-.977-.27-2.006-.616-2.667-.132-1.033-.33-1.764-1.023-2.26-.068-.63-.243-.433-.408-.817m3.471 9.222c.066.446.3 2.068.408 2.864-.013 1.173-.262 1.61-.612 2.26-.398.682-.692 1.2-.82 2.04-.64.46-.83 1.027-1.43 1.434-.317.476-.636.408-1.43.408-.273.086-1.446-.074-2.046-.204m4.71-11.044c-.222 1.04-.633 1.906-1.022 2.864a16.261 16.261 0 0 0-1.43 1.84c-.713.286-1.34.41-2.464.41-.66-.382-1.286-.682-1.84-1.023-.303-.13-.722-.28-1.024-.41m34.738-146.796v.206c0-.61.03-.266-.41.613-.872.99-1.31 1.297-2.464 1.636-1.226.692-3.02.92-4.702 1.023-1.386.236-2.898.212-4.29.41-.464-.666-1.366-1.224-1.842-1.84-.483-.667-.724-1.12-1.227-1.84-.336-1.008-.963-1.823-1.226-2.863-.34-.982-.676-2.06-.82-3.067-.118-.898-.333-1.497-.407-2.463-.734-.21-.06.26.204.817.672.867.744 1.787.82 3.067.147 1.06.203 2.122.203 3.27 0 1.184-.106 1.902-.408 2.66-.708.72-1.18.868-2.26 1.02-1.23.316-2.72.206-4.09.206-.976-.132-1.306-.472-2.26-.614-.486-.436-1.31-.902-1.837-1.226-.37-.46-.81-.628-1.023-1.023" fill="none"/>
    <path stroke-linejoin="round" d="M391.14 138.618c0 .07.618.92.618.99 0-.672-.023-.27.41.817.404 1.21.166 1.717-.614 2.668-.83.912-1.782 1.7-2.667 2.463-.927.426-1.69.997-2.86 1.227-1.364.17-2.793.238-3.887 0-.787-.447-1.76-1.168-2.26-1.84-.69-.68-.9-1.164-1.226-1.84-.182-.674-.418-1.66-.816-2.044-.067-.688.017.168.128 1.047.26.742.014.28.076 1.2v2.863c-.387 1.3-.92 2.947-1.227 4.09-.427.626-.792.996-1.637 1.226-.934.666-1.84 1.09-2.862 1.43-.66.462-1.383.41-2.463.41-.904-.36-1.09-.67-1.84-1.43-.626-.413-.648-.668-1.024-1.023m-3.879-.407v.204c0-.64.043-.267-.818.818-.39.637-.91 1.213-1.636 1.84-.47.846-1.48 1.794-1.84 2.668-.87.442-2.166.74-3.27 1.022-1.174.12-2.36.26-3.476.41-1.636.1-3.223.203-4.907.203-.978-.012-1.974-.182-2.667-.41-.666-.64-.782-1.037-.816-2.248-.292-.87-.19-1.733-.616-2.26-.086-.476-.31-.772-.612-1.02" fill="none"/>
    <path stroke-linejoin="round" d="M404.016 146.946v.204c0-.67.024-.266-.408.818-.47.76-1.163 1.622-1.637 2.26-.712.633-1.74 1.628-2.462 2.248-1.208 1.007-2.18 1.366-3.68 1.636-1.336.174-2.262-.18-3.476-.817-.96-1.007-1.096-1.306-1.634-2.463-.098-1-.18-1.813-.616-2.668-.18-.763-.434-1.48-.818-2.044.046-.702.328.423.41.818.223.668.323 1.67.612 2.26v2.86c.28 1.12.127 1.936 0 2.863-.347 1.17-.636 2.163-1.226 2.667-.797.28-1.923.41-3.064.41-1.396 0-2.933-.06-3.887-.616-.666-.446-1.203-1.07-2.043-2.044-.686-.89-1.19-1.364-1.433-2.26-.482-.724-.776-1.626-1.227-2.043-.108-.87.072-.116.41.204.268.664.727 1.686 1.02 2.248.382.74.804 1.426 1.023 2.463.643.664.933 1.44 1.023 2.466.286.63.204 1.91.204 2.862-.18.988-.406 1.276-1.43 1.43-.84.206-1.903-.122-2.862-.612-.712-.366-1.126-.696-1.637-1.432-.837-.676-1.343-1.36-2.042-2.248-.474-.498-.943-.998-1.433-1.636-.662-.692-1.126-1.19-1.43-2.26-.32-.3-.602-.722-.82-1.022.493.667.737 1.076 1.023 2.044.307 1.122.6 1.664.616 2.863v2.862c-.196.98-.67.89-1.636 1.022-1.12 0-2.072.073-2.668-.41-.896-.12-1.61-.366-2.046-.818-.86-.222-1.396-.698-2.04-1.022-.324-.476-1.008-1.374-1.432-1.84-.283-.873-.82-1.24-1.23-1.84-.288-.29-.306-.917-.407-.818.4.47.766 1.48 1.024 2.046.164.914.204 1.846.204 2.862-.228 1.067-.612 1.697-.82 2.667-.46.86-.84 1.946-1.226 2.667-.746.607-1.333 1.06-2.247 1.43-1.208.646-2.43.777-3.886.82-.98.326-1.8.116-2.667 0-.666-.316-1.426-.634-1.84-1.227-.628-.242-.693-.608-1.024-1.227-.742-.667-1.013-1.386-1.43-2.463-.298-.86-.626-1.62-.817-2.464-.36-.797-.667-1.797-1.023-2.463-.063-.476-.16-.342-.204-.818" fill="none"/>
    <path stroke-linejoin="round" d="M396.01 163.732v.204c0-.66.012-.273-.206.818-.673 1.046-1.46 1.932-2.463 2.26-.688.293-1.663.197-2.26 0-.927-.477-1.664-1.06-2.248-1.84-.64-.99-1.466-1.89-2.046-2.863-.613-.774-.882-1.33-1.02-2.248-.442-.62-.76-1.697-1.022-2.26-.06-.64-.063-.284-.244-.767.266.962.61 1.412.866 2.698.406 1.262.76 1.908.41 3.27-.166 1.246-.373 2.298-.818 3.477-.27 1.2-.66 2.1-1.023 2.862-.188.8-.64 1.606-1.022 2.044-.464.61-1.248.646-2.046.818h-2.86c-.873-.117-1.69-.406-2.668-.613-.96-.607-1.142-.744-1.84-1.43-.647-.677-1.074-1.166-1.432-2.046-.622-.366-1.264-.898-1.637-1.43-.626-.616-1.017-1.06-1.43-2.046-.19-.88-.396-1.602-.41-2.668-.03-.616.288.986.613 2.044.297.69.617 1.78.82 2.668v3.27c0 1.002.018 1.977-.206 2.863-.137.92-.484 1.343-.818 2.046-.682.36-1.21.804-2.042 1.022-.694.48-2.064.816-3.068 1.022-1.014.266-1.91.41-3.067.41-1.177 0-1.73.012-2.26-.614-.49-.64-1.306-1.626-1.838-2.046-.283-.796-.697-1.116-1.43-1.84-.294-.814-.76-1.813-1.227-2.463-.166-.994-.63-1.848-.82-2.668-.128-.302-.28-.72-.406-1.022" fill="none"/>
    <path stroke-linejoin="round" d="M416.81 162.04c.04.28-.187 1.3-.336 1.896-.447 1.217-1.133 2.267-2.046 3.067-.983.69-1.373.94-2.464 1.022-.498.373-1.086.16-1.433-.206-1.064-.39-1.68-1.02-2.667-1.432-.92-.69-1.4-.94-2.26-1.43-.476-.702-1.08-1.492-1.633-2.046-.133-.222-1.307-2.18-1.08-1.666.433.642 1.498 1.884 1.898 2.793.494.68 1.07 2.022 1.636 2.667.666.718 1.292 1.616 2.046 2.463.46 1.133.936 1.946 1.023 3.067.318.618.408 1.698.408 2.668 0 1.112-.166 1.663-.203 2.668-.267.666-.627 1.427-.818 2.044-1.236 0-2.227-.206-3.07-.613-.66-.466-1.06-1.126-1.634-2.046-.402-1.13-1.094-1.917-1.634-3.067-.678-1.14-1.224-2.886-1.84-3.886-.142-.992-.634-1.88-.613-3.066-.224-.37-.29-.483-.412-.89.13.964.204 1.717.204 2.934 0 1.26.072 2.36-.408 3.067-.366 1.097-.963 1.818-1.634 2.668-.83.623-1.663 1.223-2.66 1.636-1.216.422-2.16.613-3.476.613-1.317-.272-2.607-.4-3.828-.726-1.288-.116-2.204-.196-2.713-.91-.766-.848-1.608-1.786-2.26-2.862-.696-.39-.394-.446-.778-.87.434.676.366.698.676 1.687.388.8.41 1.477.41 2.463-.486.82-.992 1.693-1.636 2.463-.667.816-1.012 1.073-2.046 1.43h-3.07c-.99 0-1.934-.046-2.668-.203-.882-.192-1.91-.697-2.86-1.022-.446-.367-3.227-2.66-3.666-3.112" stroke-linecap="round" fill="none"/>
    <path stroke-linejoin="round" d="M366.796 176.793H367c-.64 0-.246-.063.614 1.022.618 1.244 1.018 2.36 1.636 3.476.16 1.262.383 2.303.41 3.68 0 1.46.108 2.814-.41 4.09-1.367 1.317-1.887 1.896-3.68 2.044-1.768.36-2.16.03-2.862-1.636-.61-1.047-.9-2.212-1.43-3.273-.273-.78-1.062-1.847-1.637-2.862-.312-.634-.762-1.686-1.226-2.463-.363-.96-.677-1.916-1.022-2.463-.164-1.604-.287-.667.204 0-.128 1.294.716 4.96-.273 6.442-.676.32-1.383.13-2.612.13" fill="none"/>
    <path stroke-linejoin="round" d="M419.867 166.01c0 .067.112 1.312.112 1.38 0-.62-.012-.272.206 1.022.074 1.366.398 2.72.816 3.68v2.863c-.32 1.08-.492 1.678-1.226 2.463-.43.632-.673.818-1.636.818-.667.328-2.08.204-3.068.204-1.094-.3-2.498-.39-3.268-1.022-.676-.62-1.322-.83-1.714-1.467.286.096.204.683.204.26m-6.234 3.669v.41-.41.41-.41c-.18 1.924-.714 2.78-1.842 4.294-.768.89-1.606 1.683-2.667 2.26-1.626.847-3.266 1.093-6.11 1.226-1.398 0-1.946.066-2.66-.818-.892-.714-1.863-1.71-2.248-2.862-.747-.908-1.142-2.092-1.636-3.067-.23-1.163-.667-2.176-1.022-3.27-.247-.96.196.668.204 1.43 0 1.617-.268 2.876-.613 4.293-.436 1.292-.846 2.216-1.637 3.272-.8 1.268-1.783 1.74-3.066 2.667-1.966.436-3.722.39-6.726.206-1.288-.396-2.22-.68-3.272-1.43-.964-.303-2.17-.886-2.667-1.432-.996-.407-.648-.176-1.294-.6.148.94-.774 4.186-.964 6.202-.316 1.106-.448 1.72-1.226 2.26-.82.74-1.674 2.443-2.692 2.904-.842.183-1.89.773-2.964.867-.74.336-1.668.228-2.267.426" stroke-linecap="round" fill="none"/>
    <path stroke-linejoin="round" d="M419.142 177.838c.074.463.408 2.164.408 3.27v3.477c-.064 1.162-.28 2.12-.408 3.066-.28.986-.71 1.43-1.43 2.046-1.08.66-1.783.986-2.864 1.226-1.282 0-1.643-.206-2.667-.817-1.226-.97-2.07-1.742-3.067-2.862-.842-.906-1.4-1.62-2.046-2.26-.14-1.072-.496-1.79-.816-2.862-.37-.617-.612-1.16-1.022-1.634.376.762.876 1.164 1.43 2.26.64 1.11.986 2.33 1.43 3.474.36.94.83 1.96 1.434 2.464.43 1.022.707 1.393 1.02 2.463.096 1.237.206 2.37.206 3.68-.41 1.186-.86 1.996-1.84 2.668-1.312.78-2.472 1.008-4.088 1.226-1.738-.008-3.376-.094-4.702-.612-.662-.688-1.866-1.796-2.66-2.668-.678-1.12-1.343-2.166-2.043-3.27-.36-.944-.696-1.767-.818-2.66-.22-.666-.296-1.7-.616-2.247-.28-1.627-.204.844-.204 1.43v3.68c-.43 1.763-1.466 3.228-2.667 4.703-1.462 1.172-2.662 2.096-4.498 2.248-1.793 0-3.064.062-4.498-.817-.673-.8-1.698-1.866-2.463-2.862-.69-1.166-1.263-1.933-1.636-3.067-.164-.71-.262-1.78-.41-2.668 0-.83-.086-.147-.16-.83 0 .963-.066.898-.066 1.862.16 1.348.204 2.686.204 4.09-.48 1.664-.607 2.186-2.248 2.248-1.242-.09-1.606-.324-2.466-1.022-.98-.678-2.086-1.392-2.862-2.044-.792-.74-1.136-1.12-1.867-1.71" stroke-linecap="round" fill="none"/>
    <path stroke-linejoin="round" d="M410.966 193.68h.204c-.6 0-.262-.036.82.613.38.674 1.112 1.464 1.633 2.248.638.746 1.166 2.097 1.636 2.66.41.72.806 1.24 1.022 2.043 0 1.246.166 2.287.207 3.476 0 1.26-.193 1.788-.614 2.667-.666.432-1.606 1.06-2.668 1.43-1.06.14-2.12.206-3.27.206-1.1 0-2.062-.086-3.07-.204-.696-.316-1.803-.76-2.462-1.227-.742-.666-1.63-1.776-2.26-2.667-.466-.73-.63-1.463-.816-2.248-.26-1.013-.38-2.104-.818-2.863-.16-.684-.332-1.612-.408-.204-.273.642-.207 1.606-.207 2.463-.228 1.077-.498 2.11-1.02 3.068-.78.72-1.303 1.67-2.466 2.044-1.36.86-2.923 1.04-4.496 1.227-1.21 0-2.607.162-3.682-.206-.687-.326-1.34-.68-2.247-1.226a9.284 9.284 0 0 1-2.466-2.26c-.764-.968-.764-1.628-1.227-2.86-.066-1.162-.33-1.862-.408-2.863-.164-.284-.382-.79-.612-1.023 0 1.436.19 2.613.612 3.886.07.976.204 1.82.204 2.862-.038 1.022-.242 1.696-.613 2.462-.74.644-1.07.872-2.046 1.227-.97.18-1.99.203-3.068.203-.908-.246-1.606-.79-2.463-1.022-.49-.694-1.036-.86-1.633-1.84-.68-1.026-.82-1.18-.82-2.462.19-1.103.412-2.068.412-3.27 0-1.148.026-1.782.407-2.66.047-.847.092-.49.092-1.463" fill="none"/>
    <path stroke-linejoin="round" d="M371.61 204.21h-.203c.602 0 .24-.068-.408 1.022-.6.946-.76 1.902-1.227 2.464-.23.844-.602 1.21-1.227 1.636-.267.76-.846 1.033-1.433 1.432-.628.298-1.32.66-2.042.818l2.043-.818c-.628.298-1.32.66-2.042.818" fill="none"/>
    <path stroke-linejoin="round" d="M436.91 216.274c-.068 0 1.166-.616 1.087-.616.6 0-1.028.68-2.11 1.23-.616.31-1.926.204-2.86.204-.818-.19-2.163-.496-2.66-1.022-.278-1.106-.683-2.182-1.02-3.272-.328-.96-.492-2.037-.614-3.066-.29-.986-.493-1.812-.818-2.862a61.871 61.871 0 0 1-1.02-3.476c-.302-1.014-.64-1.89-.616-2.862-.432-.36-.477-1.006-.616-1.636" stroke-linecap="round" fill="none"/>
    <path stroke-linejoin="round" d="M428.646 214.026c-.148 0-.484.97-.818 1.636-1.336 1.666-2.863 2.81-4.294 4.09-1.272.6-2.266 1.48-3.68 1.636-.69-.636-.82-1.974-1.023-3.068-.673-1.932-.867-3.902-1.43-6.723-.608-.917-1.008-2.028-1.226-2.862-.36-.737-.474-1.69-.61-2.26.16 1.694.918 3.088 1.226 4.703.248 1.362.407 2.667.407 4.09v3.476c-.23 1.267-.623 2.46-1.43 3.27-.21.13-1.036-.44-1.842-.817-1.168-.636-2.627-1.364-3.27-1.84-.783-1.132-1.986-2.416-2.862-3.68-.374-1.274-.666-2.342-.82-3.68-.27-1.18-.6-2.84-1.02-3.68-.067-.672-.346-.718-.67-1.076-.196 1.326-.72 2.116-1.17 3.324-.624.66-1.166 1.127-2.046 1.84-1.277 1.16-2.702 2.368-4.088 3.27-1.296.82-2.36 1.148-3.886 1.227-1.467-.046-2.042-.176-3.066-1.023-1.688-1.06-2.817-2.643-4.296-4.09-1.102-1.21-1.62-1.66-1.634-3.27-.068-.887-.24-1.612-.41-2.463 0 .273-.066.204.207.204" fill="none"/>
    <path stroke-linejoin="round" d="M390.108 216.682c-.06.416-.244 2.313-.408 3.068-.23.846-.64 1.263-1.227 1.634-.498.42-1.464.684-2.046 1.023-1.067.1-1.976.29-2.863.408H380.6c-1.068 0-1.767.018-2.26-.612-.61-.6-1.242-1.642-1.634-2.26-.342-1.167-.42-1.872-.207-2.862 0-1.414.18-2.674.206-4.088 0-1.022-.103-3.177-.103-4.2" stroke-linecap="round" fill="none"/>
    <path stroke-linejoin="round" d="M376.836 220.364v.204c0-.66.013-.27-.204.82-.276.823-.683 1.114-1.227 1.633-1.03.227-1.337-.03-2.466-.407-.716-.677-.898-1.078-1.43-1.634a3.36 3.36 0 0 0-1.227-1.638c0-.44-.1-.306-.204-.612" fill="none"/>
    <path stroke-linejoin="round" d="M370.4 218.616c0 .066.094.78.607 1.33.41.898.88 1.786 1.227 2.86v3.272c-.1 1.24-.28 2.66-.82 3.476-.464.662-1.6 1.17-2.666 1.636-1.046.618-2.233.673-3.476.613-1.466-.323-2.696-.834-4.09-1.634-1.236-.632-2.476-1.408-3.68-2.046-.664-.49-1.1-.737-1.636-1.43-.693-.436-1.08-1.066-1.637-1.434-.39-.676-1.104-.988-1.633-1.636-.614-.368-.872-.91-1.227-1.43" fill="none"/>
    <path stroke-linejoin="round" d="M433.977 230.22c0 .118-1.936 1.673-2.672 1.99-.796.684-2.136 1.132-3.272 1.638-1.696.488-2.84.816-4.496.816-.467-.683-1.728-1.628-2.463-2.463a36.83 36.83 0 0 0-1.638-2.86c-.37-1.18-.808-2.38-1.226-3.476-.367-1.067-.68-1.67-.818-2.863-.336-.466-.61-1.867-.716-1.228.673.686.768 1.812 1.126 2.866 0 1.277.172 2.416.204 3.68-.29.818-.38 1.38-1.023 1.84-.46.62-.763.613-1.634.613-.6.36-1.174.016-2.046 0-1.07-.316-1.366-.627-1.84-1.226-.603-.42-1.02-1.242-1.84-1.84-.62-.963-.82-1.32-1.226-2.248-.27-.76-.494-1.613-.616-2.66 0-1.076-.167-2.013-.204-3.064 0-.737.066-2.436-.204-2.87-.164 1.246-.41 2.69-.41 4.096-.18.966-.236 2.098-.41 3.066-.46 1.036-1.09 2.114-2.044 3.068-1.282.727-2.41 1.013-3.883 1.227-1.66 0-2.968-.188-4.6-.203-.94-.636-1.99-1.26-3.064-2.046-1.002-.906-2.276-2.046-3.068-2.667-.262-.71-.766-1.14-1.227-1.636-.29-.64-.414-.47.206-.204.633.633 1.402 1.274 1.842 2.046.336.662.818 2.072 1.226 2.667 0 1.11.19 1.686.204 2.667-.193 1.064-.824 1.31-2.046 1.637-1.166 0-2.244-.117-3.066-.408-.98-.412-1.714-.72-2.26-1.23-.624-.366-1.263-.9-1.636-1.43-.773-.817-1.697-1.68-2.248-2.464-.414-.463-1.03-1.696-1.43-2.046.198.3.34.363.614.82.73.92 1.144 1.496 1.634 2.248.39 1.01.734 1.494.82 2.667 0 .99-.06 1.937-.206 2.66-.233.863-.61 1.346-1.433 1.636-.618.31-1.926.204-2.86.204-.688-.3-1.914-.827-2.668-1.023-.476-.676-1.466-1.276-2.046-2.04-.62-.67-.82-1.366-1.43-1.843.627.436.863 1.206 1.43 1.842.316.642.782 1.638 1.023 2.462.41.903.666 1.89.82 2.86 0 1.096-.072 2.067-.207 3.068 0 1.07 0 1.862-.408 2.463-.262.917-.72 1.34-1.636 2.043-.98.19-1.388.397-2.463.41-.413-.6-1.014-1.06-1.637-1.637-.278-.69-.694-1.603-1.022-2.043-.403-.667-.824-1.004-1.227-1.84a8.872 8.872 0 0 1-1.837-2.668c-.617-.776-1.04-3.013-1.227-3.877-.28-.188.33.626.408 1.83 0 1.09-.063 2.076-.204 3.068.032 1.2.204 2.266.204 3.477-.11.813-.24 1.7-.614 2.26-.604.884-1.473 1.61-2.667 2.04-.446-.62-.97-.814-1.84-1.02-.86-.436-1.46-.64-2.462-1.02-.94-.684-1.34-.817-2.044-1.842-.668-.63-1.286-1.66-1.637-2.463-.168-.723-.206-1.666-.206-2.667.013-1.286.198-2.098.614-3.068.227-.832.766-1.4 1.43-1.838.68-.682 1.197-1.074 2.046-1.23.103-.69.672-.667 0-.613v.612c.103-.69.672-.667 0-.613" stroke-linecap="round" fill="none"/>
    <path stroke-linejoin="round" d="M432.23 246.292c0 .122-.696.6-1.228.82-1.298.412-2.744.097-4.09 0-1.327-.332-2.286-.406-2.86-1.228-.666-.476-1.69-1.63-2.26-2.26-.302-.636-.496-1.376-.612-2.248-.133-1.062-.226-2.228-.41-3.27v-3.27c0-1.11-.19-1.687-.206-2.66.09-.088.164.614.408 1.022 0 1.28-.046 2.606-.204 3.68-.112 1.16-.612 1.89-.82 2.66-.696.74-.93.977-1.838 1.226-.667.398-1.833.676-2.863.612-1.26-.07-1.97-.334-2.66-1.022-1.003-.798-1.646-1.672-2.248-2.86-.362-1.148-.612-2.18-.612-3.477-.14-.91-.074-2.6-.41-3.272-.03-.696.172-1.86-.098-2.148.138 1.062-.096 2.993.098 4.193 0 1.346-.037 2.644-.204 3.884-.66 1.246-.806 1.916-1.84 2.463-.62.623-1.413.93-2.462 1.227-1.673 0-3.206.116-4.702-.204-.742-.202-1.438-.607-2.26-.82-.668-.47-1.396-.76-2.044-1.43-.762-.823-1.3-1.697-1.636-2.666-.996-1.28-1.732-2.607-2.26-3.884" stroke-linecap="round" fill="none"/>
    <path stroke-linejoin="round" d="M427.613 266.763h-.204c.66 0 .27-.013-.82.204-1.064.366-2.03.106-3.067-.204-.69-.306-1.412-.784-1.838-1.227-.713-.874-.99-1.107-1.43-2.26-.346-1.406-.412-2.68-.412-4.086.016-1.192.33-1.968.616-3.068.363-1.123.866-2.92.866-4.167-.046 1.364-.78 3.41-.866 4.782v3.27c-.328.98-.328 1.887-.82 2.668-.666.933-1.246 1.26-2.462 1.43-1.194-.108-1.206-.466-1.84-1.43-1.082-1.303-1.686-3.06-2.043-4.702v-3.27c0-1.368.103-2.698.204-3.886.086-.846.148-.964.148.13.077 1.676.26 2.762.26 4.366-.292 1.197-.76 2.2-1.227 3.067-.874.12-1.663.396-2.667.41-1.088 0-1.926-.06-2.666-.41-.61-.867-1.626-2.002-2.046-3.066-.24-1.12-.67-2.06-.616-3.27-.264-.61-.32-1.61-.408-2.26.218 1.278.204 2.693.204 4.09-.01 1.3-.047 2.67-.61 3.27-.666.76-1.294.8-2.26 1.023-1.04 0-2.167.098-3.068-.204-1.023 0-2.194-.063-2.86-.41-.928-.406-1.266-.706-2.046-1.227-.42-.62-1.23-1.416-1.636-2.463 0-1.083.14-1.976.613-2.667.193-.887.384-1.436.82-2.26.412-.986.8-1.42 1.226-2.044.366-.196-1 .92-1.637 2.046-.91.882-1.673 1.71-2.462 2.463-1.036.664-1.676 1.134-2.86 1.226-1.278 0-1.802-.226-2.668-.61-.664-.608-1.097-.714-1.227-1.64-.373-.918-.64-2.287-.818-3.064-.013-1.162-.196-2.16-.408-3.27-.11-.817-.204-2.428-.204-1.633 0 1.766-.086 2.802.204 4.492v3.476c0 1.076-.16 1.72-.41 2.463-.946.13-1.312.396-2.464.41-1.012-.27-1.662-.486-2.26-.818-.48-.468-.886-1.043-1.43-1.43l1.43 1.43c-.48-.468-1.71-1.667-2.263-1.944" fill="none"/>
    <path stroke-linejoin="round" d="M420.467 268.626c-1.77 0-4.066-.927-6.828-.927-1.1-.273-2.364-.368-2.862-1.023-.437-.678-.76-1.61-1.023-2.667 0-1.46.11-2.278.816-3.476.636-1.067 1.397-1.897 1.842-2.668.69-.744 1.21-1.763 1.636-2.667.41-.64.397-.712.87-1.393.62-.11-1.896 1.372-3.73 2.62-1.42.633-2.62.806-4.296.816-1.26-.276-3.066-.683-4.086-1.02-.82-.72-.82-1.863-.82-3.27v-3.68c0-.782.036-.872-.147-1.372-.086 1.162-.318 1.666-.466 2.802-.108 1.338-.333 2.477-.816 3.68-.63 1.004-1.182 2.368-1.84 3.068-.646.826-1.61 1.284-2.26 1.838-1.378.244-2.626.098-3.884-.204-1.466-.49-1.734-1.06-2.248-2.463-.448-1.627-.408-3.21-.408-4.907.046-1.264.318-2.446.612-3.68v-3.476c0-.342.392-1.187.392-1.626" stroke-linecap="round" fill="none"/>
    <path stroke-linejoin="round" d="M411.99 267.386c-.498.066-2.17.39-3.272.41-.8.266-2.162.204-3.272.204-1.19-.28-1.776-.29-2.26-1.022-.727-.606-1.008-1.004-1.633-1.43-.302-.606-.64-1.278-1.023-1.842-.103-1.166-.396-2.063-.408-3.27 0-1.072-.002-1.863-.41-2.464v-.408" stroke-linecap="round" fill="none"/>
    <path stroke-linejoin="round" d="M399.724 267.982v3.27c0 1.074-.16 1.92-.408 2.862-.114.962-.38 2.03-.818 2.66-.488.936-1.174 1.248-2.046 1.634-.994.136-1.264.166-2.043-.204-.712-.193-1.634-.678-2.26-1.226-1.067-.443-1.936-.967-2.666-1.637-.896-.627-1.613-1.268-2.046-1.838-.414-.826-.693-2.018-1.024-2.667 0-1.128.088-1.777.408-2.463.326-.664.763-1.14 1.227-1.637.496-.472 1.76-1.386 2.462-1.637" stroke-linecap="round" fill="none"/>
    <path stroke-linejoin="round" d="M386.426 261.064h-.204c.694 0 .262-.04-1.023.816-.907.697-1.627 1.03-2.464 1.434-1.31.307-2.143.408-3.68.408-1.343 0-2.664.013-3.886-.204-.887 0-1.864-.006-2.463-.204-.222-.67-.698-1.36-1.022-1.842-.167-.723-.204-1.666-.204-2.667.366-.682.66-1.796 1.023-2.26.62-.934.864-1.246 1.636-1.84.72-.6 1.286-.744 1.84-1.226.86-.286 1.186-.64 2.046-1.432.82-.744 1.16-1.266 1.838-1.838.46-.437 1.07-1.018 1.638-1.434.27-.863.74-1.433.816-2.463v-3.883" fill="none"/>
    <path stroke-linejoin="round" d="M363.83 273.214c-.242-.122-.883-1.3-1.63-1.947-1.427-1.436-2.633-2.114-2.667-4.088.46-.682 1.264-1.214 2.26-1.636.666-.646 1.16-.986 1.84-1.227.774-.17 1.807-.206 2.862-.206 1.112 0 1.663-.167 2.667-.204 1.072-.014 1.66-.204 2.66-.204.376-.38.8-.204-.207-.204-.726.33-1.647.408-2.667.408-.904-.393-1.447-.694-2.463-.816-.644-.472-1.206-.628-1.636-1.23-.91-.61-1.192-.966-1.433-2.042-.133-.996-.167-1.436.41-2.26.3-1.16.867-1.832 1.43-2.666.677-.692.986-.82 2.26-.82h3.068c.726.13 1.644.208 2.246.41-.97-.28-1.96-1.29-2.86-2.26-.87-.946-.916-1.248-1.43-2.26-.34-1.278-.77-2.01-.82-3.268v-3.068c.197-1.102.47-1.66.82-2.26" stroke-linecap="round" fill="none"/>
    <path stroke-linejoin="round" d="M360.466 244.074c-.12.243-1.007 1.666-1.227 2.046-.262.733-.41 1.38-.41 2.462-.18.882.007 1.338.206 2.26.696.407 1.084.84 1.636 1.633.886.427 1.18.838 1.633 1.638.666.376 1.388 1.27 1.74 1.84-1.01-.073-2.164-.892-3.17-1.228-.686-.273-1.826-.642-2.464-1.02h-3.476c-1.09.082-1.304.446-2.046.816-.422.66-.738 1.22-.817 2.26-.228.683-.228 1.77 0 2.463.46.496 1.064 1.246 1.634 1.637.768.43 1.36.808 2.26 1.43.96.662 2.166 1.106 2.86 1.636.69.188 1.606.46 2.046.818.498.088 1.128.204.203.204-.648-.32-1.69-.394-2.26-.61-.966-.163-1.906-.6-3.064-.616-1.072 0-1.427-.023-1.84.616-.833.24-1.076.74-1.636 1.226-.366.77-.68 1.266-.616 2.463.22.82.432 1.232.616 1.84.16.364.636 1.098.818 1.33l-.818-1.33" fill="none"/>
    <path stroke-linejoin="round" d="M361.67 223.013c-.66.14-2.403.713-3.476 1.023-.73.244-1.24.664-1.84 1.023-.692.4-.96.926-1.43 1.43-.243.73-.663 1.24-1.022 1.84-.32.676-.637 1.272-.614 2.26.016 1.374.477 1.904 1.022 3.27.702 1.19 1.26 2.68 2.26 3.27.84.616 1.496.898 2.462 1.433.662.178 1.648.646 2.26 1.023 1 .132 1.668.416 2.26.816h-1.636c-.966.04-1.8.17-2.466.616-.7.28-1.004.837-1.634 1.227-.23.847-.686 1.208-.82 2.26-.338.677-.166 1.78 0 2.666.428.613.812 2.067 1.228 2.666.44 1.604.866 2.72 1.84 3.886.176.606 1.43 1.287 1.847 1.634-.63-.43-2.197-1.99-3.07-2.763-.618-.664-1.16-1.107-2.047-1.43-1.08-.414-2.09-.734-3.27-.817-1.114 0-1.742.122-2.464.408-.623.463-1.19.69-1.636 1.227-.683.417-.886 1.084-1.226 1.842.04 1.1.283 1.66.818 2.463.477.716.827 1.224 1.43 1.636.61.704 1.283 1.118 2.26 1.634.806.676 1.63.706 2.463 1.227.908.292 1.667.713 2.86 1.227 1.026.662 3.77 2.664 4.612 2.874.18.272-2.723-1.736-3.69-2.268-1.04-.23-1.4-.686-2.26-.82-1.06-.49-1.623-.88-2.666-1.02-.89-.41-2.066-.642-2.863-.817-1.23 0-2.226-.196-3.476-.204-.882 0-.964.022-1.226.613-.686.63-1.076 1.136-1.634 1.84-.384.68-.826 1.28-1.227 1.84-.297.693-.63 1.662-.82 2.248-.18.838-.394 1.376-.407 2.464" fill="none"/>
    <path stroke-linejoin="round" d="M334.106 261.86c0-.067.207.276.207.206 0 .676-.18-.143-.616-1.227-.676-.803-1.634-1.986-2.463-2.864-1.306-.93-2.66-1.873-4.09-2.463-1.243-.69-2.66-1.222-3.884-1.636-1.19-.23-2.423-.204-3.678-.204-1.236.013-1.416.334-2.26.612-.48.64-.924 1.09-1.226 1.84-.24.6-.39 1.676-.612 2.26 0 1.044-.193 1.83-.207 2.86 0 .838.2 2.23-.304 2.663.212-.896.413-2.618.716-3.79-.016-1.23-.384-1.686-.82-2.666-.876-.983-1.697-2.022-2.462-2.864-.707-.898-1.606-1.966-2.463-2.667-.707-.432-1.404-.922-2.046-1.227-1.038-.42-1.623-.776-2.667-.818-.484.463-1.06.866-1.636 1.226-.6.41-.972.876-1.227 1.638-.373.648-.498 1.494-.61 2.463-.33.94-.41 1.66-.41 2.667-.262.347-.367.87-.41 1.43.122-.914.396-1.724.41-2.86-.16-1.068-.672-2.09-.818-3.476-.038-1.41-.306-2.268-.82-3.068-.882-.787-1.692-1.93-2.86-2.667-1.02-.49-1.828-.802-3.068-.818-1.11.013-1.664.276-2.463.616-.287.712-.41 1.34-.41 2.463.014 1.168.218 1.67.613 2.26.122.902.624 1.686.614 2.666.28.472.204 1.47.204 2.26-.094-1.103-.764-1.892-1.02-2.862-.266-1.173-.67-2.16-.82-3.068-.448-1.2-1.128-2.264-1.838-3.476-.72-.68-1.102-1.176-2.046-1.84-.926-.803-1.624-1.277-2.668-1.43h-2.864c-.837.333-1.086.66-1.636 1.226-.263.976-.743 1.76-1.02 2.463 0 1.016.04 1.96.203 2.862.486.606.808 1.062 1.022 1.84.346.687.82 2.603.82 3.686-.314-.837-1.103-3.67-1.432-4.61-.3-.83-.776-1.84-1.226-2.667-.323-1.17-.796-1.78-1.433-2.666-.62-.8-1.343-1.496-2.26-2.046-.876-.736-1.246-.978-2.463-1.023-1.06.312-1.262.667-2.248.818-.384.347-1.067.602-1.43 1.023-.194.82-.603 1.38-.82 2.046-.166.723-.203 1.666-.203 2.667.362.636.79 1.322 1.022 2.046.628.69.893 1.393 1.43 2.26.302.902 1.667 3.048 2.06 3.687-.12.12-1.197-1.668-1.64-2.063-.796-1.103-1.19-1.782-1.636-3.07-.627-.688-1.162-1.644-1.636-2.042a11.016 11.016 0 0 0-2.666-2.26c-.914-.642-1.4-.613-2.66-.613-1.29-.268-2.217.008-3.064.408-.61.62-1.897 1.626-2.463 2.046-.616.78-.917 1.3-1.434 1.84-.272.684-.496 1.38-.612 2.26.09 1.13.634 1.383 1.024 2.463.643.42 1.36 1.6 1.838 1.84.393.484 2.91 2.766 2.06 2.766-.37-.646-1.62-1.867-2.264-2.366-.698-.73-1.34-1.364-1.838-1.84-.84-.364-1.618-.692-2.463-.82-1.182-.236-1.93-.37-3.068-.407-1.034.092-1.696.604-2.26 1.022-.368.6-.78 1.11-1.022 1.84-.46.668-.408 1.384-.408 2.464.366.637.747 1.324 1.022 2.042.623.698 1.076 1.67 1.84 2.26.81.68 1.617 1.008 2.462 1.226 1.006.037 1.647.204 2.66.204.707.046-.342.18-.616.412" fill="none"/>
    <path stroke-linejoin="round" d="M247.826 264.737l-.204-.204c.612.61.282.266-.818-.616-1.246-.686-2.61-.77-4.087-.816-1.126.29-2.36.694-3.476.816-.666.668-1.08.96-1.842 1.84-.31.777-.477 1.368-.204 2.464.66 1.13.784 1.63 1.634 2.463.694.403 1.084.72 1.842 1.023 1.647.233 3.066.76 4.702.82 1.18 0 4.116.376 6.23.41 1.382 0-3.6-.207-4.004-.207-1.48 0-2.932.01-4.294.204-1.303.266-2.66.662-3.68 1.227-.932.63-.818.984-.818 2.26.294.73.66 1.232 1.022 1.84.64.69 1.17 1.148 2.046 1.432 1.07.688 2.182 1.126 3.476 1.226.847.286 4.447-.03 3.19-.1-.666.663-6.07.67-6.268.916-1.26.633-2.612 1.28-3.68 1.637-.23.886-.406 1.63-.204 2.464.44.718.79 1.373 1.43 2.046.612.608.8.792 1.638 1.02.874.43 2.304.667 3.476 1.022.91 0 .926-.136 1.432-.408m93.848-37.827c0-.07-.41-.678-.82-1.226-1.08-1.267-2.91-2.663-4.294-3.887-1.49-.6-2.68-1.32-4.088-1.43-1.268 0-1.676.01-2.046 1.022-.446.637-.63 1.282-.818 2.26-.42 1.008-.408 1.966-.408 3.27-.307.612-.26 1.727-.612 2.26-.03.642-.133.89-.207.816-.34-.68.217-2.087.41-3.066 0-1.242.166-2.28.206-3.476-.477-1.863-.644-2.337-2.046-3.884-1.388-1.46-2.382-2.338-4.088-3.476-.896-.23-2.07-.6-3.27-.614-.74.4-1.742 1.047-2.466 1.636-.717.972-1.006 1.692-1.022 2.864.148 1.122.49 1.843 1.022 2.86.284.72.6 1.642.82 2.66.373.966.626 2.344 1.02 3.066.137 1.09.13.702-.206 0-.106-1.386-.646-2.673-1.023-3.68-.397-1.49-.837-2.037-1.634-3.272-.79-1.226-1.137-1.72-2.463-1.838-.874-.29-1.99-.29-2.864 0-.766.42-.977.67-1.02 1.838-.233.697-.31 2.382-.31 3.378 0 .303 1.04-4.243.718-6.42-.766-1.41-1.626-2.613-2.863-3.68-1.206-1.448-2.296-2.776-3.883-3.68-1.11-.33-1.722.168-2.463.818-.964.636-1.696 1.64-2.046 2.26-.232.86-.634 1.34-1.024 2.248-.768.96-1.396 4.47-1.63 3.796-.166-1.1.236-3.926.61-6.023.114-1.407.24-2.626-.206-3.68-.848-1.123-1.69-1.96-2.667-2.463-.71-.777-1.246-.82-2.463-.82-.91.29-2.096.976-3.068 1.636-.696.66-.863.943-1.02 1.637-.368.636-.667 1.962-.82 2.667-.21.877-.697 1.698-.613 2.86-.426 1.39-.206-.946-.206-1.634-.326-.983-.164-2.32-.612-3.067-.664-1.026-.81-1.264-1.84-2.043-1.048-.474-1.68-.818-2.862-.818-.67.4-1.26.667-1.84 1.226-.66.833-1.2 1.66-1.84 2.668-.22.888-.206 1.863-.206 2.864.023.832.172 1.32.206.204v-3.272c-.22-1.144-.423-1.674-1.432-2.046-.71-.386-1.67-.41-2.86-.41-.833.296-1.08.66-1.228 1.636-.608.716-.614.963-.614 2.046-.29.678-.204 1.766-.204 2.668-.326.437-.37 1.32-.408 0-.07-1.026-.33-2.138-.616-2.86-.68-.63-1.62-1.124-2.26-1.432-.998 0-1.976-.018-2.86.204-.79.403-.788 1.026-1.43 1.636-.208.88-.636 1.224-.616 2.26-.186.86-.122 1.664 0 2.462.228.64.67 1.42.41 1.84a34.68 34.68 0 0 1-2.044-2.666c-.768-.61-.967-.876-2.046-1.022-.88-.068-1.423-.206-2.464-.206-.494.432-1.1.863-1.633 1.23-.48.704-.874.866-1.023 1.837-.31.617-.21 1.83 0 2.463.498.323.666.733 1.227 1.022.426.627 1.063 1.04 1.43 1.636.246.49.333.243-.407.206-.64-.768-1.476-1.06-2.66-1.637-1.273-.23-2.187-.02-3.476.203-.68.84-.977 1.627-1.02 2.864.04 1.088.73 2.683 1.33 3.18" fill="none"/>
    <path stroke-linejoin="round" d="M346.77 237.32h-1.026c-1.617-.162-3.072-.396-4.7-.412-1.6 0-2.66.016-3.886.616-1.2.418-1.436.866-2.26 1.634-.62.976-1.146 1.783-1.43 2.864-.367.91-.776 1.723-.818 2.862.262 1.666 0-1.126 0-1.84.326-1.846.207-3.628-.204-6.62a22.26 22.26 0 0 0-1.43-3.68c-.46-.812-.983-1.612-2.046-1.84-.737-.212-1.932-.24-2.667 0-.617.363-1.37 1.34-1.842 2.046-.62.694-1.21 1.748-1.634 2.463-.61.863-.91 1.923-1.227 2.667-.103.693-.26 1.246-.41 1.637-.408-.818-.9-1.09-2.043-1.637-1.062-.91-2.26-1.738-3.27-2.26-.817-.606-1.983-1.234-2.866-1.634-.628-.437-1.696-.704-2.667-.818-.993 0-2.4-.127-3.066.204-.796.282-1.078.726-1.433 1.432-.36.686-2.122 2.626-2.063 2.46 0-1.138 1.004-3.44.622-4.606-.644-1.078-.99-1.692-1.227-2.463-.644-.713-.877-1.484-1.636-2.046-.278-.783-.806-1.016-1.226-1.636-.91-.387-1.017-.773-2.26-.818-1.017 0-1.96.164-2.66.408-.76.21-1.398.49-1.837 1.022-.92.44-1.087.82-1.842 1.43-.624.37-1.17 1.164-1.43 1.842-.696.726-.086.93 0 2.046" fill="none"/>
    <path stroke-linejoin="round" d="M343.298 227.94v-.206c0 .604.037.266-.612-.816-.413-.67-.846-1.2-1.637-2.046-.708-.83-1.19-.82-2.464-.82-.893 0-2.08-.083-2.667.206-.798.306-1.264 1.076-1.842 1.842-.646.898-1.29 1.647-1.634 2.26-.41.976-.79 1.396-1.023 2.248-.616.387-.492.8-1.226 1.022-.368-.667-1.043-1.066-1.43-1.637-.914-.316-2.127-1.208-3.068-1.838-.998-.666-1.912-1.04-2.86-1.637-.912-.316-1.487-.408-2.668-.408-1.286.068-1.88.366-2.863 1.022-.893.42-1.61 1.064-2.26 1.636-.72.6-3.67 4.837-4.41 6.446-.766.71 2.664-3.293 3.184-4.424.476-1.21.817-1.943.817-3.272-.233-1.672-.384-3.21-1.637-4.292-.98-.384-2.14-.604-3.476-.616-.936.13-1.412.416-2.463.616-.784.42-1.666.628-2.26 1.227-.664.402-1 .823-1.838 1.226-.408.698-1.014.847-1.43 1.43-.302.13-1.412 1.24-1.642 1.64" fill="none"/>
    <path stroke-linejoin="round" d="M336.643 223.226h-.204c.6 0 .264.036-.817-.614-.66-.38-1.086-.868-1.637-1.43-1.16-.29-2.066-.83-3.272-1.022-1.022-.42-2.172-.816-3.066-1.023-.883 0-1.868-.006-2.464.204-.408.698-.882.946-1.226 1.636-.273.676-.464 1.62-.82 2.043-.023.817-.43 2.237-.923 2.666.466-.806 1.287-3 1.636-4.406-.316-1.6-.91-2.882-1.634-4.293-.8-.97-1.718-1.922-2.668-2.863-.946-.236-2.003-.204-3.068-.204-1.246 0-1.648.016-2.26.818-.682.46-1.096 1.27-1.634 1.636-.686.782-1.13 1.116-1.43 2.26a8.986 8.986 0 0 0-.82 2.26l.82-2.26a8.986 8.986 0 0 0-.82 2.26v.203c.266-.863.8-1.666.82-2.863 0-1.068.046-2.32-.204-3.067-.326-.808-.662-1.306-1.433-1.84-.964-.942-1.74-1.677-2.86-2.044-.916-.467-1.86-.638-2.866-.204-1 .42-1.396.78-1.838 1.43-.883.313-.98.687-1.023 1.84-.037 1.11-.186 2.008 0 2.863.138 1.17.474 1.907.82 2.864.444.688.96 1.096 1.226 1.838.273 0 1.236 1.478 1.236 1.76" fill="none"/>
    <path stroke-linejoin="round" d="M336.637 222.404c0-.468-.414-2.808-.414-3.886 0-1.11-.19-1.686-.204-2.66 0-.742.196-2.36-.306-2.06.037 1.006.1 2.37.1 3.482-.29.818-.38 1.38-1.022 1.84-.663.442-1.696.408-2.86.408-.98-.106-2.213-.17-2.866-.612-1.06-.226-1.7-.636-2.463-1.022-.7-.398-1.28-.846-1.84-1.227-.237-.872-.663-1.094-.817-2.26-.464-1.066.616-3.687.32-3.88-.08 1.046-3.92 2.673-6.022 3.063-1.12.38-2.02.41-3.272.41-.832 0-1.7-.006-2.26-.206-.87-.636-1.31-1.046-2.044-1.636-.966-.733-1.677-1.137-2.667-2.046-.86-.807-1.298-1.648-1.84-2.26-.348-.767-.968-2.008-1.432-2.667-.107-.816-.203-1.616-.203-2.668v2.862c-.408.9-1.067 1.83-1.838 2.668-1.122.614-2 1.066-3.273 1.227-.707-.393-1.616-.723-2.26-1.022-1.064-.168-1.44-.48-2.044-1.227-.7-1.128-1.32-1.934-1.43-3.27-.313-.66.108-1.06.203-1.84 0-.44.1-.306.204-.614M273.6 197.87c-.063 1.234-1.86 2.764-2.266 3.686-.332 1.06-1.034 1.67-1.436 2.462-.973.66-1.773.776-2.864 1.227-1.497.063-2.707.363-4.292.408-1.282 0-3.163.368-3.78-.408-.86-.932-2.466-2.176-3.17-3.067-.703-.68.613-2.414.326-2.762m-28.117 18.672c-.424 1.274-.886 6.46-2.46 7.904-.714.93-1.684 1.286-2.66 1.636-1.16.302-2.067.7-3.474.818-.986.377-1.63.406-2.463.204-.672-.116.07-1.218-.604-1.336.76.38.084 1.987.707 2.973.08 1.046.368 1.337.408 2.463 0 1.204-.046 2.322-.204 3.474-.106 1.062-.288 1.976-.407 2.86-.617.928.01.142-.81.608-.843.264-1.768.676-2.862.816a26.36 26.36 0 0 1-2.66.61c-1.114.663-.63.62 0 1.432.738.693.984.806 1.228 1.944.29.676-.31 2.996-.824 3.892-.09 1.062-.49 1.81-.614 2.86-.34 1.196-.49 2.6-.82 3.68-.203.782-.61 1.7-.816 2.66-.363.662-1.274 1.8-1.637 2.463-.68.367-2.01 1.122-2.662 1.436-.176.676 1.194.698 1.64 1.22.662.663.982 1.106 1.226 2.26.172 1.137.418 1.82.614 2.667-.13.888-.46 2.006-1.022 2.667-.313 1.176-.747 1.786-1.43 2.248-.668.612-1.66 1.094-2.464 1.227-.63.44-1.696.704-2.667.818-.34.286-2.03 1.674-2.463 1.76M300.78 217.09c-.23 0-1.488-.066-2.046-.206-.977-.67-2.066-.408-3.27-.408-1.08.206-1.792.384-2.248 1.022-.482.906-.803 1.686-.818 2.86.012 1.16.367 1.99.61 2.864.432.62.48 1.402.82 2.043 0 .41.613 1.962.613 2.36-.44-.986-1.36-3.6-1.74-4.813-.22-1.463-.38-2.136-1.43-2.86-1.386-1.13-2.088-1.743-3.68-2.046-1.108.178-1.964.906-2.864 1.43-.69.69-1.697 1.326-2.464 1.84-1.012.88-1.696 1.61-2.046 2.862 0 1.044.096 1.844.207 2.66.162.747.374 1.673.612 2.246.272 1.192.626 2.263.614 3.476.206.21.204 1.242.204 1.022-.49-.67-.768-1.66-1.023-2.463-.316-.894-.742-1.766-1.226-2.666-.936-.816-1.172-.887-2.464-1.226-.99 0-1.934.048-2.667.204-.462.37-1.188.723-1.64 1.226-.666.708-1.138 1.346-1.43 2.463 0 1.046.096 1.846.206 2.668v2.466-2.466 2.466" fill="none"/>
    <path stroke-linejoin="round" d="M299.36 208.3h-.204c.67 0 .267.026-.82-.41-.642-.37-1.468-.474-2.044-.817-1.18-.043-2.116-.204-3.476-.204-1.198.107-1.444.698-1.636 1.84-.286.864-.204 1.883-.204 2.86-.07 1.09-.286 2.018-.41 3.068-.12.662.14 3.933-.1 4.413-.176-1.196-.934-4.602-1.33-6.434-.7-1.64-1.68-2.696-2.862-4.09-.946-.82-1.44-.616-2.66 0-1.176.162-1.42.416-2.042.82-.617.46-1.248 1.06-1.637 1.84-.662.614-1.028 1.202-1.227 2.043.07.897.34 1.73.616 2.462.19.37 2.07 4.292 2.26 4.62.214.366-1.783-3.206-2.464-3.802-.7-.686-1.387-.613-2.66-.613-1.628.203-2.98.446-4.29 1.226-.7.676-.944 1.277-1.434 1.84-.114.86-.336 1.64-.408 2.668.164 1.013.477 1.437 1.023 2.26.186.424 1.624 2.268 1.643 2.768-.786-.434-3.12-1.746-4.3-1.746-1.197.16-1.642.632-2.248 1.43-.427 1.062-.41 2.064-.41 3.272-.036 1.006-.206 1.812-.206 2.86 0 .41.413 4.94.413 6.347-.18-.763-.846-6.698-1.23-6.162-.426-.99-1.136-2.228-2.044-2.864-.666-.392-1.38-.163-2.046.204-.276.662-.964 1.67-1.43 2.26-.273 1.024-.6 1.303-.616 2.462.113.846 1.63 4.697 1.644 6.44 0 .3-1.37-3.437-1.44-3.6-.346-.826-.987-2.083-1.432-3.066-.707-.48-1.06-.964-1.838-1.43-.747-.66-1.364-.9-2.046-1.227-1.008-.287-1.903-.41-3.07-.41-.816.4-1.233.703-1.837 1.636-.286 1.03-.41 1.873-.41 3.068v3.066c.222.813.663 1.407 1.226 2.046.428.63 1.898 2.686 2.462 3.282.83.83-1.38-2.026-1.86-2.26-.84-.447-1.273-.686-2.248-.818-.677-.29-1.764-.204-2.667-.204-.97.334-2.366.64-3.068 1.023-1.146.43-2.12.49-2.464 1.43.043 1.232.28 1.9.616 2.864.607.936.838 1.642 1.43 2.246.41.602.873.976 1.636 1.23.363.632 2.347 1.607 2.872 2.26-.634-.38-2.69-.643-3.484-.412-.662.38-1.372 1.01-2.26 1.634-.887.702-.818 1.19-.818 2.466.074.976.294 1.67.616 2.247.332.703.663 1.203 1.023 2.046-.14.31 4.838 3.636 4.838 3.81m47.298-67.169h-.204c.6 0 .262-.036-.82.613-.923.31-1.824.462-2.666.206a30.946 30.946 0 0 0-3.68-.206c-.41-.307-.927-.162-1.226-.613-.832-.366-1.232-.607-1.433-1.43-.473-.788-.916-1.96-1.228-2.863-.446-.834-.78-1.44-1.226-2.463 0 1.26.212 2.338.41 3.476v3.067c-.61.967-.476 1.46-1.637 1.636-1.016 0-1.96-.166-2.668-.408-1.602-.39-3.324-.783-4.906-1.023-.67-.967-1.426-1.276-2.66-2.444" fill="none"/>
    <path stroke-linejoin="round" d="M271.968 206.03c-1.012.276-1.98.114-2.667.816-.466.686-1.048.94-1.226 1.84-.63 1.226-.82 2.82-.82 4.498.234 1.178.928 2.294 1.638 3.067.368.6 1.26 1.873 1.844 2.766.696 1.176-.466-.364-1.232-.72-.99-1.13-2.244-2.216-3.68-2.463-1.666-.38-2.81-.622-4.29 0-1.046.614-1.27.998-1.434 2.26-.288.677-.203 1.762-.203 2.667.013 1.128.204 2.127.204 3.268.297.92.176 2.13.41 3.068.372.614.67 2.766.92 3.184-.266-1.274-.868-4.676-1.633-6.637-.498-.73-1.248-1.206-2.046-1.634a9.191 9.191 0 0 0-2.463-.616c-.997-.26-2.107-.262-2.862 0-1.198.424-1.603.74-2.046 1.634-.174.803-.476 1.762-.818 2.66-.07.914.003 3.94.003 6.026m9.193-26.469c0-.29-2.228.892-2.464 1.636-1.128.712-1.662 1.46-2.96 1.636-1.387.22-2.676.72-4.09.72h-6.316" fill="none"/>
    <path stroke-linejoin="round" d="M262.116 208.708v.206c0-.602.036-.262-.614.818-.84 1.096-1.118 1.624-.82 3.067 0 1.183.168 2.132.208 3.27.69 1.406 1.36 3.348 1.838 4.498.606.922.342.437-.612.41-.993-.38-1.9-.41-3.067-.41-1.086 0-2.09.032-3.07.207-.767.61-1.622.837-2.462 1.226-.676.443-1.687.874-2.042 1.43-.218.647-.207 1.716-.207 2.668.113.837.286 1.483.613 2.046.604.912 1.174 1.627 2.046 2.464.462.442 1.21.917 1.837 1.43.633.19 2.06 1.026 2.46 1.436-.733-.603-3.432-2.246-4.298-3.07-1.922-.86-3.962-1.666-6.137-1.84-1.296.047-2.24.69-3.066 1.43-.663.794-.832 1.242-1.637 1.637-.632.776-1.278.66-1.43 1.838-.31.93-.03 1.697.206 2.66.386.977.806 2.08 1.226 2.86.62.607 1.006 1.096 1.638 1.842.766.667 1.23 1.144 2.046 1.43.493.472 1.86.973 2.662 1.227-.496.43-2.146.728-2.768 1.022-.9.763-1.624 1.293-2.043 1.84-.11.816-.206 1.616-.206 2.66-.048.846-.204 1.273-.204 2.246.416.694.976 1.704 1.637 2.26.668.664 1.264.92 1.84 1.433.407.173.66.416 1.022.612l-1.023-.612c.407.173 2.203.62 2.666.716" fill="none"/>
    <path stroke-linejoin="round" d="M243.72 208.912c-.097 0-.682.682-1.228 1.227-.863.836-.932 1.388-1.43 2.667 0 1.262.008 2.107.818 2.862.488.882 1.246 1.677 1.84 2.462.706.686 1.016 1.242 1.432 2.046-.408-.6-1.216-1.26-1.84-2.26-.693-.496-1.368-1.398-2.26-2.044-1.216-.44-1.76-.68-2.86-.41-.944.63-1.933 1.08-2.66 1.84-.838.712-1.61.92-2.044 1.84-.666.47-.776.934-.818 2.046 0 1.306.29 1.867.614 3.064.664.962 1.034 1.87 1.43 2.466.322.262 1.38 1.703 1.64 1.64-.664-.34-1.836-1.66-2.766-1.747-.77.363-2.376.207-3.476.207-1.21 0-1.942.006-2.864.408-.822.312-1.776.736-2.668 1.43-1.1.38-1.727.798-1.838 2.046.18.994.62 1.166 1.43 2.046.896.942 1.722 1.94 2.86 2.666.61.736 1.776 1.67 2.26 2.26.68.264 3.6.2 2.472.2-.898.233-4.816.914-6.64 1.433-.906.866-1.11 1.66-1.226 3.067.074 1.27.408 2.31.616 3.476.616 1.067.67 1.86 1.226 2.668.44.678 1.493 1.68 2.046 2.046.882.367 2.24 1.026 3.272 1.43.646.2 1.468.416 2.246.612h-3.68c-.966.264-1.692.36-2.248.82-.846.282-1.047.74-1.636 1.226 0 1.12.12 1.767.616 2.463.132.896.633 1.766 1.226 2.26.48.76 1.206 1.422 1.84 1.84.823.718 1.188.886 2.044 1.227.927.126 1.746.477 2.667.612.464.384 1.664.616 2.26 1.022l-2.26-1.022c.464.384 1.664.616 2.26 1.022l1.027.31c-.964.146-2.413.19-3.48.713-1.468.447-2.9.74-3.477 1.634-.92.46-1.004.892-1.226 1.84-.086 1.186-.133 1.61.204 2.464a6.126 6.126 0 0 0 1.638 1.637c.604.606 1.772 1.47 2.667 1.838 1.017.688 1.726.883 2.463 1.227-.976.16-1.99.204-3.068.204-.666.39-1.192.406-1.634 1.022-.684.498-1.13.978-1.227 2.046-.297.884-.1 1.494.407 2.463.636.48 1.336 1.144 2.046 1.634.737.343 1.892.78 2.86 1.022.333.132 1.61.204.412.204-.624.27-1.62.206-2.463.206-1.07.096-1.486.488-2.248 1.023-.664.66-.978.792-1.023 2.042 0 1.16.103 1.66.61 2.26.64 1.128 1.032 1.48 1.842 2.044.69.42 1.802.682 2.86.613 1.26 0 2.486-.03 3.68.207.618 0 4.647.673 4.624.617" fill="none"/>
    <path stroke-linejoin="round" d="M224.91 241.213c0 .06-.376.696-.612 1.226-1.02.77-1.038 1.46-2.26 1.634-.86.188-1.664.122-2.462 0-.366-.612-1.078-1.066-1.634-1.43-.464-.668-1.222-2.03-1.744-2.46m10.442 8.182c-.062.31-.992 2.014-1.127 2.66-.777.78-1.916 1.976-3.068 2.66-.866.204-1.602.608-2.667.612-.97.312-2.17.204-3.272.204-.896-.206-1.634-.68-2.463-1.022-.394-.487-2.82-2.62-3.486-2.972" fill="none"/>
    <path stroke-linejoin="round" d="M226.646 261.094c0 .312-.468 4.707-1.026 6.678-.496.874-1.223 1.873-1.838 2.86-.667 1.103-1.04 1.706-2.26 2.26-1.368.612-2.706.616-4.293.616-1.016-.244-2.286-.886-3.477-1.227-.74-.603-1.72-1.104-2.463-1.637-.742-.612-1.626-1.168-2.048-2.046" fill="none"/>
    <path stroke-linejoin="round" d="M229.414 269.028h-.204c.663 0 .27-.013-.82.204-1.382.204-2.266.08-3.476-.41-.882-.308-1.933-1.108-2.86-1.84-.86-.82-1.627-1.688-2.26-2.044a2.468 2.468 0 0 0-.818-1.634c0 1.03.092 1.918.206 2.86 0 1.163-.16 2.064-.41 3.068-.323 1.137-.774 1.668-1.636 2.463-1.224.266-2.307.408-3.68.408-1.476-.01-2.744-.26-4.09-.408-.74-.336-1.41-.683-2.046-1.022m21.789-1.449c-.73 2.283-3.306 3.467-3.79 4.096-1.168.28-2.146.6-3.476.614-1.196 0-1.328-.06-2.046-.616-1.184-.396-1.66-.72-2.046-1.43 0-.274.07-.206-.204-.206m14.103 9.621l-.204.204c.466-.464.242-.294-.203.818-.636 1.196-1.478 1.39-2.667 1.84-1.08-.163-1.602-.668-2.66-1.228-1.078-.604-1.894-1.64-2.666-2.667-.618-1.37-1.023-2.626-1.023-4.087-.282-.64-.38-1.426-.818-1.84v4.294c-.317.966-.36 1.703-.612 2.667-.17 1.246-.426 2.163-.818 3.067-.762 1.046-1.92 1.306-3.476 1.432-1.247.267-2.71.204-4.087.204-1.074-.127-1.718-.334-2.668-.612-1.084-.616-1.378-.803-2.26-1.84-.966-1.082-2.096-2.46-2.66-3.477-.322-1.144-.88-4.693-1.126-6.844 0-1.208.114 2.808.106 3.39-.297 1.832-.41 3.693-.41 6.622v3.27c-.213 1.362-.382 2.046-1.227 2.862-.69.663-1.698 1.487-2.26 1.84-.436.63-1.006.93-1.838 1.226-.898.493-1.766.697-2.66.82-.492.086-.837.388-1.226 0" fill="none"/>
    <path stroke-linejoin="round" d="M232.3 290.062c-.484.706-1.41 2.286-2.263 2.46-.896.473-2.286.41-3.68.41-.983-.226-2.016-.173-2.463-.82-1.684-1.062-3.036-2.278-4.294-3.68a14.333 14.333 0 0 1-1.433-2.248c-.472-.162.068.47.206.818.746 1.094 1.236 2.197 1.43 3.476.263.978.263 2.28 0 3.066-.24 1.086-.66 1.867-1.43 2.66-.418.62-1.1.408-2.046.408-1.322-.166-2.38-.717-3.68-1.226-1.417-.837-2.01-1.08-2.666-2.463-.268-1.66-.427-3.176-.616-4.7-.027-.66-.04-2.814-.306-3.08-.29.76-.747 3.696-1.126 4.61-.24 1.313-.376 1.724-1.634 1.84-.668.326-1.69 0-2.66 0-.74-.26-1.216-.43-1.634-.818-.188-.347-.427-.47-.616-.82m33.627 2.662h-.204c.602 0 .24-.068-.41 1.02-.486.728-.636 1.624-.816 2.466.084 1.11.368 1.384.816 2.044 1.192.72 1.39 1.022 2.863 1.226 1.6.306 6.603-.106 8.1.202 1.266.18-3.647.924-4.013 1.026-.79.424-1.66.666-2.463 1.226-1.106.863-1.937 1.666-2.667 2.046-.207.788-.408 1.664-.408 2.666.277.696.66 1.327 1.02 2.046.766.796.99 1.264 2.044 1.638 1.62.068 3.22.19 4.906.204 1.637-.424 4.693-1.168 6.63-1.74.3 0-1.172.442-1.336.613-.686.342-1.364.867-2.26 1.636-.84.42-1.122.898-1.633 1.634-.632.684-.747 1.288-1.226 1.84-.143 1.063-.148 1.368.408 2.26.76 1.036.936 1.468 2.046 1.636.468.44 1.142 1.003 1.84 1.432.49.223 3.614.244 3.29.61-.997.07-4.686.386-6.334.82-.834.296-1.078.66-1.226 1.636.042 1.168.26 1.46.816 2.26a4.332 4.332 0 0 0 1.638 1.43c.498.477 4.066 1.192 4.72 1.743.86.3-2.983-.31-3.698-.31-.68.29-1.764.204-2.66.204-.362.688-.83 1.144-1.226 1.838-.368.616-.086 1.33 0 2.046.636.676 1.274 1.8 1.637 2.464.673.46.836.862 1.84 1.227.412.463 4.162 1.89 4.828 1.962m-8.62-6.227v.206c0-.606.06-.242-1.02.407-.6.618-1.273 1.306-1.636 1.84-.19.918.036 1.376.408 2.248.646.44 1.27 1.322 1.637 2.046.96.87 1.697 1.388 2.042 2.046.617.186 2.842 1.137 3.49 1.64-1.164-.017-4.016-1.066-6.126-1.132-1.366 0-1.97.164-2.863.616-.37.698-.777 1.11-1.02 1.838-.266.718-.6 1.404-.616 2.26-.284.88.01 1.36.407 2.044.713.676 1.016.96 1.84 1.227.692.627 1.3.803 2.464.818.61.266 2.67.1 3.284.1-.708.462-2.886.907-3.69 1.127-.642.33-1.428.667-1.842 1.023-.442.69-.776 1.112-.818 2.246.34.867.86 1.66 1.84 2.467.91 1.026 1 1.23 2.26 1.634 1.06.49 6.412.06 6.67.1-1.026.163-6.616 1.403-6.67 2.16-.746.63-.784 1.13 0 1.84.603.897 1.08 1.36 2.046 1.636 1.11 0 1.683-.19 2.666-.204.943.11 4.406-.106 6.436-.106-.792.448-4.874.993-6.06 1.13-1.023.36-1.444.383-1.636 1.43 0 .942-.11 1.623.408 2.044.63.936.842 1.007 2.046 1.02.693.368 1.404.046 2.26 0h7.076m-1.684 9.377c.618 0-6.32-8.867-9.167-7.93-1.306.224-2.164.242-2.667 1.228-.734.73-1.463 1.968-1.84 3.066-.1 1.108-.27 1.996 0 3.068.187.808.664 1.664.817 2.667.226.44.6 1.396.204 1.84-.146-.698-.362-1.132-.614-2.044-.242-1.664-.386-3.22-.612-4.7-.638-.483-1.4-1.243-2.248-1.842-1.163-.164-2.167-.196-3.068 0-.766.662-1.04 1.184-1.84 1.637-.666.217-2.336.363-3.273.408" fill="none"/>
    <path stroke-linejoin="round" d="M218.79 294.99c.07 0-.042-.066.82 1.022.6.374.67.736 1.43 1.227.874.66 1.804 1.02 3.067 1.226 1.248.42 2.678.6 3.884.816 1.127 0 2.263.02 3.273-.203 1.17 0 1.776-.167 2.86-.204l.826-.31m.821 7.871v.206c0-.663-.012-.27.206.816 0 1.232-.19 1.663-.614 2.26-.892.646-1.89.86-3.064 1.226-1.606-.066-2.806-.334-4.09-.816-.99-.82-1.407-1.386-2.046-2.66-.664-2.024-1.206-3.68-1.226-6.726 0-1.18.032-2.08-.612-2.666-.313-.31-.344.633-.616 1.023-.09 1.23-.622 1.962-1.226 3.068-.744.717-1.616 1.66-2.666 2.26-1.076.237-1.462.42-2.463.203a63.096 63.096 0 0 0-2.044-2.26c-.26-.966-.96-2.113-1.43-3.27-.44-1.1-.936-2.04-1.023-3.273-.41-1.13-.33-.976-.612.204-.698 1.296-.773 2.146-1.433 3.27-.866.666-1.64 1.264-2.86 1.638-1.428.216-2.36.11-3.68-.207-.996-.366-1.476-.796-2.046-1.633-.633-.623-.888-1.067-1.023-2.046-.417-.678-.867-2.146-1.227-3.066-.406-.493-.697-1.44-.82-2.26-.282-.232-.46-.667-.61-1.022" fill="none"/>
    <path stroke-linejoin="round" d="M242.818 310.3c-.03.396-.463 3.117-.922 3.898-.666 1.168-.766 1.69-2.046 1.636-1.268-.204-2.26-.843-3.27-1.636-.846-1.068-1.68-1.873-2.247-3.066-.616-.606-.648-.797-.408 0 .662.668.696.646.612 1.84v3.066a7.607 7.607 0 0 1-.41 2.462c-.387 1.08-.836 1.62-1.84 2.463-1.166.26-1.368-.164-2.248-.818-1.093-.443-1.62-.843-2.26-1.43-.68-.68-1.18-1.288-1.637-2.046-.11-.816-.204-1.616-.204-2.666 0-1.022.822-3.486.822-4.61-.166-1.26-.99 1.06-1.64 1.863-.627 1.01-1.197 1.796-1.84 2.26-.86.797-2.19 1.16-3.476 1.43-1.21 0-2.186-.186-3.272-.41-.712-.986-.96-1.64-1.43-2.464 0-1.274.186-2.146.408-3.27.214-1.064.6-2.894.614-3.994 0-1.11-.19 1.207-.614 1.746-.268 1.21-.66 1.274-1.43 2.042a24.09 24.09 0 0 1-3.272.207c-1.24 0-2.37.11-3.476.408-.763-.268-1.166-1.343-1.636-2.26-.266-.794-.4-1.66-.41-2.666 0-1.066-.242-1.674-.41-2.463-.466 1.038-.887 1.12-2.042 1.226-.672 0-1.47.073-1.84-.207-.4-.666-.94-1.26-1.227-1.84l1.227 1.84c-.4-.666-1.866-2.7-2.163-3.28" fill="none"/>
    <path stroke-linejoin="round" d="M244.364 318.09c0 .196-.108 1.303-.203 1.84-.368.846-.49 1.61-.614 2.668a7.466 7.466 0 0 1-.408 2.463c-.474.66-1.038 1.007-1.636 1.43-1.382 0-1.79-.126-2.863-.816a38.632 38.632 0 0 0-2.463-1.84c-.686-.986-1.196-1.767-1.84-2.668l-.722-.72c-.416-.87.46.482.72 1.64.31 1.077.41 2.028.41 3.268-.036 1.306-.272 2.396-.41 3.682-.663 1.094-.674 1.333-1.838 1.43-1.336 0-2.61-.018-3.883-.203-1.26-.194-2.206-.64-3.272-1.227-.273-.713-.41-1.613-.41-2.66.016-1.246.304-2.29.41-3.476.437-1.192.604-1.947 1.022-3.066.334-.448.628-.933.612-1.637-.182 1.27-.868 2.164-1.226 3.27-.66 1.22-1.674 2.47-2.26 3.68-.778.748-1.06 1.046-1.838 1.43-.922-.136-1.343-.483-2.046-.816-.4-.688-.877-.93-1.226-1.84-.646-.912-.806-1.32-.818-2.668 0-.824.066-2.26 0-2.463-.086-.26-1.076-3.826-1.336-3.91m-.097.01c-.318.204-1.66.688-2.667.612h-3.68c-1.196-.11-1.084-.66-1.433-1.43a10.866 10.866 0 0 1-.612-3.07c-.178-.987-.694-1.082-.82-1.936-.69.38-.62-.117-1.633.098-1.407.216-2.636.614-3.886.816-1.263.176-2.406.396-3.68.41-1.19 0-2.12.114-2.666-.614-.342-.686-.397-1.637-.408-2.667 0-1.16.127-2.262.408-3.068.418-.776.96-1.602 1.634-2.26a6.478 6.478 0 0 1 1.434-1.43c.42-.62.948-.862 1.226-1.634.49-.406.737-1.033 1.023-1.637" fill="none"/>
    <path stroke-linejoin="round" d="M188.61 302.248c.367.086 3.086.69 3.692 1.128 1.004.66 1.396 1.196 2.042 1.84.323.682.638 1.306.82 2.248.166.78.203 1.817.203 2.864-.382.628-.742 1.674-1.023 2.463-.42.623-.797 1.03-1.634 1.43-.986.76-2.69 1.442-4.09 2.046-.944.112-1.83.204-2.862.204-1.022 0-2.148.618-3.17.618-.99 0-2.403-.128-3.066.204-.302 0-.166.047-.41-.204m38.66 6.911c-.082 0-.644.667-1.226 1.02-.483.816-.684 1.293-1.227 2.26-.363.966-.64 1.692-.613 2.66v2.86c.01 1.073.204 1.647.204 2.667v6.726-2.86 2.86m6.3-14.313c0 .412-.247 3.78-.003 4.61.066 1.24.416 1.934.818 2.86.64.497 1.486 1.633 2.26 2.464.614.618 1.236 1.002 2.248 1.227 1.186.237 2.126.41 3.066.207.77-.336 1.946-.996 2.864-1.433.42-.91 1.026-1.94 1.43-3.066.36-1.08.377-2.194.41-1.842.433.363 1.246 1.326 1.636 1.84.866.623 1.716 1.138 2.463 2.044.766.863 2.003.67 3.174.61" fill="none"/>
    <path stroke-linejoin="round" d="M222.473 340.766c0-.07 2.408 3.086 3.277 3.086.946.236 2.016.374 3.068.41 1.266-.016 2.22-.328 3.27-.818.862-.9.613-2.24.613-3.68v-3.067c-.023-.837-.28-1.494-.407-2.26.188 1.328.827 2.433 1.227 3.68.466.986 1.886 4.697 3.27 4.81.626.76 1.228.367 1.84-.616 1.107-.726 1.39-4.13 1.84-4.703 0-.676.16-.633.206-1.023" stroke-linecap="round" fill="none"/>
    <path stroke-linejoin="round" d="M222.06 348.628c0 .07 1.69 1.406 2.67 2.066 1.117.843 1.296 1.023 2.66 1.023.924-.176 1.294-.887 2.042-1.637 1.043-1.018 1.284-1.832 1.022-3.27-.04-1.116-.344-2.896-.612-2.46.472.617.91 1.617 1.227 2.04.42.622.72 1.06 1.633 1.226.638.466 1.314.747 2.26.818.496.37 1.13.244 1.43-.204.69-.31 1.202-.62 1.637-1.022.196-.66.638-1.06.816-1.636" fill="none"/>
    <path stroke-linejoin="round" d="M237.6 347.733v.204c0-.66-.014-.273.203.816.07 1.184.207 2.223.207 3.476-.297 1.226-.49 2.11-1.227 2.862-.694.347-1.92.188-2.863 0-1.236-.666-4.46-2.87-4.906-3.883-.302-.176 2.667 2.068 3.067 2.666.462.71.8 1.237 1.02 2.046.2.694.343 1.9.208 2.247-.17 1.116-.66 1.084-1.433 1.433-.886.22-1.86.204-2.86.204-.913-.124-1.424-.418-2.26-.614l-.31-.207" stroke-linecap="round" fill="none"/>
    <path stroke-linejoin="round" d="M241.493 366.713v1.024c-.238.942-.347 1.787-.614 2.462-.202 1.16-.698 1.202-1.432 1.84-.906.226-1.936.24-2.667 0-1.29-.773-1.964-1.187-2.862-2.26-.898-.897.384.616.818 1.228.708.626 1.126 1.07 1.227 2.26.243 1.22.29 1.737-.41 2.462-.607.726-1.272 1.094-2.464 1.43h-2.862c-1.08-.24-.976-.666-1.43-1.226m16.643-3.063c.06.39-.016 2.113-.103 3.067-.792 1.317-.79 1.376-2.26 1.84-1.178.16-2.394.206-3.68.206-.862-.302-1.493-.882-2.044-1.84-.806-.606-.264.237 0 .818.427 1.107.787 1.827 1.023 3.067.07.846.62 1.106-.408 1.227-1.033.29-2.114.408-3.272.408-.892-.122-1.896-.096-2.662-.306" fill="none"/>
    <path stroke-linejoin="round" d="M237.387 369.72c.076.363.467 1.044 1.026 1.634.408.86.963 1.198 1.634 1.636.72.407 1.242.802 2.046 1.02 1.134 0 1.627-.213 2.463-.407 1.232-.42 1.272-.636 1.84-1.433.393-.638.687-1.08.817-2.042.294-.688.2-1.666 0-2.26-.082-1.08-.637-1.448-.816-2.248-.29-.098-.384-.82-.617-1.13m-36.383-48.773c-.07.07-.136.138-.204.204.486-.486.286-.262-.818.41-.996.268-1.402.683-1.84 1.227-.93.614-1.678.972-1.84 2.046v2.86c-.222.746-.204 2.016-.204 3.07 0 1.11-.13 2.03-.204 3.064.143.667.64 1.624.31 2.264-.077-.893-.614-2.093-.614-3.07-.373-.643-.784-1.764-1.226-2.26-.69-.61-1.196-.736-2.26-1.022-1.088-.363-1.81-.226-2.462.408-.47.49-1.036 1.3-1.434 2.26-.222 1.123-.672 1.746-.612 2.86-.23 1.073-.407 1.722-.203 2.66v3.066c0 .966.206 2.22.206 3.176-.13 1.612-.49-.236-.82-.72-.22-1.026-.442-1.86-1.023-2.464-.614-.62-1.364-.816-2.463-.816-1.043 0-1.626-.244-1.838.612-.302.604-.366 1.976-.41 2.864v6.723c-.176-1.086-.6-1.68-1.227-2.463-.714-.82-1.283-1.04-2.668-1.227-1.336-.323-1.996-.198-3.068.41-1.028 1.006-1.706 1.347-1.84 2.464-.414.6-.602 1.438-.613 2.26v3.064c0 .67-.842-.62-1.43-1.43-.686-.943-1.094-1.184-2.26-1.226-.783.403-2.343 1-3.064 1.634-.622.422-.41 1.102-.41 2.046v2.863c-.066.71-1.118.71-1.636.204-.766-.372-1.763-.886-2.666-1.02-.78-.37-1.428-.464-2.046-.206-.32 1.033-.616 1.86-.616 3.066-.312.84-.408 1.464-.408 2.463" fill="none"/>
    <path stroke-linejoin="round" d="M214.6 322.38c-.07 0 2.744-.926 2.676-.926.672 0-2.612.9-3.698 1.336-.827.3-1.72 1.196-2.463 2.044-1.683 1.602-3.72 3.766-6.317 6.62-1.478 1.484-2.63 2.6-3.476 4.088-2.04 1.62-3.664 3.17-6.313 6.113-1.878 1.404-3.733 2.763-6.62 4.292-1.79.896-3.373 1.698-6.317 2.463-1.738.68-3.238 1.36-4.907 2.046-.887.69-1.396.99-2.463 1.43-1.61.926-3.46 1.636-4.702 2.464-.612.414-1.036.968-2.046 1.432-.644.762-1.49 1.06-2.463 1.634a88.382 88.382 0 0 1-3.68 1.227c-1.417.486-2.296.89-3.68 1.43-3.768 1.317-7.602 2.827-11.448 3.476-1.102.402-2.213.736-3.27.817-1.663.662-3.48.69-6.112.82-1.047.276-2.36.608-3.27.816-1.063.29-2.08.636-2.863.82-1.06.12-2.226.42-3.067.613-.996.294-1.42.69-2.26.816-.466.406-2.404 1.96-2.87 2.36m67.067-61.643c.12.392.41 1.63.41 2.66-.167.974-.366 2.193-.818 2.86-.366.917-1.64 1.78-2.26 2.463-.82.18-1.664.347-2.462.616-1.066.077-3.444 2.384-4.61 2.47-.68.134-1.623.2-2.466.2-.29-.307-.39-.132-.816-.302.687.49.477.668.612 1.734 0 1.09.763 2.177.62 3.17-.26 1.21-1.296 2.676-2.14 3.163-1.033.64-1.942 1.036-3.068 1.433-1.007.036-1.814.204-2.86.204-.682 0-1.22-.037-1.638-.204m32.3-26.778v1.227c.268 1.34.464 2.276 1.43 3.27.684.918 1.776 1.636 2.862 2.26h3.068c.736-.127 2.376.128 3.18.104m-8.102-.096c-.07.067.48-.174.413-.106.61-.614-.34.046-1.436.922-1.232 1.047-1.762 1.608-2.046 3.068.016 1.174.266 1.61.616 2.26.267.91.766 1.763 1.43 2.248.273 0 .204.07.204-.204m-12.669-3.276c0 .097.96.6 1.332 1.022 1.044.666 2.37 1.86 3.68 2.667 1.274.423 2.468.118 3.68-.41.813-.214 1.414-.608 2.044-1.226l.207-.206" fill="none"/>
    <path stroke-linejoin="round" d="M188.76 326.464c-.638.96-1.36 1.62-1.433 2.667 0 1.048.137 1.946.41 2.668.382.707.83 1.82 1.43 2.463.374.613.768 1.13 1.227 1.432-.363-1.004-1.282-1.783-2.26-2.667-.376-.43-.817-.612-1.226-.204-1.06.076-1.763.337-2.464.616-1.16.4-2.114.933-2.86 1.43-.76.774-.82 1.2-.82 2.464-.098 1.297-.204 2.646-.204 3.882.316.26.38.463.408 1.023-.222-.868-.676-2.193-1.226-2.86-.49-.687-.846-.806-2.046-.82-1.038.19-1 .702-1.634 1.227-.62.898-1.06 1.18-1.43 2.26-.6 1.166-.616 2.16-.616 3.476.272 0 .613 2.127.613 1.864" fill="none"/>
    <path stroke-linejoin="round" d="M179.63 326.464v.204c0-.646.04-.26-.614.612-.283.962-.408 1.494-.408 2.66.164 1.18.69 1.796.82 2.86.8.964 1.117 1.397 2.04 1.842.282.28.646.38.82.204m-8.378-1.044h-.206c.063.136 0 .91 0 1.43 0 .978-.082 2.01.204 2.864.203.832 1.366 1.147 1.846 1.637m-12.468-.818c0 .07.41-.48.41-.413 0-.67-.386.36-.818 1.436-.964 1.147-1.67 2.06-2.864 3.272-1.266.39-2.06 1.16-3.27 2.044-1.334.766-2.632 1.192-3.886 1.84-1.37.673-2.966.99-4.498 1.43-1.373.606-2.97.88-4.498 1.022-1.038.367-2.186.61-3.27.818-1.274.443-2.676.972-3.886 1.43-.942.327-1.464.616-2.26 1.023-1.23.424-2.428 1.243-3.68 1.84-.447.642-1.67 1.29-2.462 2.044-1.276.684-2.677 1.846-3.884 2.464-1.607.962-3.013 1.764-4.702 2.26-1.348.64-2.67 1.117-3.886 1.84-.92.626-1.86 1.623-2.862 2.26-.623.916-1.41 1.6-2.26 2.248-.66 1.224-1.743 2.166-2.666 3.066-.646.37-1.176.962-1.636 1.434-.627.647-1.23 1.224-1.84 1.636-.6.744-.937 1-1.84 1.43-.66.678-1.268.746 0 .82 1.17-.374 2.696-.377 3.886-.41 1.27-.274 2.746-.417 4.09-.613 1.14-.146 2.486-.37 3.883-.408 1.488.26 3.678-.4 6.316-1.023a288.896 288.896 0 0 1 3.886-2.248c.746-.62 1.39-.762 2.247-1.227.742-.2 1.438-.606 2.26-.818m40.47-31.896c0 .262.086 1.466.204 2.046.396 1.263.92 2.233 1.84 3.064.71.42 2.184.308 3.376.308m-9.711-4.384c-.162 0-.1.483-.408 1.023 0 1.064.143 2.133.408 2.86 1.363.634 2.286.944 3.883 1.024.976-.076 1.623-.324 2.26-.612.638-.133-.216.492-.82 1.02-.866.868-1.242 1.684-.816 2.863.43.896 3.743 2.02 4.313 2.662" fill="none"/>
    <path stroke-linejoin="round" d="M160.113 341.8c-.207.963-.236 1.604.41 2.246.667.46 1.384.41 2.464.41 1.822-.097 3.486-.41 6.314-.41.862 0-.706.117-1.022.207-1.028.36-1.667.474-2.26 1.02-1.09.448-1.64.96-2.666 1.84-.41.61-.69 1.403-.204 2.046.403.694.912 1.02 1.636 1.43.766.694.948.923 2.046 1.023h.408" fill="none"/>
    <path stroke-linejoin="round" d="M167.368 343.663c-.096.387-.614 1.02-.614 2.04.086 1.09.36 1.38 1.023 1.84.66.46 1.386.41 2.463.41h1.226c-.683.34-1.6.447-2.042.816-.644.44-.96.846-1.227 1.84-.016 1.143-.196 1.662 0 2.668.446.836.694 1.46 1.227 2.26.4.688 2.432 1.782 3.18 2.047m-10.96-10.641c-.187.86-.12 1.666 0 2.463.483.64.86 1.24 1.43 1.634.677.476 2.4.187 3.484.2.86.026 1.338.206.204.206-.646.622-2.17 1.163-2.46 2.264-.294.687-.2 1.662 0 2.248.08 1.04.386 1.416.613 2.247.66.674.8.892 1.636 1.23l-1.636-1.23c.66.674.8.892 1.636 1.23v.203c-.11-.266-.183-.464-.408-.616" stroke-linecap="round" fill="none"/>
    <path stroke-linejoin="round" d="M146.093 348.448c-.49.73-.77.98-.614 1.94.634.746 1.093 1.636 1.84 2.046 1.186 1.078 7.618-.466 8.633-.318.278.28-7.793 1.692-8.33 3.383-.22.73-.303 1.962 0 2.863.016 1.176.264 1.61.614 2.26.282.694.49.996 1.227 1.227-.273 0-.206.066-.206-.207" stroke-linecap="round" fill="none"/>
    <path stroke-linejoin="round" d="M137.22 360.99c-.29.897.067 1.306.408 2.047.49.733 1.338 1.68 2.046 2.146.413.24 7.118-.312 6.996-.312-.762.262-6.887 1.843-8.017 2.46-.422.822-.408 1.62-.408 2.668.082 1.073.168 1.634 1.022 1.84.677.287 1.7.36 2.463.41l1.442.31" stroke-linecap="round" fill="none"/>
    <path stroke-linejoin="round" d="M131.498 363.36c0 .224-.334 1.204-.208 1.938.287.67.137 1.113.613 1.43.174.986.46 1.66 1.432 1.842 1.07 0 1.896.06 2.463-.41.842-.37 1.343-.69 2.044-1.02l-2.044 1.02c.842-.37 1.343-.69 2.044-1.02l3.81-1.134c-.63.468-4.676 2.103-6.446 2.36-.676.648-1.044.638-1.227 1.634-.12.898-.187 1.693 0 2.463.628.604.972.96 1.43 1.43" stroke-linecap="round" fill="none"/>
    <path stroke-linejoin="round" d="M127.2 366.104c-.106.236-.613 1.147-.613 2.043.1 1.096.428 1.282 1.023 2.046h2.862c.796.143 3.106-.827 3.998-.827-.897.196-3.136 1.404-3.69 2.063-.66.22-.66.66-.613 1.227-.316.63-.196 1.61 0 2.046.386.667.842 1.068 1.227 1.634" fill="none"/>
    <path stroke-linejoin="round" d="M122.09 368.966c0 .302.077 1.63.206 2.26.79.61 1.286 1.017 2.26 1.634 1.003.04 6.16-1.863 6.26-1.863.793 0-4.012 2.176-4.217 2.262-.412.67-.736.977-.818 2.046-.372.62-.113 1.662 0 2.246.328.607.66.766 1.227 1.023-.272 0-.204.07-.204-.203" fill="none"/>
    <path stroke-linejoin="round" d="M116.774 361.64c0 .07.013-.066-.206 1.023-.402.636-.06 1.036.408 1.434.687.79 1.627.98 2.463 1.226.916.162 1.847.204 2.864.204.773 0 3.703-1.923 4.107-2.266-.676.273-3.98 2.403-4.924 2.673-1.146.626-1.462.964-1.84 2.046.043 1.166.363 1.447.818 2.26.413.766 2.186-.062 2.87.394" fill="none"/>
    <path stroke-linejoin="round" d="M112.89 364.9v.203c0-.6.036-.262-.613.82-.207.96-.27 1.482.41 2.044.6.74.86 1.078 1.84 1.226.32.138 6.326-2.678 6.86-2.678-.806.66-6.442 3.802-6.883 4.723-.387.8-.41 1.476-.41 2.464m-6.618-3.468c0 1.07-.06 1.894.41 2.463.112.936 2.08 1 2.772 1.327" fill="none"/>
  </g>
</svg>
