<svg xmlns="http://www.w3.org/2000/svg" height="480" width="640">
  <defs>
    <clipPath id="a">
      <path fill-opacity=".67" d="M0 0h682.6v612H0z"/>
    </clipPath>
  </defs>
  <g fill-rule="evenodd" clip-path="url(#a)" transform="scale(.9376 .9376)">
    <path fill="#b20000" d="M0 0h1024v340.11H0z"/>
    <path fill="#429f00" d="M0 340.11h1024V612H0z"/>
    <path fill="#fff" d="M0 0h113.37v612H0z"/>
    <g stroke-width="1pt" fill="#b20000">
      <path d="M6.394 8.682h6.398v8.68H6.394zm16.196 0h16.196v8.68H21.69zM26.983 0h6.398v8.68h-6.397zM63.98 0h6.4v8.68h-6.4zm21.69 8.682h16.197v8.68H76.67zM80.98 0h6.398v8.68H80.98z"/>
      <path d="M16.196 17.36h10.798v8.68H16.196zm16.196 0H43.19v8.68H32.392zm37.786 0h10.798v8.68H70.177zm16.196 0H97.17v8.68H86.374zm-76.686 8.68h10.798v8.678H10.787zm26.999 0h10.797v8.678H37.786zm26.998 0H76.68v8.678H64.786zm26.983 0h10.797v8.678H91.767zM102.67 8.682h6.397v8.68h-6.398zM6.394 34.718h10.798v8.678H6.394zm37.786 0h10.797v8.678H43.18zm63.996 0h10.798v8.678H97.176zM10.787 60.76h10.798v8.68H10.787zm6.409 8.68h10.798v8.677H16.196zm21.69-8.68h10.797v8.68H37.786zm-6.394 8.68H43.19v8.677H32.392zM21.69 78.107h16.196v8.678H21.69z"/>
      <path d="M26.983 86.784h6.398v8.68h-6.397zm37.801-26.032H76.68v8.678H64.786zm6.393 8.678h10.798v8.677H70.177zm21.69-8.68h10.797v8.68H91.767zm-6.394 8.68H97.17v8.677H86.374zM76.67 78.107h16.197v8.678H76.67z"/>
      <path d="M80.98 86.784h6.398v8.68H80.98zm-27-8.677h6.4v8.678h-6.4zm-63.98 0h6.398v8.678H0zm107.963 0h6.398v8.678h-6.397zm-80.98 43.39h6.398v8.678h-6.397z"/>
      <path d="M21.69 130.174h16.196v8.678H21.69zm-6.394 8.678H43.19v8.678H16.196zm64.784-17.366h6.398v8.678H80.98z"/>
      <path d="M76.67 130.174h16.197v8.678H76.67zm-6.393 8.678H97.17v8.678H70.178zm6.393 43.39h26.994v8.678H76.67zM64.784 147.63h37.79v8.68h-37.79zm-63.997 0h37.79v8.68h-37.79zm6.409 43.39h16.196v8.678H16.196zm-6.409-8.678H37.78v8.678H10.788zm76.686-17.366h26.994v8.678H86.373zM80.98 190.92h16.196v8.678H80.98z"/>
      <path d="M21.69 199.697h6.398v8.68H21.69zm64.783 0h6.398v8.68h-6.397zM0 164.886h26.994v8.678H0zm48.688 17.366h16.196v8.678H48.688zm6.392 8.678h6.4v8.678h-6.4zm-16.194-26.034h37.79v8.678h-37.79zM69.376 34.718h10.798v8.678H69.376z"/>
      <path d="M48.688 43.396h16.196v8.678H48.688z"/>
      <path d="M43.18 62.073h10.797v8.68H43.18zm16.196 0h10.798v8.68H69.376zM0 43.396h10.798v8.678H0z"/>
      <path d="M6.394 62.073h10.798v8.68H6.394zm97.176-8.678h10.797v8.678H102.67zM97.176 62.073h10.798v8.68H97.176zM0 130.174h6.398v8.678H0zm107.963 0h6.398v8.678h-6.397zm-69.376 69.423h16.196v8.68H48.688z"/>
      <path d="M43.18 208.276h10.797v8.678H43.18zm16.196 0h10.798v8.678H69.376zm-21.689 8.678h10.797v8.678H37.786zm26.998 0H76.68v8.678H64.786z"/>
      <path d="M32.392 226.63H43.19v8.68H32.392zm37.786 0h10.798v8.68H70.177zm-43.194 8.68H37.78v8.678H26.984zm48.687 0h10.8v8.678h-10.8z"/>
      <path d="M16.196 242.987h16.196v8.678H16.196zm64.784 0h16.196v8.678H80.98z"/>
      <path d="M91.767 234.31h10.797v8.678H91.767zm6.408-8.68h10.798v8.68H97.176z"/>
      <path d="M102.67 216.964h10.797v8.678H102.67zM10.787 234.31h10.798v8.678H10.787zm-6.393-8.68h10.798v8.68H6.394z"/>
      <path d="M0 216.964h10.798v8.678H0zm21.69 34.711h6.398v8.678H21.69zm64.783 0h6.398v8.678h-6.397zM63.98 226.63h6.4v8.68h-6.4zm-16.194 26.036h6.398v8.678h-6.398zm32.391 0h6.398v8.678h-6.398zm-16.197 0h6.4v8.678h-6.4zm-63.98 0h6.398v8.678H0zm107.963 0h6.398v8.678h-6.397zM63.98 130.174h6.4v8.678h-6.4zM26.983 43.396h6.398v8.678h-6.397zm63.997 0h6.398v8.678H80.98zM48.688 104.14h16.196v8.68H48.688z"/>
      <path d="M37.786 112.818H63.98v8.68H37.787z"/>
      <path d="M43.18 121.497h6.397v8.678H43.18zM32.392 104.14H43.19v8.68H32.392z"/>
      <path d="M37.786 96.463H63.98v8.678H37.787z"/>
      <path d="M43.18 86.784h6.397v8.68H43.18zm16.196 8.679H76.67v8.678H69.376z"/>
      <path d="M64.784 86.784h6.398v8.68h-6.398zm6.393 17.366h10.798v8.68H70.177z"/>
      <path d="M69.376 112.818H76.67v8.68H69.376z"/>
      <path d="M64.784 121.497h6.398v8.678h-6.398zm21.689-17.367H97.17v8.68H86.374z"/>
      <path d="M91.767 96.463h16.196v8.678H91.767z"/>
      <path d="M102.67 104.14h10.797v8.68H102.67z"/>
      <path d="M91.767 112.818h16.196v8.68H91.767z"/>
      <path d="M97.176 121.497h6.4v8.678h-6.4zm0-34.713h6.4v8.68h-6.4zM0 104.14h10.798v8.68H0z"/>
      <path d="M6.394 96.463H21.69v8.678H6.394z"/>
      <path d="M16.196 104.14h10.798v8.68H16.196z"/>
      <path d="M6.394 112.818H21.69v8.68H6.394z"/>
      <path d="M10.787 121.497h6.398v8.678h-6.398zm0-34.713h6.398v8.68h-6.398zm-6.393 69.424h21.694v8.678H6.394zm26.998 0h21.694v8.678H32.392zm26.983 0H80.97v8.678H69.374zm26.998 0h21.694v8.678H86.373zM43.18 173.663h26.993v8.68H43.18zm-37.786 0h26.993v8.68H6.394zm76.686 0h26.993v8.68H80.98zm26.983 34.713h6.398v8.678h-6.397zM0 208.276h6.398v8.678H0zm6.394 296.061h6.398v-8.678H6.394zm16.196 0h16.196v-8.678H21.69z"/>
      <path d="M26.983 611.997h6.398v-8.678h-6.397zm26.997 0h6.4v-8.678h-6.4zm21.69-8.67h16.197v-8.678H76.67z"/>
      <path d="M80.98 611.997h6.398v-8.678H80.98zm-64.784-17.362h10.798v-8.678H16.196zm16.196 0H43.19v-8.678H32.392zm37.786 0h10.798v-8.678H70.177zm16.196 0H97.17v-8.678H86.374zm-48.687-8.682h10.797v-8.678H37.786zm26.998 0H76.68v-8.678H64.786zm26.983 0h10.797v-8.678H91.767zm10.803 17.364h6.397v-8.678h-6.398zM6.394 477.293h10.798v-8.678H6.394z"/>
      <path d="M43.18 477.293h10.797v-8.678H43.18zm63.996 0h10.798v-8.678H97.176zM10.787 461.26h10.798v-8.68H10.787zm6.409-8.683h10.798V433.9H16.196zm21.69 8.683h10.797v-8.68H37.786zm-6.394-8.683H43.19V433.9H32.392zm-10.802-8.682h16.196v-8.678H21.69z"/>
      <path d="M26.983 426.226h6.398v-8.678h-6.397zm37.801 26.036H76.68v-8.68H64.786zm6.393-8.683h10.798V433.9H70.177zm21.69 8.683h10.797v-8.68H91.767zm-6.394-8.683H97.17V433.9H86.374zm-10.803-8.682h16.197v-8.678H76.67z"/>
      <path d="M80.98 426.226h6.398v-8.678H80.98zm-27 8.67h6.4v-8.678h-6.4zm-63.98 0h6.398v-8.678H0zm107.963 0h6.398v-8.678h-6.397zm-80.98-43.386h6.398v-8.68h-6.397z"/>
      <path d="M21.69 381.84h16.196v-8.68H21.69zm-6.394-8.682H43.19v-8.68H16.196zM80.98 390.61h6.398v-8.68H80.98z"/>
      <path d="M76.67 381.84h16.197v-8.68H76.67zm-6.393-8.682H97.17v-8.68H70.178zm6.393-43.386h26.994v-8.68H76.67zm-10.786 34.703h37.79v-8.678h-37.79zm-63.997 0h37.79v-8.678h-37.79zm6.409-43.386h16.196v-8.682H16.196zm-6.409 8.682H37.78v-8.68H10.788zm76.686 17.362h26.994v-8.68H86.373zM80.98 321.09h16.196v-8.68H80.98zM0 347.124h26.994v-8.68H0zm48.688-17.362h16.196v-8.68H48.688zm6.392-8.682h6.4v-8.68h-6.4zm-16.194 26.034h37.79v-8.68h-37.79zm21.689 130.169h10.798v-8.678H69.376zm-10.787-8.683h16.196v-8.677H48.688zm-6.408-8.68h10.797v-8.68H43.18zm16.196 0h10.798v-8.68H69.376zM0 468.61h10.798v-8.677H0zm6.394-8.68h10.798v-8.68H6.394zm97.176 8.68h10.797v-8.677H102.67zm-6.396-8.68h10.798v-8.68H97.176zM0 381.84h6.398v-8.68H0zm107.963 0h6.398v-8.68h-6.397zM43.18 303.738h10.797v-8.68H43.18zm16.196 0h10.798v-8.68H69.376zm-21.689-8.682h10.797v-8.68H37.786zm26.998 0H76.68v-8.68H64.786zm-32.392-8.682H43.19v-8.68H32.392zm37.786 0h10.798v-8.68H70.177z"/>
      <path d="M26.983 277.704H37.78v-8.68H26.984zm48.687 0h10.8v-8.68h-10.8zm-69.374-8.682h16.196v-8.68H16.196zm64.784 0h16.196v-8.68H80.98zm10.787 8.682h10.797v-8.68H91.767z"/>
      <path d="M97.176 286.374h10.798v-8.68H97.176zm6.396 8.682h10.797v-8.68H102.67zm-91.783-17.362h10.798v-8.68H10.787z"/>
      <path d="M6.394 286.374h10.798v-8.68H6.394zM0 296.066h10.798v-8.68H0zm21.69-34.713h6.398v-8.678H21.69zm32.39 26.031h6.4v-8.68h-6.4zm0 96.466h6.4v-8.68h-6.4zm-26.997 86.77h6.398v-8.677h-6.397zm63.997 0h6.398v-8.677H80.98zm-32.392-60.737h16.196v-8.678H48.688zm-10.802-8.683H63.98v-8.677H37.787zm6.394-8.68h6.397v-8.68H43.18zm-10.788 17.363H43.19v-8.678H32.392z"/>
      <path d="M37.786 416.643H63.98v-8.678H37.787zm6.394 8.682h6.397v-8.678H43.18zm16.196-8.682H76.67v-8.678H69.376zm6.409 8.682h6.398v-8.678h-6.398z"/>
      <path d="M70.177 407.873h10.798v-8.678H70.177zm-10.802-8.683H76.67v-8.677H69.376zm6.409-8.68h6.398v-8.68h-6.398zm21.689 17.363H97.17v-8.678H86.374z"/>
      <path d="M91.767 416.643h16.196v-8.678H91.767z"/>
      <path d="M102.67 407.873h10.797v-8.678H102.67zm-10.803-8.683h16.196v-8.677H91.767zm6.408-8.68h6.4v-8.68h-6.4zm0 34.716h6.4v-8.678h-6.4zM0 407.873h10.798v-8.678H0z"/>
      <path d="M6.394 416.643H21.69v-8.678H6.394z"/>
      <path d="M16.196 407.873h10.798v-8.678H16.196zM6.394 399.19H21.69v-8.677H6.394zm6.393-8.68h6.398v-8.68h-6.398zm0 34.716h6.398v-8.678h-6.398zm-6.393-69.419h21.694v-8.68H6.394zm26.998 0h21.694v-8.68H32.392zm26.983 0H80.97v-8.68H69.374zm26.998 0h21.694v-8.68H86.373zM43.18 338.442h26.993v-8.68H43.18zm-37.786 0h26.993v-8.68H6.394zm76.686 0h26.993v-8.68H80.98zm26.983-34.704h6.398v-8.68h-6.397zM0 303.738h6.398v-8.68H0zm48.688-43.396h6.398v8.68h-6.398zm10.787 0h6.398v8.68h-6.398zm0-17.366h6.398v8.678h-6.398zm-10.787 0h6.398v8.678h-6.398zM10.787 477.293h10.798v8.68H10.787zm76.686-164.886h6.398v-8.68h-6.397zm-64.783 0h6.398v-8.68H21.69zm26.996-8.674H64.78v8.677H48.686z"/>
    </g>
  </g>
</svg>
