<svg xmlns="http://www.w3.org/2000/svg" height="480" width="640">
  <defs>
    <clipPath id="a">
      <path fill-opacity=".67" d="M0 0h640v480H0z"/>
    </clipPath>
  </defs>
  <g clip-path="url(#a)">
    <path fill-rule="evenodd" fill="#c60000" d="M-40 0h720v480H-40z"/>
    <path fill-rule="evenodd" fill="#003bb2" d="M-40 68.67h720v342.86H-40z"/>
    <path d="M467.137 239.998c0 76.743-61.403 137.143-137.142 137.143-76.743 0-137.142-61.402-137.142-137.142 0-76.743 61.402-137.142 137.142-137.142 76.743 0 137.142 61.403 137.142 137.142z" fill-rule="evenodd" fill="#fff"/>
    <g stroke="#000" fill-rule="evenodd">
      <path d="M0 318.04c6.927 1.02 14.39 1.206 23.312 0 7.406 1.994 12.863 6.647 18.317 8.326 3.066 6.666 7.338 14 11.666 18.316 1.874 6.872 4.64 9.766 8.326 16.662.92 6.796 3.183 13.617 0 19.98-3.796 4.746-9.767 7.616-14.986 9.992-6.902 3.688-10.937 6.046-19.982 6.66-7.444 1.33-16.03 1.666-23.312 1.666-8.012-1.43-14.19-2.767-21.646-3.33-7.414-1.324-16.898-2.007-23.312-3.33-4.813-2.816-11.026-6.127-16.66-6.66-3.908-3.726-9.66-7.964-14.987-11.667-4.19-7.602-8.004-10.206-11.666-16.662-3.318-4.876-4.892-11.17-4.997-19.98 2.626-6.346 6.96-10.63 9.99-14.987 6.198-3.433 11.073-7.99 18.317-11.666 9.784-.346 13.604-3.214 23.312-3.33h24.977c6.66.666 8.44 6.683 13.32 9.99z" transform="matrix(.199 0 0 .1704 346.244 141.67)" stroke-width="3.76" fill="#030"/>
      <path d="M273.08 669.39c-6.66-38.298-16.662-133.21-16.662-174.84 1.666-31.64 121.66-139.87 124.89-161.63 3.33-11.666 64.94-99.91 74.93-126.66-24.976 18.316-66.606 98.243-74.93 106.67-8.326 8.326 18.316-83.267 9.99-111.66-8.326 33.303-21.646 118.22-31.637 126.66-4.994 4.996-91.682 104.9-101.67 101.67-9.99-3.33-36.632-19.98-31.636-29.972 4.996-9.99 71.6-71.6 74.93-93.248s8.327-73.266 14.987-78.26c6.662-4.997 16.663-29.974 24.978-49.966-21.646 9.99-24.977 39.964-33.302 41.63-8.326 1.664-28.308-33.304-28.308-33.304s13.32 38.298 14.986 46.624c1.666 8.326-6.66 63.276-11.666 69.936-4.996 6.66-41.628 63.284-48.29 64.96-6.66 1.666-24.976-76.697-24.976-91.683s13.32-73.266 0-76.697c-8.326 0-9.99 68.27-14.986 68.27s-16.662-68.27-16.662-68.27-6.66 31.638-3.33 63.284c-9.99 1.666-36.633-39.962-36.633-39.962s49.966 86.687 69.947 89.917c9.99 4.994 19.98 68.27 18.316 71.6s-49.964-16.66-69.946-23.312c-9.99-6.66-29.973-79.927-29.973-79.927s9.99 71.602-1.666 61.612c-11.666-9.99-29.972-18.317-39.963-33.303-9.99-14.987-4.996-76.698-4.996-76.698s-16.66 64.96-23.312 64.96c-6.66 0-28.307-73.266-28.307-73.266s3.33 79.927 13.32 84.922c9.99 4.996 169.86 104.9 161.62 114.9 1.666 9.99 19.983 48.288 29.974 69.944-1.666 21.647 6.66 161.62 9.99 194.82l29.973 9.99z" transform="matrix(.199 0 0 .1704 278.923 126.263)" stroke-width="1pt" fill="#620900"/>
      <path d="M-338.02 133.21c1.86 6.416 2.628 12.146 11.666 14.986 6.064 1.926 16.007 4.63 19.982 6.66 6.242 2.484 11.14 6.694 18.316 6.66 6.394 1.8 14.68 3.66 21.647 4.997 7.444 1.33 16.03 1.666 23.313 1.666 9.667-1.707 13.81-3.43 19.98-8.326 1.862-6.786 4.344-9.832 4.997-18.317.667-7.944 1.666-14.82 1.666-23.31-1.64-4.624-1.79-16.36-3.33-19.983-6.677-6.466-7.06-8.66-16.662-11.666-7.476-3.382-14.307-3.33-23.312-3.33-6.96 2.32-16.343 1.666-23.31 1.666h-23.312c-6.973 1.617-12.292 2.763-18.317 6.66-8.132 3.674-9.337 6.318-13.32 14.988-2.934 8.8-3.036 16.416 0 26.642z" transform="matrix(.199 0 0 .1704 343.264 136.897)" stroke-width="3.76" fill="#030"/>
      <path d="M-329.7 191.49c0-2.78-6.02 2.69-8.326 4.996-6.392 3.774-7.647 8.816-8.326 18.317-2.602 6.19 0 13.714 0 21.646 0 9.18.062 16.686 4.996 19.982 6.698 3.446 8.29 4.996 18.316 4.996h46.624c6.896-1.966 13.09-2.963 19.982-4.996 7.706-4.086 13.07-4.617 21.646-6.66 4.883-4.238 11.636-8.6 19.982-9.99 9.647-.466 16.267-3.79 21.647-8.327 8.217-2.064 16.636-6.366 21.648-9.99 4.837-3.29 8.31-7.416 11.666-13.322 3.396-7.924 4.482-12.894-1.666-21.646-12.144-4.416-6.11-9.19-14.988-13.32-4.062-2.464-13.624-6.674-18.316-8.327-8.293.616-14.192 2.68-23.312 3.33-4.71 2.366-14.368 1.666-21.647 1.666h-26.642c-7.968 0-16.36-.666-23.312 1.666-6.667 1.818-9.986 4.842-16.66 6.66-4.394 2.987-11.608 6.41-16.663 8.326l16.662-8.326c-4.393 2.987-11.607 6.41-23.312 13.322z" transform="matrix(.199 0 0 .1704 342.26 137.6)" stroke-width="3.76" fill="#030"/>
      <path d="M-186.6 49.96c3.314 0-6.2 3.98-8.326 6.66-4.01 7.063-4.474 13.422-6.66 19.98-2.666 6.773-6.727 13.067-6.66 19.983-3.14 7.494-4.88 10.226-4.997 19.982 0 7.677-.09 16.38 1.666 21.646 6.06 6.363 9.9 9.977 18.317 14.987 7.206 2.496 12.49 3.984 19.98 4.996h23.313c6.267 1.766 13.97 1.666 21.646 1.666 8.492-3.172 11.708-7.208 19.98-8.326 9.116-.828 10.688-4.642 14.987-11.666 3.998-6.168 6.674-11.013 6.66-18.316 0-8.4-.76-16.628-1.666-23.312-4.006-4.494-7.062-10.696-9.99-18.316-6.146-8.82-6.162-12.74-13.32-16.66-3.977-6.43-10.86-8.07-14.988-11.667-8.66-.618-16.218-1.694-21.646-4.996-7.678 0-16.38-.09-21.647 1.666-6.03 0-10.446.67-16.66 1.666z" transform="matrix(.199 0 0 .1463 343.918 141.036)" stroke-width="3.76" fill="#030"/>
      <path d="M-68.28 64.936c-.987 0-4.077 4.824-6.66 9.99-4.344 6.916-4.926 13.316-8.326 18.317-1.33 7.443-1.666 16.028-1.666 23.312.764 8.314 3.196 11.323 8.324 14.987 7.713 4.38 11.367 6.412 19.982 8.326 7.447.673 12.8 1.666 21.647 1.666 7.968 0 16.36.667 23.312-1.664 8.283 0 16.87-.336 23.312-1.666 3.823-3.24 12.04-6.14 16.66-8.324 6.483-6.642 8.107-13.246 11.667-18.317 0-9.823.078-16.666-4.996-23.313-3.622-6.388-7.962-9.32-13.323-14.986-6.718-2.336-12.38-7.196-19.982-8.326H-68.28z" transform="matrix(.199 0 0 .1704 342.69 136.33)" stroke-width="3.76" fill="#030"/>
      <path d="M76.696 76.69c-6.286 2.62-8.69 3.3-11.666 9.992-4.62 7.116-7.342 10.462-11.666 14.986-.99 6.664-3.643 13.88-6.66 18.317-.916 7.684-1.666 14.913-1.666 23.312 4.222 6.486 10.086 12.603 16.66 16.66 6.792 2.362 13.96 6.933 19.983 8.327 7.767 2.033 14.962 4.398 23.313 4.996 7.217 1.804 16.164 1.664 23.312 1.664 7.404-1.61 13.76-3.478 19.98-8.326 3.334-6.197 7.167-11.046 8.327-19.983 2.764-8.263.64-19.06-3.33-26.642-2.04-7.477-6.016-10.373-13.32-14.987-4.696-4.864-10.703-10.322-14.988-13.32-6.28-4.686-12.142-6.164-19.98-8.327-8.493-1.886-11.338-4.33-19.983-4.994l19.983 4.996c-8.488-1.886-11.333-4.33-28.304-6.66z" transform="matrix(.199 0 0 .1704 340.602 141.864)" stroke-width="3.76" fill="#030"/>
      <path d="M-61.62 146.63c-7.617 3.463-11.16 7.636-16.66 13.32 0 8.847 1.092 14.2 1.666 21.648 3.466 4.734 7.144 14.26 9.99 18.316 2.173 6.812 6.922 12.137 9.992 16.662 7.69 3.112 16.496 6.44 23.312 8.326 9.197 0 16.097 2.06 23.31 3.332 6.963 2.32 16.346 1.666 23.313 1.666 8.147 0 16.094-.14 23.312 1.666 7.703 1.37 13.396 4.36 21.647 4.996 4.74-.46 13.136-1.138 19.982-1.666 7.667-3.486 10.982-6.707 14.987-11.666 3.763-4.642 3.33-11.267 3.33-19.98 1.603-8.973 2.093-16.008-1.664-23.313-.108-8.96-1.817-13.172-3.33-21.647-3.006-6.01-6.647-8.66-11.667-11.666-6.466-3.808-12.864-6.998-18.317-9.99-7.433-.886-16.76-2.06-21.647-3.33-6.61-4.342-11.933-6.646-21.647-6.662-9.616-1.132-13.997-2.263-21.648 1.666-7.99.67-16.16 2.17-19.982 4.996-6.144.47-16.283.98-19.982 3.33-7.414 0-9.987 1.287-16.66 1.664l16.66-1.666c-7.414 0-9.987 1.287-18.316 9.99z" transform="matrix(.262 0 0 .132 337.902 146.96)" stroke-width="3.76" fill="#030"/>
      <path d="M-123.22 278.07c-4.3-.632-17.278-1.666-26.642-1.666-8.747 0-16.86.68-23.312 3.33-7.976 1.637-13.883 4.047-19.982 6.66-6.063 2.394-10.963 4.83-14.986 8.326-4.966 3.37-9.13 6.336-13.32 13.322-4.477 6.422-4.946 10.66-8.327 18.317v23.31c.688 7.634 1.64 14.23 4.996 21.648 6.022 4.017 11.977 6.282 18.317 6.66 6.03 1.31 13.876 2.776 21.647 3.33 9.24 0 14.16.466 21.646 3.33 9.747-.36 11.606-2.627 19.982-6.66 9.314-3.692 14.86-6.06 23.312-9.99 6.173-4.08 8.678-10.986 11.666-18.317 4.69-7.674 7.91-14.886 11.666-21.646 1.804-7.218 1.666-16.164 1.666-23.312-2.22-6.268-6.762-8.906-9.99-14.986-4.617-6.06-6.673-8.946-9.992-13.32l9.99 13.32c-4.616-6.06-6.67-8.946-18.316-11.666z" transform="matrix(.199 0 0 .1704 344.26 138.734)" stroke-width="3.76" fill="#030"/>
      <path d="M0 318.04c6.927 1.02 14.39 1.206 23.312 0 7.406 1.994 12.863 6.647 18.317 8.326 3.066 6.666 7.338 14 11.666 18.316 1.874 6.872 4.64 9.766 8.326 16.662.92 6.796 3.183 13.617 0 19.98-3.796 4.746-9.767 7.616-14.986 9.992-6.902 3.688-10.937 6.046-19.982 6.66-7.444 1.33-16.03 1.666-23.312 1.666-8.012-1.43-14.19-2.767-21.646-3.33-7.414-1.324-16.898-2.007-23.312-3.33-4.813-2.816-11.026-6.127-16.66-6.66-3.908-3.726-9.66-7.964-14.987-11.667-4.19-7.602-8.004-10.206-11.666-16.662-3.318-4.876-4.892-11.17-4.997-19.98 2.626-6.346 6.96-10.63 9.99-14.987 6.198-3.433 11.073-7.99 18.317-11.666 9.784-.346 13.604-3.214 23.312-3.33h24.977c6.66.666 8.44 6.683 13.32 9.99z" transform="matrix(.2664 0 0 .1426 360.637 136.642)" stroke-width="3.76" fill="#030"/>
    </g>
    <g fill-rule="evenodd" stroke="#000" stroke-width="3.711" fill="#006a00">
      <path d="M200.16 613.18l4.71-7.064-12.962-2.366 9.42-9.418-12.962-4.71 12.962-9.42-12.962-7.064 14.13-6.887-7.066-11.773 14.13 2.366-6.887-14.13 16.484 7.066v-18.84l11.774 12.963 9.42-16.484 7.066 16.306 14.13-16.484 4.71 12.962 21.192-10.697-6.887 16.484 22.37-9.42-4.71 18.84 21.196-9.42-8.242 17.662 21.194 1.176-17.662 10.697 17.662 7.064-16.484 9.42 14.13 11.774c-46.136 20.802-79.674 27.474-131.87 9.42z" transform="matrix(.1647 -.0123 .0082 .1618 294.243 194.227)"/>
      <path d="M200.16 613.18l4.71-7.064-12.962-2.366 9.42-9.418-12.962-4.71 12.962-9.42-12.962-7.064 14.13-6.887-7.066-11.773 14.13 2.366-6.887-14.13 16.484 7.066v-18.84l11.774 12.963 9.42-16.484 7.066 16.306 14.13-16.484 4.71 12.962 21.192-10.697-6.887 16.484 22.37-9.42-4.71 18.84 21.196-9.42-8.242 17.662 21.194 1.176-17.662 10.697 17.662 7.064-16.484 9.42 14.13 11.774c-46.136 20.802-79.674 27.474-131.87 9.42z" transform="matrix(.1647 -.0123 .0082 .1618 266.207 193.094)"/>
      <path d="M200.16 613.18l4.71-7.064-12.962-2.366 9.42-9.418-12.962-4.71 12.962-9.42-12.962-7.064 14.13-6.887-7.066-11.773 14.13 2.366-6.887-14.13 16.484 7.066v-18.84l11.774 12.963 9.42-16.484 7.066 16.306 14.13-16.484 4.71 12.962 21.192-10.697-6.887 16.484 22.37-9.42-4.71 18.84 21.196-9.42-8.242 17.662 21.194 1.176-17.662 10.697 17.662 7.064-16.484 9.42 14.13 11.774c-46.136 20.802-79.674 27.474-131.87 9.42z" transform="matrix(.1647 -.0123 .0082 .1618 316.932 193.66)"/>
      <path d="M200.16 613.18l4.71-7.064-12.962-2.366 9.42-9.418-12.962-4.71 12.962-9.42-12.962-7.064 14.13-6.887-7.066-11.773 14.13 2.366-6.887-14.13 16.484 7.066v-18.84l11.774 12.963 9.42-16.484 7.066 16.306 14.13-16.484 4.71 12.962 21.192-10.697-6.887 16.484 22.37-9.42-4.71 18.84 21.196-9.42-8.242 17.662 21.194 1.176-17.662 10.697 17.662 7.064-16.484 9.42 14.13 11.774c-46.136 20.802-79.674 27.474-131.87 9.42z" transform="matrix(.1602 -.0466 .031 .1476 288.976 212.412)"/>
      <path d="M200.16 613.18l4.71-7.064-12.962-2.366 9.42-9.418-12.962-4.71 12.962-9.42-12.962-7.064 14.13-6.887-7.066-11.773 14.13 2.366-6.887-14.13 16.484 7.066v-18.84l11.774 12.963 9.42-16.484 7.066 16.306 14.13-16.484 4.71 12.962 21.192-10.697-6.887 16.484 22.37-9.42-4.71 18.84 21.196-9.42-8.242 17.662 21.194 1.176-17.662 10.697 17.662 7.064-16.484 9.42 14.13 11.774c-46.136 20.802-79.674 27.474-131.87 9.42z" transform="matrix(.1647 -.0123 .0082 .1618 330.39 202.72)"/>
      <path d="M200.16 613.18l4.71-7.064-12.962-2.366 9.42-9.418-12.962-4.71 12.962-9.42-12.962-7.064 14.13-6.887-7.066-11.773 14.13 2.366-6.887-14.13 16.484 7.066v-18.84l11.774 12.963 9.42-16.484 7.066 16.306 14.13-16.484 4.71 12.962 21.192-10.697-6.887 16.484 22.37-9.42-4.71 18.84 21.196-9.42-8.242 17.662 21.194 1.176-17.662 10.697 17.662 7.064-16.484 9.42 14.13 11.774c-46.136 20.802-79.674 27.474-131.87 9.42z" transform="matrix(.1647 -.0123 .0082 .1618 314.006 204.422)"/>
      <path d="M200.16 613.18l4.71-7.064-12.962-2.366 9.42-9.418-12.962-4.71 12.962-9.42-12.962-7.064 14.13-6.887-7.066-11.773 14.13 2.366-6.887-14.13 16.484 7.066v-18.84l11.774 12.963 9.42-16.484 7.066 16.306 14.13-16.484 4.71 12.962 21.192-10.697-6.887 16.484 22.37-9.42-4.71 18.84 21.196-9.42-8.242 17.662 21.194 1.176-17.662 10.697 17.662 7.064-16.484 9.42 14.13 11.774c-46.136 20.802-79.674 27.474-131.87 9.42z" transform="matrix(.1647 -.0123 .0082 .1618 238.82 193.094)"/>
      <path d="M200.16 613.18l4.71-7.064-12.962-2.366 9.42-9.418-12.962-4.71 12.962-9.42-12.962-7.064 14.13-6.887-7.066-11.773 14.13 2.366-6.887-14.13 16.484 7.066v-18.84l11.774 12.963 9.42-16.484 7.066 16.306 14.13-16.484 4.71 12.962 21.192-10.697-6.887 16.484 22.37-9.42-4.71 18.84 21.196-9.42-8.242 17.662 21.194 1.176-17.662 10.697 17.662 7.064-16.484 9.42 14.13 11.774c-46.136 20.802-79.674 27.474-131.87 9.42z" transform="matrix(.1602 -.0466 .031 .1476 211.86 211.848)"/>
      <path d="M200.16 613.18l4.71-7.064-12.962-2.366 9.42-9.418-12.962-4.71 12.962-9.42-12.962-7.064 14.13-6.887-7.066-11.773 14.13 2.366-6.887-14.13 16.484 7.066v-18.84l11.774 12.963 9.42-16.484 7.066 16.306 14.13-16.484 4.71 12.962 21.192-10.697-6.887 16.484 22.37-9.42-4.71 18.84 21.196-9.42-8.242 17.662 21.194 1.176-17.662 10.697 17.662 7.064-16.484 9.42 14.13 11.774c-46.136 20.802-79.674 27.474-131.87 9.42z" transform="matrix(.1647 -.0123 .0082 .1618 263.28 202.166)"/>
      <path d="M200.16 613.18l4.71-7.064-12.962-2.366 9.42-9.418-12.962-4.71 12.962-9.42-12.962-7.064 14.13-6.887-7.066-11.773 14.13 2.366-6.887-14.13 16.484 7.066v-18.84l11.774 12.963 9.42-16.484 7.066 16.306 14.13-16.484 4.71 12.962 21.192-10.697-6.887 16.484 22.37-9.42-4.71 18.84 21.196-9.42-8.242 17.662 21.194 1.176-17.662 10.697 17.662 7.064-16.484 9.42 14.13 11.774c-46.136 20.802-79.674 27.474-131.87 9.42z" transform="matrix(.1647 -.0123 .0082 .1618 236.893 203.863)"/>
      <path d="M200.16 613.18l4.71-7.064-12.962-2.366 9.42-9.418-12.962-4.71 12.962-9.42-12.962-7.064 14.13-6.887-7.066-11.773 14.13 2.366-6.887-14.13 16.484 7.066v-18.84l11.774 12.963 9.42-16.484 7.066 16.306 14.13-16.484 4.71 12.962 21.192-10.697-6.887 16.484 22.37-9.42-4.71 18.84 21.196-9.42-8.242 17.662 21.194 1.176-17.662 10.697 17.662 7.064-16.484 9.42 14.13 11.774c-46.136 20.802-79.674 27.474-131.87 9.42z" transform="matrix(-.3346 -.014 .019 -.1617 399.813 380.192)"/>
    </g>
    <path d="M366.34 196.48c0 22.612-18.996 6.66-38.298 6.66-19.302 0-36.632 17.617-39.962 0 0-9.19 26.666-23.312 44.967-23.312 14.308 1.666 36.634-4.196 33.303 16.662z" fill-rule="evenodd" transform="matrix(.273 0 0 .3008 278.668 210.98)" stroke="#000" stroke-width="2.6" fill="#610800"/>
    <path d="M366.34 196.48c0 22.612-18.996 6.66-38.298 6.66-19.302 0-36.632 17.617-39.962 0 0-9.19 26.666-23.312 44.967-23.312 14.308 1.666 36.634-4.196 33.303 16.662z" fill-rule="evenodd" transform="matrix(-.273 0 0 .3008 369.707 209.612)" stroke="#000" stroke-width="2.6" fill="#ffc600"/>
    <path d="M349.68 188.16c0 13.794-7.082 24.977-16.82 24.977-8.736 0-16.818-11.183-16.818-24.977s7.082-24.977 16.82-24.977c8.736 0 16.818 11.183 16.818 24.977z" fill-rule="evenodd" transform="matrix(.3368 0 0 .3286 277.827 206.293)" stroke="#000" stroke-width="2.6" fill="#620900"/>
    <g fill-rule="evenodd" stroke="#000" stroke-width="1pt" transform="matrix(-.6243 -.1173 -.3707 .6237 623.736 93.668)">
      <path d="M273.76 383.68c-2.737 4.66 42.976 12.962 67.694 22.37 14.72 9.42 14.718 10.01 21.194 14.72l1.766-2.946C360.87 414.193 316.91 391.37 292 383.68c-6.806-2.273-10.3-13.248-12.96-8.83l-6.3 8.83z" transform="matrix(-.7233 -.646 .62 -.768 322.39 677.92)" fill="#af8000"/>
      <path d="M319.08 369.46l-26.316-6.887s-6.887 2.364-6.476 11.186c-.69 8.83 4.71 14.13 4.71 14.13l27.08-9.42V369.46z" transform="matrix(.8444 -.2976 .2838 .886 -89.238 -64.18)" fill="gray"/>
      <rect ry="3.632" rx="3.632" transform="matrix(.8444 -.2976 .2838 .886 -19.207 -266.61)" height="19.428" width="7.064" y="634.62" x="176.71" fill="gray"/>
    </g>
    <path d="M244.77 87.42c7.322-6.948 11.167-3.72 17.66 3.1 9.322 9.816 41.317 68.866 46.312 63.019s4.24-6.418 10.344-1.388c3.032 3.727-10.437 17.026-13.737 14.67-6.412-6.022 3.914-6.376-.366-9.646-4.926-6.133-61.216-40.497-60.282-60.67-6.92-6.678-6.314-13.97.067-19.088z" fill-rule="evenodd" transform="matrix(.7148 .1604 .3327 .629 132.426 68.166)" stroke="#000" stroke-width="1.26" fill="#923d09"/>
    <g stroke="#000">
      <path d="M193.63 88.26c16.646 4.423 43.276 46.12 63.766 46.79 16.662-.48 83.233-77.66 72.664-88.262-7.4-8.246-67.94 41.192-71.862 44.126-.67-8.6-16.96-61.042-28.31-69.946-14.62-9.31-32.21-4.168-47.82-6.662-7.3-2.843-18.84-14.066-23.78-24.976 8.182-3.644 16.323-2.48 23.31-10.66 6.68-6.643 2.382-46.914.37-61.06-13.29-14.268 6.43-7.327-39.023-9.082-64.268-2.446-76.878 49.682-31.663 70.792-3.462 16.928-14.22 19.694-22.94 21.646-8.776.106-38.826-.763-66.646 12.49-33.403 24.66-8.926 30.903-16.362 36.8C.192 73.91-10.603 88.093-14.623 96.673c-10.472 4.996-99.486-4.996-116.6-1.664-16.42.966-66.467 16.818-73.16 26.64 3.666 14.143 241.61-7.602 249.27-2.496 6.946 3.346-2.706 61.237 2.01 64.96 1.66 9.062 116.64 6.828 126.6 6.828 7.668-18.86 16.39-81.668 20.926-91.683z" fill-rule="evenodd" transform="matrix(-.1286 0 0 .2044 282.003 186.268)" stroke-width="4.702" fill="#ffc600"/>
      <path d="M174.9-96.668c1.643 26.467-7.118 3.304-38.37 3.304C76.97-98.3 97.246 6.932 97.246-26.24 71.018-39.96 62.41-126.63 126.86-123.17c23.64 0 44.96 7.868 48.046 26.603z" fill-rule="evenodd" transform="matrix(-.1642 0 0 .1434 286.62 187.117)" stroke-width="6.126"/>
      <path d="M387.98 96.674c0 1.68-.172 7.967-.833 11.666-.446 3.74-1.64 8.077-2.498 10.823-.343 4.462-2.092 6.174-2.498 9.99-1.644 2.27-2.21 6.946-2.498 9.992 0 4.27.686 7.668.833 11.666.48 3.66 1.612 6.367 1.666 10.824 0 4.366-.006 7.66-1.666 9.99v6.83" transform="matrix(-.202 0 0 .2044 363.21 179.876)" stroke-width="3.76" fill="none"/>
      <path d="M383.81 76.692c.68 0 1.03 20.13 6.828 24.978 1.04 3.212 4.674 7.343 6.828 9.99 1.672 2.46 3.98 6.368 8.326 6.66h11.666c4.634 0 7.473.066 10.823-1.664 1.486-.8 2.632-1.846 3.33-3.33m12.489 2.494h.832c-2.327 0-1.092-.104 3.33 1.666 1.726 2.637 3.77 3.626 6.66 4.996 2.983 1.468 6.392 1.666 10.824 1.666 4.198-.364 6.74-1.686 9.16-3.33 4.042-1.31 4.814-2.936 6.827-7.494v-11.666c-.478-3.63-1.384-6.372-2.498-9.168-.42-1.268-.833-.706-.833-2.497m34.968 31.638c-.426 0-2.66 2.676-4.163 4.996-2.668.918-3.233 3.716-4.162 6.828-.67 2.676-1.666 2.86-1.666 6.66-1.678 3.71-2.206 7.008-2.498 10.824l2.497-10.823c-1.678 3.708-2.206 7.007-2.498 10.823m-36.63-94.911h-.833c2.26 0 1.1-.063-3.33.833-1.817 2.27-4.807 4.304-7.493 6.826-2.977 1.826-6.367 4.01-8.326 4.996l8.326-4.996c-2.977 1.826-6.367 4.01-8.326 4.996M402.13 61.616h.833c-2.248 0-1.106-.064 3.33.833 2.936 1.39 4.762 2.89 7.493 4.996 1.29 1.936 3.267 2.306 4.163 6.828 1.673.848 2.123 1.67 2.497 4.164m6.664-37.467h4.163c4.63 0 6.733.68 10.824.833 3.638-.424 4.382-1.737 7.493-2.497m-6.66 104.906c.14.66 1.662 4.266 2.498 6.828 1.617 2.612 3.638 4.914 4.163 8.326.97 2.906 1.627 6.23 1.666 9.99.76 3.603 1.264 6.62-.833 9.16-.898 3.29-2.67 6.69-4.162 9.167-1.11 0-.832-.277-.832.834m-29.16-41.636v.833c0-2.248.066-1.106-.832 3.33-1.147 4.013-2.16 7.388-4.163 9.99-1.098 3.296-2.326 4.606-2.498 9.16.662 1.643.833 3.262.833 6.827m2.6 6v4.163c.908 1.21.66 1.294 1.666 1.666M343.02 128.21v.832c0-2.327-.268-.936 4.163.833 3.672.638 7.937 1.037 10.823 1.666 2.672 1.312 6.266 3.48 7.493 4.996 1.993 1.728 4.818 3.48 7.493 4.996 3.004 1.603 4.326 2.824 6.828 6.83.908 1.21.66 1.292 1.666 1.664" transform="matrix(-.202 0 0 .2044 363.21 179.876)" stroke-width="3.76" fill="none"/>
      <path d="M423.78-16.666c.123-.184 2.467-1.914 4.996-2.498 1.806-1.364 4.812-.74 6.66 0" transform="matrix(-.3166 0 0 .2044 403.227 180.698)" stroke-width="3" fill="none"/>
      <path d="M446.42-19.163h.833c-2.248 0-1.106.064 3.33-.833 3.48-1.16 7.672-.832 11.666-.832 1.173.39.83.242.83 1.666M444.69-7.497v.833c0-2.327-.103-1.09 1.666 3.33.643 2.962 1.76 7.06.832 9.168-2.184 0-2.86-.274-4.163-.833" transform="matrix(-.2464 0 0 .2044 373.614 180.698)" stroke-width="3.402" fill="none"/>
      <path d="M371.33-24.98c0 3.218-4.1 6.827-9.168 6.827s-9.168-2.61-9.168-6.828 4.1-6.83 9.168-6.83 9.168 2.61 9.168 6.83z" fill-rule="evenodd" transform="matrix(-.2418 -.036 -.024 .116 360.644 199.07)" stroke-width="4.601"/>
      <path d="M371.33-24.98c0 3.218-4.1 6.827-9.168 6.827s-9.168-2.61-9.168-6.828 4.1-6.83 9.168-6.83 9.168 2.61 9.168 6.83z" fill-rule="evenodd" transform="matrix(-.176 -.023 -.0174 .0766 330.604 187.61)" stroke-width="6.628"/>
      <path d="M371.33-24.98c0 3.218-4.1 6.827-9.168 6.827s-9.168-2.61-9.168-6.828 4.1-6.83 9.168-6.83 9.168 2.61 9.168 6.83z" fill-rule="evenodd" transform="matrix(-.176 -.023 -.0174 .0766 326.192 186.998)" stroke-width="6.628"/>
      <path d="M412.96 113.64c0 2.07-1.864 3.747-4.163 3.747-2.3 0-4.163-1.678-4.163-3.747s1.864-3.747 4.163-3.747c2.3 0 4.163 1.678 4.163 3.747zm66.62 6.26c0 1.38-1.306 2.498-2.914 2.498-1.61 0-2.914-1.12-2.914-2.498s1.306-2.498 2.914-2.498c1.61 0 2.914 1.12 2.914 2.498z" fill-rule="evenodd" transform="matrix(-.202 0 0 .2044 363.21 179.876)" stroke-width="3.76"/>
      <path d="M447.09 31.634v.833c0-2.796.197-1.03-4.163 3.33-3.724 1.786-6.164 3.667-6.66 6.66-1.742 3.86-2.342 6.613-2.498 10.824v6.662M419.61 30.8c.677 0 1.477 2.274 2.498 4.996 1.866 2.19 3.037 6.36 3.33 9.16 0 4.617.78 6.462.833 10.823v3.33m78.269 69.931c0 .48-2.6 1.466-4.163 3.33-3.16.428-6.964.833-9.99.833-.61-.916-1.836-1.217-3.33-1.666" transform="matrix(-.202 0 0 .2044 363.21 179.876)" stroke-width="3.76" fill="none"/>
    </g>
    <g fill-rule="evenodd" stroke="#000" stroke-width="3.76" fill="#fff">
      <path d="M276.41 36.63l88.263 1.666V49.96s8.326 14.987 13.32 48.29c4.996 33.303 9.992 168.19 9.992 168.19l21.646 141.64s-13.32 21.647-23.31 19.982c-9.99-1.666-39.964-13.32-39.964-14.987 0-1.666-1.666-79.926-4.996-133.21-3.33-63.286-9.99-81.692-24.976-104.9-19.982 48.288-21.647 98.243-19.982 98.243s1.666 39.963 3.33 69.936c1.666 29.972-1.666 71.6-1.666 71.6l-68.28-3.33s1.666-36.633 3.33-64.94c1.666-28.307 6.746-41.626 8.327-73.266 1.748-34.963 4.202-63.32 6.66-109.9 3.238-46.74 14.687-76.268 17.9-103.24.87-7.133-.416-12.488.416-13.32z" transform="matrix(-.209 0 0 .1326 334.436 211.382)"/>
      <path d="M316.38 166.61s-8.326-13.32-11.666-36.633-3.33-28.307-3.33-28.307m-3.334 131.66l-9.99 39.963" transform="matrix(-.209 0 0 .1326 334.436 211.382)"/>
      <path d="M276.41 223.12l11.667 64.96" transform="matrix(-.209 0 0 .1326 321.91 211.602)"/>
      <path d="M387.98 417.96l-11.66-81.6M276.41 44.966l88.263 1.666M318.04 164.84c0-1.666 4.996-29.972 4.996-29.972M284.74 44.966l-8.326 84.922" transform="matrix(-.209 0 0 .1326 334.436 211.382)"/>
    </g>
    <path d="M649.21 638.68c0 136.98-111.06 248.03-248.03 248.03S63.16 676.66 63.16 638.68 164.2 290.66 301.18 290.66 649.21 401.6 649.21 638.68z" stroke="#006a00" stroke-width="6.26" fill="none" transform="matrix(.4628 0 0 .4634 181.162 -9.63)"/>
    <g stroke-width="1pt">
      <path d="M446.172 216.426c14.442 12.316-2.86 24.63-10.832 24.63-7.972 0-26.276-12.316-10.832-24.63-3.61 12.316 10.832 16.394 10.832 21.662 0-6.168 14.443-9.236 10.832-21.662z" fill-rule="evenodd" fill="#006a00"/>
      <path d="M336.61 432.28c36.433 124.02-63.16 106.3-63.16 141.73 0-36.433-88.682-17.717-63.16-141.73" stroke="#000" fill="none" transform="matrix(.2038 0 0 .1738 377.67 140.306)"/>
    </g>
    <g stroke-width="1pt">
      <path d="M310.32 112.046c13.822-13.01 24.133 6.67 23.26 13.602-.88 7.933-16.017 23.79-26.644 8.066 11.826 4.966 16.478-9.077 22.69-8.396-6.112-.68-7.67-16.394-20.196-13.162z" fill-rule="evenodd" fill="#006a00"/>
      <path d="M336.61 432.28c36.433 124.02-63.16 106.3-63.16 141.73 0-36.433-88.682-17.717-63.16-141.73" stroke="#000" fill="none" transform="matrix(.0226 -.2028 .1726 .0192 228.17 172.006)"/>
    </g>
    <g stroke-width="1pt">
      <path d="M347.046 361.822c-10.01 16.134-24.76.84-26.938-7.064-1.188-7.893 8.396-26.86 22.71-14.396-12.7-1.74-13.69 13.018-19.67 13.936 6.08-.92 11.274 12.922 22.898 7.612z" fill-rule="evenodd" fill="#006a00"/>
      <path d="M336.61 432.28c36.433 124.02-63.16 106.3-63.16 141.73 0-36.433-88.682-17.717-63.16-141.73" stroke="#000" fill="none" transform="matrix(.0304 .2018 -.1716 .026 411.01 282.706)"/>
    </g>
    <g stroke-width="1pt">
      <path d="M194.106 247.072c-13.647-13.193 4.388-24.403 12.346-23.906 7.967.498 24.46 13.87 9.277 26.268 4.37-12.066-9.862-16.04-9.47-22.187-.382 6.146-14.988 8.317-12.162 20.834z" fill-rule="evenodd" fill="#006a00"/>
      <path d="M336.61 432.28c36.433 124.02-63.16 106.3-63.16 141.73 0-36.433-88.682-17.717-63.16-141.73" stroke="#000" fill="none" transform="matrix(-.2034 -.0127 .0108 -.1734 267.893 326.33)"/>
    </g>
    <g stroke-width="1pt">
      <path d="M436.467 184.24c16.876 8.673 2.863 24.63-4.908 26.468-7.76 1.83-27.42-6.188-16.18-21.49-.697 12.817 14.066 12.6 16.476 18.496-1.41-6.994 11.946-12.304 6.612-23.464z" fill-rule="evenodd" fill="#006a00"/>
      <path d="M336.61 432.28c36.433 124.02-63.16 106.3-63.16 141.73 0-36.433-88.682-17.717-63.16-141.73" stroke="#000" fill="none" transform="matrix(.1984 -.0468 .0398 .1692 361.6 126.866)"/>
    </g>
    <g stroke-width="1pt">
      <path d="M276.64 120.38c8.96-16.74 24.646-2.42 26.336 6.382 1.69 7.8-6.666 27.342-21.746 16.818 12.786.924 12.73-13.86 18.74-16.166-6.01 1.306-12.074-12.176-23.33-6.033z" fill-rule="evenodd" fill="#006a00"/>
      <path d="M336.61 432.28c36.433 124.02-63.16 106.3-63.16 141.73 0-36.433-88.682-17.717-63.16-141.73" stroke="#000" fill="none" transform="matrix(-.0432 -.1994 .1696 -.0368 216.863 203.426)"/>
    </g>
    <g stroke-width="1pt">
      <path d="M383.86 347.66c-3.944 18.68-22.996 9.206-26.79 2.184-3.793-7.02-1.21-28.118 16.48-21.26-12.636 2.682-8.367 16.866-13.776 19.796 6.41-2.93 14.986 8.322 24.086-.72z" fill-rule="evenodd" fill="#006a00"/>
      <path d="M336.61 432.28c36.433 124.02-63.16 106.3-63.16 141.73 0-36.433-88.682-17.717-63.16-141.73" stroke="#000" fill="none" transform="matrix(.097 .1796 -.1626 .0827 417.198 261.402)"/>
    </g>
    <g stroke-width="1pt">
      <path d="M201.03 279.362c-17.136-8.162-3.607-24.632 4.093-26.698 7.7-2.067 27.697 6.343 16.83 20.982.304-12.83-14.442-12.06-16.034-18.01 1.69 6.948-11.663 12.666-4.89 23.626z" fill-rule="evenodd" fill="#006a00"/>
      <path d="M336.61 432.28c36.433 124.02-63.16 106.3-63.16 141.73 0-36.433-88.682-17.717-63.16-141.73" stroke="#000" fill="none" transform="matrix(-.1968 .0628 -.046 -.168 286.713 334.13)"/>
    </g>
    <g stroke-width="1pt">
      <path d="M418.277 160.327c18.784 2.664 10.76 22.333 4.03 26.608-6.733 4.276-27.932 3.166-22.323-14.99 3.64 12.337 17.38 7.19 20.676 12.39-3.294-6.198 7.266-16.644-2.383-24.008z" fill-rule="evenodd" fill="#006a00"/>
      <path d="M336.61 432.28c36.433 124.02-63.16 106.3-63.16 141.73 0-36.433-88.682-17.717-63.16-141.73" stroke="#000" fill="none" transform="matrix(.172 -.1093 .093 .1467 320.162 133.683)"/>
    </g>
    <g stroke-width="1pt">
      <path d="M246.943 137.4c4.71-18.4 23.367-8.24 26.866-1.068 3.6 7.172.044 28.146-17.347 20.667 12.636-2.16 9.06-16.603 14.686-19.207-6.626 2.703-14.628-8.938-24.096-.283z" fill-rule="evenodd" fill="#006a00"/>
      <path d="M336.61 432.28c36.433 124.02-63.16 106.3-63.16 141.73 0-36.433-88.682-17.717-63.16-141.73" stroke="#000" fill="none" transform="matrix(-.0896 -.1833 .166 -.0763 208.648 232.092)"/>
    </g>
    <g stroke-width="1pt">
      <path d="M410.196 327.94c1.617 18.934-19.414 16.396-26.062 9.76-6.638-6.642-9.178-26.6 9.732-26.086-11.26 6.164-3.21 18.666-7.668 22.91 4.347-4.366 16.736 3.692 22.878-7.674z" fill-rule="evenodd" fill="#006a00"/>
      <path d="M336.61 432.28c36.433 124.02-63.16 106.3-63.16 141.73 0-36.433-88.682-17.717-63.16-141.73" stroke="#000" fill="none" transform="matrix(.144 .1443 -.1227 .123 414.726 226.263)"/>
    </g>
    <g stroke-width="1pt">
      <path d="M213.82 306.27c-18.682-3.82-9.36-22.96-2.364-26.806 6.986-3.847 28.074-1.406 21.346 16.364-2.764-12.633-16.9-8.262-19.864-13.667 2.963 6.396-8.21 16.062.882 24.11z" fill-rule="evenodd" fill="#006a00"/>
      <path d="M336.61 432.28c36.433 124.02-63.16 106.3-63.16 141.73 0-36.433-88.682-17.717-63.16-141.73" stroke="#000" fill="none" transform="matrix(-.1786 .0983 -.0836 -.1623 310.086 338.99)"/>
    </g>
    <g stroke-width="1pt">
      <path d="M393.347 138.187c18.82-2.372 16.233 18.724 10.867 24.618-6.377 6.894-26.128 10.38-26.468-8.603 6.646 10.976 18.667 2.374 23.198 6.627-4.64-4.163 2.93-16.907-8.687-22.643z" fill-rule="evenodd" fill="#006a00"/>
      <path d="M336.61 432.28c36.433 124.02-63.16 106.3-63.16 141.73 0-36.433-88.682-17.717-63.16-141.73" stroke="#000" fill="none" transform="matrix(.1376 -.1607 .128 .1172 291.684 138.238)"/>
    </g>
    <g stroke-width="1pt">
      <path d="M221.634 169.638c-.273-18.992 20.38-14.084 26.637-8.082 6.267 6.002 7.416 27.147-11.364 24.392 11.628-6.4 4.42-18.303 9.044-22.363-4.624 4.06-16.467-4.786-23.326 6.063z" fill-rule="evenodd" fill="#006a00"/>
      <path d="M336.61 432.28c36.433 124.02-63.16 106.3-63.16 141.73 0-36.433-88.682-17.717-63.16-141.73" stroke="#000" fill="none" transform="matrix(-.1344 -.1634 .1306 -.1146 210.446 260.81)"/>
    </g>
    <g stroke-width="1pt">
      <path d="M428.034 301.192c6.936 18.04-16.24 19.646-22.048 16.393-6.808-4.163-16.186-23.684 3.648-26.677-9.483 8.637 1.26 18.79-1.96 24.048 3.2-6.26 17.134-.366 20.46-12.764z" fill-rule="evenodd" fill="#006a00"/>
      <path d="M336.61 432.28c36.433 124.02-63.16 106.3-63.16 141.73 0-36.433-88.682-17.717-63.16-141.73" stroke="#000" fill="none" transform="matrix(.174 .1062 -.0903 .1484 408.483 201.303)"/>
    </g>
    <g stroke-width="1pt">
      <path d="M234.76 330.176c-18.932 1.19-16.036-19.702-9.3-26.26 6.732-6.646 26.722-8.726 24.88 10.18-6.96-11.37-18.472-3.637-22.746-7.966 4.273 4.43-3.977 16.69 7.166 23.036z" fill-rule="evenodd" fill="#006a00"/>
      <path d="M336.61 432.28c36.433 124.02-63.16 106.3-63.16 141.73 0-36.433-88.682-17.717-63.16-141.73" stroke="#000" fill="none" transform="matrix(-.1466 .1418 -.1206 -.126 336.217 336.476)"/>
    </g>
    <g stroke-width="1pt">
      <path d="M367.436 121.306c18-6.994 19.664 16.202 16.436 22.03-4.127 6.83-23.61 16.274-26.662-3.474 8.663 9.47 18.762-1.306 24.024 1.882-6.26-3.188-.413-17.163-12.806-20.437z" fill-rule="evenodd" fill="#006a00"/>
      <path d="M336.61 432.28c36.433 124.02-63.16 106.3-63.16 141.73 0-36.433-88.682-17.717-63.16-141.73" stroke="#000" fill="none" transform="matrix(.1066 -.1746 .1486 .09 267.728 141.167)"/>
    </g>
    <g stroke-width="1pt">
      <path d="M204.46 190.387c-6.63-17.796 14.47-20.122 21.436-16.238 6.964 3.884 16.094 23.074-2.61 26.793 9.14-8.998-1.98-18.726 1.014-24.106-2.994 6.38-17.107 1.03-19.94 13.66z" fill-rule="evenodd" fill="#006a00"/>
      <path d="M336.61 432.28c36.433 124.02-63.16 106.3-63.16 141.73 0-36.433-88.682-17.717-63.16-141.73" stroke="#000" fill="none" transform="matrix(-.178 -.0993 .0846 -.1618 227.874 289.44)"/>
    </g>
    <g stroke-width="1pt">
      <path d="M440.666 278.107c7.962 17.244-12.913 21.167-20.16 17.81-7.237-3.36-17.786-21.796.484-26.908-8.436 9.662 3.386 18.622.806 24.112 2.68-6.69 16.98-2.32 18.86-16.016z" fill-rule="evenodd" fill="#006a00"/>
      <path d="M336.61 432.28c36.433 124.02-63.16 106.3-63.16 141.73 0-36.433-88.682-17.717-63.16-141.73" stroke="#000" fill="none" transform="matrix(.186 .0866 -.0728 .1678 409.76 181.103)"/>
    </g>
    <g stroke-width="1pt">
      <path d="M270.06 363.976c-17.433 7.492-20.774-13.498-17.236-20.66 3.64-7.163 22.24-17.21 26.86 1.213-9.418-8.707-18.684 2.886-24.096.162 6.61 2.733 1.864 17.067 14.48 19.284z" fill-rule="evenodd" fill="#006a00"/>
      <path d="M336.61 432.28c36.433 124.02-63.16 106.3-63.16 141.73 0-36.433-88.682-17.717-63.16-141.73" stroke="#000" fill="none" transform="matrix(-.0906 .183 -.1666 -.077 367.74 326.77)"/>
    </g>
    <g stroke-width="1pt">
      <path d="M447.844 249.643c11.412 16.173-8.167 23.412-16.937 21.67-7.78-1.74-21.983-17.64-6.204-26.402-6.207 11.23 7.216 17.39 6.876 23.4 1.34-6.01 16.107-6.86 16.266-18.667z" fill-rule="evenodd" fill="#006a00"/>
      <path d="M336.61 432.28c36.433 124.02-63.16 106.3-63.16 141.73 0-36.433-88.682-17.717-63.16-141.73" stroke="#000" fill="none" transform="matrix(.199 .0446 -.038 .1696 397.264 161.246)"/>
    </g>
    <g stroke-width="1pt">
      <path d="M339.332 114.36c16.322-9.678 22.337 10.706 19.748 18.266-2.688 7.66-19.84 19.936-26.783 2.26 10.46 7.418 18.06-6.26 23.876-3.26-6.816-2-4.036-16.676-16.84-17.266z" fill-rule="evenodd" fill="#006a00"/>
      <path d="M336.61 432.28c36.433 124.02-63.16 106.3-63.16 141.73 0-36.433-88.682-17.717-63.16-141.73" stroke="#000" fill="none" transform="matrix(.0662 -.193 .1642 .0664 246.096 164.92)"/>
    </g>
    <g stroke-width="1pt">
      <path d="M306.89 364.498c-16.647 10.883-23.08-8.99-21.066-16.712 2.013-7.724 18.282-21.378 26.636-4.276-10.99-6.608-17.61 6.607-23.662 6.063 6.96 1.664 6.28 16.324 18.093 16.936z" fill-rule="evenodd" fill="#006a00"/>
      <path d="M336.61 432.28c36.433 124.02-63.16 106.3-63.16 141.73 0-36.433-88.682-17.717-63.16-141.73" stroke="#000" fill="none" transform="matrix(-.0616 .1974 -.168 -.044 396.806 317.003)"/>
    </g>
    <g stroke-width="1pt">
      <path d="M196.066 216.916c-10.444-16.866 9.6-22.867 17.266-20.633 7.668 2.224 20.86 18.878 3.66 26.676 6.896-10.82-6.118-17.806-4.406-23.72-1.713 6.914-16.44 4.842-16.4 17.677z" fill-rule="evenodd" fill="#006a00"/>
      <path d="M336.61 432.28c36.433 124.02-63.16 106.3-63.16 141.73 0-36.433-88.682-17.717-63.16-141.73" stroke="#000" fill="none" transform="matrix(-.1967 -.067 .0484 -.167 241.046 308.198)"/>
    </g>
    <g stroke="#000">
      <path d="M193.63 88.26c16.646 4.423 43.276 46.12 63.766 46.79 16.662-.48 83.233-77.66 72.664-88.262-7.4-8.246-67.94 41.192-71.862 44.126-.67-8.6-16.96-61.042-28.31-69.946-14.62-9.31-32.21-4.168-47.82-6.662-7.3-2.843-18.84-14.066-23.78-24.976 8.182-3.644 16.323-2.48 23.31-10.66 6.68-6.643 2.382-46.914.37-61.06-13.29-14.268 6.43-7.327-39.023-9.082-64.268-2.446-76.878 49.682-31.663 70.792-3.462 16.928-14.22 19.694-22.94 21.646-8.776.106-38.826-.763-66.646 12.49-33.403 24.66-8.926 30.903-16.362 36.8C.192 73.91-10.603 88.093-14.623 96.673c-10.472 4.996-99.486-4.996-116.6-1.664-16.42.966-66.467 16.818-73.16 26.64 3.666 14.143 241.61-7.602 249.27-2.496 6.946 3.346-2.706 61.237 2.01 64.96 1.66 9.062 116.64 6.828 126.6 6.828 7.668-18.86 16.39-81.668 20.926-91.683z" fill-rule="evenodd" transform="matrix(.1286 0 0 .2044 363.693 187.474)" stroke-width="4.702" fill="#620900"/>
      <path d="M174.9-96.668c1.643 26.467-7.118 3.304-38.37 3.304C76.97-98.3 97.246 6.932 97.246-26.24 71.018-39.96 62.41-126.63 126.86-123.17c23.64 0 44.96 7.868 48.046 26.603z" fill-rule="evenodd" transform="matrix(.1642 0 0 .1434 369.98 188.333)" stroke-width="6.126"/>
      <path d="M387.98 96.674c0 1.68-.172 7.967-.833 11.666-.446 3.74-1.64 8.077-2.498 10.823-.343 4.462-2.092 6.174-2.498 9.99-1.644 2.27-2.21 6.946-2.498 9.992 0 4.27.686 7.668.833 11.666.48 3.66 1.612 6.367 1.666 10.824 0 4.366-.006 7.66-1.666 9.99v6.83" transform="matrix(.202 0 0 .2044 292.388 181.09)" stroke-width="3.76" fill="none"/>
      <path d="M383.81 76.692c.68 0 1.03 20.13 6.828 24.978 1.04 3.212 4.674 7.343 6.828 9.99 1.672 2.46 3.98 6.368 8.326 6.66h11.666c4.634 0 7.473.066 10.823-1.664 1.486-.8 2.632-1.846 3.33-3.33m12.489 2.494h.832c-2.327 0-1.092-.104 3.33 1.666 1.726 2.637 3.77 3.626 6.66 4.996 2.983 1.468 6.392 1.666 10.824 1.666 4.198-.364 6.74-1.686 9.16-3.33 4.042-1.31 4.814-2.936 6.827-7.494v-11.666c-.478-3.63-1.384-6.372-2.498-9.168-.42-1.268-.833-.706-.833-2.497m34.968 31.638c-.426 0-2.66 2.676-4.163 4.996-2.668.918-3.233 3.716-4.162 6.828-.67 2.676-1.666 2.86-1.666 6.66-1.678 3.71-2.206 7.008-2.498 10.824l2.497-10.823c-1.678 3.708-2.206 7.007-2.498 10.823m-36.63-94.911h-.833c2.26 0 1.1-.063-3.33.833-1.817 2.27-4.807 4.304-7.493 6.826-2.977 1.826-6.367 4.01-8.326 4.996l8.326-4.996c-2.977 1.826-6.367 4.01-8.326 4.996M402.13 61.616h.833c-2.248 0-1.106-.064 3.33.833 2.936 1.39 4.762 2.89 7.493 4.996 1.29 1.936 3.267 2.306 4.163 6.828 1.673.848 2.123 1.67 2.497 4.164m6.664-37.467h4.163c4.63 0 6.733.68 10.824.833 3.638-.424 4.382-1.737 7.493-2.497m-6.66 104.906c.14.66 1.662 4.266 2.498 6.828 1.617 2.612 3.638 4.914 4.163 8.326.97 2.906 1.627 6.23 1.666 9.99.76 3.603 1.264 6.62-.833 9.16-.898 3.29-2.67 6.69-4.162 9.167-1.11 0-.832-.277-.832.834m-29.16-41.636v.833c0-2.248.066-1.106-.832 3.33-1.147 4.013-2.16 7.388-4.163 9.99-1.098 3.296-2.326 4.606-2.498 9.16.662 1.643.833 3.262.833 6.827m2.6 6v4.163c.908 1.21.66 1.294 1.666 1.666M343.02 128.21v.832c0-2.327-.268-.936 4.163.833 3.672.638 7.937 1.037 10.823 1.666 2.672 1.312 6.266 3.48 7.493 4.996 1.993 1.728 4.818 3.48 7.493 4.996 3.004 1.603 4.326 2.824 6.828 6.83.908 1.21.66 1.292 1.666 1.664" transform="matrix(.202 0 0 .2044 292.388 181.09)" stroke-width="3.76" fill="none"/>
      <path d="M423.78-16.666c.123-.184 2.467-1.914 4.996-2.498 1.806-1.364 4.812-.74 6.66 0" transform="matrix(.3166 0 0 .2044 242.372 181.81)" stroke-width="3" fill="none"/>
      <path d="M446.42-19.163h.833c-2.248 0-1.106.064 3.33-.833 3.48-1.16 7.672-.832 11.666-.832 1.173.39.83.242.83 1.666M444.69-7.497v.833c0-2.327-.103-1.09 1.666 3.33.643 2.962 1.76 7.06.832 9.168-2.184 0-2.86-.274-4.163-.833" transform="matrix(.2464 0 0 .2044 272.086 181.81)" stroke-width="3.402" fill="none"/>
      <path d="M371.33-24.98c0 3.218-4.1 6.827-9.168 6.827s-9.168-2.61-9.168-6.828 4.1-6.83 9.168-6.83 9.168 2.61 9.168 6.83z" fill-rule="evenodd" transform="matrix(.2418 -.036 .024 .116 294.966 200.286)" stroke-width="4.601"/>
      <path d="M371.33-24.98c0 3.218-4.1 6.827-9.168 6.827s-9.168-2.61-9.168-6.828 4.1-6.83 9.168-6.83 9.168 2.61 9.168 6.83z" fill-rule="evenodd" transform="matrix(.176 -.023 .0174 .0766 316.096 188.724)" stroke-width="6.628"/>
      <path d="M371.33-24.98c0 3.218-4.1 6.827-9.168 6.827s-9.168-2.61-9.168-6.828 4.1-6.83 9.168-6.83 9.168 2.61 9.168 6.83z" fill-rule="evenodd" transform="matrix(.176 -.023 .0174 .0766 320.41 188.214)" stroke-width="6.628"/>
      <path d="M412.96 113.64c0 2.07-1.864 3.747-4.163 3.747-2.3 0-4.163-1.678-4.163-3.747s1.864-3.747 4.163-3.747c2.3 0 4.163 1.678 4.163 3.747zm66.62 6.26c0 1.38-1.306 2.498-2.914 2.498-1.61 0-2.914-1.12-2.914-2.498s1.306-2.498 2.914-2.498c1.61 0 2.914 1.12 2.914 2.498z" fill-rule="evenodd" transform="matrix(.202 0 0 .2044 292.388 181.09)" stroke-width="3.76"/>
      <path d="M447.09 31.634v.833c0-2.796.197-1.03-4.163 3.33-3.724 1.786-6.164 3.667-6.66 6.66-1.742 3.86-2.342 6.613-2.498 10.824v6.662M419.61 30.8c.677 0 1.477 2.274 2.498 4.996 1.866 2.19 3.037 6.36 3.33 9.16 0 4.617.78 6.462.833 10.823v3.33m78.269 69.931c0 .48-2.6 1.466-4.163 3.33-3.16.428-6.964.833-9.99.833-.61-.916-1.836-1.217-3.33-1.666" transform="matrix(.202 0 0 .2044 292.388 181.09)" stroke-width="3.76" fill="none"/>
    </g>
    <g fill-rule="evenodd" stroke="#000" stroke-width="3.76" fill="#fff">
      <path d="M276.41 36.63l88.263 1.666V49.96s8.326 14.987 13.32 48.29c4.996 33.303 9.992 168.19 9.992 168.19l21.646 141.64s-13.32 21.647-23.31 19.982c-9.99-1.666-39.964-13.32-39.964-14.987 0-1.666-1.666-79.926-4.996-133.21-3.33-63.286-9.99-81.692-24.976-104.9-19.982 48.288-21.647 98.243-19.982 98.243s1.666 39.963 3.33 69.936c1.666 29.972-1.666 71.6-1.666 71.6l-68.28-3.33s1.666-36.633 3.33-64.94c1.666-28.307 6.746-41.626 8.327-73.266 1.748-34.963 4.202-63.32 6.66-109.9 3.238-46.74 14.687-76.268 17.9-103.24.87-7.133-.416-12.488.416-13.32z" transform="matrix(.209 0 0 .1326 311.166 212.692)"/>
      <path d="M316.38 166.61s-8.326-13.32-11.666-36.633-3.33-28.307-3.33-28.307m-3.334 131.66l-9.99 39.963" transform="matrix(.209 0 0 .1326 311.166 212.692)"/>
      <path d="M276.41 223.12l11.667 64.96" transform="matrix(.209 0 0 .1326 323.69 212.812)"/>
      <path d="M387.98 417.96l-11.66-81.6M276.41 44.966l88.263 1.666M318.04 164.84c0-1.666 4.996-29.972 4.996-29.972M284.74 44.966l-8.326 84.922" transform="matrix(.209 0 0 .1326 311.166 212.692)"/>
    </g>
    <path d="M349.68 188.16c0 13.794-7.082 24.977-16.82 24.977-8.736 0-16.818-11.183-16.818-24.977s7.082-24.977 16.82-24.977c8.736 0 16.818 11.183 16.818 24.977z" fill-rule="evenodd" transform="matrix(.3368 0 0 .3286 143.1 206.98)" stroke="#000" stroke-width="2.6" fill="#ffc600"/>
    <g stroke-width="1pt">
      <g fill-rule="evenodd" stroke="#000">
        <path d="M212.6 892.91s63.16-17.716 70.867-17.716c17.716 0 17.716 17.716 19.136 18.212l-1.42 34.937H212.6V892.91z" transform="matrix(.2036 0 0 .241 240.01 90.376)" fill="#00cfe6"/>
        <path d="M266.76 892.91s0-17.716 17.717-17.716c17.716 0 36.433-.496 63.16 0v63.16H266.76V892.91z" transform="matrix(.2036 0 0 -.241 247.226 641.99)" fill="#00cfe6"/>
        <path d="M212.6 892.91s63.16-17.716 70.867-17.716c17.716 0 17.716 17.716 19.136 18.212l-1.42 34.937H212.6V892.91z" transform="matrix(-.2036 0 0 .241 413.137 90.428)" fill="#00cfe6"/>
        <path d="M266.76 892.91s0-17.716 17.717-17.716c17.716 0 36.433-.496 63.16 0v63.16H266.76V892.91z" transform="matrix(-.2036 0 0 -.241 406.924 642.038)" fill="#00cfe6"/>
        <path d="M249.46 876.2s0-17.717-17.716-17.717h63.16L249.46 876.2z" transform="matrix(-.2036 0 0 -.241 396.393 637.773)" fill="#fff"/>
        <path d="M169.46 892.91l106.3 63.16s-36.04 33.3-70.866 36.433c-17.717 0-36.433-36.433-36.433-36.433v-63.16z" transform="matrix(-.2376 0 0 .241 418.648 90.427)" fill="#00cfe6"/>
        <path d="M249.46 892.91c.71-8.868-2.214-36.434-19.93-36.434h66.363c17.717 0 36.434 17.717 36.434 36.434l-1.42 36.432H249.46V892.91z" transform="matrix(-.2036 0 0 .241 402.606 94.697)" fill="#fff"/>
        <path d="M249.46 876.2s0-17.717-17.716-17.717h63.16L249.46 876.2z" transform="matrix(.2036 0 0 -.241 267.766 637.726)" fill="#fff"/>
        <path d="M169.46 892.91l106.3 63.16s-36.04 33.3-70.866 36.433c-17.717 0-36.433-36.433-36.433-36.433v-63.16z" transform="matrix(.2376 0 0 .241 234.6 90.373)" fill="#00cfe6"/>
        <path d="M249.46 892.91c.71-8.868-2.214-36.434-19.93-36.434h66.363c17.717 0 36.434 17.717 36.434 36.434l-1.42 36.432H249.46V892.91z" transform="matrix(.2036 0 0 .241 260.643 94.643)" fill="#fff"/>
        <path d="M88.802 891.9c-.11 1.012 17.607-34.42 63.04-34.42s177.16 70.866 247.92 70.866c70.976 0 196.66-72.66 230.42-70.866 33.773 1.693 63.62 37.16 63.16 36.432-.374-1.728-17.717 63.16-17.717 63.16 0-17.716-17.717-36.433-36.433-36.433-17.717 0-106.3 70.866-230.42 70.866-123.91 0-212.49-70.866-230.21-70.866-17.717 0-36.433 17.716-36.433 36.432l-36.32-64.16z" transform="matrix(.2036 0 0 .241 247.202 90.428)" fill="#fff"/>
      </g>
      <path d="M362.467 313.76l-3.163-9.626 3.228-1.48.373 1.136-2.638 1.21.966 2.948 2.47-1.133.37 1.128-2.47 1.133 1.072 3.276 2.74-1.268.374 1.137-3.333 1.63zm-13.637 6.302l-3.163-9.626.69-.27 2.78 8.487 2.2-1.01.373 1.138-2.79 1.28zm-4.097 1.924l-3.163-9.626 3.012-1.38.372 1.136-2.42 1.11.976 2.98 2.094-.962.373 1.137-2.096.962 1.432 4.372-.69.272zm-36.27.124l2.08-9.926 1.216.366-.027 7.463c-.003.692-.008 1.212-.016 1.664.144-.34.366-.84.668-1.494l2.908-6.478 1.088.32-2.08 9.926-.778-.228 1.74-8.31-3.614 7.79-.73-.216.006-8.968-1.77 8.46-.78-.23zm-.366-10.882l.77.377-1.916 6.467c-.332.948-.663 1.67-.99 2.166-.33.493-.727.83-1.197 1.012-.466.18-.978.13-1.638-.146-.644-.267-.936-.636-1.176-1.112-.24-.474-.33-1.037-.278-1.686.066-.662.26-1.478.61-2.48l1.913-6.466.77.38-1.912 6.46c-.288.82-.464 1.448-.6 1.884-.04.432.018.81.17 1.133.168.322.4.666.73.727.666.278 1.04.27 1.427-.03.387-.3.788-1.04 1.204-2.226l1.91-6.46zm-16.467-6.682l.676.316-2.116 6.413c-.367.94-.71 1.662-1.026 2.163-.316.6-.67.862-1.066 1.06-.392.206-.797.19-1.216-.038a1.67 1.67 0 0 1-.822-1c-.14-.444-.166-.982-.042-1.613.114-.636.364-1.46.762-2.442l2.116-6.413.676.316-2.112 6.406c-.318.814-.618 1.436-.6 1.86-.08.42-.074.783.014 1.086.09.302.26.62.606.666.423.232.806.19 1.146-.124.342-.314.742-1.06 1.2-2.236l2.114-6.406zm-10.266 1.681l.683.196c-.168.484-.26.9-.276 1.266-.022.36.03.672.164.97.126.288.313.602.66.637.22.12.44.166.663.108a1.11 1.11 0 0 0 .698-.37c.18-.202.327-.46.44-.737.116-.296.176-.673.18-.833a1.6 1.6 0 0 0-.174-.77c-.078-.162-.276-.464-.696-.876-.317-.428-.62-.776-.61-1.047a2.84 2.84 0 0 1-.126-1.126c.036-.403.138-.822.306-1.26.184-.474.418-.88.703-1.22.286-.346.69-.66.912-.642.323-.083.63-.043.922.117.322.176.662.443.72.803.16.367.22.79.184 1.296a6.82 6.82 0 0 1-.363 1.694l-.686-.213c.202-.61.276-1.112.223-1.608-.062-.396-.246-.684-.68-.867-.347-.19-.666-.192-.923-.003-.266.186-.472.473-.626.862-.13.336-.182.643-.164.922.026.28.227.66.603 1.147.38.48.626.864.732 1.12.164.39.216.81.186 1.266-.03.46-.142.926-.338 1.428a4.76 4.76 0 0 1-.76 1.304c-.304.366-.63.604-.976.716a1.207 1.207 0 0 1-.978-.094 1.861 1.861 0 0 1-.846-.91c-.17-.393-.233-.877-.192-1.464.046-.68.186-1.186.423-1.82zm83.099.113c-.623-1.694-.733-2.937-.63-4.02.1-1.088.466-1.777 1.096-2.066.412-.19.862-.147 1.322.126s.916.76 1.34 1.433c.42.677.79 1.496 1.106 2.46.32.974.616 1.89.686 2.744.068.863.002 1.668-.203 2.11-.207.646-.604.907-.892 1.086-.42.193-.867.147-1.342-.14-.474-.283-.92-.766-1.338-1.444s-.767-1.442-1.044-2.287zm.616-.268c.38 1.16.823 2.007 1.33 2.646.61.634.982.7 1.42.6.444-.206.698-.71.763-1.617.068-.804-.1-1.827-.607-3.066-.267-.784-.642-1.44-.867-1.964-.314-.63-.642-.9-.986-1.11-.34-.216-.66-.266-.964-.12-.417.19-.676.667-.774 1.427-.1.766.09 1.868.664 3.306zm-8.91 9.846l-3.162-9.626 1.98-.908c.397-.182.728-.234.993-.164.264.078.63.306.796.686.268.382.487.836.66 1.366.226.683.31 1.306.26 1.87-.062.66-.272 1.002-.668 1.326.21.09.38.196.613.316.286.263.69.616.91 1.066l1.636 2.263-.743.34-1.246-1.73c-.363-.6-.66-.876-.862-1.132-.21-.264-.383-.423-.612-.604a.761.761 0 0 0-.36-.133c-.08 0-.193.034-.346.104l-.686.314 1.402 4.277-.69.27zm-1.17-6.648l1.27-.682c.27-.124.462-.282.676-.47.112-.192.164-.436.168-.736a3.286 3.286 0 0 0-.166-.922c-.16-.463-.348-.792-.6-1.016-.247-.224-.637-.26-.868-.108l-1.413.66 1.044 3.183zm-6.678 3.264c-.622-1.696-.734-2.937-.63-4.02.1-1.09.466-1.777 1.096-2.066.412-.19.863-.148 1.323.126s.916.76 1.34 1.433c.42.677.79 1.496 1.106 2.46.32.976.616 1.89.686 2.746.07.863 0 1.668-.203 2.11-.206.647-.604.908-.89 1.086-.422.193-.868.147-1.343-.14-.474-.283-.92-.766-1.338-1.446-.42-.678-.767-1.44-1.044-2.286zm.616-.26c.38 1.16.824 2.01 1.332 2.646.608.634.98.7 1.416.6.446-.204.7-.71.766-1.617.07-.804-.1-1.827-.606-3.066-.266-.784-.643-1.44-.867-1.964-.314-.63-.642-.9-.984-1.11-.34-.216-.66-.267-.964-.122-.42.192-.677.67-.776 1.428-.098.766.09 1.868.663 3.306zm-34.213 10.904l1.186-10.13 2.336.384c.477.078.846.244 1.108.6.266.26.462.6.664 1.066.116.462.146.91.09 1.376a3.34 3.34 0 0 1-.36 1.187 2.02 2.02 0 0 1-.762.818c.366.242.61.694.76 1.06.162.466.194.996.126 1.686a4.466 4.466 0 0 1-.34 1.296c-.17.383-.36.673-.666.863a1.623 1.623 0 0 1-.743.392c-.284.066-.626.068-1.022.003l-2.374-.39zm1.61-6.74l1.36.222c.364.06.63.063.798.014a.922.922 0 0 0 .63-.43c.137-.216.226-.602.266-.867.04-.336.026-.64-.046-.908-.07-.276-.19-.474-.363-.696-.173-.127-.484-.227-.93-.3l-1.246-.206-.36 3.06zm-.646 4.68l1.66.263c.267.046.466.06.668.046.196-.026.366-.092.608-.198.143-.11.27-.28.38-.61.11-.234.186-.614.223-.836.044-.38.023-.716-.063-1.01-.086-.302-.23-.626-.43-.67-.196-.16-.49-.266-.888-.32l-1.44-.237-.408 3.48zm6.362 2.297v-10.227h2.79c.668 0 .986.093 1.277.28.29.18.626.603.7.97.174.464.26.977.26 1.64 0 .726-.144 1.337-.433 1.836-.29.496-.734.812-1.338.948.22.172.388.34.602.608.243.363.473.817.69 1.36l1.094 2.786h-1.046l-.833-2.128a22.78 22.78 0 0 0-.6-1.41c-.168-.326-.3-.664-.426-.683a1.063 1.063 0 0 0-.377-.272c-.094-.034-.248-.06-.463-.06h-.966v4.643h-.832zm.832-6.713h1.79c.38 0 .677-.066.89-.19.216-.13.378-.333.49-.612a2.6 2.6 0 0 0 .167-.922c0-.482-.11-.88-.326-1.192-.216-.312-.666-.468-1.02-.468h-1.992v3.384zm6.463 6.441l.87-10.668.884-.186 4.04 9.638-.933.196-1.18-2.9-2.688.643-.226 3.194-.87.183zm1.168-4.61l2.1-.44-1.066-2.662a38.963 38.963 0 0 1-.76-1.997c.017.663 0 1.328-.047 1.993l-.237 3.097zm-40.427-6.603l3.66-9.37 1.63.893c.333.182.66.424.686.726.128.298.17.676.13 1.132a4.78 4.78 0 0 1-.31 1.328c-.167.4-.366.76-.694 1.048s-.603.6-.79.608c.196.31.288.702.272 1.18-.016.477-.13.99-.342 1.636-.17.437-.374.822-.61 1.166-.23.328-.46.66-.666.696a1.181 1.181 0 0 1-.66.204c-.23 0-.483-.076-.76-.227l-1.666-.907zm2.697-6.118l.94.614c.266.14.462.203.69.193.183-.016.366-.112.612-.29.16-.174.306-.427.433-.766.12-.31.193-.603.216-.874.024-.276-.012-.492-.107-.647-.094-.16-.297-.326-.61-.496l-.868-.476-1.107 2.83zm-1.69 4.326l1.082.692c.186.102.322.168.408.17a.716.716 0 0 0 .432-.074c.136-.07.277-.204.422-.398.147-.198.28-.447.396-.746a3.16 3.16 0 0 0 .23-.976c.02-.306-.026-.66-.134-.733-.104-.187-.296-.366-.672-.606l-1.006-.662-1.267 3.22z"/>
    </g>
    <path d="M212.6 432.28v106.3c0 70.866 88.683 106.3 88.683 106.3s88.683-36.433 88.683-106.3v-106.3h-177.17z" fill-rule="evenodd" transform="matrix(.4072 0 0 .3836 201.1 46.176)" stroke="#000" stroke-width="1pt" fill="#00daec"/>
    <path d="M212.6 432.28v106.3a83.104 83.104 0 0 0 3.806 24.914l84.777-42.63V432.28H212.6z" fill-rule="evenodd" transform="matrix(.4072 0 0 .3836 201.1 46.176)" stroke="#000" stroke-width="1pt" fill="#fff"/>
    <path d="M212.6 432.28v106.3a83.104 83.104 0 0 0 3.806 24.914l84.777-42.63V432.28H212.6z" fill-rule="evenodd" transform="matrix(-.4072 0 0 .3836 446.388 46.176)" stroke="#000" stroke-width="1pt" fill="#fff300"/>
    <g fill-rule="evenodd" transform="matrix(.4072 0 0 .3836 201.1 46.176)" stroke="#000" stroke-width="1.26">
      <path d="M244.77 87.42c7.322-6.948 11.167-3.72 17.66 3.1 9.322 9.816 41.317 68.866 46.312 63.019s4.24-6.418 10.344-1.388c3.032 3.727-10.437 17.026-13.737 14.67-6.412-6.022 3.914-6.376-.366-9.646-4.926-6.133-61.216-40.497-60.282-60.67-6.92-6.678-6.314-13.97.067-19.088z" transform="matrix(.6394 .2374 .1423 .7022 68.9 338.88)" fill="#923d09"/>
      <rect ry="1.293" rx="2.606" transform="matrix(.7666 .666 -.686 .8104 0 0)" height="66.046" width="6.212" y="181.36" x="496.62" fill="#af8000"/>
      <path transform="matrix(.8312 .666 -.641 .7676 0 0)" fill="#b0b0d4" d="M497.3 228.63h29.376v18.868H497.3z"/>
    </g>
    <g stroke="#000" fill-rule="evenodd" transform="matrix(.4072 0 0 .3836 201.1 46.176)">
      <path d="M386.112 628.667c4.886-2.106-27.333-36.603-33.786-61.842-6.462-16.24-6.108-16.717-8.617-24.322l-3.16 1.36c.806 4.93 16.87 43.87 30.736 64.16 4.198 6.82.63 16.77 6.36 14.73l9.467-4.076z" stroke-width="1pt" fill="#af8000"/>
      <path d="M341.648 463.66l-26.872 2.486s-4.83 4.107-2.673 12.666c2.266 8.668 8.966 11.892 8.966 11.892l22.668-17.667-3.188-9.486z" stroke-width="1pt" fill="gray"/>
      <rect ry="3.632" rx="3.632" transform="rotate(-18.68)" height="19.428" width="7.064" y="634.62" x="176.71" stroke-width="1pt" fill="gray"/>
      <path d="M239.61 381.62c0 7.316-1.68 13.246-3.632 13.246-1.96 0-3.633-6.93-3.633-13.246 0-7.316 1.682-13.246 3.633-13.246s3.632 6.93 3.632 13.246z" transform="matrix(.7447 -.716 .6347 .3936 -106.9 623.83)" stroke-width="1pt" fill="#cf0000"/>
      <path d="M239.61 381.62c0 7.316-1.68 13.246-3.632 13.246-1.96 0-3.633-6.93-3.633-13.246 0-7.316 1.682-13.246 3.633-13.246s3.632 6.93 3.632 13.246z" transform="matrix(-.978 .311 .0276 .7664 696.47 104.78)" stroke-width="1pt" fill="#cf0000"/>
      <path transform="matrix(.869 -.612 .4994 .8664 0 0)" stroke-width="1.163" fill="#b0b0d4" d="M16.073 696.26H93.94v17.796H16.074z"/>
    </g>
    <path d="M231.36 691.4l8.83-7.066s1.767 8.83 7.066 8.83 8.83-7.662 8.83-7.662 0 7.663 6.888 7.663 10.697-7.663 10.697-7.064c0 .688.688 7.064 6.298 7.064s10.697-6.476 10.697-6.476.69 7.664 6.887 7.066c6.3-.69 7.066-8.242 7.663-7.663.69.688 4.12 7.663 8.242 7.064s10.01-6.476 10.01-6.476 1.176 7.066 6.886 7.066 6.476-6.476 6.476-6.476 2.363 6.297 6.474 6.297 10.697-6.887 10.697-6.887" transform="matrix(.389 0 0 .3836 211.313 61.724)" stroke="#0072ff" stroke-width="1pt" fill="none"/>
    <path d="M231.96 691.4c3.14-1.374 6.69.196 9.418-7.664 0 4.12 2.946 9.42 8.243 9.42s8.832-7.663 8.832-7.663 0 7.663 6.887 7.663 10.696-7.663 10.696-7.064c0 .688.688 7.064 6.298 7.064s10.697-6.476 10.697-6.476.69 7.664 6.888 7.066c6.3-.69 7.066-8.242 7.663-7.663.69.688 4.122 7.663 8.243 7.064 2.943-.69 10.01-7.066 10.01-7.066" transform="matrix(.4072 0 0 .3836 212.128 66.788)" stroke="#0072ff" stroke-width="1pt" fill="none"/>
    <g fill-rule="evenodd">
      <path d="M306.64 360.62v18.84h14.717l-6.298-18.84h-9.42z" transform="matrix(.3216 0 0 .286 236.636 162.272)" stroke="#000" stroke-width="1pt" fill="#fff"/>
      <path d="M341.348 266.413c-.19.17-7.674 3.706-17.23 3.706s-13.446-1.01-14.39-1.684c-.948-.673-2.084-2.02-3.22-2.02-1.137 0-2.083.842-2.083.842s1.893.84 3.22 1.86c1.324 1.012 1.703 2.864 1.703 2.864l31.243.337s-.188-1.863-.188-2.863 1.136-2.626.946-3.03z"/>
      <path d="M314.083 263.468h.768v16.66h-.767zm10.226-2.022h.768v17.848h-.768zm10.036 3.032h.768v14.66h-.767z"/>
      <path stroke="#000" stroke-width="1.024" fill="#fff" d="M299.07 342.37h18.84v8.83h-18.84z" transform="matrix(.3216 0 0 .286 236.31 167.667)"/>
      <path stroke="#000" stroke-width="1.101" fill="#fff" d="M297.89 360.61h21.782v8.83H297.89z" transform="matrix(.3216 0 0 .286 236.31 167.667)"/>
      <path stroke="#000" stroke-width="1.169" fill="#fff" d="M296.71 368.86h24.137v8.83H296.71z" transform="matrix(.3216 0 0 .286 236.31 167.667)"/>
      <path stroke="#000" stroke-width="1.372" fill="#fff" d="M266.17 334.72h23.837v12.627H266.17z" transform="matrix(.3216 0 0 .286 236.31 167.667)"/>
      <path stroke="#000" stroke-width="1.476" fill="#fff" d="M264.68 346.41h27.66v12.627h-27.66z" transform="matrix(.3216 0 0 .286 236.31 167.667)"/>
      <path stroke="#000" stroke-width="1.663" fill="#fff" d="M263.19 368.1h30.64v12.627h-30.64z" transform="matrix(.3216 0 0 .286 236.31 167.667)"/>
      <path stroke="#000" stroke-width="1.312" fill="#fff" d="M260.21 368.28h36.6v16.307h-36.6z" transform="matrix(.3216 0 0 .286 236.31 167.667)"/>
      <path stroke="#000" stroke-width="1.017" fill="#fff" d="M238.26 342.37h16.763v10.414H238.26z" transform="matrix(.3216 0 0 .286 236.31 167.667)"/>
      <path stroke="#000" stroke-width="1.094" fill="#fff" d="M237.26 362.09h18.226v10.414H237.26z" transform="matrix(.3216 0 0 .286 236.31 167.667)"/>
      <path stroke="#000" stroke-width="1.161" fill="#fff" d="M236.28 361.81h20.197v10.414H236.28z" transform="matrix(.3216 0 0 .286 236.31 167.667)"/>
      <path stroke="#000" stroke-width=".973" fill="#fff" d="M234.31 370.27h24.137v12.726H234.31z" transform="matrix(.3216 0 0 .286 236.31 167.667)"/>
      <path d="M220 377.61h9.876l10.697-33.374L220 377.61z" stroke="#000" stroke-width="1.017" fill="#fff" transform="matrix(.3216 0 0 .286 236.31 167.667)"/>
      <path d="M314.264 263.63l.7.308-9.188 12.648-.7-.307z"/>
    </g>
    <path d="M231.36 691.4l8.83-7.066s1.767 8.83 7.066 8.83 8.83-7.662 8.83-7.662 0 7.663 6.888 7.663 10.697-7.663 10.697-7.064c0 .688.688 7.064 6.298 7.064s10.697-6.476 10.697-6.476.69 7.664 6.887 7.066c6.3-.69 7.066-8.242 7.663-7.663.69.688 4.12 7.663 8.242 7.064s10.01-6.476 10.01-6.476 1.176 7.066 6.886 7.066 6.476-6.476 6.476-6.476 2.363 6.297 6.474 6.297 7.066-7.064 7.066-7.064 1.176 6.476 4.12 6.476c2.943 0 6.476-6.477 6.476-6.477s1.177 8.242 4.12 7.663c2.944-.69 4.122-8.242 4.71-7.663.69.69 4.71 7.064 4.12 7.064" transform="matrix(.3847 0 0 .3836 207.988 46.983)" stroke="#0072ff" stroke-width="1pt" fill="none"/>
  </g>
</svg>
