<svg xmlns="http://www.w3.org/2000/svg" fill-opacity="14.118" height="480" width="640" fill="#28ff09">
  <defs>
    <clipPath id="a">
      <path fill-opacity=".67" fill="#000" d="M-79.06 0h682.67v612H-79.06z"/>
    </clipPath>
  </defs>
  <g fill-opacity="1" clip-path="url(#a)" transform="translate(74.118) scale(.9376)">
    <path fill="#fff" d="M81.137 0h362.276v612H81.137z"/>
    <path fill="#bf0a30" d="M-100 0H81.138v612H-100zm643.413 0H624.66v612H443.414zM136.31 247.41l-14.067 4.808 66.466 67.446c4.96 14.764-1.72 19.116-6.97 26.86l71.06-9.02-1.86 71.612 14.718-.423-3.21-70.918 71.13 8.432c-4.402-9.297-8.32-14.233-4.247-29.098l66.414-64.426-11.447-4.144c-9.36-7.222 4.044-34.784 6.066-62.178 0 0-38.196 13.136-40.698 6.262l-9.727-18.686-34.747 38.17c-3.796.91-6.413-.6-6.304-3.808l16.063-79.766-26.42 14.297c-2.128.91-4.266.126-6.668-2.366l-24.46-49.06-26.21 60.96c-1.9 1.826-3.803 2.037-6.382.796l-24.204-13.678 14.63 79.143c-1.166 3.14-3.924 4.026-7.18 2.324l-33.216-37.737c-4.346 6.962-7.29 18.336-13.033 20.886-6.744 2.387-24.98-4.823-37.873-7.637 4.404 16.896 18.176 42.302 9.46 60.967z"/>
  </g>
</svg>
