<svg xmlns="http://www.w3.org/2000/svg" xmlns:xlink="http://www.w3.org/1999/xlink" height="480" width="640" version="1">
  <defs>
    <path d="M0-360l69.42 216.846 212.04-80.3L166.987-36.604l194.986 116.71-226.88 19.66 31.104 224.692L0 160l-166.198 164.36 31.106-224.692-226.88-19.66 194.986-116.71-126.47-188.864 212.037 80.3z" id="a"/>
    <path d="M0-210L64.86-76.608l144.862 10.614L88.766 28.842l34.67 141.062L0 93.334l-123.436 76.66 34.67-141.062-110.967-93.736L-64.86-76.608z" id="b"/>
  </defs>
  <path fill="green" d="M0 0h640v480H0z"/>
  <circle cx="320" cy="240" r="66.667" fill="#ffe000"/>
  <circle cx="340.787" cy="240" r="64.867" fill="green"/>
  <circle cx="109.841" cy="173.333" r="69.841" fill="#ffe000"/>
  <path d="M106.022 226.994h17.44s.787-1.6-.176-2.398c-.963-.8-4.713-.976-3.7-3.803 2.083-6.813 2.374-4.02 3.682-17.827 1.308-13.806 1.937-36.46 1.937-36.46h-2.62s.486 6.734-.967 16.602c-1.464 8.77-1.89 9.643-3.488 16.277-1.6 6.733-1.84 7.314-3.294 11.238-1.463 3.924-1.6 4.118-3.876 7.76-2.276 3.634-1.463 2.277-2.712 4.467-.63 1.09-1.406.8-1.83 1.693-.423.793-.496 2.67-.496 2.67z" fill="#802000" stroke="#7b3100" stroke-width="1.481"/>
  <path d="M118.33 122.46c.146 2.71-.127 6.296-1.26 9.213-1.138 3.262-2.376 6.494-2.316 9.86-1.81.617-3.674-3.916-6.416-1.26 1.308 3.686 4.33 6.6 6.403 9.92.36 1.03 3.33 3.716 1.606 4.34-4.363-1.49-6.407-7.003-8.107-10.362-3.134-6.634-8.98-9.617-16.49-9.892-2.447.064-10.4-.607-8.33 3.682 3.047 2.072 6.802 3.423 9.81 6.748 2.243.21 6.306 3.962 6.07 6.367-3.944-1.697-6.79-3.612-10.037-6.19-6.767-2.226-13.72-.887-16.906 4.826-.694 1.488-1.47 6.824.397 6.238 2.183-3.41 6.306-7.22 9.933-6.197 3.636.286-4.066 6.772-1.114 6.466.932-.413 3.086-1.826 4.678-1.974 1.493-.147 2.327.97 3.46 1.126 2.266.31 2.89 1.26 2.68 1.812-.248.66-.968.094-3.27.826-1.163.366-1.764 1.377-3.098 1.84-1.343.464-4.138.496-6.182.086-3.664-1.686-9.644-1.31-10.783 3.268-.002 2.014-1.794-.222-2.622.648-.62 2.197-.78 4.463-4.04 4.263-1.978 2.074-4.004 4.223-6.616 6.7 1.474 3.383 7.314-3.398 7.04-.64-2.662 3.482 1.314 4.216 3.007 1.636 2.863-3.026 6.408-6.706 10.68-3.668 2.036 1.916 3.217-1.013 4.69-.866.927 2.38 2.096.118 3.148-.666 1.723-.214 1.238 2.163 3.287.696 4.082-2.702 9.104-.432 13.092-3.06 4.244-1.934.696 1.667-.676 2.922-1.864 3.617-.247 8.366-4.292 10.612-1.626 4.31 1.92 9.994-1.696 13.183-.626 2 4.66 1.77 6.103 2.693 2.646.1-.11-6.826 2.416-6.62 3.388 2.096 3.23-3.76 2.63-6.663.328-4.098.66-8.68 2.696-12.292 2.166-4.66 4.17 1.863 1.746 3.666-1.377 4.183-3.38 9.42-.26 13.31.902.202 1.643 2.39 2.81 3.06 1.17.673 2.766-.17 3.066-2.16 1.498-6.99.743-12.434 2.883-18.26 1.612-1.806 3.696-.292 4.632 1.368 3 3.48 6.107 7.833 8.737 10.702 3.306 1.647 6.228 3.886 7.76 7.29-.02 2.626 7.46 3.027 6.224.11-2.144-2.842-.73-6.684 1.442-7.673 1.163.287.82-1.796-.092-.972-1.46-.346-1.664-3.017.476-1.747 3.418 1.104-.267-2.474-1.602-2.683-2.89-1.792-6.21-3.863-7.632-6.967 3.762.04 7.668 2.068 11.612.81 3.082-1.684 6.208.13 7.284 2.848 2.382-.38 1.367-2.77 0-3.666 1.743-.718 2.948-2.21.836-3.624-1.116-1.466 1.496-3.94-1.714-3.836.104-2.463-.86-4.697-3.634-6.644-2.68-2.268-10.638 3.34-10.31-1.77-.792-2.783 3.192-.373 4.306-1.76 1.16-2.933-6.482-2.647-3.294-4.92 1.43-.92 8.137-2.243 2.877-3.227-2.626.72-4.88.186-6.946-1.113-1.883 3.16-7.26-1.71-6.302 3.89-.736 2.108-6.64 7.69-6.842 3.39 1.107-3.29 6.8-4.368 6.036-8.806-.27-2.77-2.668.483-3.66.276-.648-1.724 1.668-3.767 3.196-4.166 3.06 2.346 3.142-2.96 6.043-2.628 2.118-.47-.684-1.38-1.276-1.778.68-1.66 3.832-2.342.644-3.688-2.813-2.087-4.898 2.077-7.218 2.3-2.227-2.616 2.022-3.723 3.194-6.047.063-.988-2.477-.3-1.713-1.168.664-1.187 6.162-1.276 3.066-3.066-3.17-1.09-7.266-.818-10.31.693-1.916.62-2.48 4.966-4.134 4.776-.777-1.93.263-6.738-2.407-6.296zm16 42.362c2.417-.41.06 3.67-1.11 3.61.102-1.466-3.497-1.324-1.264-2.6a7.277 7.277 0 0 1 2.374-1.01z" fill="green"/>
  <g transform="translate(0 80) scale(.0636)" fill="#ffe000">
    <use height="100%" width="100%" xlink:href="#a" x="7660" y="4200"/>
    <use height="100%" width="100%" xlink:href="#a" x="6300" y="2206"/>
    <use height="100%" width="100%" xlink:href="#a" x="7660" y="840"/>
    <use height="100%" width="100%" xlink:href="#a" x="8680" y="1869"/>
    <use height="100%" width="100%" xlink:href="#b" x="8064" y="2730"/>
  </g>
</svg>
