<svg xmlns="http://www.w3.org/2000/svg" height="480" width="640">
  <desc>
    The United States of America flag, produced by Daniel McRae
  </desc>
  <defs>
    <clipPath id="a">
      <path fill-opacity=".67" d="M-123.43 0h682.67v612h-682.67z"/>
    </clipPath>
  </defs>
  <g fill-rule="evenodd" clip-path="url(#a)" transform="translate(116.72) scale(.94)">
    <path fill="#fff" d="M-123.43 233.06H723.1v206.97h-846.63z"/>
    <path fill="#081873" d="M-122.76 0h846.96v266.64h-846.96zm.24 386.87H729.6V612h-862.12z"/>
    <path fill="#de3929" d="M-122.62 302.66h846.96v39.66h-846.96z"/>
    <path fill="#ffce08" d="M130.92 399.168l6.66 20.468h21.622l-17.412 12.66 6.66 20.47-17.41-12.66-17.41 12.66 6.66-20.47-17.412-12.66h21.622m192.64-169.138l6.66 20.468h21.622l-17.412 12.66 6.66 20.47-17.41-12.66-17.41 12.66 6.66-20.47-17.412-12.66h21.622M88.27 336.448l6.66 20.468h21.623l-17.412 12.66 6.662 20.47-17.41-12.66-17.412 12.66 6.66-20.47-17.41-12.66h21.62m236.289-26.468l6.66 20.468h21.622l-17.412 12.66 6.66 20.47-17.41-12.66-17.41 12.66 6.66-20.47-17.412-12.66h21.622m-40.44-161.748l6.66 20.468h21.622l-17.412 12.66 6.66 20.47-17.41-12.66-17.41 12.66 6.66-20.47-17.412-12.66h21.622m-64.43-46.218l6.66 20.468h21.622l-17.412 12.66 6.66 20.47-17.41-12.66-17.41 12.66 6.66-20.47-17.412-12.66h21.622m-64.44 2.892l6.66 20.468h21.622l-17.412 12.66 6.66 20.47-17.41-12.66-17.41 12.66 6.66-20.47-17.412-12.66H121m-34.816 43.242l6.66 20.468h21.622l-17.412 12.66 6.66 20.47-17.41-12.66-17.41 12.66 6.66-20.47-17.412-12.66h21.622M198.74 420.408l6.66 20.468h21.622l-17.412 12.66 6.66 20.47-17.41-12.66-17.41 12.66 6.66-20.47-17.412-12.66h21.622m82.17-41.708l6.66 20.468h21.622l-17.412 12.66 6.66 20.47-17.41-12.66-17.41 12.66 6.66-20.47-17.412-12.66h21.622"/>
  </g>
</svg>
