<svg xmlns="http://www.w3.org/2000/svg" xmlns:xlink="http://www.w3.org/1999/xlink" height="480" width="640">
  <path fill="#0021ad" d="M0 0h640v480H0z"/>
  <path d="M0 0h640v480z" fill="#1c8a42"/>
  <circle cx="320" cy="240" r="67.806" fill="#ffc639"/>
  <path d="M284.698 214.036c3.964 6.426 9.946 14.62 14.766 12.147 3.76.013 6.702.277 6.212 2.78 8.87 1.61 23.778-2.232 33.064-14.314 0 0 .78.103.61-4.49.06-2 2.736-1.6 2.8-.948.373.993.31 1.736.812 1.76 1.142-.38 2.703-2.94 4.012-4.666.366-.716.162-1.47.246-2.374.69-1.697 2.412-1.33 2.773-.44.33.676.336 1.014.668 1.688 1.76 1.168 4.904.077 6.16.077.31-1.426 1.226-1.29 1.226-1.29 1.167-.268.71-.166 1.477.246-.677 7.684 1.61 8.026 1.33 11.966.076 4.4-1.33 6.66-1.33 7.328.446 2.062 6.934 2.123 4.66 3.868-2.006 1.07.007 3.077-3.012 3.868-8.786 4.467-10.47 8.283-10.47 8.283s-2.206 4.167-2.46 4.167c-1.472 2.78-3.336 1.264-4.374 2.62-.616 1.702-1.097 6.476-.066 7.437.617 2.696-.063 4.167-.708 6.863-.68 6.626-2.813 6.477-3.07 8.46-1.033 2.11.218 12.02-.762 12.02-6.64.128-11.664-1.263-14.14-1.77 2.622-10.87 1.64-20.416 1.64-21.396-.644-7.773-11.642-6.883-13.326-6.916-1.393-.298-2.27-1.433-2.76-1.923-1.666-.168-2.136-.623-3.69-.684-.776.387-.31.787-2.04 1.322-4.386.63-6.32-3.826-6.32-3.826.212-1.464-9.864.297-16.34-.974-2.246 1.26-3.227 4.964-6.066 6.393-.063 1.147-3.027-.943-3.626-2.072-.123-3.283 2.864-4.736 2.864-4.736 2.374-1.67 3.78-1.942 4.922-3.096.674-2.868.283-4.974 1.603-7.122 1.032-1.64 2.664-.87 3.686-1.606 1.11-.737 1.68-6.66.664-6.866 0 0-4.438-4.006-4.683-4.26-1.444-4.142 1.69-6.813 2.688-6.61z" fill="#1c8a42"/>
  <path d="M661.876 142.436c-2.62-10.364-26.06-32.686-43.678-46.89-4.206-2.866-6.947-1.168-6.4 2.927 2.194 3.66 3.84 7.68 6.032 11.34.612 2.437 1.767 4.144 2.38 6.682 0 0 .18 4.206.648 4.672 6.483 6.037 6.22 11.166 6.22 11.166 3.166 6.097 6.972 10.646 11.62 16.646 6.22 3.903 1.646 16.03 1.826 22.494 0 4.083-2.923 3.6-6.484 3.11-20.178-18.634-40.176-18.692-67.792-23.96-6.89-.728-7.012 2.662-4.764 4.387 12.314 13.172 23.893 22.132 39.136 29.628l7.683 4.76c2.923 2.44 6.86 4.877 8.773 7.316 6.767 4.386 7.322 8.41 7.322 8.773.18 8.23-4.212 14.63-6.49 17.19-2.31 8.728-6.947 10.246-6.947 10.246-37.678 26.422-67.43 32.002-118.614 24.138-.916-.483-6.767.49 0 2.93 16.646 6.18 63.736 13.488 90.682-4.007 8.87-6.218 14.804-4.18 21.23-7.902 10.663-6.608 26.622-14.61 28.363-16.62 8.232-4.393 31.276-9.328 36.684-13.72 6.09-.49 12.41-1.29 12.837-6.63 2-1.296 4.93-.347 7.103-4.617 4.832-.84 4.02-2.668 4.02-2.668-1.22-3.412-6.736-4.82-8.96-7.316-4.762-1.687-8.062-2.077-11.63-.368-1.096.49-2.192.974-3.29 1.466 0 0-6.12-.736-6.12-1.097-11.38-.626-10.27-38.337-14.296-64.066z" fill="#ffc639"/>
  <path d="M688.663 204.166a2.818 1.76 16.947 1 1-6.373-1.687 2.818 1.76 16.947 0 1 6.373 1.686z" fill="#1c8a42"/>
  <g transform="matrix(.64 0 0 .64 0 80)" fill="#fff">
    <path id="a" d="M188.16 190.94l-12.76-11.936-12.906 11.77 1.383-17.406-17.26-2.764 14.476-9.774-8.606-16.197 16.668 6.22 6.618-16.206 6.31 16.287 16.734-6.007-8.8 16.086 14.348 9.96-17.283 2.63 1.168 17.424z"/>
    <path d="M233.39 336.63l-13.762-9.167-13.39 9.664 4.71-16.668-13.68-9.416 16.666-.446 4.988-16.496 6.696 16.3 16.667-.166-13.21 9.902 6.307 16.382z"/>
    <use height="100%" width="100%" xlink:href="#a" x="2.622" y="269.061"/>
    <use height="100%" width="100%" xlink:href="#a" x="-112.066" y="123.223"/>
    <use height="100%" width="100%" xlink:href="#a" x="108.427" y="86.027"/>
  </g>
</svg>
