<svg xmlns="http://www.w3.org/2000/svg" xmlns:xlink="http://www.w3.org/1999/xlink" height="480" width="640">
  <path fill="#fff" d="M0 0h640v480H0z"/>
  <path id="a" d="M307.84 398.6a.816.816 0 0 1-.278-.196l-.1-.094c-.26-.237-.688-.667-1.266-1.314-1.066-1.21-2.496-2.982-3.762-4.648-2.492-3.106-4.66-6.782-4.94-6.286l-.634-.826-6.212-1.916-4.637-2.116 2.426-2.726 8.326 3.666 6.216 1.276 11.49 8.46-.01.008c-.022.02-1.67 1.39-3.308 2.88-.73.663-1.66 1.616-2.3 2.226-.3.326-.666.66-.746.912-.11.16-.172.306-.202.377l.714-.444.773.6-1.674.147-.072.016zm-42.672-12.816c-6.422 0-10.777-1.6-16.916-4.464l-.006-.003.002-.006s.672-1.28 2.302-2.476c1.663-1.14 4.364-2.603 8.88-2.62h.094c6.36 0 11.92 1.822 19.498 6.416-.266.17-6.204 4.046-14.862 4.046l.008.008zm-23.496-6.208c-1.002 0-1.903-.38-2.636-1.066-.62-.666-.89-1.317-1.138-2.303-.403-1.614-.292-3.22-.28-3.373a3.48 3.48 0 0 1 1.26-.284l.09-.002c2.008 0 3.69 1.743 4.27 3.47.384.982.468 1.807.218 2.464-.24.648-.992 1.096-1.872 1.096zm41.344-4.792c-13.887-1.983-19.774-7.004-22.266-10.866-2.66-4.12-2.113-7.93-2.108-7.968l.002-.012.01-.003c.006 0 .86-.228 2.127-.234 3.696 0 13.146 1.86 22.24 19.076l.006.01-.016-.007zm-28.464-2.762c-6.933 0-10.46-1.024-13.426-3.043-1.71-1.16-2.647-2.436-2.948-3.3a6.408 6.408 0 0 1-.476-1.62c.167-.072 2.686-1.16 6.212-1.32.307-.014.616-.023.94-.024 4.686 0 11.668 1.496 18.916 8.624l.007.007h-.01c-3.36.44-6.463.673-9.223.673zm-28.728-1.104c-6.266 0-14.86-1.91-20.21-7.27l-.006-.006.016-.004c.066-.014 6.873-1.49 12.418-1.66.39-.01.783-.014 1.18-.014 6.866 0 10.366 1.137 13.346 3.38 1.044.783 1.614 1.612 1.742 2.226.107.697-.208 1.24-.846 1.72-1.346 1.017-3.763 1.66-7.166 1.614l-.48.016zm-20.272-10.4a2.66 2.66 0 0 1-1.983-.934c-.406-.49-.688-1.132-.888-2.017-.334-1.48-.233-2.926-.232-2.94v-.014a2.43 2.43 0 0 1 .974-.22h.002c.926 0 1.63.604 2.07.927a6.67 6.67 0 0 1 1.362 2.116c.292.824.34 1.613.144 2.108-.16.472-.704.968-1.44.968zm46.824-1.066c-1.002 0-1.903-.38-2.636-1.066-.62-.666-.89-1.317-1.138-2.303-.403-1.614-.292-3.22-.28-3.373a3.48 3.48 0 0 1 1.26-.284l.09-.002c2.008 0 3.69 1.743 4.27 3.47.384.982.468 1.807.218 2.464-.24.666-1 1.096-1.872 1.096zm-22.808-.944c-12.69-.443-19.123-4.022-22.387-6.946-1.837-1.647-2.868-3.28-3.39-4.368-.604-1.02-.694-1.8-.728-1.96l.017-.007s1.19-.426 3.107-.464l.296-.003c4.246 0 12.888 1.784 23.08 13.723v.008zm13.672-1.272c-10.13-1.642-16.867-6.89-18.898-9.268-3.176-3.64-4.128-6.837-4.17-6.99.018-.006 1.266-.328 3.12-.376a14.24 14.24 0 0 1 .862 0c6.094.112 14.347 2.42 19.084 16.628h.008zm-62-4.864c-3.32 0-6.64-.384-9.67-1.142-6.303-1.326-7.678-3.36-8.662-4.816-.664-.832-.766-1.662-.826-2.028a3.414 3.414 0 0 1-.026-.868l.026-.01c.013-.002 3.62-.987 8.37-1.06a36.027 36.027 0 0 1 7.43.66c8.43 1.683 12.802 8.046 12.846 8.11l.004.007-.01.002c-.06.008-4.066 1.136-9.697 1.136zm23.612-8.644c-1.016 0-1.916-.37-2.638-1.043-.61-.663-.883-1.316-1.136-2.327-.404-1.612-.292-3.2-.28-3.348a3.48 3.48 0 0 1 1.26-.283l.09-.002c2.004 0 3.69 1.743 4.27 3.47.374.96.44 1.767.194 2.428-.248.672-.976 1.104-1.848 1.104zm-17.68-2.424c-.076-.018-4.782-1.23-9.674-4.18-4.436-2.73-9.86-7.66-10.622-16.064v-.004l.01-.003c.002 0 .414-.1 1.024-.123.084-.003.173-.006.267-.006 1.326 0 4.037.373 7.317 2.867 4.176 3.184 8.032 8.736 11.48 16.62zm11.644-.424c-.03-.012-3.383-1.364-7.676-4.867-3.906-3.274-9.396-9.168-13.372-18.664.002-.002.914-.488 2.31-.676a3.31 3.31 0 0 1 .244-.007c.12 0 .244.004.37.007 1.93.066 4.866.866 8.123 4.37 3.74 4.038 7.08 10.673 9.923 19.722l.008.026-.024-.007zm-29.912-.872c-3.867 0-6.177-2.092-6.666-2.992-.638-1.48-.444-2.96-.443-2.966l.002-.016a8.498 8.498 0 0 1 1.92-.26l.13-.002c3.04 0 6.44 1.644 6.468 3.073.204.303.83 1.366.312 2.177-.416.648-1.36.976-2.824.976zm-8.644-10.776c-2.164 0-6.46-.132-8.913-.762-3.436-.624-6.382-3.646-6.41-6.884-1.12-2.648-1.436-4.98-1.44-6.004h.01c10.627.312 16.646 3.417 17.984 6.966 2.416 2.632 2.668 6.366 2.666 6.638h-.007c-.017 0-1.613.144-3.793.144zm11.064-11.066a42.733 42.733 0 0 1-2.426-3.382c-1.26-1.966-2.423-3.997-2.423-6.668 0-1.612-.38-6.012-.606-6.896-.287-2.387-.676-4.43-.6-4.604l.01.003c.27.097 6.646 2.49 6.646 8.47 0 6.993-.69 12.013-.696 12.073v.01h-.008zm-8.264-.668c-.067 0-.134-.006-.2-.017-1.886-.313-6.197-1.764-8.868-3.863-4.066-2.33-7.368-4.83-9.296-7.033-1.76-2.01-2.803-6.166-3.104-9.38-.214-2.992.042-6.484.07-6.73.33-.11.68-.164 1.06-.164 1.412.023 2.92.668 4.962 2.06 1.686 1.09 3.332 2.676 6.192 4.41 3.21 3.166 6.736 6.346 6.76 6.377l.026.032c.213.38 2.03 3.666 3.447 6.846.9 2.026 1.413 3.486 1.62 4.697.117.633.16 1.048-.004 1.426a.721.721 0 0 1-.308.368.866.866 0 0 1-.362.072z" fill="#436126"/>
  <use height="100%" width="100%" xlink:href="#a" transform="matrix(-1 0 0 1 693.742 0)"/>
  <path d="M619.064 76.38l-1.884.76-.738.296-2.284-.126-2.138 1.026-3.792 2.692-.167.12-1.413.368-1.313-.666-.746.34-.268 1.636-.71 1.103-.873.614-3.028.31-2.662 1.316-3.32-.89-1.642.606-3.28 2.963-1.676.794-.686-.034-2.222-.114-.94.307-1.4 1.364-2.662.206-.827.672-1.294 2.608-1.402 1.446-.803.17-.87-.318-.663.116-.296 1.67-.634.698-1.776.612-1.418 1.182-1.246.64-1.667-.043h-.383l-1.66.918-3.126.274-1.3 1.24-.286.264-.606.366-.992.692-.243.147-1.196-.212-1.4.664-.667-.87-.968.68-1.284.066-1.698-.712-1.218-.642-.89.13-.31 1.66-.03.166-.937 1.246-1.747 1.06-.238.308-1.988 2.667-3.777 3.972-3.196 1.623-3.31 1.007-2.318 1.904-6.08 3.014-9.696 4.773-1.962.63-2.816.46-6.024 1.848-4.43 1.338-.247.076-.878.266-6.248 1.89-2.908-.308-1.722.626-4.484-.498-3.118.062-1.974.41-3.71 1.78-6.26 3.01-2.07 1.892-3.22 1.68-3.773 1.196.01-1.686-.024-.067-1.307.413-.946.3-3.06.47h-1.703l-1.066-.306-.166.066-6.264 2.06-6.974.673-3.49 1.12-2.61-.042-1.63.486-3.196.39-1.14-.304-.26-.07-9.4.408-4.297-.486-2.06.466-3.438-1.166-6.016-.68-1.172-.362-2.636-.783-1.193.686-.893.096-2.134-.774-.768-.02-1.762.637-1.013-.26-.942-.76-2.21-.33-1.344-1.13-7.622.996-2.04-.6-6.844-1.992-1.09.066-1.366 1.017-2.04.743-1.768.46-2.41.084-2.798-.736-2.884-1.398-1.067-.264-2.38.24-.727.067-4.374-2.346-6.633-3.622-3.823-1.837-1.436-.232-.193.683.712 2.246.243 2.22-.073 2.06-.04 1.27.367 1.14 1.38 1.63.677 1.636.42 4.227-.006 4.29-.67 6.84-.227 1.042-.8 3.643-.732 3.266-2.837 8.666-.78 1.076-1.912 1.304-4.336 2.96-3.193 1.84-1.01.42-2.692.196-1.614-.086-2.01-1.09-1.973-.607-2.686-1.86-2.876-.694-3.163-1.822-.82-.987-1.717-.16-2.38-.716v-.006l-.873-.26-.604-.177-3.037-.084-2.83-1.308-1.492-.36-2.038-.103-2.133.99v-.002l-1.08.606-1.367-.643-.988.062-1.12 1.692-.166.262-.772.408-.96-.013-.76-.02-.814.366-1.094.474v.002l-.966.422-.472.204-.008-.008-.29.068-.617.09-.64.122-1.128-.66-.6-.363-1.006-.206-.642.39-.106 1.842-.496 1.102-1.67 1.386-1.693 1.404-1.11 1.638-2.942 6.712-1.842 2.708-.672.63-1.927 2.126-1.708 1.326-3.937 3.06-3.727 1.394-3.21.666-1.662.006-2.966-.393-2.66-.816-2.92-1.826-3.2-2.673-4.636-4.68-.666-.393-.137-.09-1.46-.936-1.082.027-.424.7-.232 1.01-.196.896-.632 6.093.04.296.28 2.1 3.62 4.92 1.086 2.613.178.298.727 1.22.663.93.066.096 1.203 3.69-.846 2.027.428 1.368-1.07.83-.196 1.173 3.16 3.962.69 1.748-.77 2.423-1.23 1.337-.342.366.174 1.023 1.464 1.308 2.47 2.2 1.32 3.27 1 .876 1.166-.248.648.496.982-.017.967.966.626.303.99.493.78 1.018.174 3.13 1.467 3.887.023 2.108.008.3.907 1.668.286 1.23-.484 3.266 1.166 1.046 1.264-.267.81.128 1.3 1.084 1.676 2.4 1.64-.226.978.47 4.722 4.267 1.07.64.06.036.77.386.968.967 1.486-.986.166-.018 1.614-.142.71.477 1.362.92 1.787-.024 3.876 1.188 1.696.436 3.408 2.118 1.46.896.867.697 1.138.93 2.276.978 1.962.467 1.068.26.796.31.02-.06.01.002-.018.06 4.227 1.62 2.288.633 2.12.78 1.64.663 1.132.018 1.6-1.346 1.66-.09 1.286.322 1.266-.21 1.988-1.226.388-.676 1.41-.67 4.766-.69 1.39.46 3.668-1.662 2.39.666 2.117-.76 4.623 1.026 1.23.866 1.373 1.672.168.006 1.63.03-.64 1.066 2.02 2.118 1.823 2.766.123.364 1.326 3.89.986 1.38.69 1.924.033 1.264-1.072.818-.176.466-.06.173.217.624.404-.22.77-.427.933-.146 1.663.176 1.09.116 1.724-.866 1.142-.668 1.834.79 2.016-.023.847.376 2.396 1.087 1.222.116.462-.297.288-.684-.148-.797-.916-1.06-2.026-2.36-.83-1.207-.63-1.76-.196-2.234-.14-1.61.262-1.98.643-.708.4-1.676h.007l.103-.412 1.126-1.492 2.98-1.916 3.2-2.866 2.63-1.668 2.607-1.13.07-.317.29.117 6.634-2.266.108-.013 2.964-.614 19.936 1.404.74-.224.002-.006.664-1.864.368-.346.237-.227 2.19-.966 1.026-.146 2.846.702 1.166.288 1.866-1.046 1.324.022 2.734-1.492 1.69.042.64-.267 3.29-2.363 3.17-.908.824-.44.29-.168 3.248-1.716 2.063-1.684 1.78-.947 1.96-.603 6.106-.36 1.027-1.71 2.196-.292 1.326-1.496 1.616-.617 1.088-1.667.91-1.312 1.274-.737 4.08-.266 4.836.6.64-.39 1.092-3.9 1.144-.73 3.08-4.49.01-1.637.004-1.366.606-1.946-.344-3.612.408-3.667 1.916-4.62 1.688-1.823 2.72-1.84 1.384-.604 1.96-.33v-.004l.287-.06.6-.086 6.746-.09c.093-.07 2.463-.036 2.463-.036l2.26-.03 6.69 1.012.406.07 1.923.624 2.22 1.727 2.348 2.294.44.43 1.623.64.46.2 1.267-.2 1.79-.932 1.36-1.142 1.84-1.006.046-.063 1.036-1.66.033-.03.022.006.002-.01-.018-.003.408-.62 3.668-1.387 4.184-.243.47-.266.262-.14 1.106-1.298 1.036-.01 2.608.908 1.766-.36 1.4.66 1.088-.13 2.062-.242 2.203 1.66 1.284.164 4.626 2.648.236.038.122.023.26.042.636-.16.8-.23.106-.03.1.138.616.726.706.102.836-1.114-.33-.606-.127-.184-1.616-.33-1.462-2.48 1.382-1.49-2.17-2.66-.36-.44-.12-.19-.76-1.137-3.798-6.787-4.946-3.948-.002.003-1.732-1.386-.01-.008-.608-.476-2.64-2.687-1.888-2.603-.247-.64-.39-.86-1.13-2.46-1.97-1.618-1.604-1.764-.08-.103-3.31-4.6-.646-.766-.782-.462-1.663-.01-.166-.168-.093-.097.066-.068.793-.788.884-.222.38-.872-1.686-4.883-.01-.17-.126-1.66 1.374-7.084.176-.863 2.342-4.767 1.462-1.19 1.683-3.112 1.366-1.99 1.3-1.266.227-.136 2.347-1.42 1.972-.278 1.878-.266 3.28 1.01 3.12-.06.61-.064 1.416-.163 2.328-.733 1.1-.68.67-.873 1.19-3.99.38-1.27.736-1.378 4.246-4.887 3.21-2.97 7.214-6.29 3.632-2.11 1.803-1.078 16.1-7.167 4.186-4.24 2.18-2.207 3.867-2.688 4.61-1.86 3.886-3.072.848-1.068 1.068-3.442.892-.216.804-1.74.23-.494 3.167-2.234.36-.18 12.31-6.167 1.788.246.96-1.436 3.68-.6.66-.112.883-.44.76-1.28v-.263l.104-3.42.766-.923.417-2.262.39-.62.412-.64 1.014-.714-.176-.426z" fill="#d47600"/>
</svg>
