<svg xmlns="http://www.w3.org/2000/svg" height="480" width="640" version="1">
  <defs>
    <clipPath id="a">
      <path fill-opacity=".67" d="M-86.01 0h682.67v612H-86.01z"/>
    </clipPath>
  </defs>
  <g fill-rule="evenodd" clip-path="url(#a)" transform="translate(79.7) scale(.94)">
    <path fill="#108c00" d="M-268.27 0h1027.6v612h-1027.6z"/>
    <path fill="#ffd600" d="M-260 178.16H772.6v60.162H-260z"/>
    <path fill="#ffd600" d="M181.08 0h48.432v612H181.08z"/>
    <path d="M227.78 0h48.432v612H227.78z"/>
    <path d="M-260 226.69H772.6v60.162H-260z"/>
    <path fill="#fff" d="M-260 276.76H772.6v60.162H-260z"/>
    <path fill="#fff" d="M276.22 0h48.432v612H276.22z"/>
    <rect transform="scale(-1)" ry="137.61" width="273.76" y="-393.87" x="-394.66" height="276.03" fill="#e72910"/>
    <g stroke-width="1pt">
      <path d="M260.61 136.92c0-.268 6.61-16.997 6.61-16.997l6.098 16.74s17.08.616 17.08.267-13.61 10.32-13.61 10.32 6.373 18.062 6.118 17.646c-.266-.616-14.787-10.837-14.787-10.837s-14.787 10.32-14.632 10.32 6.608-17.03 6.608-17.03l-13.266-10.063 16.67-.268z"/>
      <path d="M261.274 137.72c0-.224 4.867-13.866 4.867-13.866l4.417 13.63s14.794.448 14.794.226-11.7 8.938-11.7 8.938 6.62 16.643 6.298 16.196c-.22-.447-12.807-9.386-12.807-9.386s-12.806 8.94-12.684 8.94 4.867-14.76 4.867-14.76l-11.48-8.716 14.36-.223z" fill="#ffe700"/>
      <path d="M263.328 139.987c0-.13 2.8-7.99 2.8-7.99l2.647 7.86s8.63.26 8.63.13-6.747 6.164-6.747 6.164 3.182 9.02 3.066 8.762c-.127-.267-7.384-6.41-7.384-6.41s-7.386 6.163-7.267 6.163 2.8-8.604 2.8-8.604l-6.62-6.026 8.276-.13z" fill="#108c00"/>
    </g>
    <g stroke-width="1pt">
      <path d="M366.876 211.8c0-.268 6.608-16.997 6.608-16.997l6.1 16.74s17.08.616 17.08.267-13.612 10.32-13.612 10.32 6.376 18.062 6.12 17.646c-.266-.616-14.787-10.837-14.787-10.837s-14.786 10.32-14.63 10.32 6.607-17.03 6.607-17.03l-13.266-10.063 16.67-.268z"/>
      <path d="M367.638 212.6c0-.224 4.867-13.866 4.867-13.866l4.416 13.63s14.796.448 14.796.226-11.702 8.938-11.702 8.938 6.62 16.643 6.3 16.196c-.222-.447-12.808-9.386-12.808-9.386s-12.806 8.94-12.686 8.94 4.867-14.76 4.867-14.76l-11.48-8.716 14.36-.223z" fill="#ffe700"/>
      <path d="M369.692 214.867c0-.13 2.8-7.99 2.8-7.99l2.647 7.86s8.63.26 8.63.13-6.748 6.164-6.748 6.164 3.182 9.02 3.066 8.762c-.127-.267-7.384-6.41-7.384-6.41s-7.384 6.163-7.266 6.163 2.8-8.604 2.8-8.604l-6.62-6.026 8.276-.13z" fill="#108c00"/>
    </g>
    <g stroke-width="1pt">
      <path d="M326.876 330.66c0-.268 6.608-16.997 6.608-16.997l6.1 16.74s17.08.616 17.08.267-13.612 10.32-13.612 10.32 6.376 18.062 6.12 17.646c-.266-.616-14.787-10.837-14.787-10.837S316.697 368 316.963 368s6.607-17.03 6.607-17.03l-13.266-10.063 16.67-.268z"/>
      <path d="M326.638 331.46c0-.224 4.867-13.866 4.867-13.866l4.416 13.63s14.796.448 14.796.226-11.702 8.938-11.702 8.938 6.62 16.643 6.3 16.196c-.222-.447-12.808-9.386-12.808-9.386s-12.806 8.94-12.686 8.94 4.867-14.76 4.867-14.76l-11.48-8.716 14.36-.223z" fill="#ffe700"/>
      <path d="M328.692 333.717c0-.13 2.8-7.99 2.8-7.99l2.647 7.86s8.63.26 8.63.13-6.748 6.164-6.748 6.164 3.182 9.02 3.066 8.762c-.127-.267-7.384-6.41-7.384-6.41s-7.384 6.163-7.266 6.163 2.8-8.604 2.8-8.604l-6.62-6.026 8.276-.13z" fill="#108c00"/>
    </g>
    <g stroke-width="1pt">
      <path d="M177.167 330.66c0-.268 6.608-16.997 6.608-16.997l6.1 16.74s17.08.616 17.08.267-13.612 10.32-13.612 10.32 6.374 18.062 6.12 17.646c-.266-.616-14.788-10.837-14.788-10.837S167.99 368 168.246 368s6.607-17.03 6.607-17.03l-13.266-10.063 16.67-.268z"/>
      <path d="M177.93 331.46c0-.224 4.867-13.866 4.867-13.866l4.416 13.63s14.794.448 14.794.226-11.702 8.938-11.702 8.938 6.62 16.643 6.3 16.196c-.222-.447-12.808-9.386-12.808-9.386s-12.806 8.94-12.686 8.94 4.867-14.76 4.867-14.76l-11.482-8.716 14.362-.223z" fill="#ffe700"/>
      <path d="M179.984 333.717c0-.13 2.8-7.99 2.8-7.99l2.647 7.86s8.63.26 8.63.13-6.746 6.164-6.746 6.164 3.182 9.02 3.066 8.762c-.128-.267-7.386-6.41-7.386-6.41s-7.384 6.163-7.266 6.163 2.8-8.604 2.8-8.604l-6.62-6.026 8.274-.13z" fill="#108c00"/>
    </g>
    <g stroke-width="1pt">
      <path d="M160.01 208.74c0-.268 6.608-16.997 6.608-16.997l6.1 16.74s17.08.616 17.08.267-13.612 10.32-13.612 10.32 6.374 18.062 6.12 17.646c-.266-.616-14.788-10.837-14.788-10.837s-14.786 10.32-14.63 10.32 6.607-17.03 6.607-17.03l-13.266-10.063 16.67-.268z"/>
      <path d="M160.773 209.64c0-.224 4.867-13.866 4.867-13.866l4.416 13.63s14.794.448 14.794.226-11.702 8.938-11.702 8.938 6.62 16.643 6.3 16.196c-.222-.447-12.808-9.386-12.808-9.386s-12.806 8.94-12.686 8.94 4.867-14.76 4.867-14.76l-11.48-8.716 14.36-.223z" fill="#ffe700"/>
      <path d="M162.827 211.807c0-.13 2.8-7.99 2.8-7.99l2.647 7.86s8.63.26 8.63.13-6.747 6.164-6.747 6.164 3.182 9.02 3.066 8.762c-.127-.267-7.384-6.41-7.384-6.41s-7.384 6.163-7.266 6.163 2.8-8.604 2.8-8.604l-6.62-6.026 8.276-.13z" fill="#108c00"/>
    </g>
    <g stroke-width="1pt">
      <path d="M324.616 174.14c0 .268-6.608 16.997-6.608 16.997l-6.1-16.74s-17.08-.616-17.08-.267 13.612-10.32 13.612-10.32-6.376-18.062-6.12-17.646c.266.616 14.787 10.837 14.787 10.837s14.786-10.32 14.63-10.32-6.607 17.03-6.607 17.03l13.266 10.063-16.67.268z"/>
      <path d="M323.862 173.34c0 .224-4.867 13.866-4.867 13.866l-4.416-13.63s-14.796-.448-14.796-.226 11.702-8.938 11.702-8.938-6.62-16.643-6.3-16.196c.222.447 12.808 9.386 12.808 9.386s12.806-8.94 12.686-8.94-4.867 14.76-4.867 14.76l11.48 8.716-14.36.223z" fill="#ffe700"/>
      <path d="M321.798 171.073c0 .13-2.8 7.99-2.8 7.99l-2.647-7.86s-8.63-.26-8.63-.13 6.748-6.164 6.748-6.164-3.182-9.02-3.066-8.762c.127.267 7.384 6.41 7.384 6.41s7.384-6.163 7.266-6.163-2.8 8.604-2.8 8.604l6.62 6.026-8.276.13z" fill="#108c00"/>
    </g>
    <g stroke-width="1pt">
      <path d="M367.316 290.28c0 .268-6.608 16.997-6.608 16.997l-6.1-16.74s-17.08-.616-17.08-.267 13.612-10.32 13.612-10.32-6.376-18.062-6.12-17.646c.266.616 14.787 10.837 14.787 10.837s14.786-10.32 14.63-10.32-6.607 17.03-6.607 17.03l13.266 10.063-16.67.268z"/>
      <path d="M366.662 289.48c0 .224-4.867 13.866-4.867 13.866l-4.416-13.63s-14.796-.448-14.796-.226 11.702-8.938 11.702-8.938-6.62-16.643-6.3-16.196c.222.447 12.808 9.386 12.808 9.386s12.806-8.94 12.686-8.94-4.867 14.76-4.867 14.76l11.48 8.716-14.36.223z" fill="#ffe700"/>
      <path d="M364.498 287.213c0 .13-2.8 7.99-2.8 7.99l-2.647-7.86s-8.63-.26-8.63-.13 6.748-6.164 6.748-6.164-3.182-9.02-3.066-8.762c.127.267 7.384 6.41 7.384 6.41s7.384-6.163 7.266-6.163-2.8 8.604-2.8 8.604l6.62 6.026-8.276.13z" fill="#108c00"/>
    </g>
    <g stroke-width="1pt">
      <path d="M261.426 376.26c0 .268-6.608 16.997-6.608 16.997l-6.1-16.74s-17.08-.616-17.08-.267 13.612-10.32 13.612-10.32-6.376-18.062-6.12-17.646c.266.616 14.787 10.837 14.787 10.837s14.786-10.32 14.63-10.32-6.607 17.03-6.607 17.03l13.266 10.063-16.67.268z"/>
      <path d="M260.662 374.46c0 .224-4.867 13.866-4.867 13.866l-4.416-13.63s-14.796-.448-14.796-.226 11.702-8.938 11.702-8.938-6.62-16.643-6.3-16.196c.222.447 12.808 9.386 12.808 9.386s12.806-8.94 12.686-8.94-4.867 14.76-4.867 14.76l11.48 8.716-14.36.223z" fill="#ffe700"/>
      <path d="M268.608 372.183c0 .13-2.8 7.99-2.8 7.99l-2.647-7.86s-8.63-.26-8.63-.13 6.748-6.164 6.748-6.164-3.182-9.02-3.066-8.762c.127.267 7.384 6.41 7.384 6.41s7.384-6.163 7.266-6.163-2.8 8.604-2.8 8.604l6.62 6.026-8.276.13z" fill="#108c00"/>
    </g>
    <g stroke-width="1pt">
      <path d="M161.936 290.28c0 .268-6.608 16.997-6.608 16.997l-6.1-16.74s-17.08-.616-17.08-.267 13.612-10.32 13.612-10.32-6.376-18.062-6.12-17.646c.266.616 14.787 10.837 14.787 10.837s14.786-10.32 14.63-10.32-6.607 17.03-6.607 17.03l13.266 10.063-16.67.268z"/>
      <path d="M161.172 289.48c0 .224-4.867 13.866-4.867 13.866l-4.416-13.63s-14.796-.448-14.796-.226 11.702-8.938 11.702-8.938-6.62-16.643-6.3-16.196c.222.447 12.808 9.386 12.808 9.386s12.806-8.94 12.686-8.94-4.867 14.76-4.867 14.76l11.48 8.716-14.36.223z" fill="#ffe700"/>
      <path d="M169.118 287.213c0 .13-2.8 7.99-2.8 7.99l-2.647-7.86s-8.63-.26-8.63-.13 6.748-6.164 6.748-6.164-3.182-9.02-3.066-8.762c.127.267 7.384 6.41 7.384 6.41s7.384-6.163 7.266-6.163-2.8 8.604-2.8 8.604l6.62 6.026-8.276.13z" fill="#108c00"/>
    </g>
    <g stroke-width="1pt">
      <path d="M198.666 176.86c0 .268-6.608 16.997-6.608 16.997l-6.1-16.74s-17.08-.616-17.08-.267 13.612-10.32 13.612-10.32-6.376-18.062-6.12-17.646c.266.616 14.787 10.837 14.787 10.837s14.786-10.32 14.63-10.32-6.607 17.03-6.607 17.03l13.266 10.063-16.67.268z"/>
      <path d="M197.892 176.06c0 .224-4.867 13.866-4.867 13.866l-4.416-13.63s-14.796-.448-14.796-.226 11.702-8.938 11.702-8.938-6.62-16.643-6.3-16.196c.222.447 12.808 9.386 12.808 9.386s12.806-8.94 12.686-8.94-4.867 14.76-4.867 14.76l11.48 8.716-14.36.223z" fill="#ffe700"/>
      <path d="M196.838 172.783c0 .13-2.8 7.99-2.8 7.99l-2.647-7.86s-8.63-.26-8.63-.13 6.748-6.164 6.748-6.164-3.182-9.02-3.066-8.762c.127.267 7.384 6.41 7.384 6.41s7.384-6.163 7.266-6.163-2.8 8.604-2.8 8.604l6.62 6.026-8.276.13z" fill="#108c00"/>
    </g>
    <g transform="matrix(1.04 0 0 1.04 -260.6 369.43)">
      <g transform="matrix(.16 -.02 0 .18 429.84 -216.63)" stroke="#000" stroke-width="2.6" fill="#009200">
        <ellipse rx="30.806" ry="189.82" transform="matrix(1.4 0 0 1 -634.29 263.72)" cy="686.13" cx="680.21"/>
        <ellipse rx="30.806" ry="189.82" transform="matrix(1.6 0 0 1 -647.22 267.06)" cy="686.13" cx="680.21"/>
        <ellipse rx="30.806" ry="189.82" transform="matrix(1.2 0 0 1.1 -364.93 214.1)" cy="686.13" cx="680.21"/>
      </g>
      <g stroke="#000" transform="translate(72.86 -9.8)">
        <path d="M388.628-62.962c6.994-.333 3.33-3.33 6.327-4.996 2.998-1.666 7.327-.666 8.669 1.332 1.332 1.998.333 3.996 1.998 3.996s46.912-2.636 48.676-.87c1.666 1.666 1.998 4.996.333 6.327-1.666 1.332-68.9 2.868-60.898 1.636-1.998-1.332-4.996-6.993-4.996-7.326z" stroke-width=".601" fill="#a96600"/>
        <path d="M629.69 406.46c0 39.983 46.662 27.88 46.81 61.26-.724 36.407-76.706 3.466-78.636-61.26 1.93-64.716 76.107-97.93 76.706-61.01 1.246 30.686-44.88 21.027-44.88 61.01z" transform="matrix(.16 0 0 .1 340.42 -81.69)" stroke-width="3.863" fill="#ff0"/>
        <path d="M629.69 406.46c0 39.983 46.662 27.88 46.81 61.26-.724 36.407-76.706 3.466-78.636-61.26 1.93-64.716 76.107-97.93 76.706-61.01 1.246 30.686-44.88 21.027-44.88 61.01z" transform="matrix(.16 0 0 .1 344.42 -81.64)" stroke-width="3.863" fill="#ff0"/>
        <path d="M629.69 406.46c0 39.983 46.662 27.88 46.81 61.26-.724 36.407-76.706 3.466-78.636-61.26 1.93-64.716 76.107-97.93 76.706-61.01 1.246 30.686-44.88 21.027-44.88 61.01z" transform="matrix(.16 0 0 .1 348.71 -81.8)" stroke-width="3.863" fill="#ff0"/>
        <path d="M629.69 406.46c0 39.983 46.662 27.88 46.81 61.26-.724 36.407-76.706 3.466-78.636-61.26 1.93-64.716 76.107-97.93 76.706-61.01 1.246 30.686-44.88 21.027-44.88 61.01z" transform="matrix(.16 0 0 .1 362.71 -81.76)" stroke-width="3.863" fill="#ff0"/>
        <ellipse rx="3.634" ry="3.403" transform="matrix(1.1 .02 -.02 1.16 -76.67 4.68)" cy="-41.086" cx="478.38" stroke-width=".399" fill="#a96600"/>
      </g>
      <g transform="rotate(-6.8 688.37 -626.22)" stroke="#000" stroke-width="2.6" fill="#009200">
        <ellipse rx="20.814" ry="24.144" transform="matrix(.17 0 0 .32 369.8 -361.66)" cy="906" cx="427.11"/>
        <ellipse rx="20.814" ry="24.144" transform="matrix(.17 0 0 .32 364.04 -362.7)" cy="906" cx="427.11"/>
        <ellipse rx="20.814" ry="24.144" transform="matrix(.17 0 0 .32 360.64 -370.66)" cy="906" cx="427.11"/>
        <ellipse rx="20.814" ry="24.144" transform="matrix(.16 0 0 .36 369.3 -399.36)" cy="906" cx="427.11"/>
        <ellipse rx="20.814" ry="24.144" transform="matrix(.16 0 0 .33 377.41 -379.07)" cy="906" cx="427.11"/>
        <ellipse rx="20.814" ry="24.144" transform="matrix(.16 0 0 .33 373.22 -382.21)" cy="906" cx="427.11"/>
        <ellipse rx="20.814" ry="24.144" transform="matrix(.16 0 0 .33 367.99 -386.66)" cy="906" cx="427.11"/>
        <ellipse rx="20.814" ry="24.144" transform="matrix(.16 0 0 .33 363.01 -389.64)" cy="906" cx="427.11"/>
      </g>
      <path d="M482.67-141.072s-11.702 10.066-10.09 36.96c1.776 27.046 26.62 39.63 26.62 39.63s6.192-7.742 6.231-29.476c-2.097-31.772-13.868-46.706-13.868-46.706l-7.793-1.299z" stroke="#000" stroke-width=".4662" fill="#804bff"/>
      <g transform="rotate(4.47 180.98 769.89)" stroke="#000" stroke-width="2.6" fill="#009200">
        <ellipse rx="20.814" ry="24.144" transform="matrix(.17 0 0 .32 369.8 -361.66)" cy="906" cx="427.11"/>
        <ellipse rx="20.814" ry="24.144" transform="matrix(.17 0 0 .32 364.04 -362.7)" cy="906" cx="427.11"/>
        <ellipse rx="20.814" ry="24.144" transform="matrix(.17 0 0 .32 360.64 -370.66)" cy="906" cx="427.11"/>
        <ellipse rx="20.814" ry="24.144" transform="matrix(.16 0 0 .36 369.3 -399.36)" cy="906" cx="427.11"/>
        <ellipse rx="20.814" ry="24.144" transform="matrix(.16 0 0 .33 377.41 -379.07)" cy="906" cx="427.11"/>
        <ellipse rx="20.814" ry="24.144" transform="matrix(.16 0 0 .33 373.22 -382.21)" cy="906" cx="427.11"/>
        <ellipse rx="20.814" ry="24.144" transform="matrix(.16 0 0 .33 367.99 -386.66)" cy="906" cx="427.11"/>
        <ellipse rx="20.814" ry="24.144" transform="matrix(.16 0 0 .33 363.01 -389.64)" cy="906" cx="427.11"/>
      </g>
      <ellipse rx="68.28" ry="186.49" stroke="#000" transform="matrix(.16 -.06 .06 .16 369.61 -146.06)" cy="606.11" cx="624.42" stroke-width="1pt" fill="#c90000"/>
      <g stroke="#000" fill="#009200" transform="rotate(1.02 242.4 -1967.8)">
        <ellipse rx="10.823" ry="12.906" transform="matrix(.4 0 0 .3 446.07 -230.63)" cy="366.76" cx="218.13" stroke-width="1.464"/>
        <ellipse rx="10.823" ry="12.906" transform="matrix(.36 0 0 .3 467.17 -236.92)" cy="366.76" cx="218.13" stroke-width="1.646"/>
        <ellipse rx="10.823" ry="12.906" transform="matrix(.36 0 0 .3 462 -236.92)" cy="366.76" cx="218.13" stroke-width="1.646"/>
        <ellipse rx="10.823" ry="12.906" transform="matrix(.37 0 0 .27 449.48 -233.46)" cy="366.76" cx="218.13" stroke-width="1.66"/>
        <ellipse rx="10.823" ry="12.906" transform="matrix(.37 0 0 .27 448.96 -237.93)" cy="366.76" cx="218.13" stroke-width="1.66"/>
        <ellipse rx="10.823" ry="12.906" transform="matrix(.36 0 0 .3 447.01 -238.86)" cy="366.76" cx="218.13" stroke-width="1.646"/>
        <ellipse rx="10.823" ry="12.906" transform="matrix(.36 0 0 .3 448.08 -241.68)" cy="366.76" cx="218.13" stroke-width="1.662"/>
        <ellipse rx="10.823" ry="12.906" transform="matrix(.4 0 0 .3 432.77 -243.48)" cy="366.76" cx="218.13" stroke-width="1.464"/>
        <ellipse rx="10.823" ry="12.906" transform="matrix(.37 0 0 .27 446.92 -243.48)" cy="366.76" cx="218.13" stroke-width="1.66"/>
        <ellipse rx="10.823" ry="12.906" transform="matrix(.36 0 0 .3 444.16 -246.97)" cy="366.76" cx="218.13" stroke-width="1.662"/>
        <ellipse rx="10.823" ry="12.906" transform="matrix(.36 0 0 .3 436.14 -243.17)" cy="366.76" cx="218.13" stroke-width="1.646"/>
        <ellipse rx="10.823" ry="12.906" transform="matrix(.36 0 0 .3 437.42 -243.88)" cy="366.76" cx="218.13" stroke-width="1.662"/>
        <ellipse rx="10.823" ry="12.906" transform="matrix(.36 0 0 .3 438.99 -247.02)" cy="366.76" cx="218.13" stroke-width="1.662"/>
      </g>
      <g stroke="#000" fill="#009200" transform="matrix(.18 0 0 .2 420.99 -216.8)">
        <ellipse rx="67.438" ry="206.64" transform="matrix(.98 -.3 .36 .87 -246.81 324.4)" cy="664.48" cx="628.68" stroke-width="2.646"/>
        <ellipse rx="13.321" ry="40.796" transform="rotate(-23.38 630.62 660.86)" cy="646.07" cx="628.68" stroke-width="2.6"/>
        <path d="M139.87 643.99c0 67.677-18.766 86.17-34.66 110.32 7.616-32.47 12.904-62.637 12.904-110.31 0-67.677 29.68-86.337 40.38-101.99-4.187 16.662-18.734 44.312-18.734 101.99z" transform="matrix(1.88 -.46 .96 1.18 -362.26 -10.02)" stroke-width="1.633"/>
        <path d="M139.87 643.99c0 67.677-18.766 86.17-34.66 110.32 7.616-32.47 12.904-62.637 12.904-110.31 0-67.677 29.68-86.337 40.38-101.99-4.187 16.662-18.734 44.312-18.734 101.99z" transform="matrix(1.88 -.46 .96 1.18 -348.42 44.06)" stroke-width="1.633"/>
        <path d="M139.87 643.99c0 67.677-18.766 86.17-34.66 110.32 7.616-32.47 12.904-62.637 12.904-110.31 0-67.677 29.68-86.337 40.38-101.99-4.187 16.662-18.734 44.312-18.734 101.99z" transform="matrix(1.87 -.6 .98 1.16 -361.92 106.78)" stroke-width="1.633"/>
        <ellipse rx="13.321" ry="40.796" transform="matrix(1.8 -.4 .7 1.64 -916.63 -221.01)" cy="646.07" cx="628.68" stroke-width="1.389"/>
        <ellipse rx="13.321" ry="40.796" transform="matrix(1.63 -.23 .64 1.36 -739.49 -91.78)" cy="646.07" cx="628.68" stroke-width="1.64"/>
        <ellipse rx="13.321" ry="40.796" transform="matrix(1.63 -.2 .6 1.36 -760.62 -91.83)" cy="646.07" cx="628.68" stroke-width="1.64"/>
        <ellipse rx="13.321" ry="40.796" transform="matrix(1.3 -.2 .47 1 -631.06 47.67)" cy="646.07" cx="628.68" stroke-width="2.097"/>
        <ellipse rx="13.321" ry="40.796" transform="matrix(1.33 -.13 .4 1.03 -617.87 12.21)" cy="646.07" cx="628.68" stroke-width="2.097"/>
        <path d="M146.7 669.47c0 34.006-6.712 61.61-14.986 61.61-8.272 0-14.986-27.604-14.986-61.61" transform="matrix(1.03 -.6 .46 1.18 12.77 -14.62)" stroke-width="2.086"/>
        <ellipse rx="13.321" ry="40.796" transform="matrix(1.33 -.13 .4 1.03 -619.63 -34.41)" cy="646.07" cx="628.68" stroke-width="2.097"/>
        <ellipse rx="13.321" ry="40.796" transform="matrix(1.33 -.1 .38 1.04 -633.98 -40.12)" cy="646.07" cx="628.68" stroke-width="2.097"/>
        <path d="M146.7 669.47c0 34.006-6.712 61.61-14.986 61.61-8.272 0-14.986-27.604-14.986-61.61" transform="matrix(.67 -.47 .46 .8 39.49 143.28)" stroke-width="2.88"/>
        <path d="M146.7 669.47c0 34.006-6.712 61.61-14.986 61.61-8.272 0-14.986-27.604-14.986-61.61" transform="matrix(.67 -.47 .46 .8 61.14 126.79)" stroke-width="2.88"/>
        <path d="M146.7 669.47c0 34.006-6.712 61.61-14.986 61.61-8.272 0-14.986-27.604-14.986-61.61" transform="matrix(.94 -.64 .64 1.1 -40.2 -10.74)" stroke-width="2.086"/>
        <path d="M146.7 669.47c0 34.006-6.712 61.61-14.986 61.61-8.272 0-14.986-27.604-14.986-61.61" transform="matrix(.67 -.62 .46 .88 68.63 71.18)" stroke-width="2.742"/>
      </g>
      <g stroke="#000" stroke-width="2.6" fill="#804bff">
        <path d="M276.27 346.41c-12.278 9.174.41 26.144 12.022 30.68 13.06 7.67 86.603 68.184 136.32 11.998-40.796.833-118.66-63.183-148.34-42.678z" transform="matrix(.16 0 0 .22 467.96 -214.27)"/>
        <path d="M276.27 346.41c-12.278 9.174.41 26.144 12.022 30.68 13.06 7.67 86.603 68.184 136.32 11.998-40.796.833-118.66-63.183-148.34-42.678z" transform="matrix(.16 0 0 .22 466.66 -220.16)"/>
        <path d="M276.27 346.41c-12.278 9.174.41 26.144 12.022 30.68 13.06 7.67 86.603 68.184 136.32 11.998-40.796.833-118.66-63.183-148.34-42.678z" transform="matrix(.16 0 0 .22 464.77 -226.77)"/>
        <path d="M276.27 346.41c-12.278 9.174.41 26.144 12.022 30.68 13.06 7.67 86.603 68.184 136.32 11.998-40.796.833-118.66-63.183-148.34-42.678z" transform="matrix(.16 0 0 .22 460.9 -232.2)"/>
      </g>
      <g transform="rotate(1.02 -689.69 681.63)">
        <path d="M211.17 247.3c21.773-12.066 66.618-9.76 79.734 11.166 19.36 16.943 46.307 76.194 70.322 92.834-20.227.018-31.298-6.77-42.24-16.18-28.768 16.44-38.128 16.723-63.89 16.63-36.882-1.333-62.46-17.663-68.18-40.603-6.166-21.804 4.926-62.498 24.264-63.847z" transform="matrix(.2 -.04 .06 .18 407.8 -213.64)" stroke="#000" stroke-width="2.6" fill="#804bff"/>
        <ellipse rx="14.164" ry="14.986" stroke="#000" transform="matrix(.26 0 0 .13 401.82 -216.18)" cy="323.04" cx="287.23" stroke-width="2.6" fill="red"/>
        <ellipse rx="23.264" ry="16.896" stroke="#000" transform="matrix(.2 -.08 .07 .17 398.66 -208.06)" cy="348.26" cx="204.68" stroke-width="2.6" fill="#ff0"/>
        <ellipse rx="6.828" ry="6.828" transform="matrix(.2 0 0 .2 411.29 -233.74)" cy="333.86" cx="283.9"/>
        <path d="M616.8 260.29c4.426 18.107-6.674 43.083-33.133 62.61-26.776 13.172-46.08 41.83-66.64 88.016-47.246-103.27-23.108-148.28 20.6-160.36 37.376-14.363 60.42-13.37 68.173 19.72z" transform="matrix(.1 0 0 .08 417.86 -191.49)" stroke="#000" stroke-width="6.66" fill="#ff0"/>
        <ellipse rx="4.71" ry="4.71" transform="matrix(.2 0 0 .2 418.69 -234.98)" cy="362.39" cx="198.98"/>
      </g>
    </g>
  </g>
</svg>
