<svg xmlns="http://www.w3.org/2000/svg" height="480" width="640" version="1">
  <g fill-rule="evenodd" stroke-width="1pt">
    <path fill="#ffe800" d="M0 0h640v480H0z"/>
    <path fill="#00148e" d="M0 240h640v240H0z"/>
    <path fill="#da0010" d="M0 360h640v120H0z"/>
  </g>
  <g fill-rule="evenodd">
    <path d="M269.66 290.834l-72.424 76.486-1.277-1.644 72.422-76.486 1.277 1.644zm60.462 12.6l-94.777 99.908-1.662-1.672 94.777-99.91 1.662 1.674z"/>
    <path d="M478.36 60.236v88.683l17.717 88.682 17.717-88.683V60.236H478.36z" transform="matrix(-.07 -.07 -.1 .1 266.03 429.66)" stroke="#000" stroke-width="4.104" fill="gray"/>
    <path d="M478.36 60.236v88.683l17.717 88.682 17.717-88.683V60.236H478.36z" transform="matrix(-.07 -.07 -.1 .1 240.69 390.62)" stroke="#000" stroke-width="4.104" fill="gray"/>
  </g>
  <path d="M301.18 272.84s-17.716 336.61 63.16 336.61 106.3-36.433 106.3-36.433l-.86-186.03-168.69-116.16z" fill-rule="evenodd" transform="matrix(.46 0 0 .64 72.37 -69.76)" stroke="#000" stroke-width="1pt" fill="#ffdf00"/>
  <path d="M344.46 304.2c0 17.717-7.846 269.82 27.687 269.82s88.683-17.717 88.683-17.717l-.86-167.31-116.31-84.79z" fill-rule="evenodd" transform="matrix(.46 0 0 .64 72.37 -69.76)" stroke="#000" stroke-width="1pt" fill="#0000c4"/>
  <path d="M367.62 321.16c0 17.717 4.626 217.42 39.968 217.42h63.16l-.86-149.69-92.248-67.833z" fill-rule="evenodd" transform="matrix(.46 0 0 .64 72.37 -69.76)" stroke="#000" stroke-width="1pt" fill="#e10000"/>
  <path d="M206.202 116.02l72.422 76.486 1.277-1.642-72.422-76.486-1.276 1.642z" fill-rule="evenodd"/>
  <path d="M301.18 272.84s-36.433 336.61 70.866 336.61c88.683 0 88.683-63.16 106.3-63.16l-17.72-124.02-169.46-169.44z" fill-rule="evenodd" stroke="#000" stroke-width="1pt" fill="#ffdf00" transform="matrix(.68 0 0 .62 9.63 -10.18)"/>
  <g stroke="#000">
    <path d="M269.69 166.24c1.133 0 28.318-94.016 118.94-147.26" transform="matrix(.4 -.03 -.06 .36 136.14 147.37)" stroke-width="2.306" fill="none"/>
    <path d="M421.37-20.327c0 18.133-4.667 31.716-11.328 46.31-6.627-18.126-9.06-27.177-9.06-46.31s6.83-36.114 12.468-48.707c2.23 12.46 7.93 30.674 7.93 48.707z" fill-rule="evenodd" transform="matrix(.14 -.22 .3 .14 176.87 267.36)" stroke-width="1pt" fill="#006b00"/>
    <path d="M464.22-169.28c0 4.066-3.804 7.363-8.496 7.363s-8.496-3.297-8.496-7.363 3.803-7.363 8.496-7.363 8.496 3.297 8.496 7.363z" fill-rule="evenodd" transform="matrix(.18 -.1 .1 .17 177.61 266.68)" stroke-width="1pt" fill="red"/>
    <path d="M421.37-20.327c0 18.133-4.667 31.716-11.328 46.31-6.627-18.126-9.06-27.177-9.06-46.31s6.83-36.114 12.468-48.707c2.23 12.46 7.93 30.674 7.93 48.707z" fill-rule="evenodd" transform="matrix(.18 .12 -.13 .33 181 96.41)" stroke-width="1pt" fill="#006b00"/>
    <path d="M421.37-20.327c0 18.133-4.667 31.716-11.328 46.31-6.627-18.126-9.06-27.177-9.06-46.31s6.83-36.114 12.468-48.707c2.23 12.46 7.93 30.674 7.93 48.707z" fill-rule="evenodd" transform="matrix(.17 -.03 -.03 .33 179.31 169.26)" stroke-width="1pt" fill="#006b00"/>
    <path d="M421.37-20.327c0 18.133-4.667 31.716-11.328 46.31-6.627-18.126-9.06-27.177-9.06-46.31s6.83-36.114 12.468-48.707c2.23 12.46 7.93 30.674 7.93 48.707z" fill-rule="evenodd" transform="matrix(.06 .26 -.17 .2 227.98 46.46)" stroke-width="1pt" fill="#006b00"/>
    <path d="M421.37-20.327c0 18.133-4.667 31.716-11.328 46.31-6.627-18.126-9.06-27.177-9.06-46.31s6.83-36.114 12.468-48.707c2.23 12.46 7.93 30.674 7.93 48.707z" fill-rule="evenodd" transform="matrix(.2 -.2 .2 .24 160.27 241.08)" stroke-width="1pt" fill="#006b00"/>
    <path d="M421.37-20.327c0 18.133-4.667 31.716-11.328 46.31-6.627-18.126-9.06-27.177-9.06-46.31s6.83-36.114 12.468-48.707c2.23 12.46 7.93 30.674 7.93 48.707z" fill-rule="evenodd" transform="matrix(.22 -.22 .26 .2 136.67 282.11)" stroke-width="1pt" fill="#006b00"/>
    <path d="M421.37-20.327c0 18.133-4.667 31.716-11.328 46.31-6.627-18.126-9.06-27.177-9.06-46.31s6.83-36.114 12.468-48.707c2.23 12.46 7.93 30.674 7.93 48.707z" fill-rule="evenodd" transform="matrix(.26 .1 -.2 .32 130.78 147.66)" stroke-width="1pt" fill="#006b00"/>
    <path d="M421.37-20.327c0 18.133-4.667 31.716-11.328 46.31-6.627-18.126-9.06-27.177-9.06-46.31s6.83-36.114 12.468-48.707c2.23 12.46 7.93 30.674 7.93 48.707z" fill-rule="evenodd" transform="matrix(.16 .2 -.32 .22 178.6 103.36)" stroke-width="1pt" fill="#006b00"/>
    <path d="M421.37-20.327c0 18.133-4.667 31.716-11.328 46.31-6.627-18.126-9.06-27.177-9.06-46.31s6.83-36.114 12.468-48.707c2.23 12.46 7.93 30.674 7.93 48.707z" fill-rule="evenodd" transform="matrix(.08 .1 -.14 .16 260.68 102.64)" stroke-width="1pt" fill="#006b00"/>
    <path d="M421.37-20.327c0 18.133-4.667 31.716-11.328 46.31-6.627-18.126-9.06-27.177-9.06-46.31s6.83-36.114 12.468-48.707c2.23 12.46 7.93 30.674 7.93 48.707z" fill-rule="evenodd" transform="matrix(.1 0 -.08 .17 238.09 136.41)" stroke-width="1pt" fill="#006b00"/>
    <path d="M421.37-20.327c0 18.133-4.667 31.716-11.328 46.31-6.627-18.126-9.06-27.177-9.06-46.31s6.83-36.114 12.468-48.707c2.23 12.46 7.93 30.674 7.93 48.707z" fill-rule="evenodd" transform="matrix(0 .14 -.14 .08 287.38 81.13)" stroke-width="1pt" fill="#006b00"/>
    <path d="M421.37-20.327c0 18.133-4.667 31.716-11.328 46.31-6.627-18.126-9.06-27.177-9.06-46.31s6.83-36.114 12.468-48.707c2.23 12.46 7.93 30.674 7.93 48.707z" fill-rule="evenodd" transform="matrix(.07 .1 -.26 .16 220.69 116.6)" stroke-width="1pt" fill="#006b00"/>
    <path d="M421.37-20.327c0 18.133-4.667 31.716-11.328 46.31-6.627-18.126-9.06-27.177-9.06-46.31s6.83-36.114 12.468-48.707c2.23 12.46 7.93 30.674 7.93 48.707z" fill-rule="evenodd" transform="matrix(.13 .22 -.33 .2 207.03 70.11)" stroke-width="1pt" fill="#006b00"/>
    <path d="M269.69 166.24c1.133 0 28.318-94.016 118.94-147.26" transform="matrix(.36 -.2 .14 .28 111.76 227.82)" stroke-width="2.37" fill="none"/>
    <path d="M464.22-169.28c0 4.066-3.804 7.363-8.496 7.363s-8.496-3.297-8.496-7.363 3.803-7.363 8.496-7.363 8.496 3.297 8.496 7.363z" fill-rule="evenodd" transform="matrix(.18 -.1 .1 .17 200.34 224.62)" stroke-width="1pt" fill="red"/>
    <path d="M464.22-169.28c0 4.066-3.804 7.363-8.496 7.363s-8.496-3.297-8.496-7.363 3.803-7.363 8.496-7.363 8.496 3.297 8.496 7.363z" fill-rule="evenodd" transform="matrix(.18 -.1 .1 .17 211.12 218.26)" stroke-width="1pt" fill="red"/>
    <path d="M464.22-169.28c0 4.066-3.804 7.363-8.496 7.363s-8.496-3.297-8.496-7.363 3.803-7.363 8.496-7.363 8.496 3.297 8.496 7.363z" fill-rule="evenodd" transform="matrix(.2 -.1 .07 .13 166.81 232.7)" stroke-width="1pt" fill="red"/>
    <path d="M464.22-169.28c0 4.066-3.804 7.363-8.496 7.363s-8.496-3.297-8.496-7.363 3.803-7.363 8.496-7.363 8.496 3.297 8.496 7.363z" fill-rule="evenodd" transform="matrix(.2 -.1 .07 .13 169.93 231.34)" stroke-width="1pt" fill="red"/>
    <path d="M464.22-169.28c0 4.066-3.804 7.363-8.496 7.363s-8.496-3.297-8.496-7.363 3.803-7.363 8.496-7.363 8.496 3.297 8.496 7.363z" fill-rule="evenodd" transform="matrix(.2 -.1 .07 .13 168.14 234.26)" stroke-width="1pt" fill="red"/>
    <path d="M262.646 167.262c.407.813-.024 1.863-.963 2.322s-2.029.19-2.436-.623.024-1.863.963-2.322 2.028-.19 2.436.623z" fill-rule="evenodd" stroke-width=".22361pt" fill="red"/>
    <path d="M264.936 164.872c.407.813-.024 1.863-.963 2.322s-2.029.19-2.436-.623.024-1.863.963-2.322 2.028-.19 2.436.623z" fill-rule="evenodd" stroke-width=".22361pt" fill="red"/>
    <path d="M266.616 166.022c.407.813-.024 1.863-.963 2.322s-2.029.19-2.436-.623.024-1.863.963-2.322 2.028-.19 2.436.623z" fill-rule="evenodd" stroke-width=".22361pt" fill="red"/>
  </g>
  <path d="M336.61 308.27c0 17.717-36.433 212.6 63.16 266.76 36.433 17.716 88.682-17.717 88.682 0l-17.71-141.74-124.02-124.01z" fill-rule="evenodd" transform="matrix(.68 0 0 .62 9.63 -10.18)" stroke="#000" stroke-width="1pt" fill="#0000c4"/>
  <path d="M372.06 343.7c0 17.717-17.716 169.46 36.433 194.88 36.433 36.433 124.02 26.822 124.02 26.822l-70.87-132.12-88.68-88.68z" fill-rule="evenodd" stroke="#000" stroke-width="1pt" fill="#e10000" transform="matrix(.68 0 0 .62 9.63 -10.18)"/>
  <path d="M183.86 168.08l94.776 99.91 1.662-1.673-94.776-99.91-1.66 1.674z" fill-rule="evenodd"/>
  <path d="M460.63 184.26l17.716 36.433V237.4c-.866-1.306 0 17.716-17.716 17.716-17.717 0-17.717-36.433-17.717-36.433s-17.716 36.433-17.716 70.866 17.716 63.16 17.716 63.16-2.61-36.704 17.717-36.434c20.328 1.27 17.716 17.716 17.716 17.716v36.433h17.717v-141.73l17.717-36.433-27.136-63.16-26.014 63.16z" fill-rule="evenodd" transform="matrix(.14 -.14 .1 .1 86.36 192.16)" stroke="#000" stroke-width="1pt" fill="#cececc"/>
  <path d="M667.82 96.67l-26.323 70.866 17.717 63.16-36.433-17.716 36.434 63.148v36.433h17.716v-36.43l36.433-63.16-36.433 17.717 17.717-63.16L667.82 96.67z" fill-rule="evenodd" transform="matrix(.1 -.16 .14 .1 113.99 183.83)" stroke="#000" stroke-width="1pt" fill="#cececc"/>
  <path d="M422.63 136.96c0 2.068-1.968 3.746-4.37 3.746-2.413 0-4.372-1.678-4.372-3.746s1.96-3.747 4.37-3.747c2.414 0 4.372 1.68 4.372 3.747zm-6.244 7.91c0 36.8 20.917 187.81 22.682 191.66.14 4.44-4.718 6.382-7.077.832-6.66-17.342-20.743-169.91-21.332-193.22-.244-13.734 3.76-14.8 8.326-14.67 3.76.21 8.326 3.726 8.326 7.91 0 4.996-6.83 8.74-10.824 7.492z" fill-rule="evenodd" transform="matrix(.4 0 0 .3 43.76 69.8)" stroke="#000" stroke-width="1pt" fill="#e10000"/>
  <path d="M422.63 136.96c0 2.068-1.968 3.746-4.37 3.746-2.413 0-4.372-1.678-4.372-3.746s1.96-3.747 4.37-3.747c2.414 0 4.372 1.68 4.372 3.747zm-6.244 7.91c31.488 61.414 48.722 166.77 60.387 170.62.14 4.44-4.718 6.382-7.077.832-2.48-3.316-12.667-100.18-49.138-172.18-.244-13.734 3.76-14.8 8.326-14.67 3.76.21 8.326 3.726 8.326 7.91 0 4.996-6.83 8.74-10.824 7.492z" fill-rule="evenodd" transform="matrix(.38 .1 -.16 .3 76.06 38.16)" stroke="#000" stroke-width="1pt" fill="#0000c4"/>
  <path d="M186.666 161.64c0 1.034-.979 1.873-2.186 1.873-1.207 0-2.186-.839-2.186-1.873s.98-1.873 2.186-1.873c1.207 0 2.186.84 2.186 1.873zm-3.122 3.966c0 17.9 10.468 93.906 11.291 96.78.07 2.22-2.369 3.191-3.639.416-3.276-8.671-10.371-79.966-10.666-96.61-.122-6.867 1.88-7.4 4.163-7.286 1.88.106 4.163 1.863 4.163 3.966 0 2.498-2.916 4.37-6.412 3.746z" fill-rule="evenodd" stroke="#000" stroke-width=".6pt" fill="#e10000"/>
  <path d="M422.63 136.96c0 2.068-1.968 3.746-4.37 3.746-2.413 0-4.372-1.678-4.372-3.746s1.96-3.747 4.37-3.747c2.414 0 4.372 1.68 4.372 3.747zm-6.244 7.91c31.488 61.414 48.722 166.77 60.387 170.62.14 4.44-4.718 6.382-7.077.832-2.48-3.316-12.667-100.18-49.138-172.18-.244-13.734 3.76-14.8 8.326-14.67 3.76.21 8.326 3.726 8.326 7.91 0 4.996-6.83 8.74-10.824 7.492z" fill-rule="evenodd" transform="matrix(.48 .16 -.2 .48 16.67 31.68)" stroke="#000" stroke-width="1pt" fill="#0000c4"/>
  <g fill-rule="evenodd">
    <path d="M370.464 290.834l72.423 76.486 1.277-1.644-72.423-76.486-1.276 1.644zM320 303.334l94.778 99.908 1.662-1.672-94.777-99.91-1.662 1.674z"/>
    <path d="M478.36 60.236v88.683l17.717 88.682 17.717-88.683V60.236H478.36z" transform="matrix(.07 -.07 .1 .1 374.97 429.66)" stroke="#000" stroke-width="4.104" fill="gray"/>
    <path d="M478.36 60.236v88.683l17.717 88.682 17.717-88.683V60.236H478.36z" transform="matrix(.07 -.07 .1 .1 399.41 390.62)" stroke="#000" stroke-width="4.104" fill="gray"/>
  </g>
  <g fill-rule="evenodd" stroke-width="1pt">
    <path d="M301.18 272.84s-17.716 336.61 63.16 336.61 106.3-36.433 106.3-36.433l-.86-186.03-168.69-116.16z" transform="matrix(-.46 0 0 .64 667.66 -69.76)" stroke="#000" fill="#ffdf00"/>
    <path d="M344.46 304.2c0 17.717-7.846 269.82 27.687 269.82s88.683-17.717 88.683-17.717l-.86-167.31-116.31-84.79z" transform="matrix(-.46 0 0 .64 667.66 -69.76)" stroke="#000" fill="#0000c4"/>
    <path d="M367.62 321.16c0 17.717 4.626 217.42 39.968 217.42h63.16l-.86-149.69-92.248-67.833z" transform="matrix(-.46 0 0 .64 667.66 -69.76)" stroke="#000" fill="#e10000"/>
    <path d="M433.814 116.02l-72.423 76.486-1.276-1.642 72.423-76.486 1.277 1.642z"/>
    <g stroke="#000" fill="#006b00">
      <path d="M428.17-16.928s81.666 90.618 111.01 164.06c29.46 63.432 64.37 166.32 64.37 166.32s2.266-86.086-36.246-163.11c-62.1-97.42-131.4-142.73-129.13-147.26z" transform="matrix(.16 -.07 .08 .36 309.61 210.98)"/>
      <path d="M428.17-16.928s81.666 90.618 111.01 164.06c29.46 63.432 64.37 166.32 64.37 166.32s2.266-86.086-36.246-163.11c-62.1-97.42-131.4-142.73-129.13-147.26z" transform="matrix(.2 -.06 .07 .4 291.49 182.67)"/>
      <path d="M428.17-16.928s81.666 90.618 111.01 164.06c29.46 63.432 64.37 166.32 64.37 166.32s2.266-86.086-36.246-163.11c-62.1-97.42-131.4-142.73-129.13-147.26z" transform="matrix(.23 .14 -.03 .4 296.48 69.41)"/>
      <path d="M428.17-16.928s81.666 90.618 111.01 164.06c29.46 63.432 64.37 166.32 64.37 166.32s2.266-86.086-36.246-163.11c-62.1-97.42-131.4-142.73-129.13-147.26z" transform="matrix(.26 .03 .02 .44 274.4 114.91)"/>
      <path d="M428.17-16.928s81.666 90.618 111.01 164.06c29.46 63.432 64.37 166.32 64.37 166.32s2.266-86.086-36.246-163.11c-62.1-97.42-131.4-142.73-129.13-147.26z" transform="matrix(.18 .17 -.04 .36 329.99 66.98)"/>
      <path d="M428.17-16.928s81.666 90.618 111.01 164.06c29.46 63.432 64.37 166.32 64.37 166.32s2.266-86.086-36.246-163.11c-62.1-97.42-131.4-142.73-129.13-147.26z" transform="matrix(.23 0 .03 .4 280.68 141.86)"/>
      <path d="M428.17-16.928s81.666 90.618 111.01 164.06c29.46 63.432 64.37 166.32 64.37 166.32s2.266-86.086-36.246-163.11c-62.1-97.42-131.4-142.73-129.13-147.26z" transform="matrix(.2 -.07 .07 .38 290.14 196.84)"/>
      <path d="M428.17-16.928s81.666 90.618 111.01 164.06c29.46 63.432 64.37 166.32 64.37 166.32s2.266-86.086-36.246-163.11c-62.1-97.42-131.4-142.73-129.13-147.26z" transform="matrix(.2 -.03 .06 .4 292.69 166.78)"/>
      <path d="M428.17-16.928s81.666 90.618 111.01 164.06c29.46 63.432 64.37 166.32 64.37 166.32s2.266-86.086-36.246-163.11c-62.1-97.42-131.4-142.73-129.13-147.26z" transform="matrix(.22 .16 -.06 .38 306.08 66.61)"/>
      <path d="M428.17-16.928s81.666 90.618 111.01 164.06c29.46 63.432 64.37 166.32 64.37 166.32s2.266-86.086-36.246-163.11c-62.1-97.42-131.4-142.73-129.13-147.26z" transform="matrix(.24 .06 0 .44 278.88 97.67)"/>
      <path d="M428.17-16.928s81.666 90.618 111.01 164.06c29.46 63.432 64.37 166.32 64.37 166.32s2.266-86.086-36.246-163.11c-62.1-97.42-131.4-142.73-129.13-147.26z" transform="matrix(.17 .17 -.06 .33 338.96 70)"/>
      <path d="M428.17-16.928s81.666 90.618 111.01 164.06c29.46 63.432 64.37 166.32 64.37 166.32s2.266-86.086-36.246-163.11c-62.1-97.42-131.4-142.73-129.13-147.26z" transform="matrix(.24 .02 0 .4 276.43 128.02)"/>
    </g>
    <path d="M301.18 272.84s-36.433 336.61 70.866 336.61c88.683 0 88.683-63.16 106.3-63.16l-17.72-124.02-169.46-169.44z" transform="matrix(-.68 0 0 .62 630.39 -10.18)" stroke="#000" fill="#ffdf00"/>
    <path d="M336.61 308.27c0 17.717-36.433 212.6 63.16 266.76 36.433 17.716 88.682-17.717 88.682 0l-17.71-141.74-124.02-124.01z" transform="matrix(-.68 0 0 .62 630.39 -10.18)" stroke="#000" fill="#0000c4"/>
    <path d="M372.06 343.7c0 17.717-17.716 169.46 36.433 194.88 36.433 36.433 124.02 26.822 124.02 26.822l-70.87-132.12-88.68-88.68z" transform="matrix(-.68 0 0 .62 630.39 -10.18)" stroke="#000" fill="#e10000"/>
    <path d="M466.172 168.08l-94.777 99.91-1.66-1.673 94.776-99.91 1.662 1.674z"/>
    <path d="M460.63 184.26l17.716 36.433V237.4c-.866-1.306 0 17.716-17.716 17.716-17.717 0-17.717-36.433-17.717-36.433s-17.716 36.433-17.716 70.866 17.716 63.16 17.716 63.16-2.61-36.704 17.717-36.434c20.328 1.27 17.716 17.716 17.716 17.716v36.433h17.717v-141.73l17.717-36.433-27.136-63.16-26.014 63.16z" transform="matrix(-.14 -.14 -.1 .1 663.66 192.16)" stroke="#000" fill="#cececc"/>
    <path d="M667.82 96.67l-26.323 70.866 17.717 63.16-36.433-17.716 36.434 63.148v36.433h17.716v-36.43l36.433-63.16-36.433 17.717 17.717-63.16L667.82 96.67z" transform="matrix(-.1 -.16 -.14 .1 626.03 183.83)" stroke="#000" fill="#cececc"/>
    <path d="M422.63 136.96c0 2.068-1.968 3.746-4.37 3.746-2.413 0-4.372-1.678-4.372-3.746s1.96-3.747 4.37-3.747c2.414 0 4.372 1.68 4.372 3.747zm-6.244 7.91c0 36.8 20.917 187.81 22.682 191.66.14 4.44-4.718 6.382-7.077.832-6.66-17.342-20.743-169.91-21.332-193.22-.244-13.734 3.76-14.8 8.326-14.67 3.76.21 8.326 3.726 8.326 7.91 0 4.996-6.83 8.74-10.824 7.492z" transform="matrix(-.4 0 0 .3 696.29 69.8)" stroke="#000" fill="#e10000"/>
    <path d="M422.63 136.96c0 2.068-1.968 3.746-4.37 3.746-2.413 0-4.372-1.678-4.372-3.746s1.96-3.747 4.37-3.747c2.414 0 4.372 1.68 4.372 3.747zm-6.244 7.91c31.488 61.414 48.722 166.77 60.387 170.62.14 4.44-4.718 6.382-7.077.832-2.48-3.316-12.667-100.18-49.138-172.18-.244-13.734 3.76-14.8 8.326-14.67 3.76.21 8.326 3.726 8.326 7.91 0 4.996-6.83 8.74-10.824 7.492z" transform="matrix(-.38 .1 .16 .3 663.96 38.16)" stroke="#000" fill="#0000c4"/>
    <path d="M463.346 161.64c0 1.034.979 1.873 2.186 1.873 1.207 0 2.186-.839 2.186-1.873s-.98-1.873-2.186-1.873c-1.207 0-2.186.84-2.186 1.873zm3.122 3.966c0 17.9-10.468 93.906-11.291 96.78-.07 2.22 2.369 3.191 3.639.416 3.276-8.671 10.371-79.966 10.666-96.61.122-6.867-1.88-7.4-4.163-7.286-1.88.106-4.163 1.863-4.163 3.966 0 2.498 2.916 4.37 6.412 3.746z" stroke="#000" fill="#e10000" stroke-width=".6pt"/>
    <path d="M422.63 136.96c0 2.068-1.968 3.746-4.37 3.746-2.413 0-4.372-1.678-4.372-3.746s1.96-3.747 4.37-3.747c2.414 0 4.372 1.68 4.372 3.747zm-6.244 7.91c31.488 61.414 48.722 166.77 60.387 170.62.14 4.44-4.718 6.382-7.077.832-2.48-3.316-12.667-100.18-49.138-172.18-.244-13.734 3.76-14.8 8.326-14.67 3.76.21 8.326 3.726 8.326 7.91 0 4.996-6.83 8.74-10.824 7.492z" transform="matrix(-.48 .16 .2 .48 623.32 31.68)" stroke="#000" fill="#0000c4"/>
  </g>
  <g fill-rule="evenodd" stroke="#000" stroke-width="1pt">
    <path d="M478.36 698.03c17.717 10.662 37.09 8.268 63.16 0V666.3h-36.433c17.717 63.16 17.717 106.3-17.717 141.73z" fill="#e10000" transform="matrix(.68 0 0 .62 9.63 -10.18)"/>
    <path d="M613.78 609.46c0 88.682-42.466 108.27-42.466 126.98 17.716 0 29.466-8.248 42.466-19.686 17.716-17.717 19.426-107.68 17.716-106.3H613.78z" transform="matrix(.36 0 0 .7 123.48 -89.93)" fill="#0000c4"/>
    <path d="M478.36 609.46c-.81 61.77-44.794 99.64-36.497 110.24 9.474 9.476 36.497-21.664 71.93-3.937 17.717-17.717 19.427-107.68 17.717-106.3h-63.16z" transform="matrix(.36 0 0 .7 123.48 -89.93)" fill="#0000c4"/>
    <path d="M613.78 609.46c0 88.682-40.696 94.47-40.696 118.09 17.717 0 40.603-12.912 40.696-11.79 17.716-17.718 19.426-107.68 17.716-106.3H613.78z" transform="matrix(.36 0 0 .46 112.62 61)" fill="#ffdf00"/>
    <path d="M478.36 609.46c-.81 61.77-43.73 96.702-36.433 106.3 9.474 9.476 36.433-17.717 70.867 0 17.716-17.717 19.426-107.68 17.716-106.3h-63.16z" transform="matrix(.36 0 0 .46 112.62 61)" fill="#ffdf00"/>
    <path d="M478.36 698.03c17.717 10.662 37.09 8.262 63.16-.016v-141.72h-36.433c17.717 63.16 17.717 106.3-17.717 141.73z" transform="matrix(-.68 0 0 .62 630.39 -10.17)" fill="#e10000"/>
    <path d="M613.78 609.46c0 88.682-42.466 108.27-42.466 126.98 17.716 0 29.466-8.248 42.466-19.686 17.716-17.717 19.426-107.68 17.716-106.3H613.78z" transform="matrix(-.36 0 0 .7 616.63 -89.92)" fill="#0000c4"/>
    <path d="M478.36 609.46c-.81 61.77-44.794 99.64-36.497 110.24 9.474 9.476 36.497-21.664 71.93-3.937 17.717-17.717 19.427-107.68 17.717-106.3h-63.16z" transform="matrix(-.36 0 0 .7 616.63 -89.92)" fill="#0000c4"/>
    <path d="M613.78 609.46c0 88.682-40.696 94.47-40.696 118.09 17.717 0 40.603-12.912 40.696-11.79 17.716-17.718 19.426-107.68 17.716-106.3H613.78z" transform="matrix(-.36 0 0 .46 627.61 61.01)" fill="#ffdf00"/>
    <path d="M478.36 609.46c-.81 61.77-43.73 96.702-36.433 106.3 9.474 9.476 36.433-17.717 70.867 0 17.716-17.717 19.426-107.68 17.716-106.3h-63.16z" transform="matrix(-.36 0 0 .46 627.61 61)" fill="#ffdf00"/>
  </g>
  <g stroke="#000" fill-rule="evenodd">
    <path d="M198.66 77.962l-89.676 36.434 89.676 36.434 44.837-17.717 22.42 17.717 22.418 36.433 22.42-36.433 22.418-17.717 1201.9-.002V96.668l-1201.9.002-22.42-17.718c0-17.716 4.704-36.433 22.42-36.433 17.717 0 64.242-.003 89.676-.003 0-17.716-44.838-63.16-134.61-63.16-89.676 0-134.61 36.434-134.61 63.16l89.676.002c17.716 0 22.42 17.716 22.42 36.432l-22.44 17.717-44.84-17.717z" transform="matrix(.12 0 0 .22 217.8 324.36)" stroke-width="4.467" fill="#908f8a"/>
    <path transform="matrix(.28 0 0 .27 216.06 334.6)" stroke-width="1.838" fill="#b74d00" d="M204.36 96.67h336.61v17.718H204.36z"/>
    <path transform="matrix(.28 0 0 .27 216.06 334.6)" stroke-width="1.838" fill="#b74d00" d="M204.36 77.966h336.61v17.717H204.36zm0-17.718h336.61v17.717H204.36z"/>
    <path transform="matrix(.28 0 0 .27 216.06 334.6)" stroke-width="1.838" fill="#b74d00" d="M204.36 42.622h336.61V60.24H204.36zm0-17.717h336.61v17.717H204.36z"/>
    <path transform="matrix(.28 0 0 .27 216.06 334.6)" stroke-width="1.838" fill="#b74d00" d="M204.36 7.09h336.61v17.716H204.36zm0-17.718h336.61V7.09H204.36z"/>
    <path d="M423.23 60.236l137.8 124.02h19.686l-137.8-124.02H423.23z" transform="matrix(.26 0 0 .27 171.89 316.18)" stroke-width="3.266" fill="#908f8a"/>
    <path d="M423.23 60.236l137.8 124.02h19.686l-137.8-124.02H423.23z" transform="matrix(.26 0 0 -.27 171.89 382.19)" stroke-width="3.266" fill="#908f8a"/>
    <path d="M426.2 60.236v124.02h17.716V60.236H426.2z" transform="matrix(.28 0 0 .27 169.66 316.18)" stroke-width="3.087" fill="#908f8a"/>
    <path d="M423.23 60.236l137.8 124.02h19.686l-137.8-124.02H423.23z" transform="matrix(.26 0 0 .27 216.23 316.18)" stroke-width="3.266" fill="#908f8a"/>
    <path d="M423.23 60.236l137.8 124.02h19.686l-137.8-124.02H423.23z" transform="matrix(.26 0 0 -.27 216.23 382.19)" stroke-width="3.266" fill="#908f8a"/>
    <path d="M426.2 60.236v124.02h17.716V60.236H426.2z" transform="matrix(.28 0 0 .27 238.4 316.18)" stroke-width="3.087" fill="#908f8a"/>
    <path d="M426.2 60.236v124.02h17.716V60.236H426.2z" transform="matrix(.28 0 0 .27 203.91 316.18)" stroke-width="3.087" fill="#908f8a"/>
    <path d="M426.2 60.236v124.02h17.716V60.236H426.2z" transform="matrix(.28 0 0 .27 194.06 316.18)" stroke-width="3.087" fill="#908f8a"/>
  </g>
  <g stroke="#000" stroke-width="1pt" fill="#ffdf00" fill-rule="evenodd">
    <path d="M666.61 396.86c0 88.016-66.66 169.46-124.02 169.46-68.466 0-124.02-71.433-124.02-169.46 0-88.016 66.66-169.46 124.02-169.46 68.467 0 124.02 71.433 124.02 169.46zm-17.717 0c0 78.237-47.622 141.73-106.3 141.73-68.677 0-106.3-63.496-106.3-141.73 0-78.236 47.622-141.73 106.3-141.73 68.677 0 106.3 63.497 106.3 141.73z" transform="matrix(.68 0 0 .62 9.63 -10.18)"/>
    <path d="M679.76 249.94c-14.836-8.072-31.144-12.637-48.268-12.637s-33.422 4.466-48.267 12.637l6.893 16.323c12.716-7.176 26.696-11.144 41.364-11.144s28.648 3.968 41.364 11.143l6.894-16.323z" transform="matrix(.68 0 0 .62 9.63 -10.18)"/>
    <path d="M679.76 249.94c-14.836-8.072-31.144-12.637-48.268-12.637s-33.422 4.466-48.267 12.637l6.893 16.323c12.716-7.176 26.696-11.144 41.364-11.144s28.648 3.968 41.364 11.143l6.894-16.323z" transform="matrix(.68 0 0 -.62 9.76 479.31)"/>
  </g>
  <path d="M379.664 236.867c0 48.632-27.603 87.873-61.664 87.873-34.06 0-61.664-39.343-61.664-87.873 0-48.632 27.603-87.873 61.664-87.873 34.06 0 61.664 39.343 61.664 87.873z" fill-rule="evenodd" fill="#a7cfff"/>
  <path d="M637.8 396.86c1.133 26.668-4.634 39.636-11.89 67.366-1.912 2.98-10.966-6.637-16.447-11.236s-7.812 4.24-14.637-3.046c-6.726-7.284-11.06 2.068-16.983-4.096s-61.3-7.067-61.366-7.686c4.69-2.276 28.27.162 24.474-11.193-4.3-11.72-31.093-.36-34.69-16.364-2.44-14.907-63.667-16.643-67.22-19.226 1.444 6.666 39.728 8.06 38.814 22.67-.833 6.916-37.693 7.646-41.247 12.662-3.046 6.296 28.927-1.707 30.114 6.032-.077 3.186-4.704.068-21.367 4.99-8.326 2.46 16.464 10.33 6.41 14.637-9.046 4.308-28.26 6.188-27.433 7.998 2.94 8.908 44.693 19.636 40.636 21.066-14.764 6.66-22.662 10.872-29.627 14.662-19.24-26.663-31.146-61.087-31.146-100.2 31.716-11.406 24.968-13.736 83.646-13.736s77.98 2.33 128.96 13.736z" fill-rule="evenodd" stroke="#000" stroke-width="1pt" fill="#afff7b" transform="matrix(.68 0 0 .62 9.63 -10.18)"/>
  <path d="M637.8 396.86c-8.07 0-16.464 3.4-26.07 3.4-8.617 0-17.466-3.4-26.466-3.4s-19.287 4.632-28.612 4.632c-9.224 0-17.388-4.63-26.676-4.63-9.287 0-18.666 3.397-27.766 3.397s-18.288-3.4-27.218-3.4-17.69 3.4-26.2 3.4-16.77-3.4-24.7-3.4c0-19.66 2.976-38.197 8.368-66.16 27.076 2 11.042-16.716 27.076-16.716 8.666 0 17.434 1.86 26.238 9.788 2.447 0 14.48-11.373 27.912-9.788 13.432 1.686 8.492 27.272 26.37 28.637 9.063 6.797 14.393 11.134 26.78 13.872 17.716 1.606 68.36-2.6 68.704-.194a188.21 188.21 0 0 1 2.16 28.662z" fill-rule="evenodd" stroke="#000" stroke-width="1pt" fill="#fff" transform="matrix(.68 0 0 .62 9.63 -10.18)"/>
  <path d="M649.86 473.94c0-6.664 13.612-9.462 13.612-18.624s-11.914-9.36-12.38-17.86c-.2-3.46 10.32-7.046 14.916-7.336s8.493 7.42 8.493 9.12-4.662-4.192-8.678-4.378-12.313.63-12.313 2.33c0 3.4 14.86 7.698 13.717 18.926-1.132 11.327-12.71 14.667-12.71 18.066s6.066 12.86 6.066 12.86-9.713-7.63-9.713-13.192z" fill-rule="evenodd" transform="matrix(.2 0 0 .48 217.23 69.6)" stroke="#000" stroke-width="1pt"/>
  <path d="M649.86 473.94c0-6.664 13.612-9.462 13.612-18.624s-11.96-9.348-12.38-17.86c-.946-3.962 11.814-6.644 16.41-6.833s9.986 7.92 9.986 9.62-6.41-6.196-9.326-6.38-14.663.63-14.663 2.33c0 3.398 14.86 7.697 13.717 18.924-1.132 11.327-12.71 14.667-12.71 18.066s6.066 12.86 6.066 12.86-9.713-7.63-9.713-13.192z" fill-rule="evenodd" transform="matrix(-.2 0 0 .48 446.83 69.12)" stroke="#000" stroke-width="1pt"/>
  <path d="M332.966 264.846c0 1.333-.66 2.413-1.464 2.413-.803 0-1.464-1.08-1.464-2.414s.66-2.413 1.466-2.413c.804 0 1.466 1.08 1.466 2.413zm16.961 8.964h.466v19.617h-.464zm4.182-1.487h.464v19.616h-.464z" fill-rule="evenodd"/>
  <path fill-rule="evenodd" d="M362.697 281.23l.004-.493 3.978.684-.004.496z"/>
  <path d="M497.26 478.07s26.062 11.328 31.716 18.124c6.664 6.797 3.398 6.796 3.398 6.796l67.77 2.266c0-3.398 10.193-3.4 12.46-11.328 2.264-7.93 2.264-10.194 2.264-10.194l-18.123 6.664 1.132-10.194H672.02l-2.266 10.194-33.982-1.133 2.266-27.186-6.796 1.132-1.133 26.063c-1.134 0-31.718-7.93-32.86-10.196z" fill-rule="evenodd" transform="matrix(.68 0 0 .62 6.99 -9.48)" stroke="#000" stroke-width="1pt" fill="#b74d00"/>
  <path d="M440.63 316.28s37.646-11.214 92.11-10.413 92.11 12.816 91.31 12.816-10.414-18.422-10.414-18.422-38.446-10.412-81.697-11.213c-43.263-.8-80.898 8.01-80.097 8.81L440.63 316.28z" fill-rule="evenodd" stroke="#fede00" stroke-width="1pt" fill="#fede00" transform="matrix(.68 0 0 .62 9.63 -10.18)"/>
  <path fill-rule="evenodd" fill="#38a9f9" d="M306.072 169.866l13.662-.262.137 7.9-13.66.264zm-31.297 4.3l-4.783 7.784 16.166-1.992-1.297-7.783-10.086 1.99zm13.778-2.996l13.618-1.187.62 7.876-13.616 1.187zm48.837-.806l-13.638-.91-.476 7.888 13.637.91zm29.182 4.963l4.918 9.69-14.642-3.614 1.63-7.714 8.094 1.637zm-11.736-2.817l-13.463-1.83-.967 7.837 13.463 1.832z"/>
  <path fill-rule="evenodd" stroke="#000" stroke-width="1pt" fill="#ffdf00" d="M632.64 323.49l-2.68-13.47-7.64 11.46 2.77-13.43-11.34 7.7 7.7-11.36-13.43 2.78 11.46-7.64-13.47-2.68 13.47-2.68-11.46-7.63 13.43 2.77-7.7-11.36 11.34 7.7-2.77-13.43 7.64 11.46 2.68-13.47 2.67 13.47 7.64-11.46-2.77 13.43 11.36-7.7-7.71 11.36 13.44-2.77-11.46 7.63 13.47 2.68-13.47 2.68 11.46 7.64-13.44-2.78 7.71 11.36-11.36-7.7 2.77 13.43-7.64-11.46z" transform="matrix(.68 0 0 .62 9.63 -10.18)"/>
  <path d="M647.06 293.86c0 9.29-6.634 16.82-14.818 16.82s-14.818-7.63-14.818-16.82 6.634-16.82 14.818-16.82 14.818 7.63 14.818 16.82z" fill-rule="evenodd" transform="matrix(.67 0 0 .6 18.27 21.76)" stroke="#000" stroke-width="1pt" fill="#ffdf00"/>
  <path d="M320.676 170.662c0 .646-1.267.988-2.807.988s-2.807-.443-2.807-.988 1.266-.988 2.806-.988 2.806.442 2.806.988zm6.079-.002c0 .647-.943.99-2.106.99s-2.106-.443-2.106-.99c0-.644.942-.987 2.106-.987s2.106.443 2.106.988z" fill-rule="evenodd"/>
  <path d="M629.43 297.86l.8.8c-1.9-1.9-.996-1.126 1.603 3.204 2.393-.496 3.09-1.39 4.806-2.403" transform="matrix(.66 -.18 .17 .6 -26.71 90.63)" stroke="#000" stroke-width="1pt" fill="none"/>
  <path d="M627.83 304.27l.8.8c-1.9-1.9-1.123-.994 3.206 1.603 4.027.644 8.092-1.196 10.412-4.006" transform="matrix(.68 0 0 .62 8.7 -10.18)" stroke="#000" stroke-width="1pt" fill="none"/>
  <path d="M281.396 194.864s.93 7.946-6.11 17.877c-6.04 9.933-6.11 6.467-6.11 6.467s2.787 6.462 2.323 6.462-4.646-4.966-4.646-4.966l-6.11 6.462s4.646-8.442 4.18-8.442-1.393-2.98-1.393-2.98l3.716-1.49s6.676-10.428 6.676-9.93-16.724 11.42-16.724 11.42l22.3-18.87zm3.718 2.982c-.466 0 2.322 7.946 4.646 11.918 2.323 3.973 2.323 8.94 2.323 8.94l7.9 3.972-10.222-16.394 6.604 2.482-11.16-11.918zm0 20.867s6.674 6.96 6.04 7.946.463 6.466.463 6.466l-2.322-4.966-3.262 4.47s2.323-6.963 1.868-7.46-3.717 2.484-3.717 2.484 1.394-3.973 1.394-4.47 0-2.98-.464-4.47zm-27.876 13.9c1.868-1.49 6.674-2.482 6.674-2.482s-2.323 3.973-2.787 3.973-1.868 0-2.787-1.49zm64.107-21.848s12.078 7.46 12.078 7.946-7.897-3.476-7.897-3.476l-4.18-4.47zm-21.831-16.396c.93.497 17.663 14.4 17.188 14.4s-7.432-3.972-7.432-3.476v3.476l-3.717-7.946-.93 2.98-6.11-9.436zm4.176 22.346l4.646 9.436 4.646-.993s-8.826-8.442-9.29-8.442zm14.407-6.968c0 1.49.466 8.938.466 8.938s2.787 2.483 2.787 1.987-2.788-10.43-3.263-10.926z" fill-rule="evenodd" fill="#b7e1ff"/>
  <g>
    <path d="M182.612 89.622s20.98-11.61 44.87-20.264c23.886-8.644 60.68-14.326 64.222-14.326 7.077 0 19.21 17.783 21.233 17.783 2.022 0 10.11-4.94 20.223-4.94s16.178 7.904 18.2 7.904h18.2c2.023 0-6.066-19.76 0-18.77 3.034.493 28.817 4.446 62.833 12.226 24.014 7.78 68.103 21.616 68.103 21.616s-66.714 7.44-70.488 6.24c-2.022.988-.1 13.07-2.933 7.764-4.666-1.063-21.744-3.727-24.778-3.727s-8.69 3.427-16.78 6.402c-8.088 1.976-18.2 4.94-18.2 4.94l13.146 20.747-16.178 7.903s-10.11-23.71-14.166-23.71-6.067 16.796-11.123 16.807c-6.066-.988-7.078-16.808-11.123-19.76-4.044-3.96-26.368-6.39-33.468-7.366-8.09-1.976-21.144-3.6-28.222-6.476-7.078-1.976-14.166 4.94-17.19 4.94-3.032 0 4.046-6.928 1.012-6.916s-6.066 2.964-7.078 2.964c-2.022 0-23.266-3.962-26.278-4.94-2.022-.988 6.066-4.94 3.034-4.94h-8.09z" fill-rule="evenodd" fill="#984000"/>
    <path d="M462.91-64.94c0 21.16-20.6 38.298-46.79 38.298S371.327-43.79 371.327-64.94s20.6-38.298 46.79-38.298S462.91-86.09 462.91-64.94z" fill-rule="evenodd" transform="matrix(.22 0 0 .26 231.63 96.62)" stroke="#772600" stroke-width="3.706" fill="gray"/>
    <path d="M284.74-69.946c6.66-6.66 14.987-16.66 36.633-16.66 4.996-1.666 4.996-11.667 16.66-11.667 11.667 0 8.327 9.99 16.663 13.32 8.326 3.33 76.696-3.33 76.696-3.33s6.66 4.996 6.66 11.667c0 6.66-4.996 11.666-6.66 11.666s-68.27-4.996-73.266-3.33c-4.996 1.666-8.326 3.33-19.982 3.33-11.666 0-14.986-11.666-23.31-11.666-8.327 0-16.663-1.666-29.974 6.66z" fill-rule="evenodd" transform="matrix(.27 0 0 .32 206.39 100.66)" stroke="#772600" stroke-width="6.26" fill="#984000"/>
    <path d="M487.88-76.697h26.642c9.672.114 12.873 3.006 21.647 3.33h23.31c8.476-.314 12.962-2.296 21.648-3.33 14.604-.176 9.666-1.306 6.66-9.99-2.626-6.666-2.96-9.61-6.66-13.322-1.396-7.944-4.666-10.77-4.996-19.98-1.627-7.027-4.342-11.763-1.666-19.983 3.84 6.647 6.387 7.97 14.986 8.326 10.046 0 13.937-.206 19.982 3.33 4.663 4.89 10.886 3.33 19.982 3.33 7.677 1.406 8.96 6.313 14.986 8.326 7.103 3.936 11.694 4.996 21.646 4.996 7.967 1.422 14.88 2.678 19.98 4.996 4.26 6.08 10.962 6.338 19.983 6.66 6.06 0 8.96-.624 13.32-1.666 7.678.37 16.474 0 24.978 0 6.163 7.21 7.687 9.862 18.317 9.99 7.338 6.166 13.627 6.037 19.982 8.327h24.976c8.928.687 11.79 4.36 19.98 6.66 8.116 3.768 16.722 6.36 21.648 8.326 6.89 1.28 13.674 1.666 21.646 1.666 6.183 3.176 13.61 3.46 18.317 6.66 6.89 1.477 16.302 3.216 21.647 4.996 8.816 1.168 12.187 3.94 19.98 4.996 6.704 1.916-2.223 3.66-6.66 4.996-9.826-.364-10.636-3.946-19.98-4.996-6.024-2.94-12.64-2.648-19.982-4.996h-1.666c6.6 3.903 12.948 6.422 9.99 13.32-8.49 0-16.366-1.097-23.31-1.666-8.386-1.616-12.227-3.33-21.647-3.33 9.394-2.264 11.864.27 18.316 3.33 2.396 8.06-2.726 4.996-11.666 4.996-7.61-2.73-12.174-6.983-21.648-6.66h-19.98c9.89.366 11.976 4.1 18.316 8.326.618 2.69-.132 2.472-4.996 3.33-6.16-4.478-11.89-6.013-19.982-8.326-7.88-.28-16.217-.966-23.31-3.33-4.868-.304-4.117-6.177 6.66 3.33 6.632 3.843 8.832 6.946 8.326 9.99-8.676-2.143-12.826-6.68-18.317-8.324-7.736-2.866-14.128-3.33-23.312-3.33-8.61-2.266.894-3.674 6.66 4.996 12.38 8.77-1.632 6.007-6.66 3.33-7.607-2.144-16.284-6.184-21.646-6.66-6.046-1.44-9.44-2.866-14.986-3.33 8.63.786 11.67 3.823 14.986 9.99 8.766 6.032-.384 3.1-8.326 1.666-6.07-4.402-11.487-6.668-14.986-11.666-8.36-4.176-8.663-8.982-3.33 1.666 1.363 3.407 1.11 10.796 1.666 11.666-6.136-6.626-4.826-8.326-11.666-8.326-4.634-3.244-11.496-6.766-14.986-9.99-6.436-.604-6.84-2.9-13.32-4.996 6.34 6.273 12.39 12.478 16.66 18.316 7.698 4.242 9.7 8.06 14.987 11.666 2.14 3.64 7.904 6.667 1.666 1.666-7.144-7.043-12.46-8.67-23.312-13.32-6.16-4.96-8.37-7.046-14.986-11.667-9.003-2.906-6.608-4.643 0 4.996 6.318 6.77 11.17 12.23 16.662 16.66 3.767 4.908 10.136 10.12 14.986 13.322 1.6 2.26 6.99 2.664 0 3.33-6.09-4.698-12.398-7.63-18.317-11.666-8.302-2.34-12.19-6.662-18.316-11.666-3.9-6.86-10.383-10.38-14.987-14.986-9.63-3.77 1.9 3.636 4.996 8.326 2.163 6.068 4.788 11.036 6.66 16.66 2.78 6.66-8.47-1.327-11.666-3.33-7.32-4.167-12.674-6.937-21.647-8.326-6.98-1.3-13.602-2.468-19.982-3.33-7.614-2.06 4.042 4.8 8.326 11.666 8.418 7.908-8.332 1.426-13.32 0-8.224-1.646-16.288-1.666-24.978-1.666-10.67.628-3.06 1.947 0 6.66 3.287 2.63 6.637 7.866 4.996 9.992-7.032-.96-13.026-3.023-21.646-3.33-6.96 2.32-16.344 1.666-23.31 1.666-.382 4.19 1.443.664 4.994 4.996 6.763 2.34 9.686 6.177 8.326 8.326H497.87c-6.29 1.447 1.14.704 6 6.663-2.16 6.403-4.96 3.332-11.666 3.332-4.646-1.818-13.698-2.636-18.317-4.996-4.69 0-4.336-1.22-8.326-1.666 14.036 9.93 7.073 7.46 14.986 14.987 1.366.466 4.623 1.666 1.664 1.666M371.32 73.266c-.997 0-3.2-6.376-6.66-9.99-2.327-6.06-6.392-2.69-8.326-11.667.348-9.402.684-11.094 0-19.982-6.863-4.783-9.714-6.27-14.986-14.986-8.46-7.078 1.236-19.063 2.846-27.86-7.376-1.638-11 11.477-22.34 16.194-8.166 6.492-.912-11.364-4.892-21.188-2.774-13.872-10.826 6.966-13.91 12.862-6.467 3.718-7.128 8.642-14.986 1.666 0-6.144 4.937-19.49 2.846-22.28-7.816 3.816-18.088 16.49-26.168 17.284-8.13-1.767 1.77-14.828 1.77-24.618-2.938-.98-14.696 26.766-19.62 26.002-4.824.248-2.713-26.993-4.972-26.428-3.642 4.96-10.66 16.43-16.676 18.948-9.464-1.22 1.398-17.436 2.846-23.427 1.628-7.168-8.906 13.76-14.602 16.102-4.1 3.664-12.237 6.072-14.986 6.66 3.24-6.13 19.076-18.712 17.936-22.278-9.21.34-23.31 12.666-31.266 13.962-6.19 0-12.387 1.768-13.32 1.666.448-7.926 19.418-14.66 22.446-19.466-9.306 1.494-27.186 9.706-32.436 16.136-6.146 1.336-13.944 3.02-19.983 0 .897-7.476 14.866-21.998 17.936-26.768-8.396 3.697-12.642 6.69-21.647 8.326-1.662 1.662-6.624 6.23-4.996 1.666 2.666-6.946 6.676-10.11 9.99-14.986-7.46 1.364-10.28 6.634-18.316 9.99-6.094.222-19.646 14.866-24.696 16.103-11.46 8.382-16.01 9.807-28.308 13.32-7.687 1.366-11.26 2.934-14.986 6.66 3.796-6.687 9.697-13.092 14.986-16.66 3.677-6.667 7.12-10.196 14.986-13.32 1.897-2.32 7.188-2.906 1.666-3.33-4.746 4.236-12.696 8.966-16.66 11.666-6.102 3.207-11.01 6.48-13.322 4.996 2.62-7.197 7.438-8.902 11.667-14.986 8.81-6.604.042-1.914-6.66 0-4.338 3.868-12.122 6.727-18.316 9.992-7.113 1.866-11.703 6.132-19.98 8.326 0 2.376 2.364-4.26 3.33-6.66 6.83-7.41 8.666-9.476 16.66-11.667 1.912-2.866 4.42-1.664-1.666-1.664-4.614 4.024-10.81 6.212-16.66 9.99-6.892 1.282-13.676 1.666-21.648 1.666-10.366 1.243-9.46 2.026 0-3.33 6.367-6.042 9.77-3.776 9.99-9.99C10.394-40.43 2.78-37.1-4.998-33.304c-6.434.19-8.133 1.666-14.986 1.666 3.298-3.416 6.277-7.633 9.99-9.99 6.896-7.663-4.377-1.478-6.66 0H-41.63c-4.466 6.68-.23.06 3.33-3.33 4.306-2.24 8.766-6.166 8.326-6.66-4.972 4.314-10.726 6.297-14.986 9.99-4.64 1.39-9.99 2.084-9.99 3.33 3.626-6.346 9.624-8.676 13.32-13.32 6.612-1.22 10.396-2.936 11.666-4.996h-23.312 16.66c8.4 0 16.63-.76 23.313-1.666 13.263-2.21-1.16-3.33-8.326-3.33-1.39-2.648 4.11-3.987 9.99-4.996 6.024-2.38 11.233-4.493 16.66-6.66 6.267-1.434 12.707-6.81 13.322-6.66-6.016.263-4.976 1.4-9.99 1.664 7.446-.674 12.8-1.666 21.646-1.666 8.028-2.68 14.906-6.41 21.647-8.326 2.936-3.688 4.24-3.33-3.33-3.33 6.713-2.168 16.238-3.193 21.647-4.996 7.872-1.687 14.9-4.263 19.982-6.66 4.876-3.316 7.69-7.176 13.32-9.99 6.628 4.437 6.602 4.994 18.318 4.994 9.41-.112 16.17-2.373 19.98-6.66 7.208-1.966 8.483-6.43 16.662-6.66 7.444 1.328 16.03 1.664 23.312 1.664 8.096-2.12 16.677-6.01 21.647-9.99 6.093-2.602 11.14-6.12 16.66-8.326 6.07 3.133 10.844 6.66 18.318 6.66 7.728-1.148 11.747-4.868 18.317-6.66 3.677-4.33 8.777-6.632 14.986-8.326 9.67-4.76 8.913 1.673 13.32 6.66 4.896 6.132 11.374 2.68 18.318 4.996 3.83 6.893 6.647 9.914 11.667 13.32 3.89 4.71 8.608 6.036 16.66 6.66 2.968 3.968.602 6.812 6.662 8.327 2.387 2.63 6.617 3.606 9.99 4.996" transform="matrix(.27 0 0 .32 206.39 104.9)" stroke="#772600" stroke-width="3.6" fill="none"/>
    <path d="M468.74 30.803v.833c0-2.327-.103-1.09 1.666 3.33.696 3.64-.81 3.22-2.498 6.828-.286 3.723-.832 6.4-.832 10.823-.637 3.612-2.67 7.04-4.163 9.99-1.604 3.133-8.666 4.87-8.326 9.16-3.99 1.14-4.084-1.446-4.162-6.83-2.386-2.726-3.212-6.466-4.996-9.99-1.108-3.476-3.47-6.032-4.996-9.99-2.46-3.787-4.646-4.876-6.66-9.16-.827-2.066-.683-4.617-2.498-6.827-2.72-3.438-4.49-3.99-9.16-4.163-3.69.846-4.97 2.416-8.324 3.33-2.67.867-7.67.68-10.823 1.666-.808 1.314 1.6 1.94 2.498 4.996-2.136 1.764-2.926 4.883-4.163 7.493-1.966 2.487-3.283 3.706-4.163 7.494 1.362 2.316.2 6.387-1.666 7.493-.674 3.864-2.434 6.874-3.33 9.16-2.686 1.826-3.662 3.637-6.828 6.66-1.914 2.678-3.636 2.497-8.326 2.497-3.667-1-4.18-2.988-7.493-4.163-.362-1.066-.608-1.312-1.666-1.664" transform="matrix(.27 0 0 .32 206.39 104.9)" stroke="#782600" stroke-width="3.126" fill="none"/>
    <path d="M307.66 126.634s-.466 4.966-3.643 8.268-9.794 7.167-9.794 7.167 8.882-4.222 9.793-3.304c.91.917-6.694 8.268-6.694 8.268s8.666-7.708 9.794-7.708 3.644 7.624 4.666 7.34c.912-.183-2.06-9.642-1.693-11.01.466-1.468 0-9.36 0-9.36l-3.416.368zm20.496-.672s-.466 6.297-3.644 8.828-9.794 7.66-9.794 7.66 8.882-4.612 9.793-3.63c.913.98-6.692 8.827-6.692 8.827s8.664-8.24 9.793-8.24 3.646 8.043 4.666 7.847c.91-.196-2.06-10.2-1.694-11.77.466-1.67 0-10.004 0-10.004l-3.416.392zm-28.693-48.046c0 .987-.967 1.788-2.16 1.788s-2.168-.8-2.168-1.788.966-1.787 2.16-1.787 2.168.8 2.168 1.787z" fill-rule="evenodd" fill="#812e00"/>
  </g>
</svg>
