<svg xmlns="http://www.w3.org/2000/svg" xmlns:xlink="http://www.w3.org/1999/xlink" height="480" width="640">
  <path d="M0 320h640v160H0z"/>
  <path fill="#fff" d="M0 160h640v160H0z"/>
  <path fill="#ce1126" d="M0 0h640v160H0z"/>
  <g transform="matrix(.8 0 0 .8 -40.004 .002)" fill="#fff" stroke="#c09300">
    <path d="M460.81 302.4l68.488 63.68-4.876-116.47c-.716-17.6-16.924-13.486-26.97-7.173-11.192 7.172-23.96 7.172-37.447 2.437-13.486 4.736-26.263 4.736-37.444-2.437-11.046-6.313-26.26-10.328-26.97 7.172l-4.878 116.47 70.098-63.68z" stroke-width="1.27" stroke-linejoin="round"/>
    <path d="M393.47 246.49l-4.734 112.32-8.036 7.168 4.88-116.47c2.294-1.678 6.313-4.017 7.89-4.017zm9.62 8.04l-4.017 93.966-8.032 8.22 4.878-108.49c1.68 1.677 6.314 6.46 7.172 6.31zm8.76 7.17l-3.166 78.362-6.466 6.31 4.018-89.406c1.674 1.678 4.73 3.874 6.692 4.734zm9.47 4.02l-3.166 66.787-6.313 6.12 3.167-74.346c1.68.717 4.736 2.438 6.313 2.438zm8.76 0l-2.297 66.667-6.466 6.313 2.44-61.262c1.676 0 6.693 0 6.312-.718z" id="a" fill="#c09300" stroke="none"/>
    <use height="100%" width="100%" xlink:href="#a" transform="matrix(-1 0 0 1 900 0)"/>
    <path d="M463.16 316.06l9.613 43.766-3.168 3.166-3.3-2.44-6.46-39.017 2.294 39.018-3.167 4.017-3.167-4.016 2.296-39.017-6.46 39.018-3.303 2.44-3.166-3.166 9.61-43.766h6.316z" fill="#c09300" stroke-width="1.074"/>
    <g id="b" fill="none" stroke-width="1.27" stroke-linejoin="round">
      <path d="M428.48 296.84l-19.08 67.706 26.266 4.018 11.188-60.924-18.363-20.8z" fill="#fff" stroke-width="1.189"/>
      <path d="M422.17 318.94l2.296 6.693 12.406-11.848"/>
      <path d="M430.76 304.92l2.696 24.346 7.89-10.328m-3.166 4.012l4.31 14.876m1.69-6.466l-8.718 13.24m2.72 13.217l-2.79-13.198-2.437-13.424-6.84 7.91-2.662-9.12-8.174 8.386 4.166 16.262 6.738-9.436 3.166 9.612 6.89-9.163"/>
      <path d="M414.99 361.97l6.3-7.444 3.462 11.467 4.736-8.032 3.167 9.616"/>
    </g>
    <use height="100%" width="100%" xlink:href="#b" transform="matrix(-1 0 0 1 900 0)"/>
    <g stroke-width="1.27" stroke-linecap="round" stroke-linejoin="round">
      <path d="M460 393.81c19.943 0 39.024-1.678 60.213-4.734 4.736-.86 4.736-3.298 4.736-6.466 4.736-1.677 2.296-7.17 6.696-7.17-3.3.863-4.016-6.694-8.033-4.73 0-6.698-6.696-6.314-10.33-4.74-9.47 3.16-26.266 3.876-42.18 3.876-16.924-.717-32.667-.717-42.18-3.876-4.733-1.674-10.326-.868-10.326 4.74-4.018-.864-4.736 6.693-8.034 4.73 3.3 0 .86 6.693 6.694 7.17 0 3.168 0 6.697 4.878 6.466 11.046 3.166 30.128 4.734 60.068 4.734z" stroke-width="2.378"/>
      <path d="M422.89 363.64c6.464.86 13.628 1.678 19.226.86 3.163 0 6.46 6.462-.863 6.314-6.693.716-14.346 0-19.08-.862-4.017-.718-12.768-2.296-18.364-3.876-6.694-2.436-1.676-7.168 1.678-6.462 4.88 1.677 11.192 3.167 17.606 4.016zm64.23 0c-6.467.86-13.628 1.678-19.08.86-3.302 0-6.697 6.462.716 6.314 6.696.716 14.347 0 19.078-.862 4.02-.718 12.77-2.296 18.364-3.876 6.697-2.436 1.68-7.168-1.677-6.462-4.877 1.677-11.19 3.167-17.6 4.016z"/>
      <path d="M403.09 360.39c-4.877-.86-7.172 4.732-6.693 7.887.717-1.678 4.017-1.678 4.736-3.166.868-2.437-.718-2.437.868-4.732zm19.08 14.67c0-3.163 3.166-2.766 3.166-6.921 0-1.678-.86-4.02-2.437-4.02-1.68 0-3.168 1.68-3.168 3.167-.718 3.167 2.44 3.63 2.44 6.783zm22.71-9.08c4.73 0 4.262 6.314 1.966 9.47 0-2.296-4.017-3.166-4.017-4.732 0-2.442 3.626-2.442 2.06-4.738zm62.03-6.69c4.878-.86 7.174 4.732 6.696 7.887-.718-1.678-4.017-1.678-4.734-3.166-.86-2.437.72-2.437-.86-4.732zm-19.08 14.67c0-3.163-3.163-2.766-3.163-6.921 0-1.678.86-4.02 2.438-4.02 1.677 0 3.166 1.68 3.166 3.167.72 3.167-2.44 3.63-2.44 6.783zm-22.71-9.08c-4.732 0-4.263 6.314-1.967 9.47 0-2.296 4.016-3.166 4.016-4.732 0-2.442-3.626-2.442-2.048-4.738z"/>
      <path d="M404.67 361.97c1.68 0 4.018.718 4.736 1.677l-4.74-1.68zm7.88 2.44c.862 0 4.018.716 6.696 1.676l-6.6-1.68zm28.7 3.16c-1.678 0-4.734 0-6.693.716l6.69-.72zm-8.76 0c-.86-.862-4.016-.862-6.693 0h6.69zm62.84-6.69c-1.678 0-3.876.718-4.736 1.677l4.736-1.677zm-7.89 2.44c-.86 0-4.017.716-6.696 1.676l6.6-1.68zm-28.7 3.16c1.68 0 4.736 0 6.696.716l-6.6-.72zm8.76 0c.86-.862 4.018-.862 6.696 0h-6.6z" stroke-width=".891"/>
      <g fill="#c09300" stroke="none">
        <path d="M403.34 374.68c-.634-.102-.816-.626-.68-1.026.164-.61.66-.967 1.112-.794.294.106.83.646.832.84.003.222-.28.762-.402.764-.063 0-.136.046-.182.102-.1.118-.413.176-.68.124zm64.93 3.92c-.2-.074-.616-.618-.616-.724.002-.387.674-1.018.93-1.02.174-.002.664.247.833.433.326.337.264.892-.164 1.207-.2.166-.8.212-1.094.103zm.36 2.48c-.42-.142-.674-.348-.608-.814-.036-.486.012-.66.626-.84l.366-.2.347.166c.478.216.692.446.71.768.017.348-.24.704-.64.883-.363.16-.374.16-.7.06z"/>
        <path d="M407.76 370.09c-.346-.01-.82.307-1.094.47-.66.16-1.404.66-2.03.124-.618-.19-1.44-.04-1.632.718.168.662 1.07 1.026 1.626.694.41-.637 1.63-.863 1.666.063-.467.69-.406 1.608-.78 2.343-.062.467-.263.892-.6 1.28-.463.047-.966-.007-1.346.282-.626.034-1.266.346-1.626.876-.403.678-.79 1.166-.906 1.876.106.726.936.933 1.66.97.668.182 1.336.423 2 .624 1.087.242 2.103.634 3.19.874 1.683.477 3.247.697 4.842 1.126.168.064.326.103.6.124.663.137 1.008-.683 1.063-1.126.33-1.16.68-2.34.906-3.6.226-.467.498-1.618-.406-1.282-.616.308-.962.773-1.694.812-.873.06-.374.946-.03 1.313.076.687-.11 1.288-.6 1.76-.62.33-1.172-.067-1.72-.188-.673.01-1.722-.283-1.186-1.062.19-.677.207-1.21.437-1.782.296-.613.337-1.284.47-1.936-.36-.777-.98.266-1.47.344-.337.234-1.604.334-.936.937.676.437.134 1.197.03 1.76-.036.77-.837.964-1.468.78-.628-.03-1.6-.496-.97-1.186.122-.676.323-1.14.44-1.72.236-.698.436-1.363.686-2.062.11-.62.33-1.208.626-1.76.018-.686.478-1.276.47-1.97-.048-.338-.2-.46-.407-.468zm-3.694 7.26a.363.363 0 0 1 .22.03c.26.107.266.31 0 .632-.113.097-.24.19-.282.188-.468-.04-.606-.11-.626-.28-.02-.162.03-.196.342-.346a1.46 1.46 0 0 1 .344-.126zm-1.036 6.02c-.496-.466-.416-.806.317-1.363.314-.234.606-.208.863.12.663.604.676.823.087 1.266-.24.213-.346.267-.627.26-.293.003-.376-.034-.64-.282zm3.06.92a.86.86 0 0 1-.623-1.088c.13-.434.203-.477.84-.483.716-.008.864.11.86.74.006.366-.022.437-.2.6a1.07 1.07 0 0 1-.877.23zm89.11.08c-.227-.19-.273-.274-.276-.616-.003-.41.233-.712.746-.944.683-.307.96-.266 1.217.187.342.6.326.847-.084 1.262-.226.223-.268.236-.786.24-.607.004-.666-.01-.818-.22zm-86.06 1.16c-.364-.097-.662-.37-.667-.807-.004-.334.02-.387.263-.67.162-.118.39-.22.68-.246.266-.037.363-.013.678.138.66.387.668.77.36 1.14-.34.397-.663.488-1.204.344zm21.92.98c-.08-.1-.26-.16-.278-.287.032-.666.06-1.117.236-1.648.096-.623.012-1.07.194-1.68.187-.926.187-1.88.402-2.802.01-.476.066-.96.193-1.406.167-.722.013-1.476.226-2.19-.023-.267.286-.983.666-.66.393.678.91 1.046 1.42 1.617.438.262.036.624-.266.76-.416.163-.617.62-.487 1.022-.068.414-.226.806-.242 1.23-.087.622-.07 1.264-.16 1.876-.183.61-.114 1.26-.174 1.888.01.398-.18.76-.166 1.16-.048.406-.066.894-.407 1.172-.33.166-.804.138-1.068-.142zm29.7-9.8c-.482.366-.914.796-1.344 1.22-.692.448.487.71.626 1.093.168.686.16 1.21.19 1.812.178.662.267 1.138.217 1.72-.06.62-.863.49-1.218.843-.493.207-.69.69-1.064 1.03-.246.484-.312 1.077-.344 1.626.036.448-.302.96 0 1.344.04.066.086.132.126.187.102.146.343.03.6.063.604-.03 1.03.047 1.6-.167 1.21-.208 2.432-.226 3.667-.28.76.024 1.47-.237 2.218-.22.687.13.86-.606.844-.967-.332-.664-.046-1.43-.312-2.094-.236-.674-.143-1.43-.26-2.126-.016-.66-.71-.762-1.063-.344-.34.346-.892.414-1.166.844-.297.602.627.603.78 1.062.177.466.12.98.167 1.47.116.692-.63.626-.937.687-.637.2-1.29.336-1.694-.313-.19-.48-.164-.993-.218-1.6-.013-.892-.227-1.768-.28-2.666-.062-1.097-.242-2.187-.313-3.28-.01-.467-.072-1.2-.72-1.064zm-.626 8.26l.313.03.03.376.032.376-.406.126a3.28 3.28 0 0 1-.407.094 2.66 2.66 0 0 1-.187-.126c-.22-.16-.164-.386.126-.688.163-.17.24-.203.6-.187zm-29.966-9.28c-.38.136-.862.693-1.26.688-.88.062-.767.92-.126 1.218.083.26.006.688.03.876.124.79-.374 1.426-.28 2.22-.044.87-.307 1.718-.344 2.694-.246.903-.26 1.832-.406 2.76-.104.823-.7.633-1.22.312-.003-.366-.026-.706-.03-1.062.216-.817-.44-1.066-1.094-1.166-.686.066-1.022-.623-.874-1.126.296-.36 1.036-.264 1.6-.313.98.204.942-1.112.438-1.662-.346-.636-1.2-.91-1.438-1.663.096-.866-.48-1.732-1.187-2.166-1.09-.077-1.912.862-2.314 1.78-.462.13-.904.267-1.344.438-.71.177-1.72 1.407-.76 1.876.646.16 2.2.628 1.47 1.28-.413.708-1.202.72-1.907.632-.724 0-1.63-.362-1.6-1.187-.148-.76-.123-1.668-.47-2.26-.147-.84-1.1-.643-1.166.126-.733.634-.636 1.397-.126 2.03.32.73.003 1.678-.313 2.26-.19.876-1.166.906-1.843 1.188-.34.132-1.63-.077-1.168.668.764.266 1.663.606 2.438.312.823-.102 1.638-.666 1.938-1.376.662-.66 1.602-.267 2.218-.28.773-.003 1.663.64 2.313.186.216-.663 1.22-1.494 1.63-.63-.063.863.71 1.326 1.6 1.22.864-.06.644.61.63 1.124.068.934.66 1.426 1.44 1.812.264.072.644.048.81 0 .76-.236 1.666-.668 1.782-1.406.304-.68.31-1.46.632-2.166.177-1.13.406-2.26.437-3.406.277-1.04.198-2.136.407-3.188.133-.782.23-1.663.313-2.344-.092-.417-.272-.487-.6-.406zm-6.78 4.166c.16.02.234.204.26.63.016.366.206.662.436.72.183.046.167.24-.03.376-.116.08-.322.128-.688.126-.678-.003-.937-.163-1.26-.47l-.188-.186.28-.188c.143-.108.4-.332.664-.6.286-.29.473-.424.626-.406zm66.03-7.876a8.366 8.366 0 0 0-1.666.26c-1.04-.066-1.663 1.027-.663 1.663.603 1.634 1.642-.317 2.6-.188 1.44.28 1.66 1.832 1.783 3 .08 1.167.414 2.282.76 3.376.962 1.07-.72 1.74-1.438.906-.61-.664-1.92-1.48-2.666-.662-.906.382-.942 1.69-1.69 1.937-1.208.37-1.36-1.118-2-1.76-.686-.823-1.71-.896-2.624-1.186-.43-.87-.206-2.346-1.094-2.938-.746.304-2.113 1.702-.968 2.344 1.117.96-.488 1.4-1 2.063-.732.814-.86 1.936-.97 2.968-1.268.697-1.603-.786-1.666-1.717-.1-1.112-1.037-.786-1.69-.376-.96.386-1.427 1.29-2.092 2-.08.647.037 1.366.03 2.03.217.812 1.203.43 1.813.376.98-.41 1.38.627.696 1.22-.632.676-2.22.32-2.063 1.406.644.062 1.11.042 1.667 0 1.09-.3 2.26-1.07 2.374-2.282.143-1.06 1.667-.866 2.6-1.094 1.04-.3 2.294-.377 2.63.937.71.746 2.26 1.686 3.032.664.796-.486 1.176-1.338 1.126-2.26-.16-.786 1.27-.813 1.626-.376.62.867 2.16.604 2.938.124.836-.617 1.017-1.706 2.218-1.72 1.783-.633 3.636-.84 6.376-1.6 1.41-.306-.21-1.197-.662-1.718-1.074-.63-2.008 1.642-3.22.663-.936-.717-.87-2.078-1.218-3.126-.237-1.368-.177-2.923-1.166-4-.67-.716-1.686-.887-2.63-.844zm-6.813 9.47c.126-.004.268.068.6.186.44.242.76.643.76.97 0 .212-.064.226-.376.374-.197.09-.42.19-.6.188-.18-.002-.624-.367-.626-.6 0-.06-.068-.287-.126-.47-.117-.32-.1-.316.063-.63.103-.138.187-.216.313-.22zm6.632.343c.37-.026.692.09.76.376.18.33.067.68-.408.78-.203.09-.407.16-.437.167-.03-.003-.198-.102-.376-.22-.27-.176-.31-.263-.313-.467-.003-.316.36-.697.782-.626zm-8.94.093c.11-.017.21.04.346.166.18.166.237.28.28.694.033.22.028.602 0 .626-.047.227-.062.217-.66.22-.642.006-.7-.064-.69-.666.01-.377.013-.478.22-.688.16-.162.297-.233.406-.26zm-6.6 1.438a.67.67 0 0 1 .44.437c.064.32.007.463-.26.696-.223.113-.736.16-.876.063a.613.613 0 0 1-.188-.188c-.068-.12-.066-.18.03-.26.062-.06.127-.12.126-.166 0-.037.068-.163.167-.28a.643.643 0 0 1 .66-.22zm9.26 1.187c.18 0 .33.062.44.167.184.163.178.4-.033.663-.136.104-.87.096-1.126 0-.112-.042-.166-.1-.166-.22-.002-.14.038-.226.28-.343.206-.097.417-.166.696-.166zm-17.169 4.819c-.096-.063-.238-.117-.096-.222.173-.302.618-.407.826-.62a3.436 3.436 0 0 0 1.373-1.118c.06-.333.424-.613.422-.86.003-.476.032-.963-.084-1.427-.128-.426-.46-.762-.826-.974-.266-.203-.674-.26-.768-.616-.063-.343.263-.604.36-.91.223-.42.41-.863.66-1.276.26-.288.66-.016.794.263.19.277.367.676.46.897.303.332.67.72.68 1.162.148.31.383.602.37.966 0 .416.234.787.22 1.206.013.66.012 1.146-.192 1.674-.14.294-.42.47-.607.733-.318.296-.67.68-1.08.737-.288.092-.466.426-.818.346-.614.01-1.037.08-1.647-.004.032.064-.166-.092-.126-.068zm-6.86.46c-.243-.26-.296-.366-.298-.6-.003-.248.046-.346.282-.686.44-.443.663-.463 1.41-.07.722.366.967.4 1.032.14.062-.26.478-.48.874-.48a.82.82 0 0 1 .692.202c.26.196.263.227.27.68.004.463-.002.48-.29.736-.278.244-.323.26-.666.224-.437-.043-.7-.244-.77-.688-.062-.26-.14-.31-.206-.14-.02.066-.13.122-.24.16-.203.06-.648.268-.793.6-.093.087-.266.128-.62.13-.364.004-.404-.017-.677-.298zm-19.82-8.9c-.666.007-1.38.666-1.47 1.22.163.76.778 1.488.376 2.28.278 1.013-.76 1.397-1.47.813-.426-.972-.642-2.036-1.28-2.907-.804-.227-1.164 1.067-1.72 1.6.28.766 1.097 1.433 1.19 2.376.194.916-.362 1.932-1.167 2.407-.687.666-1.627.42-2.47.663-1.024.6.762.818 1.22.844 1.046.106 2.134-.032 2.906-.813.77-.366.71-1.696 1.626-1.843 1.688-.07 3.163.244 4.76.282.86.202 2.163-.102 2.76.63.002 1.107.94 1.79 1.844 2.22.498.137 1.024-.48 1.63-.696.966-.308.673-1.602 1.26-1.97 1.66-.088 3.317-.07 4.97-.093.314.008.407-.44.626-.626-.038-.638-.06-1.272-.168-1.906-.318-.806.062-1.843-.63-2.63-.83-.226-1.637.634-2.376.694-.926.412-1.706 1.268-1.76 2.312-.648.897-1.427-.16-1.126-.906-.033-.326.072-.704-.03-1-.607-.608-1.396-.41-2.094-.6-1.018.04-2.012-.18-3.03-.166-.894-.068-1.823.078-2.688-.166-1.032-.03-.89-1.04-1.063-1.76a1.018 1.018 0 0 0-.626-.188zm2 3.688c.343.006.667.06 1 .093.43.072.89-.147 1.313 0 .976.167 1.963.128 2.937.22.26-.004.446.186.626.344.002.683 0 1.38 0 2.062-.03.268.076.698-.166.78a.7.7 0 0 1-.26.126c-.272-.07-.66-.247-.69-.6-.04-.367.02-.704.032-1.062-.007-.093.04-.237 0-.313a1.248 1.248 0 0 0-.718-.26c-.86-.03-1.682-.09-2.63-.126-.708-.044-1.436.06-2.127-.126-.268-.097-.617-.064-.78-.343-.236-.273.103-.697.343-.72a2.28 2.28 0 0 1 1-.187zm11.28.26c.16-.003.21.06.282.343.046.19.1.418.126.6.037.12-.022.167-.187.22-.494.186-.986.168-1.166-.063-.078-.104.012-.434.166-.662.29-.26.61-.437.78-.438z"/>
      </g>
    </g>
    <path d="M449.98 327.23c32.642-26.106 29.843-61.883 29.843-61.883-.86.172-1.68.268-2.64.268-6.848 0-23.18-3.917-26.99-8.892-4.08 4.603-20.77 8.892-27.673 8.892-.86 0-1.722-.086-2.64-.268 0 0-2.843 36.776 29.8 61.883z" stroke-width="1.16"/>
    <path d="M477.22 268.04c-.28.018-.663.026-.848.026-6.206 0-20.62-3.183-26.176-7.967-6.82 4.41-20.47 7.966-26.676 7.966a4.7 4.7 0 0 1-.848-.086c-.016 1.39.068 2.832.144 4.144.323 4.9 1.183 9.82 2.488 14.662 4.108 14.896 12.616 27.663 24.672 37.166 12.066-9.61 20.484-22.28 24.6-37.186 1.308-4.732 2.17-9.66 2.496-14.66.086-1.286.167-2.692.148-4.066z" stroke-width=".916"/>
    <path d="M439.38 266.03c-6.872 1.846-12.23 3.03-16.76 3.03-.286 0-.663-.04-.844-.093-.014 1.39.07 2.846.166 4.167a72.77 72.77 0 0 0 2.47 14.63c2.764 10.026 7.606 19.033 13.968 26.782V266.03zm20.62-.09v49.26c6.794-7.92 11.733-17.206 14.694-27.662a72.962 72.962 0 0 0 2.47-14.63c.084-1.286.166-2.7.166-4.064-.282.018-.66.032-.846.032-3.73 0-10.42-1.17-16.376-3.126z" fill="#c09300" stroke="none"/>
    <g stroke-width="1.27">
      <path d="M462.31 263.09c.667.04-.902-3.668-.902-3.668 1.766 1.804 8.43 2.236 8.43 2.236-4-1.766-7.998-16.096-7.628-26.72.432-10.666-1.628-14.86-3.097-16.43-2-2-8.43-3.763-12.664-3.998-2.393-.12-2 1.802-2 1.802-4.43-1.137-8.86-1.668-10.862-.236-1.882 1.266-2.274 7.628-.9 6.43 3.33-2.666 6.233-.236 8.232 2.666 1.764 2.66 1.647 9.763-.902 18.192-2.666 8.86-9.96 17.722-9.96 17.722 3.96 0 9.63-3.628 9.63-3.628l-1.334 6.627c4.196-2 7.628-6.097 7.628-6.097l4 4.196c1.332-1.764 3.998-4.196 3.998-4.196s3.333 3.63 8.43 4z" stroke-width="1.218"/>
      <path d="M446.12 227.67s-2.236 16.428-6.43 21.094m9.96-21.624s-.863 16.623-3.764 21.966m6.894-21.286s0 18.192 1.098 21.29m2.862-20.39s.902 16.29 4.666 20.82" fill="none"/>
      <path d="M442.08 219.61c-.196-1.46-.66-2.688-1.06-3.333-1.998-2.9-4.9-6.332-8.232-2.666 0 0 1.137-3.628 3.668-3.646 1.882-.118 6.166 1.41 9.92 7.84 0 0-2.784-.626-3.46-.038-1.266 1.098-.746 1.843-.746 1.843z" fill="#c09300" stroke-width=".364"/>
      <path d="M432.44 209.26c.274-.902.706-1.726 1.266-2.078 2-1.333 6.43-.902 10.86.236 0 0-.392-1.92 2-1.803 4.234.236 10.664 2 12.663 4 .47.61 1.02 1.264 1.49 2.39h-.078c-.98-1.372-3.764-1.293-4.43-1.216-1.06.117-1.726.077-3.138.43-.666.167-1.686.363-2.236.784-.43.363-.784 1.647-1.46 1.647-1.06 0-.98-.273-1.266-.687-.363-.43-.66-1.06-.902-1.02-1.097.197-2.862-.666-6.096-2.43-2.236-1.766-3.098-2.196-6-2-2.86.236-3.763 1.843-3.763 1.843l.08-.196z" fill="#c09300" stroke-width=".364"/>
      <circle cx="448.824" cy="210.672" r="1.176" stroke="none"/>
    </g>
  </g>
</svg>
