<svg xmlns="http://www.w3.org/2000/svg" height="480" width="640">
  <defs>
    <clipPath id="a">
      <path fill-opacity=".67" d="M-168.67 0H624v612h-682.67z"/>
    </clipPath>
  </defs>
  <g clip-path="url(#a)" fill-rule="evenodd" transform="translate(148.76) scale(.94)">
    <path d="M-180 0H844v266H-180z"/>
    <path fill="#107b00" d="M-180 266H844v266H-180z"/>
    <path fill="#fff" d="M-180 169.31H844v176.13H-180z"/>
    <path d="M309.98 196.66c-46.202-19.423-84.107 20.644-84.063 68.086.046 39.168 38.02 80.92 86.168 62.43-34.087-10.037-48.166-36.216-48.16-60.68-.246-26.216 16.887-64.64 46.046-69.836z" fill="#f0f"/>
    <path fill="#ff1800" d="M363.146 294.214l-26.836-18.868-26.993 18.898 9.963-30.403-26-18.87 31.984.07 9.93-30.662 9.816 30.436 32.116.006-26.924 18.736"/>
    <path d="M314.34 316.66c-60.617 17.636-88.664-20.48-89.216-69.466-.66-38.976 37.69-79.167 89.473-60.866-29.366 4.362-60.912 30.08-61.17 69.168-.196 21.994 12.812 63.346 60.913 61.162zM-179.98 0l348.61 266.62L-180 612l.002-609.38.016-2.622z" fill="red"/>
  </g>
</svg>
