<svg xmlns="http://www.w3.org/2000/svg" height="480" width="640">
  <g fill-rule="evenodd">
    <path fill="#be0027" d="M-.002 0h640.008v480H-.002z"/>
    <path d="M-.002 480l640.008-.3-.032-239.7L-.002 480z" fill="#b4d7f4"/>
    <path d="M-.002 0l640.008.3-.032 239.7L-.002 0z" fill="#239e46"/>
    <path d="M186.23 360.4c-10.713 2.968-16.864 11.27-16.697 19.11l62.73-.21c.476-8.427-6.467-16.22-17.01-19.29 61.627-1.066 96.478-20.404 104.63-32.813-8.066-3.6-17.392 2.134-24.04.837 16.784-7.296 63.073-37.903 66.384-70.717-6.976 18.226-24.08 33.306-31.79 37.364 17.664-26.822 41.786-64.748 20.868-76.373 1.067 12.633-7.966 26.327-11.96 27.364 10.248-28.34 20.026-63.926-2.177-87.383 2.916 8.48 1.738 32.396-2.276 33.47-1.236-19.27-4.626-69.807-24.82-69.23 6.446 6.738 9.266 21.4 9.41 37.22-4.626-10.838-9.883-18.998-21.126-27-9.096-17.444-26.28-31.897-41.464-42.26 1.817 12.696 3.32 22.713 21.048 36.882-9.243-.676-18.484-18.098-28.362-18.683-7.867-.38-14.024 7.12-26.864 2.806 1.422 4.238 7.412 6.116 8.676 9.26-2.76 1.9-9.28-.296-14.707-3.123 7.467 10.17 19.036 16.16 28.868 14.13 11.682-2.246 24.206-1.067 36.16 6.74-3.06 1.667-14.926 1.666-22.646.603 6.927 7.013 11.672 11.66 23.616 11.684 10.767-.07 16.397-6.74 19.16-2.228 6.746 7.993 11.286 16.984 16.93 26.397-12.467 1.377-8.708-14.1-22.693-22.016-7.8 16.148 8.973 36.29 20.39 43.246.166 12.136 1.93 22.29 7.077 31.63 3.47 6.616 7.966 13.184 6.264 27.887-6.836-4.98-13.616-21.768-11.068-36.096-8.666 2.333-11.9 17.377-7.867 24.96 3.012 6.764 6.022 16.798 1.648 21.73-3.384 4.696-3.74 4.08-3.696 13.943.12 6.9-3.176 12.88-8.646 17.746 1.12-4.168 2.4-11.312 1.168-16.784-4.246 7.2-14.893 14.662-18.246 22.392-3.293 7.76-4.128 21.198-20.062 24.297-20.6 4.068-27.676 7.62-40.766 13.018-1.464-10.02 2.917-30.912 11.296-29.72 8.18 1.466 32.98-8.646 24.108-29.44-1.763 6.686-7.698 13.012-13.917 13.297 6.828-8.868 19.013-18.03 13.08-32.872-3.3 6.31-8.488 13.88-16.366 18.14 8.434-16.162.98-20.997-9.036-7.686-3.783 6.136-6.068 16.427-8.47 28.497-3.936-10.63-3.676-24.623-8.337-36.986-4.87-12.287 6.463-16.632 11.796-14.646 13.067 3.486 34.88 3.484 33.268-18.088-6.64 7.297-16.63 9.66-26.21 6.924 11.996-8.76 21.466-26.234 8.1-33.836-.446 9.12-7.606 19.36-16.93 24.06-2.206-7.698-2.206-16.866-.314-24.82-6.262 6.638-9.106 17.064-12.162 30.166-.23-12.96 2.22-22.282 4.037-29.26 2.763-10.176 9.6-3.664 20.078-2.804 10.092.672 23.986-6.006 21.33-18.69-3.446 6.416-10.618 7.622-17.746 6.96 8.7-6.272 23.86-14.638 16.646-29.044-3.493 6.466-4.624 10.124-14.732 11.798 2.647-6.09 3.087-14.7 10.933-18.11-13.994-2.787-22.007 6.397-26.08 20.78-1.66-9.972-3.617-13.643-4.008-20.94 7.666-8.4 8.367-24.838-8.02-28.614-.973 8.48-.686 10.6 1.178 17.403-7.688-4.668-18.624-7.088-26.738-.63 4.888 6.276 12.463 9.918 24.113 4.166-2.764 9.01-9.918 7.468-19.762 4.032 6.017 11.302 13.61 13.31 21.99 12.007 4.388 11.668 4.68 20.367-8.24 37.203.692-10.47-.162-18.268-8.47-26.732-7.127-6.98-12.92.3-1.78 16.818-6.768-4.976-14.406-16.076-16.708-26.174-2.228 12.476-.222 27.178 6.684 36.42-3.268 3.492-6.982-.37-12.476-8.91 2.078 27.328 13.737 32.6 29.406 26.61.446 16 .446 28.888 1.336 47.007-9.136-13.142-20.718-22.946-27.18-26.396-2.004 7.363 6.672 16.93 9.804 22.277-6.46-1.337-20.496-12.03-20.496-12.03-1.412 12.18 14.334 23.467 24.606 28.616-11.966-.62-17.23-6.06-24.962-12.476.16 33.788 36.608 27.92 43.442 22.722.89 16.636 2.16 36.864 3.063 62.6-10.307-1.8-9.497-4.898-18.316-6.716-24.478-.964-43.896-29.384-60.326-60.297-1.846 3.442-.382 7.043-2.07 11.27-3.973-10.264-9.06-23.62-16.86-29.69 1.736 6.983 1.918 12.066 1.316 23.26-2.337-7.248-4.61-9.47-4.667-17.977.16-6.63 6.3-11.36 6.96-20.636-.262-6.706-6.37-21.242-7.27-32.496-2.96 11.682-4.82 23.79-9.367 30.96 2.266-12.367 1.632-20.902 6.346-29.226 4.404-8.763 8.16-16.686 6.217-26.43-2.813 3.416-1.846 6.62-8.912 14.818-1.636-9.026 9.138-23.47 19.496-29.277 7.306-3.86 16.616-17.617 10.616-27.063-6.87 4.934-9.966 11.6-19.66 22.99 6.923-27.06 24.91-34.138 46.44-34.23 4.766-.023 14.37-1.743 17.067-8.048-6.07 2.343-13.246 2.64-19.63 1.363 4.646-6.823 14.434-6.936 23.664-6.977 7.164-.034 18.322-1.004 22.837-11.193-8.727 3.78-22.337 4.667-30.906 1.89 13.628-7.062 34.976-7.822 46.924-17.088-12.48-9.316-43.706 2.168-63.43 16.696 6.612-6.04 14.226-13.983 19.032-21.202-10.787-6.172-38.068 26.06-47.466 43.008-8.927 6.04-12.497 12.943-16.963 18.467 4.766-16.073 6.26-27.736 9.228-40.97-30.6 10.632-17.88 67.068-24.636 80.694.784-14.933.16-34.116-6-44.008-9.423 7.19-10.184 49.61-1.336 84.74-3.196-9.43-9.226-18.23-11.16-29.706-13.96 26.44 8.176 66.464 26.677 79.162-13.93-7.266-27.7-22.86-36.747-36.94 2.496 46.632 60.046 64.992 67.427 66.183-10.02-4.664-29.173-13.892-37.3-4.223 13.23 3.066 23.786 6.686 32.29 12.16 12.34 16.407 36.707 22.146 76.403 23.847z" fill="#f3e296"/>
  </g>
</svg>
