<svg xmlns="http://www.w3.org/2000/svg" height="480" width="640" version="1">
  <defs>
    <clipPath id="a">
      <path fill-opacity=".67" d="M-61.312 0h682.67v612h-682.67z"/>
    </clipPath>
  </defs>
  <g fill-rule="evenodd" clip-path="url(#a)" transform="translate(67.48) scale(.94)" stroke-width="1pt">
    <path fill="#ffc621" d="M-237.99 3.6h1037.9v498h-1037.9z"/>
    <path fill="#ef2118" d="M-240 342.6H799.3V612H-240z"/>
    <path fill="#298c08" d="M-237.99 0h1038v180h-1038z"/>
    <ellipse cx="634.22" rx="199.66" cy="362.97" transform="matrix(.64 0 0 .64 -26.81 73.96)" ry="199.66" fill="#006bc6"/>
    <path d="M214.26 188.2l-6.432 4.622 23.494 33.02 6.266-3.996-23.33-33.646zm29.41 77.942l-9.66-6.736 3.99-12.676-48.12.672-13.93-10.664 66.69-.708 12.184-36.908 6.646 14.924-16.7 62.098zm76.622-70.68l-6.264-4.764-24.378 32.374 6.703 4.766 24.93-32.376zM264.77 247.06l3.603-11.246 13.29-.024-16.182-46.67 6.968-16.6 20.624 62.408 38.864.46-12.248 10.748-64.71-.176zm90.672 61.166l2.616-7.416-38.296-13.262-2.786 6.89 38.466 13.786zm-69.18-46.416l11.778-.12 4.104 12.64 38.803-28.468 17.632.604-63.093 38.693 11.493 37.127-13.99-8.367-16.628-62.12zm-19.748 102.08l7.862.114.363-40.624-7.42-.443-.806 40.863zm21.944-80.366l3.867 11.126-10.673 7.917 39.363 27.706 6.016 16.81-63.696-37.99-31.628 22.73 3.462-16.924 44.1-32.376zM176.188 286.6l2.326 7.61 38.646-12.202-1.877-7.192L176.19 286.6zm83.21-4.02l-9.38 7.12-10.836-7.696-14.167 46.997-14.432 9.976 19.626-62.727-31.376-22.94 16.213-1.638 44.44 31.908z" fill="#ffc621"/>
  </g>
</svg>
