<svg xmlns="http://www.w3.org/2000/svg" height="480" width="640">
  <path d="M0 0v480h640V0H0z" fill-rule="evenodd" fill="#67b1ff"/>
  <g stroke-width="1pt">
    <path fill-rule="evenodd" fill="#0000b4" d="M0 0h431.43v277.167H0z"/>
    <path d="M0 0v30.99l383.196 246.18h48.234v-30.988L48.233 0H0zm431.43 0v30.988L48.233 277.17H0v-30.987L383.196 0h48.234z" fill="#fff"/>
    <path d="M179.762 0v277.17h71.906V0h-71.906zM0 92.39v92.39h431.43V92.39H0z" fill="#fff"/>
    <path d="M0 110.87v66.433h431.43V110.87H0zM194.143 0v277.17h43.143V0h-43.143zM0 277.17l143.81-92.39h32.166l-143.81 92.39H0zM0 0l143.81 92.39h-32.166L0 20.66V0zm266.463 92.39L399.273 0h32.166L287.62 92.39h-32.167zM431.43 277.17l-143.81-92.39h32.166l111.664 71.733v20.668z" fill="#c00"/>
  </g>
  <g fill-rule="evenodd">
    <path d="M391.43 137.047V296.31c20.634 111.483 66.467 127.41 102.667 169.262 46.2-31.863 82.132-47.78 102.666-169.263V137.046H391.43z" fill="#fff"/>
    <path d="M480.408 137.047l.216 309.49 13.69 8.987L608 446.288l-.214-309.236h-27.378z" fill="#da0000"/>
    <path d="M391.43 297.99l10.27 43.38 186.336-.12 9.73-43.26H391.433zm0-160.943h206.333V248.63H391.43z" fill="#da0000"/>
    <g transform="matrix(.28 0 0 .4 309.76 297.89)">
      <rect rx="23.226" ry="27.989" height="66.978" width="46.46" stroke="#000" y="-281.68" x="306.09" stroke-width=".76" fill="#f6efec"/>
      <path d="M860.4-296.67s47.64-3.673 64.316-22.63c16.676-19.066-11.314-63.696 6.66-67.17 7.147-.696 17.27 1.788 26.012 11.316-1.19-7.146-6.966-11.314-7.74-16.48-6.662-6.968-13.103-6.362-22.63-6.362-6.662 1.192-7.743-1.192-18.46-13.697-6.36-6.966-6.36-20.842-1.193-30.966-12.606 9.628-10.123 22.628-8.932 26.606 2.977 13.102 6.966 16.676 6.966 22.63-3.673-1.786-10.124-17.27-44.068-19.662-33.946-2.382-119.7 23.82-168.41 23.82-38.71 0-94.688-16.078-94.688-16.078s14.292-11.316-2.978-16.08c-17.27-4.763-66.382 16.676-66.102 4.766-7.74-11.314-4.764-8.932-6.966-14.29-2.977 1.786-4.764 8.932-.696 18.46 4.168 9.628 6.66 6.66 6.966 6.66-.696 0-13.697 0-14.888 4.766-1.192 3.672-2.98 7.74 3.672 20.842 2.382-13.1-6.66-14.887 13.1-16.078 19.664-1.192 33.36 7.74 60.024 10.718 16.676 2.978 16.676-7.146 17.27-6.66.696.696 61.214 14.292 97.664 11.314 46.46-2.977 121.49-28.686 166.02-23.226 34.64 6.36 67.17 30.37 67.766 63.696-.696 14.292-16.483 21.438-27.393 23.82-14.292 2.382-47.64 6.966-47.64 6.966l18.46 13.1z" transform="matrix(.88 0 0 .7 113.77 -89.63)" stroke="#000" stroke-width=".876" fill="#ff0"/>
      <path d="M683.06-248.92c-.696 0-32.764.696-42.282 14.292-9.628 13.697-13.697 26.8-13.1 26.8.694 0 21.437-11.316 21.437-11.316s-16.483 22.63-7.146 42.877c8.336 20.247-22.01 19.066-39.608 19.66-7.742-6.964-32.473-16.078-41.292-17.864-6.607-2.086-16.32-2.364-27.616 10.346-6.663 7.83 9.888-7.37 26.296-6.178 1.773 1.786 2.916 3.674 3.23 7.74-8.74-.694-17.84-10.718-28.668 10.126 10.72-7.146 12.06-6.997 17.493-7.444 7.24-.637 6.31 3.276 6.01 3.276-1.19 0-4.144.696-8.616 4.764-2.383 2.976-8.338 9.627-7.147 9.627s4.762-3.673 10.327-6.66c3.484-2.383 6.793-2.383 17.322.696 67.766 13.696 88.73 3.673 92.304-1.787 1.787-2.38-33.36-69.676 60.147-87.64-1.19-.696-39.303-10.72-39.303-11.316z" transform="matrix(.86 0 0 1 231.26 -38.11)" stroke="#000" stroke-width=".6" fill="#ff0"/>
      <path d="M472.84-212.6c32.763 27.394 263.69-29.18 281.68-48.832 16.08-11.316 44.068-19.662 44.068 19.066 7.146-26.203 7.147-32.763 7.147-32.168.696.696 11.314 10.126 20.843 42.283 2.382-28.687-4.17-46.26-.696-42.88 2.382-2.38 2.382 14.293 21.438 37.618-4.168-18.46-6.36-26.798-6.36-26.798s36.732 34.64 66.98 39.304c20.247 4.764 49.427-9.628 68.36-1.19 8.932 8.337 24.418 23.224 23.818 36.136-.69 11.91-33.347 1.786-36.92 11.313-3.673 9.63 2.382 9.63 2.382 9.63s2.977 7.146 6.36 13.1c1.786-4.17-1.787-13.102 4.764-13.697 4.764.696 4.764 8.337 6.966 12.606 1.388-4.764-.2-14.292 4.168-14.292 4.764-.993 6.36 7.643 8.932 13.1v-13.1c13.698-4.17 26.604-4.764 27.394-13.697 1.78-8.933-20.846-29.18-26.206-42.282-6.366-13.1 4.17-18.46-6.962-26.606-10.123-7.146-48.832 11.316-66.697 4.17-17.867-7.147-10.72-68.362-78.014-69.676-67.293-11.316-249.62 69.66-281.68 62.63-32.168 2.976-71.46-10.126-71.46-10.126l.694 64.787z" stroke="#000" stroke-width=".626" fill="#ff0"/>
      <path d="M420.43-263.22s-28.686-37.618-61.81-41.09c-23.226-2.978-46.866 14.292-60.62 11.91-4.763-2.383-6.66.696-9.627 6.966-2.978 6.36.696 8.932.696 8.337 1.19 0 4.17-8.933 6.36-9.628 1.192-.696-6.966 10.72 1.192 11.91 2.382.696 3.673-8.337 6.66-11.91.696.696-4.764 12.606-1.786 13.1 2.977.697 6.66-11.91 11.91-14.887 7.742-6.36 19.066-7.147 33.36-7.146 14.29 4.17 43.47 38.71 46.46 38.113l8.336-4.763z" transform="matrix(.98 .23 .18 -1.26 64.17 -666.73)" stroke="#000" stroke-width=".6" fill="#ff0"/>
      <path d="M420.43-263.22s-28.686-37.618-61.81-41.09c-23.226-2.978-46.866 14.292-60.62 11.91-4.763-2.383-6.66.696-9.627 6.966-2.978 6.36.696 8.932.696 8.337 1.19 0 4.17-8.933 6.36-9.628 1.192-.696-6.966 10.72 1.192 11.91 2.382.696 3.673-8.337 6.66-11.91.696.696-4.764 12.606-1.786 13.1 2.977.697 6.66-11.91 11.91-14.887 7.742-6.36 19.066-7.147 33.36-7.146 14.29 4.17 43.47 38.71 46.46 38.113l8.336-4.763z" transform="matrix(1 0 0 1.13 11.31 42.24)" stroke="#000" stroke-width=".6" fill="#ff0"/>
      <path d="M417.46-267.98l-31.662 16.483 23.226 6.966-16.676 19.066 23.82-7.742-1.786 26.607 13.697-16.673 8.932 23.226 9.628-17.27 11.316 19.066 4.764-18.46 13.696 18.46 4.764-26.01 16.676 16.482-2.382-26.203 20.247 6.66-12.606-20.247s22.034-1.19 20.843-1.19-16.674-13.102-30.37-16.676l-76.227.696z" stroke="#000" stroke-width=".6" fill="#ff0"/>
      <path d="M417.46-267.98l-31.662 16.483 23.226 6.966-16.676 19.066 23.82-7.742-1.786 26.607 13.697-16.673 8.932 23.226 9.628-17.27 11.316 19.066 4.764-18.46 13.696 18.46 4.764-26.01 16.676 16.482-2.382-26.203 20.247 6.66-12.606-20.247s22.034-1.19 20.843-1.19-16.674-13.102-30.37-16.676l-76.227.696z" transform="matrix(.66 0 0 .67 206.66 -123.01)" stroke="#000" stroke-width=".808" fill="#ff0"/>
      <path d="M443.06-316.81s-8.93-7.146-12.604 0c-3.674 7.147 7.74 4.17 7.74 6.36s-7.74 9.628-7.74 19.067c0 9.628 6.966 26.607 6.966 27.99s2.383 8.93 10.72 11.313 11.316-7.74 13.1-8.932c1.788-1.19 13.103 1.786 17.27-8.337 4.17-10.123 4.17-28.684 4.17-28.684s7.146 6.36 7.146-6.36-7.742 0-7.742 0 1.19-11.314-17.27-16.674-20.247 6.36-20.843 4.168z" stroke="#000" stroke-width=".6" fill="#ff0"/>
      <path d="M441.48-317.31c-2.38-4.827-9.14-23.32-9.14-23.32l16.206 6.942c-6.63-1.374-10.26-2.18-9.664-2.18.696 0 7.147 8.934 7.147 8.934 6.46-.374 12.903 1.774 20.843 3.603 0 0 6.66-7.287 6.966-7.287-.696 0-3.673-1.192-3.673-1.192l14.888-6.83-4.764 9.214h-2.978l-6.966 6.69c6.7 1.26 9.976 2.242 16.626 6.446 6.807-.84 10.72-3.862 13.846-6.13-6.21-1.437-7.692-2.668-6.997-2.668.696 0 21.886 1.12 21.886 1.12s-20.89 12.917-33.093 17.66c-11.29-3.246-39.96-9.216-41.14-11.002z" transform="matrix(.94 -.02 .03 1.42 36.6 137.73)" stroke="#000" stroke-width=".64" fill="#ff0"/>
      <rect transform="matrix(.9 .43 -1 -.1 0 0)" rx="6.866" ry="3.077" height="6.163" width="13.731" y="-1416.1" x="-1066.8"/>
      <rect transform="matrix(.9 .43 -1 -.1 0 0)" rx="6.866" ry="3.077" height="6.163" width="13.731" y="-1419.6" x="-1060"/>
      <rect transform="matrix(.96 .32 -1 -.08 0 0)" rx="12.761" ry="6.97" height="11.94" width="26.622" y="-1636.6" x="-1263.9"/>
      <rect transform="matrix(.94 .36 -1 -.1 0 0)" rx="6.781" ry="2.674" height="6.349" width="11.662" y="-1666.8" x="-1186.4"/>
      <rect transform="matrix(.33 -.94 .14 1 0 0)" rx="4.931" ry="2.046" height="4.093" width="9.861" y="734.39" x="1061.7"/>
    </g>
    <g stroke="#000" transform="matrix(1.1 0 0 1.27 -361.46 -17.2)">
      <path d="M737.06 319.6c1.663 4.742.814 0-.967 7.344 1.094-2.188 2.666-3.438 3.28-3.437.94 0 1.407 0 3.282 1.406-1.718-2.6-4.687-1.876-4.63-6.626-.167-.86-1 .08-1.076.312z" transform="matrix(1.06 0 0 1.4 -30.43 -120.97)" stroke-width=".376" fill="#ff7300"/>
      <rect transform="matrix(.82 -.67 .2 .98 0 0)" rx=".686" ry=".606" height="18.038" width="1.369" y="717.69" x="708.8" stroke-width=".103" fill="#b2802e"/>
      <path d="M734.06 312.16c.78-.47 6.662-11.094 34.062-9.632-16.626 6.313-26.313 16.663-27.666 17.03-1.72.47-6.47-6.78-6.406-7.498z" transform="matrix(.8 0 0 .98 162.8 3.9)" stroke-width=".376" fill="#fff"/>
      <g stroke-width=".333" fill="#007600">
        <path d="M-3819.3-4447.1l-7.42-2.76 16.13 11.39-2.9-6.36-4.81-3.28z" transform="matrix(-.6 -1.06 .3 .96 169.9 614.87)"/>
        <path d="M-3819.3-4447.1l-6.31.27 12.7 7.69-2.68-4.68-4.81-3.28z" transform="matrix(.07 -.68 -.3 .64 -293.62 91.01)"/>
        <path d="M-3819.9-4447.6l4.64 7.4 4.42 1.26-3.68-4.96-6.48-3.7z" transform="matrix(-1.36 -.47 1.62 .64 2287.67 1366.68)"/>
        <path d="M-3821.8-4448.7l17.63 22.4-6.67-12.48-3.47-6.09-7.39-4.83z" transform="matrix(-.66 .32 .76 -.16 2024.7 827.17)"/>
        <path d="M-3822.2-4449.9l-12.6-6.61 24.06 18.66-3.81-6.13-7.74-6.02z" transform="matrix(.98 .07 -1.18 -.24 -766.76 -628.66)"/>
        <path d="M-3823.6-4460.2l-6.23-1.22 17.81 13.32-3.66-6.79-9.02-6.31z" transform="matrix(1.6 .66 -1.64 -.82 -831.78 -861.13)"/>
        <path d="M-3824.7-4461.7l-13.4-9.74 24.36 20.96-.74-3.33-10.21-7.89z" transform="matrix(1.76 1.24 -1.77 -1.34 -460.61 -944.94)"/>
        <path d="M-3822.2-4449.3l10.6 14.41 1.71-2.6-4.66-6.36-7.76-6.46z" transform="matrix(1.37 1.4 -1.26 -1.4 369.76 -688.43)"/>
        <path d="M-3820.2-4447l16.6 19.26-3.36-7.74-6.63-8.32-6.72-3.19z" transform="matrix(.92 1.26 -.76 -1.2 896.99 -233.09)"/>
        <path d="M-3821-4448.7l12.21 17.13-.11-6.26-6.67-6.99-6.63-4.89z" transform="matrix(.2 .86 .02 -.73 1647.69 307.23)"/>
        <path d="M-3818.9-4446.9l1.97 4.26 4.24 2.13-1.8-3.38-4.41-3.01z" transform="matrix(-1.14 -1.33 1 1.3 788.44 989.43)"/>
        <path d="M-3819.3-4447.1v6.78l6.63 1.34-1.82-3.84-4.81-3.28z" transform="matrix(-.6 -.73 .34 .64 326.66 337.13)"/>
        <path d="M-3819.3-4447.1v6.78l6.63 1.34-1.82-3.84-4.81-3.28z" transform="matrix(-.84 -.28 .9 .4 1601.16 974.27)"/>
        <path d="M-3819.3-4447.1v6.78l6.63 1.34-1.82-3.84-4.81-3.28z" transform="matrix(.7 .14 -.82 -.26 -238.04 -272.2)"/>
        <path d="M-3819.3-4447.1l16.68 18.96-10.18-13.71-.69-1.96-4.81-3.28z" transform="matrix(.26 .62 -.13 -.66 1093.02 160.12)"/>
        <path d="M-3819.3-4447.1l10.96 13.18-4.32-6.06-1.82-3.84-4.81-3.28z" transform="matrix(1.64 1.38 -1.6 -1.44 -104.7 -827.04)"/>
        <path d="M-3819.3-4447.1l-14.43-12.69 18.26 16.79.98-.92-4.81-3.28z" transform="matrix(1.46 .6 -1.6 -.77 -839.02 -829.37)"/>
        <path d="M-3819.3-4447.1v6.78l6.63 1.34-1.82-3.84-4.81-3.28z" transform="matrix(-.36 -.73 .22 .66 328.36 444.63)"/>
      </g>
      <path d="M769.39 306.01c-3.24 1.066-4.827 1.673-6.466 1.782.836.367 2.69.14 4.807.71-1.886.042-6.374 1.48-6.826 1.616 1.003.602 4.68.022 6.238.18-1.913.118-4.99 1.6-6.908 1.6-.878.67 4.46-.46 6.602.807-2.216-.114-6.62 1.16-8.86.863 1.777 1.042 4.962-.112 7.6 1.017-.767.084-6.91.772-9.086.446 1.3.66 6.218.643 6.18 1.12-1.62-.21-6.927.69-7.426.332 1.348.972 6.413.424 6.16 1.01-2.667.926-6.683.186-8.636.437 1.242.68 2.267 1.167 3.366 1.71 1.606 1.127 6.61 4.294 9.6 6.246-3.31-.433-4.464-.49-6.603-.666l4.867 6.16c-2.03-1.096-6.61-3.162-7.988-4.23-6.264-2.677-9.068-2.13-12.704-4.313-6.122-4.966-7.966-10.886-8.222-12.464-.267-1.678-.48-4.407-6.163-2.933 4.61-.68 6.406-6.792 6.768-6.683.16.09.678 3.483 1.638 4.863.706.983 6.71 4.348 7.706 4.627 8.943-6.314 16.197-6.967 24.24-3.117z" transform="matrix(1.06 0 0 1.4 -29.62 -119.66)" stroke-width=".376" fill="#fff"/>
    </g>
    <g stroke="#000" stroke-width=".26" transform="matrix(1.1 0 0 1.27 -368.42 -17.2)">
      <rect transform="rotate(44.69)" rx="1.391" ry="6.663" height="11.127" width="2.782" y="-362.62" x="802.37" fill="#e4cc00"/>
      <path d="M796.02 334.336c-.21-1.173-.348-1.766.244-3.303.864-1.083 1.317-2.043 2.893-3.164 1.71-.663 2.286-.066 4.628-2.134.72-1.37 1.82-2.406 2.446-3.882 1.46-2.177 1.96-3.262 3.12-4.927 1.66-1.74 2.8-3.302 3.708-4.636.97-1.71 1.84-2.768 3.246-4.174.67-1.604 1.79-2.794 3.246-4.172 1.113-2.033 3.247-4.36 4.173-6.027 1.642-1.88 2.284-2.697 3.71-4.636 1.264-.827 3.37-2.643 6.1-3.244 2.368-.99 3.62-1.97 6.172-.464 1.027 1.027 2.873 2.68 1.69 3.9-.676.748-1.78.84-3.064.273-1.31-.848-1.946-3.316-3.71-1.39-1.273 1.464-1.926 2.616-3.708 4.17-.886 1.306-1.626 2.28-2.318 4.174-1.048 1.208-1.914 2.667-2.78 4.636-1.126.928-2.094 2.77-2.783 4.172-1.113 1.166-1.916 2.364-2.783 4.173-1.76 1.677-2.406 3.096-3.71 4.172-.86 1.82-2.216 3.668-3.244 4.636-.812 1.32-1.618 2.696-2.318 4.173-1.476 1.606-1.64 1.83-3.71 4.173-1.806 2.366-1.197 2.07-4.026 4.8-1.648.61-3.103.686-6.03-1.298z" fill="#006000"/>
      <rect transform="rotate(22.17)" rx="1.391" ry="6.663" height="11.127" width="2.782" y="-20.84" x="862.29" fill="#e4cc00"/>
      <rect transform="rotate(24.03)" rx="1.391" ry="6.663" height="11.127" width="2.782" y="-48.488" x="863.44" fill="#e4cc00"/>
      <rect transform="rotate(36.86)" rx="1.391" ry="6.663" height="11.127" width="2.782" y="-224.62" x="840.48" fill="#e4cc00"/>
      <rect transform="rotate(49.63)" rx="1.391" ry="6.663" height="11.127" width="2.782" y="-420.33" x="773.6" fill="#e4cc00"/>
      <rect transform="rotate(46.46)" rx="1.391" ry="6.663" height="11.127" width="2.782" y="-363.86" x="799.69" fill="#e4cc00"/>
      <rect transform="rotate(36.86)" rx="1.391" ry="6.663" height="11.127" width="2.782" y="-224.23" x="844.16" fill="#e4cc00"/>
      <rect transform="rotate(36.86)" rx="1.391" ry="6.663" height="11.127" width="2.782" y="-224.62" x="842.29" fill="#e4cc00"/>
      <g transform="rotate(36.86 -1.43 -10.31)" fill="#e4cc00">
        <rect rx="1.391" ry="6.663" height="11.127" width="2.782" y="-244.67" x="838.79"/>
        <rect rx="1.391" ry="6.663" height="11.127" width="2.782" y="-244.68" x="840.86"/>
        <rect rx="1.391" ry="6.663" height="11.127" width="2.782" y="-244.66" x="843"/>
        <rect rx="1.391" ry="6.663" height="11.127" width="2.782" y="-244.7" x="846.3"/>
        <rect rx="1.391" ry="6.663" height="11.127" width="2.782" y="-244.64" x="847.16"/>
        <rect rx="1.391" ry="6.663" height="11.127" width="2.782" y="-246.76" x="867.84"/>
        <rect rx="1.391" ry="6.663" height="11.127" width="2.782" y="-246.32" x="866.37"/>
        <rect rx="1.391" ry="6.663" height="11.127" width="2.782" y="-246.1" x="864.94"/>
        <rect rx="1.391" ry="6.663" height="11.127" width="2.782" y="-246.02" x="862.83"/>
        <rect rx="1.391" ry="6.663" height="11.127" width="2.782" y="-244.68" x="860.76"/>
        <rect rx="1.391" ry="6.663" height="11.127" width="2.782" y="-244.64" x="848.96"/>
      </g>
      <rect transform="rotate(28.47 -.2 -.77)" rx="1.391" ry="6.663" height="11.127" width="2.782" y="-116.06" x="869.81" fill="#e4cc00"/>
      <g transform="rotate(36.86 -14.89 -16.69)" fill="#e4cc00">
        <rect rx="1.391" ry="6.663" height="11.127" width="2.782" y="-244.67" x="838.79"/>
        <rect rx="1.391" ry="6.663" height="11.127" width="2.782" y="-244.68" x="840.86"/>
        <rect rx="1.391" ry="6.663" height="11.127" width="2.782" y="-244.66" x="843"/>
        <rect rx="1.391" ry="6.663" height="11.127" width="2.782" y="-244.7" x="846.3"/>
        <rect rx="1.391" ry="6.663" height="11.127" width="2.782" y="-244.64" x="847.16"/>
        <rect rx="1.391" ry="6.663" height="11.127" width="2.782" y="-246.76" x="867.84"/>
        <rect rx="1.391" ry="6.663" height="11.127" width="2.782" y="-246.32" x="866.37"/>
        <rect rx="1.391" ry="6.663" height="11.127" width="2.782" y="-246.1" x="864.94"/>
        <rect rx="1.391" ry="6.663" height="11.127" width="2.782" y="-246.02" x="862.83"/>
        <rect rx="1.391" ry="6.663" height="11.127" width="2.782" y="-244.68" x="860.76"/>
        <rect rx="1.391" ry="6.663" height="11.127" width="2.782" y="-244.64" x="848.96"/>
      </g>
    </g>
    <g stroke="#000" transform="matrix(1.06 0 0 1.16 -336.89 12.3)">
      <rect transform="rotate(18.82)" rx="1.432" ry=".678" height="24.19" width="2.864" y="-28.09" x="774.89" stroke-width=".172" fill="#b2802e"/>
      <rect rx="1.432" ry=".678" height="24.19" width="2.864" y="221.74" x="727.44" stroke-width=".172" fill="#b2802e"/>
      <rect rx="1.432" ry=".678" height="24.19" width="2.864" y="221.28" x="707.97" stroke-width=".172" fill="#b2802e"/>
      <g stroke-width=".26" fill="#004600">
        <path d="M692.68 226.06c.3-4.898 4.144-6.406 10.4-4.22.627.302.98-.602.828-.678-10.023-6.274-14.492-19.462 1.66-16.9 2.41.764-2.172 2.144-6.61 2.76-4.62.672-1.702 6.83 7.266 12.633 1.96 1.608 6.33 4.697 6.33 4.697s-1.683 2.788-1.734 2.788c-.16 0-12.207-4.37-16.07-.603-1.81 3.014.687 3.448.084 7.97-1.066 3.918-1.682 3.466-1.81-.076.786-2.466-2.346-6.312-2.344-8.272z" transform="matrix(.42 .6 -.7 .23 683.24 -267.26)"/>
        <path d="M692.68 226.06c.3-4.898 4.144-6.406 10.4-4.22.627.302.98-.602.828-.678-10.023-6.274-6.197-19.173 9.864-16.61 2.41.763 1.946 1.61-1.392 2.227-4.62.67-14.114 7.073-6.146 12.876 1.96 1.608 6.33 4.697 6.33 4.697s-1.683 2.788-1.734 2.788c-.16 0-12.207-4.37-16.07-.603-1.81 3.014 1.096 6.817.492 10.34-1.066 3.917-1.682 3.466-1.81-.076.076-.602-2.763-8.68-2.762-10.64z" transform="matrix(.38 .62 -.7 .2 612.9 -260.63)"/>
        <path d="M692.68 226.06c.3-4.898 4.144-6.406 10.4-4.22.627.302.98-.602.828-.678-10.023-6.274-2.64-11.926 11.99-9.1 1.686.2-2.096 2.163-6.433 2.78-4.62.67-12.21-.99-3.24 4.813 1.968 1.608 6.328 4.697 6.328 4.697s-1.682 2.788-1.733 2.788c-.16 0-12.207-4.37-16.07-.603-1.81 3.014 7.07 9.44 6.467 13.96-1.066 3.92-1.682 3.467-1.81-.074.076-.603-8.728-12.303-8.727-14.263z" transform="matrix(.33 .66 -.7 .13 662.31 -262.77)"/>
      </g>
      <g stroke-width=".26" fill="#004600">
        <path d="M692.68 226.06c.3-4.898 4.144-6.406 10.4-4.22.627.302.98-.602.828-.678-10.023-6.274-10.194-16.4 6.867-13.838 2.41.763-2.096 2.164-6.432 2.78-4.62.672-6.077 3.76 2.89 9.66 1.96 1.61 6.33 4.698 6.33 4.698s-1.682 2.788-1.733 2.788c-.16 0-12.207-4.37-16.07-.603-1.81 3.014-1.734 3.166-2.337 7.687-1.066 3.918-1.682 3.466-1.81-.076.076-.604.076-6.03.077-7.99z" transform="matrix(.43 .6 -.7 .24 660.19 -266.61)"/>
        <path d="M692.68 226.06c.3-4.898 4.144-6.406 10.4-4.22.627.302.98-.602.828-.678-10.023-6.274-10.194-16.4 6.867-13.838 2.41.763-2.096 2.164-6.432 2.78-4.62.672-6.077 3.76 2.89 9.66 1.96 1.61 6.33 4.698 6.33 4.698s-1.682 2.788-1.733 2.788c-.16 0-12.207-4.37-16.07-.603-1.81 3.014-1.734 3.166-2.337 7.687-1.066 3.918-1.682 3.466-1.81-.076.076-.604.076-6.03.077-7.99z" transform="matrix(.4 .62 -.7 .2 689.82 -260.11)"/>
        <path d="M692.68 226.06c.3-4.898 4.144-6.406 10.4-4.22.627.302.98-.602.828-.678-10.023-6.274-10.194-16.4 6.867-13.838 2.41.763-2.096 2.164-6.432 2.78-4.62.672-6.077 3.76 2.89 9.66 1.96 1.61 6.33 4.698 6.33 4.698s-1.682 2.788-1.733 2.788c-.16 0-12.207-4.37-16.07-.603-1.81 3.014-1.734 3.166-2.337 7.687-1.066 3.918-1.682 3.466-1.81-.076.076-.604.076-6.03.077-7.99z" transform="matrix(.34 .66 -.7 .14 629.21 -262.67)"/>
      </g>
      <g stroke-width=".26" fill="#004600">
        <path d="M692.68 226.06c.3-4.898 4.144-6.406 10.4-4.22.627.302.98-.602.828-.678-10.023-6.274-14.492-19.462 1.66-16.9 2.41.764-2.172 2.144-6.61 2.76-4.62.672-1.702 6.83 7.266 12.633 1.96 1.608 6.33 4.697 6.33 4.697s-1.683 2.788-1.734 2.788c-.16 0-12.207-4.37-16.07-.603-1.81 3.014.687 3.448.084 7.97-1.066 3.918-1.682 3.466-1.81-.076.786-2.466-2.346-6.312-2.344-8.272z" transform="matrix(.2 .7 -.73 -.02 770.2 -279)"/>
        <path d="M692.68 226.06c.3-4.898 4.144-6.406 10.4-4.22.627.302.98-.602.828-.678-10.023-6.274-6.197-19.173 9.864-16.61 2.41.763 1.946 1.61-1.392 2.227-4.62.67-14.114 7.073-6.146 12.876 1.96 1.608 6.33 4.697 6.33 4.697s-1.683 2.788-1.734 2.788c-.16 0-12.207-4.37-16.07-.603-1.81 3.014 1.096 6.817.492 10.34-1.066 3.917-1.682 3.466-1.81-.076.076-.602-2.763-8.68-2.762-10.64z" transform="matrix(.16 .72 -.72 -.06 799.26 -272.13)"/>
        <path d="M692.68 226.06c.3-4.898 4.144-6.406 10.4-4.22.627.302.98-.602.828-.678-10.023-6.274-2.64-11.926 11.99-9.1 1.686.2-2.096 2.163-6.433 2.78-4.62.67-12.21-.99-3.24 4.813 1.968 1.608 6.328 4.697 6.328 4.697s-1.682 2.788-1.733 2.788c-.16 0-12.207-4.37-16.07-.603-1.81 3.014 7.07 9.44 6.467 13.96-1.066 3.92-1.682 3.467-1.81-.074.076-.603-8.728-12.303-8.727-14.263z" transform="matrix(.1 .73 -.72 -.12 837.06 -260.81)"/>
      </g>
    </g>
    <g stroke="#000" transform="matrix(1.1 0 0 1.27 -361.46 -17.2)">
      <rect rx="1.432" ry=".678" height="24.19" width="2.864" y="222.49" x="826.06" stroke-width=".172" fill="#b2802e"/>
      <g stroke-width=".333" fill="#007600">
        <path d="M-3819.3-4447.1l-7.42-2.76 16.13 11.39-2.9-6.36-4.81-3.28z" transform="matrix(2.83 -1.24 -3.06 .96 -1926.62 -304.33)"/>
        <path d="M-3819.3-4447.1l-6.31.27 12.7 7.69-2.68-4.68-4.81-3.28z" transform="matrix(3.13 -.33 -3.22 -.02 -1673.42 -1098.14)"/>
        <path d="M-3819.9-4447.6l4.64 7.4 4.42 1.26-3.68-4.96-6.48-3.7z" transform="matrix(-2.36 -1.9 2.13 2.18 1324.03 2719.86)"/>
        <path d="M-3821.8-4448.7l17.63 22.4-6.67-12.48-3.47-6.09-7.39-4.83z" transform="matrix(-3.1 -.46 3.1 .8 2736.86 2087.12)"/>
        <path d="M-3822.2-4449.9l-12.6-6.61 24.06 18.66-3.81-6.13-7.74-6.02z" transform="matrix(2.86 1.2 -2.74 -1.64 -448.36 -2034.46)"/>
        <path d="M-3823.6-4460.2l-6.23-1.22 17.81 13.32-3.66-6.79-9.02-6.31z" transform="matrix(2.03 2.16 -1.77 -2.43 720.32 -2307.97)"/>
        <path d="M-3824.7-4461.7l-13.4-9.74 24.36 20.96-.74-3.33-10.21-7.89z" transform="matrix(.34 2.82 .04 -2.9 2314.66 -1926.99)"/>
        <path d="M-3822.2-4449.3l10.6 14.41 1.71-2.6-4.66-6.36-7.76-6.46z" transform="matrix(-1.66 2.47 1.92 -2.34 3429.12 -741.41)"/>
        <path d="M-3820.2-4447l16.6 19.26-3.36-7.74-6.63-8.32-6.72-3.19z" transform="matrix(-2.4 1.86 2.68 -1.6 3638.7 109.42)"/>
        <path d="M-3821-4448.7l12.21 17.13-.11-6.26-6.67-6.99-6.63-4.89z" transform="matrix(-3.04 .76 3.2 -.42 3422.62 1206.87)"/>
        <path d="M-3818.9-4446.9l1.97 4.26 4.24 2.13-1.8-3.38-4.41-3.01z" transform="matrix(2.06 -2.16 -2.38 1.96 -1931.76 726.96)"/>
        <path d="M-3819.3-4447.1v6.78l6.63 1.34-1.82-3.84-4.81-3.28z" transform="matrix(1.6 -1.04 -1.62 .8 -633.93 -217.22)"/>
        <path d="M-3819.3-4447.1v6.78l6.63 1.34-1.82-3.84-4.81-3.28z" transform="matrix(-1.62 -1.17 1.2 1.3 424.38 1668.92)"/>
        <path d="M-3819.3-4447.1v6.78l6.63 1.34-1.82-3.84-4.81-3.28z" transform="matrix(1.7 .92 -1.6 -1.12 166.69 -1264.09)"/>
        <path d="M-3819.3-4447.1l16.68 18.96-10.18-13.71-.69-1.96-4.81-3.28z" transform="matrix(-1.86 .67 2 -.6 2689.49 680.62)"/>
        <path d="M-3819.3-4447.1l10.96 13.18-4.32-6.06-1.82-3.84-4.81-3.28z" transform="matrix(-.6 2.78 1 -2.76 2966.04 -1436.12)"/>
        <path d="M-3819.3-4447.1l-14.43-12.69 18.26 16.79.98-.92-4.81-3.28z" transform="matrix(2.13 2.1 -1.88 -2.36 604.09 -2303.24)"/>
        <path d="M-3819.3-4447.1v6.78l6.63 1.34-1.82-3.84-4.81-3.28z" transform="matrix(1.96 -.88 -2.12 .67 -1083.67 -148.42)"/>
      </g>
    </g>
  </g>
</svg>
