<svg xmlns="http://www.w3.org/2000/svg" height="480" width="640" version="1" xmlns:xlink="http://www.w3.org/1999/xlink">
  <defs>
    <linearGradient id="a">
      <stop stop-color="#a43907" stop-opacity=".996" offset="0"/>
      <stop stop-color="#fff" offset="1"/>
    </linearGradient>
    <linearGradient id="b" y2="677.14" xlink:href="#a" gradientUnits="userSpaceOnUse" x2="470.9" y1="692.2" x1="444.4"/>
    <linearGradient id="c" y2="662.83" xlink:href="#a" gradientUnits="userSpaceOnUse" x2="620.66" gradientTransform="scale(.94 1.07)" y1="662.61" x1="468.24"/>
    <linearGradient id="d" y2="680.2" xlink:href="#a" gradientUnits="userSpaceOnUse" x2="446.28" y1="678.68" x1="472.38"/>
    <linearGradient id="e" y2="668.12" xlink:href="#a" gradientUnits="userSpaceOnUse" x2="466.44" gradientTransform="scale(.94 1.07)" y1="663.74" x1="617.97"/>
    <linearGradient id="f" y2="369.94" xlink:href="#a" gradientUnits="userSpaceOnUse" x2="646.19" y1="369.94" x1="861.78"/>
    <linearGradient id="g" y2="608.76" xlink:href="#a" gradientUnits="userSpaceOnUse" x2="677.4" gradientTransform="scale(.82 1.22)" y1="607.23" x1="388.63"/>
    <linearGradient id="h" y2="606.86" xlink:href="#a" gradientUnits="userSpaceOnUse" x2="666.8" gradientTransform="scale(.84 1.2)" y1="604.94" x1="679.84"/>
    <linearGradient id="i" y2="614.33" xlink:href="#a" gradientUnits="userSpaceOnUse" x2="668.88" gradientTransform="scale(.82 1.22)" y1="612.01" x1="681.43"/>
    <linearGradient id="j" y2="603.9" xlink:href="#a" gradientUnits="userSpaceOnUse" x2="689.77" gradientTransform="scale(.84 1.2)" y1="617.88" x1="662"/>
  </defs>
  <path fill="#006" d="M0 0h640v480H0z"/>
  <path fill-rule="evenodd" fill="#006" d="M0 0h400v200H0z"/>
  <g stroke-width="1pt">
    <path d="M0 0v26.662L317.137 228.63h39.92v-26.66L39.918 0H0zm367.066 0v26.66L39.92 228.63H0v-26.662L317.137 0h39.92z" fill="#fff"/>
    <path d="M148.773 0v228.63h69.61V0h-69.61zM0 76.21v76.21h367.066V76.21H0z" fill="#fff"/>
    <path d="M0 91.462v46.726h367.066V91.462H0zM160.676.002v228.627h36.706V0h-36.706zM0 228.63l119.02-76.21h26.61L26.614 228.63H0zM0 0l119.02 76.21H92.406L0 17.042V.002zm211.426 76.21L330.446 0h26.61L238.038 76.21h-26.612zm146.63 162.42l-119.018-76.21h26.613l92.406 69.168v17.04z" fill="#c00"/>
  </g>
  <path d="M670.97 321.66a13.22 13.22 0 0 0-2.03.188c-3.39.69-8.734 11.63-11.69 18.094-4.62 6.644-7.088 10.03-9.03 13.28-.766 1.263-1.92 2.728-1.663 4.407-6.996 1.718-7.344 7.724-7.344 10.06 0 2.48.782 3.72.782 3.72l4.187 7.843.03.094c4.468 9.216 11.068 21.626 14.76 22.666 6.244 1.462 18.822-3.66 29-12.166 16.69 6.876 38.073 12.662 61.97 12.662 23.896 0 46.248-6.69 61.938-12.663 10.18 8.606 23.768 13.618 29 12.166 3.706-1.033 10.324-13.626 14.78-22.76l4.19-7.844s.78-1.24.78-3.72c0-2.338-.377-8.344-7.376-10.062.36-1.678-.776-3.143-1.63-4.406-1.968-3.274-4.42-7.7-9.096-13.406-2.966-6.48-8.29-17.382-11.666-17.97-4.742-.826-14.97 1.68-14.97 2.407 0 .02-.067.46-.062.6l-20.64 19.4c0 .667 1.09 14.694 4.938 27-13.76 6.006-30.626 8.632-60.406 8.632-19.793 0-36.716-3.62-60.47-8.632 3.86-12.406 4.97-26.443 4.97-27l-20.63-19.4c-.006-.06-.063-.48-.063-.6 0-.723-7.83-2.676-12.968-2.693zm6.26 24.094c2.682-.032 6.332 2.096 7.694 4.47-.078.466-.167.943-.26 1.374-.624 2.872-1.696 6.663-3.188 10.626-6.87-3.43-10.66-6.996-14.312-10.312 2.228-2.37 6.806-6.696 9.694-6.124.186-.026.376-.03.663-.03zm147.66 0c.187.002.377.006.663.03 3.788.63 7.397 3.767 9.626 6.126-3.66 3.324-8.467 6.91-14.344 10.344-1.498-3.97-2.663-7.778-3.188-10.666-.094-.432-.172-.907-.26-1.376 2.266-2.38 6.006-4.6 7.694-4.47zm-166 27.376c2.73 2.09 6.296 4.476 10.694 7-1.19.766-2.466 1.316-3.78 1.624-1.766.41-3.622.33-6.6-.063-.688-1.46-1.083-3.274-1.22-6.717a70.286 70.286 0 0 1-.094-2.844zm184.47 0c-.014.877-.068 1.826-.126 2.843-.137 2.443-.6 4.267-1.188 6.72-1.88.392-3.766.47-6.63.06-1.326-.307-2.66-.868-3.76-1.624 4.3-2.626 7.862-4.908 10.693-7z" fill-rule="evenodd" transform="matrix(1.17 0 0 1.17 -389.23 -21.96)" stroke="#fff" stroke-width="10" fill="url(#b)"/>
  <path d="M446.63 696.48s6.626-8.76 10.313-8.126c4.687.626 9.062 6.26 9.376 6.662.312.313 7.187-7.187 6.876-7.6-.313-.312-7.188-16.662-10.938-17.187s-11.847 1.196-11.847 1.82-3.778 24.43-3.778 24.43z" fill-rule="evenodd" transform="matrix(-1.48 0 0 1.64 1073.61 -626.43)" stroke="#000" stroke-width="1.16" fill="url(#b)"/>
  <path d="M433.13 686.11c0 .626 1.876 23.76 10 31.876s21.26 13.126 26.938 11.876c4.687-1.26 16.312-24.687 16.312-24.687s-11.26 11.26-19.687 9.376c-8.438-1.876-13.438-16.938-16-22.813-1.663-6.876-.313-20.313-.313-20.313l-16.26 14.688z" fill-rule="evenodd" transform="matrix(-1.48 0 0 1.64 1073.61 -626.43)" stroke="#000" stroke-width="1.16" fill="url(#c)"/>
  <path d="M446.63 696.48s6.626-8.76 10.313-8.126c4.687.626 9.062 6.26 9.376 6.662.312.313 7.187-7.187 6.876-7.6-.313-.312-7.188-16.662-10.938-17.187s-11.847 1.196-11.847 1.82-3.778 24.43-3.778 24.43z" fill-rule="evenodd" transform="matrix(1.48 0 0 1.64 -99.78 -626.43)" stroke="#000" stroke-width="1.16" fill="url(#d)"/>
  <path d="M433.13 686.11c0 .626 1.876 23.76 10 31.876s21.26 13.126 26.938 11.876c4.687-1.26 16.312-24.687 16.312-24.687s-11.26 11.26-19.687 9.376c-8.438-1.876-13.438-16.938-16-22.813-1.663-6.876-.313-20.313-.313-20.313l-16.26 14.688z" fill-rule="evenodd" transform="matrix(1.48 0 0 1.64 -99.78 -626.43)" stroke="#000" stroke-width="1.16" fill="url(#e)"/>
  <path d="M666.44 338.66c-4.742 6.786-7.274 10.267-9.26 13.662-1.976 3.306-.814 7.906 3.76 14.47 4.92 7.072 46.374 34.718 98.062 34.718 62.69 0 93.142-27.646 98.062-34.72 4.664-6.662 6.696-11.162 3.72-14.468-1.977-3.306-4.478-7.777-9.22-13.662 0 8.677-33.612 40.03-92.662 40.03s-92.662-31.363-92.662-40.03z" fill-rule="evenodd" transform="matrix(1.17 0 0 1.17 -388.04 -20.79)" stroke="#000" stroke-width="1.6" fill="url(#f)"/>
  <path d="M467.82 626.48c.626-.937 7.187-11.876 7.187-11.876l-3.698-2.638c-1.106 3.094-6.163 4.1-6.778 7.86s2.813 7.6 2.188 6.663z" fill-rule="evenodd" transform="matrix(1.48 0 0 1.64 -98.8 -624.06)" stroke="#000" stroke-width="1.16" fill="url(#g)"/>
  <path d="M476 622.98s1.26-6.312-2.812-6.937c-4.063-.626-6.214 2.973-6.626 1.662.664-1.667 3.126-3.126 3.437-8.437.313-6.313-.312-8.126-.312-8.126s1.662-6.876 8.126-6.938c6.662.938 6.876 6.938 6.876 7.813s-.626 2.812-.626 2.812L476 622.98z" fill-rule="evenodd" transform="matrix(1.48 0 0 1.64 -99.78 -626.43)" stroke="#000" stroke-width="1.16" fill="url(#h)"/>
  <path d="M668.3 406.338l1.973 3.463 1.332-.83-.884-2.28.166-.448 2.318-1.446 6.067 10.608-.16.616-1.2.88.646.967 6.777-3.606-.647-.964-1.31.686-.607-.106-6.068-10.61 2.32-1.447.434.072 1.62 1.883 1.336-.833-1.973-3.462-11.148 6.968zm-14.263 8.169l.48.993 1.216-.613.478.166 6.21 10.764-.166.494-1.117.716.48.993 6.687-3.002-.48-.993-1.266.636-.48-.164-2.47-6.108 6.806-3.066 2.47 6.11-.143.482-1.168.737.48.993 6.667-2.99-.48-.993-1.216.614-.478-.164-6.21-10.766.166-.493 1.116-.718-.48-.993-6.666 2.99.48.994 1.266-.636.46.166 2.147 4.44-6.807 3.064-2.148-4.438.166-.494 1.167-.74-.48-.992-6.687 3zm-3.337 9.161l.306 1.066 1.628-.39.432.198 1.276 4.437c-.66.217-.962.368-1.168.436-3.32 1.037-6.004-.613-7.128-4.63-1.093-3.806.24-6.687 3.466-7.692a4.747 4.747 0 0 1 1.89-.21l.434.29 1.072 2.177 1.674-.492-1.06-3.697c-1.736.02-3.334.26-4.768.704-4.787 1.496-7.016 6.44-6.734 9.9 1.3 4.623 6.26 6.7 9.788 6.286 1.674-.493 3.083-1.296 4.676-2.403l-1.464-6.068.267-.413 1.22-.6-.306-1.066-6.298 1.968zm-13.338 12.612l6.428-2.024-.32-1.064-1.473.346-.46-.24-3.483-11.677.263-.412 1.407-.663-.32-1.064-6.428 2.026.32 1.064 1.462-.338.436.196 3.484 11.678-.24.466-1.386.664.32 1.064zm-34.8 6.693l11.316-1.036-.346-4.047-1.433.13-.166 2.432-.243.387-4.888.446-.602-6.88 2.74-.262.322.29.36 1.61 1.242-.116-.447-6.26-1.243.116-.073 1.66-.268.34-2.74.262-.468-6.383 4.194-.384.3.27.484 1.962 1.476-.136-.3-3.66-10.622.97.096 1.11 1.296-.006.364.287 1.028 12.066-.307.392-1.276.23.096 1.108zm-16.846-14.916l.02 1.112 1.228.092.346.367.21 12.063-.332.37-1.226.133.02 1.112 6.986-.104-.02-1.112-1.27-.09-.346-.368-.1-6.72 6.112-.107.1 6.72-.31.37-1.267.134.02 1.113 6.966-.104-.02-1.113-1.23-.092-.343-.367-.21-12.064.33-.37 1.226-.136-.02-1.113-6.966.104.02 1.113 1.272.092.323.368.087 4.97-6.113.108-.087-4.97.332-.37 1.267-.136-.02-1.112-6.986.106zm-12.847-.431l-.038 4.02 1.46.017.36-2.426.342-.29 2.64.03-.117 12.36-.364.36-1.376.096-.01 1.112 6.326.076.01-1.112-1.376-.13-.366-.367.116-12.36 2.64.03.314.3.337 2.434 1.468.017.038-4.018-12.206-.146zm-19.483 12.839l11.06.648.18-4.068-1.402-.07-.466 2.387-.286.36-4.778-.237.268-6.897 2.677.132.276.333.136 1.642 1.216.06.23-6.26-1.214-.06-.278 1.623-.303.302-2.677-.133.236-6.397 4.1.203.266.308.22 2.013 1.442.07.166-3.66-10.38-.614-.06 1.11 1.262.176.316.334-.63 12.088-.346.346-1.262.06-.048 1.11zm-26.347-6.669l6.87 1.98.324-1.06-1.282-.66-.208-.46 3.636-11.618.407-.197 1.36.336.324-1.068-6.87-1.98-.324 1.06 1.262.644.22.41-3.636 11.616-.42.24-1.33-.33-.324 1.06zm-10.438-4.064a11.392 11.392 0 0 0 3.672 1.99c3.22 1.086 6.773-.103 6.663-2.674.39-1.276.12-2.664-.772-3.838-.906-1.21-1.848-1.887-2.33-2.602-.828-1.04-1.18-1.876-.874-2.87.366-1.188 1.614-1.763 2.948-1.27.628.212 1.047.47 1.34.784l.183.396-.366 2.36 1.413.477 1.074-3.6c-1.09-.893-2.247-1.67-3.466-1.98-2.807-.946-6.204.296-6.94 2.694-.326 1.06-.18 2.276.466 3.423.618 1.09 1.43 1.77 2.08 2.466 1.166 1.247 1.626 2.263 1.267 3.43-.366 1.188-1.674 1.736-3.166 1.2a6.634 6.634 0 0 1-1.634-.887l-.166-.41.482-2.698-1.494-.604-1.2 3.912zm-13.266-6.664l9.996 4.997 1.672-3.666-1.266-.632-1.308 2.013-.392.207-4.318-2.168 2.43-6.327 2.42 1.21.13.417-.49 1.667 1.1.66 2.167-4.763-1.1-.66-.868 1.384-.39.166-2.42-1.21 2.223-4.873 3.703 1.86.12.388-.64 1.943 1.3.663 1.468-3.216-9.383-4.69-.468 1.002 1.09.67.166.436-4.977 10.916-.448.18-1.182-.467-.467 1.003zm-1.684-18.191l-6.03-3.466-.686.93.99.82.086.493-6.333 10.066-.466.113-1.11-.63-.686.93 6.03 3.466c1.723 1.187 3.194 1.793 4.836 1.62 2.136-.214 3.967-1.46 6.364-3.696 2.604-3.98 1.8-7.888-2.198-10.643zm-2.098.076l1 .69c2.74 1.886 2.98 4.626.74 8.09s-4.667 4.39-7.407 2.604l-1-.69 6.667-10.694zm40.078 16.69l-.224 1.088 1.167.376.268.383-2.438 11.837-.396.284-1.213-.162-.224 1.088 6.686 1.267.224-1.088-1.207-.382-.26-.426 1.03-4.998.343.076c2.036.46 2.363 1.62 2.663 3.77.104 1.136.08 2.176.946 3.296.398.63 1.088.96 1.966 1.162a13.78 13.78 0 0 0 2.062.27l.22-1.068-.262-.068c-1.36-.298-1.886-.764-2.06-2.08-.163-1.196-.067-2.43-.49-3.646-.317-.813-.917-1.386-1.834-1.846 2.374.037 3.83-.987 4.26-3.03.608-2.467-.83-4.166-3.966-4.847l-6.128-1.366zm3.872 2.18l.928.206c1.964.432 2.772 1.68 2.397 3.602-.422 2.046-1.642 2.76-3.798 2.273-.223-.06-.464-.102-.722-.183l1.194-6.797zm74.094 1.29l.173 1.098 1.33-.11.406.263 1.883 11.943-.3.42-1.294.334.173 1.098 6.266-1.07-.173-1.098-1.373.12-.413-.297-.796-6.042.378-.064c2.244-.383 2.973.482 3.997 2.493.626 1.013.886 1.988 2.18 2.687.602.334 1.466.462 2.422.3a16.62 16.62 0 0 0 2.192-.66l-.17-1.076-.29.06c-1.487.263-2.206.03-2.868-1.122-.698-1.047-.966-2.227-1.81-3.096-.624-.63-1.448-.926-2.662-.99 2.436-.9 3.642-2.423 3.217-4.484-.393-2.488-2.382-3.63-6.827-2.94l-6.766 1.163zm4.767.6l1.022-.176c2.166-.368 3.46.47 3.74 2.306.326 2.063-.66 3.197-3.036 3.603-.244.042-.61.087-.803.114l-.922-6.847z"/>
  <path d="M467.82 626.48c.626-.937 7.187-11.876 7.187-11.876l-3.698-2.638c-1.106 3.094-6.163 4.1-6.778 7.86s2.813 7.6 2.188 6.663z" fill-rule="evenodd" transform="matrix(-1.48 0 0 1.64 1072.67 -624.06)" stroke="#000" stroke-width="1.16" fill="url(#i)"/>
  <path d="M476 622.98s1.26-6.312-2.812-6.937c-4.063-.626-6.214 2.973-6.626 1.662.664-1.667 3.126-3.126 3.437-8.437.313-6.313-.312-8.126-.312-8.126s1.662-6.876 8.126-6.938c6.662.938 6.876 6.938 6.876 7.813s-.626 2.812-.626 2.812L476 622.98z" fill-rule="evenodd" transform="matrix(-1.48 0 0 1.64 1073.61 -626.43)" stroke="#000" stroke-width="1.16" fill="url(#j)"/>
  <path d="M396.86 606.91s-76.43-21.26-74.99-102.14l.68-106.91h148.82l.684 106.3c.44 80.882-74.993 102.76-74.993 102.76z" fill-rule="evenodd" fill-opacity=".996" transform="matrix(1.48 0 0 1.64 -99.33 -621.46)" stroke="#fff" stroke-width="3.867" fill="#0072c4"/>
  <g fill-rule="evenodd">
    <path d="M392.306 128.963c.184 0 1.634-1.282 2.77-2.412 1.727-.864 3.324-2.08 6.08-2.896 1.307-.767 3.89-1.344 6.077-1.93 1.666-.816 2.824-1.762 4.166-3.38.168-2.16.46-3.71.46-6.276 1.837-.886 3.467-1.742 6.078-2.416 2.31-.66 2.812-1.674 6.08-1.93 1.46-.61 3.87-.486 6-.486 2.297 0 3.747 1.633 6.81 2.02 2.447.986 3.69 1.67 6.64 3.38 1.102 1.394 1.788 2.628 3.667 3.678 1.488.763 2.88 1.92 4.617 2.413 1.906 1.106 3.697 1.746 6.077 3.38 1.366.966 1.916 2.397 3.23 3.38 1.626 1.264 2.972 2.403 4.618 3.38 1.978 1.324 3.94 2.33 7.143 2.043 1.697-.1 3.623-.296 6.64.08 2.26 0 4.464-.04 6.464.486 2.366 0 4.26.318 6.463.482 2.064.386 4.168.483 6.463.483 2.002.622 4.206.482 6.464.482h12.926c2.362 0 4.733.096 6.463.484 2.33 0 4.333-.22 6.463-.486 2.607 0 4.42-.46 6.926-.482h7.86c2.014.662 4.69.93 6 1.93 1.848.628 2.768 1.404 4.616 1.932 1.416.726 3.666 1.876 4.617 3.378 1.303 1.363 2.64 3.314 3.693 6.31 1.286 1.866 1.774 3.974 2.77 6.276.628 2.206.896 4.302.923 6.767.602 2.093.464 4.396.464 6.768-.628 2.2-.643 4.66-1.386 6.768-.08 2.366-.66 4.487-.923 6.276-.41 1.976-.894 3.246-.924 6.792v6.768c-.16 2.217-.646 3.846-.922 6.276-1.117 2.108-2.186 4.673-3.23 7.24-1.637 1.072-2.87 2.696-3.694 3.863-.986.61-1.666 1.632-1.386 1.93 1.846.643 1.386 1.927 1.386 4.346.24 1.86.42 4.17.923 6.276.17 2.303.662 3.712 1.386 6.308.728.96.87.483-.924.483-1.334 1.047-2.684.6-3.23-1.448-1.078-1.3-1.432-2.87-1.847-6.31-.266-2.234-.612-4.412-1.386-6.79-.236-2.722-.96-2.694-3.693-2.898-1.3-1.162-3.017-1.46-6.64-1.46-2.613 0-2.724-.266-2.77 2.416v6.768c-.434 1.96-1.387 3.647-1.847 6.31-1.377 1.008-2.093 2.7-3.693 3.86-.762 2.193-1.87 2.674-4.166 2.897-.8-.998-2.102-2.3-2.77-3.378 1.293-2.17 2.422-2.496 3.233-4.827.98-1.922 1.666-3.17 2.306-4.828-.986-1.616-1.87-2.2-2.77-4.346-.76-1.168-1.81-3.68-2.307-6.31-1.617-.627-3.904-.612-6.08-1.448-2.24-.622-2.866 1.93-6.64 1.93h-6.462c-2.868 0-3.672 1.696-6.002 1.46-.714.23-2.446-.103-6.08 0-1.928.67-4.262.48-6.462.48-2.342-.03-4.268-.668-6-.966-2.122-.68-4.232-1.17-6.464-1.447-2.71 0-3.72.216-6.64 1.447-1.44.866-3.628 2.807-6.08 3.862-.666 1.602-.996 4.313-1.846 6.276-.49 1.883-1.288 3.077-1.846 4.828-.626 1.633-1.216 3.314-1.386 6.793-.166 3.263-.867 2.866-2.77 1.93-.793-1.346-2.067-2.827-2.77-4.344.42-2.467.893-3.68.924-6.276-.46-1.874-1.498-1.813-2.77-.483 0 2.628.117 4.477-.924 6.793-.62 1.996-1.366 2.867-2.77 3.862-.69 1.792-2.226 2.612-3.693 3.38-.236-.082 0-.647 0-1.93-1.106-2.208-.08-4.04-.08-6.76.03-2.437-.11-4.062.697-6.276 0-2.34-1.086-4.666-1.44-6.276-.868-1.793-1.363-2.68-3.693-3.38-1.646-.663-4.014-1.637-6.08-2.896-1.34-1.74-2.196-2.464-4.163-3.38-2.124-.77-3.166-1.473-4.616-2.414-1.427-1.674-2.687-2.266-3.232-4.343-.964-1.486-1.13-4.242-1.847-6.277-.167-2.12-.764-4.088-1.384-6.792-.274-2.12-.608-3.67-1.386-6.793-.267-1.984-.83-4.06-1.384-6.273 0-2.362.04-4.667-.462-6.76v-6.767c-.332-1.96-.466-4.807-.923-6.276 0-2.626-.28-4.11-.923-6.793-1.066-1.704-1.142-2.47-2.77-2.896-1.176 1.6-3.114 2.112-6.64 2.416-1.696-.387-4.086-.638-6.002-1.46-1.86-.466-3.117-1.187-4.617-1.93-.82-1.262-1.8-2.69-2.77-3.862-.286-2.62-.836-3.82-.923-6.276 0-1.843.044-.866 1.846-3.38z" fill="#bcbcbc"/>
    <path d="M419.66 146.367l.328-.34c-.742.774-.47.4 1.306-.343.993-.626 2.88-1.727 3.69-2.39.864-.39 2.21-.9 2.938-1.706.91-.97 1.82-1.776 2.938-2.732 1.293-1.097 2.498-1.467 3.918-2.39 1.847-.137 2.616-.928 4.243-.34 1.622.367 2.294.377 3.692-1.026 1.31-.84 2.763-1.664 3.266-3.073v-2.046c-.026 2.23-.427 2.963-1.96 3.763-1.067 1.224-2.398 2.608-2.937 3.766-1.037 1.6-1.267 2.34-2.286 3.072-.844 1.076-2.292 1.644-2.61 3.412.464.813.04 1.268.977 1.366.946.812 1.93.466 3.266 0 1.328-1.637 1.926-2.63 2.612-4.096 1.096-1.497 1.708-2.21 2.284-3.414 1.136-.823 1.866-1.464 2.286-2.73 1.313-.77 2.393-1.678 3.263-2.39.976-.628 1.494-1.138 2.938-1.366-.02 1.833-.29 2.7-.978 3.766-.326 1.9-.26 2.802.326 4.096.938.68.772 1.084 1.306 2.39.632-1.13.802-3.416.98-4.78v-.342c0 1.493.136 3.473-.327 4.438.022 1.99.464 2.878.98 4.437.66.762.938 1.24 1.632 1.707.064-1.97.666-3.267.662-6.12.466 1.43.303 3.32.663 4.778.118 1.607.7 2.862 1.306 4.097.744.46.997 1.813 1.306.683.773-2.402.792-6.03 1.306-7.61.094-1.26.196-3.133.664-4.096l-.663 4.096c.094-1.26.196-3.132.664-4.096v-.34c.306 1.797.693 3.633.663 6.46 0 1.636-.1 3.1.327 4.437 1.086-.603 1.716-1.68 2.286-3.073.87-1.66 1.466-2.382 2.61-3.764l-2.61 3.764c.87-1.66 1.466-2.382 2.61-3.764v-.34c-.18 1.673-.326 3.066-.326 4.777 0 1.674-.018 3.368.326 4.438.386 1.81.91 2.146.98 4.096 0 .96-.124 1.92.327 2.39 1.406.367 1.41-.462 1.632-2.39.017-2.202.68-3.703.66-6.802 0-2.69.367.316.664 1.366.66 1.62.864 2.872.98 4.437 0 .96-.123 1.92.326 2.39 1.26-.623 1.76-1.996 2.612-2.732.66-1.616 1.322-2.33 1.96-3.41 1.69-.366 1.607-1.06 1.63-3.073 0-1.633-.127-3.362.328-4.78.623-1.483 1.016-3.134 1.306-4.436.61-.364 1.27.638 1.63 1.366.716 1.1.664 2.706.664 4.437.314 1.61.942 2.69 1.632 4.096.818 1.677 1.483 2.633 2.286 3.413.344 1.08.327 2.864.327 4.437 1.272-1.446 1.616-3.698 1.632-6.802-.17-1.6-.202-3.368-.663-4.78-.062-1.603-.32-3.066-.663-4.096-1.102-.63-1.276-1-.326-2.39 1.06-.908 2.186-.667 3.918-.34.876.916 1.236 1.406 1.306 3.41 0 1.82.077 3.218.663 4.44.64.982 1.272 1.667 1.63 3.413.602.428.89 1.12 1.634.342.41-1 .66-3.062.98-4.097.318-1.296.893-1.93 1.632-2.39 0 1.9-.022 3.066.663 4.44.638 1.624 1.082 2.097 1.63 3.766.697.486.786 1.63 1.633 2.046.2-1.602.327-3.437.327-6.46v-4.78c.12-1.626.614-2.64.98-3.762 1.06 1.31.98 1.862.98 3.763 1.073-.4 1.263-1.17 1.63-2.387.767-.676.976-.99 1.306.68.23 1.787.666 3.396.98 6.122.67.788 1.447 2.696 2.286 3.414.676.976 1.22 1.92 1.96 2.73.608 1.123.638 1.71 1.968 2.047 0-2.31.077-4.627-.326-6.826 0-1.96-.428-2.66-.663-4.437-.646-1.177-.866-2.912-.664-3.412 1.63 1.617 2.22 2.398 2.938 4.096.766 1.64 1.41 2.743 1.968 4.437.766.648 2.092 2.69 2.612 3.414 1.166 1.04 1.733 2.126 2.938 3.07.623.688 1.94.916 2.286.684-.06-2-.364-3.72-.98-6.46-.02-1.91-.468-2.948-.978-4.096-1.286-1.108-2.26-1.863-2.94-3.414-.606-.432-.604-.766-.663-1.706 1.876 1.662 3.187 2.936 4.67 4.777.936 1.213 1.412 1.763 2.613 2.39.66.73 2.646 1.638 3.916 2.048.823 1.09 1.922 1.718 3.266 2.06l-3.264-2.06c.823 1.09 1.922 1.718 3.266 2.06v.34c-.163-2.136-.947-3.696-1.968-6.462-.86-1.868-1.63-2.66-2.938-3.766-.864-1.362-1.81-2.16-3.264-3.07-.9-1.06-2.26-2.82-2.938-3.416 1.392-.874 3.027.692 4.67 1.366 1.274 1.38 2.466 3.18 3.264 4.096.87 1.763 1.637 2.838 2.94 4.437 1.406.834 2.38 1.66 3.69 2.73 1.87.618 1.124-.166.663-1.706-.647-1.926-.072-1.966 1.306-.682.908.647 1.92 1.726 3.263 2.39.68.762 1.467 1.17 2.286.682.346-.482.326-.427.326-1.024-.687-2.118-1.326-3.767-2.938-4.438-.74-.942-1.942-2.063-2.937-3.072-.66-1-1.408-1.676-1.96-2.73l1.96 2.73c-.66-1-1.408-1.676-1.96-2.73h-.326c1.97.073 2.672.673 4.242 1.366 1.12.408 2.327 1.476 2.94 2.388.636.846 1.666 1.763 2.284 2.73 1.003.773 2.11 1.662 3.266 2.39 1.087 1.426 1.282 2.362 1.307 4.44.626.964.738 2.938.978 4.094-.24 1.877-.882.403-.978-.683-.277-1.607-.86-1.428-1.96-1.023 0 2.062.228 2.626.98 4.096-.204 1.41-.672 2.44-1.306 3.414-.76.464-.926-1.004-1.63-1.707-.076-2.11-.67-2.343-1.96-3.414v1.366c.728 1.467 1.497 2.786 1.632 4.78.604 1.62.663 2.482.663 4.436 0 1.67.027 3.3-.326 4.78 0 1.86-.307 2.646-.328 4.437v9.668c-.26 1.207-.326 2.78-.326 4.436l.326-4.438c-.26 1.208-.326 2.782-.326 4.437v.34c-.62-1.716-1.296-3.267-1.632-6.12-1.068-1.047-1.73-2.126-2.286-3.413-.26-1.464-.406-3.263-.663-4.438-.46-1.203-.947-2.486-1.96-1.706-.4 2.644.106 4.06.98 6.484.613 1.608.467 2.872.98 4.438.767 1.806 1.366 2.064 0 4.096-.673 1.084-1.034 1.427-1.306 2.732-1.208.632-1.61.913-1.632 2.39-.406-1.328-1.393-2.884-1.96-4.438-.684-1.634-1.306-3.313-1.63-4.778-.793-1.143-1.722-2.992-2.613-3.766-.82-1.102-1.997-2.94-2.612-4.096-1.26-1.467-1.626-2.3-2.61-3.07-.28-.683-.612-1.634-1.306-1.026 0 1.632-.13 3.36.326 4.777.33 2.013.91 3.13.98 6.12v3.766c-.786-1.923-1.622-3.64-2.286-6.462-.713-1.018-1.41-3.003-2.286-3.764-.666-1.324-.988-2.422-1.632-3.412-.167-.992-.606-.98-.98-1.707.022 1.936.61 2.613.98 4.096.636 1.3.84 3.48.663 4.096-.823-2.392-1.668-6.008-2.612-7.167-.99-1.402-1.966-3.204-2.61-4.437-.972-1.172-1.97-1.21-2.938-2.048-.882-.437-1.726-.926-2.286-1.707.267 1.8.927 2.924 1.306 4.438.216 1.716.97 3.09 1.306 4.438-.363 2.336-.89-.648-1.306-1.707-.344-1.922-.98-2.99-1.632-4.097-.876-.622-1.67-1.727-2.612-2.39-.916-.367-.663.067-.663 1.366 0 2.112.077 3.607.663 4.78.662 1 .663 2.306.663 4.094-.066 1.68-.326 3.03-.326 4.78V188c-.76-1.46-1.46-2.276-1.96-4.096-1.132-1.66-1.468-2.688-2.286-4.436-.724-.306-1.902-.666-2.61 0 .127 1.727.89 2.487.98 4.436-1.302 1.333-1.067 1.713-1.96-.34-.744-1.667-1.61-1.484-2.61-2.39-1.64-.214-1.12-1.263-1.634-2.73 0-1.316.13-2.642-.326-3.766-1.79 0-2.816-.064-3.917 1.026-.618 1.08-.336 3.033 0 4.436v4.778c-.372 1.196-1.11 1.26-1.306 2.73-.63 1.468-.84 3.066-1.306 4.098-1.163 1.06-.668 1.182-1.306-.683v-10.926c0-1.864.267-2.768.326-4.436-.677-1.416-.86-1.68-2.938-1.707-.606.882-.313 2.62 0 3.414 0 1.664.076 3.23.326 4.436 0 1.813.214 2.912.327 4.438-.062 1.81-.4 3.26-1.306 4.096-1.177.308-.128 1.067-1.306 1.366-1.18-.692-2.668-1.396-3.69-2.39-1.27-.404-2.466-.682-4.244-.682-2.164-.028-2.2-.29-2.938-2.06-.662-1.88-.973-3.614-1.306-6.46-.718-1.698-.886-2.687-1.306-4.437-.648-1.043-1.133-1.83-1.967-2.39-.473 1.726-.917 3.17-.98 6.12-.382.8-.462 2.834-.662 3.764-.666-1.01-.912-2.996-1.306-4.436-.62-2.07-1.148-3.414-3.266-2.73-2.197.027-2.26.09-2.286 2.39.946 1.48 1.966 2.918 2.612 4.094v4.778c0 1.973.116 2.644-1.306 3.072-.64-2.048-1.688-4.003-2.938-6.803-.17-1.392-.6-1.024-1.967-1.024-.91 0-1.837-.128-2.286.34 0 1.19.097 2.842 0 3.074-.788.146-1.106-.008-1.633-.683-.67.993-.14 2.393 0 3.766-.416 1.618-.91 2.906-1.633 3.763-.144-.464-.47-.342 0-.342-2.24-.86-3.993-1.39-6.876-2.046-1.134.146-1.967 1.19-2.613 2.046-1.66.66-2.393 1.002-4.244 1.026-1.776 0-2.64.28-4.244.342-1.166.262-2.662.34-4.244.34-.878-.26-2.41-.268-2.94-.682.676-1.006 1.426-1.613 1.96-3.07.894-.637 1.732-1.462 2.612-2.39.86-.613 1.87-1.883 2.61-2.73.61-1.646 1.21-1.93 2.286-2.732 1.94.076 2.32.692 4.244 1.024 1.88.712 2.92.922 3.918-.34 1.66-.66 2.882-1.69 4.67-2.06 1.307-.663 2.144-1.288 3.264-2.048 1.39-.837 2.06-1.696 3.266-2.73.347-1.392 1.33-2.467.98-4.097-1.767-.462-2.89-.277-3.918.683-1.43 1.177-1.7 1.666-3.266 2.73-1.362.386-1.93.98-3.69 1.366-1.366.476-3.01.342-4.67.342-1.428 0-3.322-.142-4.246.34 1.462-.977 3.197-1.993 4.67-2.39 1.318-.884 1.816-1.332 3.692-1.364.823-1.078 1.673-1.106 1.966-2.73.663-2.02-1.204-1.38-2.61-.684-1.327.244-2.79 1.183-3.918 1.707-1.09.38-2.68.663-4.244.683-.412-.616.322-1.106.663-2.06 1.626-.64 1.77-.738 1.96-2.388-1.73.24-2.39.808-3.92 1.024-1.666.436-3.394.63-6.22.683h-4.672c-1.604-.062-2.47-.342-4.243-.342-1.3-.68-1.306-1.002-1.306-3.072 1.024-1.176 2.02-1.022 3.917-1.022 1.46-.718 2.697-1.1 3.69-1.707 1.183-.264 1.99-.76 1.633-1.364h-4.67c-1.76-.746-.08-1.086.98-1.707 1.687 0 3.226.093 4.243.682 1.963-.076 2.647-.697 4.242-2.06 1.26-1.03 1.864-1.687 3.266-2.388 1.006-1.11 1.966-1.723 2.612-2.73 1.342-1.28 2.23-1.988 2.937-3.072.864-.476 1.392-1.09.98-1.707-2.046.26-2.874.993-4.246 2.048-.796.793-1.67 1.603-2.612 2.048-1.47.874-2.386 1.228-4.242 1.366-1.676 0-2.964-.28-4.67-.34-1.774-.186-.142-.6.326-1.366.686-.48 1.22-1.642.663-2.39-1.366-.476-3.008-.34-4.67-.34h-4.67c-1.726-.067-2.466-.463-3.69-1.026-.363-.968.062-.683 1.306-.683 1.674-.062 2.69-.276 4.246-.683 1.636-.438 1.727-.96 1.968-2.732-1.606 0-3.21.02-4.243-.34h-2.94zm-28.274-7.739c-.287-2.62-.836-3.82-.924-6.276 0-1.843.046-.866 1.847-3.38.182 0 1.632-1.282 2.77-2.412 1.726-.864 3.323-2.08 6.078-2.896 1.307-.767 3.89-1.344 6.077-1.93 1.666-.816 2.826-1.762 4.166-3.38.16-2.16.464-3.71.464-6.276 1.836-.886 3.466-1.742 6.077-2.416 2.312-.66 2.812-1.674 6.08-1.93 1.46-.61 3.872-.486 6-.486 2.298 0 3.747 1.633 6.81 2.02 2.447.986 3.69 1.67 6.64 3.38 1.103 1.394 1.788 2.628 3.668 3.678 1.487.763 2.88 1.92 4.616 2.413.016 1.743.386 1.442-.868 1.442-.132 1.786-.66 1.676-2.286 1.707a8.002 8.002 0 0 1-2.938-2.732c.663-1.773.22 1.436 0 2.048-.84.69-1.338 1.426-2.286.683-.63-1.666-.978-2.817-.978-4.78-.26-2.132-.846-.684-1.307.343-.442 1.72-.24 2.343.326 3.763-1.666 0-2.942-.167-4.246-.34-1.21-.302-2.672.068-3.918.682-1.71 1.073-1.177 1.08-.326 2.39 1.61.444 2.693 1.28 3.92 2.048 1.606-.3 3.08-.636 4.67-1.026 1.666-.64 2.98-.196 4.67 0 .788.414 1.826.497 2.284 1.026 0 1.066.084 2.168-.326 2.73-.68.462-1.324 1.7-2.286 2.047-1.44.826-2.96 1.344-4.67 1.707-2 .076-2.73.616-4.243 1.366-.26 1.726-.763 2.212-2.287 2.73-1.626.667-2.74 1.026-4.67 1.026-.908 0-1.836.13-2.286-.34 1.464-1.66 1.89-2.44 2.612-4.097.282-.69.873-1.134.327-1.707-1.934.076-2.44.063-2.612 2.048-.22 1.798-.91 2.1-2.286 2.73.37-1.664.432-2.943.98-4.436-1.166.262-2.662.34-4.246.34-.99.628-1.4.872-.98 2.06-1.312.466-2.91.176-4.67 0-1.386-.076-.62-.706-1.63-1.366-.663-1.3-1.424-1.616-2.94-1.707-.762.94-2.146 1.33-2.938 2.048-1.43.6-2.34.086-3.69-.683-1.63.06-1.412.676-.98 1.707.622.434-.038.907.98 1.024.938.862 1.74 1.026 3.69 1.026 1.416-.37 2.974-.34 4.67-.34 1.612.06 1.307.43 1.307 2.047-1.064.746-2.69.683-4.246.683-1.676-.196-2.784-.604-3.917-1.024-1.63-.113-2.762-.406-3.918 0-.626.683-2.11.838-.326 1.026.7.66 4.478.342 4.747 1.466.89.99.692 2.29-.83 2.29-.926-.483-1.64-.364-2.286 0-1.086.286-2.377.078-4.274.22 2.477.204-1.8-2.69-2.77-3.862z" fill="#fefefe"/>
    <path d="M401.687 127.26c-.108 0-1.083.677-1.96 1.364-1.433.768-2.966 2.076-3.916 2.73-.748.6-.744.862-1.63 1.026 1.666-.22 2.248-.617 3.69-1.366 1.696-.204 3.338-.664 4.244-1.366.86-.298-.064-1.66-.327-2.39zm16.026-16.06c.187 0 .67 1.067 1.304 1.706.47 1.31.903 2.236.98 3.766.4-1.667 1.084-3.008 1.306-4.778-.607-.9-.64-1.32-1.968-1.366 0 .922.108.32-1.63.682z" fill="#bcbcbc"/>
    <path d="M349.36 417.73c-.494 0 .87-.492 1.326-.663.364-.767.663-1.31 1.326-1.767 1.107.086 1.66.404 2.21 1.104.93.264 1.266.697 2.43.884.434.366 1.02.408 0 .663-.692.367-1.663.443-2.66.443-1.14.082-1.966.333-2.663.663-1.48 0-1.243.06-1.99-1.326z" transform="matrix(1.48 0 0 1.64 -109.62 -620.08)" stroke="#000" stroke-width=".876" fill="#c4c4c2"/>
    <path d="M422.676 111.64v.34c0-.92-.02-.46.327 1.366.64 1.146.663 2.373.663 4.097.867-.64 1.672-1.916 1.96-3.073 0-2.696-.366-2.636-2.94-2.73zm12.084 39.26h.327c-.96 0-.42.06 1.306-1.024 1.117-.778 2.03-1.93 3.692-2.39 1.61-1.24 2.673-1.82 4.242-2.388.766-.367 1.44-1.006 2.286-.34-.243 1.683-.622 2.32-1.96 3.07-.742.973-1.912 1.64-2.936 2.048-1.062.488-2.23.613-2.612 1.707-1.776.817-1.994.68-4.244-.683zm6.206 9.902c.683-.46 2.627-2.692 3.69-3.412 1.09-1.603 2.193-2.663 3.266-3.414.962-1.466 2.17-2.446 2.94-3.766.906-1.147 1.673-2.12 2.61-3.412 0 1.492-.136 3.47.326 4.437 0 2.062-.227 2.626-.978 4.096-.74 1.21-1.294 2.01-2.938 2.732-1.484.822-2.373 1.11-3.692 2.047-.93.697-1.897 1.192-2.94 1.706-.932.42-.604.236-2.283-1.024zm-10.119 7.848h.326c-.96 0-.42.068 1.306-1.026 1.393-1.467 2.603-1.963 4.246-2.73 1.326-.108 2.928-.462 3.917-1.026.79-.146 1.34-.648 1.968 0 1.026 1.46 1.307 1.868-.327 2.73-.78.694-2.168 1.392-3.262 1.708-.816.702-2.43.746-3.918 1.024-1.334 0-2.076.167-2.612-.683l2.612.682c-1.334 0-2.076.167-4.244-.683zm14.034 0v-.342c0 .963-.04.448.663-1.366 1.224-1.91 1.684-2.963 3.266-3.414.74-.936 2.023-1.178 3.69-1.707.69 1.027.137 2.223 0 3.416-.426 1.276-1.69 2.174-2.284 3.073-1.018.723-1.433 1.418-2.938 1.706-1.246 0-.686-.032-2.286-1.366z" fill="#bcbcbc"/>
    <path d="M412.788 124.16c0 .942-.73 1.706-1.632 1.706-.9 0-1.632-.764-1.632-1.707 0-.944.73-1.708 1.632-1.708.902 0 1.632.764 1.632 1.707z"/>
  </g>
  <g stroke-opacity=".996" fill-rule="evenodd" fill-opacity=".996" stroke="#002b0d" stroke-width="1pt" fill="#006120">
    <path d="M361.79 479.6h.884c-2.77 0-1.116-.186 3.636 3.636 1.947-1.623 1.924-1.842 3.636.884.93 1.66 1.203-.16 2.66-1.768.7 3.21 1.146 6.678 3.637 3.636 2.73 0 6.69-.227 7.07.884 1.79 3.326 1.206-.663 2.663.886 3.892.467 3.818-3.338 8.067-4.322 2.636 3.293 3.79.76 7.072-.883 2.438.682 4.736 4.38 6.2.786 1.996-3.266 2.17-2.98 3.636 0 1.94 1.748 2.76-.874 4.42-1.767 2.968 1.73 6.268 1.97 10.606.884.736 2.944 2.692 1.667 4.42.883 3.91 1.643 6.273 2.146 9.722 0 2.204-2.604.966.073 2.66 1.768 3.297-1.023 2.387-1.24 6.19-.884 3.82 0 4.13-.093 6.302-2.662 1.92 1.92 2.614 3.304 6.303.884 4.12.12 2.846.62 6.304-.884 1.818 4.026 2.246 1.117 4.42 2.66-1.433 3.632-3.633 6.336-6.188 7.072-1.7 2.816-2.764 6.867-6.188 7.072-2.498 2.648-6.16 4.026-7.966 6.187-3.832.967-8.06.883-12.376.883h-37.12c-2.64 1.32-6.96 1.948-10.608 2.66-4.076 0-8.694.06-11.49-.883-1.896-1.894-6.22-4.01-7.07-6.187-1.876-1.61-1.93-4.46-3.637-6.187-1.48-2.63-1.936-6.486-3.636-8.84V479.6z" transform="matrix(1.48 0 0 1.64 -103 -621.43)"/>
    <path d="M437.62 487.66v.884c0-2.47.11-1.168-1.768 3.636-.38 1.14-1.212 1.407-2.662 1.767m-3.63-2.666h.884c-3.273 3.09-6.476 4.616-6.188 7.966l6.188-7.966c-3.273 3.09-6.476 4.616-6.188 7.966m-7.076-12.366c0 .08-.124 3.163-.884 4.42m-2.646 1.76v.884-.884zm-7.07-6.3h.884-.884c.294 0 .69 0 0 0zm-49.6 0c.422 0 2.16 2.806 4.42 4.42-.663 2.686-1.427 6.677 0 7.964m2.66-7.074c.422 0 2.16 2.807 4.42 4.42l-4.42-4.42c.422 0 2.16 2.807 4.42 4.42v.884c0-2.73-.227-6.69.883-7.072.983 1.663 2.224 4.337 2.662 1.768 4.978-.178 7.38-1.676 10.607-2.66 0 1.3-.21.674.884 1.766m60.104-3.636h.884c-1.667 1.39-2.946 4.222-4.42 6.187m-32.704-8.837h7.07" transform="matrix(1.48 0 0 1.64 -103 -621.43)"/>
  </g>
  <path d="M413.61 239.342c-16.702 0-20.906 16.41-36.61 16.41-.302 0-.688-.024-.883-.036v.993c-.06 11.376.836 21.97 2.466 31.864 14.486-1.068 19.866-16.41 36.028-16.41 16.704 0 20.946 16.446 36.66 16.446s20.943-16.447 36.646-16.447 20.944 16.447 36.648 16.447 20.944-16.447 36.647-16.447c16.123 0 20.62 16.244 34.92 16.373 1.724-10.168 2.636-21.07 2.674-32.784v-.037c-.294.012-.68.037-.883.037-16.702 0-20.906-16.41-36.61-16.41s-20.944 16.41-36.647 16.41-20.944-16.41-36.648-16.41-20.944 16.41-36.647 16.41-20.944-16.41-36.647-16.41zm0 64.064c-12.214 0-18.09 9.902-27.486 14.313a161.431 161.431 0 0 0 11.664 24.836c4.46-3.374 9.202-6.292 16.822-6.292 16.696-.012 20.934 16.4 36.64 16.4 16.706 0 20.946-16.41 36.66-16.41 16.702 0 20.943 16.41 36.646 16.41s20.944-16.41 36.648-16.41c6.472 0 11.16 2.794 16.627 6.07a162.782 162.782 0 0 0 11.7-24.726c-9.244-4.47-16.123-14.203-27.227-14.203-16.703 0-20.944 16.41-36.647 16.41s-20.946-16.41-36.66-16.41c-16.702 0-20.943 16.41-36.646 16.41s-20.944-16.41-36.648-16.41zm73.284 64.062c-16.703 0-20.944 16.448-36.647 16.448-14.86 0-20.347-14.703-34.182-16.3 18.49 20.697 39.468 33.068 63.767 39.92 4.836-3.762 9.844 4.664 17.072 4.664 7.178 0 12.16-8.36 16.963-4.636 14.14-6.886 34.863-19.376 63.242-39.776-13.384 1.966-18.932 16.226-33.668 16.226-16.703 0-20.944-16.447-36.648-16.447z" fill-rule="evenodd" fill="#fff"/>
  <g transform="matrix(1.18 0 0 1.18 -406.92 -18.22)">
    <path d="M332.64 641.36c1.744-.68 10.173-3.197 10.464-2.907.29.29 16.278 16.697 16.278 16.697l-13.37 2.616-13.372-16.406z" stroke-opacity=".996" transform="matrix(1.26 0 0 1.3 269.36 -430)" stroke="#612007" stroke-width=".476" fill="none"/>
    <path d="M413.64 471.01c.29-4.66 8.72-31.103 8.72-31.103m-6.82 31.413c0-.29 6.686-31.127 6.686-31.127m-4.396 31.177c.29-1.744 6.668-31.176 6.668-31.176M413.93 467.23c1.463-.872 6.813-2.036 6.813-2.036m-3.783-2.616c1.463 0 4.36-1.163 4.36-1.163m-3.49-2.327c0-.29 4.36-1.163 4.36-1.163m-3.78-3.197l4.66-.872m-2.61-2.908c0 .29 3.197.29 3.197.29m-2.327-3.78c.68 0 3.197.68 3.197.68" stroke-opacity=".996" transform="matrix(1.06 0 0 1.03 276.8 -177.96)" stroke="#612007" stroke-width=".694" fill="none"/>
    <path d="M413.64 471.01c.29-4.66 8.72-31.103 8.72-31.103m-6.82 30.223c0-.29 6.686-29.94 6.686-29.94m-3.776 27.62c.29-1.744 4.94-27.614 4.94-27.614m-10.46 27.034c1.463-.872 6.813-2.036 6.813-2.036m-3.783-2.616c1.463 0 4.36-1.163 4.36-1.163m-3.49-2.327c0-.29 4.36-1.163 4.36-1.163m-3.78-3.197l4.66-.872m-2.61-2.908c0 .29 3.197.29 3.197.29m-2.327-3.78c.68 0 3.197.68 3.197.68" stroke-opacity=".996" transform="matrix(-1.26 0 0 1.76 1290.4 -602.06)" stroke="#612007" stroke-width=".41" fill="none"/>
    <path d="M413.64 471.01c.29-4.66 8.72-31.103 8.72-31.103m-6.82 30.223c0-.29 6.686-29.94 6.686-29.94m-3.776 27.62c.29-1.744 4.94-27.614 4.94-27.614m-10.46 27.034c1.463-.872 6.813-2.036 6.813-2.036m-3.783-2.616c1.463 0 4.36-1.163 4.36-1.163m-3.49-2.327c0-.29 4.36-1.163 4.36-1.163m-3.78-3.197l4.66-.872m-2.61-2.908c0 .29 3.197.29 3.197.29m-2.327-3.78c.68 0 3.197.68 3.197.68" stroke-opacity=".996" transform="matrix(-1.26 0 0 1.3 1321.3 -301.92)" stroke="#612007" stroke-width=".476" fill="none"/>
    <path d="M396.32 672.16c0-.29.872-72.96.872-72.96s2.616-.29 2.616 0-.29 72.67-.68 72.96-3.2.68-2.908 0zm28.49-69.76c0 .682-.682 61.333-.682 61.333l-2.036 2.326.682-63.66h2.036z" stroke-opacity=".996" fill-rule="evenodd" transform="matrix(1.26 0 0 1.3 269.36 -430)" stroke="#612007" stroke-width=".476" fill="#dd8b69"/>
    <path d="M363.06 660.24s2.907 29.94 36.336 29.068 42.73-30.23 42.73-30.23-14.244-.682-14.636-.682c-.29 0-11.627 13.963-26.16 13.662s-19.186-3.78-22.383-6.686c-3.197-2.907-6.104-7.267-6.104-7.267l-16.86-6.686.873 6.396 6.104 2.326zm90.24-3.11c-.29-.872-1.007-3.866-1.007-3.866v-3.488l1.61-3.632s-26.29 3.623-26.29 3.914c0-.336-.166 6.886-.166 6.886l24.843.087z" stroke-opacity=".996" fill-rule="evenodd" transform="matrix(1.26 0 0 1.3 269.36 -430)" stroke="#612007" stroke-width=".476" fill="#dd8b69"/>
    <path d="M448.62 649.78l-.68 6.104h4.068l-.29-6.104h-3.198zm-4.36.29l-.29 6.394 2.616-.29.29-6.104h-2.616zm-4.36 6.39v-4.94l2.616-.873.29 4.94-2.906.873zm-4.96-.28l.682-4.36 2.906.29.29 4.66-3.778-.68zm-6.62 0l.29-3.78 2.908-.29v4.36l-3.198-.29zm-67.44 3.77c.872 0 7.668 1.463 7.668 1.463l6.976 9.302" stroke-opacity=".996" transform="matrix(1.26 0 0 1.3 269.36 -430)" stroke="#612007" stroke-width=".476" fill="none"/>
    <path d="M366.84 661.12c.29.29 6.104 19.766 34.01 19.766s34.69-22.09 34.69-22.09" stroke-opacity=".996" transform="matrix(1.26 0 0 1.3 269.36 -430)" stroke="#612007" stroke-width=".476" fill="none"/>
    <path d="M439.8 669.37s-13.37 29.068-38.96 27.033c-26.68-2.034-29.66-11.627-31.686-16.668-2.036-4.942-3.197-9.01-3.197-9.01" stroke-opacity=".996" transform="matrix(1.26 0 0 1.3 269.36 -430)" stroke="#612007" stroke-width=".476" fill="none"/>
    <path d="M373.23 668.21c.29-1.746.29-64.367.29-64.367l-1.744-.29-.29 63.776 1.744.872zm-41.67-17.16l22.09 10.766-.68 1.463s-21.22-9.883-21.22-10.174c0-.29.29-1.463-.29-2.034z" stroke-opacity=".996" fill-rule="evenodd" transform="matrix(1.26 0 0 1.3 269.36 -430)" stroke="#612007" stroke-width=".476" fill="#dd8b69"/>
    <path d="M341.84 637.86c0 .872 3.198 18.603 3.198 18.603s2.036.29 2.036 0-3.49-18.312-3.49-18.312l-1.743-.29zm20.34.68c1.163 0 20.93-3.197 20.93-3.197l-.292 3.197-19.476 2.036-1.163-2.036z" stroke-opacity=".996" fill-rule="evenodd" transform="matrix(1.26 0 0 1.3 269.36 -430)" stroke="#612007" stroke-width=".476" fill="#dd8b69"/>
    <path d="M366.09 614.32c.68 0 6.976 3.198 9.692 2.326s.872-2.907 1.463-2.907c.682 0 2.616 1.462 3.78.29 1.162-1.163 2.034-4.66 1.463-4.36-.682.29-16.988 6.813-16.278 4.66z" stroke-opacity=".996" fill-rule="evenodd" transform="matrix(1.26 0 0 1.3 269.36 -430)" stroke="#612007" stroke-width=".476" fill="#fecf3e"/>
    <path d="M362.48 621.68c1.163.29 23.836-6.104 23.836-6.104s0 2.036-.29 2.036-23.646 6.106-23.646 6.106v-2.036z" stroke-opacity=".996" fill-rule="evenodd" transform="matrix(1.26 0 0 1.3 269.36 -430)" stroke="#612007" stroke-width=".476" fill="#dd8b69"/>
    <path d="M416.09 612.67s1.464 3.488 2.907 2.907 2.907-1.744 2.907-1.744 1.163 2.907 3.197 2.326c2.036-.68 3.2-3.78 3.2-3.78s2.033.683 2.906.292c.873-.29 2.036-4.94 2.036-4.94l-17.16 4.94zm-1.76 28.2c-.29.68 1.464 2.036 2.907 2.036s2.036-2.036 2.326-1.464c.29.683.29 3.2 4.07 2.327s3.78-3.488 3.78-3.488-1.164.87 1.462 1.16c2.616.292 6.232-3.778 4.942-3.778-.29 0-18.894 3.49-19.476 3.198z" stroke-opacity=".996" fill-rule="evenodd" transform="matrix(1.26 0 0 1.3 269.36 -430)" stroke="#612007" stroke-width=".476" fill="#fecf3e"/>
    <path d="M363.36 613.16c-.29 1.163.29 2.617.29 2.617l18.894-6.396s.872-1.464 0-1.464-19.476 6.814-19.184 6.232zm26-4.07c.68 0 19.476-6.104 19.476-6.104s.29 2.616 0 2.616-17.73 6.232-17.73 6.232l-1.746-1.744z" stroke-opacity=".996" fill-rule="evenodd" transform="matrix(1.26 0 0 1.3 269.36 -430)" stroke="#612007" stroke-width=".476" fill="#dd8b69"/>
    <path d="M413.34 621.88s-2.907 3.197-2.036 7.667c.872 4.36 2.036 8.14 2.326 8.14s3.49-6.814 6.977-6.106 9.883 3.198 9.883 3.198-.872-6.977-.68-10.174c.29-3.198 6.23-8.72 6.23-8.72l-21.8 6.104z" stroke-opacity=".996" fill-rule="evenodd" transform="matrix(1.26 0 0 1.3 269.36 -430)" stroke="#612007" stroke-width=".476" fill="#fecf3e"/>
    <path d="M386.89 616.64s-.68 2.616-.29 2.616 24.707-6.396 24.707-6.396v-1.743l-24.417 6.623z" stroke-opacity=".996" fill-rule="evenodd" transform="matrix(1.26 0 0 1.3 269.36 -430)" stroke="#612007" stroke-width=".476" fill="#dd8b69"/>
    <path d="M366.6 661.82s-6.813-.872-6.623.68c.29 1.464 2.907 2.908 3.198 3.78.29.872-.872 4.07.872 3.78 1.744-.292 3.488-1.466 3.488-2.327s-.29-4.94-.29-4.94l-1.746-.873z" stroke-opacity=".996" fill-rule="evenodd" fill-opacity=".996" transform="matrix(1.26 0 0 1.3 269.36 -430)" stroke="#612007" stroke-width=".476" fill="#b6b6b4"/>
    <path d="M387.76 637.28v2.034l20.93-2.906-.682-1.464-20.348 2.326z" stroke-opacity=".996" fill-rule="evenodd" transform="matrix(1.26 0 0 1.3 269.36 -430)" stroke="#612007" stroke-width=".476" fill="#dd8b69"/>
    <path d="M363.06 640.77c.29 0 0 2.616 2.326 2.036 2.326-.682 2.907-2.036 2.907-2.036s.68 3.197 3.78 2.907c3.196-.29 4.94-3.78 4.94-3.78s.29 2.617 2.326 1.746 2.616-2.907 2.616-2.907l-18.313 2.616-.68-.68zm0-17.16s-2.616.872-1.744 6.104 2.907 8.14 3.197 8.14c.29 0 2.616-4.942 6.104-6.814 3.49-.873 9.693 2.616 9.693 2.616s-.682-4.66.29-9.01c.873-4.362 3.78-7.66 3.78-7.66s-20.348 6.624-21.22 6.624z" stroke-opacity=".996" fill-rule="evenodd" transform="matrix(1.26 0 0 1.3 269.36 -430)" stroke="#612007" stroke-width=".476" fill="#fecf3e"/>
    <path d="M411.89 638.73l.29 1.744s20.93-2.616 20.93-2.907c0-.29 0-2.034-.29-2.034-.292 0-20.64 3.488-20.93 3.197zm-.29-18.6l.29 2.034 24.708-6.686s.682-1.746.29-1.746-24.707 7.267-26.288 6.396z" stroke-opacity=".996" fill-rule="evenodd" transform="matrix(1.26 0 0 1.3 269.36 -430)" stroke="#612007" stroke-width=".476" fill="#dd8b69"/>
    <path d="M414.22 610.83s-.29 1.744 0 1.744 18.313-4.36 18.313-4.66c0-.29 1.744-2.036.29-1.746-1.463.29-18.02 6.622-18.603 4.66zm38.66 33.72l-18.03-28.49m-2.32 19.77c.29-.872 1.163-18.312 1.163-18.312" stroke-opacity=".996" transform="matrix(1.26 0 0 1.3 269.36 -430)" stroke="#612007" stroke-width=".476" fill="none"/>
    <path d="M388.93 609.96c1.163.29 3.198 3.197 4.36 2.616 1.163-.68 2.907-2.326 2.907-2.326s-.29 3.49 2.036 2.907c2.326-.68 2.616-2.906 2.616-2.906s1.744.873 3.197 0c1.464-.87 2.907-6.232 2.326-6.232s-16.868 6.233-17.44 4.942zm-.68 8.43c0 .68-2.907 6.232-2.036 9.692s2.616 8.43 2.907 8.43 4.66-4.66 8.43-6.623c3.778-.873 9.3 2.906 9.01 2.906-.29 0-1.463-4.36-1.463-7.668 0-3.198 4.36-13.08 4.36-13.08l-21.22 6.232zm0 20.93c0 .29.872 2.326 2.907 2.326 2.034 0 2.326-2.036 2.326-2.036s-.29 3.49 2.907 3.2c3.196-.292 4.36-3.49 4.36-3.49s.29 1.746 2.906.873c2.616-.873 6.104-3.78 6.813-3.78-.29 0-20.93 3.78-21.22 2.907z" stroke-opacity=".996" fill-rule="evenodd" transform="matrix(1.26 0 0 1.3 269.36 -430)" stroke="#612007" stroke-width=".476" fill="#fecf3e"/>
    <use xlink:href="#k" transform="translate(-6.66 7.28)" height="496.063" width="992.126"/>
    <use xlink:href="#k" transform="translate(6.66 3.76)" height="496.063" width="992.126"/>
    <use xlink:href="#k" transform="translate(0 11.03)" height="496.063" width="992.126"/>
    <path id="k" d="M408.98 476.96a1.89 1.89 0 1 1-3.78 0 1.89 1.89 0 0 1 3.78 0z" stroke-opacity=".996" fill-rule="evenodd" fill-opacity=".996" transform="matrix(.04 -1.07 1.02 .04 261.6 667.92)" stroke="#612007" stroke-width=".681" fill="#be0f17"/>
    <path d="M398.23 600.07c0-.29 9.01 3.78 9.01 4.07 0 .29 31.976 42.73 32.266 42.73m-16.986-42.73l8.14 3.49 2.616 6.393M372.94 603.66c-.29 0 9.01 6.976 9.01 6.976l1.164 6.814M341.26 646c4.07-1.744 32.266-26.462 32.266-26.462M333.7 641.36c3.49-2.907 31.684-26.742 31.684-26.742m21.216 4.072l29.94 49.706m-3.63-29.166s3.632 11.71 7.02 13.466 7.667 4.66 7.667 4.66" stroke-opacity=".996" transform="matrix(1.26 0 0 1.3 269.36 -430)" stroke="#612007" stroke-width=".476" fill="none"/>
    <path d="M412.61 639.48s2.48 13.793 6.97 16.41 6.976 6.622 6.976 6.622" stroke-opacity=".996" transform="matrix(1.26 0 0 1.3 269.36 -430)" stroke="#612007" stroke-width=".476" fill="none"/>
    <path d="M390.96 439.03s3.488 19.186 10.466 23.646c6.976 4.36 12.79 8.14 12.79 8.14" stroke-opacity=".996" transform="matrix(1.26 0 0 1.3 266.26 -299.49)" stroke="#612007" stroke-width=".476" fill="none"/>
    <path d="M390.67 438.74s7.667 16.116 13.962 19.767c6.396 4.66 16.116 9.01 16.116 9.01M366.26 439.9c2.034 3.488 1.744 10.174 4.07 12.6 2.324 2.326 6.813 7.667 6.813 7.667" stroke-opacity=".996" transform="matrix(1.26 0 0 1.3 266.26 -299.49)" stroke="#612007" stroke-width=".476" fill="none"/>
    <path d="M366.84 440.19c1.163 1.744 4.406 10.428 6.396 13.08 1.464 2.326 16.278 17.16 16.278 17.16" stroke-opacity=".996" transform="matrix(1.26 0 0 1.3 266.26 -299.49)" stroke="#612007" stroke-width=".476" fill="none"/>
    <path d="M384.67 471.16a2.18 2.18 0 1 1-4.36 0 2.18 2.18 0 0 1 4.36 0zm10.76 4.66a1.89 1.89 0 1 1-3.78 0 1.89 1.89 0 0 1 3.78 0zm13.66 1.16a1.89 1.89 0 1 1-3.78 0 1.89 1.89 0 0 1 3.78 0zm11.92-4.6c0 .963-.716 1.744-1.6 1.744-.882 0-1.697-.78-1.697-1.744 0-.963.716-1.744 1.698-1.744.884 0 1.6.78 1.6 1.744zm9.69-6.67c0 .883-.846 1.6-1.89 1.6s-1.89-.717-1.89-1.6c0-.883.847-1.6 1.89-1.6s1.89.717 1.89 1.6z" stroke-opacity=".996" fill-rule="evenodd" transform="matrix(1.26 0 0 1.3 266.26 -299.49)" stroke="#612007" stroke-width=".476"/>
    <path d="M374.1 404.44c-.872.682-16.406 4.07-13.37 3.78 2.033-.29 13.66 2.906 13.37 2.034s0-6.232 0-6.814zm24.71-4.36c-.682 0-9.012 3.198-8.72 3.198s9.692 2.616 9.3 2.034c-.29-.68-.29-4.36-.68-6.232zm26.29 2.91c-.682.29-10.466 2.616-8.72 2.907s8.43 2.616 8.43 2.036c0-.682 0-4.66.29-4.942z" stroke-opacity=".996" fill-rule="evenodd" fill-opacity=".996" transform="matrix(1.26 0 0 1.3 266.26 -299.49)" stroke="#612007" stroke-width=".476" fill="red"/>
    <path d="M413.64 471.01c.29-4.66 8.72-31.103 8.72-31.103m-6.82 30.223c0-.29 6.686-29.94 6.686-29.94m-3.776 27.62c.29-1.744 4.94-27.614 4.94-27.614m-10.46 27.034c1.463-.872 6.813-2.036 6.813-2.036m-3.783-2.616c1.463 0 4.36-1.163 4.36-1.163m-3.49-2.327c0-.29 4.36-1.163 4.36-1.163m-3.78-3.197l4.66-.872m-2.61-2.908c0 .29 3.197.29 3.197.29m-2.327-3.78c.68 0 3.197.68 3.197.68" stroke-opacity=".996" transform="matrix(1.26 0 0 1.3 266.26 -299.49)" stroke="#612007" stroke-width=".476" fill="none"/>
    <path d="M413.64 471.01c.29-4.66 8.72-31.103 8.72-31.103m-6.82 31.413c0-.29 6.686-31.127 6.686-31.127m-4.396 31.177c.29-1.744 6.668-31.176 6.668-31.176M413.93 467.23c1.463-.872 6.813-2.036 6.813-2.036m-3.783-2.616c1.463 0 4.36-1.163 4.36-1.163m-3.49-2.327c0-.29 4.36-1.163 4.36-1.163m-3.78-3.197l4.66-.872m-2.61-2.908c0 .29 3.197.29 3.197.29m-2.327-3.78c.68 0 3.197.68 3.197.68" stroke-opacity=".996" transform="matrix(1.26 0 0 1.36 226.31 -323.36)" stroke="#612007" stroke-width=".476" fill="none"/>
    <path d="M413.64 471.01c.29-4.66 8.72-31.103 8.72-31.103m-6.82 30.223c0-.29 6.686-29.94 6.686-29.94m-3.776 27.62c.29-1.744 4.94-27.614 4.94-27.614m-10.46 27.034c1.463-.872 6.813-2.036 6.813-2.036m-3.783-2.616c1.463 0 4.36-1.163 4.36-1.163m-3.49-2.327c0-.29 4.36-1.163 4.36-1.163m-3.78-3.197l4.66-.872m-2.61-2.908c0 .29 3.197.29 3.197.29m-2.327-3.78c.68 0 3.197.68 3.197.68" stroke-opacity=".996" transform="matrix(-1.26 0 0 1.32 1269.2 -307.28)" stroke="#612007" stroke-width=".474" fill="none"/>
    <path d="M426.42 668.6l27.614.682.29-2.036-28.486-.29.682 1.743zm1.17-7.27c3.198 0 27.324-4.66 27.324-4.66s.872-2.907 0-2.907-27.324 6.623-27.324 6.623v2.034z" stroke-opacity=".996" fill-rule="evenodd" transform="matrix(1.26 0 0 1.3 269.36 -430)" stroke="#612007" stroke-width=".476" fill="#dd8b69"/>
    <use xlink:href="#k" transform="translate(0 6.62)" height="496.063" width="992.126"/>
  </g>
</svg>
