<svg xmlns="http://www.w3.org/2000/svg" height="480" width="640">
  <defs>
    <clipPath id="a">
      <path fill-opacity=".67" d="M-81.333 0h682.67v612h-682.67z"/>
    </clipPath>
  </defs>
  <g fill-rule="evenodd" clip-path="url(#a)" transform="translate(76.26) scale(.94)" stroke-width="1pt">
    <path fill="#6797d6" d="M-262 0H772v612H-262z"/>
    <path fill="#fff" d="M269.787 122.986l-32.44 22.214 12.433-36.9-32.476-22.177 40.122.038 12.366-36.92 12.366 36.92 40.12-.026L279.8 109.3l12.43 36.906m-32.443 244.847l-32.44-22.214 12.433 36.9-32.476 22.176 40.122-.038 12.366 36.92 12.366-36.92 40.12.027-32.48-22.166 12.43-36.906m-188.384-92.466l-24.63 30.73 1.396-37.967-37.64-11.713 38.38-11.696 1.324-37.966 22.328 30.736 38.36-11.766-24.68 30.694 22.383 30.7m274.28-11.763l24.63 30.73-1.396-37.967 37.64-11.713-38.38-11.696-1.324-37.966-22.328 30.736-38.36-11.766 24.68 30.694-22.383 30.7"/>
  </g>
</svg>
