<svg xmlns="http://www.w3.org/2000/svg" height="480" width="640">
  <defs>
    <clipPath id="a">
      <path fill-opacity=".67" d="M-86.333 0h682.67v612h-682.67z"/>
    </clipPath>
  </defs>
  <g clip-path="url(#a)" transform="translate(80) scale(.94)">
    <g stroke-width="1pt">
      <path fill="#006" d="M-266 0H768.02v612.01H-266z"/>
      <path d="M-266 0v67.244l909.636 464.768H768.02V464.77L-141.616 0H-266zM768.02 0v67.243L-141.616 612.01H-266v-67.243L663.636 0H768.02z" fill="#fff"/>
      <path d="M170.676 0v612.01h170.67V0h-170.67zM-266 170.67v170.67H768.02V170.67H-266z" fill="#fff"/>
      <path d="M-266 204.804v102.402H768.02V204.804H-266zM204.81 0v612.01h102.4V0h-102.4zM-266 612.01L86.34 341.34h76.324l-341.34 170.67H-266zM-266 0L86.34 170.67H9.016L-266 38.164V0zm606.366 170.67L691.696 0h76.324L426.68 170.67h-76.324zM768.02 612.01L426.68 341.34h76.324L768.02 473.848v38.162z" fill="#c00"/>
    </g>
  </g>
</svg>
