<svg xmlns="http://www.w3.org/2000/svg" height="480" width="640">
  <g fill-rule="evenodd">
    <path fill="red" d="M0 0h640v480H0z"/>
    <path fill="#009a00" d="M146.996 83.464h360.91v314.41h-360.91z"/>
    <path d="M146.996 397.866h360.91l-180.46-167.19-180.46 167.19z" fill="#ffca00"/>
    <path d="M146.996 83.628l180.46 167.19 180.46-167.19h-360.91z" fill="#ffca00"/>
    <path fill="#ffce00" d="M177.71 61.366L161.263 49.64l-16.466 11.698 6.073-19.262-16.207-12.044 20.192-.177 6.446-19.14 6.41 19.162 20.192.212-16.236 12.014m170.93 19.763L326.16 60.128l-16.466 11.7 6.073-19.263-16.207-12.043 20.192-.178 6.446-19.14 6.408 19.162 20.193.213-16.237 12.013M607.69 61.69l-16.447-11.727-16.466 11.7L480.76 42.3l-16.207-12.044 20.192-.177 6.446-19.142 6.41 19.163 20.192.213-16.236 12.016M177.71 468.793l-16.447-11.728-16.466 11.7 6.073-19.263-16.207-12.043 20.192-.18 6.446-19.14 6.41 19.163 20.192.213-16.236 12.014m170.93 19.764l-16.447-11.728-16.466 11.7 6.073-19.263-16.207-12.043 20.192-.18 6.446-19.14 6.408 19.163 20.193.213-16.237 12.014m171.038 19.014l-16.447-11.728-16.466 11.7 6.073-19.263-16.207-12.043 20.192-.18 6.446-19.14 6.41 19.163 20.192.213-16.236 12.014"/>
    <path d="M369.722 243.097c0 24.172-19.694 43.766-43.764 43.766s-43.766-19.694-43.766-43.766c0-24.17 19.696-43.764 43.766-43.764s43.764 19.694 43.764 43.764z" fill="red"/>
    <path fill="#ffce00" d="M346.766 270.04l-19.636-13.93-19.66 13.896 7.214-22.88-19.26-14.306 23.984-.21 7.667-22.738 7.612 22.76 23.986.263-19.286 14.272"/>
    <path d="M169.972 273.464s2.22-18.394.962-30.762c-1.27-12.368-32.983-16.867-32.983-16.867l-.316 28.86s26.372 20.613 32.348 17.76z" fill="red"/>
    <path d="M123.67 200.626s3.066 16.207-1.27 48.622c-2.31 17.646 16.81 29.494 40.278 34.886-4.767-8.246-17.442-21.666-14.27-46.986 17.124 2.22 33.298 36.62 33.298 36.62s12.813-47.217-13.003-64.647c-26.09-7.06-46.033-18.077-46.033-18.394z" fill="#ffce00"/>
  </g>
</svg>
