<svg xmlns="http://www.w3.org/2000/svg" xmlns:xlink="http://www.w3.org/1999/xlink" height="480" width="640">
  <path fill="#da000c" d="M0 0h640v480H0z"/>
  <path fill="#fff" d="M0 0h640v321.663H0z"/>
  <g transform="translate(-160) scale(1.876)" stroke="#000">
    <g id="a" fill="#da000c" stroke-linecap="square">
      <path fill="#000" stroke="none" d="M196.67 116.303h64v43.993h-64z"/>
      <path d="M229.82 163.866h-39.07l-8.66 6.7v6.04h47.73m-16.36-37.011c6.624 0 10.218 4.69 10.218 10.47v14.78h7.343v-66h-40.28v66h12.6v-14.78c0-6.666 4.616-10.47 10.22-10.47z"/>
      <path fill="#000" stroke="none" d="M204.628 69.962h18.623v33.96H204.63z"/>
      <path d="M223 88.666h-16.21v-6.76h-11.884v6.76h-8.062v-6.76h-4.813v10.438H223m-36.166-.038h34.97v4.638h-34.97zm13.876-46.681v36.28h6.07V73.22c0-3.63 2.663-6.6 6.148-6.782.116-.006.226 0 .343 0a6.78 6.78 0 0 1 6.782 6.78v9.688h6.782v-36.28zm-2.19-4.781v4.78h29.26v-4.78zm-3.76-9.166v9.166h36.096v-9.167h-6.406v4.667h-6.632v-4.667h-9.97v4.667h-6.63v-4.667zm-12.69 126.876H230m31-2.761h-32.438l-9.78 4.718v7.032H261"/>
      <path d="M218.77 161.62H262" stroke-linecap="butt"/>
    </g>
    <use height="100%" width="100%" xlink:href="#a" transform="matrix(-1 0 0 1 612 0)"/>
    <g fill="#f8d80e">
      <g stroke-linecap="round">
        <path d="M273.297 160.03c-2.664.884-6.063 2.37-7.47 3.764-3.1 1.83-6.106 3.827-8.903 6.1-.986.648-1.93 1.36-2.69 2.272-1.026.878-2.064 2.066-1.868 3.613.06.642.873-.766 1.414-.824a4.39 4.39 0 0 1 3.142-.47c1.27-1.34 2.91-2.237 4.326-3.407 3.004-2.244 6.236-4.17 9.626-6.962 1.148-.69 2.3-1.186 3.626-1.602l-1-3.376z" stroke-width=".768"/>
        <path d="M260.4 167.39v3.913m2.417-6.618v3.883m2.416-6.388v3.868m2.417-6.344v3.98"/>
        <path d="M238.89 160.166l-1.186 3.313c6.636 2.1 10.808 4.877 16.797 8.06 1.692 1.16 3.468 2.266 4.797 3.846.293.81-.614 1.49-1.314 1.244-.732-.26-1.463-.633-2.226-.006-1.107.603-2.106 2.14-.426 2.69 2.316 1.666 6.083.88 7.196-1.844.68-1.4.618-3.196-.608-4.344-2.063-2.364-4.797-4.008-7.42-6.672-4.69-2.82-9.674-6.374-14.707-7.288z" stroke-width=".768"/>
        <path d="M264.06 168.036l-.313 3.34m3.096-1.636l-.862 3.27m3.834-.998l-1.808 2.637m2.719 3.631l-2.61-1.4m3.423-1.36l-2.996.28m-.868 4.066l-.206-2.633m-.892-.376l-2.473 1.822m-9.418-16.641v3.116m6.286.192v3.634m-3.143-6.186v3.32"/>
      </g>
      <path d="M236.78 227.663v8.03h6.032v-4.03h6.844v4.03h6.406v-8.03zm0 11.062v8.063h17.282v-8.063h-6.406v4.03h-6.844v-4.03z"/>
      <path d="M263.062 193.66h4.99v68.116h-4.99z"/>
      <path d="M263.062 198.68h4.99v60.06h-4.99z"/>
      <path d="M266.647 179.406l10.626 6.188-10.626 6.166-10.626-6.166zm-14.22 3.97h-2.78v4.436h2.78l14.22 8.26 14.22-8.26h2.78v-4.437h-2.78l-14.22-8.26z" stroke-width="1.024"/>
      <path d="M266.344 164.28c-2.42.34-4.226 2.73-4.094 6.136.01 3.738-.018 7.476.014 11.214.13 2.407 2.233 4.666 4.676 4.687 1.984.188 3.978-.972 4.81-2.78l-1.718-1.03c-.444 1.183-1.724 1.917-2.97 1.78-1.634.046-2.968-1.644-2.812-3.134.01-3.713-.02-7.428.016-11.14.09-1.616 1.636-2.766 3.048-2.6.626-.18 1.487.676 1.876-.063.683-.83-.416-1.477-.97-1.937-.613-.086-1.263-.008-1.874-.032zm6.78 3.907c-.396.746-1.216 1.19-1.874 1.68v7.614l2 1.167c-.008-3.204.016-6.408-.01-9.61-.033-.198-.01-.6-.116-.64z" stroke-width="1.024"/>
    </g>
    <g fill="#da000c">
      <path fill="#000" d="M240.803 38.36h29.33v63.266h-29.33z" stroke="none"/>
      <path d="M238.76 38.376v44.663h9.313v-13.22c0-3.048 1.962-7.28 7.937-7.28s7.938 4.232 7.938 7.28v13.22h9.312V38.374zm16.813 6h2.876v16.26h-2.876zm-8.26 3h2.906V67.63h-2.907zm16.468 0h2.908V67.63h-2.907zM236.694 31.97v6.343h40.812v-6.344zm-3.844-7.376v7.376h48.6v-7.376h-6.094v4.062h-6.876v-4.062h-7.842v4.062h-6.876v-4.062h-7.844v4.062h-6.876v-4.062zm-9 73.26v4.694h66.6v-4.694z"/>
      <path d="M220.03 82.906v14.938h71.94V82.906h-6.814v6.76h-9.062v-6.76h-12.166v6.76h-16.876v-6.76h-12.167v6.76h-9.062v-6.76z"/>
      <path d="M228.688 102.438v64.343h12.843v-20.343c0-9.682 6.398-14.093 14.47-14.093 7.76 0 14.47 4.61 14.47 14.094v20.343h12.842v-64.343z" stroke-linejoin="round"/>
    </g>
  </g>
</svg>
