<svg xmlns="http://www.w3.org/2000/svg" height="480" width="640" version="1">
  <defs>
    <clipPath id="a">
      <path fill-opacity=".67" d="M0 0h682.67v612H0z"/>
    </clipPath>
  </defs>
  <g clip-path="url(#a)" transform="scale(.94)">
    <g fill-rule="evenodd" stroke-width="1pt">
      <path fill="#3e9a00" d="M0 0h767.976v171.886H0z"/>
      <path fill="#fff" d="M0 171.886h767.976v168.222H0z"/>
      <path fill="#e32118" d="M0 340.108h767.976v171.886H0z"/>
      <path d="M0 0v611.984l266.994-266.992L0 0z" fill="#6667e4"/>
    </g>
    <path d="M283.46 148.82v442.91c0 36.433 17.716 70.866 63.16 70.866h70.866c17.717 0 36.433 36.433 36.433 36.433s16.938-36.434 36.433-36.434h70.868c36.433 0 63.16-36.433 63.16-70.866V148.82h-318.9z" fill-rule="evenodd" transform="matrix(.24 0 0 .2 269.61 179.77)" stroke="#000" stroke-width="3.791" fill="#ccc"/>
    <path d="M216.38 731.79c-18.02 0-36.738-17.717-36.738-36.433v-88.683c16.602 16.602 88.683 70.866 70.867 88.683-17.718 17.716-36.738 0-36.434 0s.304 36.433.304 36.433z" fill-rule="evenodd" transform="matrix(.24 0 0 .2 267.81 160.36)" stroke="#000" stroke-width="1pt" fill="#ccc"/>
    <path d="M319.346 289.66c4.246-3.286 4.246 3.288 8.49 0l-4.246 19.724c-4.118-.618-4.26 0-6.638-3.287 0-3.288 0-13.792 2.393-16.436z" fill-rule="evenodd" fill="#ccc"/>
    <path d="M216.38 731.79c-18.02 0-36.738-17.717-36.738-36.433v-88.683c16.602 16.602 88.683 70.866 70.867 88.683-17.718 17.716-36.738 0-36.434 0s.304 36.433.304 36.433z" fill-rule="evenodd" transform="matrix(-.24 0 0 .2 481.9 160.36)" stroke="#000" stroke-width="1pt" fill="#ccc"/>
    <path d="M429.71 289.66c-4.246-3.286-4.246 3.288-8.49 0l4.246 19.724c4.118-.618 4.26 0 6.638-3.287 0-3.288 0-13.792-2.394-16.436z" fill-rule="evenodd" fill="#ccc"/>
    <path d="M613.78 1140.9c0-17.71-36.433-63.14-36.433-70.86s36.433 17.72 106.3 17.72c70.866 0 106.3-88.688 88.682-106.3 17.716 36.434 17.716 70.864 17.716 88.684 0 36.43-36.433 70.86-106.3 70.86H613.78z" fill-rule="evenodd" transform="matrix(.24 0 0 .2 268.41 107.46)" stroke="#000" stroke-width="1pt" fill="#ccc"/>
    <path d="M613.78 1140.9c0-17.71-36.433-63.14-36.433-70.86s36.433 17.72 106.3 17.72c70.866 0 106.3-88.688 88.682-106.3 17.716 36.434 17.716 70.864 17.716 88.684 0 36.43-36.433 70.86-106.3 70.86H613.78z" fill-rule="evenodd" transform="matrix(-.24 0 0 .2 480.66 107.46)" stroke="#000" stroke-width="1pt" fill="#ccc"/>
    <path d="M367.648 316.863c0-3.287 8.49-6.674 8.49-9.862v16.436h-8.49v-6.673zm33.967 0c0-3.287-8.49-6.674-8.49-9.862v16.436h8.49v-6.673z" fill-rule="evenodd" fill="#ccc"/>
    <path d="M371.17 1034.6c0 17.71 141.73 17.71 141.73 0v70.87c0 17.71-141.73 17.71-141.73 0v-70.87z" fill-rule="evenodd" transform="matrix(.24 0 0 .2 268.62 123.89)" stroke="#000" stroke-width="1pt" fill="#ccc"/>
    <path d="M249.63 696.36c-17.717 17.716-17.717-17.717-36.433 0-17.717 17.716 17.717 106.3 88.683 106.3s106.3-36.433 106.3-17.717c0 17.717-36.433 36.433-36.433 63.16s141.73 17.717 141.73 0-36.433-36.433-36.433-63.16c0-17.716 36.433 17.717 106.3 17.717 70.866 0 106.3-88.683 88.683-106.3-17.716-17.717-17.716 17.716-36.433 0" transform="matrix(.24 0 0 .2 268.02 160.36)" stroke="#000" stroke-width="1.26" fill="none"/>
    <path d="M426.836 313.608l-4.368-7.286.762-.308 4.368 7.286-.762.308zm-2.734-1.686l.913-.01c.236.874.246 1.698.028 2.172-.217.67-.636.968-1.266 1.164-.642.213-1.246.22-1.81.027-.664-.2-1.106-.677-1.626-1.133a7.987 7.987 0 0 1-1.306-1.916c-.386-.786-.603-1.608-.664-2.168-.06-.666.07-1.22.367-1.666a2.24 2.24 0 0 1 1.22-.937 2.46 2.46 0 0 1 1.786.076c.696.26 1.143.694 1.644 1.336l-.663.49c-.407-.603-.803-.836-1.19-.998a1.619 1.619 0 0 0-1.174-.046c-.468.162-.773.418-.946.797-.17.38-.2.824-.096 1.334.106.608.28 1.01.623 1.606.316.64.663 1.176 1.046 1.607.384.427.79.707 1.217.84.428.132.823.14 1.186.018.44-.146.736-.432.883-.866.148-.424.12-.97-.084-1.64zm-6.332 6.021l-2.847-7.777.813-.2 2.847 7.776-.814.2zm-6.38.869l-.748-7.137-2.108.16-.1-.966 6.07-.36.1.966-2.116.16.748 7.137-.846.06zm-8.146-2.163l.802-.086c.037.406.126.74.262 1.002.14.26.366.47.647.63.293.16.62.24.986.24.324 0 .61-.06.868-.183.26-.122.434-.288.664-.6a1.38 1.38 0 0 0 .184-.697c0-.264-.06-.477-.176-.666-.117-.19-.31-.36-.678-.48-.173-.086-.663-.216-1.143-.394-.69-.18-1.002-.36-1.24-.61a1.982 1.982 0 0 1-.687-.763 2.276 2.276 0 0 1-.222-1.014c0-.41.092-.793.276-1.147.184-.36.463-.63.806-.816a2.611 2.611 0 0 1 1.178-.277c.477 0 .896.1 1.268.294.366.193.646.477.84.864.196.376.3.803.316 1.28l-.816.077c-.046-.613-.193-.9-.448-1.163-.26-.263-.623-.393-1.116-.393-.616 0-.89.12-1.126.36-.234.236-.36.62-.36.867 0 .292.083.632.26.72.162.19.69.383 1.278.682.692.196 1.167.366 1.423.616.376.217.662.494.83.83.177.332.266.716.266 1.162 0 .432-.098.84-.293 1.226-.196.38-.478.677-.846.892-.366.21-.777.316-1.236.316-.682 0-1.07-.108-1.463-.322a2.264 2.264 0 0 1-.926-.964 3.319 3.319 0 0 1-.36-1.463zm-2.313-6.698l.86.032-.26 4.687c-.046.817-.166 1.46-.328 1.936a2.376 2.376 0 0 1-.867 1.143c-.396.283-.903.416-1.62.392-.602-.023-1.086-.173-1.464-.448-.367-.277-.62-.666-.766-1.166-.136-.604-.18-1.186-.132-2.046l.26-4.687.848.032-.26 4.68c-.038.706-.016 1.228.068 1.668.086.336.26.6.49.79.244.19.648.29.914.306.623.023 1.078-.14 1.364-.487.286-.348.466-1.03.612-2.06l.26-4.68zm-10.487 6.44l.766-.133c.022.62.114 1.046.278 1.273.163.23.39.344.68.344.212 0 .396-.06.66-.183a.968.968 0 0 0 .32-.606c.06-.216.088-.666.088-1.02v-6.696h.86v6.636c0 .68-.066 1.206-.197 1.678-.13.373-.336.668-.62.863-.28.197-.61.296-.99.296-.662 0-.994-.206-1.296-.616-.297-.41-.44-1.02-.43-1.828zm-14.443 13.664v-1.126l3.29-6.87c.233-.418.466-.78.666-1.09h-3.683v-1.08h4.6v1.08l-3.606 6.36-.39.646h4.1v1.08H378zm-46.764-11.262l2.026-9.016.836.126-2.026 9.016-.836-.126zm-9.091-3.662l6.28-8.076.767.34-1.174 7.66 4.146-6.34.718.317-6.28 8.076-.767-.34 1.177-7.667-4.16 6.346-.716-.318zm4.638-9.012l.6.496-4.66 3.76c-.794.66-1.474 1.126-2.043 1.426-.67.3-1.137.468-1.7.478a2.182 2.182 0 0 1-1.497-.61c-.426-.36-.647-.74-.663-1.172-.016-.432.168-.893.623-1.383.367-.494.97-1.084 1.804-1.77l4.662-3.76.6.493-4.646 3.746c-.684.664-1.164 1.01-1.408 1.338-.248.326-.37.636-.368.926.003.292.136.644.394.766.442.362.93.477 1.466.346.636-.133 1.3-.606 2.288-1.42l4.647-3.746zm9.068 13.26l.31-9.163 2.21.06c.6.012.88.064 1.14.168.362.13.67.366.917.678.326.416.66.946.706 1.686.16.638.21 1.366.18 2.18a8.964 8.964 0 0 1-.232 1.86c-.132.634-.293.976-.483 1.326-.19.346-.396.62-.616.818-.217.196-.477.34-.78.44-.303.096-.648.14-1.036.13l-2.317-.06zm.886-1.06l1.37.03c.422.01.766-.04 1-.147.246-.106.443-.26.694-.46.21-.284.38-.666.607-1.147.13-.486.208-1.073.23-1.764.033-.96-.063-1.697-.267-2.216-.202-.622-.468-.873-.767-1.066-.223-.13-.687-.2-1.092-.21l-1.36-.032-.236 7zm6.041 1.12l2.467-9.166h.916l2.628 9.167h-.968l-.76-2.776h-2.684l-.706 2.776h-.902zm1.864-3.763h2.177l-.67-2.638a33.419 33.419 0 0 1-.466-1.902c-.082.687-.198 1.17-.346 1.76l-.706 2.69zm4.834 3.763v-9.166h2.212c.6 0 .88.044 1.144.13.368.123.68.342.94.66.34.407.692.93.76 1.667.17.636.263 1.36.263 2.177 0 .697-.067 1.314-.17 1.862-.116.637-.26.983-.44 1.337-.177.36-.373.628-.686.832a2.12 2.12 0 0 1-.766.466c-.3.104-.642.166-1.03.166h-2.317zm.86-1.08h1.37c.424 0 .766-.066.996-.17.242-.112.436-.27.678-.474.203-.29.36-.674.47-1.167.114-.49.17-1.08.17-1.77 0-.96-.11-1.696-.332-2.21-.22-.616-.486-.86-.802-1.036-.227-.126-.694-.188-1.1-.188h-1.348v7.004zm17.332 11.686v-9.167h2.422c.426 0 .76.03.976.086.316.076.68.22.793.433.214.207.386.6.613.88.132.38.198.796.198 1.26 0 .78-.174 1.44-.62 1.983-.348.638-.976.806-1.884.806H367.4v3.726h-.86zm.86-4.81h1.66c.648 0 .938-.144 1.168-.436.23-.29.346-.702.346-1.232 0-.384-.068-.71-.206-.98-.136-.277-.314-.468-.636-.646-.143-.064-.407-.08-.793-.08h-1.64v3.276zm4.427 4.81l2.467-9.167h.916l2.627 9.166h-.968l-.76-2.776h-2.686l-.706 2.776h-.903zm1.863-3.764h2.177l-.67-2.64a31.814 31.814 0 0 1-.466-1.9c-.083.688-.198 1.17-.347 1.76l-.706 2.69zm66.08-12.49l-4.287-7.838.677-.41 8.067 6.66-.716.434-2.404-1.706-1.987 1.2 1.328 2.366-.667.402zm-1.138-3.694l1.61-.973-2.188-1.666c-.666-.477-1.2-.874-1.604-1.194.33.468.634.948.91 1.44l1.272 2.292z"/>
    <path d="M376.004 261.797c.01 4.946 2.984 19.744-6.662 42.741-.639 1.67 1.06 2.473 2.473 2.826 1.413.363 2.12-1.413 2.12-1.766s.363 2.826 1.766 2.472c1.413-.363 2.826-2.472 2.826-2.472s.707 3.179 2.473 3.179 1.766-3.886 1.766-3.886c0 .363 1.224 3.336 2.637 3.336s3.69-1.314 2.332-3.471c-8.976-16.108-8.602-40.131-8.602-42.967 0-2.826 4.168-7.96 8.313-8.084l-1.601-2.613c-1.044.32-2.292.66-4.412 2.316s-3.36 3.689-3.36 3.689v-12.01h-3.632l.364 10.96s-1.208-1.416-3.016-2.99c-1.71-1.49-4.796-1.38-6.696-1.067l-.18 2.398c2.246.469 6.11-.46 6.622 1.66 1.767 1.766 3.363 3.188 3.368 6.66z" fill-rule="evenodd" stroke="#000" stroke-width=".76436" fill="#682900"/>
    <path d="M310.66 312.21v-.832c0 1.976-.067 1.1.833-2.498.777-2.848 2.407-6.623 4.163-7.493 3.04-1.014 7.44.063 10.823-.833 2.277-3.268 6.827 4.267 6.827-.833 4.343-.31 4.4-4.668 6.828-6.66 4.064-.6 4.963-6.44 8.326-2.496 2.767 1.306.407-.833 4.997-.833 2.713.664 4.13 2.32 6.66.833.62-2.86 1.4-6.268 1.666-9.99-1.177-2.366-.832-7.184-.832-10.824 2.274-3.033 6.262 2.476 9.99 1.664 1.018-3.662 4.146-3.466 2.498-6.66-.308-4.007-1.08-6.603 0-10.823 1.314-3.703 3.228-3.606 6.66-6.827 1.093-3.277-.122-6.03.833-9.99 3.902-.116 3.833-1.133 4.164-4.996 1.26-2.66 2.868-6.366 4.996-7.493 1.967-2.382 4.302-2.147 6.827-6.828 1.308-3.27 1.31-4.76 4.996-6.828 2.696-1.27 4.833-1.41 6.66-3.33 1.733-3.067 3.176-6.487 6.83-9.16 2.63-1.77 16.236 1.666 19.148 1.666 2.118-2.67 6.397-6.86 7.493-8.326 3.687-1.916 4.96-2.497 9.99-2.497 4.288 1.27 6.082 2.796 10.824 1.666 1.932-2.706 3.816-3.966 8.326-2.498 3.433 2.22 6.347 2.124 6.66 6.828 1.947 4.616 1.61 6.192 6.662 6.66 6.18.186 6.71 1.443 9.168 4.163 6.248 2.26 4.996.98 4.996 6.827 3.72 0 4.062-.44 4.163 3.33 2.294.714 4.907 2.72 6.66 4.163 2.094 2.416 2.63 3.93 7.494 4.163 3.69-1.608 4.76-1.496 4.996-6.828 2.76-.982 3.21-3.636 4.162-6.66 2.108-2.886 3.474-3.33 8.326-3.33 4.28 1.772 4.14 3.667 3.33 7.493 2.666.66 3.766.24 4.164 3.33 1.408 2.346 1.04 6.16-.832 6.66 2.132 1.668 3.37 4.266 4.163 7.493-1.41 2.363-.646 6.81 0 8.327 2.913 1.466 4.416 2.81 8.326 4.163 1.983 1.68 6.2 3.44 9.99 4.163 4.482-.606 6.962-.668 9.992 1.666 2.084 2.993 2.236 6.77 4.163 8.326 2.176 1.843 6.82 2.66 7.494 4.996 2.778 2.03 3.694 4.28 7.493 4.994 1.47 2.228 4.634 6.896 6.828 8.326.94 2.694 1.36 7.413 2.498 10.823v11.666c-.168 4.303-.833 6.916-.833 11.666-.74 2.384-1.666 3.3-1.666 6.66-1.682 3.627-2.93 6.49-4.996 9.16-.94 4.234-2.473 6.222-4.163 9.99.062 4.37.832 6.304.832 10.823-1.81 2.69-3.888 4.647-7.494 6.66-2.724 3.188-4.368 4.427-4.996 9.16-1.666 2.704-1.442 2.497-4.994 2.497-4.2 0-7.814.376-11.666.832-3.378 0-4.64.366-6.66-1.666-3.99-1.804-7.346-1.91-11.667-.833-2.326-1.696-3.268-2.498-7.493-2.498-3.16.427-6.966.832-9.99.832-2.496-2.79-3.898-3.33-8.326-3.33-2.366 1.178-7.184.833-10.824.833-3.82-1.043-4.313-2.63-6.828-6.828-2.606-1.236-3.636-3.04-7.493-3.332-3.64 0-8.47.346-10.824-.832-2.723-.327-6.686-1.027-7.493-2.498a22.068 22.068 0 0 0-6.828-6.828c-3.698 0-6.864.366-7.493-1.666-2.732-2.167-4.89-6.664-8.326-7.493-3.062-2.43-6.136-3.916-6.66-8.326 0-3.943.78-4.874-3.33-4.996-2.766 2.813-4.01 3.33-9.16 3.33-3.388 0-6.93-.017-9.167-.83-3.682-2.09-6.03-3.014-9.16-3.332-2.684 1.646-6.007 3.647-9.99 4.163-3.406 1.967-6.437 2.38-6.66 6.83-3.146 2.667-4.99 4.077-9.16 6.827-2.316 2.21-4.626 2.69-6.827 6.66-.792 3.367-1.666 6.37-1.666 9.99.69 4.37.36 6.238-1.666 9.992-1.74 2.486-4.767 3.7-7.493 6.827-4.116.494-4.648.186-7.493-1.666-2.933-.977-6.266-1.78-9.99-2.498-4.497-.866-6.018-1.96-8.327-4.162l8.326 4.162c-4.496-.866-6.017-1.96-8.326-4.162-6.064-3.683-6.063-6.398-11.666-6.828-6.198.06-7.43.318-8.326 4.996 2.96.788.608 2.663-.834 3.33-2.078 1.86-6.41 3.367-8.326 4.162-1.328 1.328-1.072-1.1-3.33-1.666-3.448-1.842-4.89-3.226-8.326-4.163-1.683-2.97-3.684-6.274-6.828-8.326-1.734-2.818-3.382-3.838-6.828-6.66-1.17-1.764-4.16-1.83-6.827-3.33-1-3.002-3.168-8.67-2.497-11.666 1.68-1.686 2.632-7.243 4.996-8.326 3.367-2.626 4.636-.223 9.16 0 4.268 0-6.867-6.71-1.666-6.66 3.92-.666 4.387-2.696 6.827-4.996h9.99z" fill-rule="evenodd" transform="matrix(.2 0 0 .16 286.64 190.06)" stroke="#000" stroke-width="4.464" fill="#009200"/>
    <path d="M362.236 229.77c.176.143.937.6 1.666.6.796.146.969.443 1.166 1.166.436.261.71.333 1.498.333.872.176.866.443 1.499 1m-10.666 6.326c.362.063 1.63.166 2.498.166.666-.384.982-.648 1.498-.999.789 0 1.064.072 1.6.333.42.14 1.41.193 1.83.333 0 .222-.066.167.167.167m-.999-2.664c.013-.006.66-.39 1.166-.6.667-.396 1.189-.688 1.831-.832.424-.092 1.42-.09 1.666-.167m3.496-.999v.167c0-.466-.02-.218.333.666.176.816.39 1.606.666 2.164.491.766.812 1.11 1.499 1.499.688.463 1.032.944 1.666 1.166.44.393 1.021.717 1.666 1 .864 0 1.611.137 2.33.166h.6m.334-16.161v.167c0-.46.011-.221-.166.666-.262.63-.641 1.024-.833 1.498-.783.284-1.076.866-1.332 1.499-.276.446-.701 1.034-1 1.498-.617.642-.724.849-1.666 1.166m11.666-2.998c0 .049-.307.487-.6 1-.33.486-.416 1.371-.499 1.997 0 .724.004 1.612.166 1.998.604.626.632.963 1.499 1.333l-1.498-1.332c.603.624.632.962 1.499 1.332m11.489-.6v.167c0-.622.043-.202-.833.499-.66.6-1.114 1.083-1.666 1.499-.946.26-1.09.236-1.998.166h-1.498m8.326 10.326h-.166c.466 0 .218-.02-.666.333-.739.186-1.676.196-2.166 0-.693-.336-1.191-.611-1.666-1.166-.248-.186-.284-.26-.6-.333m-.666 6.328v-.167c0 .622.043.202-.833-.6-.374-.66-.76-.768-1.498-1.331-.647-.783-.732-1.097-1-1.999-.07-.664-.29-1.346 0-1.831m-8.991 2.996c.362 0 1.712-.032 2.331-.167.484-.328 1.019-.649 1.666-.832.363-.872.664-1.162.666-2.166m-14.82-1.83c-.13-.297-.709-1.487-.999-2.166-.013-.727-.167-1.267-.167-1.998m-21.314 9.491c.168.026.876.08 1.332 0 .727-.372 1.404-.441 2.166-.6.386-.232 1.017-.206 1.332-.499.696-.463.787-.929 1.166-1.666.033-.336.132-.498.166-.833m4.829.999c-.366 0-1.732.026-2.498-.167-.393-.264-.672-.672-.999-.999.222 0 .167.066.167-.166m6.328-3.496c.07-.021.897-.333 1.499-.333.368-.232.962-.447 1.498-.666.296-.16.601-.367.833-.6m-23.978 8.169h.167c-.46 0-.22.01.666-.167 1.036-.064 1.733-.422 2.498-.666a8.022 8.022 0 0 1 1.664-1.166c0-.286-.068-.266.167-.333m37.134-6.827h.167c-.466 0-.218-.02.666.333.703.27 1.339.366 1.998.6.698.146.826.333 1.666.333.838.366 1.02.479 1.666.999.493.233.844.333 1.666.333.436-.242 1.232-.622 1.666-.666.242-.182.269-.11.333-.333" stroke="#006800" stroke-width=".81" fill="none"/>
    <path d="M374.648 272.438v3.768c0 1.203-.111 2.266-.471 3.297 0 1.176-.016 2.31-.471 3.06-.08 1.124-.236 2.096-.236 3.297-.341 1.024-.301 2.41-.471 3.633-.148 1.101-.279 2.412-.471 3.297-.361.736-.96 2.07-1.413 2.69-.068 1.017-.307 1.617 0 2.366.328.984.236 2.17.236 3.296.307.922.236 2.001.236 3.061m4.237-26.846c.072.472.424 2.176.471 3.297v6.18c0 1.26.106 2.37.236 3.633-.017 1.388-.27 1.908-.942 3.061-.133 1.112-.339 2.186-.471 3.297-.328.986-.236 2.17-.236 3.297.281 1.264.741 1.49.942 2.69 0 .672.064 1.013.236 1.413m1.884-17.19c0 .431-.028 2.606.236 3.297 0 1.204.22 2.109.236 3.297-.143 1.066-.29 1.816-.942 2.364-.429.872-.663 1.647-.706 2.826.608.426 1.27 1.616 1.884 2.12.613 1.072.99 1.118 1.177 2.364.492.647-.347.831 0 1.178.382.61.137.293 0 .706" stroke="#000" stroke-width=".2pt" fill="none"/>
    <path fill-rule="evenodd" transform="matrix(.16 0 0 .16 369.68 198.64)" stroke="#000" stroke-width="3.126" fill="#ffd100" d="M93.248-106.67l16.982 26.696 30.16 1.046-14.17 26.642 14.17 26.642-30.16 1.046L93.248 0 77.262-26.6l-30.16-1.044 14.176-26.642-14.176-26.642 30.16-1.046z"/>
    <path fill-rule="evenodd" transform="matrix(.16 0 0 .16 349.7 198.64)" stroke="#000" stroke-width="3.126" fill="#ffd100" d="M93.248-106.67l16.982 26.696 30.16 1.046-14.17 26.642 14.17 26.642-30.16 1.046L93.248 0 77.262-26.6l-30.16-1.044 14.176-26.642-14.176-26.642 30.16-1.046z"/>
    <path fill-rule="evenodd" transform="matrix(.16 -.02 .02 .16 332.67 203.68)" stroke="#000" stroke-width="3.126" fill="#ffd100" d="M93.248-106.67l16.982 26.696 30.16 1.046-14.17 26.642 14.17 26.642-30.16 1.046L93.248 0 77.262-26.6l-30.16-1.044 14.176-26.642-14.176-26.642 30.16-1.046z"/>
    <path fill-rule="evenodd" transform="matrix(-.16 -.02 -.02 .16 418.3 203.19)" stroke="#000" stroke-width="3.126" fill="#ffd100" d="M93.248-106.67l16.982 26.696 30.16 1.046-14.17 26.642 14.17 26.642-30.16 1.046L93.248 0 77.262-26.6l-30.16-1.044 14.176-26.642-14.176-26.642 30.16-1.046z"/>
    <path fill-rule="evenodd" transform="matrix(-.16 -.06 -.06 .14 433.68 213.41)" stroke="#000" stroke-width="3.126" fill="#ffd100" d="M93.248-106.67l16.982 26.696 30.16 1.046-14.17 26.642 14.17 26.642-30.16 1.046L93.248 0 77.262-26.6l-30.16-1.044 14.176-26.642-14.176-26.642 30.16-1.046z"/>
    <path fill-rule="evenodd" transform="matrix(.16 -.06 .06 .14 316.86 212.43)" stroke="#000" stroke-width="3.126" fill="#ffd100" d="M93.248-106.67l16.982 26.696 30.16 1.046-14.17 26.642 14.17 26.642-30.16 1.046L93.248 0 77.262-26.6l-30.16-1.044 14.176-26.642-14.176-26.642 30.16-1.046z"/>
  </g>
</svg>
