<svg xmlns="http://www.w3.org/2000/svg" height="480" width="640">
  <defs>
    <clipPath id="a">
      <path fill-opacity=".67" d="M0 0h120v90H0z"/>
    </clipPath>
  </defs>
  <g fill-rule="evenodd" clip-path="url(#a)" transform="scale(6.33)" stroke-width="1pt">
    <path fill="#0d6eaf" d="M0 0h136v10H0z"/>
    <path fill="#fff" d="M0 10h136v10H0z"/>
    <path fill="#0d6eaf" d="M0 20h136v10H0z"/>
    <path fill="#fff" d="M0 30h136v10H0z"/>
    <path fill="#0d6eaf" d="M0 40h136v10H0z"/>
    <path fill="#fff" d="M0 60h136v10H0z"/>
    <path fill="#0d6eaf" d="M0 60h136v10H0z"/>
    <path fill="#fff" d="M0 70h136v10H0z"/>
    <path fill="#0d6eaf" d="M0 80h136v10H0zM0 0h60v60H0z"/>
    <g fill="#fff">
      <path d="M20 0h10v60H20z"/>
      <path d="M0 20h60v10H0z"/>
    </g>
  </g>
</svg>
