<svg xmlns="http://www.w3.org/2000/svg" height="480" width="640" version="1" xmlns:xlink="http://www.w3.org/1999/xlink">
  <defs>
    <linearGradient id="b">
      <stop stop-color="#d6dfff" offset="0"/>
      <stop stop-color="#fff" offset="1"/>
    </linearGradient>
    <linearGradient id="a">
      <stop stop-color="#474747" offset="0"/>
      <stop stop-color="#f60" offset="1"/>
    </linearGradient>
    <linearGradient id="c" y2="173.46" xlink:href="#a" gradientUnits="userSpaceOnUse" x2="110.94" gradientTransform="matrix(1.6 0 0 .66 40.61 .01)" y1="218.47" x1="109.34"/>
    <linearGradient id="d" y2="337.23" gradientUnits="userSpaceOnUse" x2="126.02" gradientTransform="matrix(1.23 0 0 .8 40.61 .01)" y1="316.38" x1="126.91">
      <stop stop-color="#b60000" offset="0"/>
      <stop stop-color="#ffc600" offset="1"/>
    </linearGradient>
    <linearGradient id="e" y2="147.36" xlink:href="#b" gradientUnits="userSpaceOnUse" x2="466.4" gradientTransform="matrix(.66 0 0 1.76 40.61 .01)" y1="149.38" x1="407.87"/>
    <linearGradient id="f" y2="102.99" xlink:href="#a" gradientUnits="userSpaceOnUse" x2="228.97" gradientTransform="matrix(.74 0 0 1.33 40.61 .01)" y1="102.99" x1="216.83"/>
    <linearGradient id="g" y2="1003.7" xlink:href="#b" gradientUnits="userSpaceOnUse" x2="78.221" gradientTransform="matrix(2.66 0 0 .38 40.61 .01)" y1="1040.4" x1="117.6"/>
    <linearGradient id="h" y2="226.38" xlink:href="#b" gradientUnits="userSpaceOnUse" x2="266.03" gradientTransform="matrix(.9 0 0 1.1 40.61 .01)" y1="246.98" x1="264.72"/>
  </defs>
  <path fill="#006" d="M0 0h640v480H0z"/>
  <g stroke-width="1pt">
    <path fill="#fff" d="M0 0v32.946l403.223 261.736h60.766v-32.946L60.766 0H0zm463.978 0v32.946L60.766 294.68H0v-32.944L403.223 0h60.766z"/>
    <path fill="#fff" d="M189.167 0v294.68h76.663V0h-76.663zM0 98.227v98.227h463.978V98.227H0z"/>
    <path fill="#c00" d="M0 117.872v68.937h463.978V117.87H0zM204.29 0v294.68h46.398V0H204.29zM0 294.68l161.326-98.226h33.836L33.836 294.68H0zM0 0l161.326 98.227H117.49L0 21.966V0zm268.816 98.227L420.142 0h33.836L302.662 98.227h-33.836zM463.978 294.68l-161.326-98.226h33.836l117.49 76.263v21.964z"/>
  </g>
  <path d="M463.76 349.947s-2.878 7.61-4.623 7.61c-1.646 0-7.61-3.29-7.61-3.29s-4.32 6.99-6.68 7.403c-2.263.41-8.227-1.03-8.227-1.03s-6.768 0-6.964-.82c-.206-.824.206-2.47.206-2.47s-8.227 6.682-10.078 6.17c-1.86-.41-8.02-8.226-8.02-8.226l-1.03 4.123-11.723-.413-10.283-6.684s-6.768 9.46-6.964 9.266c-.206-.206-10.077 2.262-10.077 2.262l-.617-1.86-6.682-3.908s6.14-7.2 6.14-7.406c0-.206-2.467-1.028-2.467-1.028l-3.7 3.086-7.61 4.936-7.61-3.496 3.292-6.168.41-4.626 6.966-9.06 73.008-70.96 36.99 66.427-6.347 19.948z" fill-rule="evenodd" stroke="#000" stroke-width="1.147" fill="#6a4c2d"/>
  <path d="M616.62 364.26l19.003-.682-8.09-3.996 72.41-2.73-10.232-3.897-9.063-12.28-37.62-2.826s-2.827-2.146-7.407-1.073c-.196-2.923-3.704-6.724-3.704-6.724l-23.097-1.764-14.426 9.842 9.746 24.948 12.378 1.17z" fill-rule="evenodd" stroke="#000" stroke-width="1.147" fill="#fff"/>
  <path d="M121.32 160.76l2.224-7.661s3.892-6.662 3.892-9.463c0-2.892 2.89-6.34 2.89-6.34s8.897-2.667 10.787 2.892c9.663-14.467 20.794-.668 20.794-.668l3.114-3.67 6.34-7.783s9.006 8.46 9.117 9.896 1.667.446 1.667.446l9.786-.778s4.644 3.636 3.67 10.664c3.448 2.034 6.66 14.01 6.66 14.01l-80.73-1.666z" fill-rule="evenodd" stroke="#000" stroke-width="1pt" fill="url(#c)" transform="matrix(.86 0 0 .86 337.27 11.7)"/>
  <path d="M616.606 218.72c1.46-.893 6.023-2.343 6.466-9.036-.667-6.692-6.367-7.473-9.692-7.26-3.236.223-6.136 3.01-6.136 3.01l-10.707-6.802s6.363-33.797 11.042-36.916c6.402-3.893 6.368-6.677 6.368-6.47s-2.008-3.122-2.008-3.122l-34.912-4.127L442 162.912s-2.664 3.904-2.23 6.466.446 3.236 6.368 7.808c6.64 6.03 11.042 33.908 11.042 33.908s-9.268 4.673-9.816 4.016c-.668-.667-3.346-1.116-4.796-.892-1.46.223-6.247 2.677-6.247 9.034 0 6.368 4.796 10.04 4.796 10.04s31.664-3.68 36.26 6.018c4.672-10.484 34.676-6.803 38.146-8.688z" fill-rule="evenodd" stroke="#000" stroke-width=".86pt" fill="#666263"/>
  <path stroke-linejoin="round" d="M649.61 183.688s.36-3.67 2.97-6.416c2.62-1.747 20.088-2.62 24.28 0s6.766 16.647 6.766 16.647 2.62 4.642 2.796 7.86.624 6.69.624 6.69 13.976 18.168 14.16 34.688c1.672 11.18 1.222 41.06-3.146 62.406-.176 14.148-6.116 23.407-6.116 23.407s1.398 2.446 1.223 6.066c-.176 2.62-1.673 6.066-1.673 6.066l20.438 10.132-7.61-2.796s7.686 6.46 7.61 6.287c-.174-.176-8.66-4.018-8.66-4.018l6.067 6.066c-.176-.176-12.402-6.69-12.402-6.69s6.763 6.416 6.414 6.24c-.36-.174-9.268-4.367-9.268-4.367s6.69 6.94 6.416 6.69-8.036-3.493-8.036-3.493l.36 2.97s-6.29-.36-6.29-6.067c-3.143-1.747-6.24-4.192-6.24-4.192l-14.498-2.446-16.42-49.086 3.843-82.974 1.047-4.193-1.748-11.18z" stroke-opacity=".979" fill-rule="evenodd" stroke="#000" stroke-width="1.076"/>
  <path d="M638.636 448.762s-8.41-17.698-12.604-17.946c-3.784-7.212 13.16-66.187 46.907-69.66 18.01 1.486 1.48 20.763-10.36 14.83 1.478 6.19 7.4 12.606 7.4 12.606s-23.438 10.136-30.344 60.062z" fill-rule="evenodd" stroke="#000" stroke-width="1.139" fill="#fb0"/>
  <path d="M426.773 461.332s6.96-20.138 11.187-20.386c4.226-.26-11.187-67.126-44.76-67.623-18.148 1.492-1.49 20.883 10.442 14.917-1.49 6.22-7.468 12.68-7.468 12.68s23.618 10.192 30.68 60.412z" fill-rule="evenodd" stroke="#000" stroke-width=".86pt" fill="#fb0"/>
  <path d="M466.66 326.64c-.08-.162-8.33 2.688-2.99 11.666.403-3.478 4.123-6.68 4.123-6.68s-6.66 6.712.324 12.373c.727-6.337 4.124-7.036 4.124-7.036s-4.204 12.373.082 14.88c.486-4.934 3.64-7.117 3.64-7.117s-3.802 11.08-.406 13.687c.404-4.206 3.236-6.066 3.236-6.066s-1.7 11.486 2.76 12.293c.08-4.043 3.316-8.006 3.316-8.006s-1.466 9.38 6.6 9.786c.08-3.66 1.376-7.603 1.376-7.603s3.164 9.948 7.763 8.33c-.08-2.91.08-8.41 0-8.41s2.912 9.462 8.41 7.683c-.807-2.67.326-6.824.326-6.824s2.912 6.904 8.17 3.963c.888-1.78-.246-6.267-.246-6.267s7.684 7.926 10.03 3.164c2.346-4.772-6.148-6.39-6.148-6.39h6.743s-1.86-4.86-9.626-6.903c2.67-1.213 6.42-.324 6.42-.324s-1.618-6.066-9.644-6.712c3.074-1.062 6.47-.324 6.47-.324s-1.06-6.74-9.786-7.36c1.376-1.636 6.096-1.06 6.096-1.06s-3.477-6.42-7.44-6.096-39.79-3.64-39.71-3.668z" fill-rule="evenodd" stroke="#000" stroke-width=".86pt" fill="#00713d"/>
  <path d="M491.898 364.737s3.164 1.637 3.073 2.912m-1.207-6.416s4.044 2.83 3.963 4.933m-.411-6.396s3.236 2.022 3.397 6.177m2.021-3.879s1.618 3.48 1.06 4.126m2.192-2.267c.243 2.76-.243 2.992-.243 2.992m-39.636-20.38s3.8 2.426 3.478 6.822m-3.719-2.907s1.78 1.697 1.376 2.83m3.321-6.66s2.607 3.478 1.698 6.904m2.686-3.642s1.132 2.184.08 3.397m1.941-2.348s1.376 2.184.16 2.91m-1.691 4.288s3.668.81 4.044 3.478m-1.946-6.902s3.72.242 4.126 4.206m.811-6.682c.08 0 2.607 4.286 2.103 6.66m2.671-6.266s.97 4.126.242 6.418m2.828-3.801c0 .08.08 4.77.08 4.77m-4.767-11.237s2.346.89 2.183 3.164m-.007-6.261s2.992 1.7 2.668 4.934m.816-6.301s2.688 3.072 1.617 6.47m2.907-6.748s-.972 3.8-.668 6.338m3.318-2.749s-1.697 1.294-.808 2.912m-13.906 11.888s.666 2.91 0 3.396m-3.724-6.09s1.86 3.234 1.212 4.862m-6.177-6.016s2.103 2.426 2.022 4.367m-6.266-3.886s1.94 1.86 1.78 2.91m-3.476-.08s1.86 1.94 1.78 2.346" stroke-width="1.076" stroke="#3ec26d" stroke-linecap="round" fill="none"/>
  <path d="M430.89 222.21l26.748-.477s17.674 0 19.686 6.732c3.343-7.642 18.628-7.164 18.628-7.164 9.236-.317 18.47-.637 27.706-.966l.48 66.873c-6.416 26.963-24.203 44.263-44.902 62.066-24.68-7.962-40.283-28.82-46.378-62.643l-2.866-63.63z" fill-rule="evenodd" stroke="#000" stroke-width=".86pt" fill="#fff"/>
  <path d="M440.418 221.96l38.964 103.84 36.2-106.098c-10.918.704-34.347-1.72-37.268 8.244-4.603-8.917-29.16-6.322-36.906-6.982z" fill-rule="evenodd" stroke="#000" stroke-width=".86pt" fill="#006b00"/>
  <path d="M466.94 278.18c1.6.784 1.468-28.18 3.426-29.08.663-2.398.846-3.448 1.647-6.996-1.687-2.998-9.28-2.848-12.09-.3 1.264 4.048 1.826 6.397 1.826 6.397 3.796 6.146 3.042 30.633 6.29 29.98z" fill-rule="evenodd" stroke="#006b00" stroke-linecap="round" stroke-width=".693" fill="#ffc900"/>
  <path stroke-linejoin="round" d="M466.6 64.31s2.763-3.127 2.878-3.877c.126-.76 12.612-1.26 19.893-16.014 4.13-7.268 0-3.004 0-3.004l-.26-3.603s6.13-4.88 3.266-7.607c-1.877-2.627-1.262 3.378-4.266 3.263-3.002-.126-1.376-6.607-1.376-6.607s-.26-.76-1.126-1.126c-1.26.126-.876 2.377-2.002 2.627-1.126.26-2.126-6.266-2.126-6.266s-1.877-2.603-3.604 6.38c.876 8.382 6.266 6.766 6.266 12.26 0 6.606-4.766 9.76-6.13 9.884-1.377.126-.877-4.63-.877-4.63s-.76-2.26-1.26-2.26 2.762-.6 2.262-6.767c-1.127-7.607-2.002 1.76-4.004 1.376s-.6-6.88.26-7.632-.876-3.877-6.266 4.13c-.376 3.88-.876-1-1.76-.76-1.603 3.127-1.263 6.38.874 8.267 3.128 2.877 6.13 6.766 6.006 7.266-.126 1.602-1.76 4.88-4.004 4.88s.126-4.13 0-6.606c-.126-1.376-3.878-6.38-3.878-6.38s-2.628-4.266-2.377-4.38c.26-.126-.26-.76-1.602 3.628s-2.763-2.877-2.763-2.877-1.76 6.38 2.002 8.63c-2.877-.374-3.128.762-3.128.762 0 1.602 3.88 2.127 4.38 4.764s-4.004 4.13-4.004 4.13 1.877 2.627 7.13-2.603c.127 3.263-2 6.606-2 6.606 1.76.792 3.127.71 3.377 2.763z" fill-rule="evenodd" stroke="#000" stroke-width="1.076" fill="#cdad66"/>
  <path stroke-linejoin="round" d="M439.336 64.31s-2.338-3.47-2.444-4.164c-.106-.683-11.602.864-16.896-13.036-3.606-6.603 0-2.732 0-2.732l.213-3.187s-3.732-4.666-2.138-6.966c1.694-2.39.938 3.073 2.988 3.086 2.66-.114 1.168-6.92 1.168-6.92s.212-.684.967-1.026c1.062.114 1.494 3.64 2.462 3.767.966.228 2.93-4.03 3.667-4.907.876-.126.842-3.628 2.224 3.646-.744 7.627-7.064 6.147-7.064 11.166 0 6.01 4.038 8.88 6.206 8.994 1.17.114.744-4.212.744-4.212s.637-2.06 1.062-2.06c.426 0-3.713.796-3.29-4.896.968-6.33 3.078.343 4.778 0 1.7-.34-.2-6.636.288-6.443.113-.81 2.62-4.28 3.688 3.38.32 3.63 2.244-3.037 2.988-2.81 1.276 2.847-.664 6.648-2.37 9.266-2.666 2.62-3.866 6.488-3.76 6.864.106 1.366.737 3.063 2.66 3.063 1.913 0 .644-2.38.76-3.633.107-1.262 3.296-6.306 3.296-6.306.626-1 .106-2.87.77-3.736 1.037.01 1.462-1.434 2.626 2.66 1.062 3.986 2.337-2.617 2.337-2.617s1.488 4.896-1.7 7.866c2.446-.34 2.666.683 2.666.683 0 1.367-1.166 1.937-1.692 4.327-.426 2.39 1.273 3.767 1.273 3.767s-1.694 2.39-6.067-2.277c-.107 2.96 1.7 6.01 1.7 6.01-1.487.72-2.666.646-2.87 2.604z" fill-rule="evenodd" stroke="#000" stroke-width=".946" fill="#cdad66"/>
  <path d="M608.083 237.46c-2.33-2.116-2.607-.267-3.764-.74-.662-.236-1.003-.762-1.49-1.24-.426-.437-.93-.617-1.492-.864l-.636 1.88c-.212.626.69 1.663.672 2.603-.16 1.396-.728 2.662-2.48 3.03.6-.99.782-1.038.63-2.246-.076-.604-1.766-1.676-1.667-2.247.31-.92.838-1.982.448-2.9-.72.492-1.66.234-2.38.634-.604.27-.646 1.396-1.486 1.863-.863.403-2.764.203-4.36-.698.97-.736 1.77-.24 2.74-.976.486-.368.464-1.944.96-2.312s1.646-.76 2.13-1.128c-.436-.497-.412-1.284-.848-1.78-.437-.497-2.37-.39-2.808-.887-.872-.993-.706-2.3-1.68-3.296 2.26.81 1.932 1.91 2.498 1.828 1.07-.613 2.138-.616 2.7-.38.66.237 1.63 1.633 2.19 1.87.212-.627.62-1.422.733-2.048.212-.627-.963-1.712-.74-2.34.423-1.26 1.476-2.368 1.9-3.61.162 1.207.363 2.223.606 3.43.076.606 1.263.918 1.34 1.623.076.606-.62 2.007-.646 2.61.66-.13 1.687-.04 2.236-.17.648-.13 1.08-1.637 1.727-1.766 1.297-.268 2.23-.18 3.662.07-.97.904-1.723.843-2.33 1.676-.486.367.188 1.68-1.216 2.432-.627.306-1.912-.062-2.397.306l1.308 1.49s2.396.728 2.832 1.226c.872.996 1.334 2.18 1.096 3.247zm-69.916 1.023c2.33-2.116 2.608-.268 3.764-.74.662-.237 1.003-.763 1.49-1.24.426-.437.93-.618 1.492-.864l.636 1.878s-.69 1.663-.672 2.603c.168 1.4.728 2.664 2.48 3.034-.6-.99-.782-1.04-.63-2.247.076-.604 1.766-1.676 1.667-2.248-.31-.918-.838-1.98-.448-2.9.72.492 1.66.236 2.38.633.604.27.646 1.394 1.486 1.862.863.404 2.764.204 4.36-.696-.97-.738-1.77-.24-2.74-.978-.486-.368-.463-1.943-.948-2.31-.486-.37-1.648-.76-2.133-1.13.436-.496.412-1.283.848-1.78.437-.496 2.37-.39 2.808-.886.872-.994.706-2.302 1.678-3.296-2.267.812-1.93 1.912-2.497 1.828-1.07-.612-2.137-.614-2.7-.378-.66.236-1.627 1.632-2.19 1.868-.21-.626-.62-1.422-.732-2.048-.212-.626.963-1.71.74-2.337-.423-1.263-1.476-2.36-1.9-3.613-.162 1.208-.363 2.223-.606 3.43-.076.606-1.264.92-1.34 1.624-.076.604.62 2.006.646 2.61-.66-.13-1.687-.042-2.236-.17-.648-.13-1.08-1.637-1.728-1.767-1.297-.26-2.23-.18-3.662.07.97.904 1.724.842 2.332 1.676.486.368-.19 1.68 1.213 2.433.626.306 1.913-.06 2.398.307l-1.31 1.49c-.436.496-2.394.728-2.83 1.226-.873.993-1.336 2.18-1.096 3.246z" fill-rule="evenodd" fill="#ffc900"/>
  <path stroke-linejoin="round" d="M606.993 244.14c-2.11 1.66-16.747 6.096-16.887 16.938-.14 11.842 2.39 14.64-.14 14.84-4.922 0-6.626-13.19-6.484-19.036.14-6.847.28-4.947.28-4.947s3.374.9 3.094 3.748c-.28 2.847 3.374-7.046 2.11-9.744 2.248 2.248 6.2 1.348 6.2 1.198 0-.16-1.686-1.948-2.39-3.297-.702-1.36 2.632.76 2.632.76s.14-2.248-2.672-2.1c-3.666 0 .663-1.198.663-1.198s2.108 1.948 3.614-.16c-1.647-1.648-3.796-2.648-3.796-2.648s-1.97-3.747-4.64-4.496c-3.093-.76-2.672 1.348-6.187 1.06-.7 1.347-.7 1.498.706 1.947-2.39 1.66-1.126 4.947-1.126 4.947s3.796-1.66 3.666 1.06c-.14 2.697-2.26 2.248-3.666.6-1.266-.76-1.687.748-1.687.748l1.968 2.098s-3.796-.16-4.78 2.4c2.11-.16 3.236.46 3.236.46s-4.36 1.948-4.782 2.997c-.42 1.06-.66-1.2-.702-1.2-.14 0-4.217-1.498-4.217-1.498l-1.408 6.482s2.814 2.81 4.36 1.91c1.648-.9 4.36-3.697 6.046-2.848-4.92 3.748-9.84 9.144-12.612 9.894-.703-.6-3.093-2.998-4.077-1.8-.983 1.2-.28 2.7.986 2.66 1.266-.16-4.077 1.198-2.962 3.446 1.126 2.26.984 2.1 1.968 1.6.986-.6-.842-.76 2.813-1.8 3.666-1.048 3.614-2.098 3.614-2.098s-.702 1.66-2.67 2.1c-1.968.46-3.616.46-3.093 1.048.42.6 1.264 1.66.983 2.26-.28.698 4.078-3.16 6.203-.16 2.963-.16 4.92-3.748 3.614-6.847.14 2.248 1.647 2.997.703 4.047s6.608-3.448 2.962-6.146c.986 2.26 1.124 4.047 1.124 4.047s1.688-.16 2.11-.76c.42-.6-.844 1.66-.28 2.1.66.46 3.232 2.998 2.107 4.797-.7-1.06-.842-2.7-1.686-2.66-.846.16-4.36 2.7-6.468 2.86s2.63 7.794 2.63 7.794-3.234-.46-3.664-.16c-.422.3-2.63-2.698-2.963-.9-.704 2.26.702 1.36.702 1.36s-1.827-.9-2.81.16c-.986 1.06-1.97 2.098-1.267 2.647.703.46 3.797.46 4.218.3s-3.616.3-3.796.76c-.282.46-.843 2.1 0 2.7s2.963-.3 3.093-.76c.14-.46.282 1.66.282 1.66s3.666.298 3.666-3.46.282 2.7.282 2.7 3.664.698 3.794-3.16.422 2.66.422 2.66 2.39-.76 2.39-1.36c0-.6-.14 7.496-1.827 9.744-2.673-1.8-4.36 1.198-4.36 1.198s.14 4.348-.14 6.397c-.28 1.048 1.827-.6 1.968-1.06.14-.46 2.67-1.66 2.812-1.96l.843-1.798s-.663 2.098-1.646 2.398-1.97 1.36-1.648 2.26c.422.898 1.97 1.498 2.63 2.397.663.9 2.63-6.246 2.63-6.246l.142 1.36s2.63-.6 2.812-1.8c.28-1.198-2.67-2.247-.28-4.196 2.39-1.948 0 1.8 0 1.8s.842 2.847 1.406 2.847 1.966-6.396.66-6.746c-1.406-1.348 2.11 1.66 2.11 1.66s1.97-6.646-.14-6.296-3.094-1.06-3.094-1.06 1.126-1.6.663-1.66 2.96 3.3 3.613 2.4 1.407-3.6-2.67-6.097c-4.078-1.6-.14-6.697-.14-6.697s2.63 2.998 4.368 1.36c1.828-1.66-.14-1.66-.14-1.66s6.202-3.296 6.342-4.946c-.984-.16-2.67.16-2.67.16s2.962-1.948 2.26-6.096c-1.126 1.648-2.673 1.66-2.673 1.66s2.63-2.66 2.108-4.948c-1.646 1.2-1.406 2.098-2.39 1.8s-2.67-9.744 1.266-10.346c3.937-.697 1.828 4.66 1.97 4.66.14 0 6.904-2.4 0-6.297 1.406-.46 4.367 2.26 4.367 2.26s-1.266-6.698-7.692-2.66c1.647-1.648 2.63-2.698 3.796-2.398 1.266.3 6.766-.16 6.766-1.6-1.126-.9-3.616.46-4.782 0-1.266-.46 8.998-1.2 8.166-6.294z" fill-rule="evenodd" stroke="#006b00" stroke-linecap="round" stroke-width=".693" fill="#ffc900"/>
  <path d="M481.3 118.64s12.247-6.43 18.37 1.63m4.9 12.26c-.306 0-4.286 3.98-6.206 3.98m13.476 8.88s11.328.918 18.676-10.41" transform="matrix(.46 0 0 .6 240.33 190.12)" stroke="#006b00" stroke-linecap="round" stroke-width="1.26" fill="none"/>
  <path d="M626.08 141.81s.92 6.123 2.766 6.123-3.062 1.63-4.9.306c2.144 2.766 3.37 7.664 0 9.49" transform="matrix(.46 0 0 .6 240.33 190.12)" stroke="#006b00" stroke-linecap="round" stroke-width="1.26" fill="none"/>
  <path d="M619.26 218.97s-3.98 4.286-8.88 4.692" fill-rule="evenodd" transform="matrix(.46 0 0 .6 240.33 190.12)" stroke="#006b00" stroke-linecap="round" stroke-width="1.26" fill="#e80000"/>
  <path d="M623.86 199.37s-2.46-12.247-.92-16.31c.92-3.978 4.9-6.61 7.962-10.716m-8.272 17.146s-3.062 7.348-16.633 4.9m20.213-23.27s.92 9.797-11.328 6.123M611.3 128.04s-4.9 4.287-3.062 10.104" transform="matrix(.46 0 0 .6 240.33 190.12)" stroke="#006b00" stroke-linecap="round" stroke-width="1.26" fill="none"/>
  <path d="M483.732 247.696s2.966-1.2 3.617-1.8c.662-.6 1.647-1.8 1.828-2.7.282-.9-1.97-2.26-.844-4.2.704-.9 1.688-1.06 3.377 0 1.69 1.06-1.647-3.3-3.236-3.46s-2.814 1.2-3.236.9c-.423-.3.14 1.2-.664 1.2s1.407 1.2 1.267 1.96c-.14.76 2.26 3.3 2.11 3.9-.14.6-3.617 4.06-4.22 4.2z" fill-rule="evenodd" fill="#006b00"/>
  <path stroke-linejoin="round" d="M634.27 97.112c2.794-.636 3.243.07 2.766 2.46-1.31-.66-1.79-1.218-2.766-2.46z" fill-rule="evenodd" transform="matrix(.46 0 0 .6 240.33 190.12)" stroke="#ffc900" stroke-linecap="round" stroke-width="1.26" fill="#ffc900"/>
  <path stroke-linejoin="round" d="M614.71 233.62s-1.033 6.41 1.49 6.946c-.126-2.48.637-4.176 1.167-4.837-.638-.26-2.622-2.068-2.647-2.11zm-6.68-7.89c-2.316-.33-6.23 1.69-6.106 3.91 1.88-1.62 3.626.136 4.94-1.618.406-.463.29-1.812.166-2.392zm-.02-4.68s-3.66-.68-4.167 1.948c2.62-.32 3.274-.69 4.11-.06.24-.64.007-1.762.047-1.888z" fill-rule="evenodd" transform="matrix(.46 0 0 .6 240.33 190.12)" stroke="#006b00" stroke-width="1.26" fill="#e80000"/>
  <path stroke-linejoin="round" d="M493.64 184.94s2.19.828 2.81 3.06c1.737-1.076 2.666-6.83-2.81-3.06zm-6.42 6.46c.083-.04 4.69-2.77 6.046-.166-.962.96-1.366 1.67-2.11 1.778-.678 0-1.736-1.778-2.936-1.613zm-.46 8.86c.082-.042 2.894-2.622 3.97-.868 1.074 1.663-.87 1.67-.87 1.67s-.992-.464-3.1-.702zm-3.97-49.28c-.04 0-3.697-1.364-6.086 1.116 2.367.29 3.184 1.117 4.268 1.944-.29-1.034-.786-2.606.827-3.06zm-6.9 18.66s.166-4.176 2.16-6.87c1.116.62 1.446 1.61 2.19 2.862-1.487.33-3.472.413-4.34 3.018zm9.6-2.98s-3.928 1.82-2.646 3.804c1.282-1.364 2.688-.96 2.688-.992s0-2.77-.042-2.812z" fill-rule="evenodd" transform="matrix(.46 0 0 .6 240.33 190.12)" stroke="#006b00" stroke-width="1pt" fill="#e80000"/>
  <path stroke-linejoin="round" d="M480.64 126.6c-1.406 1.67 1.736 6.003 6.044 4.607.827-3.72-4.217-6.664-6.044-4.607z" fill-rule="evenodd" transform="matrix(.46 0 0 .6 240.33 190.12)" stroke="#006b00" stroke-width="1pt" fill="#ffc900"/>
  <path d="M461.183 248.13c-.317.867.943 2.06 1.672 1.72.297-.877-1.343-2.402-1.672-1.72z" fill="none"/>
  <path stroke-linejoin="round" d="M484.28 122.76s.62 2.936 3.473 2.16c-.466-2.274-2.44-3.97-2.44-3.97-.123.663.414 1.696-1.033 1.82zm1.9 8.62s1.67 1.696 4.672-1.778c-1.406.413-3.886-.827-3.886-.827s0 2.398-.786 2.606z" fill-rule="evenodd" transform="matrix(.46 0 0 .6 240.33 190.12)" stroke="#006b00" stroke-width="1pt" fill="#e80000"/>
  <path stroke-linejoin="round" d="M480.46 118.86c-1.406 1.67.683 3.762 3.89 3.266.828-3.72-3.063-4.423-3.89-3.266z" fill-rule="evenodd" transform="matrix(.46 0 0 .6 240.33 190.12)" stroke="#006b00" stroke-width="1pt" fill="#ffc900"/>
  <path d="M144.62 266.62s7.037-2.01 10.77 1.006 3.736.287 3.736.287 6.467 2.01 7.037 1.68-1.148.144 1.006-1.16c2.164-1.29-4.31.29-4.883-2.44-1.006-1.724.143-3.878-2.164-3.16-1.68-2.01 1.006-3.446.43-6.6-1.678 1.148-2.44-.432-3.733 2.44-3.016-.674-.43-4.74-3.734-6.17 0 3.016-2.442 3.16-2.686 4.883-1.436 1.006-7.766 4.74-6.888 7.326z" fill-rule="evenodd" fill="url(#d)" transform="matrix(.86 0 0 .86 337.27 11.7)"/>
  <path d="M391.987 437.9c3.926-.96 26.203 4.696 33.406 13.49-1.74-16.662-6.08-27.66-6.08-27.66s-12.68-3.618-14.42-1.877c-2.662 2.688-10.22 10.743-12.906 16.046zm-6.487-72.344c-1.49.248-2.983 1.243-4.474 3.73-1.74 4.226-2.984 14.916-6.47 17.402-2.486 2.486-4.724 2.734-4.724 4.972 0 2.237.26 7.468 6.962 9.447 6.712.26 17.403-10.69 17.403-10.69s6.47-6.967 7.706-12.43c-12.927 4.474-22.126-7.46-17.402-12.43z" fill-rule="evenodd" stroke="#000" stroke-width=".86pt" fill="#c01600"/>
  <path d="M672.47 436.406c-3.896-.943-26.417 4.67-33.666 13.413 1.728-16.67 6.034-27.6 6.034-27.6 1.602-.41 12.444-3.696 14.172-1.866 2.633 2.673 10.686 10.68 13.36 16.962zm6.03-71.922c1.48.247 2.004 2.192 3.212 4.663 1.726 4.2 3.606 10.322 6.974 12.793 2.466 2.472 4.687 6.133 4.687 8.368 0 2.223-.62 6.23-7.18 7.206-6.662.247-16.314-8.306-16.314-8.306s-6.428-6.934-7.66-12.36c12.83 4.46 21.138-7.006 17.27-12.367z" fill-rule="evenodd" stroke="#000" stroke-width="1.139" fill="#c01600"/>
  <path d="M378.043 424.233s13.424 9.2 13.674 13.426c36.06-63.462 128.036-70.11 180.496-3.73 6.96-9.198 14.17-12.18 14.17-12.18-66.193-72.103-166.084-63.16-208.342 2.486z" fill-rule="evenodd" stroke="#000" stroke-width=".86pt" fill="#fb0"/>
  <g stroke="#000" fill-rule="evenodd" fill="#1e6aa6">
    <path d="M614.93 219.86l6.268-.124-9.39 11.893 11.27 13.146-22.162 27.92 20.91 26.166c-2.296 6.636-4.968 10.77-8.616 16.4l-12.018-13.27 21.786-27.17-17.904-20.282 10.767-32.677zm-76.12 2.376l-6.634.126 10.616 11.394-11.143 13.898 23.16 26.166-19.166 26.666c2.296 6.634 6.693 11.894 9.14 16.626l11.393-14.4-23.412-26.04 17.162-21.786-12.02-30.66z" stroke-width="1.147"/>
    <path d="M466.86 289.844l-8.263 11.018 29.648 34.18c6.217-2.63 9.307-6.634 13.772-9.266l-16.4-17.78 6.26-18.404 9.016 10.392-28.17 36.933c-4.716-2.003-9.933-6.133-14.66-9.016l14.9-18.906-7.01-18.164zm-9.14-17.162l6.386 6.76-3.606-9.14-1.88 2.38z" stroke-width="1.147"/>
    <path d="M496.274 278.673c.118-.126 4.346-6.76 4.346-6.76l-1.646-2.263-2.7 8.013z" stroke-width="1.111"/>
  </g>
  <text font-weight="bold" transform="matrix(.66 -.66 .66 .66 337.27 11.7)" font-size="14" y="362.397" x="-328.344" font-family="Timmons">
    <tspan y="362.397" x="-328.344">L</tspan>
  </text>
  <text font-weight="bold" transform="matrix(.6 -.6 .6 .6 337.27 11.7)" font-size="14" y="384.266" x="-292.336" font-family="Timmons">
    <tspan y="384.266" x="-292.336">E</tspan>
  </text>
  <text font-weight="bold" transform="matrix(.66 -.47 .6 .66 337.27 11.7)" font-size="14" y="461.681" x="-239.78" font-family="Timmons">
    <tspan y="461.681" x="-239.78">O</tspan>
  </text>
  <text font-weight="bold" transform="matrix(.7 -.48 .48 .7 337.27 11.7)" font-size="14" y="429.968" x="-188.626" font-family="Timmons">
    <tspan y="429.968" x="-188.626">T</tspan>
  </text>
  <text font-weight="bold" transform="matrix(.78 -.37 .37 .78 337.27 11.7)" font-size="14" y="461.479" x="-116.426" font-family="Timmons">
    <tspan y="461.479" x="-116.426">E</tspan>
  </text>
  <text font-weight="bold" transform="matrix(.8 -.36 .36 .8 337.27 11.7)" font-size="14" y="463.046" x="-94.111" font-family="Timmons">
    <tspan y="463.046" x="-94.111">R</tspan>
  </text>
  <text font-weight="bold" transform="matrix(.8 -.32 .32 .8 337.27 11.7)" font-size="14" y="464.982" x="-68.371" font-family="Timmons">
    <tspan y="464.982" x="-68.371">R</tspan>
  </text>
  <text font-weight="bold" transform="matrix(.86 -.07 .07 .86 337.27 11.7)" font-size="14" y="446.666" x="112.016" font-family="Timmons">
    <tspan y="446.666" x="112.016">R</tspan>
  </text>
  <text font-weight="bold" transform="matrix(.86 0 0 .86 337.27 11.7)" font-size="14" y="430.793" x="180.226" font-family="Timmons">
    <tspan y="430.793" x="180.226">R</tspan>
  </text>
  <text font-weight="bold" transform="matrix(.76 .43 -.43 .76 337.27 11.7)" font-size="14" y="276.217" x="414.769" font-family="Timmons">
    <tspan y="276.217" x="414.769">R</tspan>
  </text>
  <text font-weight="bold" transform="matrix(.66 .66 -.66 .66 337.27 11.7)" font-size="14" y="193.06" x="483.878" font-family="Timmons">
    <tspan y="193.06" x="483.878">E</tspan>
  </text>
  <text font-weight="bold" transform="matrix(.83 .16 -.13 .82 337.27 11.7)" font-size="14" y="414.028" x="309.116" font-family="Timmons">
    <tspan y="414.028" x="309.116">O</tspan>
  </text>
  <text font-weight="bold" transform="matrix(.78 -.1 .12 .84 337.27 11.7)" font-size="14" y="469.272" x="106.068" font-family="Timmons">
    <tspan y="469.272" x="106.068">O</tspan>
  </text>
  <text font-weight="bold" transform="matrix(.8 -.3 .3 .8 337.27 11.7)" font-size="14" y="466.836" x="-46.708" font-family="Timmons">
    <tspan y="466.836" x="-46.708">A</tspan>
  </text>
  <text font-weight="bold" transform="matrix(.6 .6 -.6 .6 337.27 11.7)" font-size="14" y="144.724" x="618.36" font-family="Timmons">
    <tspan y="144.724" x="618.36">A</tspan>
  </text>
  <text font-weight="bold" transform="matrix(.84 .17 -.17 .84 337.27 11.7)" font-size="14" y="388.298" x="271.188" font-family="Timmons">
    <tspan y="388.298" x="271.188">A</tspan>
  </text>
  <text font-weight="bold" transform="matrix(.86 -.16 .16 .86 337.27 11.7)" font-size="14" y="466.168" x="40.322" font-family="Timmons">
    <tspan y="466.168" x="40.322">M</tspan>
  </text>
  <text font-weight="bold" transform="matrix(.86 -.1 .1 .86 337.27 11.7)" font-size="14" y="448.079" x="94.429" font-family="Timmons">
    <tspan y="448.079" x="94.429">P</tspan>
  </text>
  <text font-weight="bold" transform="matrix(.86 0 0 .86 337.27 11.7)" font-size="14" y="437.607" x="166.088" font-family="Timmons">
    <tspan y="437.607" x="166.088">P</tspan>
  </text>
  <text font-weight="bold" transform="matrix(.76 .42 -.42 .76 337.27 11.7)" font-size="14" y="276.666" x="406.134" font-family="Timmons">
    <tspan y="276.666" x="406.134">P</tspan>
  </text>
  <text font-weight="bold" transform="matrix(.86 .1 -.1 .86 337.27 11.7)" font-size="14" y="409.793" x="232.096" font-family="Timmons">
    <tspan y="409.793" x="232.096">I</tspan>
  </text>
  <text font-weight="bold" transform="matrix(.6 .63 -.63 .6 337.27 11.7)" font-size="14" y="132.089" x="630.392" font-family="Timmons">
    <tspan y="132.089" x="630.392">T</tspan>
  </text>
  <text font-weight="bold" transform="matrix(.7 .62 -.62 .7 337.27 11.7)" font-size="14" y="218.619" x="464.168" font-family="Timmons">
    <tspan y="218.619" x="464.168">T</tspan>
  </text>
  <text font-weight="bold" transform="matrix(.83 .24 -.24 .83 337.27 11.7)" font-size="14" y="361.961" x="313.726" font-family="Timmons">
    <tspan y="361.961" x="313.726">M</tspan>
  </text>
  <text font-weight="bold" transform="matrix(.68 .64 -.64 .68 337.27 11.7)" font-size="14" y="123.248" x="613.704" font-family="Timmons">
    <tspan y="123.248" x="613.704">G</tspan>
  </text>
  <path d="M667.378 184.608s6.188-4.447 8.894-4.67m-8.146 3.962c.123-.124 31.003-4.447 31.99-6.436m-31.87 6.686c.124-.126 34.686-2.966 34.686-2.966m-34.706 3.086s36.686-1.73 38.908.123m-39.037-.243s36.944.246 36.662 1.11m-36.433-1.11l34.684 2.84m-34.964-2.692c.123 0 36.203 3.088 38.66 7.634m1.846 6.296c-.123-.123-11.98-14.206-40.638-13.968m.132.249s19.886 1.368 26.186 8.276m-26.816-8.624s12.846-2.47 26.31 13.71" stroke-width=".86pt" stroke="#fff700" stroke-linecap="round" fill="none"/>
  <path d="M247.4 217.74s20.718.813 20.718 2.844-16.437 6.89-16.64 14.422c-.203 8.63 11.78 9.14 12.693 19.906.814 10.767-9.342 12.39-11.374 16.236-2.03 1.422-6.906 16.666-6.296 26.693.61 8.938 3.26 39.203 7.92 46.296 3.668 2.844 9.142 11.984 16.032 9.14 6.89-2.843 1.828-13.202 1.22-16.046s2.436-7.616 2.436-11.78c0-4.267-2.234-7.72-2.03-8.736.202-1.016 16.462 3.86 16.436 19.906-1.016 16.046-7.616 11.17-7.616 11.17s2.03 19.703-3.048 22.343c-9.14 4.876-16.843-1.016-16.843-1.016l.868 4.007-6.963-3.6s-8.937-12.798-10.968-18.486-4.47-31.077-3.666-36.66c.813-6.486 1.422-37.68 1.016-39.204s-2.03-28.436-1.016-32.6c1.016-4.06 7.313-21.936 7.11-21.936z" fill-rule="evenodd" stroke="#000" stroke-width="1pt" fill="url(#e)" transform="matrix(.86 0 0 .86 337.27 11.7)"/>
  <path d="M630.822 194.416s12.402-12.063 19.664-10.666c3.668 0 .174 2.62.174 2.62s6.29.624 7.162 3.32c.176 1.222-2.97 1.67-2.97 1.67s2.62.626 2.796 2.796-26.662.624-26.726.36z" fill-rule="evenodd" stroke="#000" stroke-width=".86pt" fill="#ff7000"/>
  <path d="M631.618 193.89s13.276-1.746 18.866-7.336m-6.414 3.673s9.78-.36 9.78 1.06" stroke="#000" stroke-width=".86pt" fill="none"/>
  <path stroke-linejoin="round" d="M679.73 333.116s8.386-1.92 10.666-4.89c1.4-1.06 8.736 11.004-10.666 4.89z" fill-rule="evenodd" stroke="#000" stroke-width="1.076" fill="#fff"/>
  <path d="M677.46 263.766s1.048 6.463-1.923 10.83c-1.672 1.747-6.288 4.716-6.288 6.813 0 2.096 1.746 4.89 1.396 7.336s-2.97 4.89-2.796 6.987c0 2.096 2.97 13.276 2.622 13.46m-8.382-66.374s-6.636 2.27-8.034 8.91" stroke="#fff" stroke-linecap="round" stroke-width="1.076" fill="none"/>
  <path d="M669.288 190.227s2.27 6.29 9.608.36c-4.717-6.462-9.608-.176-9.608-.36z" fill-rule="evenodd" stroke="#000" stroke-width=".86pt" fill="#c76b00"/>
  <path d="M664.866 190.086c0 .338-.362.612-.787.612s-.786-.274-.786-.612c0-.338.362-.612.786-.612s.787.274.787.612z" fill-rule="evenodd"/>
  <path d="M499.303 176.633s13.912 16.068 22.913 14.896c1.637 4.42-4.086 8.63-6.378 10.493-4.682-1.472-8.724.27-19.363-12.824.666-8.347 2.99-12.236 2.828-12.663zm18.826-36.028c1.8-6.664 6.4-9.983 8.61-10.474-.817-4.266 6.648-23.077 27.99-30.278 1.308 9.666-9.167 19.16-9.167 19.16s31.69-6.402 37.972-13.422c-.664 3.6-7.037 26.024-40.763 26.86 12.766 12.112-4.093 21.77-11.296 18.822 13.268-10.148-3.764-16.203-13.268-9.667z" fill-rule="evenodd" stroke="#000" stroke-width=".86pt" fill="#fff"/>
  <path d="M628.93 132.764c6.383-4.092 8.674-4.092 13.912-3.274-3.766.49-3.766.666-3.766.666s-.327.49 1.964 2.62c-2.617-.666-4.91-2.13-12.11 0z" fill-rule="evenodd" stroke="#ccc" stroke-width=".86pt" fill="#cccccd"/>
  <path d="M626.47 130.13s12.602-6.71 19.64-11.293" stroke="#000" stroke-width=".86pt" fill="none"/>
  <path d="M616.668 201.003s17.36 4.747 19.313-20.132c-3.763-10.8-9-34.042-.98-40.762-7.366-6.074-16.386.164-16.386.164-.49 1.146-7.038 10.474 1.8 26.842-20.96-6.666-12.44 14.24-12.44 14.24.82-3.11 11.96-6.067 14.73 9.82 1.147 3.927-7.627 9.983-7.036 9.82z" fill-rule="evenodd" stroke="#000" stroke-width=".86pt" fill="#00f"/>
  <path d="M636.147 181.034s18.33-9.82 17.84-32.898c-16.66.328-21.113 20.46-21.113 20.46l3.274 12.438z" fill-rule="evenodd" stroke="#000" stroke-width=".86pt" fill="#00f"/>
  <path d="M462.983 179.89s-13.686 11.786-21.277 8.02c-6.73 3.437-12.44-2.62-12.44-2.62s7.867 28.97 36.008 8.02c-.49-6.382-1.964-12.93-2.29-13.42z" fill-rule="evenodd" stroke="#000" stroke-width=".86pt" fill="#fff"/>
  <path d="M431.643 187.416c1.146-6.066 6.892-9 9.667-3.273 6.074.982 10.148-19.804-7.866-16.367 6.074-27.17-10.147-37.317-10.147-37.317s-6.4 30.116-2.946 36.68c2.466 6.666-3.6-10.31-23.077-14.73-.327 22.76 21.77 33.39 21.77 33.39s6.218 6.727 12.6 2.618z" fill-rule="evenodd" stroke="#000" stroke-width=".86pt" fill="#00f"/>
  <path d="M433.34 167.61s-8.61 7.2-6.646 17.02m-6.379-18s-1.964 7.037 2.29 17.02m-3.6 2.296s3.928-6.383 12.44 1.8" stroke="#000" stroke-width=".86pt" fill="none"/>
  <path d="M420.742 141.76c0-.164-12.93 0-6.238 13.093-6.728 1.8-18.496-6.647-9.667-17.677-28.97-.664-40.764-14.666-40.764-27.332 8.61 8.838 28.806 6.237 36.008 10.638-8.837-8.184-7.037-19.476-7.037-19.476s24.716 7.366 29.133 29.296c-1.473 4.266-2.127 11.786-2.466 11.467z" fill-rule="evenodd" stroke="#000" stroke-width=".86pt" fill="#fff"/>
  <path d="M400.86 119.906c4.77 4.863 17.026 6.303 23.244 11.704" stroke="#000" stroke-width=".86pt" fill="none"/>
  <path d="M406.603 134.224s10.146-1.31 13.086 2.292c-3.97 0-6.293-.983-11.027 1.146 1.618-.817 1.177-2.29 2.06-2.29s-3.677-1.146-4.118-1.146z" fill-rule="evenodd" stroke="#ccc" stroke-width=".816" fill="#cccccd"/>
  <path d="M467.077 64.843s6.664-4.91 11.62-.49c-2.736 8.174-12.603 6.072-12.603 6.072s.328 4.092-.664 6.066c1.976 1.486 3.6 6.384 3.6 6.384s10.16-2.466 12.276 1.964c3.886-.636 6.71 0 6.71 0s7.867-1.964 10.64-1.964c2.78 0 11.62 2.292 12.438 3.93.818 1.636 3.764 12.6 6.728 12.438 1.964-.164-4.746 2.618-6.646-.164-1.8-2.782-1.31 3.6-1.31 3.6s6.666 6.893 6.22 7.202c.664 1.31-3.437 11.948-.328 19.313-2.724.262-2.946 3.11-2.946 3.11-.16 3.242-4.266 4.092-4.266 4.092l-.982-4.42-2.783 1.637 1.146-3.437s3.766-9.166 4.092-12.11c.327-2.947-3.437-8.186-6.383-8.186s-6.074 9.33-6.074 9.33-1.473 7.037-.982 7.692c.492.666-1.963-2.29-1.963-2.29s-1.31 4.264-2.29 6.663c-.983 1.31-3.11 1.8-3.11 1.8s-1.474-4.266-.983-6.89c.49-1.638 8.02-8.02 7.366-12.604-.666-4.682 0-3.436-.166-3.6-.163-.163-3.928-3.437-4.09-6.237-.166-1.8-4.912 2.29-11.13.982-1.904 3.326-2.128 11.62-2.128 11.62s-.666 9.984.664 11.13c1.31 1.146-3.272 3.6-3.272 3.6l-3.274 4.42s-1.146-2.783-1.146-2.62c0 .164-2.293 1.637-2.293 1.637l1.31-3.273c-.08-2.48 3.182-9.246 3.182-14.976 0-6.73.417-11.868.417-11.868s-6.066-.328-6.892 6.892c.164 6.218-1.473 6.646-1.146 8.346.327 1.8 1.964 6.874 1.473 8.347-.49 1.473-2.466 1.964-2.466 1.964l-.49.82s-6.067 2.78-6.894 3.927c.164 1.146-.163-3.274-.163-3.274l-.327-4.746s3.6-2.292 3.6-8.02c0-6.73-.83-6.643-.666-7.862.164-1.31.993-6.06.83-6.66-.164-.492-3.437 1.308-4.42 1.308s1.8-3.437 2.128-6.892c.328-2.466-3.273 2.29-6.22-.49 1.37-3.023 3.438-3.93 3.766-6.22s-2.29 1.964-4.68.327c.186-2.196 2.464-4.092 2.464-4.092s-1.866-.228-2.62 0c-1.472-.49 1.638-2.782 1.8-6.066.166-3.273-1.8-4.682-1.8-4.746 0-.163-3.272-2.946-3.763-4.09-.49-1.146-.49-2.466-.49-2.466s-6.402 3.928-11.786-4.42c6.846-4.99 12.11-1.308 12.11-1.308s1.638-4.683 9.167-4.266c7.63.328 9.002 4.683 8.676 4.092z" fill-rule="evenodd" stroke="#000" stroke-width=".86pt" fill="#923f00"/>
  <path d="M498.263 139.606c.137 0 13.904.408 14.04 7.77.136 7.36-4.226 6.46-4.362 6.46s-10.086-1.226-10.086-1.226l.41-11.996z" fill-rule="evenodd" stroke="#000" stroke-width=".86pt" fill="#00f"/>
  <path d="M484.89 137.468s17.174-.137 16.22 7.36c-.966 7.497-6.317 6.998-6.317 6.998l-8.314-.682-2.69-12.676z" fill-rule="evenodd" stroke="#000" stroke-width=".86pt" fill="#fffeff"/>
  <path d="M476.214 136.64l9.96.82s6.998.816 6.726 6.64c-.273 6.726-6.136 6.863-6.136 6.863l-9.677-.646.136-12.676z" fill-rule="evenodd" stroke="#000" stroke-width=".86pt" fill="#00f"/>
  <path d="M461.908 139.606c-.136 0-13.904.408-14.04 7.77-.136 7.36 4.226 6.46 4.362 6.46s10.087-1.226 10.087-1.226l-.412-11.997z" fill-rule="evenodd" stroke="#000" stroke-width=".86pt" fill="#fff"/>
  <path d="M466.264 137.468s-17.176-.137-16.22 7.36c.964 7.497 6.316 6.998 6.316 6.998l8.314-.682 2.69-12.676z" fill-rule="evenodd" stroke="#000" stroke-width=".86pt" fill="#00f"/>
  <path d="M474.947 136.64l-9.96.82s-6.997.816-6.726 6.64c.273 6.726 6.134 6.863 6.134 6.863l9.678-.646-.137-12.676z" fill-rule="evenodd" stroke="#000" stroke-width=".86pt" fill="#fff"/>
  <path d="M601.69 219.4s7.166-10.646 10.168-9.417c2.636.88.628 9.04-.628 9.792l-9.64-.376zm-49.046 1.882c-2.26-3.138-6.623-11.8-8.636-9.416-2.636.878-.627 9.038.628 9.792l7.908-.378z" fill-rule="evenodd" stroke="#000" stroke-width=".86pt" fill="#6e0043"/>
  <path d="M467.283 200.427s13.942 8.69 18.616 8.812c4.672.222 19.072-11.166 19.072-11.166" stroke="#000" stroke-width=".86pt" fill="none"/>
  <path d="M468.626 166.76l2.677-3.347 13.386 6.804 13.607-6.023 2.677 2.788-16.168 10.708-17.177-10.93z" fill-rule="evenodd" stroke="#000" stroke-width=".86pt" fill="#6e0043"/>
  <path stroke-linejoin="round" d="M447.996 166.67c1.087 1.372 9.738 11.89 11.3 20.69 1.66 8.7-.893-11.934-.893-11.934s10.708 6.242 11.043 8.688c.334 3.346 6.12-.226 6.348-.798L443.79 162.88l4.206 3.69zm62.899-.603s-11.266 14.836-9.927 31.007c-2.324-7.744-.447-20.623-.447-20.623l-2.463 1.663s-2.666 10.93-6.8 12.604c-.646-1.302-.447-1.786-.447-1.786s-3.467 4.462-4.127 4.908c-.67.446.224 16.068.224 16.068s1.16 10.69 2.6 10.48c-1.623.746-3.393 1.903-3.393 1.903l-1.387-28.277 3.172-3.178s4.237-6.13 4.672-10.16c-1.84 1.66-3.904 2.008-3.904 2.008s-.668 7.138-2.23 8.142c-1.674 1.004-1.72 2.866-1.72 2.866l-.397-9.328 26.763-17.296z" fill-rule="evenodd" stroke="#474747" stroke-width="1.076" fill="#474747"/>
  <path d="M476.128 183.14l2.176 44.61" stroke="#000" stroke-linecap="round" stroke-width="1.076" fill="none"/>
  <path d="M447.694 204.443s6.13 3.012 7.027 12.168c16.73-1.226 21.974 4.686 21.974 4.686s13.72-6.68 20.077-6.364c2.23-4.686 8.69-10.708 8.69-10.708" stroke="#000" stroke-width=".86pt" fill="none"/>
  <path d="M440.694 160.72l34.438 22.632 31.008-20.868s6.47-3.67 6.912-6.134-2.788-1.662-3.904-1.116c-1.116.447-32.468 22.642-32.468 22.642l-33.36-21.08s-2.464-.78-2.9.78.92 2.466 1.263 3.236z" fill-rule="evenodd" stroke="#000" stroke-width=".86pt" fill="#b4b6b9"/>
  <path stroke-linejoin="round" d="M602.278 164.873s-8.81-3.74-8.81-.6c0 3.243.248 3.676 1.66 6.664 1.414 2.078-1.08 3.408-1.08 3.408s-.332-.914-.83-2.328c-.6-1.413-6.238-2.41-6.663-4.073-.416-1.662.997-4.323-1.83-4.666-2.826-.334-6.67 1.163-6.16 4.406-.683 3.242-4.24 10.807-4.24 10.807l.6-17.208c6.206.443 17.733 1.8 26.6 2.826-2.66-.416.997.166.914 1.08-.26.76-1.166.832-1.082.683zm-31.176-4.326c-1.68 0-9.476.916-11.47 2.078-1.996 1.164 3.24 2.993 2.676 4.672-.666 1.68-.76 4.74-3.243 4.074-2.494-.664-10.89-4.82-11.14-6.234-.248-1.413-1.994-1.496-1.994-1.496s24.107-3.242 26.27-2.993z" fill-rule="evenodd" stroke="#474747" stroke-width="1.076" fill="#474747"/>
  <path d="M474.904 148.67l-.06 21.14m-16.219-46.047s-9.66 16.684-9.86 16.162" stroke="#000" stroke-width=".86pt" fill="none"/>
  <path d="M161.8 129.74s4.893 6.672 4.337 8.662c2 1.667 4.226 7.784 4.226 7.784" fill-rule="evenodd" stroke="#000" stroke-width="1pt" fill="url(#f)" transform="matrix(.86 0 0 .86 337.27 11.7)"/>
  <path d="M492.672 122.322s-9.086 12.816-8.798 13.77" stroke="#000" stroke-width=".86pt" fill="none"/>
  <path d="M446.213 61.426c-.206.717-1.364.996-2.688.62s-2.048-1.26-1.842-1.976c.206-.717 1.366-.996 2.688-.62s2.06 1.26 1.843 1.976zm3.673-.263c.206.717 1.364.996 2.688.62s2.047-1.26 1.842-1.976c-.206-.717-1.366-.996-2.688-.62s-2.048 1.26-1.842 1.976z" fill-rule="evenodd"/>
  <path stroke-linejoin="round" d="M666.13 326.672s-3.367.63-3.262.947-9.79.63-10 .316c-.212-.316-1.476 1.684-1.476 1.684l1.68-.948s2.42 2.627 3.168 2.316c.737-.21-.316.947-.106 1.168.21.21.948-.42.948-.42l16.36-.276-7.2-4.778z" fill-rule="evenodd" stroke="#000" stroke-width=".86pt" fill="#ff7000"/>
  <path stroke-linejoin="round" d="M662.23 331.663l-13.363.387s-3.37 3.063-3.68 3.79 2.21.947 2.21.947l.738 2.627 1.686-.632s11.36 1.69 21.79-.632c6.266-1.842 6.186-4.063 2.6-6.396-3.683-1.342-11.876-.94-11.98-.992z" fill-rule="evenodd" stroke="#000" stroke-width="1.076" fill="#ff7000"/>
  <path d="M208.37 403.93l27.97-1.246-6.208-4.416 76.647-3.068-2.606-6.002-84.707 3.398 10.192 4.766-22.876.68.68 2.377-6.002-.227s6.68 2.606 6.908 3.737z" fill-rule="evenodd" stroke="#000" stroke-width="1pt" fill="url(#g)" transform="matrix(.86 0 0 .86 337.27 11.7)"/>
  <path d="M239.73 249.42c-2.222-1.11-11.998-2.444-22.884 4.666l.444 26.106s16.997-8.666 23.773-6.666c-.444-7.776-.444-17.774-1.333-23.106z" fill-rule="evenodd" stroke="#000" stroke-width="1pt" fill="url(#h)" transform="matrix(.86 0 0 .86 337.27 11.7)"/>
  <path d="M410.434 291.76l-66.723 66.31m82.003-66.898l-46.037 60.63m43.983-76.464l-61.463 74.398m-1.849-1.032l6.96-6.987m69.064-28.977l-23.84 32.886m-1.029 4.317l.617 12.63m36.14-38.227l-26.278 31.66m20.763-2.462l10.276-16.862m-6.371-3.289l-12.332 13.976m8.632-27.124l-8.426 10.276m-2.47-26.283s-26.69 37.61-26.278 40.692m22.603-46.619c-.616.41-22.196 28.977-22.196 28.977m-1.229 9.033l-3.906 4.728m-4.933 7.202l-6.96 7.808" stroke="#000" stroke-width=".86pt" fill="none"/>
  <path d="M407.627 206.2s-1.74 6.47 0 8.204 12.68 24.86 12.68 24.86 7.468-9.197 10.193-9.446c2.736-.248 1.49 23.867 1.49 23.867s-4.473 4.227-7.208 3.978c-2.736-.248 6.712 9.447 6.464 17.662s-12.43 48.976-16.906 49.722c-4.476.746 1.99-7.468 1.74-9.696-.26-2.236-1.492-.746-2.486-3.23-.996-2.487 1.492-6.216.994-8.702s-2.734-1.99-2.983-3.73 1.492-2.237 1.243-4.226c-.26-1.99-2.983-1.493-2.736-3.233.26-1.74.498-.994.26-4.226-.26-3.232-.747 2.237-3.482 2.486-2.733.26-4.97 6.464-4.97 6.464s-6.47 7.707-10.94 4.226c3.232 6.96.746 9.946-.497 10.193s.994 6.47-1.99 6.72 2.238 11.683-1.242 12.677c3.73 1.74.747 3.98.747 3.98s-8.618.716-6.713 11.932c-26.36-8.936-37.79-24.346-37.64-40.007.248-16.662 6.22-29.833 17.402-36.064 3.48-12.928 9.447-26.86 9.447-26.86s-.994-6.718-.248-9.447c.746-3.73 4.226-7.468 4.226-7.468s-.496-8.96-.247-13.426c.248-4.476 1.99-6.466 2.237-8.96.26-2.486-.746-16.166 1.74-17.403 2.487-2.238 7.21-1.99 9.696-3.48 2.486-1.492 6.718-4.227 8.96-3.98s6.967 2.488 6.967 2.488 12.182 0 12.927 4.724c.746 4.722-2.486 6.462-2.486 6.462s1.74 6.713-6.718 12.928z" fill-rule="evenodd" stroke="#2b2b2b" stroke-width=".86pt" fill="#8a9396"/>
  <path d="M396.862 188.097c.39.722-.6 1.96-1.986 2.764s-3.01.876-3.4.163c-.39-.72.498-1.968 1.986-2.764s3.01-.874 3.4-.163z" fill-rule="evenodd" stroke="#2b2b2b" stroke-width="1.147" fill="#cecfcf"/>
  <path d="M394.787 189.364c0 .466-.414.824-.926.824-.61 0-.924-.37-.924-.824 0-.464.414-.823.924-.823s.926.37.926.824z" fill-rule="evenodd"/>
  <path d="M412.926 197.46s3.02 13.48-.69 22.793m1.619-28.693s6.89 7.792 6.13 17.483m-4.66-19.193c.19 0 4.94 4.18 4.76 7.03m-3.61-8.742s3.23 2.28 3.99 4.66" stroke="#2b2b2b" stroke-width=".637" fill="none"/>
  <path d="M414.044 186.806s-11.692 18.813-10.072 30.696" stroke="#000" stroke-width=".86pt" fill="none"/>
  <path d="M414.804 186.237s-16.393 9.122-18.243 38.967" stroke="#2b2b2b" stroke-width=".637" fill="none"/>
  <path d="M413.094 191.76l-6.082 4.66" stroke="#000" stroke-width=".86pt" fill="none"/>
  <path d="M390.86 226.906s8.662-36.637 23.764-40.667" stroke="#2b2b2b" stroke-width=".637" fill="none"/>
  <path d="M420.606 238.878s8.172-10.262 10.072-9.882c1.9.38 1.33 23.764 1.33 23.764s-6.08 4.66-7.412 4.37c-1.33-.19 6.842 11.023 6.662 16.204-.19 4.18-.38 4.18-.38 4.18s0-2.47-1.9-6.46c-1.9-3.99-.76-8.662-13.113-18.624-3.04-6.27 6.08 3.8 7.98 2.28 1.902-1.62-3.42-14.632-3.23-14.822z" fill-rule="evenodd" stroke="#2b2b2b" stroke-width=".86pt" fill="#2b2b2b"/>
  <path d="M406.978 181.086s-3.436.936-3.904 2.342c-.468 1.406-2.498 2.81-3.69 2.342-1.094-.468-3.126-2.186-3.126-2.186" stroke="#2b2b2b" stroke-width=".86pt" fill="none"/>
  <path stroke-linejoin="round" d="M386.46 193.108s-6.166 6.164-2.666 6.778c2.498.626 6.163-4.06 6.163-4.06s0 7.964 2.186 6.716 8.69-6.777 8.69-6.777 2.186-.166 2.663 0c.47.166 6.934 4.84 9.626 3.123-2.03 6.31-4.373 6.934-4.373 6.934s-3.748 4.84-8.69 3.748c-4.84-1.093-6.09-3.123-6.09-3.123s-4.06.312-6.308-1.662c-1.26-1.874-1.718-2.967-1.718-2.967s-2.342 2.343-2.967 1.26c-.626-1.094 0-7.496 3.69-9.067z" fill-rule="evenodd" stroke="#2b2b2b" stroke-width="1.076" fill="#2b2b2b"/>
  <path d="M416.66 186.927s-9.626-2.81-12.806 1.874c-3.28 4.686-2.498 7.34-.78 7.81" stroke="#2b2b2b" stroke-width=".86pt" fill="none"/>
  <path d="M417.13 186.66c0 1.124-.804 2.034-1.796 2.034s-1.796-.91-1.796-2.033.804-2.033 1.796-2.033 1.796.91 1.796 2.034z" fill-rule="evenodd"/>
  <path d="M389.407 209.964s3.884 6.976 8.616 7.62-3.212 3.062-7.843-.076c-3.362-4.668-2.466-7.844-2.466-7.844s.896-.897 1.793.298zm33.24 36.26s-10.906-16.162-14.043-16.984c-3.138-.822 2.39-1.494 6.76 1.718 3.362 3.212-.896-6.23-.896-6.23l9.186 19.496z" fill-rule="evenodd" stroke="#2b2b2b" stroke-width=".86pt" fill="#2b2b2b"/>
  <path stroke-linejoin="round" d="M388.362 332.84c4.183-1.12 22.408 10.46 26.616 13.372 4.108 2.913 12.698 1.046 12.698 1.046s-3.96 2.39-6.424 2.988 7.32.698 7.32.698-23.306 6.423-46.983-6.06c-2.167-9.71 6.078-11.877 6.87-11.962z" fill-rule="evenodd" stroke="#2b2b2b" stroke-width="1.076" fill="#2b2b2b"/>
  <path d="M416.028 248.967s-3.063-.698-4.63-2.39c-1.67-1.793-3.81-6.2-6.126-8.068s-13.894-8.217-18.077-7.77c-4.183.46-6.462-.447-6.976-.97-.623-.623-2.24.224-1.942 2.39.298 2.167-3.212 6.947-1.942 9.188 1.27 2.24 7.246 11.363 8.44 11.662 1.196.3.448 6.303.448 6.303s6.304 6.378 6.648 6.677c1.346.3 2.69 1.27 2.64 2.64-.16 1.27-6.826 8.216-6.826 8.216s-6.126 3.212-6.2 6.006c-.076 1.793 1.494 6.628 6.36 6.723 4.864 1.196 17.926.224 18.698-.896.672-1.12 1.718-7.843 1.27-8.616-.448-.673-3.66-2.69-6.303-2.39-1.643.298-3.137 1.643-2.987 1.94.16.3-2.316 1.67-2.316.376s4.866-6.673 6.304-6.126c.46.448 7.32 1.12 8.69 4.666s1.27 6.9 4.866 6.628c3.686-.374 8.69-3.66 9.037-10.632.46-6.872-4.033-11.603-6.164-12.176-1.12-.673-4.866-2.914-6.166-3.96-.298-1.046-1.046-4.48-.448-6.303z" fill-rule="evenodd" stroke="#2b2b2b" stroke-width=".86pt" fill="#2b2b2b"/>
  <path d="M360.416 279.29s11.677-2.99 14.666-2.914c2.988.076 14.266 6.303 17.663 8.616 3.287 3.213 10.01 10.832 14.416 10.16 4.408-.673 6.678-1.67 6.678-1.67l-1.718 3.287s-3.686.97-6.378.623c-1.792-.448-6.303-1.668-8.814-6.004-3.61-3.436-14.34-12.698-23.63-12.026-9.186.672-14.49 9.71-14.49 9.71s.076-4.407.46-6.378c.372-.97-1.944 2.09-1.944 2.09l3.212-7.394z" fill-rule="evenodd" stroke="#2b2b2b" stroke-width=".86pt" fill="#2b2b2b"/>
  <path d="M393.067 288.26c.074.076 2.913.822 7.693.822s7.32-2.092 7.32-2.092l-.298-1.867.747-2.614s3.66 3.733 3.684 4.48c-.076.747-1.494 1.046-1.494 1.046l-.623-1.793-1.27 1.67s-6.946 6.626-10.766 4.706c-3.808-.822-7.32-3.287-6.348-3.884s1.494-.374 1.346-.374zm-16.881 9.787s-4.183-.076-6.06.822c-1.868.896-2.64 2.016-3.81 1.866-1.27-.16-2.24-1.793-1.867-2.466.622-1.046 2.987-2.39 7.692-2.016s4.034 1.793 4.034 1.793zm14.641 11.363c0-.226-.3-6.126-2.616-8.616s-6.164-2.39-6.424-2.092c-1.27.3 4.706 2.913 6.304 4.63.697 1.72 2.64 6.6 2.017 7.696-.624 1.196-1.496-3.36-6.166-4.63s-8.74-.6-7.694 1.046 6.166.16 7.246 3.66 3.66 7.246 3.66 7.246l.673-2.64 1.866-.622.224-4.866.897-1.12z" fill-rule="evenodd" stroke="#2b2b2b" stroke-width=".86pt" fill="#2b2b2b"/>
  <path stroke-linejoin="round" d="M387.84 328.607l-3.81-7.62s-1.196-4.864-4.408-6.2c-3.212-1.343-7.47-1.12-7.644.624-.074 1.644 6.872 3.736 7.32 4.632.46.897.224 2.39-.373 2.466-.698.076-3.66-1.12-6.23-.747-1.667.374-2.464 2.39-4.78 1.793-2.316-.698-4.267-7.993-3.36-8.74.896-.746-1.718 1.346-2.24-.697-.624-1.942.746-7.992-.16-8.74-.897-.746-6.23-3.36-6.304-3.883-.074-.623.226-29.73 24.66-6.628-10.467-12.4-14.666-11.064-16.607-11.13-1.42 0-10.906.822-13.296 12.923-2.39 12.1-6.23 4.667-6.23 4.667s-.622 6.228 2.018 6.722c2.64 1.494-1.196 6.826-1.196 6.826s-4.666-11.13-3.884-16.986c-.897 3.886-.822 13.62 4.93 24.062 6.722 7.096 13.072 13.67 29.963 21.064 8.888-13.696 8.44-16.237 8.44-16.387z" fill-rule="evenodd" stroke="#2b2b2b" stroke-width="1.076" fill="#2b2b2b"/>
  <path stroke-linejoin="round" d="M371.864 328.684s4.93.698 6.274 3.137c1.346 2.64 1.942 6.426 1.942 6.426.822-1.643 1.196-3.062 2.84-4.267s2.837-1.346 2.763-2.24c-.076-.898-6.23-6.36-7.843-6.66-2.616-.298-7.17 2.84-7.17 2.84s-.823 1.194 1.194.746z" fill-rule="evenodd" stroke="#2b2b2b" stroke-width="1.076" fill="#8a9396"/>
  <path d="M383.114 341.433s12.776 6.824 33.82 6.2" stroke="#8a9396" stroke-linecap="round" stroke-width="1.076" fill="none"/>
  <path d="M426.764 282.127s-1.1 10.72-9.346 31.88" stroke="#2b2b2b" stroke-linecap="round" stroke-width="1.076" fill="none"/>
  <path d="M424.12 288.723s-2.472 7.696-9.343 13.467" stroke="#2b2b2b" stroke-width=".86pt" fill="none"/>
</svg>
