<svg xmlns="http://www.w3.org/2000/svg" xmlns:xlink="http://www.w3.org/1999/xlink" height="480" width="640">
  <defs>
    <radialGradient id="a">
      <stop offset=".216" stop-color="#f9f0aa"/>
      <stop offset="1" stop-color="#b07e09"/>
    </radialGradient>
    <radialGradient r="16.634" cy="308.269" cx="447.418" gradientUnits="userSpaceOnUse" xlink:href="#a" id="d"/>
    <radialGradient r="10.911" cy="312.996" cx="461.668" gradientUnits="userSpaceOnUse" xlink:href="#a" id="e"/>
    <radialGradient r="9.78" cy="308.643" cx="464.11" gradientUnits="userSpaceOnUse" xlink:href="#a" id="f"/>
    <radialGradient r="17.364" cy="307.067" cx="468.39" gradientUnits="userSpaceOnUse" xlink:href="#a" id="g"/>
    <radialGradient r="13.018" cy="262.363" cx="446.976" gradientUnits="userSpaceOnUse" xlink:href="#a" id="j"/>
    <radialGradient r=".346" cy="216.266" cx="477.868" gradientUnits="userSpaceOnUse" id="m">
      <stop offset=".269" stop-color="#a60a0a"/>
      <stop offset="1" stop-color="#4c0606"/>
    </radialGradient>
    <radialGradient id="n" gradientTransform="scale(.97707 1.02346)" cx="489.072" cy="210.326" fx="489.072" fy="210.326" r=".346" gradientUnits="userSpaceOnUse">
      <stop offset="0" stop-color="#fff"/>
      <stop offset="1" stop-opacity="0" stop-color="#fff"/>
    </radialGradient>
    <linearGradient y2="231.963" x2="472.367" y1="269.171" x1="473.906" gradientUnits="userSpaceOnUse" id="h">
      <stop offset=".216" stop-opacity="0" stop-color="#b07e09"/>
      <stop offset="1" stop-color="#b07e09"/>
    </linearGradient>
    <linearGradient y2="326.683" x2="486.496" y1="296.666" x1="483.126" gradientUnits="userSpaceOnUse" id="i">
      <stop offset=".216" stop-opacity="0" stop-color="#b07e09"/>
      <stop offset="1" stop-color="#b07e09"/>
    </linearGradient>
    <linearGradient y2="240.676" x2="466.366" y1="249.623" x1="461.641" gradientUnits="userSpaceOnUse" id="k">
      <stop offset=".216" stop-color="#f9f0aa"/>
      <stop offset="1" stop-color="#b07e09"/>
    </linearGradient>
    <linearGradient y2="270.446" x2="476.929" y1="237.247" x1="473.314" gradientUnits="userSpaceOnUse" id="l">
      <stop offset=".216" stop-color="#f9f0aa"/>
      <stop offset="1" stop-color="#b07e09"/>
    </linearGradient>
  </defs>
  <path fill="#4997d0" d="M0 0h640v480H0z"/>
  <path fill="#fff" d="M213.333 0h213.333v480H213.333z"/>
  <g transform="translate(0 40) scale(.66667)">
    <g stroke="#24420e">
      <path d="M462.12 377.48c2.67-.407 4.208-1.138 6.036-1.786m2.216-4.064c1.347 1.43 2.417 2.96 2.993 4.636m-8.113-6.076c1.406 1.313 2.376 2.712 3.138 4.162M408.81 238.77c-1.044 1.602-3.092 2.726-4.78 3.428m-.34-.198c.036-1.368-.236-3.026.06-4.394m-1.98 6.024c.114.37.436 1.4.676 2.028m2.024.922c-.378.082-1.62.267-2.028.338m-3.962-.878c-.013 2.62.286 6.663.63 7.82m-1.79-.96c.472.767.947 1.604 1.646 1.883m-4.686 6.467c.49.94.943 2.122 1.304 3.96m3.716-4.63c-.414.206-1.216.93-1.93 1.646m1.69 4.396c-.98.872-2.198 1.604-3.428 2.124m-3.812 40.406c1.163 1.893 2.42 3.66 3.96 4.684m.68 1.686c-1.294-.166-2.16-.646-2.946-.966m4.396 8.406l1.69.966m-.44 3.474c1.266.816 2.61 2.283 3.766 3.862m-1.446 2.848c1.386.293 2.493.64 3.236 1.062m-1.066 2.418l2.124.072m1.206-6.382c-.102 1.634-.263 2.972-.483 4.26m1.013 1.69l.434-1.642m4.686 6.992l-.146 3.236m39.206 27.904l-1.16 1.693m-2.41-3.913l-.676-1.834" fill="none" stroke-width=".437"/>
      <g stroke-width=".164">
        <path d="M486.11 384.93c-.797-1.266-2.108-2.028-3.277-2.666-7.727-4.066-16.406-6.843-24.116-7.244-2.013-.337-4.027-2.22-6.087-3.187-4.963-2.366-10.49-3.284-16.31-6.697-.33-.146-1.646-.87-2.11-1.646-1.918-2.22-6.384-2.898-7.637-4.974-8.336-7.87-17.184-16.116-21.772-26.647-6.672-12.7-12.603-26.787-11.666-40.227.608-9.126-.76-18.36 1.497-27.043 3.326-12.894 7.688-26.64 16.407-36.314l-1.31.82c-7.868 10.676-12.128 23.423-16.463 36.316-2.248 8.692-.89 17.916-1.6 27.043-.936 14.44 6.996 27.626 11.668 40.274 4.688 10.382 13.486 17.626 21.774 26.646 2.164 2.027 6.62 2.703 7.64 4.973.66.626 1.824 1.4 2.106 1.644 4.826 2.416 10.36 3.332 16.314 6.66 2.06 1.014 4.074 2.86 6.087 3.188 8.71 1.4 16.39 3.236 24.116 7.242 1.217.628 2.482 1.4 3.28 2.667l1.366-.82" fill="#406326"/>
        <g fill="#67923d">
          <path d="M406.34 331.62c-2.794-6.3-1.366-21.608-.198-23.63 6.633 13.006 4.426 23.74.198 23.63zm46.86 46.39c-7.092.364-20.61 9.296-21.864 11.396 16.086.116 24.02-7.316 21.864-11.396zm7.46-4.29c-6.846-6.46-14.19-23.66-14.032-26.6 16.11 10.833 18.936 24.28 14.032 26.6z"/>
          <path d="M464.61 372.78c-6.96-4.236-16.786-20.116-16.938-22.764 16.202 8.194 20.198 20.13 16.938 22.764zM439.06 366c.984-7.822-6.666-24.24-7.686-26.98-2.96 16.468 2.997 27.674 7.686 26.98zm-27.31-24.28c-2.304-6.646-.613-19.32.47-20.998 6.62 11.696 3.264 21.218-.47 20.998zm-13.71-76.83c3.69-6.648 18.38-16.712 20.99-16.93-6.77 14.668-18.037 19.828-20.99 16.93z"/>
          <path d="M398.74 269.33c2.148-7.282 14.874-19.266 17.36-20.034-3.727 16.676-13.678 23.18-17.36 20.034zm27.81 99.16c-4.992-6.176-8.011-23.866-7.29-26.36 11.27 12.614 12.03 26.233 7.29 26.36zm-28.66-36.46c-6.91 1.089-21.36-4.636-22.92-6.337 14.632-3.16 24.287 2.072 22.92 6.337zm-2.22-9.68c.823-6.677 8.666-16.81 10.36-16.66-1.11 11.968-7.448 18.6-10.36 16.66zm61.33 68.64c-8.476.436-24.63 11.107-26.128 13.618 18.028.143 28.706-8.74 26.128-13.618z"/>
        </g>
        <g fill="#406326">
          <path d="M406.41 331.47c4.227.21 6.406-10.396-.27-23.38 1.212 12.32 1.21 22.31.27 23.38zm11.18 19.99c-4.474-6.47-19.38-11.328-21.712-11.14 8.886 12.08 19.88 16.096 21.712 11.14zm-24.42-62.98c-1.147-8.043-12.334-22.713-14.743-23.97 1.617 17.176 10.648 26.698 14.743 23.97zm8.39 34.29c-4.993-3.68-18.97-6.344-20.94-4.723 10.137 8.306 20.212 8.468 20.94 4.723zm-9.36-24.83c-2.886-6.69-14.812-13.482-16.892-13.7 6.617 12.386 14.668 16.938 16.892 13.7zm2.73-47.64c.906-7.673-6.633-23.446-7.346-26.168-2.866 16.926 2.918 26.664 7.346 26.168zm4.47-14.92c2.668-6.496.766-22.43-.622-24.417-6.403 13.61-3.827 24.648.622 24.417z"/>
          <path d="M404.42 237.83c3.136-4.77 4.162-17.686 3.486-19.47-7.236 9.716-6.968 18.944-3.486 19.47zm6.96-6.14c4.402-3.477 9.224-16.6 9.084-17.433-9.74 6.964-12.22 16.84-9.084 17.433zm-16.06 43.2c.108.868-.978-8.18-10.064-18.314.41 14.818 6.26 20.42 10.064 18.314zm32.66 86.78c-6.176-4.66-23.386-6.729-26.767-6.927 12.662 10.366 24.878 10.66 26.767 6.927zm12.07 6.24c-4.642 1.693-10.443-9.417-7.64-26.883 2.81 13.966 6.18 26.063 7.64 26.883zm13.3 11.16c2.116 4.082-6.7 11.436-21.787 11.316 11.962-4.89 21.24-9.86 21.787-11.316zm7.39-4.47c4.866-2.26 1.1-16.636-14.01-26.37 8.696 13.216 14.466 24.61 14.01 26.37z"/>
          <path d="M464.67 372.67c4.278-2.666-.69-14.444-16.89-22.64 9.403 11.184 16.094 20.968 16.89 22.64zm-42.79-30.99c3.736.222 6.967-9.262.477-20.924.718 10.974.418 19.978-.477 20.924zm-13.76-76.74c2.96 3.897 14.066-1.31 20.837-16.923-10.166 9.338-19.226 16.064-20.837 16.923z"/>
          <path d="M398.86 269.33c3.682 3.146 13.642-4.302 17.27-19.977-8.097 11.246-16.646 19.736-17.27 19.977zm27.72 99.09c4.74-1.126 3.964-13.784-7.264-26.272 6.013 13.416 8.016 24.766 7.264 26.272zm-28.87-36.46c1.407-4.24-8.297-9.37-22.803-6.26 12.26 2.196 22.043 6.043 22.803 6.26zm-1.94-9.61c2.903 1.887 9.178-4.66 10.286-16.617-4.674 9.18-9.166 16.266-10.286 16.617zm61.2 68.68c2.676 4.876-7.96 13.667-26.036 13.622 14.283-6.844 26.38-11.783 26.036-13.622z"/>
          <path d="M399.36 326.3c-2.668-6.262-14.798-16.462-16.982-16.84 4.946 13.637 14.248 19.146 16.982 16.84z"/>
        </g>
        <g fill="#67923d">
          <path d="M392.42 273.92c4.074-4.666 17.47-9.134 19.6-8.866-8.043 10.41-17.942 12.616-19.6 8.866zm26.07 77.69c-1.807 3.918-12.696.916-21.646-11.162 10.886 6.83 20.244 11.61 21.646 11.162zm-24.39-63.06c-4.196 2.727-13.128-6.738-14.686-23.884 6.623 13.203 13.037 23.384 14.686 23.884zm8.42 34.34c-.77 3.73-10.688 3.69-20.864-4.717 10.73 3.406 19.74 6.332 20.864 4.717zm-9.46-24.96c-2.333 3.24-11.29-1.27-16.807-13.667 8.192 7.967 16.492 13.744 16.807 13.667zm2.76-47.66c-4.427 1.666-10.16-9.08-7.294-26.006 2.667 13.488 6.936 24.176 7.294 26.006zm4.47-14.86c-4.304.227-6.87-10.816-.468-24.322-.822 12.797-.607 23.234.468 24.322zm6.04-7.67c-3.473-.626-3.717-9.666 3.62-19.37-2.74 9.977-4.16 18.367-3.62 19.37zm6.98-6.08c-3.136-1.643-.7-10.43 9.038-17.337-6.626 8.644-9.318 16.178-9.038 17.337z"/>
          <path d="M394.26 274.9c-3.804 2.106-9.677-3.603-9.987-18.322 6.102 11.684 8.603 17.807 9.987 18.322zm32.67 86.8c-.886 4.626-13.144 4.4-26.678-6.896 13.168 4.274 24.246 6.694 26.678 6.896zm-8.17-9.48c-4.023-4.343-7.168-17.347-6.747-19.242 9.012 8.743 10.216 18.166 6.747 19.242zm-16.88-24.99c-3.67-6.786-3.876-20.907-2.92-22.966 8.264 11.81 7.264 22.686 2.92 22.966zm-2.63.09c-2.736 3.306-11.93-2.169-16.872-16.833 8.132 9.11 16.474 16.812 16.872 16.833z"/>
        </g>
        <g fill="#406326">
          <path d="M392.37 274c1.617 3.623 11.46 1.63 19.493-8.88-11.97 6.793-16.71 9.74-19.493 8.88zm9.34 62.07c4.332-.37 6.33-11.037-2.933-22.846 2.664 11.864 3.79 21.678 2.933 22.846zm16.96 26.11c3.47-1.07 2.26-10.46-6.713-19.178 4.403 9.727 7.206 18.01 6.713 19.178z"/>
          <path d="M394.23 291.77c2.068-8.386-1.702-22.6-4.3-26.66-4.716 16.428-.246 26.6 4.3 26.66z"/>
        </g>
        <path d="M393.93 293.77c-6.896 1.34-8.646-12.034-4.08-27.078 1.07 13.646 2.834 26.147 4.08 27.078z" fill="#67923d"/>
        <path d="M392.73 293.72c-.668-7.627 6.934-23.087 8.916-24.707 2.016 16.803-4.462 26.308-8.916 24.707z" fill="#67923d"/>
        <path d="M392.84 293.61c4.413 1.636 10.86-8.76 8.836-24.664-3.61 13.267-7.446 23.764-8.836 24.664z" fill="#406326"/>
        <path d="M394.13 303.26c.006-7.61 8.47-22.23 10.662-23.62.834 16.163-6.332 26.83-10.662 23.62z" fill="#67923d"/>
        <path d="M394.21 303.41c4.23 2.21 11.306-7.364 10.47-23.626-4.408 12.867-9.047 22.9-10.47 23.626z" fill="#406326"/>
      </g>
      <g fill="#ba1f3e" stroke="#611124" stroke-width=".218">
        <circle cx="396.836" cy="261.27" r="1.086" stroke-width=".186"/>
        <circle cx="406.206" cy="246.07" r="1.086" stroke-width=".186"/>
        <circle cx="401.664" cy="241.71" r="1.086" stroke-width=".186"/>
        <circle cx="392.603" cy="313.12" r="1.277"/>
        <circle cx="396.033" cy="297.13" r="1.277"/>
        <circle cx="408.213" cy="334.46" r="1.277"/>
        <circle cx="402.393" cy="336.43" r="1.277"/>
        <circle cx="446.703" cy="367.63" r="1.277"/>
        <circle cx="449.613" cy="374.71" r="1.277"/>
      </g>
    </g>
    <g stroke="#24420e">
      <path d="M661.16 268.97c.623.62 1.174.808 2.296 1.896m-6.626-18.946c-.036-1.368-.633-3.606-.918-4.973m3.448 2.983c.066 1.962-.218 3.81-1.062 6.604m-4.168-.634c1.763 1.676 3.606 3.077 6.268 3.892m3.822 1.228c.106 1.98-.142 3.96-.683 6.94m.323 1.61l1.314-2.262M662.3 267.43c1.4.29 2.81 1.946 3.606 3.482m.476-1.292l1.64-2.186m1.71 30.726a23.9 23.9 0 0 1-2.468 3.483m-3.962-.073c.79 1.466 1.666 2.946 2.696 4.03m2.466 6.87c-1.307 1.773-2.766 3.166-4.438 4.03m.138 4.6c-1.093.76-2.426 2.963-3.687 4.712m8.437-20.182l-2.124.87m-1.396-7.49l1.266 1.11m-9.296 37.39c-.84-.108-1.466.01-2.124.072m-1.996-1.932l.616 1.64m-7.716 6.12c-.262 1.866-.072 3.733.204 6.6m4.306-9.02l1.024 2.264m3.826-.204l-2.626.41m-30.864 26.27l-.917 1.738m11.897-3.928c-1.492.187-2.778-.043-4.097-.204m-6.463 6.944a27.282 27.282 0 0 0-2.936-.966m-14.744 2.666c-.906.773-1.99 2.436-3.073 4.097m-.647-4.667c-2.433 1.263-3.182 3.71-4.438 6.804m2.798 2.866c-1.663-.46-3.412-1.228-6.326-2.048m16.766-.682c-2.32-1.206-4.748-1.087-7.136-1.468m10.766-.342c-3.628-.707-7.01-.61-10.276-.137m7.776-2.603l-1.4-.68m-6.63 6.6l-2.323-1.296m67.943-49.194c-1.266.816-2.61 2.283-3.766 3.863m1.826-79.623l-2.163-.724" fill="none" stroke-width=".437"/>
      <g stroke-width=".164">
        <path d="M474.39 384.86c.797-1.266 2.108-2.028 3.277-2.666 7.726-4.066 16.406-6.843 24.117-7.244 2.013-.337 4.027-2.22 6.087-3.187 4.964-2.366 10.49-3.284 16.312-6.697.328-.146 1.646-.87 2.108-1.646 1.92-2.22 6.386-2.898 7.64-4.974 8.333-7.87 17.183-16.116 21.77-26.646 6.673-12.7 12.604-26.787 11.668-40.226-.61-9.126.76-18.36-1.498-27.043-3.326-12.893-7.69-26.643-16.408-36.314l1.31.82c7.868 10.676 12.128 23.424 16.463 36.316 2.248 8.692.89 17.916 1.6 27.043.936 14.44-6.996 27.626-11.667 40.276-4.69 10.384-13.486 17.627-21.774 26.647-2.164 2.027-6.62 2.703-7.64 4.973-.66.627-1.826 1.4-2.106 1.646-4.823 2.416-10.36 3.332-16.313 6.66-2.06 1.014-4.073 2.86-6.087 3.188-8.71 1.4-16.388 3.236-24.113 7.242-1.217.628-2.482 1.4-3.278 2.667l-1.368-.822" fill="#406326"/>
        <g fill="#406326">
          <path d="M663.66 334.6c2.74-7.416-.01-24.838-1.49-26.96-6.648 16.37-3.34 27.6 1.49 26.96z"/>
          <path d="M646.64 341.64c2.304-6.646.613-19.32-.47-20.998-6.62 11.696-3.266 21.218.47 20.998zm16.81-74.16c-3.293-6.1-16.867-14.418-19.26-14.618 6.212 13.368 16.66 18.196 19.26 14.618z"/>
          <path d="M661.76 269.47c-1.79-6.068-12.396-16.063-14.466-16.694 3.106 13.063 11.398 19.316 14.466 16.694zm4.74 14.96c-3.637-4.06-16.164-7.928-17.013-7.696 6.98 9.036 16.672 10.864 17.013 7.696zm-2.8 46.33c6.132.966 18.96-4.116 20.346-6.626-12.9-2.797-21.66 1.84-20.346 6.626zm-.16-6.64c-.043-6.638-6.396-16.866-7.966-17.933-.666 11.996 4.803 19.463 7.966 17.933z"/>
          <path d="M663.96 301.44c-.006-7.61-8.47-22.23-10.662-23.62-.834 16.162 6.332 26.83 10.662 23.62zm-62.89 76.27c4.477 6.603 19.663 11.133 22.088 10.904-8.806-12.233-20.07-16.06-22.088-10.904z"/>
        </g>
        <g fill="#67923d">
          <path d="M663.66 334.43c-4.824.66-8.09-11.437-1.396-26.786-.49 14.192.24 26.63 1.396 26.786zm-63.37 43.66c7.093.363 20.61 9.296 21.866 11.396-16.086.117-24.02-7.316-21.866-11.396zm0-7.94c2.098-7.967 16.006-21.21 17.614-22.16-3.603 17.133-13.74 26.634-17.614 22.16zm21.27-4.23c-.986-7.822 6.666-24.24 7.686-26.98 2.96 16.467-2.997 27.676-7.686 26.98zm21.46-14.64c4.474-6.47 19.38-11.328 21.712-11.14-8.886 12.08-19.88 16.096-21.712 11.14zm26.79-63.26c.903-6.332 9.71-17.88 11.606-18.87-1.194 13.62-8.304 21.018-11.606 18.87z"/>
          <path d="M667.02 336.18c6.817-4.29 22.106-6.228 24.4-6.604-11.814 9.676-23.663 9.866-24.4 6.604zm10.27-24.62c3.033-6.98 16.666-14.17 17.764-14.4-6.8 13.02-16.3 17.803-17.764 14.4zm-1.48-46.66c-.098-7.626 7.984-22.728 9.966-24.24 1.166 16.14-6.723 26.206-9.966 24.24zm-6.93-26.92c-2.322-6.28-1.1-18.414-.093-20.074 6.66 10.963 3.672 20.17.093 20.074zm-4.23-2.18c-6.274-4.683-10.646-19.766-10.41-22.103 11.76 9.263 14.386 20.36 10.41 22.103z"/>
          <path d="M666.28 272.64c-.317.816 2.946-7.696 14.22-16.308-4.013 14.27-11.046 18.28-14.22 16.308zm-34.1 89.9c7.006-6.173 26.632-7.634 29.232-6.724-14.263 11.748-28.226 11.97-29.232 6.724zm14.33-20.84c-3.736.222-6.967-9.262-.477-20.924-.72 10.974-.418 19.978.477 20.924zm16.86-74.07c-2.708 3.676-12.897-1.202-19.12-14.61 9.327 8.67 17.64 14.74 19.12 14.61zm-1.7-8.06c-3.068 2.62-11.286-3.683-14.39-16.646 6.746 9.37 13.036 16.446 14.39 16.646zm4.89 16.03c-1.406 3.146-9.94 1.328-16.92-7.708 10.39 6.896 14.606 8.466 16.92 7.708zm-2.69 46.21c-1.26-3.764 7.366-8.317 20.24-6.666-10.883 1.96-19.666 4.477-20.24 6.666zm-.4-6.6c-3.136 1.467-8.446-6.886-7.888-17.88 3.36 9.74 6.828 17.376 7.888 17.88z"/>
          <path d="M663.88 301.69c-4.23 2.21-11.306-7.364-10.47-23.626 4.408 12.867 9.047 22.898 10.47 23.626zm-62.69 76.07c2.018-4.146 13.16-1.378 21.976 10.888-10.996-6.76-20.482-11.306-21.976-10.888z"/>
        </g>
        <g fill="#406326">
          <path d="M621.66 366.83c4.642 1.693 10.443-9.417 7.64-26.883-2.81 13.966-6.18 26.064-7.64 26.883z"/>
          <path d="M631.83 360.69c4.34-6.66 6.66-24.664 4.68-26.967-9.944 13.694-9.41 26.324-4.68 26.967zm-31.69 17.64c-2.116 4.08 6.7 11.436 21.787 11.316-11.96-4.89-21.238-9.86-21.787-11.316zm.16-8.06c3.786 3.338 13.808-4.948 17.41-22.083-8.128 12.423-16.724 21.8-17.41 22.083zm42.71-18.66c1.807 3.918 12.696.916 21.646-11.162-10.886 6.83-20.244 11.612-21.646 11.162zm26.76-63.33c3.303 2.147 10.336-6.303 11.66-18.803-6.213 10.396-10.262 18.41-11.66 18.803zm-11.69 38.11c.896 4.348 12.464 4.183 24.312-6.496-12.602 3.97-23 6.214-24.312 6.496zm10.36-24.64c2.463 3.406 11.866-1.334 17.664-14.362-8.61 8.373-16.28 14.446-17.664 14.362zm-1.61-46.66c4.238 2.016 11.064-7.962 9.899-24.093-4.08 13.13-8.46 23.412-9.9 24.093zm-6.96-26.87c3.642.093 6.416-9.033-.134-19.996.96 10.498.913 19.08.134 19.996zm-4.23-2.24c3.972-1.742 1.33-12.71-10.422-21.972 6.472 11.02 10.863 20.673 10.422 21.972zm11.61 34.67c3.176 2.97 10.143-1.06 14.166-16.33-7.798 10.084-12.688 16.17-14.166 16.33zm-34.09 89.91c1.006 6.247 14.913 4.994 29.132-6.688-14.94 4.86-27.608 7.696-29.132 6.688z"/>
          <path d="M639.14 364.76c3.272-4.934 4.274-18.274 3.664-20.077-7.488 10.08-7.16 19.672-3.664 20.077zm19.6-28.61c3.67-6.786 3.876-20.908 2.92-22.967-8.264 11.81-7.266 22.686-2.92 22.967z"/>
        </g>
        <path d="M631.79 360.64c-4.83-.638-6.33-13.312 4.662-26.873-3.626 13.866-6.464 26.442-4.662 26.873zm36.16-68.33c-.943-7.766 3.976-20.143 6.632-22.622 2.673 14.386-2.66 23.96-6.632 22.622zm-27.84 62.49c-3.697-.6-3.9-9.964 3.64-20.007-2.78 10.308-4.213 18.936-3.64 20.007zm23.36-104.24c-2.167-6.88.03-20.04 1.236-21.774 6.29 12.267 2.638 22.116-1.236 21.774zm-68.08 120.16c2.474-8.09 16.19-21.08 18.807-21.916-4.336 17.42-16.066 26.63-18.807 21.916zm64.63-41.69c2.668-6.262 14.798-16.462 16.98-16.84-4.944 13.637-14.247 19.146-16.98 16.84zm-.12-3.03c-4.333-.37-6.33-11.037 2.933-22.846-2.664 11.864-3.79 21.678-2.933 22.846z" fill="#67923d"/>
        <path d="M667 294.04c6.168 1.842 9.078-9.89 6.698-23.914-2.428 12.067-6.377 23.21-6.698 23.914z" fill="#406326"/>
        <path d="M667.77 293.64c.667-7.627-6.936-23.086-8.916-24.707-2.016 16.803 4.463 26.31 8.916 24.707zm-6.22-43.22c3.834.337 6.473-9.436 1.187-21.69.33 11.446-.283 20.76-1.187 21.69zM604.6 370.63c3.787 3.62 14.37-4.417 18.704-21.838-8.84 12.363-16.968 21.612-18.704 21.838zm64.64-41.49c2.736 3.306 11.93-2.168 16.872-16.833-8.133 9.11-16.474 16.812-16.872 16.833z" fill="#406326"/>
        <path d="M667.66 293.63c-4.413 1.636-10.86-8.76-8.836-24.663 3.61 13.267 7.446 23.763 8.836 24.663z" fill="#67923d"/>
      </g>
      <g fill="#ba1f3e" stroke="#611124" stroke-width=".218">
        <circle cx="664.626" cy="264.9" r="1.086"/>
        <circle cx="668.416" cy="266.82" r="1.086"/>
        <circle cx="669.767" cy="304.3" r="1.277"/>
        <circle cx="664.647" cy="297.29" r="1.277"/>
        <circle cx="649.907" cy="337.17" r="1.277"/>
        <circle cx="666.197" cy="339.9" r="1.277"/>
        <circle cx="613.797" cy="372.26" r="1.277"/>
        <circle cx="606.797" cy="377.29" r="1.277"/>
        <circle cx="667.064" cy="249.26" r="1.084"/>
      </g>
    </g>
    <g id="b" fill="#8c969d" stroke="#486664" stroke-width=".109">
      <path d="M434.26 336.27c-.134 1.066.842 2.34 2.128 2.07.386-.08.624-.68.132-.49-.426.108-.88-.07-1.202-.374a1.677 1.677 0 0 1-.396-1.92c-.23.26-.46.486-.66.713h-.002z"/>
      <path d="M437.24 338.34c-1.016 1.166-2.668 1.676-3.427.834-.673-.666-.777-1.206-.468-1.912-.443.482-.822.897-1.12 1.23.046.09.714 1.31 1.707 1.76 1.223.66 2.972-.28 4.018-1.666.738-.91 1.66-2.428.967-3.61-.366-.728-1.24-1.423-1.967-1.698-.36.374-.696.746-1.027 1.1.61-.24 1.148-.136 1.696.312 1.274 1.036.637 2.6-.378 3.646v.002z" stroke="none"/>
      <path d="M437.24 338.34a4.006 4.006 0 0 1-1.162.966c-.444.236-.967.39-1.473.318a1.48 1.48 0 0 1-.71-.296 2.364 2.364 0 0 1-.61-.68 1.61 1.61 0 0 1-.248-.737c-.02-.262.038-.628.14-.767l.123.08-1.11 1.24.013-.1c.276.48.624.937 1.042 1.3.21.18.442.336.694.436a2 2 0 0 0 .796.133c.66-.016 1.088-.206 1.673-.477a6.1 6.1 0 0 0 1.297-1.042c.37-.417.69-.887.936-1.388.24-.6.41-1.06.374-1.696a1.833 1.833 0 0 0-.224-.774 3.063 3.063 0 0 0-.6-.666 4.186 4.186 0 0 0-1.37-.932l.09-.022-1.034 1.093-.086-.117c.236-.107.6-.146.764-.118.264.03.498.117.716.246.427.267.798.66.926 1.146.13.494.002 1.008-.208 1.448a6.128 6.128 0 0 1-.84 1.206v.002zm0-.002c.314-.376.696-.78.794-1.226.196-.44.302-.942.167-1.404-.13-.46-.492-.827-.9-1.064-.407-.238-.924-.306-1.346-.1l-.084-.117 1.018-1.11.04-.042.063.02c.66.21 1.034.66 1.447.96.204.21.39.437.636.698.146.267.23.667.26.862.043.698-.138 1.177-.383 1.7a6.39 6.39 0 0 1-.962 1.44c-.39.433-.86.8-1.368 1.082-.61.278-1.076.478-1.67.493a2.202 2.202 0 0 1-.876-.163 2.734 2.734 0 0 1-.744-.473 6 6 0 0 1-1.073-1.363l-.03-.064.042-.046 1.13-1.22.124.078c-.1.22-.166.46-.142.7.012.24.093.474.217.682.124.207.288.403.472.667.187.166.416.264.667.296.486.082.99-.063 1.436-.273.446-.226.846-.64 1.186-.912z" fill="#486664" stroke="none"/>
      <path d="M616.24 249.26l-40.137 39.616c-3.063 3.032-37.963 36.38-41.106 39.384-1.103 1.322-4.233 4.867-4.66 6.362-2.13 2.31-4.44 6.33-7.198 8.03-.49.62-1.142.394-1.734.737-1.814 1.06-3.697 2.87-6.063 4.37l-12.208 13.606c-.786.864-.996 1.38-.464 1.87l6.624 8.86c1.23 1.214 2.644 1.838 3.196.82 3.146-6.447 10.96-13.76 13.914-20.336 1.764-3.93 3.978-11.068 6.668-12.782 1.94-2.167 7.17-7.73 11.806-12.706.314-.336.624-.668.93-.997l.947-1.02c23.606-23.96 60.716-63.046 70.626-73.667-.777-.776-.286-.312-1.04-1.04z" fill="#6c301e" stroke="#361710" stroke-width=".218" stroke-linejoin="round"/>
      <path d="M431.89 328.11c-1.226.043-2.022-.707-2.848-1.4 1.17.346 2.346.797 3.462.338l-.604 1.062z"/>
      <path d="M667.06 220.1l-31.804 26.22c-.306.373-.624.266-.93 0l-2.894-2.418c.004-.037.014-.073.014-.11 0-.162-.032-.318-.082-.464l1.42-1.447c.177-.22.12-.31-.123-.646-.182-.19-.342-.366-.686-.6-.228-.177-.416-.037-.642.176l-1.434 1.476c-.734.03-1.33.63-1.362 1.366-19.238 18.73-36.794 36.436-64.938 63.872l-22.673 21.66c-.806 1.042-4.29 2.906-6.696 4.41-.818.632-1.624 1.016-1.817 1.643l-1.844 6.436c-.683 1.194-2.432 4.003-2.614 4.193 2.37 2.386 2.248 2.212 3.866 3.728 1.82-2.023 6.69-7.112 11.117-11.863.367-.382.38-.422.833-.97-.346-.488-.927-1.206-1.393-1.662a34.106 34.106 0 0 0-1.2-1.093c-.246-.212-.47-.39-.63-.646-.162-.167.24-.446.424-.643 26.466-26.68 64.963-63.696 78.277-76.696a1.41 1.41 0 0 0 1.026-.096l2.786 3.21c.666.662 1.21.64 1.736.396l31.86-28.64z" fill="#b2b6ba" stroke-width=".218"/>
      <path d="M430.96 330.39c.2.03.406.048.606.03a1.6 1.6 0 0 0 .674-.16l-.017.018a124.9 124.9 0 0 1 1.476-4.744l.006.027c-.196-.222-.436-.42-.73-.496.298.067.668.244.77.46l.01.01-.004.016c-.23.798-.468 1.69-.71 2.382-.247.79-.493 1.68-.764 2.366l-.006.014-.01.006a1.407 1.407 0 0 1-.602.14 2.87 2.87 0 0 1-.61-.068z" fill="#486664" stroke="none"/>
      <circle cx="438.179" cy="328.136" r=".619" fill="none" stroke-width=".164"/>
      <circle cx="434.436" cy="331.877" r=".619" fill="none" stroke-width=".164"/>
      <path d="M440.97 322.38c-.32-.24-.616-.606-.906-.776a11.68 11.68 0 0 1-.832-.864c.32.24.616.606.906.776.288.273.67.66.832.864z" fill="#486664" stroke="none"/>
      <path d="M602.17 269.06l3.487 3.41.646-.686-3.487-3.41-.646.686z"/>
    </g>
    <use height="100%" width="100%" xlink:href="#b" transform="rotate(-177.16 487.09 -.23)"/>
    <g stroke="#24420e" stroke-width=".164">
      <path d="M433.91 366.36c-7.866-3.32-26.89-.67-29.22.932 16.286 8.01 29.64 4.674 29.22-.932zm89.02 3.32c7.866-3.32 26.89-.67 29.22.933-16.286 7.982-29.64 4.673-29.22-.933z" fill="#67923d"/>
      <path d="M433.76 366.48c.32 6.606-12.79 8.886-29.076.903 16.296.932 27.793.378 29.076-.903zm89.32 3.29c-.32 6.606 12.79 8.886 29.076.903-16.296.933-27.793.408-29.076-.903z" fill="#406326"/>
    </g>
    <g id="c">
      <path d="M608.49 369.99c-20.733-30.12-61.996-64.61-76.102-67.99 3.667-.167 11.46 3.88 14.67 6.948 23.94 16.427 44.3 36.803 66.664 69.822-1.268 1.246-2.082 1.98-3.446 3.06l-.786-.83z" fill="#b2b6ba" stroke="#486664" stroke-width=".218"/>
      <path d="M610.66 369.76l-1.46 1.394c-23.01-29.62-66.094-67.946-76.67-69.13 30.08 13.866 66.392 41.77 78.034 67.66l.086.086z" fill="#8c969d"/>
      <path d="M610.66 369.76l-1.448 1.397-.004.003-.003-.004c-6.326-6.824-10.976-13.39-16.864-19.73a336.016 336.016 0 0 0-18.366-18.337c-6.36-6.87-12.943-11.496-19.81-16.76a196.868 196.868 0 0 0-10.642-7.664c-3.6-2.393-7.297-4.662-11.133-6.644l.094-.196c7.892 3.644 16.34 8.196 22.376 13.28 7.038 6.092 13.676 10.716 20.028 16.632 6.362 6.92 12.422 12.136 18.328 18.497 6.902 6.367 11.63 12.892 17.343 19.426zm0 0c-6.74-6.61-11.494-13.012-17.42-19.363-6.916-6.36-11.99-12.666-18.36-18.463-6.366-6.904-12.998-11.616-20.036-16.69-7.036-6.07-14.478-9.606-22.36-13.23l.096-.196c3.846 2 7.64 4.27 11.144 6.67 3.6 2.406 7.108 4.96 10.642 7.686 6.864 6.278 13.444 10.918 19.798 16.798a336.06 336.06 0 0 1 18.36 18.37c6.867 6.363 11.49 12.966 16.79 19.8l-.007-.002 1.463-1.39z" fill="#486664"/>
      <g fill="#fab81c" stroke="#6c301e" stroke-width=".109">
        <path d="M617.6 366.07c-1.974.61-3.726 1.263-6.268 2.226-.228 1.397-1.963 2.967-3.687 3.31-.297-.377-.367-.487-.692-.77a.13.13 0 0 0-.17-.038c-.14.076-.33.18-.672.34-.61-.103-1.336.197-1.66.976-.377.97.386 2.248 1.226 3.084.924.73 1.387 1.07 2.468.92 1.083-.224 1.68-1.213 1.926-1.628 3.72 4.602 6.617 6.932 11.23 10.64 2.098.016 3.224-1.307 2.62-2.803-.233-.602-.84-.836-1.333-.662.04-.16.024-.306 0-.46 2.463-2.266 3.614-6.09.916-9.874-2.224-4.03-4.712-6.396-7.088-6.38h-.012zm6.246 4.63c.438.742.692 1.38 1.024 2.064 1.483 3 .196 6.602-2.334 7.706-.123-.006-.086-.02-.213.022.413-.687-.827-2.164-1.46-1.64.3-.768-.67-2.018-1.462-1.693.416-.706-.632-1.906-1.42-1.616.46-.767-.323-1.866-1.242-1.666.277-.818-.418-1.763-1.362-1.698.08-.723-.167-1.12-.607-1.46 1.11-.846 2.346-2.16 3.437-2.738 2.72-1.178 4.403 1.073 6.627 2.618z" stroke-width=".218"/>
        <path d="M624.89 362.77c-.616-.263-.766-.76-.687-1.106.17-.342.702-.432 1.217-.178.616.264.802.744.633 1.088-.172.343-.747.46-1.264.196z"/>
        <path d="M624.69 361.76c-.616-.263-.766-.76-.687-1.106.17-.342.702-.432 1.218-.177.616.263.802.744.633 1.088-.172.343-.747.46-1.263.196z"/>
        <path d="M623.97 360.62c-.616-.263-.766-.76-.687-1.106.168-.342.7-.433 1.217-.178.616.264.802.744.633 1.088-.172.343-.748.46-1.264.196z"/>
        <path d="M623.19 369.6c-.616-.263-.766-.76-.687-1.106.17-.342.7-.432 1.217-.178.616.263.802.744.633 1.088-.172.343-.748.46-1.263.196z"/>
        <path d="M622.16 368.61c-.616-.263-.766-.76-.687-1.106.023-.046.007-.136.066-.114.21.11.644.188.697-.136-.066-.113-.146-.227-.07-.142.16.004.464.134.636.222.617.263.803.744.634 1.088-.172.343-.747.46-1.264.196v-.007z"/>
      </g>
      <path d="M611.27 363.6c.682-1.774 2.047-3.414 3.608-3.806m-3.278 4.066c1.263.262 3.31-1.243 3.806-2.688m-2.616 4.038c1.666.38 3.29-1.218 3.934-2.409m-2.444 3.989c1.967.064 3.164-1.326 3.74-2.39m-2.23 3.92c1.66.01 3.172-1.36 3.646-2.424m-2.186 3.824c1.808-.073 3.084-.896 3.62-2.076m-1.98 3.496c1.66.096 3.003-.896 3.443-1.862m-1.663 3.312c1.66.096 2.696-.93 3.136-1.897" fill="#fab81c"/>
      <path d="M611.27 363.6a7.112 7.112 0 0 1 1.309-2.329c.293-.338.616-.664.984-.914.367-.26.776-.467 1.214-.662-.424.14-.813.36-1.164.63-.36.268-.67.678-.962.917-.677.674-1.028 1.447-1.392 2.26zm.23.26c.406.067.81-.046 1.18-.193a4.88 4.88 0 0 0 1.048-.692c.328-.233.63-.606.9-.802.272-.298.613-.628.678-1-.123.39-.36.74-.613 1.066-.264.316-.672.69-.9.836a4.673 4.673 0 0 1-1.084.682c-.386.136-.81.218-1.21.116zm1.19 1.46c.406.07.818.036 1.204-.086.386-.12.747-.31 1.076-.648.333-.23.634-.606.91-.804.28-.298.628-.623.744-.97a4.68 4.68 0 0 1-.68 1.026 6.236 6.236 0 0 1-.91.837 3.703 3.703 0 0 1-1.117.64c-.402.107-.832.12-1.227.006zm1.49 1.68a4.21 4.21 0 0 0 1.146-.183 3.833 3.833 0 0 0 1.033-.607 4.72 4.72 0 0 0 .866-.764c.26-.287.487-.606.694-.936a4.662 4.662 0 0 1-1.6 1.79c-.327.22-.688.396-1.07.497-.382.104-.78.136-1.17.103zm1.61 1.63c.767-.042 1.493-.332 2.113-.766.314-.212.6-.463.86-.74.26-.276.493-.68.672-.92-.138.36-.367.686-.61.977-.26.293-.646.66-.86.773a4.236 4.236 0 0 1-1.036.617c-.37.12-.767.183-1.14.168zm1.46 1.4a7.09 7.09 0 0 0 1.078-.187 4.63 4.63 0 0 0 1.013-.388c.323-.164.62-.378.88-.63.26-.26.477-.646.66-.87-.132.344-.337.66-.69.93-.266.27-.662.49-.89.667a4.61 4.61 0 0 1-2.14.478zm1.64 1.42c.346-.004.687-.04 1.02-.12a4 4 0 0 0 .962-.36c.303-.166.683-.363.834-.683.26-.23.47-.496.636-.8a2.624 2.624 0 0 1-.678.86 3.676 3.676 0 0 1-.842.62c-.31.168-.642.28-.986.344-.342.066-.693.08-1.036.04zm1.78 1.46a3.94 3.94 0 0 0 .96-.12 3.306 3.306 0 0 0 1.617-.986 4.03 4.03 0 0 0 .66-.79 3.066 3.066 0 0 1-1.24 1.496 2.983 2.983 0 0 1-.918.362 3.018 3.018 0 0 1-.98.038z" fill="#6c301e"/>
    </g>
    <use height="100%" width="100%" xlink:href="#c" transform="rotate(-176.692 489.967 -.41)"/>
    <g stroke="#24420e" stroke-width=".164">
      <path d="M409.24 240.02c7.21-2.367 18.73-16.463 19.478-17.917-16.693 4.164-22.767 14.343-19.478 17.917zm146.74 4.7c-1.702-7.046-13.28-19.01-16.668-19.91 2.763 16.16 11.916 22.768 16.668 19.91z" fill="#406326"/>
      <path d="M409.24 240.02c-3.326-3.674 3.792-13.666 19.34-17.82-10.968 8.403-19.2 16.178-19.34 17.82zm146.74 4.7c-3.666 2.892-12.72-4.664-16.486-19.77 7.163 11.072 13.934 19.61 16.486 19.77z" fill="#67923d"/>
    </g>
    <g stroke="#999270" stroke-width=".164">
      <path d="M462.21 318.1s-6.168.662-7.884-7.833c-1.846-9.087 6.306-10.062 6.306-10.062s8.103-.78 13.16-.91l2.24 17.964-12.812.84z" fill="url(#d)"/>
      <path d="M463.02 316.36s-3.986.762-4.807-6.663c-.683-4.473 2.186-6.108 2.186-6.108l9.236 1.663.06 8.24-6.664.867z" fill="url(#e)"/>
      <path d="M460.4 304.7s6.906-.43 8.99-.83l1.28 6.71-7.102.446s-.487-6.166-3.168-6.326z" fill="url(#f)"/>
      <path d="M449.16 300.36s7.676-1.867 8.617 6.49c.246 2.18-.942 7.166-4.666 8.613l13.876-1.466-1.266-16.007-4.676.39s-9.923.34-11.806 1.07z" fill="url(#g)"/>
      <path d="M462.2 318.1c.047 0 61.903-3.49 67.217-3.274 16.743-8.638-.076-42.66-13.342-61.632 1.616-4.276-29.868-13.892-44.047-13.024-1.782.11-3.606.227-6.164.364-7.696.816-7.776 10.694-4.637 16.923 3.046 6.043 30.316 66.126 11.14 60.317l-1.176.236z" fill="#f9f0aa"/>
      <path d="M607.79 273.34c-3.62-7.304-7.734-14.36-11.718-20.046 1.614-4.276-29.86-13.892-44.047-13.024-1.782.11-3.606.227-6.164.364-7.696.816-7.774 10.694-4.636 16.923.966 1.898 4.3 8.04 7.847 16.733" fill="url(#h)"/>
      <path d="M466.04 284.96c6.666 14.66 8.664 30.117-1.64 32.907l-1.178.236c.047 0 61.903-3.49 67.216-3.274 8.638-4.686 7.793-16.806 3.207-29.944" fill="url(#i)"/>
      <path d="M447.4 243.49c-3.706 0-4.666 3.662-4.606 6.817.134 6.91 4.606 6.192 4.606 6.192l6.966-.333 2.867-12.163-8.822.486z" fill="url(#j)"/>
      <path d="M447.4 243.63l8.822-.486.908 9.086-7.696.337s2.49-7.274-2.034-8.937z" fill="url(#k)"/>
      <path d="M496.12 263.29c6.686-1.074 6.696-10.07 2.026-13.673-16.498-.67-36.896-.143-60.63.96 1.676-.06 6.337.376 6.866 6.61.243 2.863-1.164 6.492-3.06 6.986-1.863 1.462-3.906 1.462-3.906 1.462.248.096 2.163.007 3.6-.087.738-.048 2.66-.264 3.064-.33 21.012-2.762 41.987-1.823 41.987-1.823l.08.003-.006-.008z" fill="url(#l)"/>
      <path d="M468.47 267.42c-.143-.33-.323-.76-.73-.806-.26.014-.646-.062-.667-.392.236-.113.633-.04.794-.066.66.01 1.113-.114 1.67-.148.338.092.262.637-.104.463-.408.093-.176.663-.076.81.444 1.034.872 2.076 1.328 3.104.127.303.38.67.722.606.362.036.766.046 1.09-.116.31-.2.242-.624.2-.937-.124-.364.64-.282.496.043.13.43.28.864.447 1.27-.022.2-.276.143-.42.168-.993.077-1.988.132-2.98.224-.317-.017-.796.28-.99-.096-.118-.386.612-.17.696-.463-.003-.327-.196-.616-.307-.916-.39-.917-.78-1.836-1.17-2.76zm4.83-.34c-.14-.32-.302-.72-.687-.796-.247-.022-.663-.017-.616-.374.167-.162.467-.068.67-.092.692.02 1.176-.09 1.76-.144.29-.027.4.618.026.444-.368.012-.383.406-.233.66.47 1.143.96 2.278 1.437 3.416.106.246.24.648.64.686.262.06.648-.03.706.316-.04.267-.434.12-.63.16-.622-.036-1.042.032-1.666.12-.226.064-.66.027-.66-.27.064-.273.686-.07.61-.402-.04-.326-.216-.616-.33-.92l-1.136-2.694zm4.46.71c.09.227.404.064.686.076.263-.026.643-.216.62-.61-.044-.46-.266-.907-.633-1.182-.34-.24-.78-.213-1.172-.162-.022.166.1.306.146.464l.664 1.326zm.668 1.696c.164.36.28.746.666 1.017.244.172.67.093.843.066.302-.022.48-.332.386-.61-.142-.636-.664-1.3-1.238-1.437a2.43 2.43 0 0 0-.916 0c-.026.143.09.288.134.43l.224.633zm-2.034-2.37c-.168-.36-.31-.77-.688-.927-.246-.082-.643.03-.696-.324.066-.303.662-.09.8-.16.866-.022 1.744-.263 2.696-.003.734.182 1.39.81 1.46 1.687.024.377-.262.684-.682.837-.04-.136.367.06.606.082.682.186 1.118.676 1.377 1.143.2.398.367.93.04 1.314-.362.396-.94.413-1.438.438-.76.02-1.606.026-2.246.172-.267.047-.468-.482-.09-.46.37-.012.404-.412.244-.667l-1.276-3.046zm7.416-1.906c.327-.064.368.316.468.632.098.284.276.642.348.83-.277.277-.6-.144-.624-.368-.144-.248-.383-.476-.69-.46a8.31 8.31 0 0 0-1.22.07c-.143.16.066.394.114.677.19.447.36.902.66 1.34.272-.02.62.016.816-.207.076-.23-.27-.747.21-.64.298.17.264.602.416.882.127.388.384.724.492 1.116-.263.29-.624-.13-.62-.363-.187-.347-.624-.306-.96-.296-.24-.06-.074.172-.04.284.216.493.384 1.01.66 1.476.207.342.66.29.993.28.33-.02.734-.026.927-.34.216-.26-.274-.76.132-.83.346-.03.336.376.428.607.073.28.186.66.284.823-.026.2-.277.14-.423.163-1.02.066-2.042.11-3.06.19-.3 0-.806.24-.902-.198.026-.287.646-.136.664-.644-.073-.346-.26-.66-.373-.993-.377-.896-.732-1.8-1.123-2.69-.14-.297-.368-.62-.73-.63-.24.047-.602-.13-.463-.407.347-.067.712-.02 1.066-.066l2.77-.164zm2.31 1.32c-.164-.348-.302-.77-.68-.93-.266-.076-.726.014-.696-.394.247-.19.66-.03.97-.09.8-.01 1.62-.237 2.406 0 .826.23 1.616.973 1.673 1.842.027.416-.307.763-.686.864-.296.016.23.1.31.196.632.304 1.07.877 1.406 1.474.076.226.62.696.686.246-.027-.49.638-.076.488.264.002.366-.362.687-.682.683-.464.036-.904-.232-1.138-.624-.42-.663-.708-1.223-1.266-1.662-.23-.166-.66-.27-.83-.162-.068.14.07.28.106.416.18.41.306.846.647 1.223.2.31.693.368.93.366.36.09.26.676-.123.433-.686 0-1.176-.044-1.763.077-.27.126-.866.01-.66-.37.283-.017.676-.173.48-.626-.332-.872-.7-1.73-1.046-2.698l-.266-.627zm1.404.893c.134.326.696.146.86.114.36-.08.36-.608.236-.777-.164-.47-.374-1.03-.89-1.196-.263-.036-.846-.202-.886.162.19.636.423 1.064.63 1.683l.06.123zm7.216 1.717c.11.26.213.61.638.666.266.06.666-.024.717.33-.06.266-.44.106-.636.143-.64-.06-1.077.01-1.61.083-.23.07-.66-.03-.618-.32.126-.21.648-.037.62-.402-.086-.4-.276-.767-.416-1.16-.383-.962-.762-1.926-1.148-2.886-.096-.306-.443-.297-.702-.28-.274.002-.683.06-.684.416-.087.23.218.617-.044.736-.3.064-.362-.276-.426-.487-.098-.322-.26-.62-.386-.927.036-.214.32-.176.493-.194 1.377-.068 2.764-.12 4.13-.174.304-.047.604.19.62.477.107.336.27.663.413.974-.114.33-.608.047-.664-.196-.2-.347-.61-.69-.94-.71-.267.013-.642-.086-.816.146.007.24.146.463.22.678l1.226 3.086zm3.73-.91c-.192 0-.097.242-.118.367.012.282-.017.67.03.848.132.31.627.234.784.318.23.13.173.602-.136.388-.422-.026-.86-.068-1.267.034-.26.133-.713-.123-.493-.392.2-.034.448-.1.494-.334.072-.414.034-.838.048-1.266l.022-3.714c.12-.28.614-.044.603.166 1.192 1.616 2.37 3.046 3.693 4.636.192.232.462.4.768.417.26.002.402.63.027.426-.61-.028-1.026-.062-1.636.023-.228.006-.492.112-.696-.022-.243-.178-.07-.436.196-.403.362-.1-.006-.476-.117-.662-.19-.266-.38-.613-.69-.762-.17-.084-.373-.022-.668-.03-.36.01-.706.02-1.066.034zm1.173-.612c.182.012-.067-.166-.087-.236-.424-.664-.848-1.11-1.273-1.663.084-.013.017.176.04.266-.003.662.003 1.123-.003 1.684.44-.012.884-.027 1.324-.04zm3.067-1.848c-.16-.398-.36-.887-.818-.98-.243.043-.702-.178-.462-.44.66-.008 1.103.03 1.663-.017.698-.06 1.416-.042 2.08.206 1.46.492 2.672 1.778 2.914 3.32.107.606-.08 1.304-.626 1.642-.736.467-1.642.38-2.47.334-.47-.023-.938.04-1.404.086-.304-.042-.337-.613.023-.467.373-.012.366-.422.23-.668l-1.13-3.026zm1.97 2.494c.16.34.24.766.663.976.302.143.667.116.98.08.44-.06.714-.493.718-.91.028-.766-.28-1.476-.63-2.126-.376-.7-1.066-1.233-1.846-1.372-.324-.063-.666-.103-.99-.06-.07.124.06.273.086.402l1.12 3zm-21.11 12.416c.116.36.44.6.806.634.267.046.7-.016.713.364-.138.234-.63.07-.77.122a8.628 8.628 0 0 0-1.66.093c-.276.01-.666.126-.837.048-.243-.116-.193-.47.108-.426.247-.068.604-.136.622-.46-.023-.284-.182-.634-.278-.798-.386-.917-.76-1.838-1.162-2.76-.086-.326-.446-.336-.716-.286-.248.047-.616.124-.677-.22.03-.292.497-.238.703-.39.312-.12.62-.266.94-.366.216-.047.324.16.38.32.67 1.368 1.14 2.74 1.71 4.104zm.76-4.61c.682-.026 1.367.077 2.046.002.3-.03.096-.497.384-.47.37.017.31.477.336.74a.618.618 0 0 1-.67.682c-.633.03-1.066-.06-1.698-.02.12.41.288.81.446 1.208.027-.134.46-.166.64-.18 1.063-.048 2.166.66 2.612 1.643.216.477.328 1.1-.028 1.64-.387.466-1.03.66-1.696.664-.49-.007-1.064-.113-1.363-.66-.167-.216-.138-.68.22-.64.306.003.66.263.61.696.163.222.626.144.776.14.3-.01.684-.242.67-.66.006-.486-.186-.96-.466-1.368-.292-.423-.783-.708-1.303-.696-.293-.06-.647.148-.827.147-.284-.037-.334-.366-.436-.68a23.87 23.87 0 0 1-.66-1.818c-.02-.107.076-.193.177-.18zm6.86 1.02c-.16-.396-.37-.882-.84-.968-.243.067-.706-.17-.463-.43.667-.022 1.117 0 1.673-.067.704-.086 1.432-.07 2.106.176 1.486.494 2.71 1.82 2.934 3.388.088.684-.116 1.238-.633 1.663-.718.467-1.608.398-2.424.378-.463-.006-.9.07-1.347.128-.3-.034-.363-.603.008-.46.373-.028.343-.44.202-.683-.406-1.007-.81-2.017-1.216-3.023zm2.03 2.46c.16.34.26.764.69.97.302.136.664.098.973.063.44-.076.687-.624.678-.94.004-.762-.324-1.48-.693-2.13-.39-.69-1.078-1.213-1.87-1.332-.322-.043-.66-.083-.98-.02-.066.127.067.273.098.403l1.206 2.998zm6.44-4.26c.312-.063.363.293.437.604.1.284.246.66.346.832-.19.31-.607-.067-.688-.283-.146-.247-.366-.62-.674-.612a9.647 9.647 0 0 0-1.234.036c-.226.1.016.39.064.666.183.462.346.913.643 1.368.266-.01.673.012.798-.162.176-.212-.267-.736.213-.68.327.12.277.67.416.838.123.397.364.748.49 1.14-.176.33-.644-.066-.694-.302-.14-.32-.62-.362-.828-.36-.206-.036-.37.01-.226.216.216.616.38 1.064.666 1.64.204.348.66.303.996.3.33-.013.736-.01.94-.318.206-.243-.197-.668.082-.81.337-.097.416.276.466.62.076.308.184.606.29.902-.032.198-.28.133-.427.163-1.03.044-2.06.067-3.09.128-.286-.02-.69.206-.87-.114-.182-.396.604-.18.632-.624.02-.306-.16-.673-.26-.866-.386-.966-.762-1.937-1.148-2.898-.136-.313-.36-.66-.74-.68-.237.042-.603-.136-.467-.41.367-.06.728-.006 1.09-.036l2.78-.106zm-27.28 14.28c.16.487.668.686 1.11.818.77.26 1.6.618 2.16 1.168.306.37.618.864.496 1.342-.04.496-.466.87-.924.99a2.49 2.49 0 0 1-1.734-.096c-.266-.116-.166.467-.497.27-.24-.182-.164-.66-.296-.816a9.043 9.043 0 0 0-.386-.964c.013-.326.48-.166.496.098.327.696.924 1.12 1.633 1.126.368.01.807-.18.838-.683.007-.636-.42-.964-.866-1.183-.64-.332-1.376-.437-1.994-.812-.666-.334-.947-.964-.948-1.608.013-.437.37-.778.768-.903a2.63 2.63 0 0 1 1.667-.063c.24.126.34-.274.696-.076.116.196.086.46.194.672.08.286.27.637.334.826-.16.244-.466.014-.617-.203-.222-.366-.618-.772-.984-.806-.346-.026-.786-.03-1.006.288-.097.164-.092.36-.03.616zm6.69-1.66c.327-.06.336.314.418.628.08.272.21.627.29.8-.14.286-.494.024-.637-.212-.136-.26-.337-.672-.672-.662-.41-.007-.82.03-1.226.076-.227.1-.007.39.026.67.168.462.296.91.467 1.366.267-.02.676-.01.8-.18.194-.2-.194-.606.138-.696.373-.047.344.44.434.684.097.46.336.86.468 1.286-.146.317-.633.01-.66-.247-.113-.33-.484-.4-.79-.368-.178-.01-.42-.013-.276.21.18.606.318 1.027.66 1.612.12.284.46.346.726.323.392-.027.846.016 1.163-.282.244-.234.04-.686.094-.863.26-.2.626.068.6.342.07.346.16.687.267 1.022-.04.2-.29.142-.444.168-1.018.078-2.037.133-3.063.228-.28-.013-.684.236-.866-.087-.168-.384.467-.207.638-.602.08-.296-.098-.676-.173-.864-.336-.98-.664-1.966-1.002-2.94-.116-.308-.327-.66-.7-.664-.237.066-.69-.132-.428-.402.346-.072.71-.028 1.064-.07l2.774-.198zm4.18 4.14c.09.304.27.638.612.7.26.09.666-.073.732.286-.012.328-.493.16-.712.204a6.28 6.28 0 0 0-1.623.104c-.218.032-.646.108-.61-.188-.063-.336.464-.147.674-.4.08-.26-.066-.616-.136-.764-.337-1.006-.663-2.014-1.008-3.016-.116-.292-.27-.674-.63-.708-.232-.01-.63-.03-.668-.367.176-.166.486-.062.713-.082.73.016 1.46-.192 2.18-.144.76.03 1.483.608 1.736 1.228.166.406.22.917-.08 1.276-.386.464-1.02.647-1.68.622-.21-.028-.04.19-.026.3.106.318.212.634.316.96zm-.67-1.72c.204.03.46-.026.676-.083.313-.064.478-.4.396-.696-.087-.422-.227-.864-.643-1.174-.304-.263-.746-.26-1.112-.163-.14.122.002.32.036.47.183.66.366 1.1.66 1.647zm6.16 1.43c.09.266.17.61.492.662.246.064.66-.036.69.32-.06.266-.44.116-.643.166-.64-.04-1.076.03-1.606.112-.226.077-.66-.023-.494-.313.137-.213.66-.06.644-.416-.066-.39-.218-.766-.33-1.133-.317-.968-.63-1.936-.96-2.902-.077-.31-.43-.29-.68-.27-.264.02-.62.048-.692.36-.083.266.04.634-.016.78-.237.162-.467-.09-.467-.33a6.688 6.688 0 0 0-.344-1.002c-.01-.24.304-.22.48-.236 1.38-.082 2.76-.17 4.14-.248.302-.066.49.188.483.47.083.336.223.664.346.976-.068.283-.486.13-.602-.12-.174-.362-.446-.732-.874-.76-.28-.006-.626-.068-.86.123-.063.206.078.403.126.6.36 1.063.696 2.127 1.046 3.19zm2.1-3.29c-.106-.306-.22-.693-.67-.79-.237-.06-.66.01-.627-.366.096-.212.417-.08.608-.12.6.027 1.194-.06 1.788-.118.267-.12.48.42.162.42-.266 0-.646.19-.442.476.132.63.326 1.046.486 1.668.24.733.467 1.47.717 2.2.068.23.26.432.6.44.24.002.663.036.688.38-.18.166-.48.068-.71.08-.637-.044-1.07.048-1.603.114-.232.1-.636-.14-.392-.378.206-.097.647-.043.617-.384-.078-.41-.237-.8-.367-1.2l-.763-2.332zm6.76-1.6c.317-.067.333.306.404.617.078.277.202.64.28.816-.146.284-.496.018-.634-.22-.133-.262-.33-.676-.666-.66a9.663 9.663 0 0 0-1.232.062c-.23.094-.016.388.013.668.16.462.28.912.443 1.368.268-.01.678.002.806-.163.2-.196-.18-.607.164-.69.376-.04.337.446.424.69.086.46.32.86.443 1.29-.116.288-.627.04-.628-.216-.096-.32-.43-.462-.74-.422-.146.017-.602-.076-.367.17.176.616.306 1.06.632 1.647.118.286.448.363.726.334.394-.02.86.034 1.164-.267.26-.227.064-.68.113-.847.263-.192.626.076.496.36a9.3 9.3 0 0 0 .248 1.02c-.04.196-.28.14-.43.16-1.03.06-2.063.096-3.092.17-.276-.017-.644.204-.838-.066-.218-.387.38-.26.607-.486.134-.266-.042-.647-.108-.81-.32-.996-.63-1.994-.96-2.986-.11-.323-.316-.704-.704-.716-.237.062-.69-.14-.423-.408.343-.064.704-.016 1.064-.06.937-.048 1.876-.098 2.81-.147zm2 .96c-.066-.368-.34-.677-.734-.622-.374.097-.6-.67-.033-.43.608.003 1.03-.078 1.63.036.242.263.438.676.662.86l2.17 2.903c-.16.036-.036-.186-.063-.3l.366-3.643c.273-.226.73-.13 1.077-.202.282-.042.926-.136.746.36-.338.064-.77.22-.637.646.36 1.197.738 2.388 1.116 3.68.068.418.49.646.867.627.317.017.333.662-.048.43-.693-.013-1.19-.06-1.78.064-.264.09-.82.06-.64-.366.298-.064.796-.143.687-.673-.317-1.06-.667-2.113-.984-3.17.07.096-.01.266-.004.377-.096.99-.228 1.976-.292 2.968-.04.26.06.674-.074.798-.236.116-.386-.113-.603-.276l-2.866-3.698c.098-.036.086.21.14.29.307.96.69 1.928.912 2.882.1.388.494.6.848.606.378.193.098.647-.232.403-.6-.072-.998.028-1.493.084-.314-.01-.33-.613.03-.447.468.004.326-.623.216-.8-.34-1.092-.68-2.184-1.022-3.276a3.36 3.36 0 0 1 .042-.012zm8.74.86c.06.226.364.074.626.097.286-.016.62-.176.636-.498.01-.437-.167-.906-.6-1.19-.33-.262-.77-.23-1.16-.19-.042.144.062.3.092.46l.406 1.33zm.487 1.698c.126.348.193.743.46 1.023.238.18.668.106.843.088.267-.02.487-.23.46-.6-.03-.696-.316-1.26-.906-1.493-.34-.126-.713-.127-1.07-.09-.11.096.04.288.066.42.066.186.11.37.167.663zm-1.773-2.402c-.117-.346-.224-.77-.686-.934-.233-.088-.642.018-.663-.338.083-.29.644-.08.774-.138.886.01 1.794-.224 2.66.063.693.184 1.284.818 1.28 1.667-.004.408-.334.716-.687.866-.024-.134.36.07.6.096.628.19 1.018.667 1.224 1.094.178.416.28.964-.037 1.33-.362.4-.96.43-1.464.443-.79.003-1.686-.018-2.368.114-.284.036-.396-.602-.04-.447.36 0 .46-.38.324-.666l-.928-3.048zm6.006-.176c-.114-.346-.218-.77-.678-.937-.238-.09-.687.012-.666-.37.193-.266.666-.04.964-.104.68.004 1.368-.13 2.036-.046.79.093 1.66.646 1.74 1.44.144.422.06.966-.368 1.192-.087.096-.62.198-.444.19.604.24 1.12.69 1.412 1.273.16.26.24.68.466.796.267.198.298-.164.343-.327.36-.176.628.316.386.68-.148.42-.68.604-1.06.404-.344-.077-.604-.34-.768-.646-.34-.638-.664-1.17-1.03-1.612-.224-.196-.666-.31-.86-.197-.074.136.04.29.062.43.127.392.208.8.386 1.173.168.327.643.408.873.41.322-.008.346.66-.032.428-.61-.002-1.223-.076-1.83.034-.22-.006-.63.136-.673-.1-.214-.42.418-.228.668-.468.09-.28-.066-.66-.13-.832-.268-.904-.637-1.814-.806-2.714zm1.313.917c.098.327.666.16.806.146.29-.03.46-.326.398-.6-.076-.447-.192-.942-.648-1.264-.306-.226-.72-.224-1.08-.162-.163.128-.012.34.02.603l.406 1.367zm6.887-2.637c.312-.06.326.298.384.61.07.282.188.66.267.833-.134.268-.487.03-.613-.206-.13-.26-.292-.69-.626-.606a9.608 9.608 0 0 0-1.286.006c-.234.083-.03.383-.008.662.136.463.26.913.397 1.36.26 0 .64.01.78-.103.28-.16-.112-.69.186-.702.374-.082.37.394.427.64.068.466.296.887.41 1.34-.126.282-.63.028-.626-.228-.08-.296-.373-.463-.667-.44-.14.027-.666-.12-.436.136.16.623.274 1.063.487 1.668.11.29.44.364.718.366.398-.007.866.062 1.183-.217.26-.216.074-.676.144-.836.268-.18.627.087.486.363.06.344.126.684.214 1.02-.063.194-.296.127-.46.143-1.037.024-2.076.026-3.114.066-.268-.024-.607.16-.818-.066-.263-.378.298-.304.473-.467.19-.22.033-.612-.024-.767-.297-1.023-.68-2.06-.886-3.072-.1-.31-.272-.68-.637-.722-.237.01-.61-.094-.486-.406.3-.106.666-.003.977-.036.983-.017 1.97-.037 2.96-.063zm-32.82 13.13c-.093-.368-.217-.86-.644-.96-.237.007-.644-.06-.6-.392.307-.124.674-.028 1.003-.076.818-.042 1.662-.246 2.464-.027 1.192.273 2.23 1.187 2.682 2.37.226.73.26 1.6-.23 2.236-.62.667-1.41.863-2.213.863-.617-.006-1.237-.01-1.846.113-.236.143-.63-.092-.422-.364.268-.076.67-.16.69-.618-.093-.614-.24-1.017-.36-1.626-.14-.68-.284-1.162-.426-1.738zm1.64 2.44c.1.323.138.71.406.944.276.16.616.097.918.07.47-.062.816-.477.89-.93.14-.768-.08-1.636-.38-2.23-.26-.6-.8-1.08-1.447-1.213-.377-.076-.778-.113-1.167-.038-.086.116.022.273.036.403l.736 2.994zm7.06-4.43c.318-.06.31.304.362.614.066.276.16.64.214.816-.128.26-.487.06-.6-.186-.114-.266-.27-.684-.694-.686a9.26 9.26 0 0 0-1.277.06c-.234.086-.06.384-.032.667.114.462.208.91.336 1.36.274-.017.686-.007.818-.172.214-.188-.13-.617.208-.692.377-.046.303.448.368.688.06.446.262.862.34 1.288-.12.284-.63.068-.61-.21-.07-.323-.402-.462-.703-.417-.147.02-.497-.076-.374.172.134.616.222 1.047.41 1.647.097.29.43.36.697.328.417-.02.906.022 1.22-.306.246-.226.018-.602.17-.833.292-.168.486.14.444.407.033.33.093.668.162.98-.06.2-.307.142-.467.166-1.026.067-2.062.112-3.077.196-.266-.01-.66.164-.78.012-.268-.27.096-.41.326-.44.29-.096.26-.443.188-.677-.263-1.08-.612-2.162-.784-3.24-.083-.3-.24-.676-.6-.7-.236.027-.603-.083-.462-.39.296-.12.662-.03.97-.076.976-.06 1.964-.117 2.928-.178zm6.49 4.1c.046.31.286.67.696.62.237.1.606-.037.733.244.092.36-.39.236-.69.26-.674-.01-1.16-.02-1.718.067-.286.02-.673.097-.868.066-.277-.117-.16-.602.147-.444.27-.06.63-.13.707-.44.033-.27-.08-.628-.126-.79-.216-.92-.422-1.844-.643-2.763-.032-.327-.39-.336-.636-.296-.23.01-.687.163-.66-.162-.036-.34.466-.27.67-.407.37-.127.732-.272 1.107-.38.213-.047.302.16.32.32l.96 4.116zm3.69-3.32c-.073-.363-.28-.786-.69-.84-.29-.066-.67.03-.776.344a.924.924 0 0 0 .37 1.022c.27.198.69.312.893.464.06-.12.247-.36.237-.66a1.446 1.446 0 0 0-.034-.42zm.836 2.893c-.102-.487-.67-.77-.996-.948-.186-.032-.446-.278-.668-.177-.31.268-.467.714-.32 1.107.113.483.48.96 1.006 1 .348.047.76-.11.863-.473a.968.968 0 0 0 .006-.61zm.89-.208c.136.48-.06 1.02-.47 1.3-.682.4-1.366.428-2.017.23-.688-.17-1.082-.662-1.186-1.276-.122-.488.08-1.046.613-1.31.1-.1.488-.14.176-.216-.498-.246-.99-.646-1.092-1.223-.12-.486.106-1.034.662-1.274.868-.468 2.087-.192 2.683.676.218.368.26.86 0 1.22-.14.194-.322.39-.666.443.486.1.928.398 1.223.794.14.187.233.406.283.634zm3.264.666c.243.01.604-.136.64-.393.086-.196-.083-.616.266-.69.308.018.277.377.31.6.026.398-.003.873-.346 1.138-.248.168-.667.092-.836.096-.662-.018-1.123-.136-1.686-.072-.236.024-.496.287-.717.098-.192-.223-.077-.62-.006-.764.194-.616.624-1.117 1.1-1.638.334-.313.71-.662.76-1.136a1.96 1.96 0 0 0-.293-1.187c-.283-.46-.96-.607-1.398-.32-.232.16-.414.496-.228.746.21.163.6.018.7.364.13.233-.004.698-.3.696-.44.068-.838-.278-.962-.686-.18-.61.02-1.13.496-1.406.6-.313 1.134-.306 1.69-.17.666.14 1.042.68 1.214 1.138.164.432.16.933-.08 1.336-.377.717-1.16 1.074-1.66 1.677-.14.166-.243.37-.184.686.076-.203.397-.132.682-.167.347-.014.69.076 1.036.067zm3.94-.42c.038.31.274.676.684.632.228.1.667-.016.716.226.143.346-.334.284-.637.27-.69-.02-1.184-.06-1.773.027-.287.013-.677.082-.863.046-.28-.13-.13-.497.168-.44.27-.062.634-.113.72-.422.038-.266-.067-.624-.108-.784-.196-.923-.38-1.848-.68-2.77-.02-.284-.316-.346-.647-.312-.236-.026-.663.166-.714-.093-.173-.363.346-.346.662-.44.408-.124.81-.276 1.222-.383.21-.044.298.166.312.326.286 1.373.67 2.746.868 4.118z" fill="#b07e09" stroke="none"/>
    </g>
    <g fill="#448127" stroke="#34641f" stroke-width=".218">
      <path d="M476.8 219.41l-3.77 4.483c-1.2 6.24 1.78 9.187 7.648 12.614 4.763 2.96 13.66 3.69 16.327 1.31l-13.714-13.07-6.49-6.337z" fill="url(#m)" stroke="#4c0606"/>
      <path d="M603.68 364.27c-.672-.81-1.362-1.617-2.036-2.424-8.668 11.298-19.248 21.43-32.617 28.676 16.077-4.268 24.946-16.266 34.662-26.16zm-16.44 36.71c6.316-10.772 11.73-21.644 18.203-32.317a274.31 274.31 0 0 0-2.144-2.636c-7.363 12.186-16.98 26.68-16.06 34.962zm41.73-114.6c-.986-4.247-2.27-8.838-4.31-13.066-2.666-6.43-6.622-10.83-11.83-16.804-9.384-10.172-18.772-19.996-31.927-27.26l.07-.137.076.046h.163l-.16-.2h.47l-.266-.266h.437l-.362-.4h.46l-.328-.328h.493l-.273-.364.397.03-.372-.386.648-.11-.444-.278.48-.092-.403-.276.687-.187-.616-.306.663-.288-.632-.466.67-.228-.726-.296.612-.322-.72-.13.488-.666-.702.036.32-.697-.668.066c-.016-.02-.028-.04-.044-.068l.366-.46-.676.12.297-.61-.66.324.186-.706-.628.433.096-.72-.678.497.06-.688-.61.634.046-.726-.603.61-.06-.712-.403.66-.206-.677-.336.677-.17-.717-.317.717-.166-.717-.273.717-.206-.677-.214.677-.16-.696-.24.716-.223-.676-.24.77-.293-.69-.126.824-.362-.673-.04.796-.383-.603-.026.788-.408-.668.032.69-.434-.364.213.744-.626-.306.197.66-.433-.24.164.63-.392-.126.206.47-.03.066-.304-.066.176.366c-.383 1.04-.413 2.28-.36 3.616.01.23.693.464.686.607.276.43.226.66.226.66-1.692 2.68-3.016 4.674-3.176 7.632 1.28-1.62 2.604-3.6 4.462-3.6-.92 1.636-1.367 6.17-.324 6.876l.77-1.362c.03 1.076.18 1.792.39 2.322.323-.66.642-1.27.963-1.742.076 1.606.268 2.716.706 3.312.43-.74 1.008-1.19 1.618-1.67-.21.86-.62 1.672-.39 2.703.646-1.102 1.29-1.763 1.933-2.613-.373 1.686-.034 2.77.417 4.622.4-2.077.667-2.297 1.616-3.17.106 1.902-.26 3.63.142 4.693.874-1.676 1.46-1.436 1.982-2.62-.102 1.68-.42 3.292-.014 4.702.337-1.413 1.244-2.17 1.946-2.67.067 2.198.666 1.836-.802 3.7.68.266 2.64-.376 3.606-.832-.614 1.178-.363 2.102-.878 2.936 1.08-.644 2-1.422 2.9-2.323-.416 1.362-1.624 2.704-.968 4.066.26-1.263 1.273-2.303 2.242-2.493-.16.708-.262 2.174-1.273 2.883 2.444.26 3.408-1.398 4.638-2.704-.16 1.367-.114 2.442 1.662 4.364-.336-2.43.242-1.93 1.343-3.392.632 2.148 1.143 4.43 3.382 6.014-.928-2.267-1.1-3.436-.673-4.862.288 1.473 1.684 3.26 2.02 4.644.206-1.647.44-3.046.96-4.066.663 1.766 1.2 3.67 1.363 6.698.488-1.01.886-2.034 1.16-3.086 19.737 20.623 24.138 46.84 2.614 74.64 7.77-6.248 9.776-13.668 14.092-20.66-4.214 9.287-6.092 19.736-13.613 27.42 7.187-6.202 8.71-11.886 13.033-17.862-4.607 12.6-10.982 26.2-19.82 38.742 1.67 1.707 3.14 3.44 4.717 6.19 1.372-2.284 2.743-4.666 4.097-6.86 9.37-16.436 24.668-37.6 16.913-71.146z"/>
    </g>
    <path d="M473.16 216.29c-.997.226-1.392.642-2.11 1.443.916.2 1.69.246 2.62.264.267-.022.344-.348.287-.686l-.128-.966c-.024-.217-.602-.2-.876-.086l.306-.08z" fill="#eac102" stroke="#a08307" stroke-width=".218"/>
    <path d="M471.04 216.73a9.89 9.89 0 0 1 1.063-.298 9.76 9.76 0 0 1 1.078-.19 9.82 9.82 0 0 1-1.062.297 9.94 9.94 0 0 1-1.078.19z" fill="#a08307"/>
    <ellipse cx="477.68" cy="216.416" rx=".776" ry=".811" stroke="#000" stroke-width=".098"/>
    <ellipse cx="477.86" cy="216.261" rx=".337" ry=".363" fill="url(#n)"/>
    <g fill="#34641f">
      <path d="M488.18 389.69a83.377 83.377 0 0 1 1.628-4.44 96.162 96.162 0 0 1 1.783-4.346c1.26-2.87 2.664-6.672 4.136-8.436a199.68 199.68 0 0 1 4.663-8.166 364.41 364.41 0 0 1 2.463-4.003l2.61-3.968-2.42 4.024a400.06 400.06 0 0 0-2.4 4.033c-1.684 2.7-3.144 6.413-4.616 8.172a133.673 133.673 0 0 0-4.174 8.4 98.092 98.092 0 0 0-1.836 4.316 82.666 82.666 0 0 0-1.628 4.402zm-18.84-9.46a76.798 76.798 0 0 0 4.88-2.376 72.32 72.32 0 0 0 4.703-2.704 72.04 72.04 0 0 0 8.733-6.416c2.766-2.342 6.328-4.894 7.762-7.67a113.66 113.66 0 0 0 3.666-4.1c1.16-1.39 2.29-2.806 3.4-4.236a163.748 163.748 0 0 1-3.317 4.3 111.896 111.896 0 0 1-3.613 4.147 81.9 81.9 0 0 1-7.746 7.624 69.946 69.946 0 0 1-8.786 6.393 71.284 71.284 0 0 1-4.742 2.667 76.913 76.913 0 0 1-4.93 2.28zm37.28-29.34c.77-1.074 1.486-2.186 2.202-3.296.716-1.11 1.416-2.232 2.098-3.362 1.368-2.26 2.69-4.66 3.96-6.866a341.82 341.82 0 0 0 3.76-6.986l3.677-7.026-1.746 3.662-1.783 3.642a266.98 266.98 0 0 1-3.71 7.013 160.464 160.464 0 0 1-4.008 6.86c-1.406 2.24-2.862 4.467-4.442 6.67zm6.89-26.11a68.374 68.374 0 0 0 4.692-6.42 60.202 60.202 0 0 0 3.81-6.974c2.236-4.81 3.84-9.894 4.976-16.07.144-.647.283-1.296.414-1.944a61.004 61.004 0 0 0 .694-6.916c.18-2.644.18-6.3-.03-7.942a60.632 60.632 0 0 0-1.24-7.846 63.36 63.36 0 0 0-2.402-7.68 63.484 63.484 0 0 1 2.607 7.664 60.47 60.47 0 0 1 1.28 7.868c.22 2.66.236 6.314.066 7.966a61.262 61.262 0 0 1-.67 6.944 90.31 90.31 0 0 1-.406 1.96c-1.16 6.184-2.794 10.274-6.066 16.084a69.876 69.876 0 0 1-3.863 6.97 68.223 68.223 0 0 1-4.78 6.364z"/>
      <path d="M610.87 320.07c1.843-1.762 3.47-3.74 4.898-6.86 1.436-2.103 2.682-4.332 3.796-6.623 1.114-2.29 2.098-4.642 3.027-7.016.464-1.186.916-2.378 1.36-3.672l.334-.896c.106-.296.202-.6.294-.904.186-.61.366-1.224.678-1.83l-.006.017c.607-2.624.78-6.096.81-7.67a46.833 46.833 0 0 0-.67-7.698c-.4-2.647-.996-6.06-1.732-7.632a80.218 80.218 0 0 0-2.663-7.304 80.346 80.346 0 0 1 2.666 7.273 67.406 67.406 0 0 1 1.773 7.64c.414 2.66.63 6.136.61 7.722a41.437 41.437 0 0 1-.78 7.71l-.002.008-.002.01c-.22.69-.393 1.204-.682 1.813-.096.306-.19.61-.302.916l-.338.896c-.46 1.193-.907 2.383-1.38 3.67-.94 2.37-1.937 4.72-3.066 7.012-1.126 2.29-2.383 4.62-3.837 6.62-1.46 2.093-3.116 4.06-4.984 6.788z"/>
      <path d="M606.06 349.23c1.202-1.66 2.39-3.327 3.673-4.998l1.778-2.607c.69-.838 1.208-1.664 1.734-2.63 1.068-1.746 1.99-3.676 2.898-6.41.9-1.84 1.82-3.67 2.71-6.616 1.78-3.686 3.604-7.406 4.966-11.228a76.286 76.286 0 0 0 3.46-11.763c.848-4.004 1.417-8.063 1.886-12.13.426-4.066.47-8.18.038-12.248a62.36 62.36 0 0 0-2.726-11.94c-1.36-3.863-3.116-7.676-6.098-11.16 2.013 3.666 3.81 7.264 6.197 11.126a62.396 62.396 0 0 1 2.77 11.96c.446 4.078.414 8.202 0 12.283-.46 4.072-1.016 8.138-1.864 12.163a76.617 76.617 0 0 1-3.496 11.784c-1.477 3.827-3.213 7.643-6.006 11.226-.897 1.843-1.82 3.67-2.727 6.607-.914 1.833-1.84 3.664-2.92 6.41-.636.877-1.163 1.69-1.76 2.622l-1.797 2.49c-1.2 1.66-2.4 3.32-3.618 4.97z"/>
      <path d="M607.81 362.26c2.362-3.836 4.71-7.68 6.964-11.683 2.26-3.9 4.483-7.814 6.466-11.866 1.986-4.037 3.7-8.213 4.996-12.622.66-2.163 1.2-4.336 1.663-6.64a69.28 69.28 0 0 0 .692-3.32c.17-1.11.33-2.226.472-3.34.682-4.463.928-8.968.922-13.468-.006-4.498-.366-9-1.198-13.424-.83-4.42-2.14-8.766-3.977-12.866a64.004 64.004 0 0 0-6.966-11.632 64.076 64.076 0 0 1 7.066 11.49c1.862 4.11 3.177 8.463 4.02 12.882.847 4.43 1.22 8.943 1.24 13.46.017 4.61-.317 9.016-.89 13.486a133.98 133.98 0 0 1-.48 3.346 68.79 68.79 0 0 1-.606 3.328 74.246 74.246 0 0 1-1.674 6.66c-1.31 4.316-3.04 8.496-6.04 12.634-1.997 4.042-4.24 7.963-6.603 11.846-2.276 3.89-4.666 7.714-7.047 11.63zM480 220.77c.474-.012.96.04 1.418.113.47.073.934.174 1.394.294.92.246 1.816.672 2.687.964 1.742.768 3.37 1.776 4.9 2.903a36.81 36.81 0 0 1 4.266 3.786 46.262 46.262 0 0 1 1.904 2.116c.606.73 1.197 1.472 1.767 2.236a60.86 60.86 0 0 0-1.84-2.166c-.626-.71-1.273-1.4-1.942-2.07-1.336-1.34-2.747-2.604-4.266-3.728a26.78 26.78 0 0 0-4.84-2.926c-.866-.397-1.74-.74-2.646-1.004-.906-.267-1.836-.473-2.784-.61z"/>
    </g>
    <g fill="#448127">
      <path d="M496.38 231.67s3.06 1.798 4.726 4.439c0 0-4.717-.884-8.07-4.663"/>
      <path d="M496.38 231.67c.48.26.933.666 1.38.88.44.322.87.663 1.28 1.026.412.36.796.763 1.16 1.163.363.412.704.846.997 1.313l.136.218-.248-.063a14.64 14.64 0 0 1-2.272-.712 16.702 16.702 0 0 1-2.138-1.038c-1.37-.796-2.623-1.8-3.64-3.008a16.17 16.17 0 0 0 3.72 2.866 18.27 18.27 0 0 0 2.13.997 14.4 14.4 0 0 0 2.24.683l-.11.163a11.16 11.16 0 0 0-.966-1.296c-.36-.41-.736-.794-1.126-1.168a17.708 17.708 0 0 0-1.23-1.064 18.66 18.66 0 0 0-1.314-.968z" fill="#34641f"/>
      <path d="M489.68 230.69s7.226 4.61 8.273 4.978c0 0-1.608-3.478-6.06-4.972"/>
      <path d="M489.68 230.69l4.14 2.488c.687.42 1.376.836 2.07 1.243.346.204.694.406 1.044.602.347.194.702.406 1.063.66l-.128.14a10.67 10.67 0 0 0-.926-1.626c-.36-.484-.728-.96-1.142-1.38a10.732 10.732 0 0 0-1.347-1.184c-.48-.36-1-.666-1.642-.926a8.43 8.43 0 0 1 1.696.86c.603.337.967.73 1.4 1.164.432.426.832.883 1.19 1.374.366.49.683 1 .967 1.66l.124.26-.26-.108c-.77-.33-1.438-.767-2.137-1.167-.69-.416-1.376-.84-2.06-1.266a161.66 161.66 0 0 1-4.043-2.646z" fill="#34641f"/>
      <path d="M492.46 228.36s3.76 1.6 4.61 4.38c0 0-6.762-2.842-7.96-4.36"/>
      <path d="M492.46 228.36a10.668 10.668 0 0 1 2.806 1.682 7.17 7.17 0 0 1 1.14 1.194c.33.443.607.936.77 1.47l.066.224-.21-.09a79.6 79.6 0 0 1-2.083-.936 49.78 49.78 0 0 1-2.06-1.003 33.948 33.948 0 0 1-1.994-1.11c-.324-.2-.643-.41-.96-.634-.306-.227-.61-.466-.844-.766.26.286.664.606.876.72.316.21.64.406.97.69.66.376 1.334.722 2.016 1.066a84.16 84.16 0 0 0 4.143 1.886l-.146.13a4.833 4.833 0 0 0-.726-1.416 7.8 7.8 0 0 0-1.09-1.184c-.402-.36-.834-.688-1.287-.986-.46-.306-.92-.68-1.406-.824z" fill="#34641f"/>
      <path d="M486.76 231.26s6.646 4.768 8.613 4.768c0 0-1.948-3.268-6.388-4.762"/>
      <path d="M486.76 231.26c.688.466 1.38.908 2.076 1.36.696.446 1.396.88 2.106 1.298.707.423 1.423.833 2.167 1.2.366.186.738.36 1.118.607.376.146.77.288 1.164.3l-.09.166c-.312-.606-.68-.99-1.07-1.46-.39-.466-.804-.898-1.247-1.308-.44-.41-.916-.788-1.41-1.136a10.974 10.974 0 0 0-1.67-.91c1.13.46 2.166 1.128 3.08 1.933.46.403.896.834 1.292 1.298.4.463.773.944 1.104 1.467l.104.16-.19-.004c-.447-.01-.846-.167-1.236-.303a13.663 13.663 0 0 1-1.133-.623 33.267 33.267 0 0 1-2.168-1.23 63.89 63.89 0 0 1-2.076-1.367 66.27 66.27 0 0 1-2.012-1.447z" fill="#34641f"/>
      <path d="M486.76 232.74s3.46 2.92 6.427 2.92c0 0-1.948-3.268-6.388-4.762"/>
      <path d="M486.76 232.74c.418.312.84.616 1.272.906.428.293.866.673 1.316.83.446.266.902.61 1.376.71.236.1.478.186.723.26.244.07.494.12.74.12l-.088.168a12.4 12.4 0 0 0-1.07-1.46c-.393-.468-.806-.9-1.248-1.31-.442-.41-.916-.787-1.41-1.134a11.007 11.007 0 0 0-1.67-.912c1.13.46 2.166 1.13 3.08 1.934.46.402.894.834 1.292 1.297.4.463.773.944 1.104 1.466l.1.168h-.19c-.66-.002-1.062-.18-1.644-.39a11.46 11.46 0 0 1-1.39-.74c-.442-.28-.87-.68-1.287-.896a17.6 17.6 0 0 1-1.206-1z" fill="#34641f"/>
      <path d="M486.03 226.18s7.207 6.117 8.06 7.896c0 0-6.623-2.994-7.732-4.602"/>
      <path d="M486.03 226.18a61.627 61.627 0 0 1 2.304 1.68 61.03 61.03 0 0 1 2.206 1.808 26.733 26.733 0 0 1 2.063 1.988c.322.362.63.718.912 1.11.276.39.64.803.687 1.28l.072.23-.22-.102a77.007 77.007 0 0 1-2.022-.986 60.288 60.288 0 0 1-1.99-1.06 34.833 34.833 0 0 1-1.934-1.16 16.42 16.42 0 0 1-.92-.66c-.296-.23-.69-.47-.82-.767.247.282.66.606.863.723.306.214.623.413.943.606.64.387 1.296.748 1.967 1.096a87.26 87.26 0 0 0 4.023 1.983l-.148.13c-.14-.433-.384-.84-.663-1.22a12.21 12.21 0 0 0-.888-1.098c-.632-.703-1.32-1.364-2.02-1.994a61.16 61.16 0 0 0-2.16-1.862 71.206 71.206 0 0 0-2.234-1.764z" fill="#34641f"/>
    </g>
    <g stroke="#24420e" stroke-width=".164">
      <path d="M446.02 370.33c-4.89 3.644-18.663 6.43-20.448 4.8 9.943-8.27 19.726-8.47 20.448-4.8zm69.76 4.44c6.264 4.768 21.104 8.063 23.476 7.46-10.642-10.77-22.102-11.862-23.476-7.46z" fill="#406326"/>
      <path d="M444.98 370.3c-.72-3.67-10.468-3.46-20.378 4.776 10.446-3.442 19.238-6.406 20.378-4.776zm69.91 4.41c1.37-4.402 12.794-3.338 23.364 7.462-11.884-6.02-21.947-8.1-23.364-7.462z" fill="#67923d"/>
    </g>
  </g>
</svg>
