<svg xmlns="http://www.w3.org/2000/svg" height="480" width="640">
  <path fill-rule="evenodd" fill="#be0027" d="M0 0h640v480H0z"/>
  <path fill-rule="evenodd" fill="#3b6aa3" d="M26.6 27.343h689.64v428.37H26.6z"/>
  <path d="M314.346 413.236c2.423 1.33 6.267 1.26 8.414.106 137.788-73.3 137.868-274.326.2-346.692-2.667-1.348-6.276-1.276-8.816.104-134.27 73.46-134.63 272.206.2 346.393z" fill-rule="evenodd" fill="#cbe0e6"/>
  <path d="M314.346 416.86c2.142 1.748 6.462 1.68 8.414.106 101.64-76.02 102.134-123.41 97.634-123.407l-200.966.103c-3.073.003 1.77 48.107 94.914 123.198z" fill-rule="evenodd" fill="#add2d9"/>
  <path d="M236.346 331.223c8.713-2.267 19.238-2.866 27.813 1.716 7.618 3.98 12.032 3.942 20.24 4.06 8.69.117 16.344 6.43 24.633 6.676 17.104.448 24.31 8.93 11.014 8.946-6.286.01-19.76-4.19-26.262-3.287-13.687 1.402-22.21 4.41-34.994 18.632l14.777 10.126c12.782-6.21 14.924-11.07 22.002-11.303 7.996-.267 10.713-6.21 19.96-6.222 10.606 1.91 24.734-1.304 33.07-3.17 14.783-3.44 7.76-13.77-1.21-17.616-7.246-3.086-20.81-.114-29.232-3.174-6.376-2.476-1.13-6.464 2.293-7.304 3.46-.638 7.17.494 11.474 1.186 7.68.664 17.33-.074 24.073-1.13 13.944-2.16 13.366-6.26 20.09-6.36 4.91-.236 8.647-1.703 11.99-4.106 3.932-2.632 8.02-8.026 12.786-7.823l12.766.64-17.966 40.406-60.766 61.662-26.286 9.97-67.78-37.613-29.136-44.69 4.664-1.21z" fill-rule="evenodd" fill="#fdf9a1"/>
  <path d="M301.747 291.937l116.016-.64 2.04-10.28s-4.14-.617-7.48-.813c-4.164-.266-11.304 4.367-16.087 4.33-3.383-.026-7.26-6.08-10.647-6.964-6.914-.066-6.44 6.267-12.012 6.413-4.497-.164-6.413-3.688-12.236-3.247-6.107.346-6.662 3.706-13.367 3.616-10.19-.264-14.28-9.096-22.433-9.196-13.607-.162-14.06 12.986-23.796 16.77z" fill-rule="evenodd" fill="#179a3b"/>
  <path d="M301.747 294.416l119.414-.608v-3.244l-122.13.608 2.717 3.244z" fill-rule="evenodd" fill="#fdf9a1"/>
  <path d="M360.818 330.303c1.84 7.063 3.78 9.46 11.196 11.26 7.326 1.8 18.602-6.342 11.667-12.237-6.613-6.416-13.662-8.044-19.487-13.82-12.47-12.32-31.266-42.603-31.273-63.79-.016-18.278-1.778-66.796-1.79-91.33.01-2.303-6.944 6.466-6.933 8.796.32 31.36.27 66.043 1.644 86.666 1.976 23.108 13.003 38.668 22.686 62.712 4.338 6.73 10.608 13.987 12.602 21.767z" fill-rule="evenodd" fill="#a79270"/>
  <text font-family="helvetica" font-size="26.614" stroke="#fff" y="269.487" x="466.114" stroke-width="1.638" fill="#bd0728" transform="matrix(1.33 0 0 1.33 -363.07 -108.06)">
    <tspan>G</tspan>
  </text>
  <text font-family="helvetica" font-size="26.614" stroke="#fff" y="269.607" x="488.066" stroke-width="1.638" fill="#bd0728" transform="matrix(1.33 0 0 1.33 -363.07 -108.06)">
    <tspan>U</tspan>
  </text>
  <text font-family="helvetica" font-size="26.614" stroke="#fff" y="269.69" x="616.063" stroke-width="1.638" fill="#bd0728" transform="matrix(1.33 0 0 1.33 -363.07 -108.06)">
    <tspan>A</tspan>
  </text>
  <text font-family="helvetica" font-size="26.614" stroke="#fff" y="269.642" x="639.632" stroke-width="1.638" fill="#bd0728" transform="matrix(1.33 0 0 1.33 -363.07 -108.06)">
    <tspan>M</tspan>
  </text>
  <path d="M269.623 160.893c-1.64 2.972 3.606-.868 4.772-1.282 6.67-2.372 9.283-10.798 20.773-6.726 9.046 3.907 21.187 1.636 14.84 6.693-7.842 4.694-23.462 9.896-23.77 33.177 1.306 2.277 1.4 1.918 2.49-.623 2.374-6.426 13.696-20.162 19.297-18.936 2.266.684 8.877-6.66 9.032-4.692.6 6.814-8.993 17.676-8.89 33.318.023 3.646 4.608 4.827 6.67 2.262 2.148-2.262 3.368-4.6 7.12-7.672 6.663-6.46 4.817-28.61 6.638-27.622 4.71 6.097 6.432 23.293 12.447 30.346 6.83 6.86 10.642 3.066 9.27-6.086-2.632-16.32-10.246-11.664-13.917-28.633-.746-3.288-.93-6.268 3.423-4.883 6.32 1.643 8.444 4.014 12.414 10.017 3.968 6.726 11.41 11.213 16.71 14.682 7.604 6.766 10.138.732 6.668-6.668-3.963-8.302-12.898-16.186-21.023-18.197-6.166-2.127-8.36-2.33-13.774-3.37-1.608-.32-3.066-3.41-.386-6.116 6.744-3.61 12.617-7.477 19.686-7.677 6.71-.17 12.024 6.208 16.73 6.664 9.382 2.46 9.334-3.496 6.198-7.913-3.396-3.73-10.682-9.984-17.29-9.164-13.638 1.66-12.684 1.28-20.987 6.79-3.047 1.796-6.43 3.776-6.167 1.6 3.038-6.466.207-4.627 4.9-10.088 3.66-4.076 6.33-7.008 9.948-8.026 3.437-.828 7.976-4.478 9.38-6.33 3.372-4.664.466-7.326-4.746-6.764-4.622 1.244-6.964 4.264-10.062 6.086-7.29 2.297-13.174 18.978-14.072 21.34-1.162 2.823-2.447 1.424-2.21-.966 1.063-11.778 2.048-31.498-2.11-39.616-6.262-11.97-6.682-6.388-8.086-.708-3.62 9.024-2.362 17.436-.083 26.28.996 4.414 4.694 9.437 6.367 12.902.477 2.72-1.68-.848-2.777-2.48-3.93-6.016-6.806-10.086-13.207-13.36-4.373-2.77-16.166-3.142-20.267-1.88-1.776.647 1.97 3.08 3.666 4.34 4.292 3.413 12.426 4.476 17.9 7.84 4.7 2.89 8.278 4.76 9.836 8.743.66 2.966 1.612 7.368-.342 7.26-6.128-.293-13.096-4.73-29.467-2.906-8.366 1.106-16.61 8.263-20.233 16.843z" fill-rule="evenodd" fill="#239e46"/>
  <path fill-rule="evenodd" d="M296.28 310.668h4.747v7.912h-4.747z"/>
  <path d="M271.712 267.86c18.826 26.066 49 41.263 49.603 63.1-19.064-.076-39.73.01-68.794-.064 13.608-16.24 21.74-27.206 9.192-63.037z" fill-rule="evenodd" fill="#fdf9ff"/>
  <path d="M264.696 311.642c26.676 6.702 66.11 8.846 76.612-.798.16 6.7-6.34 13.907-11.67 13.907H269.46c6.7-.817 8.96-2.666 18.226-3.037l-26.066.32c-2.878.107-7.996-7.622-7.036-10.392z" fill-rule="evenodd" fill="#a68861"/>
  <path d="M312.697 426.067c2.6 1.426 6.71 1.36 9.023.114 147.763-78.66 147.843-294.328.216-371.88-2.744-1.447-6.73-1.368-9.466.11-143.986 78.82-144.37 292.066.217 371.667zm.734-17.766c2.272 1.267 6.868 1.192 7.878.098 123.686-72.793 126.2-266.096.188-334.03-2.393-1.767-6.873-1.207-8.262.1-118.46 70.063-126.066 264.428.187 333.83z" fill-rule="evenodd" fill="#be0027"/>
  <text font-size="26.614" y="269.487" x="466.114" font-family="helvetica" fill="#bd0728" transform="matrix(1.33 0 0 1.33 -363.07 -108.06)">
    <tspan>G</tspan>
  </text>
  <text font-size="26.614" y="269.607" x="488.066" font-family="helvetica" fill="#bd0728" transform="matrix(1.33 0 0 1.33 -363.07 -108.06)">
    <tspan>U</tspan>
  </text>
  <text font-size="26.614" y="269.69" x="616.063" font-family="helvetica" fill="#bd0728" transform="matrix(1.33 0 0 1.33 -363.07 -108.06)">
    <tspan>A</tspan>
  </text>
  <text font-size="26.614" y="269.642" x="639.632" font-family="helvetica" fill="#bd0728" transform="matrix(1.33 0 0 1.33 -363.07 -108.06)">
    <tspan>M</tspan>
  </text>
</svg>
