<svg xmlns="http://www.w3.org/2000/svg" height="480" width="640" version="1">
  <defs>
    <clipPath id="a">
      <path fill-opacity=".67" d="M-89.048 0h682.67v612h-682.67z"/>
    </clipPath>
  </defs>
  <g clip-path="url(#a)" transform="translate(83.48) scale(.94)">
    <path fill-rule="evenodd" fill="#ba0000" d="M618 612h-731.43V0H618z"/>
    <path d="M241.874 247.803s-61.62-22.226-44.213-79.817c7.172-27.723 19.837-46.602 42.78-66.878 10.763-3.346 21.748-4.78 32.98-6.736-2.96 2.788-6.417 6.677-6.692 9.082-2.47 6.293-.638 12.347 2.628 18.4 4.142 7.01 6.61 14.26 7.408 23.66 1.613 13.223-4.142 26.97-14.678 33.697-6.612 6.1-14.418 6.862-20.792 12.667-4.938 4.86-7.966 9.72-9.08 18.162-.16 16.09 4.223 18.322 9.66 26.766z" fill-rule="evenodd" fill="#fff"/>
    <path d="M232.076 164.476v-.238" fill-rule="evenodd" stroke="#000" stroke-width="2.162" fill="#ba0000"/>
    <path d="M236.337 241.823c-20.078-17.766-18.323-62.46-3.027-77.347" stroke="#ba0000" stroke-width="2.162" fill="none"/>
    <path fill-rule="evenodd" fill="#ba0000" d="M244.634 164.48l3.3 6.618-6.12-2.493-4.674 4.91.8-6.446-6.126-2.484 6.614-1.49.787-6.446 3.29 6.626 6.61-1.6"/>
    <path d="M246.26 243.992s6.126-66.866 63.36-66.66c28.607-1.267 60.368 6.31 66.916 24.234 6.36 9.302 10.942 19.393 16.147 29.862-3.63-2.002-6.918-3.646-10.643-3.736-6.74-.618-11.992 3.008-16.824 7.904-6.488 6.016-11.696 10.498-20.46 14.016-12.2 6.323-26.044 3.66-36.49-4.063-6.81-4.828-10.774-11.777-18.2-16.168-6.096-3.298-11.63-4.768-20.028-3.36-16.432 4.662-16.28 9.406-22.79 16.983z" fill-rule="evenodd" fill="#fff"/>
    <path d="M323.06 210.208l.227-.07" fill-rule="evenodd" stroke="#000" stroke-width="2.162" fill="#ba0000"/>
    <path d="M260.062 236.99c11.104-24.402 64.34-36.818 73.066-26.66" stroke="#ba0000" stroke-width="2.162" fill="none"/>
    <path fill-rule="evenodd" fill="#ba0000" d="M336.298 219.286l-4.31 4.77.69-6.68-6.036-2.934 6.396-1.123.68-6.684 3.362 6.887 6.393-1.137-4.318 4.764 3.372 6.88"/>
    <path d="M260.118 248.027s64.92-11.936 82.382 39.226c10.287 26.723 10.962 49.447-1.727 71.148-6.803 8.976-14.914 16.636-23.496 23.844.777-3.983 1.164-7.687.162-11.28-1.66-6.666-6.66-10.416-12.838-13.44-7.446-3.296-13.67-7.768-19.784-14.94-8.92-9.88-11.732-23.638-7.736-36.892 2.416-7.993 7.747-13.967 9.66-22.394 1.192-6.826.828-12.64-3.174-20.067-9.227-13.183-14.09-12.46-23.342-16.216z" fill-rule="evenodd" fill="#fff"/>
    <path d="M306.643 310.12l.14.193" fill-rule="evenodd" stroke="#000" stroke-width="2.162" fill="#ba0000"/>
    <path d="M268.913 249.09c26.666 2.78 61.22 40.16 47.44 61.166" stroke="#ba0000" stroke-width="2.162" fill="none"/>
    <path fill-rule="evenodd" fill="#ba0000" d="M302.14 326.666l-6.893-2.672 6.43-1.63.864-6.664 3.098 6.706 6.428-1.64-4.616 6.068 3.11 6.7-6.888-2.68-4.607 6.064"/>
    <g>
      <path d="M248.88 263.69s26.88 49.368-14.61 90.083c-22.768 17.38-44.378 24.407-68.77 18.323-10.624-4.01-20.067-9.67-29.482-16.863 4.04-.373 7.704-1.042 10.87-3.012 6.83-3.423 8.127-9.317 9.297-16.096 1.07-8.072 3.606-16.298 8.782-23.184 6.976-11.336 19.296-17.87 32.276-17.603 8.36.074 16.67 3.616 24.176 2.877 6.886-.773 12.267-2.727 18.368-8.68 10.062-12.667 7.992-17.02 9.008-26.966z" fill-rule="evenodd" fill="#fff"/>
      <path d="M206.134 326.283l-.147.188" fill-rule="evenodd" stroke="#000" stroke-width="2.162" fill="#ba0000"/>
      <path d="M260.33 262.43c4.823 26.373-24.16 60.436-46.38 62.708" stroke="#ba0000" stroke-width="2.162" fill="none"/>
      <path fill-rule="evenodd" fill="#ba0000" d="M189.083 326.392l.813-6.378 3.276 6.74 6.63-1.04-4.61 4.677 3.284 6.737-6.12-2.912-4.6 4.684.824-6.377-6.127-2.902"/>
    </g>
    <g>
      <path d="M242.792 262.62s-37.622 41.76-89.786 16.246c-23.963-16.692-37.766-33.748-40.13-68.774.283-11.268 2.464-22.13 6.166-33.074 1.696 3.686 3.643 6.92 6.464 9.262 6.166 4.36 11.49 4.668 18.27 3.42 7.97-1.673 16.627-1.683 24.786.68 13.008 2.813 23.264 12.26 27.232 24.626 2.706 7.9 1.868 16.864 6.32 23.767 3.016 6.237 6.647 10.664 14.284 14.43 16.188 6.32 18.71 1.886 28.42-.46z" fill-rule="evenodd" fill="#fff"/>
      <path d="M160.732 236.146l-.226-.076" fill-rule="evenodd" stroke="#000" stroke-width="2.162" fill="#ba0000"/>
      <path d="M236.03 266.89c-23.27 13.312-66.026-2.696-74.223-21.966" stroke="#ba0000" stroke-width="2.162" fill="none"/>
      <path fill-rule="evenodd" fill="#ba0000" d="M166.296 220.043l6.286-1.362-4.327 4.997 3.183 6.907-6.847-2.826-4.32 6.002.714-6.74-6.862-2.816 6.288-1.34.702-6.744"/>
    </g>
  </g>
</svg>
