<svg xmlns="http://www.w3.org/2000/svg" height="480" width="640" version="1">
  <g stroke-width="1pt">
    <path fill="#006" d="M0 0h640v480H0z"/>
    <path d="M0 0v30.69l372.68 243.023h46.898v-30.69L46.898 0H0zm419.478 0v30.69L46.898 273.612H0v-30.69L372.68 0h46.898z" fill="#fff"/>
    <path d="M174.782 0v273.612h69.913V0h-69.913zM0 91.204v91.204h419.478V91.204H0z" fill="#fff"/>
    <path d="M0 109.446v64.722h419.478v-64.722H0zM188.766 0v273.612h41.948V0h-41.948zM0 273.612l139.826-91.204h31.266L31.266 273.612H0zM0 0l139.826 91.204H108.66L0 20.394V0zm248.387 91.204L388.213 0h31.266L279.662 91.204h-31.266zm171.09 182.408l-139.826-91.204h31.266l108.66 70.81v20.394z" fill="#c00"/>
    <path fill-rule="evenodd" fill="#fff" d="M126.612 416.48l-27.478-2.388 23.717-14.077-16.26-22.972 26.79 9.766 8.448-26.268 8.447 26.267 26.79-9.767-16.26 22.972 23.716 14.077-27.477 2.39 3.786 27.32-19.002-19.993-19.002 19.993M492.164 446.697l-19.346-1.684 16.698-9.913-10.748-16.173 18.166 6.877 6.943-18.49 6.943 18.49 18.164-6.877-10.748 16.173 16.698 9.913-19.346 1.684 2.67 19.23-13.382-14.072-13.382 14.073m2.671-307.008l-19.346-1.683 16.698-9.912-10.748-16.176 18.166 6.878 6.943-18.487 6.943 18.488 18.164-6.878-10.748 16.176 16.698 9.912-19.346 1.684 2.67 19.232-13.382-14.073-13.382 14.072M384.248 274.83l-19.346-1.684 16.698-9.913-10.748-16.173 18.166 6.877 6.943-18.49 6.943 18.49 18.166-6.877-10.748 16.173 16.698 9.913-19.346 1.684 2.67 19.23-13.382-14.072-13.382 14.073m206.48-48.009l-19.317-1.683 16.728-9.916-10.77-16.173 18.18 6.878 6.9-18.49 6.97 18.49 18.13-6.878-10.72 16.173 16.692 9.914-19.363 1.682 2.662 19.23-13.383-14.07-13.38 14.07m-22.247 40.414l-9.603 8.022 2.97 12.08-10.676-6.666-10.676 6.666 2.97-12.08-9.603-8.02 12.41-.916 4.698-11.618 4.698 11.618"/>
  </g>
</svg>
