<svg xmlns="http://www.w3.org/2000/svg" xmlns:xlink="http://www.w3.org/1999/xlink" height="480" width="640" version="1">
  <path fill="#171796" d="M0 0h640v480H0z"/>
  <path fill="#fff" d="M0 0h640v320H0z"/>
  <path fill="red" d="M0 0h640v160H0z"/>
  <path d="M320.03 364.16c61.322 0 93.31-41.99 93.31-93.31V169.964H226.72V270.84c0 61.322 41.99 93.31 93.308 93.31z" fill="red"/>
  <path d="M320.03 362.664c60.343 0 91.63-41.19 91.63-91.63V161.76H228.6v109.366c0 60.342 41.188 91.63 91.63 91.63z" fill="#fff"/>
  <g fill="red">
    <path d="M267.133 166.2H231.91v38.7h36.223zm0 77.4h36.226v-38.7h-36.226zm-36.223 28.31c0 3.613.217 6.98.622 10.39h34.6v-38.7H231.91v28.31zm106.676-28.31h-36.227v38.7h36.227zm0 77.398h36.224V281.3h-36.226zm36.226 21.17A89.19 89.19 0 0 0 392.92 320h-20.11v21.168zm-106.674-21.17h36.224V281.3h-36.224zm-20.144 0a89.168 89.168 0 0 0 20.144 21.194v-21.194h-20.144zm79.114 38.702c3.898-.274 7.73-.8 11.476-1.667v-37.136h-36.224v37.14a87.06 87.06 0 0 0 11.443 1.668c4.103.264 8.204.24 12.304 0z"/>
    <path d="M407.376 281.3c.407-3.422.626-6.9.626-10.426v-28.272h-36.193v38.7h34.668zm-69.79-38.7h36.224v-38.7h-36.226zm0-77.4H302.36v38.7h36.226zM408 203.9v-38.7h-36.19v38.7z"/>
  </g>
  <path d="M409.972 168.83l21.84-49.61-16.64-26.87-27.667 10.207-19.366-22.126-26.604 14.616-22.742-18.626-22.74 18.626-26.606-14.616L262.4 92.666l-27.67-10.206-16.643 26.876L230 168.843c27.486-12.44 67.96-19.372 90.006-19.372 32.03 0 62.49 6.927 89.97 19.36z" fill="#fff"/>
  <path d="M263.008 94.842l-.04.047-27.338-10.124-16.3 24.7 6.86 13.326 14.847 33.702a219.67 219.67 0 0 1 34.682-11.962l-12.61-49.686z" fill="#0093dd"/>
  <path d="M261.436 119.268a13.268 13.268 0 0 1 1.633 6.2c0 7.36-6.002 13.363-13.362 13.363-6.486 0-11.917-4.662-13.116-10.807 2.308 4.08 6.69 6.844 11.694 6.844 7.396 0 13.428-6.03 13.428-13.43 0-.738-.06-1.463-.177-2.172z" fill="#fff" stroke="#000" stroke-width=".28"/>
  <path d="M227.69 113.916l.93-4.794-3.677-3.216-.17-.16.213-.072 4.618-1.69.946-4.794.044-.22.17.146 3.686 3.207 4.623-1.68.216-.072-.046.22-.932 4.796 3.68 3.216.17.147-.216.072-4.618 1.693-.947 4.793-.046.22-.168-.148-3.687-3.204-4.623 1.678-.216.073z"/>
  <path d="M233.64 107.69l3.447 3.007 4.316-1.486zm.027-.16l7.766 1.617-3.436-3.004zm-8.337-1.634l7.764 1.62-3.448-3.006zm7.736 1.674l-7.766-1.62 3.436 3.002zm.436-.293l6.198-6.964-4.32 1.474zm-6.684 6.406l6.2-6.964-4.328 1.484zm6.318-6.862l-6.2 6.964 4.32-1.474zm6.683-6.406l-6.2 6.964 4.328-1.484zm-6.619 6.881l-2.666-7.483-.884 4.48zm2.766 8.038l-2.666-7.483-.88 4.49zm-2.419-7.634l2.666 7.484.886-4.478zm-2.766-8.04l2.666 7.487.88-4.49z" fill="#f7db17"/>
  <path d="M297.6 87.406l-.047.038-26.29-14.493-19.166 21.892 12.61 49.686a219.78 219.78 0 0 1 36.117-6.033l-4.237-61.09z" fill="#171796"/>
  <path d="M262.49 132.196a232.26 232.26 0 0 1 38.196-6.38l-1.07-12.913a246.648 246.648 0 0 0-40.316 6.732l3.187 12.66zm-6.34-24.971a267.967 267.967 0 0 1 42.406-7.082l-1.062-12.678a270.72 270.72 0 0 0-44.483 7.43l3.13 12.33z" fill="red"/>
  <g transform="translate(-160) scale(.00237)">
    <path d="M212106 36890l-23 13-9617-7794-9497 7778 1788 21660c2643-210 6113-322 7709-322 2608 0 6190 113 7744 326l1796-21660z" fill="#0093dd"/>
    <g id="a">
      <path d="M202646 46686c-18-2-44 10-69 46-186 260-369 469-646 720-196 61-242 180-167 348-261-26-291 193-302 432-260-379-622-482-814-307-11-230-187-338-439-392-180-10-319-66-436-146-60-42-110-64-170-106-126-88-226-6-172 74 267 434 636 868 802 1302-14 80 6 161 88 204 47 133 93 266 140 397-11 38-21 76-32 113-221-106-443-118-664-133-170-8-287-60-361-137-64-63-91-26-92 82-3 634 162 1014 699 1492-231 4-462 11-694 21-79 6-96 39-73 104 126 304 339 679 822 766-208 112-327 286-367 620-9 224-76 382-212 466-60 32-81 66-24 106 263 186 666 193 896 112-167 270-226 663-198 860 208 66 412 16 614-62-29 61-44 176-62 309-7 116-41 229-104 343-32 33-66 84 4 102 336 91 648 62 916-47 0 243 2 487 76 727 18 68 70 102 126 26 166-214 322-396 627-617 31 90 76 168 166 216 96 66 147 170 163 343 0 30-2 60 36 90 149 7 614-380 689-697 206 121 284 246 439 461 66 76 99 29 128-26 62-243 67-481 66-724 267 99 679 138 916 47 69-19 36-70 4-102-62-114-106-260-113-366-9-133-14-226-43-287 202 68 406 108 614 62 29-297-63-679-211-860 330 80 666 73 908-112 67-41 36-74-24-106-136-73-203-231-212-466-30-236-149-409-367-620 483-187 696-463 822-766 22-66 6-99-73-104-231-10-480-24-711-27 437-478 606-961 604-1496-1-108-38-146-92-82-74 87-179 137-348 146-222 16-436 24-666 128-11-38-21-76-32-113 46-132 106-260 163-393 82-63 102-123 88-204 267-434 613-868 781-1302 64-79-46-162-171-74-60 42-110 64-170 106-117 80-267 134-437 146-261 64-417 167-428 397-293-176-664-73-814 307-11-239-41-467-302-432 76-168 17-291-178-362-186-260-468-470-644-720-31-36-61-47-69-46z"/>
      <g fill="#f7db17">
        <path d="M206076 47978c-61-26-124 17-162 96s-33 170 19 196c40 20 84-6 119-66l22-36c2-3 4-6 6-9 38-78 49-163-2-188zm-6008 0c62-26 124 17 162 96s39 166-13 191-103-24-141-102-60-168-9-184zm4639 906c-32 0-69 27-69 69s26 69 69 69 69-26 69-69c0-32-26-69-69-69zm-4032 0c-32 0-69 26-69 69 0 32 26 69 69 69s69-26 69-69-26-69-69-69zm4294-304c-764-91-1606-133-2260-133s-1609 41-2269 116c-26 8-21 90 14 86 766-73 1607-113 2266-113 743 0 1486 40 2228 129 39 4 64-80 32-84z"/>
        <path d="M200319 48496c768-76 1630-117 2289-116 764 0 1607 42 2261 133l111-184c-32 10-62 9-90-6-76-38-92-161-36-274 66-114 164-176 240-138 39 19 62 62 68 114l446-739c-204 130-328 214-681 262-281 41-409 139-368 307 38 166-67 133-201 64-314-171-641 71-662 363-73 186-169 181-168-13-4-70 0-131-7-200-21-223-89-286-216-224-161 78-176 26-137-68 28-60 86-128 66-221-9-67-66-92-161-98-182-244-467-483-649-727-182 244-374 483-666 727-86 6-142 30-162 98-20 93 62 167 80 217 38 82 23 136-137 67-127-61-186-3-207 220-7 69-10 139-13 209-9 194-96 199-168 13-111-282-362-624-667-363-146 79-203 102-182-64 23-172-107-266-388-307-263-37-377-122-681-262l419 682c12-26 29-46 63-67 76-38 184 24 240 138 66 113 40 237-36 274-10 6-21 8-32 10l100 163zm4389 911c-7 3-7 4-24 11-46 19-80 66-134 124-67 60-128 126-211 188-12 10-26 19-44-6s-7-36 6-44c80-62 149-124 204-182 30-32 66-63 77-92-96-11-190-21-284-30-79 24-167 66-222 96-69 36-107 77-137 126-8 14-16 27-44 11-27-16-19-30-11-44 36-68 91-107 168-147 33-20 69-38 106-64-107-9-214-18-321-26-22 13-42 29-61 47-20 19-39 42-66 67-9 13-18 26-44 8s-18-31-8-44c19-29 41-64 64-77l9-9c-80-6-161-10-241-14-2 2-6 6-8 7-21 18-40 38-66 69s-28 43-38 67c-6 16-12 29-41 18-29-12-23-26-17-41 12-29 27-66 46-81 8-11 18-22 27-33-116-6-230-9-344-12-4 6-9 8-14 11-26 16-47 32-66 61s-36 40-48 63c-8 14-16 28-43 12-28-16-20-29-12-43 16-28 36-64 69-77 7-7 14-13 21-19-122-2-244-4-366-4-120 0-240 1-360 3 8 7 16 13 22 20 23 23 42 49 69 77 8 14 16 27-12 43s-36 2-44-12c-13-23-29-44-48-63s-41-36-66-61c-6-3-12-7-16-12-116 2-230 6-346 11 11 11 20 23 29 36 19 26 33 62 46 81 6 16 12 29-17 41s-36-3-41-18c-9-24-22-46-38-67-16-21-34-41-66-69-4-3-7-6-10-10-81 4-162 8-243 13 4 4 9 8 13 12 24 23 46 48 64 77 9 13 18 26-8 44s-36 6-44-8c-18-26-36-48-66-67s-41-36-64-49c-1-1-3-2-6-3-110 7-220 14-330 23 43 18 86 38 122 61 67 40 124 89 168 147 8 14 16 27-11 44-27 16-36 3-44-11-29-48-78-90-137-126-72-44-169-77-246-102h-2c-90 7-179 16-268 24 22 33 61 68 86 106 66 68 124 120 204 182 13 9 26 19 6 44s-32 16-44 6c-83-64-166-128-211-188-37-38-99-111-136-140-196-90-364-127-676-147-163-14-318-9-468-79 36 86 76 164 126 229 63 68 120 121 209 147 8 2 21 16 22 26 28 167 84 286 169 386 62 60 114 110 188 149-76-81-132-166-172-261-67-142-90-286-77-420 1-16 3-32 34-29 32 3 30 19 29 36-11 123 9 266 72 387 66 118 169 237 291 346 24 19 0 63-29 66-164-44-290-123-383-231-89-104-149-237-180-397-94-32-166-90-222-164-47-60-86-131-118-206 28 428 182 801 466 1137 61 76 166 182 266 216 92 36 96 100-20 101-34 1-69 1-106 1 84 31 164 66 233 106 127 73 217 162 224 273 1 16 2 32-29 34-32 2-33-14-34-29-6-86-82-160-192-223-113-66-269-117-402-160-164 0-312-1-469 3 39 28 80 67 131 84 82 44 188 86 343 122 89 21 166 62 233 91 71 42 130 93 177 160 10 12 20 26-6 46s-34 8-46-6c-42-62-96-98-169-136-61-36-133-64-216-84-161-38-272-81-368-128-76-40-131-82-184-123 180 393 460 673 836 689 23 7 43 13 61 19 3 1 6 1 9 2 86 21 176 40 266 66 92 16 166 28 261 37 16 1 32 3 29 34-3 32-19 30-34 29-99-9-174-22-266-38-68-10-116-21-171-33-26 6-64 9-107 12-232 14-420 226-436 494 0 6 0 11-1 16 88-80 179-167 273-212 117-68 239-103 364-69 16 4 31 8 22 39-8 31-23 27-39 22-106-28-212 3-316 63-108 63-213 168-316 263-24 147-82 286-206 377 61 34 104 66 163 46 86-39 172-78 261-108 91-31 184-62 282-67 16-1 32-1 33 31s-14 32-31 33c-91 4-179 24-264 63-76 26-149 68-222 91 221 47 460-1 667-79 60-22 106-42 133-41 61-30 112-63 172-79 66-28 132-61 182-67 16-2 32-4 36 28 4 32-12 33-28 36-112 13-127 21-222 79 0 21-66 67-126 96-36 24-70 62-87 67-96 86-144 181-188 287-29 70-62 146-68 224 66-108 121-211 201-303 94-108 208-201 346-266 14-7 29-13 42 16 13 29-1 36-16 42-129 60-236 147-324 260-90 103-161 222-219 346-31 64-8 1-42 86 110-122 212-224 323-307 132-100 283-167 418-133 16 3 31 6 26 37s-21 28-37 26c-116-21-260 32-369 121-121 92-244 223-366 361 184 26 366-26 642-86 91-30 183-136 239-162 19-24 38-46 67-67 33-37 67-71 102-100 12-10 24-20 46 4s8 34-4 46c-33 28-66 60-96 94-32 36-62 73-92 113-6 8-13 17-24 16-60 70-161 162-172 240-67 210-26 370-122 676 71-38 128-81 176-134 63-60 94-136 128-230 37-104 96-196 167-270 76-77 166-136 261-172 16-6 30-11 41 19s-4 36-19 41c-87 32-169 86-238 167-66 68-119 161-163 247-37 102-81 183-141 260-44 60-96 91-166 127 62-3 78-10 121-7 79-6 211-66 279-119 66-61 116-120 164-206 6-16 13-29 42-16s23 27 16 42c-42 96-99 174-173 231-66 43-121 76-196 93 161-6 311-42 467-100 66-24 87-168 127-208 32-68 66-112 106-168 47-66 101-101 164-127 16-6 29-12 41 18 12 29-3 36-17 41-62 21-98 60-139 108-36 42-68 93-98 147 10 73-61 228-63 306-7 206-2 409 63 612 63-71 107-134 162-192 0-6 0-10 1-16 18-106 33-219 40-332 7-112 7-223-6-329-2-16-4-32 27-36 32-4 34 12 36 28 14 111 14 226 7 340-6 90-16 180-30 269 64-61 63-61 77-103 37-80 69-169 67-237 9-80 6-167-13-230-4-16-7-31 24-38s36 8 38 24c19 80 26 166 14 262-8 66-24 132-49 199 66-42 114-82 178-122-4-76-6-163-3-227 2-68 7-134 18-190 4-20 7-40 47-33s37 27 33 48c-9 60-14 111-16 177-2 78 0 162 4 243 6 82 49 186 126 230 103 62 168 163 186 274 16-146 17-280 3-400-17-143-66-267-114-368-8-14-16-27 12-44 27-16 36-2 43 12 63 110 104 241 122 393 17 146 13 310-13 488 102-82 381-268 362-694-7-27-16-62-28-76-7-14-14-28 14-42s36 0 42 14c17 33 30 69 39 110 6 24 8 49 11 76 13-7 46-43 61-39 24 16 68 38 80 64-21-60-36-120-42-178-10-87-6-172 14-262 4-16 7-31 38-24s27 23 24 38c-18 73-22 161-13 230 9 77 31 167 67 237 4 8 8 16 6 26 24 21 47 42 70 66-13-84-22-170-28-266-8-116-7-230 7-341 2-16 4-32 36-28s29 20 27 36c-13 106-13 217-6 329 7 113 22 226 40 332 1 2 1 6 1 7 64 69 96 120 162 196 66-203 73-407 66-612-2-76-69-227-66-302-30-66-63-107-100-161-41-49-87-87-139-108-16-6-29-12-18-41 12-29 27-24 41-18 62 26 117 71 164 127 38 46 72 98 103 164 67 7 78 179 143 212 164 67 298 94 463 100-76-19-140-60-196-93-74-67-131-136-173-231-6-16-13-29 16-42s36 2 42 16c38 86 88 166 164 206 86 66 289 124 400 127-61-37-113-78-167-128-69-67-104-148-141-260-34-96-87-179-163-247-68-71-160-124-238-167-16-6-29-11-19-41 11-29 26-24 41-19 96 36 186 94 261 172 72 74 130 166 167 270 34 96 76 169 128 230 47 64 106 98 177 136-98-207-66-367-122-677-36-129-232-277-193-320 46-61 133 88 248 127 176 69 367 111 640 86-122-138-244-269-366-361-119-90-237-140-362-120-16 3-31 6-37-26-6-31 10-34 26-37 136-24 269 32 401 132 111 84 201 176 311 298-18-47 0-14-30-77-69-123-130-241-220-346-89-102-196-189-324-260-14-7-28-13-16-42 13-28 28-22 42-16 137 66 261 167 346 266 81 93 147 198 203 307-16-81-39-167-68-227-44-106-93-201-188-287-62-66-209-140-208-179-29-16-33-11-63-24-61-26-121-46-164-62-16-2-32-4-28-36 4-32 19-30 36-28 60 6 116 28 182 66 33 14 66 43 98 60 63 4 139 47 208 74 206 78 446 126 666 79-73-33-147-66-223-91-86-29-172-49-264-63-16-1-32-1-31-33s17-31 33-31c98 4 191 26 282 67 89 30 176 69 261 108 69 27 101-7 163-46-123-92-181-230-206-376l-2-2c-102-96-207-190-316-263-104-60-210-91-316-63-16 4-31 8-39-22-8-31 7-36 22-39 126-33 247 1 364 69 94 66 186 132 274 213 0-6-1-11-1-17-16-270-203-480-436-494-78-6-189 21-186-32 4-69 97-44 234-86 386-116 666-296 836-690-64 41-110 83-186 124-86 47-198 91-368 128-82 19-164 48-216 84-64 38-117 84-169 136-10 12-20 26-46 6s-14-32-6-46c47-67 106-108 177-160 67-39 146-70 233-91 166-36 261-78 343-122 61-27 92-66 131-84-148-4-306-3-469-3-143 44-289 96-402 160-110 63-186 136-192 223-1 16-2 32-34 29-32-2-31-18-29-34 8-111 97-200 224-273 69-39 149-74 233-106-36 0-70 0-104-1-116-2-112-66-20-101 90-34 190-141 261-216 271-334 412-714 466-1130-33 72-69 140-116 198-67 73-128 131-222 164-31 160-91 293-180 397-92 108-216 186-369 230-29 8-62-36-29-66 132-109 221-226 278-344 62-131 83-264 72-387-1-16-3-32 29-36 31-3 33 13 34 29 12 134-10 278-78 420-40 86-97 170-172 261 73-39 136-89 187-149 86-100 141-229 170-386 1-8 14-22 22-26 89-27 166-79 209-147 61-66 90-143 126-228-140 69-304 64-467 78-213 19-369 68-664 162z"/>
        <path d="M204649 49231c-680-88-1369-113-2041-114-684 0-1369 40-2068 112-20 6-16 33-14 46 2 28 37 36 121 27 643-60 1286-93 1932-93 674 0 1361 21 2038 102 33 9 77-86 22-81z"/>
        <path d="M200670 49160c683-71 1362-110 2038-110 676 0 1349 40 2026 127l31-127c-17 9-37 16-68 16-67 0-123-66-123-123s66-123 123-123c61 0 94 31 113 76l60-170c-724-84-1446-122-2171-122-729 0-1469 38-2193 107l68 164c22-32 69-64 101-64 68 0 123 66 123 123s-66 123-123 123c-12 0-26-2-36-6l33 94-2 7zm3067-416c-68 0-123 66-123 123s66 123 123 123 123-66 123-123-66-123-123-123zm0 64c-33 0-69 27-69 69s26 69 69 69c32 0 69-27 69-69s-26-69-69-69zm-1082-91c-67 0-123 66-123 123s66 123 123 123 123-66 123-123-66-123-123-123zm0 64c-32 0-69 26-69 69s26 69 69 69 69-26 69-69c0-32-26-69-69-69zm-1064-40c-68 0-123 66-123 123s66 123 123 123c67 0 123-66 123-123s-66-123-123-123zm0 64c-33 0-69 26-69 69s26 69 69 69c32 0 69-26 69-69 0-32-26-69-69-69z" fill-rule="evenodd"/>
      </g>
      <path d="M202601 47974c-14-68-49-129-100-176-61-47-116-78-187-88-33-4-39-68-7-68 60-20 114-67 167-133 46-69 79-167 96-266 6-34 64-36 69-1 16 84 61 163 97 208 66 66 126 112 193 138 31 12 26 63-8 68-69 9-106 42-141 87-60 62-81 146-100 221-8 33-62 31-69-2zm33-118c20-62 47-103 81-146 28-34 60-64 99-84-61-30-100-70-143-120-28-34-63-73-73-116-19 69-46 112-76 168-31 47-67 86-108 116 60 19 96 47 134 82 34 31 63 68 86 110zm799 6116l-616 206c-17 7-36 14-48-21-14-34 4-41 21-48l616-206c17-7 36-14 48 21 14 34-4 41-21 48zm69-326l-604 328c-16 9-33 18-61-16s-1-42 16-61l604-328c16-9 33-18 61 16s1 42-16 61zm-1826-66l604 328c16 9 33 18 16 61s-34 24-61 16l-604-328c-16-9-33-18-16-61s34-24 61-16zm61 322l616 206c18 7 36 14 21 48-14 36-31 28-49 21l-616-206c-17-7-34-14-21-48 14-36 31-28 48-21zm224 434c137 33 261 48 368 31 88-16 166-60 191-146v-493c-107-1-212-16-303-41-109-31-170-98-201-178-41-107-27-236-4-329 6-18 9-36 46-27s32 27 27 46c-20 82-33 194 1 284 23 60 69 110 162 133 91 26 198 38 307 38 107 0 214-13 304-40 82-24 148-69 192-123s66-117 67-176c-6-36-24-62-49-80-34-24-82-36-128-37-47-2-94 7-142 16-26 6-60 9-77 13-19 2-37 6-42-32s14-40 32-42c23-3 48-8 73-12 62-10 106-20 169-18 60 2 121 18 168 61 42 29 72 72 80 131 11 80-16 163-73 233-63 66-131 119-229 147-83 24-178 38-274 42v483c3 6 3 11 2 16 37 82 102 126 188 141 97 18 221 2 368-31 18-6 36-9 46 27 8 37-9 41-28 46-146 36-279 61-388 32-92-17-166-68-216-132-49 74-124 116-216 132-109 20-242 4-388-32-18-4-37-8-28-46 8-36 27-32 46-27zm366 210l402-9c19 0 38-1 38 37 1 38-18 38-37 38l-402 9c-19 0-37 1-38-37s18-38 37-38zm693-3082c161-126 293-227 423-297 133-72 264-111 369-106 19 1 37 1 36 39-1 37-20 37-39 36-92-4-200 32-322 97-126 67-263 166-410 289-14 12-29 24-63-6s-9-41 6-63zm-606 66c-141-130-298-240-446-314-139-71-268-108-363-100-19 2-37 4-40-34-4-37 16-39 34-40 110-10 262 31 404 107 162 77 316 191 461 326 14 13 28 26 2 63-26 27-39 16-63 2zm-213 1004c37-83 83-166 136-219 63-63 112-119 174-170 14-12 29-24 62 6 24 29 9 41-6 63-69 48-114 101-164 160-49 69-91 126-126 201-8 17-16 34-49 19s-27-32-19-49zm371-1734c49 66 88 139 114 223 26 82 40 176 39 279 6 80 6 166-7 249-13 86-42 170-97 246-43 60-101 97-166 113-63 13-109 10-164-7 29 100 61 208 6 308-8 18-33 27-61 18-43-22-86-43-128-62s-84-36-127-61l-1-1c-96-37-173-73-236-112-66-39-116-80-160-124l1 2c-44-49-72-106-88-170-14-66-20-114-22-174-72-39-138-78-194-116-64-43-118-87-161-131-13-14-26-27 1-63s40-12 63 1c39 40 89 80 160 121 60 40 128 81 204 121 124 13 247 61 370 109 106 60 211 116 317 192 13 7 19 16 27 20 8 6 16 13 26 19 61 22 104 28 162 16 47-11 90-39 122-84 48-66 72-139 84-214 12-77 11-167 6-234v-2c1-97-12-183-36-268-24-76-68-142-102-201-11-16-22-30 7-62s41-7 62 7zm-376 1047c-104-77-207-141-311-190-106-49-210-83-314-98 2 48 8 93 18 136 13 62 36 99 71 138l1 1c30 37 73 72 130 107 60 36 134 71 226 106l-1-1c46 16 89 34 133 64 31 14 61 28 93 44 19-83-10-179-37-267-2-8-6-16-9-29zm776-1003c-44 69-79 126-102 201-24 76-36 161-36 268v2c-6 77-6 168 6 234 12 76 37 148 84 214 32 46 76 72 122 84 48 12 101 6 162-16 8-6 17-13 26-19 6-4 13-12 27-20 106-77 211-143 317-192 123-68 246-96 370-109 76-40 144-80 204-121s111-81 149-121c13-13 26-27 63-1s14 39 0 63c-43 44-97 88-161 131-67 38-122 77-194 116-2 61-8 119-22 174-16 63-44 121-88 170l1-2c-36 44-86 86-160 124-63 38-141 76-237 112l-1 1c-43 16-86 32-127 61-43 19-86 40-128 62-18 9-43 0-61-18-46-100-23-208 6-308-66 18-111 20-164 7-64-16-122-63-166-113-66-76-84-160-97-246-13-86-12-169-7-249-1-104 13-196 39-279 26-84 66-168 114-223 11-16 22-30 62-7 30 22 19 37 7 62zm940 716c-106 16-209 49-314 98-104 49-207 113-311 190-4 13-6 21-8 29-27 88-66 184-37 267 31-16 62-30 93-44 44-20 87-38 133-64l-1 1c91-36 166-70 226-106 68-34 100-70 131-107l1-1c36-39 67-86 71-138 11-42 16-87 19-136z"/>
      <path d="M203469 60602c-119 0-216 97-216 216s97 217 216 217 216-97 216-217c0-119-97-216-216-216zm0 69c-81 0-147 66-147 147s66 147 147 147 147-66 147-147-66-147-147-147zm0 60c-48 0-87 39-87 87s39 87 87 87 87-39 87-87-39-87-87-87zm-1697-124c119 0 217 97 217 216s-97 217-217 217c-119 0-216-97-216-217 0-119 97-216 216-216zm0 69c81 0 147 66 147 147s-66 147-147 147-147-66-147-147 66-147 147-147zm0 60c48 0 87 39 87 87s-39 87-87 87-87-39-87-87 39-87 87-87z" fill-rule="evenodd"/>
    </g>
    <use height="100%" width="100%" xlink:href="#a" transform="rotate(-2.173 -66632.79 166276.842)"/>
    <use height="100%" width="100%" xlink:href="#a" transform="rotate(2.18 469866.862 166276.76)"/>
  </g>
  <path d="M387.186 94.883l-.06.02-19.197-21.94-26.24 14.466-4.268 61.097a219.716 219.716 0 0 1 36.12 6.046l12.63-49.687z" fill="#171796"/>
  <path d="M347.668 98.03c.877-.213 1.742-.268 2.68.266.37.162.646.346.816.696.39-.3.786-.682 1.196-.824.676-.426 1.163-.803 1.796-1.014.906-.46 1.81-.732 2.714-.816.967-.164 1.92-.173 2.876-.116.8.048 1.672.268 2.31.693.667.33 1.333.666 2 .997.707.394 1.414.76 2.12 1.048.896.363 1.903.472 2.977.612.626.02 1.043.02 1.66-.116.41-.11.666.16.213.43-3.318 2.036-6.918.224-8.136-.687.813.66 1.628 1.12 2.133 1.7.844.813 1.787 1.637 3.466 2.398 1.012.46 2.114.822 3.63.834.478.004.996-.016 1.664-.107.282-.046.403-.02.408.128.004.1-.022.3-.19.41-.866.674-1.66.726-2.66.783-1.71.11-3.64-.463-6.214-1.36-1.34-.722-2.242-1.6-3.308-2.386-1.064-.786-1.984-1.22-2.972-1.43-.974-.208-2.03-.184-2.918.09.266.063.49.178.628.337.468.27 1.046.39 1.896.486.444.063.306.36-.376.726-.41.63-.944.813-1.662.744-.977.647-1.326.266-1.662-.168-.04.268-.12.63-.236.786a.602.602 0 0 1-.014.426c.166.242.232.477.18.736.026.137.07.27.218.393.206.186.336.4.36.66.004.173.1.316.236.443.2.164.4.308.6.663.69.213.862.666.96 1.26.446.146.63.468.718.862.263.106.486.234.618.46.91.002 1.8.002 2.63.09.78.083 1.416.668 1.986 1.2.383.068.772.077 1.17-.013.41-.18.844-.318 1.316-.368.78-.066 1.66-.107 2.306.07.603.122.897.39 1.22.766.464.628 1.18.467 1.79.197.83-.366 1.62-.343 2.37.03a2.33 2.33 0 0 1 1.086-.17c.31-.336.64-.418.98-.428.66-.02.962.066.848.776-.03.192-.143.377-.287.443-.264.648-.737.71-1.36.667-.067.377-.22.666-.468.836.28.87.01 1.22-.634 1.207-.136.26-.336.407-.68.368a1.38 1.38 0 0 1-.872.614c.038.227.136.334.296.678.44.664-.22.932-.822.94.164.44.173.878.118 1.316.614.372.697.764.13 1.16.416.726.264 1.268-.623 1.647-.012.406-.062.813-.322 1.04-.184.167-.46.186-.274.48.316.62.246 1.18-.22 1.198-.1-.008-.19.006-.197.166 0 .064-.06.11-.14.163-.66.3-1.084.646-1.666 1.04-.072.048-.143.08-.214.017-.36.764-1.004 1.64-1.727 2.318-.11.674-.436.963-.974 1.164a.41.41 0 0 1-.32.327c.3.334.414.667.123.974-.368.39-.83.773-1.3.894-1.004.266-1.632.208-2.036-.176-.366-.34-.216-.696.01-.7-.62.048-.746-.28-.728-.716.036-.217.11-.188.327-.18.337.008.64-.174.968-.278.123-.21.284-.39.483-.64.11-.702.666-1.09 1.167-1.32.486-.186.96-.666 1.4-1.262l.836-1.434a1.237 1.237 0 0 1-.264-.76 1.478 1.478 0 0 1-.667-.617c-.437-.032-.617-.23-.68-.6a1.1 1.1 0 0 1-.328-.044c-.214.138-.43.26-.697.247a6.86 6.86 0 0 1-1.09.91c-.13.36-.39.606-.704.66-.896.106-1.43 1.223-1.924 1.678-.2.148-.322.408-.41.72-.042.69-.144 1.06-.466 1.068-.29-.012-.336-.043-.344-.073a1.186 1.186 0 0 0-.377.016c.24.267.28.6.066.896-.223.29-.643.38-.86.4-.638.043-1.166-.014-1.634-.208-.467-.188-.612-.46-.498-.726-.33-.166-.396-.31-.36-.466.046-.2.228-.3.468-.237.2-.096.398-.16.697-.197.677-.622 1.172-1.168 1.826-1.407a2.97 2.97 0 0 1 .68-.614c.076-.66.444-1 .894-1.41.04-.202.106-.406.22-.608-.026-.12.007-.177.01-.29-.183-.34-.292-.748-.167-1.087a1.314 1.314 0 0 1-.06-.64c-1.076.64-1.407.422-1.63-.097-.394.33-.76.483-1.024.01-.383.113-.767.24-1.148.09-.26.097-.6.184-.787.203-.116.23-.273.46-.484.69-.01.484-.18.968-.49 1.46a9.272 9.272 0 0 1-.696 1.66.986.986 0 0 1-.107.6c.083.694-.116.883-.443 1.03a2.41 2.41 0 0 1-.417.72c-.01.08-.017.16-.026.237.13.36.163.7-.203 1.06-.287.18-.692.37-.896.62-.367.176-.69.092-.99-.017-.628-.19-.488-.376-.42-.666a.644.644 0 0 1-.62-.007c-.128-.08-.21-.163-.337-.246-.114-.207-.164-.394.123-.64.36-.166.686-.27.86-.66.096-.214.216-.376.387-.418.166-.388.37-.66.647-.723.204-.48.422-1.01.68-1.47.09-.14.167-.286.114-.443-.006-.13.006-.264.114-.328.06-.063.17-.1.033-.174a1.36 1.36 0 0 1 .164-1.164c.28-.422.693-1.44.297-1.94-.064-.28-.108-.6-.073-.863-.102-.006-.178.008-.28-.063-.227-.14-.417-.007-.69.246-.126.318-.26.698-.376.698-.118.82-.62 1.468-.94 1.622-.098.377-.16.763-.107 1.13.043.41 0 .69-.19.737-.208.06-.403.172-.623.606a1.06 1.06 0 0 0-.074.337c.29.3.202.67-.076.946-.626.616-1.403.626-2.226.283-.696-.236-.74-.483-.68-.737-.844-.07-.676-.718.023-.912.762-.21 1.36-.693 1.86-1.38.046-.816.233-1.37.672-1.467.042-.6.2-.96.41-1.377.22-.387.366-.81.277-1.328-.467-.29-.486-.692-.067-.9.142-.083.126-.168-.06-.264-.284-.028-.26-.3-.23-.667-.012-.13-.08-.2-.206-.202-.63-.093-.474-.36-.204-.63.114-.13.19-.318.07-.394-.096-.062-.162-.278-.183-.467-.387-.292-.22-.69 0-.877-.22-.186-.32-.466-.36-.77-.72-.03-.987-.396-.698-.927a3.38 3.38 0 0 1 .63-.647c.166-.268.324-.636.246-.803-.206-.624.463-.92 1.017-1.328a.88.88 0 0 1-.123-.41c-.32-.306-.238-.69.113-.86a1.064 1.064 0 0 1-.13-.417c-.79.166-.786-.316-.418-1.074-.467-.263-.33-.73.6-1.44a.963.963 0 0 1 .09-.378 1.92 1.92 0 0 0-1 .304c-.316.206-.628.18-.943.06a1.496 1.496 0 0 0-.417-.41.622.622 0 0 1-.22-.63c-.93.06-1.107-.636-.66-1.04.31-.248.638-.606.623-.788.26-.638.784-1.07 1.303-1.617 0-.182.042-.366.1-.66-.23-.164-.473-.266-.74-.286a1.176 1.176 0 0 0-.672-.64c-.173-.103-.23-.2-.123-.436-.493-.44-.37-.71-.244-.962z"/>
  <g fill="#f7db17">
    <path d="M364.624 121.963a1.37 1.37 0 0 1-.176.007 8.46 8.46 0 0 1-.79.696c-.23-.266-.672.027-.238.188l-.17.118c-.11.29-.21.413-.632.462-.06.007-.1.017-.16.03a2.963 2.963 0 0 1 .016-.36 3.48 3.48 0 0 1 .07-.42c.004-.027.01-.06-.04-.063-.06-.01-.066.016-.06.042a3.876 3.876 0 0 0-.074.433 2.76 2.76 0 0 0-.016.396c-.813.262-1.283 1.108-1.837 1.71-.24.206-.36.49-.448.79-.047.168-.064.886-.228.897-.078.003-.16 0-.248 0-.088-.132-.207-.136-.366-.01-.34-.006-.7-.01-1 .04-.206.222.36.14.66.324.14.084.198.247.143.476-.276.66-1.824.447-2.338.176-.24-.126-.26-.27-.24-.476.107 0 .216-.008.326-.024.186-.026.368-.08.648-.183.06-.028.102-.066.046-.168-.067-.103-.11-.076-.16-.046a1.26 1.26 0 0 1-.463.164 2.67 2.67 0 0 1-.486.016c-.013 0-.028-.002-.04 0-.09-.062-.168-.114-.12-.168.038-.062.187.006.216.014.24-.11.448-.182.707-.232.646-.683 1.1-1.13 1.86-1.432.226-.27.47-.483.764-.677.104-.66.42-.997.89-1.428.068-.268.124-.46.267-.696-.03-.16-.007-.244 0-.396-.18-.342-.287-.638-.146-1.02-.088-.277-.076-.464-.042-.72a.36.36 0 0 0-.003-.144 6.223 6.223 0 0 1 .848-.674c-.02.266-.01.624.04.803l-.003.003a1.28 1.28 0 0 0-.197.263.63.63 0 0 0-.073.277c0 .026 0 .062.062.06.06 0 .06-.026.06-.062a.43.43 0 0 1 .06-.226c.043-.08.107-.16.183-.24a.106.106 0 0 0 .02-.026c.248-.007.492-.14.736-.336.22-.18.44-.412.668-.666-.002.366-.006.71-.01 1.067-.213.19-.396.422-.638.706-.01.023-.023.046.022.068.047.024.06 0 .068-.023a2.27 2.27 0 0 1 .49-.66h.008c.062 0 .062-.026.062-.062v-.002a3.17 3.17 0 0 1 .917-.626c-.046.312-.066.618-.01.912.068.322.21.626.618.89.004.006.012.008.02.01z"/>
    <path d="M349.043 112.947c.04-.073.142-.168.176-.16l.02-.006c.11-.207.227-.402.348-.677a3.98 3.98 0 0 1 .497-.6c.02-.02.038-.036.074 0 .036.038.016.066 0 .074a3.91 3.91 0 0 0-.486.683 6.82 6.82 0 0 0-.34.67c.036.046.062.12.033.172.036.324.078.607.223.694a.202.202 0 0 1 .06-.033c.06-.146.14-.273.24-.386a1.66 1.66 0 0 1 .46-.36c.126-.103.224-.207.306-.316.08-.106.146-.216.19-.327.01-.023.02-.047.07-.028.046.02.037.046.027.07-.06.12-.116.236-.2.36a2.066 2.066 0 0 1-.328.334l-.01.003c-.17.093-.313.202-.427.33a1.247 1.247 0 0 0-.21.327c.076.064.108.204.037.3-.216.31-.472.492-.07.767a.636.636 0 0 0 .19.612c.093.096.084.436-.144.68-.213.216-.06.168.17.184l.06.017v-.002c.08-.166.176-.296.28-.426a4.34 4.34 0 0 1 .327-.363c.16-.167.286-.328.376-.6.087-.17.14-.342.16-.608 0-.026 0-.062.066-.048.062.003.06.03.047.066a1.41 1.41 0 0 1-.16.66c-.096.18-.227.36-.393.622a3.78 3.78 0 0 0-.318.364 2.6 2.6 0 0 0-.27.41c.267.16.182.46.222.716.062.008.097.02.137.04a.029.029 0 0 1 .01-.016l.166-.246.247-.393c.014-.02.028-.046.07-.016.046.03.032.06.017.072l-.247.39-.167.248a.062.062 0 0 1-.007.01c.163.134.176.376-.027.66-.396.3-.284.392.086.63.046.347.048.627-.027.923l.004.026c.01.096.017.196.024.293l.026.296c.002.026.004.06-.048.066-.062.006-.064-.02-.067-.047l-.023-.298a.644.644 0 0 1-.006-.076c-.02.046-.038.092-.062.142-.266.68-.64 1.063-.6 1.706-.637.162-.642.78-.678 1.336-.602.677-1.086 1.22-1.893 1.49-.163.06-.62.14-.666.332-.006.07.247.218.408.13.446-.426.668-.19.166.247-.04.082-.007.174.08.262.463.416 1.608.66 2.13.22.386-.24.687-.606.26-.874.022-.62.226-1.03.776-1.178.064-.118.046-.338.017-.46-.062-.462.02-.866.13-1.29.02-.066.06-.1.16-.124.208-.043.61-.647.734-1.228.03-.126.06-.266.074-.386.033-.202.11-.237.213-.12.098-.13.096-.207.166-.367.213-.31.62-.66.882-.383a3.036 3.036 0 0 1-.176-.832 2.7 2.7 0 0 1 .116-1.03c.014-.06.03-.098.11-.087.103-.246.206-.49.31-.737l.312-.742c.01-.023.02-.047.067-.028.047.02.038.046.028.07l-.313.74-.31.736c.044.034.03.077.016.12a2.616 2.616 0 0 0-.102.943c.023.346.11.68.237.963.012.026.027.062.022.078.17.1.168.123.16.36-.004.18.02.364.063.667.34.627-.014 1.674-.344 2.198a1.09 1.09 0 0 0-.134.834c.204.197.07.4-.11.638-.013.048 0 .102.003.16.018.204-.066.374-.162.642-.277.6-.49 1.034-.713 1.668-.403.11-.486.346-.647.722-.236.067-.26.136-.368.36a2.71 2.71 0 0 1-.876.694c-.286.13-.01.266.192.393.183.134.422-.16.672-.382.162-.247.328-.174.22.018a1.96 1.96 0 0 0-.214.674c-.062.17.687.3.7.306.396.02.892-.367 1.203-.664.267-.262.217-.492.103-.812l.002-.02a1.97 1.97 0 0 1-.476-.048 3.432 3.432 0 0 1-.66-.186c-.024-.01-.048-.02-.03-.07.02-.046.046-.037.07-.027.186.076.363.14.643.177.16.033.303.06.467.046l.026-.26a2.7 2.7 0 0 0 .46-.804c.438-.207.44-.42.38-.89.098-.19.12-.3.112-.616a9.93 9.93 0 0 0 .723-1.697c.347-.46.613-.894.473-1.44.03-.214.11-.336.266-.328a3.82 3.82 0 0 0 .308-.606.46.46 0 0 0 .067.006.081.081 0 0 1 0-.038c.03-.126.062-.237.106-.33a.798.798 0 0 1 .142-.226.918.918 0 0 0 .07-.466 1.107 1.107 0 0 0-.163-.443.492.492 0 0 1-.116-.186c-.02-.074-.006-.148.067-.22.02-.02.038-.037.074 0s.02.066 0 .072c-.042.04-.06.078-.037.116a.466.466 0 0 0 .097.16l.006.01c.092.168.164.322.17.49a1.01 1.01 0 0 1-.083.614c0 .002-.01.014-.01.017a.722.722 0 0 0-.13.2 1.69 1.69 0 0 0-.097.308l-.004.02c.246 0 .46-.077.696-.193l.014-.014c.118-.094.243-.238.348-.428.087-.16.168-.363.2-.676.003-.026.008-.06.06-.043.06.01.046.036.043.06a2.036 2.036 0 0 1-.21.61c-.08.148-.176.27-.27.364.38.114.708.002 1.07-.11-.063-.606-.046-.893.008-1.196.06-.33.17-.66.31-.736.017-.022.03-.04.074-.01.04.034.026.062.01.074-.13.163-.236.38-.29.692-.062.29-.06.66-.01 1.147.003-.002.01-.002.018-.006.16.26.232.446.642.244.114-.076.233-.16.327-.26.036-.04.023-.06.06-.09.298-.316.696-.61.893-.87.298-.264.697-.49.896-.67.022-.016.046-.03.072.016.026.046.004.068-.017.072a6.46 6.46 0 0 0-.882.66c-.262.222-.606.468-.76.734.016.046.022.123.03.242.026.36.09.66.69.37.28-.107.307-.12.666-.273a1.34 1.34 0 0 1 .306-.167 7.99 7.99 0 0 1 .49-.368c.168-.106.32-.203.478-.29.026-.188.07-.373.13-.66.166-.466.413-.878.738-1.276l.016-.014c.27-.147.49-.32.666-.617.178-.197.31-.417.41-.666.01-.024.02-.048.07-.03.046.02.037.046.027.07-.104.26-.244.48-.426.686a2.626 2.626 0 0 1-.69.636c-.314.39-.666.797-.712 1.236a2.69 2.69 0 0 0-.116.474c.01.003.02.012.028.03.024.048 0 .06-.02.07-.008.002-.016.007-.022.012a2.81 2.81 0 0 0 .023.806c.222-.007.446-.13.67-.312.24-.194.483-.462.726-.734.002-.007.002-.012.01-.017a1.7 1.7 0 0 1 .234-.603.96.96 0 0 1 .397-.327c.024-.01.048-.022.07.028.018.048-.003.067-.03.07a.862.862 0 0 0-.366.29 1.66 1.66 0 0 0-.226.49c-.002.368-.007.738-.01 1.108.012-.01.027-.02.038-.03.273-.212.686-.368.926-.492.036-.014.076.02.068.067-.062.333-.08.663-.026.966.062.284.18.66.436.787a2.78 2.78 0 0 1 .48-.628c.096-.097.196-.188.3-.273.076-.07.162-.14.226-.21l.228-.212c.02-.02.04-.036.074.003.036.038.017.067-.002.073l-.228.21-.227.212-.003.002c-.097.08-.19.162-.28.262.003.097.008.192.013.29l.004.166c.22.06.36.062.673.067.073.438.11.607.493.617a3.244 3.244 0 0 1 .014-.467c.02-.17.064-.336.114-.493.01-.023.018-.047.066-.03.06.018.04.042.03.066a1.89 1.89 0 0 0-.108.467 3.1 3.1 0 0 0-.016.448h.03c.163.314.333.468.666.607.09-.142.167-.284.2-.426a1.37 1.37 0 0 0 .066-.476c-.002-.026-.002-.062.048-.064.062-.002.064.02.067.047.01.17-.01.342-.062.612-.06.17-.134.338-.248.606-.01.016-.02.03-.036.03.014.18.046.316.11.464a3.02 3.02 0 0 1 .163-.3c.078-.136.168-.26.277-.368.02-.02.036-.036.073 0 .036.036.02.064 0 .073-.1.1-.184.22-.26.348a3.984 3.984 0 0 0-.183.363c.036.062.08.123.133.194-.607 1.04-1.266 2.482-2.463 2.966-.62.244-.89.66-1.012 1.22-.232.18-.398.363-.66.614-.403.136-.763.337-1.2.318 0 .282.093.406.376.407.638-.27.66-.32.707-.282.066.067-.076.444-.622.766-.068.042-.066.068-.026.14.376.69 1.364.378 1.896.24.38-.1 1.064-.66 1.264-.93.072-.176-.093-.4-.26-.686-.768.116-.613-.61.04-.308.22-.066.247-.07.31-.313.68-.226.82-.47.964-1.092.686-.63 1.173-1.28 1.696-2.036.116-.142.184-.394.16-.624a1.07 1.07 0 0 0 .2-.42c.038-.163.062-.302.067-.464 0-.026-.003-.062.06-.064.062-.002.062.024.064.06.006.16-.018.32-.068.48a4.48 4.48 0 0 1-.12.37c.037.096.066.16.14.136.606-.408 1.018-.696 1.666-1.034.038-.232.188-.346.417-.366.093 0 .126-.027.16-.113.127-.32-.034-.64-.188-.806-.142-.396.11-.49.366-.68.266-.197.247-.72.267-1.02h.002l-.03-.164a2.623 2.623 0 0 0-.092-.32c-.01-.023-.016-.06.03-.066.06-.017.068.007.068.033.04.116.07.226.094.332.01.043.017.086.026.126.264-.13.62-.282.62-.664.087-.314-.084-.61-.236-.876a9.667 9.667 0 0 1-.696.266c-.023.01-.047.02-.066-.028-.02-.048.004-.06.028-.067a10.22 10.22 0 0 0 .687-.303 1.29 1.29 0 0 0 .313-.263c.182-.264-.308-.6-.48-.608 0-.007.003-.014.003-.02l-.736-.68c-.02-.016-.038-.036-.002-.073.036-.04.064-.022.073-.003l.683.626c.038-.387.043-.766-.078-1.14-.038-.124-.083-.244-.126-.366a1.116 1.116 0 0 1-.48-.398 1.037 1.037 0 0 1-.167-.496c-.003-.026-.003-.062.06-.067.062-.002.062.024.066.06.012.16.062.313.14.446.088.136.22.263.413.36.206.107.64.063.89-.068.36-.197-.106-.696-.213-.83-.076-.168-.094-.34-.128-.62.03-.006.062-.013.096-.018a1.044 1.044 0 0 0-.14-.147.602.602 0 0 0-.187-.113c-.024-.01-.06-.017-.03-.067.016-.06.042-.04.066-.03a.71.71 0 0 1 .22.132c.066.067.127.126.186.206a.876.876 0 0 0 .102-.02c.344-.067.633-.26.742-.606a3.697 3.697 0 0 0-.374-.386 10.09 10.09 0 0 0-.427-.36c-.02-.017-.04-.034-.008-.074.033-.04.062-.024.073-.007.147.12.294.24.432.366.14.128.272.263.393.41.012.014.024.028.014.047.316.03.368-.036.626-.317a1.63 1.63 0 0 0-.19-.41 2.6 2.6 0 0 0-.314-.386c-.02-.02-.036-.038 0-.074.038-.036.066-.017.073 0 .122.128.236.263.326.403.09.137.16.28.202.434.147.002.306.01.43-.067.276-.163.044-.76-.028-.98.006 0 .008-.003.012-.008a2.762 2.762 0 0 0-.11-.07c-.063-.04-.13-.08-.193-.122-.022-.014-.044-.028-.018-.07.03-.046.06-.032.07-.018l.196.124.142.09c.02-.017.043-.034.064-.06.2-.16.273-.376.334-.697.096-.343.114-.19.612-.26.43-.067.66-.114.916-.616.133-.067.2-.124.226-.287.043-.296.02-.448-.32-.474-.474-.038-.763.067-1.083.37l.128.194c.014.02.028.043-.014.073s-.066.007-.07-.014l-.12-.186c-.433-.04-.78.027-1.18.18l-.122-.06c.086.113.16.222.2.33.07.16.106.296.11.432 0 .026.003.063-.06.066-.062.002-.062-.024-.064-.06a1.036 1.036 0 0 0-.1-.396 1.842 1.842 0 0 0-.298-.442l-.003-.002a2.62 2.62 0 0 0-.96-.176c.063.063.107.106.16.164.068.067.137.133.203.2.02.018.038.036 0 .073-.036.038-.064.02-.073 0a7.742 7.742 0 0 1-.204-.2 6.468 6.468 0 0 1-.206-.198l-.02-.022a2.72 2.72 0 0 0-.86.22c-.192.08-.388.142-.68.178.142.137.263.29.367.467.1.18.176.38.226.6.004.026.01.06-.038.06-.06.013-.067-.013-.062-.037a2.147 2.147 0 0 0-.216-.674 1.89 1.89 0 0 0-.363-.466c-.016-.012-.027-.026-.022-.046a1.78 1.78 0 0 1-.626.003l.21.348c.013.024.022.047-.023.07-.048.02-.06 0-.07-.026l-.194-.408a1.446 1.446 0 0 1-.474-.187c.06.187.088.39.116.602.038.282.062.683.07.9 0 .027 0 .063-.06.063-.063 0-.063-.026-.063-.06a7.86 7.86 0 0 0-.066-.89 4.7 4.7 0 0 0-.16-.71 1.662 1.662 0 0 1-.214-.2 2.1 2.1 0 0 0-.67-.442.96.96 0 0 1-.21.728c-.014.02-.028.04-.07.01-.04-.034-.027-.063-.01-.074a.846.846 0 0 0 .176-.72 3.13 3.13 0 0 0-1.06-.264 6.312 6.312 0 0 1 .66.872c.146.122.224.27.27.43.04.16.06.33.068.602 0 .026.002.06-.06.064-.062.002-.062-.024-.064-.06a2.087 2.087 0 0 0-.066-.48.714.714 0 0 0-.243-.38.09.09 0 0 1-.014-.017 6.64 6.64 0 0 0-.268-.476 4.61 4.61 0 0 0-.33-.464l-.004-.006c-.124-.006-.26-.01-.376-.006.022.028.043.067.062.087a.677.677 0 0 1 .086.248c.004.026.006.062-.046.067-.062.006-.066-.02-.067-.048a.498.498 0 0 0-.07-.203.676.676 0 0 0-.112-.138c-.26.007-.62.03-.768.06.26.334.47.68.63 1.036.18.396.3.803.37 1.226.006.026.01.062-.043.06-.06.01-.064-.017-.06-.044a4.793 4.793 0 0 0-.362-1.2 6.12 6.12 0 0 0-.66-1.068l-.04.003c-.2.02-.404.06-.698.116.087.064.163.11.23.163.09.074.16.147.222.22.017.022.033.04-.007.074-.04.034-.068.016-.074-.006a1.673 1.673 0 0 0-.21-.208 2.403 2.403 0 0 0-.298-.204 4.91 4.91 0 0 0-.308.11c-.067.023-.11.044-.168.06.176.126.344.264.606.418.194.187.377.398.64.642.014.02.03.043-.014.07-.043.03-.067.008-.073-.013a3.796 3.796 0 0 0-.624-.627 4.668 4.668 0 0 0-.664-.467c-.214.047-.43.06-.646.062.133.263.26.628.337.796.094.29.16.68.182.877.003.027.006.063-.047.068-.063.006-.066-.02-.068-.048-.02-.29-.086-.67-.178-.863a6.224 6.224 0 0 0-.368-.834 7.972 7.972 0 0 1-.396-.043c.076.242.143.49.2.746.066.298.12.604.16.914.003.026.006.062-.044.06-.062.006-.066-.02-.06-.046a9.248 9.248 0 0 0-.168-.906 9.28 9.28 0 0 0-.22-.81c-.376-.406-.79-.8-1.297-1.012a1.704 1.704 0 0 1 .374 1.123c0 .026 0 .062-.06.06-.063 0-.063-.03-.06-.063a1.633 1.633 0 0 0-.12-.67 1.676 1.676 0 0 0-.362-.626 1.963 1.963 0 0 0-.368-.07 16.624 16.624 0 0 0-1-.067c.266.232.467.446.438.704-.002.026-.006.06-.067.046-.062-.006-.06-.03-.047-.067.016-.24-.22-.466-.498-.702-.2-.007-.4-.01-.6-.012.11.11.204.223.28.334.106.162.178.303.214.466v.007c.02.236.078.44.182.612.102.168.26.298.46.39.024.013.048.022.026.07-.02.047-.046.037-.068.026-.22-.1-.382-.247-.496-.432a1.61 1.61 0 0 1-.196-.66 1.266 1.266 0 0 0-.197-.416 2.676 2.676 0 0 0-.344-.396c-.22 0-.442-.003-.666-.003.093.264.167.634.202.81.062.336.076.68.083 1.027 0 .026 0 .062-.062.062-.063 0-.063-.026-.063-.06a7.143 7.143 0 0 0-.08-1.014 4.476 4.476 0 0 0-.21-.826h-.06a1.003 1.003 0 0 0-.49-.438.604.604 0 0 1-.107.282c-.012.02-.03.043-.072.014-.042-.027-.028-.048-.014-.07a.496.496 0 0 0 .09-.27c-.033-.014-.07-.028-.106-.046-.107-.446-.207-.63-.662-.782-.003.123-.01.26-.033.38-.028.163-.08.326-.177.483-.014.02-.03.046-.07.016-.046-.028-.032-.06-.018-.07.09-.146.138-.296.164-.444.022-.136.03-.273.03-.406l-.062-.022c-.096-.622-.21-.97-.866-1.217.007.08.01.164.006.247-.007.14-.033.282-.09.43-.01.022-.02.048-.066.03-.047-.02-.037-.043-.03-.067.062-.136.076-.268.083-.398a1.9 1.9 0 0 0-.02-.368c-.137-.166-.333-.306-.602-.47a2.28 2.28 0 0 1-.09.686 3.06 3.06 0 0 1-.386.834c-.014.022-.028.046-.07.017-.046-.028-.032-.06-.018-.07a3 3 0 0 0 .376-.807 2.2 2.2 0 0 0 .08-.773 1.04 1.04 0 0 1-.177-.26l-.016.033-.076.17c-.012.024-.022.048-.07.03-.047-.022-.037-.046-.028-.07l.076-.17.06-.138c-.006-.03-.01-.068-.012-.09-.02-.198-.127-.362-.272-.482l-.002-.002a1.482 1.482 0 0 1-.26.476c-.018.02-.032.04-.076.01-.04-.034-.023-.063-.008-.074.07-.09.126-.18.168-.268.036-.076.06-.16.08-.23a.962.962 0 0 1-.16-.246.796.796 0 0 1-.1.17c-.06.067-.116.13-.196.197-.02.018-.04.034-.074-.006-.032-.04-.01-.067.01-.073.072-.06.13-.118.174-.177a.66.66 0 0 0 .097-.176c.034-.092.046-.033.016-.182.066-.294-.064-.47-.21-.713a.07.07 0 0 1 .01-.02.89.89 0 0 0-.316.084 2.76 2.76 0 0 0-.466.266c-.022.016-.043.03-.072-.013-.03-.043-.01-.067.016-.07a3.16 3.16 0 0 1 .47-.274.9.9 0 0 1 .4-.092.37.37 0 0 0 .01-.227c-.473.176-.847.26-1.148.278a1.64 1.64 0 0 1-.76-.116c-.023-.01-.047-.02-.026-.068.02-.048.046-.038.07-.03.186.082.412.13.71.11.296-.02.66-.1 1.13-.276-.002-.003-.002-.008-.004-.013.086-.19.164-.374.2-.66a1.706 1.706 0 0 1-.6.04h-.032c-.026 0-.062-.004-.062-.063 0-.063.028-.063.062-.063h.033c.177.004.362.01.626-.048.012-.062.02-.124.03-.186.027-.206.27-.266.44-.07.142.16.272.312.412.378.284.136.604.014.834-.17l-.21-.07c-.026-.007-.06-.016-.033-.063.016-.06.04-.043.064-.034.09.03.18.067.27.088a.947.947 0 0 0 .063-.064c.687.06.97-.073 1.346-.463a6.927 6.927 0 0 1-.892-.03c-.286-.036-.62-.092-.692-.177-.024-.012-.048-.024-.024-.07.024-.046.047-.034.07-.022.16.08.386.136.668.167.277.03.604.04.976.028h.006c.034-.038.067-.078.103-.12.16-.067.322-.14.44-.273-.686-.074-1.336-.21-1.96-.63-.16-.177-.41-.276-.678-.346-.498-.06-.938.062-1.344.273-.106-.1-.188-.19-.293-.287-.166-.02-.303-.102-.46-.12-.208-.026-.426.016-.636-.008-.026-.002-.062-.006-.046-.067.006-.062.03-.06.067-.046.21.024.427-.017.636.007.2.024.393.112.694.136.673-.263 1.23-.393 1.71-.372a6.68 6.68 0 0 1 1.73-.218.102.102 0 0 1-.022-.02c-.07-.068-.036-.103 0-.136.316-.32.39-.616.287-.88-.106-.276-.39-.634-.786-.77-.422.047-.827-.067-1.276-.017a3.96 3.96 0 0 0-.826.182c.226.08.422.213.683.403.2.236.342.666.418.967.01.048.016.098-.08.114-.094.018-.103-.032-.112-.08-.07-.366-.197-.666-.376-.866-.187-.268-.616-.373-.76-.427-.46.046-.89.096-1.274.194-.29.076-.643.177-.737.328.29-.06.69-.06.86.08.26.124.46.366.693.733.017.046.03.094-.06.126-.094.03-.11-.016-.126-.062-.11-.326-.286-.62-.492-.62-.41-.206-1.267-.027-1.614.238a4.23 4.23 0 0 0-.626.694c-.038.046-.078.088-.166.012-.088-.08-.06-.12-.01-.164.216-.244.434-.46.66-.626.217-.16.442-.277.674-.33.237-.264.688-.423.993-.627.396-.103.86-.166 1.308-.2-.136-.273-.308-.437-.607-.624-.213-.096-.467-.11-.723-.083-.662.19-1.042.486-1.614.82.044 0 .086 0 .127.002.14.01.266-.012.38.033.046.017.094.033.06.126-.04.11-.346.043-.462.036a1.362 1.362 0 0 0-.4.037c-.022.006-.046.012-.067.006-.676.366-.988.716-1.467 1.12l-.08.03c-.426-.017-.72.042-.896.176-.168.12-.17.31-.14.666-.073.24-.166.603-.19.782-.6.43-1.066.868-1.314 1.484a1.42 1.42 0 0 1-.276.487.638.638 0 0 1 .26.097c.022.02.044.038.063.062.01-.107.028-.213.064-.316.036-.146.088-.28.166-.39.016-.02.03-.043.072-.014.046.028.03.06.016.07a1.2 1.2 0 0 0-.144.36c-.04.164-.062.346-.067.61-.002.063-.097.067-.104.006a.287.287 0 0 0-.11-.2.62.62 0 0 0-.27-.086c-.107.117-.228.22-.36.318-.1.08-.193.168-.216.3-.014.226.266.266.63.283.606.036.124.38.466.68.162.112.312.242.426.4.23.084.373.066.63-.006.03-.41-.006-.62.174-.62h.018a.768.768 0 0 1 .18-.386c.017-.02.034-.04.074-.007.04.033.024.062.007.073a.807.807 0 0 0-.122.204.76.76 0 0 0-.043.17c.03.062.024.183.022.4.343-.17.666-.212 1.007-.23.667-.767.936-.672.36-.013l-.092.176a1.4 1.4 0 0 0-.186.602c-.168.147-.993.826-.686 1.076.216-.03.36-.02.268.14-.102.216-.41.664-.308.91.038.09.17.08.3.06.01-.01.02-.017.03-.026a6.2 6.2 0 0 0 .666-.61 3.8 3.8 0 0 0 .666-.796c.02-.043.043-.083.104-.07a9.07 9.07 0 0 1 .226-.708c.087-.244.187-.49.293-.737.017-.036.067-.042.09-.01.09.13.178.226.266.287a.393.393 0 0 0 .232.083.42.42 0 0 0 .232-.078c.086-.06.17-.16.26-.272.013-.022.03-.043.072-.012.042.03.028.06.01.073a1.18 1.18 0 0 1-.283.296.49.49 0 0 1-.292.097.604.604 0 0 1-.29-.106 1.134 1.134 0 0 1-.238-.24c-.093.217-.178.432-.266.648-.087.24-.163.48-.23.72.066.046.032.088.01.13-.17.32-.38.698-.602.842-.18.2-.372.376-.66.633.027.177.072.343.163.613.36-.308.693-.62.987-.943.294-.326.66-.66.76-1.007.016-.02.027-.046.072-.02.044.027.03.06.018.072a6.98 6.98 0 0 1-.36.63c.023.034.004.048-.016.066-.038.03-.06.164-.07.313-.013.216 0 .483.026.676.002.026.007.062-.046.06-.062.007-.066-.02-.06-.046-.026-.2-.037-.476-.026-.694.002-.067.01-.11.016-.166-.078.092-.16.184-.242.277a11.647 11.647 0 0 1-1.014.966c.01.02.02.038.033.067-.316.23-.676.31-.22.618.12-.084.238-.17.366-.266l.38-.272c.02-.014.042-.03.073.012.03.042.01.066-.013.073l-.38.273-.37.264a.623.623 0 0 0 .09.362.628.628 0 0 1 .08-.007l.796-.68c.02-.016.043-.03.073.013.03.042.01.067-.012.073-.266.187-.614.376-.772.662a.714.714 0 0 1-.093.118c-.26.188-1.17.76-1.074 1.138v.002c.218-.06.436-.137.644-.244.216-.11.427-.26.626-.464.02-.02.036-.036.074 0 .036.036.02.064 0 .073a2.644 2.644 0 0 1-.66.482v.01l-.004.106c-.003.036-.003.072-.006.107-.002.026-.002.062-.064.06-.062-.002-.06-.03-.06-.066.003-.036.003-.07.006-.106.004-.02.004-.04.004-.06a3.62 3.62 0 0 1-.662.202c.078.367-.114.683-.31.998-.112.09-1.022.827-.643 1.047a.98.98 0 0 0 .33.087z"/>
    <path d="M349.466 100.128c-.19-.114-.434-.264-.67-.3a1.44 1.44 0 0 0-.606-.663c-.176-.114-.176-.104-.11-.23.2-.02.283-.076.286-.13a.897.897 0 0 1 .27.043.4.4 0 0 1 .202.14c.016.02.03.042.073.01s.026-.063.01-.076a.642.642 0 0 0-.262-.176 1.023 1.023 0 0 0-.37-.047c-.01 0-.02 0-.03.006a.743.743 0 0 0-.332-.064c-.136-.127-.26-.276-.194-.46.007.006.02.008.03.01.107.03.207.062.292.102.083.036.162.08.2.133.016.02.036.038.073.002.038-.036.02-.064.004-.073a.744.744 0 0 0-.23-.16 2.062 2.062 0 0 0-.226-.082c.782-.16 1.48-.147 2.18.268.368.162.64.327.74.697l-.2.17c-.467-.013-.793.06-1.004.212-.19.14-.228.397-.236.663z"/>
  </g>
  <path d="M366.002 121.77c-.164.096-.28.162-.438.188a.072.072 0 0 0 .02-.02c.1-.19.22-.36.362-.61.017-.02.036-.04.062-.06l.007.19.007.216zm1.96 4.196a2.3 2.3 0 0 1-.376.428 3.99 3.99 0 0 1-.477.363c-.022.014-.046.03-.074-.014-.03-.043-.007-.067.014-.07.166-.11.322-.23.464-.364.14-.127.264-.262.36-.41.016-.023.03-.044.074-.016.043.03.03.06.014.072zm1.298-1.646c-.068.1-.132.2-.198.3-.014.023-.028.044-.073.016-.044-.028-.03-.06-.016-.07.067-.1.13-.202.197-.302.016-.02.03-.042.076-.014.042.028.028.06.014.073zm-.707-.1a1.11 1.11 0 0 1-.183.423c-.096.13-.236.246-.436.338-.024.013-.047.023-.07-.026-.02-.047.004-.06.027-.068a.987.987 0 0 0 .397-.306.972.972 0 0 0 .166-.383c.006-.026.012-.06.062-.038.06.01.046.036.038.06zm1.27-1.66a.934.934 0 0 0-.138.178 1.16 1.16 0 0 0-.1.22c-.01.022-.016.048-.066.032-.06-.017-.043-.043-.034-.067a1.136 1.136 0 0 1 .26-.433c.02-.02.037-.036.074 0 .036.036.02.064 0 .073zm1.037.103c-.044.147-.087.296-.14.443-.066.162-.122.3-.207.46-.016.02-.027.046-.072.02-.044-.027-.032-.06-.018-.072.083-.146.146-.29.2-.43.062-.146.094-.293.14-.44.006-.026.014-.06.063-.036.06.013.043.037.036.063zm-.47-6.076c.322.474.393.963.406 1.463a7.29 7.29 0 0 1 .126-.634c0-.003.007-.017.007-.017.136-.19.22-.38.263-.667.043-.188.043-.377.01-.666-.006-.026-.01-.06.042-.06.06-.008.067.018.062.044.036.2.036.406-.01.607a1.68 1.68 0 0 1-.272.696c-.088.33-.162.66-.213.993l-.013.06c-.01.06-.104.043-.104-.01 0-.037 0-.072.002-.11.007-.62.014-1.24-.386-1.828-.016-.02-.032-.042.013-.073.043-.03.06-.008.073.013zm-.79 1.017l-.012.12c-.002.04-.007.08-.01.12-.002.026-.004.062-.066.047-.062-.006-.06-.03-.048-.067.003-.04.008-.08.01-.12.002-.04.007-.08.012-.12.002-.026.006-.062.067-.047.062.006.06.03.047.067zm-.22 1.379c.08.263.142.63.187.806.03.187.06.377.06.67a.983.983 0 0 1 .07-.1c.086-.107.2-.2.334-.278.023-.014.046-.026.073.02.026.044.004.068-.02.07a1.048 1.048 0 0 0-.303.264.704.704 0 0 0-.147.322c-.01.062-.104.043-.104-.01a6.064 6.064 0 0 0-.066-.83 6.904 6.904 0 0 0-.183-.793c-.007-.026-.016-.06.034-.064.06-.013.067.01.064.034zm1.1.493a3.664 3.664 0 0 1 .064 1.19c-.003.027-.008.063-.06.046-.062-.007-.047-.033-.046-.06.02-.177.027-.362.018-.666a3.603 3.603 0 0 0-.08-.697c-.006-.027-.012-.06.04-.063.06-.012.067.014.06.04zm.943-.176c.036.194.064.384.046.666a1.47 1.47 0 0 1-.12.63 1.19 1.19 0 0 0-.037.684c.034.2.11.398.2.6.012.024.022.047-.026.07-.047.02-.06-.004-.07-.027a2.64 2.64 0 0 1-.207-.624 1.298 1.298 0 0 1 .04-.636l.003-.006a1.36 1.36 0 0 0 .11-.496 2.26 2.26 0 0 0-.044-.643c-.006-.026-.01-.06.043-.068.06-.01.066.016.06.042zm.466-1.664c-.024.097-.048.197-.074.296-.024.097-.047.197-.073.296-.004.026-.01.06-.06.038-.06-.012-.046-.038-.04-.064l.076-.296c.023-.097.047-.197.073-.296.007-.026.012-.06.064-.038.06.012.046.038.038.064zm-.468-2.698c.03.09.066.18.084.27.007.027.014.06-.036.064-.06.017-.067-.01-.064-.033-.028-.09-.064-.18-.083-.27-.008-.026-.016-.06.034-.063.06-.014.067.01.064.033zm.24-1.974c.002.123.002.247-.007.776a.773.773 0 0 0-.236.383 1.38 1.38 0 0 0-.007.686c.006.026.01.062-.04.062-.064.01-.068-.017-.063-.043a1.423 1.423 0 0 1 .01-.63.862.862 0 0 1 .266-.432l-.02-.33c-.004-.122-.004-.246-.006-.367 0-.026 0-.062.062-.062s.062.026.062.062zm-1.96-.686c.303.198.664.418.744.68.183.262.287.663.276.92a.063.063 0 0 1-.074.044c-.17-.074-.344-.147-.616-.22.116.736.087 1.324-.074 1.774-.17.477-.486.8-.937.986a.062.062 0 0 1-.07-.064c.088-.28.14-.66.162-.84.02-.278.01-.668-.038-.836-.006-.026-.01-.063.043-.06.062-.01.067.017.06.043.046.287.06.676.037.863-.02.262-.062.6-.133.764a1.6 1.6 0 0 0 .776-.88c.16-.462.186-1.064.067-1.817-.007-.04.036-.073.07-.067l.63.228c-.006-.3-.1-.666-.266-.78-.173-.26-.422-.46-.716-.662-.02-.014-.042-.028-.013-.073.028-.043.06-.028.07-.014zm6.13-1.01l-.04.1c-.016.034-.028.07-.042.103-.01.024-.02.047-.066.028-.048-.018-.038-.04-.03-.066.016-.033.03-.07.044-.102.014-.033.026-.07.04-.102.01-.022.02-.046.067-.027.047.02.038.042.028.066zm-1.206-.027c.1.04.18.096.246.16a.83.83 0 0 1 .16.224c.012.024.024.047-.02.07-.06.022-.06 0-.07-.023a.78.78 0 0 0-.14-.196.692.692 0 0 0-.213-.138c-.024-.01-.047-.02-.03-.066.02-.048.044-.038.068-.03zm-1.792.614c.13.146.216.313.26.606.046.187.063.396.03.62-.003.026-.006.06-.068.046-.062-.006-.06-.03-.046-.067.022-.212.017-.41-.026-.684a1.034 1.034 0 0 0-.237-.468c-.016-.018-.036-.037.006-.073.038-.036.067-.014.073.006zm-6.066.683l-.022.204-.02.204c0 .026-.003.062-.066.047-.062-.004-.06-.03-.044-.066l.02-.206.02-.204c.002-.026.006-.06.067-.046.062.004.06.03.047.066zm1.122-.692c.03.097.068.194.09.29l.026.09c.007.026.014.06-.036.063-.06.016-.068-.008-.066-.034l-.026-.088-.088-.292c-.007-.023-.016-.06.036-.064.06-.014.067.01.064.036zm2.306 1.647c.012.043.02.086.02.126a1.11 1.11 0 0 1 0 .127c0 .026-.004.062-.066.047-.063-.006-.06-.03-.048-.067a.837.837 0 0 0 0-.11.662.662 0 0 0-.02-.108c-.006-.027-.013-.06.036-.066.06-.014.067.012.064.038zm.796-1.763c.06.06.082.104.094.166a.234.234 0 0 1-.024.168c-.012.024-.026.048-.07.022-.046-.024-.034-.048-.023-.07a.14.14 0 0 0 .016-.1.26.26 0 0 0-.067-.108c-.02-.02-.036-.036 0-.073.036-.036.066-.02.074 0zm-6.6.278a.934.934 0 0 0 .264.663c.12.137.182.272.216.41.033.136.036.267.042.398 0 .027.003.063-.06.066-.062.003-.062-.023-.064-.06-.006-.127-.01-.266-.038-.38a.86.86 0 0 0-.192-.366 1.064 1.064 0 0 1-.216-.347 1.126 1.126 0 0 1-.066-.39c0-.026 0-.06.062-.06s.062.026.062.06zm2.226 1.497c.123.23.192.466.218.682.028.226.014.464-.026.694-.046.277.014.647.166.8.14.238.36.463.644.672a2.86 2.86 0 0 1-.128-.9c.016-.34.12-.67.368-.98.102-.133.17-.27.218-.41.06-.14.076-.282.096-.42.003-.026.008-.06.068-.044.062.004.047.03.046.067-.02.146-.047.292-.097.44a1.62 1.62 0 0 1-.236.438 1.687 1.687 0 0 0-.336.922c-.016.324.066.66.166 1.007.016.046-.04.083-.078.06-.368-.243-.63-.608-.798-.79a1.266 1.266 0 0 1-.178-.87c.038-.23.06-.46.024-.666a1.81 1.81 0 0 0-.207-.643c-.012-.022-.026-.046.022-.07.046-.026.06-.002.07.022zm-.894 1.367c0 .247-.068.493-.192.74a3.387 3.387 0 0 1-.377.678c.08-.03.16-.062.237-.1a2.212 2.212 0 0 0 .7-.497c.097-.1.194-.216.294-.363.014-.022.03-.043.073-.012.043.03.026.062.012.073a3.69 3.69 0 0 1-.306.366 2.48 2.48 0 0 1-.27.242 24.48 24.48 0 0 1 .07.34c.004.027.01.06-.04.063-.06.012-.068-.014-.063-.04l-.038-.183a1.642 1.642 0 0 0-.024-.114 2.21 2.21 0 0 1-.37.21c-.14.068-.28.117-.42.17-.046.016-.09-.046-.068-.083.2-.237.367-.472.484-.707.116-.232.182-.462.182-.692 0-.026 0-.062.062-.062s.062.026.062.062zm-1.088-.087v.234c0 .027 0 .063-.062.063s-.062-.026-.062-.062v-.233c0-.026 0-.063.062-.063s.062.027.062.063z"/>
  <path d="M363.062 113.676c.142.348.18.673.126.976a1.86 1.86 0 0 1-.413.862l-.007.007a1.89 1.89 0 0 0-.474.63c-.078.16-.137.334-.182.616.066-.078.113-.162.182-.22.136-.138.296-.244.61-.304.218-.12.424-.263.616-.403.194-.162.374-.318.64-.606.017-.02.036-.038.074-.006s.02.062.004.073c-.17.192-.366.363-.664.617-.2.164-.41.292-.636.416l-.013.006a1.026 1.026 0 0 0-.47.277 2.287 2.287 0 0 0-.322.443c-.026.043-.104.014-.096-.036.063-.293.13-.67.26-.822.118-.26.28-.474.497-.66.204-.262.34-.618.39-.802.048-.286.013-.69-.122-.92-.01-.023-.02-.047.028-.07.048-.017.06.006.07.03zm2.211 3.646c-.033.096.036.183.176.363l.096.123c.188.26.266.63.26.827.006.29-.06.69-.106.882-.01.06-.094.047-.102-.003a1.79 1.79 0 0 0-.386-.86 3.432 3.432 0 0 0-.79-.692c-.02-.014-.043-.028-.014-.073.028-.043.06-.03.07-.016.323.216.603.46.814.716.16.202.282.42.363.66a3.4 3.4 0 0 0 .06-.612 1.28 1.28 0 0 0-.24-.766c-.036-.06-.067-.088-.093-.12-.163-.212-.24-.314-.192-.46.01-.024.017-.06.067-.034.06.017.04.043.033.067zm.943-.06c.038.04.08.08.116.122.038.04.08.08.117.123.018.02.034.038-.004.074-.038.034-.067.016-.073-.004-.038-.04-.078-.08-.116-.123-.038-.04-.08-.08-.116-.123-.016-.02-.036-.038.003-.074.038-.036.067-.016.073.003zm1.167.37c-.074.233-.146.463-.216.696-.073.232-.144.462-.218.694-.008.026-.016.06-.066.033-.06-.016-.042-.04-.033-.064.074-.234.146-.463.216-.696.073-.232.144-.462.218-.694.007-.026.014-.06.064-.036.06.017.042.04.033.067zm.664 3.88a.242.242 0 0 0 0 .173c.01.024.02.06-.03.067-.048.02-.068-.006-.067-.03a.347.347 0 0 1 0-.26c.01-.026.02-.06.066-.03.06.018.04.042.03.066zm-.687-1.14c-.03.12-.064.246-.096.366-.03.124-.062.244-.096.368-.007.026-.014.06-.064.038-.06-.014-.046-.037-.038-.063.03-.124.064-.244.096-.368.03-.122.064-.246.096-.366.007-.026.012-.06.064-.038.06.012.046.038.038.064zm-.99-.004l.09.09c.018.02.036.036 0 .073-.04.036-.068.018-.074 0l-.09-.09c-.02-.02-.036-.036 0-.074.038-.036.066-.02.073 0zm-1.166-.666a7.324 7.324 0 0 1-.073.206c-.024.07-.047.137-.074.206-.01.026-.016.06-.066.032-.047-.017-.04-.043-.03-.066a6.08 6.08 0 0 1 .073-.207 6.08 6.08 0 0 1 .073-.207c.01-.026.017-.06.067-.033s.04.043.033.066zm-1.666 1.76a.693.693 0 0 0-.138.222 1.29 1.29 0 0 0-.062.262c-.006.026-.01.062-.06.042-.06-.01-.046-.033-.042-.06.017-.09.036-.18.07-.27a.77.77 0 0 1 .166-.266c.017-.018.036-.037.074 0 .038.034.02.063.002.072zm-4.77 4.67a.663.663 0 0 1-.1.16 1.098 1.098 0 0 1-.16.164c-.02.016-.04.033-.073-.01-.033-.04-.012-.067.007-.073a.817.817 0 0 0 .23-.272c.012-.023.02-.047.068-.028.048.02.036.046.026.07zm.747-.396a.362.362 0 0 1-.1.136.612.612 0 0 1-.163.093c-.026.01-.06.02-.066-.03-.02-.06.007-.06.03-.068a.427.427 0 0 0 .13-.073.286.286 0 0 0 .076-.097c.01-.024.02-.048.068-.026.06.02.037.044.027.067zm.991-.606a.48.48 0 0 1-.062.086.624.624 0 0 1-.106.086c-.022.016-.046.03-.07-.016-.027-.046-.006-.06.018-.07a.38.38 0 0 0 .136-.134c.014-.02.026-.044.07-.016.046.026.032.048.02.07zm1.492-3.877c-.06.14-.082.278-.094.416a1.4 1.4 0 0 0 .024.41c.006.026.012.06-.038.062-.06.012-.067-.014-.06-.04a1.397 1.397 0 0 1-.028-.444c.016-.147.048-.294.098-.438.01-.026.016-.06.066-.033.06.016.04.042.033.066zm1.013-10.316a.872.872 0 0 1-.09.343 1.4 1.4 0 0 1-.236.337c-.016.02-.036.038-.073.002-.038-.036-.02-.066-.002-.074.094-.104.168-.21.218-.31a.768.768 0 0 0 .08-.304c0-.026 0-.062.063-.06.063.003.06.03.06.066zm-1.036-.916c.09.166.146.316.176.474.03.166.038.316.028.472 0 .026 0 .062-.063.06-.062-.003-.06-.03-.06-.066a1.76 1.76 0 0 0-.026-.446 1.463 1.463 0 0 0-.163-.443c-.01-.02-.026-.046.02-.07.044-.027.06-.003.07.018zm-1.372 1.702a1.61 1.61 0 0 1-.406-.417.663.663 0 0 1-.096-.437c.006-.026.01-.06.06-.042.062.01.047.033.042.06-.02.122.01.243.08.366.077.128.202.266.377.387.022.016.043.032.012.074-.03.043-.062.026-.073.012zm1.619 2.681v.226c0 .026 0 .062-.062.062s-.062-.026-.062-.062v-.226c0-.026 0-.063.062-.063s.062.027.062.063zm-1.941-1.966c.306.288.49.637.686 1.023.06.24.086.493.09.76.004 0 .008-.004.013-.004.138-.048.244-.17.318-.368.08-.21.12-.498.126-.866a.11.11 0 0 1 .007-.026 1.9 1.9 0 0 0 .22-.636 3.49 3.49 0 0 0 .084-.643c.004-.046.066-.064.096-.026.177.262.334.612.466.792.12.28.2.676.232.898 0 .026.004.062-.06.067-.06.006-.063-.02-.066-.047a2.906 2.906 0 0 0-.223-.866 3.868 3.868 0 0 0-.363-.666 2.897 2.897 0 0 1-.072.417 1.94 1.94 0 0 1-.226.663c-.007.376-.06.67-.13.887-.086.23-.214.372-.382.43-.016.003-.03.008-.044 0-.002.13-.01.26-.02.392 0 .026-.004.062-.066.048-.062-.006-.06-.03-.047-.067.036-.432.026-.842-.07-1.21a1.977 1.977 0 0 0-.666-.976c-.02-.017-.038-.036-.002-.074.036-.038.064-.02.073-.002zm1.137 4.866c-.02.137-.042.272-.063.41-.02.136-.043.272-.064.408-.002.026-.007.062-.06.042-.06-.007-.047-.033-.042-.06l.066-.407c.02-.137.043-.272.064-.41.004-.026.006-.06.068-.042.06.01.048.033.043.06zm-2.184.927l.067.31c.004.026.01.06-.043.06-.06.01-.067-.017-.062-.043l-.066-.312c-.006-.026-.01-.06.042-.06.06-.01.067.018.06.044zm1.889-2.608a2.27 2.27 0 0 1-.16.697c-.082.193-.196.38-.346.668l-.002.003a1.127 1.127 0 0 0-.306.636 1.8 1.8 0 0 0 .064.686c.007.027.012.06-.038.066-.06.012-.067-.012-.064-.038a1.89 1.89 0 0 1-.066-.723c.03-.24.13-.472.33-.692a2.1 2.1 0 0 0 .33-.63 2.1 2.1 0 0 0 .162-.67c.003-.026.008-.062.067-.046.062.007.048.033.046.06zm-.493-.734c.036.2.006.396-.078.694a2.22 2.22 0 0 1-.387.68l-.004.003a1.83 1.83 0 0 0-.403.48c-.1.172-.173.36-.247.63-.01.024-.02.047-.07.028-.046-.02-.037-.042-.027-.066.073-.183.16-.366.264-.644.104-.177.237-.348.42-.606.163-.18.288-.363.366-.646a.916.916 0 0 0 .07-.633c-.003-.026-.008-.06.044-.06.06-.01.067.016.062.042zm-2.412 1.144c.068.398-.003.74-.163 1.038-.147.3-.38.666-.668.786-.02.016-.04.033-.074-.01-.034-.04-.012-.067.01-.073.274-.22.6-.467.64-.76.14-.28.198-.6.144-.978-.003-.026-.008-.062.046-.06.062-.006.064.02.06.046zm-3.077 1.704c.03.062.06.123.088.186.034.066.066.13.096.197.012.023.022.047-.023.068-.048.022-.06 0-.07-.023-.03-.067-.063-.13-.094-.197-.028-.062-.06-.123-.088-.182-.01-.024-.02-.048.024-.07.048-.02.06 0 .07.026zm-1.221.024a2.69 2.69 0 0 0 .074.69c.06.222.164.438.31.644l.006.01c.08.168.124.317.166.478.02.12.036.237.043.366.16-.16.263-.32.346-.488a1.44 1.44 0 0 0 .16-.606c0-.026 0-.062.06-.06.063 0 .063.027.06.063a1.649 1.649 0 0 1-.168.647c-.102.208-.26.407-.448.6-.03.03-.086.01-.087-.036a3.262 3.262 0 0 0-.047-.467 1.762 1.762 0 0 0-.142-.448 1.94 1.94 0 0 1-.324-.677 2.703 2.703 0 0 1-.078-.718c0-.027 0-.063.062-.063s.062.026.062.063zm.166 4.168a2.63 2.63 0 0 1 .18-.766c.01-.022.02-.046.067-.027.06.02.038.042.03.066a2.624 2.624 0 0 0-.173.732c-.002.027-.002.063-.066.048-.063-.003-.06-.03-.048-.066zm-.142 1.162c.02-.164.043-.308.064-.462.002-.026.007-.062.06-.046.06.007.047.033.044.06-.02.163-.042.307-.064.46-.002.027-.007.063-.06.046-.06-.006-.046-.032-.044-.068zm-.799 1.946c.076-.076.16-.166.218-.266.07-.102.138-.213.204-.33.01-.023.026-.044.07-.02.046.026.033.047.02.07a4.037 4.037 0 0 1-.21.34c-.073.104-.16.2-.232.28-.02.018-.038.036-.073 0-.036-.036-.017-.066 0-.074zm-1.164-6.63v.192c0 .026 0 .063-.062.063-.06 0-.06-.027-.06-.063v-.192c0-.026 0-.062.06-.062.063 0 .063.026.063.062zm-1.963 4.499a2.863 2.863 0 0 0-.01-.142l-.01-.146c0-.026 0-.062.06-.066.063-.002.066.022.066.06l.01.142c0 .048.004.096.01.143 0 .026 0 .062-.06.064-.063.002-.066-.02-.066-.06zm4.904-8.001c-.1.343-.178.7-.17 1.007.004.296.087.643.3.68.26.16.368.403.462.638.007.016.012.03.02.043.03-.116.066-.24.068-.362.017-.16.017-.298-.006-.43-.006-.027-.01-.063.042-.062.06-.01.067.016.06.042.023.142.023.3.006.46-.02.178-.06.368-.11.614-.016.043-.077.048-.096.007a6.946 6.946 0 0 1-.078-.17c-.097-.22-.2-.447-.424-.692-.247-.168-.344-.436-.36-.766-.006-.318.072-.686.174-1.038.007-.026.014-.06.064-.036.06.013.043.037.036.063zm-.344-1.311a2.62 2.62 0 0 1-.02.763 4.006 4.006 0 0 1-.233.76 2.41 2.41 0 0 0-.166 1c.017.34.106.676.26.996.013.024.026.048-.022.07-.048.023-.06 0-.07-.026a2.637 2.637 0 0 1-.1-2.078 3.8 3.8 0 0 0 .227-.743c.046-.238.064-.476.02-.73-.002-.027-.006-.063.046-.06.06-.007.066.02.06.046zm-2.277 3.242a.79.79 0 0 0-.06.47c.03.168.097.32.196.48.014.022.026.046-.017.072-.044.026-.068.003-.07-.02a1.604 1.604 0 0 1-.206-.617.876.876 0 0 1 .066-.63c.012-.022.02-.046.07-.026.046.022.034.046.026.07zm-.993-.366c.016.092.02.2.01.31a.868.868 0 0 1-.07.27v.003a.397.397 0 0 0-.038.263c.02.092.067.186.13.28.016.02.03.042-.014.073-.042.032-.066.01-.073-.013a.862.862 0 0 1-.147-.318.484.484 0 0 1 .047-.333.76.76 0 0 0 .062-.234c.01-.098.006-.197-.01-.282-.004-.026-.01-.062.043-.06.062-.008.067.018.06.044zm6.806-8.602a2.318 2.318 0 0 0 .313 1.468c.013.02.026.046-.02.07-.046.027-.067.003-.07-.018a2.69 2.69 0 0 1-.288-.723 2.33 2.33 0 0 1-.038-.806c.002-.026.006-.06.067-.044.063.006.06.03.046.067zm-.728.706c.136.24.262.497.34.78.087.282.146.692.168.936.002.027.002.063-.06.066-.062.003-.062-.024-.066-.06a3.77 3.77 0 0 0-.492-1.668c-.01-.024-.026-.046.02-.07.044-.027.06-.004.07.018zm-3.608.111c-.347.496-.6.898-.627 1.247-.03.346.064.636.2.903l.004.007c.094.276.137.647.13.822a2.68 2.68 0 0 1-.16.82c-.008.026-.016.06-.066.03-.06-.016-.04-.042-.03-.066.094-.263.146-.624.163-.787a2.26 2.26 0 0 0-.123-.782 1.7 1.7 0 0 1-.21-.964c.03-.366.186-.787.646-1.3.016-.02.03-.042.074-.013.042.03.028.062.012.073zm3.364-1.426c.03.16.017.306-.062.467-.06.14-.168.272-.327.398a.81.81 0 0 0-.3.486c-.044.202-.034.437.016.7.006.026.01.062-.042.062-.06.01-.067-.017-.062-.043-.06-.278-.06-.626-.01-.74a.913.913 0 0 1 .336-.646.986.986 0 0 0 .297-.367c.06-.13.07-.266.046-.394-.004-.026-.01-.06.04-.06.06-.01.068.016.062.04zm-3.662.306c.07.22.07.436.007.662-.062.213-.19.424-.386.63l-.004.006a1.21 1.21 0 0 0-.37.676 2.87 2.87 0 0 0-.116.737c-.003.026-.003.062-.066.06-.062-.003-.06-.03-.06-.066a3.04 3.04 0 0 1 .12-.763c.076-.237.198-.46.4-.62.182-.196.3-.392.36-.69a1.01 1.01 0 0 0-.007-.69c-.007-.027-.017-.06.033-.066.06-.014.067.01.064.036zm2.038.107a.763.763 0 0 0 0 .232c.012.074.04.146.088.213.014.022.03.043-.014.074-.043.03-.067.01-.074-.013a.628.628 0 0 1-.104-.264.816.816 0 0 1 0-.263c.002-.026.007-.062.06-.046.062.007.047.033.044.06zm-.097-.636a.863.863 0 0 0-.43.4c-.1.188-.16.43-.18.726.013.014.02.026.02.036.1.136.168.296.21.476.048.197.066.42.068.66 0 .027 0 .063-.064.06-.062 0-.06-.028-.06-.06a2.423 2.423 0 0 0-.064-.636c-.038-.16-.097-.3-.18-.42-.386.36-.676.768-.688 1.192-.014.463.164.946.606 1.472.013.02.028.046-.016.073-.043.03-.067.006-.07-.016-.364-.646-.637-1.068-.623-1.632.016-.467.218-.894.638-1.278v-.002c.016-.326.08-.69.192-.8a.966.966 0 0 1 .483-.447c.024-.008.048-.018.07.03.018.047-.006.06-.03.07zm-.678-.749c-.006.043-.01.076-.012.112-.026.246-.062.622-.24.69a.83.83 0 0 0-.217.318 1.61 1.61 0 0 0-.088.39c-.002.026-.006.06-.067.044-.06-.006-.046-.03-.044-.06a1.71 1.71 0 0 1 .096-.414.92.92 0 0 1 .246-.368c.166-.14.186-.398.206-.623a2.69 2.69 0 0 0 .013-.114c.002-.026.007-.062.06-.046.06.007.047.033.044.06zm6.662 6.041c.062.128.11.26.144.396.036.136.06.276.044.42 0 .026-.002.062-.064.06-.063-.003-.06-.03-.06-.066a1.433 1.433 0 0 0-.038-.392c-.03-.126-.08-.26-.14-.376-.012-.023-.02-.047.026-.068.048-.022.067 0 .07.023zm.016 1.868c.046.214.048.432.01.66-.038.218-.12.44-.237.666l-.24.662c-.01.023-.02.047-.068.028-.048-.02-.038-.046-.03-.07.082-.186.16-.376.24-.663l.003-.006a2.16 2.16 0 0 0 .23-.636 1.606 1.606 0 0 0-.008-.612c-.006-.026-.01-.062.04-.062.06-.012.067.014.06.04zm-1.18-1.73c.34.377.66.776.664 1.196.106.42.096.86-.033 1.32-.007.027-.016.06-.064.037-.06-.016-.043-.038-.036-.064.123-.444.136-.866.033-1.268-.102-.403-.316-.787-.642-1.162-.017-.02-.033-.038.006-.074s.067-.016.073.004zm-.103 2.086a6.328 6.328 0 0 1-.867 1.322 2.62 2.62 0 0 0-.64.94c-.014.046-.104.03-.1-.02a1.463 1.463 0 0 0-.06-.47 1.866 1.866 0 0 0-.21-.47c-.19-.278-.27-.66-.266-.84.017-.28.128-.667.327-.834.114-.194.196-.39.262-.686a2.39 2.39 0 0 0 .092-.688c0-.026.002-.062.066-.06.062.002.06.028.06.064a2.61 2.61 0 0 1-.36 1.224l-.003.006c-.188.262-.294.623-.308.78-.016.262.064.62.24.78v.003c.1.166.174.332.222.6.02.08.038.167.047.236a2.66 2.66 0 0 1 .47-.728 4.92 4.92 0 0 0 .496-.66c.14-.217.266-.433.366-.648.013-.024.023-.048.07-.026.047.02.036.046.026.068zm-3.094-.996c-.007.268.017.6.07.727.06.226.136.436.266.63.016.022.027.046-.016.072-.046.028-.067.004-.07-.017a2.264 2.264 0 0 1-.27-.66 2.994 2.994 0 0 1-.07-.763c0-.026.003-.063.062-.06.062.002.062.028.06.062zm-1.761.943v.302c0 .027 0 .063-.062.063s-.062-.026-.062-.062v-.303c0-.026 0-.062.063-.062.062 0 .062.026.062.062zm.683-1.61c.006.178-.02.36-.073.617a1.437 1.437 0 0 1-.273.474c-.016.02-.033.042-.073.006-.042-.033-.023-.062-.006-.073.118-.14.2-.287.26-.44a1.37 1.37 0 0 0 .07-.482c0-.026-.002-.062.06-.062.062 0 .062.027.062.06zm-1.686 3.124c-.286-.708-.363-1.27-.282-1.727.072-.463.286-.813.666-1.1.187-.192.36-.382.467-.62.107-.236.167-.62.12-.904-.004-.026-.006-.062.046-.067.062-.006.062.02.067.047.038.403-.014.704-.128.968-.11.262-.282.46-.476.66a1.87 1.87 0 0 0-.636 1.043c-.07.44 0 .986.277 1.676.01.022.02.046-.028.066-.048.02-.06-.006-.07-.028zm-.916-1.164a.72.72 0 0 0-.046.344c.012.114.064.23.126.346.016.022.03.046-.016.07-.046.03-.067.006-.07-.016a.942.942 0 0 1-.14-.39.83.83 0 0 1 .06-.39c.01-.024.02-.047.067-.03.06.018.037.042.03.066zm4.498-3.194c.187.263.296.636.318.82.02.284-.043.678-.204.884-.012.02-.024.046-.07.02-.046-.022-.032-.046-.02-.068.16-.286.213-.66.192-.827a1.61 1.61 0 0 0-.3-.768c-.016-.02-.03-.042.013-.073.043-.03.067-.01.073.012zm1.406-1.1a2.402 2.402 0 0 1 .07 1.67c-.014.048-.1.04-.1-.013a1.784 1.784 0 0 0-.162-.702 1.623 1.623 0 0 0-.43-.634c-.018-.017-.04-.034-.007-.074.034-.04.063-.024.074-.007.2.16.363.36.467.67.064.136.112.283.14.44.03-.173.046-.346.038-.62a2.26 2.26 0 0 0-.176-.79c-.01-.026-.02-.048.028-.07.048-.02.06.006.07.03zm.834-1.14c.186.183.316.424.396.723.078.293.106.64.092 1.036v.002a2.02 2.02 0 0 0-.007.484.96.96 0 0 0 .137.41c.016.022.03.046-.014.074-.046.03-.06.006-.073-.017a1.06 1.06 0 0 1-.164-.466 2.28 2.28 0 0 1 .007-.607v.003a3.618 3.618 0 0 0-.088-1.006 1.478 1.478 0 0 0-.367-.676c-.02-.02-.038-.036 0-.073.036-.038.064-.02.073 0zm-2.214-.22c-.12.147-.194.32-.23.612-.036.194-.03.407.006.64.006.026.01.06-.043.06-.06.008-.064-.018-.06-.044a2.023 2.023 0 0 1-.004-.676c.038-.21.12-.397.262-.66.016-.02.033-.04.073-.008.04.034.024.062.007.074zm-4.339 2.922a1.98 1.98 0 0 1-.346 1.07 2.486 2.486 0 0 1-.8.706c-.023.014-.046.026-.072-.02-.027-.044-.006-.066.018-.07.31-.182.676-.4.768-.676.193-.273.312-.606.33-1.016 0-.026.003-.062.066-.06.062.003.06.03.06.066zm-.113-1.493c.026.16.016.317-.02.474a2.172 2.172 0 0 1-.176.466c-.012.023-.024.046-.07.023-.047-.024-.036-.048-.023-.07.076-.16.136-.298.168-.442.034-.146.043-.287.022-.437-.003-.026-.007-.06.046-.068.062-.007.067.02.06.046zm2.94-.216v.146l.06.763.006.068c.002.026.002.062-.048.067h-.016c-.006.01-.018.014-.042.014-.062 0-.062-.027-.062-.063v-.844l-.014-.206c-.003-.026-.006-.062.047-.067.06-.002.064.022.066.048v.016c.012.01.012.026.012.043zm.71-1.31c-.21.262-.293.496-.297.736-.006.24.068.478.177.716.247.397.327.79.3 1.186-.022.394-.163.786-.326 1.176-.012.024-.02.047-.07.026-.046-.02-.034-.046-.026-.07.17-.378.293-.76.317-1.14a1.848 1.848 0 0 0-.287-1.127l-.002-.004c-.116-.26-.196-.604-.19-.766.006-.262.097-.628.32-.8.017-.02.033-.04.074-.007.04.033.023.062.007.073zm-4.66-8.128c.346-.263.68-.412 1.036-.46.36-.036.713.04 1.106.226.132-.003.262-.003.392-.006.133-.002.268-.006.4-.006.027 0 .063 0 .063.062s-.026.062-.062.062c-.136.002-.268.004-.4.004-.12.003-.24.003-.36.006l-.008.008c-.422.372-.782.676-1.102.642a1.06 1.06 0 0 1-.872-.19c-.026-.018-.06-.037-.016-.09.036-.06.064-.036.09-.016a.96.96 0 0 0 .773.168c.28-.06.697-.232.97-.647-.342-.16-.666-.21-.966-.178-.326.033-.643.176-.968.424-.026.02-.062.04-.09-.01-.038-.063-.014-.072.012-.09z"/>
  <path d="M361.64 100.993a.26.26 0 0 1 .26.26.26.26 0 0 1-.26.26.26.26 0 0 1-.26-.26.26.26 0 0 1 .26-.26zm1.794 1.677c.188-.098.332-.203.463-.31.12-.106.213-.216.294-.324.016-.02.032-.043.074-.012.043.03.027.062.012.074a2.266 2.266 0 0 1-.308.343c-.126.113-.277.22-.474.32-.023.013-.047.026-.07-.02-.022-.046 0-.06.023-.07zm3.7-1.632a.622.622 0 0 1 .29.002.766.766 0 0 1 .28.164c.018.017.04.033.006.074-.033.04-.062.023-.074.007a.666.666 0 0 0-.24-.133.463.463 0 0 0-.236-.002c-.026.007-.06.014-.064-.038-.014-.06.012-.067.036-.064zm-2.116.086a.862.862 0 0 1 .38-.426c.172-.09.387-.128.66-.106.027.003.063.006.048.067-.006.06-.03.06-.067.047-.246-.022-.442.01-.693.092a.728.728 0 0 0-.336.376c-.01.024-.02.047-.068.026-.048-.02-.038-.046-.026-.07zm.242.347a.423.423 0 0 1 .116-.24.668.668 0 0 1 .268-.147c.026-.007.06-.014.064.036.014.06-.012.067-.036.064a.446.446 0 0 0-.218.12.346.346 0 0 0-.088.184c-.006.026-.01.06-.06.042-.06-.007-.047-.033-.042-.06zm-3.622 1.17c-.067.09-.11.182-.147.282a.823.823 0 0 0-.047.332c.003.026.006.062-.047.064-.062.003-.066-.02-.067-.047a.944.944 0 0 1 .06-.374c.04-.11.096-.208.167-.303.016-.02.03-.046.072-.017.044.03.03.06.016.072zm1.009.463v.166c0 .026 0 .06-.062.06s-.062-.026-.062-.06v-.167c0-.026 0-.063.062-.063s.062.027.062.063zm-.667-1.128a.96.96 0 0 0 .31.06c.106 0 .212-.016.316-.04.026-.004.06-.01.062.04.012.06-.014.066-.038.063a1.4 1.4 0 0 1-.34.04.996.996 0 0 1-.347-.066c-.026-.01-.06-.02-.03-.067.018-.06.042-.038.066-.03zm.66-1.896a.318.318 0 0 0-.21.066.377.377 0 0 0-.13.19c-.006.026-.013.06-.063.036-.06-.014-.043-.04-.036-.064a.49.49 0 0 1 .168-.242.43.43 0 0 1 .272-.086c.026 0 .063 0 .063.06 0 .063-.027.063-.063.063zm-1.06.108a.796.796 0 0 0-.187.11.264.264 0 0 0-.083.112c-.01.026-.017.06-.066.033-.06-.016-.04-.04-.034-.066.02-.06.06-.11.117-.16a.863.863 0 0 1 .216-.127c.024-.01.048-.02.067.03.02.046-.004.068-.03.068zm-.647.018a.82.82 0 0 0-.163.147.67.67 0 0 0-.107.183c-.01.024-.017.06-.066.03-.048-.016-.04-.042-.03-.066a.737.737 0 0 1 .122-.213.9.9 0 0 1 .184-.168c.02-.016.043-.03.073.013s.01.067-.014.073zm-.833.666a1.702 1.702 0 0 0-.378.392c-.014.02-.03.042-.073.01-.044-.03-.028-.06-.013-.072.06-.083.123-.16.19-.228.066-.068.137-.13.21-.184.022-.017.043-.03.074.01.032.042.01.066-.01.072zm.084.918c-.06.064-.1.11-.16.16l-.16.162c-.017.02-.036.038-.074.002-.038-.036-.022-.064-.003-.073l.16-.16.16-.16c.018-.02.037-.04.076-.004.038.036.02.066.002.074zm-.841.244v.322c0 .026 0 .062-.062.062-.06 0-.06-.026-.06-.062v-.322c0-.026 0-.062.06-.062.063 0 .063.026.063.062zm1.077 1.416c-.016.176-.032.362-.06.63 0 .016 0 .033-.003.06-.003.026-.006.06-.067.047-.062-.006-.06-.03-.048-.067.003-.017.003-.033.006-.06l.06-.628c.002-.027.006-.063.067-.048.062.006.06.03.047.067zm-.632-.468c-.002.114-.007.23-.01.343 0 .026-.004.063-.066.06-.062-.002-.06-.028-.06-.062.003-.116.007-.23.012-.346 0-.026.002-.062.066-.06.06.003.048.03.048.066zm-.688-4.489a.73.73 0 0 1 .467.467c.01.026.017.06-.033.066-.06.017-.067-.01-.066-.033a.66.66 0 0 0-.166-.264.696.696 0 0 0-.26-.162c-.023-.01-.047-.02-.03-.067.02-.048.043-.04.066-.03zm6.162 6.731c.1.226.166.46.167.673.004.226-.04.46-.136.676-.01.024-.02.048-.067.03-.047-.02-.037-.046-.028-.07a1.647 1.647 0 0 0-.022-1.266c-.012-.023-.022-.047.026-.068.047-.022.06.002.068.026zm-1.682 1.946c.073-.264.18-.474.303-.676.123-.2.263-.384.403-.664.16-.21.268-.436.326-.668a1.82 1.82 0 0 0 .02-.76c-.006-.026-.01-.048.042-.068.06-.01.067.017.06.043.047.26.046.633-.02.8-.06.247-.17.49-.343.71a6.316 6.316 0 0 0-.397.664c-.118.196-.223.41-.29.66-.008.026-.016.06-.066.036-.06-.014-.043-.038-.036-.064zm-2.164-.672a.718.718 0 0 1 .16-.26.902.902 0 0 1 .262-.186c.024-.012.047-.02.07.024.02.047 0 .06-.027.07a.796.796 0 0 0-.234.162.673.673 0 0 0-.136.216c-.01.024-.018.06-.066.03-.047-.016-.04-.042-.03-.066zm-.42-.161c.08-.106.162-.202.264-.287.096-.088.202-.16.326-.21.023-.01.047-.02.066.027.02.06-.004.06-.03.067a.967.967 0 0 0-.29.19 2.06 2.06 0 0 0-.243.274c-.017.022-.03.043-.073.01-.043-.03-.026-.062-.01-.074zm2.244-2.223c.09.04.174.06.267.06a.826.826 0 0 0 .242-.03c.026-.007.048-.014.063.036.014.06-.012.067-.036.064a.794.794 0 0 1-.67-.036c-.022-.01-.046-.02-.026-.068.02-.048.046-.036.07-.026zm-1.118-.144c.026-.032.062-.06.078-.09l.01-.013c.017-.02.036-.038.073-.006.038.036.022.066.006.074l-.01.012c-.026.03-.06.06-.08.09-.017.02-.033.038-.073.006-.038-.034-.022-.066-.006-.074zm24.136 6.962c.06.066.093.112.13.173.036.062.066.126.088.194.01.026.017.06-.033.063-.06.017-.067-.01-.066-.033a.76.76 0 0 0-.078-.173.796.796 0 0 0-.118-.164c-.016-.02-.036-.038.003-.073.038-.036.067-.017.073.002zm-26.796 12.676c.114.106.232.2.363.266a.96.96 0 0 0 .43.104c.027 0 .063 0 .063.062 0 .06-.027.06-.063.06-.178 0-.334-.044-.48-.116-.14-.07-.267-.17-.386-.28-.02-.016-.038-.036-.002-.073.036-.038.064-.02.073-.002z"/>
  <g fill="red">
    <path d="M368.9 99.6a8.222 8.222 0 0 0 1.666-.08c-.62.378-1.187.63-1.906.76a.77.77 0 0 0 .27-.34.426.426 0 0 0-.02-.33zm-1.42-.148c.386.064.786.11 1.182.136.004.01.012.017.016.026.064.088.083.173.066.266-.033.094-.123.194-.27.296-.04.028-.08.067-.024.136a6.63 6.63 0 0 1-1.216.022.177.177 0 0 0 .04-.033c.146-.163.238-.31.264-.473a.627.627 0 0 0-.06-.362zm-10.49-3.014c.668-.088 1.348-.11 2.04-.093a.986.986 0 0 1 .6.406c.114.2.164.46.107.786-.007.047-.014.097.083.11.097.013.104-.037.11-.084.06-.37.003-.67-.132-.907a1.046 1.046 0 0 0-.266-.294c.062.002.124.004.186.01.797.042 1.416.27 2.107.613a.118.118 0 0 1 .017.02c.148.163.197.312.174.476-.026.173-.13.36-.296.662-.03.038-.064.074.01.138.076.064.108.026.14-.012.186-.22.31-.44.34-.662a.696.696 0 0 0-.036-.348c.683.29 1.176.666 1.76.87.013.007.026.01.037.02 0 .01.004.026.01.036a.484.484 0 0 1-.063.426c-.088.126-.247.234-.476.32-.046.016-.09.033-.066.126.033.09.08.074.126.067.27-.103.46-.233.668-.394a.63.63 0 0 0 .107-.463c.38.206.763.42 1.164.607v.002c.07.138.082.26.027.376-.067.12-.19.234-.4.338-.043.022-.088.043-.046.13.042.09.087.067.13.046.264-.126.416-.27.49-.43a.644.644 0 0 0 .043-.346c.136.06.273.116.413.168a8.1 8.1 0 0 0 1.32.36.466.466 0 0 1 .11.377.736.736 0 0 1-.212.368c-.033.036-.066.068.002.137a.27.27 0 0 0 .03.026c-1.48-.16-2.798-.86-4.177-1.393-.163-.064-.33-.126-.492-.19-.61-.192-1.024-.463-1.636-.66a.16.16 0 0 0-.066-.034c-.036-.012-.07-.024-.106-.033-.02-.01-.044-.017-.066-.027.002.003.007.006.01.008a8.477 8.477 0 0 0-1.418-.33 6.112 6.112 0 0 0-1.626-.018l-.09-.014c.06-.292.01-.648-.134-.77a1.26 1.26 0 0 0-.47-.416z"/>
    <path d="M364.666 97.09a8.688 8.688 0 0 1 2.074-.603c.32.128.634.286.666.47.116.182.146.396.104.642a4.197 4.197 0 0 0-1.84.226c-.166-.33-.367-.63-.614-.638a1.243 1.243 0 0 0-.38-.1zm7.468 3.772a9.414 9.414 0 0 0-.66-.334 6.92 6.92 0 0 0-3.037-.86c.01-.007.016-.017.026-.024.377-.384.46-.746.332-1.086-.1-.264-.33-.608-.647-.73.366-.018.684.004 1.064.066.623.073 1.198.26 1.814.497.162.332.196.624.128.87-.07.26-.263.474-.676.662-.042.024-.086.047-.038.133.048.086.09.06.133.036.364-.204.686-.46.67-.772.063-.24.044-.61-.062-.812.417.187.794.41 1.067.664.343.237.682.476 1.014.727.002.42-.122.66-.326.786-.216.13-.623.147-.874.112-.047-.006-.097-.01-.107.087v.006z"/>
    <path d="M364.062 102.39c-.616-.482-1.218-.986-1.866-1.42.368.03.678 0 .92-.143.234-.146.388-.396.414-.806.387.3.76.616 1.113.964.177.168.366.334.638.498 0 .002.003.004.003.01.043.16.067.28.046.39a.46.46 0 0 1-.11.263.647.647 0 0 1-.274.164c-.173.06-.398.068-.676.028-.046-.006-.094-.01-.106.073z"/>
    <path d="M366.178 103.79c-.213-.11-.417-.223-.614-.34-.472-.28-.916-.6-1.348-.933.266.02.488.007.668-.043a.76.76 0 0 0 .366-.21c.09-.1.143-.224.16-.376a.922.922 0 0 0-.002-.216c.424.363.87.7 1.36.993.262.164.606.3.767.434-.003.017 0 .033.002.062.03.196-.078.318-.277.396-.233.092-.68.13-.974.164-.046.002-.088.006-.093.08z"/>
    <path d="M368.448 104.68a11.886 11.886 0 0 1-2.064-.782c.366-.026.687-.068.92-.16.262-.106.414-.266.404-.624a10.8 10.8 0 0 0 1.273.66c.077.168.082.306.01.42-.086.143-.272.262-.604.364-.046.02-.09.04-.06.128v.002z"/>
    <path d="M373.18 104.2c.06-.01.44-.11.243.036-1.394.912-3.162.91-4.828.48.26-.116.47-.266.676-.43a.67.67 0 0 0 .068-.443c.63.173 1.07.296 1.624.367a.376.376 0 0 1-.088.262c-.088.11-.237.216-.48.323-.046.02-.09.038-.06.128.037.09.082.07.127.06.276-.12.464-.26.668-.38a.66.66 0 0 0 .13-.363 8.963 8.963 0 0 0 2.133-.033zm-9.638 24.006c-.104.11-.19.23-.277.372-.406.136-.763.337-1.2.318 0 .282.093.406.376.407.638-.27.66-.32.707-.282.066.067-.076.444-.622.766-.068.043-.066.07-.026.14.376.69 1.364.38 1.896.24.38-.1 1.064-.66 1.264-.93.072-.172-.093-.4-.26-.686-.42.066-.663-.13-.497-.264-.443-.167-.936-.19-1.46-.17zm-16.162-4.776c-.307.26-.66.46-1.06.683-.163.06-.62.14-.666.33-.006.07.247.22.408.132.446-.427.668-.19.166.246-.04.084-.007.177.08.266.463.416 1.608.66 2.13.22.386-.24.687-.607.26-.874a1.74 1.74 0 0 1 .026-.246l-.637-.064-.39-.227-.416-.363zm9.974 3.47c-.038.004-.078.01-.116.016-.206.223.36.14.66.326.14.084.198.247.143.476-.276.66-1.824.447-2.338.176-.24-.126-.26-.27-.24-.476.107 0 .216-.008.326-.024.186-.026.368-.08.648-.183.06-.028.102-.06.046-.168-.067-.103-.11-.076-.16-.046a1.294 1.294 0 0 1-.463.164 2.67 2.67 0 0 1-.486.016h-.04c-.09-.062-.168-.114-.12-.168.038-.062.187.006.216.014.24-.11.448-.182.707-.232.036-.036.068-.074.104-.11.47.04.922.112 1.22.22zm-7.164-.406c-.096.067-.13.137-.198.287-.27.273-.628.437-.874.693-.287.13-.01.266.192.394.182.136.422-.16.67-.382.164-.246.33-.173.224.02-.12.21-.204.613-.216.672-.062.17.688.3.7.306.396.02.893-.367 1.203-.664.26-.264.22-.494.106-.814l.003-.02a1.97 1.97 0 0 1-.477-.06 3.432 3.432 0 0 1-.668-.184c-.024-.01-.047-.02-.028-.068.01-.03.026-.038.042-.036l-.682-.166zm2.77-26.378c.11-.006.218-.01.324.002.202.024.394.112.696.136.672-.263 1.23-.393 1.71-.372a6.68 6.68 0 0 1 1.728-.217.076.076 0 0 1-.02-.02c-.07-.067-.037-.103 0-.136.314-.32.387-.614.286-.88-.104-.274-.388-.633-.784-.77-.423.048-.828-.066-1.276-.016a4.06 4.06 0 0 0-.826.183c.224.08.42.213.682.403.2.236.34.666.417.968.01.047.016.094-.08.113-.094.02-.103-.03-.113-.078-.068-.368-.196-.667-.374-.868-.187-.268-.616-.372-.76-.427-.46.046-.89.096-1.274.194-.29.073-.644.176-.738.327.29-.062.69-.06.86.08.26.123.46.366.693.732.017.044.03.092-.062.123-.092.03-.11-.016-.123-.062-.11-.324-.287-.618-.493-.62-.41-.204-1.266-.026-1.614.24a4.23 4.23 0 0 0-.623.692c-.02.026-.046.06-.073.062.767.062 1.64.093 2.137.332zm-2.278-.434c-.017-.042.012-.073.038-.104.216-.244.434-.46.66-.626.217-.16.442-.277.674-.332.237-.263.688-.42.996-.626.396-.102.848-.164 1.306-.2-.136-.27-.308-.436-.607-.623-.213-.093-.46-.108-.723-.082-.662.19-1.042.486-1.614.82.044 0 .086 0 .127.003.14.01.266-.01.38.034.06.017.094.033.06.126-.04.11-.346.042-.462.036a1.362 1.362 0 0 0-.4.038c-.024.006-.046.012-.067.006-.496.306-.87.616-1.27.966.303.107.64.232.694.38z"/>
  </g>
  <g>
    <path d="M409.028 166.6l20.742-47.013-16.3-24.706-27.287 10.103-12.63 49.687a219.388 219.388 0 0 1 34.472 11.93z" fill="#0093dd"/>
    <path d="M382.676 113.013a261.716 261.716 0 0 1 39.69 13.704l-8.003 18.147a231.962 231.962 0 0 0-36.474-12.623z" fill="#fff"/>
    <path d="M416.46 141.96l6.347-12.12a248.667 248.667 0 0 0-39.066-13.618l-3.162 12.398a236.896 236.896 0 0 1 37.046 12.822l-.186.417z" fill="red"/>
    <path d="M386.69 126.766c.368-.226.74-.17 1.124-.11.31-.116.668-.166 1.067-.142.167-.09.36-.164.677-.194.116-.09.12-.188.016-.293a.62.62 0 0 1-.168-.363c-.616-.367-.844-.903-1.08-1.443-.36-.09-.613-.21-.66-.343-.17-.016-.34-.033-.608-.062-.8.088-1.006-.17-1.29-.38-.236-.08-.443-.21-.676-.46l-.263-.33c-.22-.278-.163-.646.176-.624.233.027.463.027.676-.066.26-.112.62-.11.903-.086.334-.02.646-.236.87-.64-.003-.13-.003-.267-.006-.387-.062-.14.014-.202.2-.183a.98.98 0 0 1 .866.608c.606.087.903.33 1.17.763.672.004 1.126.267 1.18.606.04.182-.167.39-.46.614.002.046.004.092.004.137.18.167.3.313.36.467.377.146.737.34 1.074.623.96-.11 2.678.686 4.766 1.982a18.68 18.68 0 0 1 4.12 1.217c.28.01.668.017.836.026 2.372-.36 4.67-.08 6.804 1.66.806.097 1.63.36 2.228.64.62.213 1.047.296 1.68.346a7.93 7.93 0 0 1 2.606.698c.974.218 1.884.624 2.448 1.206.402.484.306.93-.206 1.114-.308.66-.922.678-1.84.368-.634.116-1.33-.39-1.964-.867-.878-.283-1.686-.79-2.486-1.33-.416-.31-.834-.608-1.242-.696-.32-.068-.606-.113-.798 0-.096.067-.083.09 0 .16.222.186.38.466.43.803.044.296-.004.637.013 1 .02.38.26.66.633.896.264.16.676.33 1.03.396.216.043.276.17.27.332.12.678.232 1.16.443 1.686.06.16.173.22.343.346.686.423.282.896-.26.997-.468.412-.87.69-1.36.798-.38.128-.638-.028-.666-.216a.483.483 0 0 1-.443-.247c-.467-.343-.068-.94 1.048-.686.024-.13.118-.17.213-.168-.066-.29-.104-.61.02-.912-.098-.064-.183-.146-.328-.192-.403-.128-.784-.313-1.086-.696-.672-.637-1.466-.988-2.326-1.44-.71-.036-1.24-.363-1.797-.64l-.764-.01c-.22-.073-.4.003-.634.16-.223.272-.48.227-.787.19-.36-.04-.707-.013-1.068-.018-.173.043-.343.097-.63.1-.396-.022-.783-.026-1.046.194-.218.23-.436.213-.664.128a.978.978 0 0 1-.36-.242c-.276-.067-.463-.126-.613-.208-.463-.13-.693-.26-.672-.39-.614-.148-.322-.632.076-.648.47-.02.898.07 1.368.136.386.11.863.046 1.178-.24.204-.184.28-.342.63-.48-.796-.062-1.38-.192-1.812-.464-1.16-.733-2.09-.91-2.83-.29-.197.112-.36.167-.662.076a1.063 1.063 0 0 0-.683-.028c-.42.096-.834.043-1.263-.11a4.09 4.09 0 0 1-1.84.063c-.618.272-.898.303-1.14.094a8.648 8.648 0 0 1-.646-.397c-.33-.06-.472-.132-.486-.242-.422-.046-.474-.2-.472-.368-.176-.202-.11-.366.066-.486.313-.13.638-.178.998.007.216.102.376.2.606.303.24-.028.446 0 .626.067.133-.21.61-.218.923-.196.206-.137.462-.234.768-.263-.01-.06-.018-.1-.026-.147-.414-.11-.628-.41-.834-.713-.637-.012-1.096-.28-1.66-.66-.374.032-.676-.092-.967-.267-.237.02-.6.028-.76-.036a2.66 2.66 0 0 1-1.4 0c-.31.03-.66-.002-.816-.026-.29.334-.618.394-.976.223-.197-.26-.476-.413-.83-.606-.267-.087-.36-.204-.398-.33-.327-.2-.26-.4.066-.66.236-.116.632-.136.982.086.147.066.31.093.496.107z"/>
    <path d="M401.218 130.618c-.03-.064-.097-.192-.336-.064-.742-.04-1.67-.03-2.196-.398-.66-.382-1.318-.78-2.036-.762.216-.2.48-.34.788-.422.413-.11.9-.116 1.44-.028.76.123 1.428.27 1.946.466.497.186.848.418 1.002.717a.406.406 0 0 0 .043.047c.2.128.372.268.616.396.11.102.204.208.286.322a2.6 2.6 0 0 1-.716-.043 2.876 2.876 0 0 1-.74-.266z" fill="#fff"/>
    <path d="M402.926 94.71l.042.223.934 4.836-3.713 3.237-.17.16.216.076 4.666 1.61.946 4.834.046.223.17-.16 3.72-3.226 4.663 1.697.217.073-.043-.223-.934-4.837 3.714-3.237.17-.16-.216-.073-4.666-1.612-.946-4.834-.046-.222-.17.16-3.724 3.227-4.66-1.6z"/>
    <path d="M400.66 102.96l3.47-3.024 4.362 1.603zm8.41-1.632l3.482-3.027 4.36 1.606zm7.862-1.368l-3.47 3.024-4.363-1.602zm-8.412 1.636l-3.48 3.024-4.36-1.603zm-6.092-6.429l4.363 1.493.883 4.628zm6.622 6.464l4.36 1.603.872 4.62zm6.114 6.126l-4.364-1.49-.88-4.63zm-6.622-6.466l-4.36-1.6-.873-4.62zm3.022-7.627l.884 4.617-3.482 3.027zm-2.79 8.101l.88 4.63-3.477 3.016zm-2.746 7.494l-.884-4.618 3.48-3.026zm2.789-8.101l-.88-4.63 3.478-3.014z" fill="#f7db17"/>
  </g>
</svg>
