<svg xmlns="http://www.w3.org/2000/svg" xmlns:xlink="http://www.w3.org/1999/xlink" height="480" width="640">
  <path fill="#d21034" d="M0 0h640v480H0z"/>
  <path fill="#00209f" d="M0 0h640v240H0z"/>
  <g fill="#f1b617" stroke="#000" stroke-width=".183">
    <path fill="#fff" d="M244.286 179.664h161.428V300.2H244.286z" stroke="none"/>
    <path d="M360.476 266.826l-30.902.897-30.764.36s-16.806 6.846-22.266 7.167c-6.442 1.308-6.606 3.424-10.69 4.638-3.992.892-4.463 1.174-6.796 1.328-1.417.093-3.163 1.183-4.87 2.386v16.72h161.426v-16.902c-1.64-.896-3.206-1.61-4.806-2.064-2.224-.767-3.724-1.684-7.716-2.476-4.984-1.114-4.147-3.23-10.688-4.638-6.46-1.312-22.127-8.404-22.127-8.404z" fill="#016a16" stroke="#016a16" stroke-width=".293"/>
    <g transform="translate(-80) scale(1.6)">
      <g id="a">
        <path d="M244.63 143.612l1.396-.033 2.666 10.748-.644 3.386-3.407-14.102z"/>
        <path d="M243.064 136.346l.964 8.284 1.022-.066-1.976-8.218z" fill="#fff"/>
        <path d="M246.722 164.69l-4.293-11.64 1.6-.098 6.01 14.102-2.318-2.466z"/>
        <path d="M239.42 136.477l1.77 8.02h1.432l-3.203-8.02z" fill="#fff"/>
        <path d="M241.906 160.646l-2.62-6.424 1.09-.23 4.6 9.007-3.17-3.364z"/>
        <path d="M236.08 138.778l2.794 7.626h1.43l-4.224-7.626z" fill="#fff"/>
        <path d="M242.26 161.364l-11.437-12.484c-3.67 2.828-2.908 8.02-2.908 8.02l12.967 10.167 1.387-6.703z" fill="#0a328c"/>
        <path d="M248.86 168.236l-8.482-8.694c-3.687.126-.74 6.48-.66 6.163l9.043 7.734v-6.292z" fill="#d20014"/>
        <path d="M248.14 166.767l-17.64-18.78-.686.483 18.66 20.622-.336-2.326zm-18.664-19.986l-.386-.446.04-.89-3.62-2.304 1.617 3.64 1.232.223.384.446.732-.668z"/>
        <path d="M227.738 138.11c.616-.743 1.348-1.486 2.667-2.192l1 1.46-2.166 1.82-1.602-1.078z"/>
        <path d="M226.81 141.278l.69 1.026c.363-.136 4.03-3.467 4.03-3.467l2.632-.08.766-.838c-1.932-2.08-3.762.296-3.762.296l-4.266 3.062z" fill="#0a328c" stroke="#0a328c"/>
        <path d="M227.91 143.007c.14-.918 1.877-3.214 2.13-3.296 1.302.39 2.614 1.14 3.834-1.837-1.148 1.46-3.47-.027-3.47-.027l-1.01.838.03.406-3.063 2.837 1.64 1.08z" fill="#d20014" stroke="#d20014"/>
        <g>
          <path d="M237.262 164.672l-14.367-11.41c-2.46 2.602-.416 10.23-.416 10.23l14.043 7.608.74-6.428z" fill="#0a328c"/>
          <path d="M249.166 163.917l-11.818-9.467c-4.036.666-.864 6.606-.623 7.16l12.48 6.77-.04-4.463z" fill="#d20014"/>
          <path d="M248.697 162.006l-26.664-19.182-.687.69 26.837 20.966-.696-2.366zm-26.769-20.198l-.46-.374-.122-.886-3.98-1.662 2.26 3.314 1.263.014.468.374.6-.78z"/>
          <path d="M220.36 143.433c.472-.836 1.06-1.69 2.22-2.603l1.247 1.26-1.796 2.162-1.673-.81z"/>
          <path d="M218.926 146.64l.16 1.06c.337-.187 3.66-3.726 3.66-3.726l2.686-.477.628-.833c-1.797-2.114-3.713.698-3.713.698l-3.12 3.278z" fill="#0a328c" stroke="#0a328c"/>
          <path d="M220.97 148.646c-.122-.982 1.22-3.863 1.466-3.98 1.647.46 2.894 1.162 3.462-2.07-.897 1.614-3.46.363-3.46.363l-.86.98.12.63-2.61 3.37 1.893.807z" fill="#d20014" stroke="#d20014"/>
        </g>
        <g>
          <path d="M236.224 161.66c-.19-.046-18.617-10.44-18.617-10.44-1.334 2.26-.128 6.62.467 6.028.034 1.6-.602 2.306.707 6.44.387 2.036 1.33 3.912 2.7 6.026 1.672 6.417 8.223 6.848 10.747 1.624l3.907-7.677z" fill="#0a328c"/>
          <path d="M248.362 168.612l-12.648-7.366c-4.036.667.086 8.066.326 8.71l12.116 4.304.106-6.668z" fill="#d20014"/>
          <path d="M246.243 166.846l-28.36-16.09-.484.673 29.904 16.646-1.07-2.23zm-29.716-16.909l-.614-.3-.266-.866-4.2-1.04 2.767 2.936 1.24-.177.616.3.466-.86z"/>
          <path d="M216.232 161.782c.332-.896.773-1.828 1.772-2.907l1.436 1.066-1.426 2.4-1.783-.648z"/>
          <path d="M214.1 166.18l.693 1.168c.307-.232 3.004-4.678 3.004-4.678l2.492-.82.468-1.014c-2.002-1.86-3.498 1.342-3.498 1.342l-3.06 3.903z" fill="#0a328c" stroke="#0a328c"/>
          <path d="M216.772 166.836c-.2-1 .484-4.197.7-4.346 1.66.466 2.863.698 3.223-2.62-.907 1.628-3.328.962-3.328.962l-.71 1.086.16.38-2.06 3.96 2.026.6z" fill="#d20014" stroke="#d20014"/>
        </g>
      </g>
      <use height="100%" width="100%" xlink:href="#a" transform="matrix(-1 0 0 1 499.86 0)"/>
    </g>
    <g transform="translate(-80) scale(1.6)">
      <path d="M248.767 126.603l-.466 9.07h2.9l-.426-8.992 3.023-.423-.336-3.682-7.61.29.04 3.263 2.772.386z" fill="#016a16" stroke="#016a16"/>
      <g id="b" fill="#016a16">
        <path d="M249.817 121.898c-7.764-7.77-13.878-3.98-16.334-2.902.963.187 1.826-.412 2.273-.48-.28.363-.866 1.23-.866 1.23s2.4-1.136 2.67-1.03c-.347.276-.728.936-.728.936.178.07 1.628-1.066 1.796-1.076-.41.466-.64 1.628-.64 1.628l1.17-.646c.306.216-.084.63.18.61 1.946-.16 4.678 1.776 6.064 2.37"/>
        <path d="M247.896 123.32c-.81-1.863-16.688-6.004-18.66.246 1.164.293 2.276-.976 2.276-.976l-.1 1.17 1.972-1.612-.708 1.66 1.668-1.268-.06 1.27 1.92-2.1-.262 1.22 1.72-.73-.203 1.023"/>
        <path d="M247.238 123.614c-3.793-2.637-9.66-.83-9.66-.83-3.74 2.1-6.736 1.72-6.22 6.61.366-.146 1.366-1.366 1.366-1.366l.76 1.612.26-2.147.608 1.66.91-2.733.203 1.864 1.416-1.864.668.636.607-1.416.666.927s.962-.686 1.62-.244l1.06-1.22.263.88.91-1.074.366.78.91-.83-.06.686 3.136.06"/>
        <path d="M246.38 124.063c-2.643-.06-10.226 2.812-12.188 6.806a13.29 13.29 0 0 1 1.263-.636l.387 1.203.473-1.203.1.927c.29-.723.618-.806 1.164-.048l.2-1.122.306 1.073.606-1.17s.318 1.27.606 1.22c0 0 .838-2.196 1.214-2.294l.1 1.366.606-1.366.466 1.024.1-1.464.606 1.122s.266-1.103.668-1.317l.768.683 3.378-2.427"/>
        <path d="M246.888 124.678c-3.62 1.36-6.67 6.18-6.43 8.226 1.666-1.94 1.23-1.674 1.928.66 0 0 .264-1.966.63-2.187l.46 1.446.17-1.892.47.023-.12-1.187.698.636c-.163-.677-.338-.906.386-1.488 0 0-.917.117-.193-1.636l.676.66s-.12-.72.12-1l2.486-.86"/>
        <path d="M247.23 126.04l-1.33 2.634.68.197-1.634 1.163 1.296-.132s-1.978.726-2.217 2.666l2.013-.888s-1.706 1.744-1.946 2.797l1.16-1.02s-1.126 1.217-.966 3.06l.863-.964c-.204 2.238-.136 2.436.888 4.147 0 0-.273-2.633.034-2.962l2.26 2.337-1.26-3.324s1.397 2.106 2.26 1.91l-1.774-2.7 1.74 1.416-1.978-2.96 1.84.668s-1.33-1.677-1.227-2.73l1.262 1.382s-.477-1.68-.34-2.04l.647.132-1.262-1.448.863-.166-.102-.963.616-.197-.034-1.063m-1.093-.006c-2.184 2.96-1.068 7.636-2.364 9.87"/>
      </g>
      <use height="100%" width="100%" xlink:href="#b" transform="matrix(-1 0 0 1 499.86 0)"/>
      <path d="M260.946 166.636s1.19-9.946 1.186-14.226c0-3.37-.813-10.836-.813-10.836H247.9s-.62 7.43-.442 10.79c.1 4.28 1.186 14.27 1.186 14.27h2.3z"/>
      <path d="M247.674 141.963h3.96l-.466-2.666h-2.87l-.626 2.666z"/>
      <path d="M247.927 139.816h3.64l-.668-2.666h-2.18l-.693 2.666z"/>
      <path d="M248.166 137.666h2.96l-.6-2.666h-1.876l-.676 2.666z"/>
      <path d="M260.71 134.673h-2.064l-.21.964h2.442l-.17-.964zm.422 29.694h-2.62m2.763-1.947h-2.94m3.329-1.976h-3.727m3.919-2.164h-3.9m3.927-2.16h-4.102m4.262-1.97h-4.46m4.46-1.79h-4.66m4.622-2.16h-4.66m4.496-2.136h-4.496m4.289-2.17H247.6m3.867-1.969h-3.672"/>
      <path d="M249.91 119.044c-.69-.324-2.246-1.313-1.784-1.903l.713-1.213c1.01-2.277-.02-1.396-.127-2.106-.103-.68 3.866-.148 3.924 1.398.016.426-.296.176-.262 2.61l-.766 1.46c-.666.062-1.234-.016-1.72-.244z" fill="#0a328c" stroke="#0a328c"/>
      <path d="M260.392 124.934l-.986-.83.273-7.106.964.282-.262 7.662z"/>
      <path d="M261.672 119.246c.62-.362 1.024-1.443.66-2.086-1.016-1.286-1.673-.766-3.378-1.336-.34.362-1.066 1.06-.902 1.68 2.242 1.066 1.372.166 2.114.287.4.07.668.646 1.616 1.664z" fill="#d20014" stroke="#d20014"/>
    </g>
    <g transform="translate(-80) scale(1.6)">
      <use height="100%" width="100%" xlink:href="#c" transform="matrix(1 0 0 -1 -.002 320.37)"/>
      <path d="M238.368 161.76c0 1.3-.816 2.363-1.818 2.363-1.004 0-1.82-1.064-1.82-2.363v-1.276h3.638v1.276z" fill="#016a16" stroke="#fff" stroke-width=".181" stroke-linecap="round"/>
      <ellipse cx="236.639" cy="160.063" rx="1.806" ry=".898" fill="#fff" stroke="none"/>
      <path d="M236.126 161.076l-.31-3.297h1.382l-.226 3.297h-.846z" fill="#016a16" stroke="#f1b617"/>
      <path id="c" d="M238.638 160.118c-.266.493-1.06.862-2 .862-.937 0-1.727-.36-1.992-.862a.766.766 0 0 0-.1.36c0 .668.938 1.21 2.093 1.21 1.164 0 2.09-.642 2.09-1.21a.748.748 0 0 0-.092-.36z" fill="#016a16" stroke="#fff" stroke-width=".237" stroke-linecap="round"/>
      <g id="d">
        <path d="M246.036 172.786l-7.06-2.19-3.076-6.264-10.894-.636.378 3.94 9.28 1.777.882 1.68 10.666 2.97-.177-2.288z"/>
        <path d="M238.662 174.264l-11.149-16.398-.647.41 11.06 16.468.636-.48z" fill="#603200"/>
        <path d="M228.66 168.6l-1.19-1.992c-.222-.368-.66-.49-1.068-.228-.484.266-.437.76-.24 1.123l1.1 1.862 1.39-.766z" fill="#fff"/>
        <path d="M239.986 164.127l-22.496-2.286-.647 3.272 22.387 2.26.666-3.236z"/>
        <path d="M217.09 160.997l-.684 4.638h.948l.666-4.16-1.02-.388zm3.764.738l-.266 4.08.682.07.474-3.622-.802-.628zm16.241 1.769l-.647 3.834 1.094-.036.437-3.8h-.986zm3.361.106l-.78 4.433 1.24.18.363-2.332c.1.47.63.826 1.046.826.69 0 1.07-.464 1.07-1.032 0-.668-.48-1.026-1.07-1.026-.41 0-.78.24-.94.687l.23-1.662-1.16-.073zm-8.119.72l-3.094 3.48.36.424 3.972-2.71-1.238-1.196zm-7.193 8.68l3.094-3.482-.36-.423-3.972 2.71 1.238 1.196zm8.096-.87l-3.764-2.91-.387.272 2.964 3.766 1.186-1.12zm-9.282-6.717l3.816 2.81.464-.348-2.99-3.766-1.29 1.293zm4.162-2.319l.366 4.673.613-.022 1.207-4.462-2.086-.1zm1.26 11.096l-.364-4.674-.666-.063-.69 4.626h1.62zm6.06-6.164l-4.794.61-.073.467 4.86.634.018-1.6zm-11.407 1.684l4.68-.74.1-.366-4.842-.64.063 1.644z"/>
        <ellipse cx="227.693" cy="168.648" rx="1.27" ry="1.226"/>
        <path d="M234.438 168.648c0 3.692-3.022 6.607-6.746 6.607-3.723 0-6.746-2.916-6.746-6.607 0-3.692 3.022-6.607 6.746-6.607 3.723 0 6.746 2.916 6.746 6.608zm-1.347 0c0 2.874-2.418 6.207-6.397 6.207-2.98 0-6.398-2.333-6.398-6.207 0-2.874 2.42-6.207 6.398-6.207 2.98 0 6.398 2.334 6.398 6.208z" fill-rule="evenodd" stroke-linecap="round"/>
        <path d="M223.48 166.264l-1.067-.796m8.611.026l.902-.92m1.031 9.127l-1.11-.87m-8.377 1.866l.964-1.02M246.196 162.122l1.166 6.886-.94.497-1.016-6.3.8-.083z"/>
        <path d="M246.692 161.364c-.636-.224-1.232.166-2.374-1.292-1.878 1.723-.107 1.98.18 3.686.63.218.867-1.323 2.3-1.48.18-.02 2.3-.204 2.3-.204l-.633-.726s-1.474.04-1.873.016z" fill="#fff"/>
        <path d="M246.36 162.618l-.216-1.766c-.232-.62-1-.087-1 .276l.197 1.62 1.017-.14z" fill="#fff"/>
        <path d="M240.766 167.372l.02 1.637c-.637.182-.466.684-.438 1.167l.02 4.772c-.19.316-.78.33-1.066.678-.277.248-.242.73 1.02 1.047l.976.036c1.486-.326 1.793-.818 1.048-1.096-.397-.148-.92-.324-1.117-.667l.033-1.137.966.036c.26 0 .763-.662.77-1.186l.006-2.47c-.036-1.4-1.086-1.668-1.38-1.64l.02-1.29-.886.002zm1.63 2.73c.018-.4-.666-.767-.786-.767-.23-.01-.736.467-.762.867v1c.034.367.327 1.61.916 1.7.28.044.64-.4.64-.766l-.017-2.034z" fill-rule="evenodd"/>
        <path d="M234.276 172.328c-.636-.267-.63 1.172-.63 1.172l1.002.01c.44.2.792.843.612 1.16-.232.26-2.178-.442-2.31-.038.346 1.94 2.918 2.688 3.86 1.84.91-.832 1.14-3.06-1.818-3.63l-.607-.614zm.696.628l-.292.64" fill="#fff"/>
        <path d="M214.943 173.066l-.963-4.06m2.132 3.817l-1.48-3.163m4.026 2.324l-3.337-1.792m4.782 1.427l-6.192-2.688"/>
        <path d="M210.216 166.013s-2.264-.036-2.666.122c-.163.064.666.826.416 1.116-.663 1.083-4.394.934-4.697.698-.62-.406 3.668-.763 3.696-1.03.03-.316-.606-1.146-.606-1.664.128-.66 1.788-.907 1.788-.907l2.06 1.666z" fill="#d20014" stroke="#d20014"/>
        <path d="M213.233 168.06l-6.102-4.222s-.224-.238-.412-.033c-.184.2.07.43.07.43l6.262 4.36.183-.626z" fill="#603200"/>
        <path d="M218.146 172.217c-.09-.087-4.166-3.608-4.166-3.608l-.27-1.03s-.628.426-.868.646c-.23.22-.687.82-.687.82l1.138.06 3.696 3.296 1.138-.173z"/>
        <g>
          <ellipse cx="232.634" cy="177.066" rx=".74" ry=".716"/>
          <ellipse cx="230.641" cy="176.716" rx=".74" ry=".716"/>
          <ellipse cx="228.091" cy="176.693" rx=".74" ry=".716"/>
          <ellipse cx="224.163" cy="177.446" rx=".74" ry=".716"/>
          <ellipse cx="222.487" cy="177.64" rx=".74" ry=".716"/>
          <ellipse cx="220.846" cy="177.64" rx=".74" ry=".716"/>
          <ellipse cx="219.18" cy="177.691" rx=".74" ry=".716"/>
          <ellipse cx="219.988" cy="176.326" rx=".74" ry=".716"/>
          <ellipse cx="221.604" cy="176.398" rx=".74" ry=".716"/>
          <ellipse cx="223.144" cy="176.203" rx=".74" ry=".716"/>
          <ellipse cx="222.361" cy="174.961" rx=".74" ry=".716"/>
          <ellipse cx="220.846" cy="174.937" rx=".74" ry=".716"/>
        </g>
        <path d="M236.47 177.99c0-.316-.77-.18-.77-.66 0-.41 1.174-.11 1.336.263.66-.696.944-.16 1.348.02.676-.866 1.287-.823 1.98-.197.402-.443 1.41-.297 1.768.197.664-.66 1.266-.497 1.716-.02.186-.346.468-.27.664-.02.366-.628 1.243-.44 1.617-.024.332-.367.673-.08 1.114.19.298-.28.78-.228.78.06 0 .288-.63.187-.63.473 0 .266.46.127.46.46 0 .266-.68.36-.786-.066-.23.44-1.062.27-1.144-.138-.276.334-.897.436-1.246-.06-.286.234-.63.267-.787.03-.617.667-1.388.443-1.688-.17l-.296.013c-.608.69-1.302.37-1.62-.01-.863.616-1.362.42-1.838.02-.648.666-1.38.62-1.673 0-.368.267-1.137.33-1.137.017 0-.3.663-.192.663-.47zm1.666.16c0 .144-.196.26-.436.26-.24 0-.436-.116-.436-.26 0-.142.196-.26.436-.26s.436.118.436.26zm1.82-.217c0 .172-.236.312-.624.312-.288 0-.623-.14-.623-.312 0-.173.236-.312.624-.312.29 0 .626.14.626.313zm3.676.197c0 .176-.212.316-.474.316s-.474-.14-.474-.316c0-.174.212-.316.474-.316s.474.142.474.316zm-1.904-.083c0 .22-.207.4-.463.4s-.464-.18-.464-.4c0-.22.207-.4.463-.4s.463.18.463.4zm4.06.01c0 .198-.186.368-.414.368-.23 0-.416-.16-.416-.368 0-.197.186-.367.416-.367.228 0 .414.16.414.367zm-1.244.083c0 .128-.12.23-.267.23-.148 0-.268-.102-.268-.23 0-.127.12-.23.268-.23.147 0 .267.103.267.23zm2.422.094c0 .183-.136.33-.302.33-.166 0-.3-.147-.3-.33 0-.183.134-.332.3-.332.167 0 .302.16.302.332z" fill-rule="evenodd"/>
      </g>
      <use height="100%" width="100%" xlink:href="#d" transform="matrix(-1 0 0 1 499.86 0)"/>
      <g stroke-width=".231">
        <path d="M249.837 166.718c-2.612 0-4.66.944-4.66 2.102 0 .2.067.39.17.672.642.63 2.306 1.087 4.397 1.087 1.967 0 3.626-.403 4.277-.97.166-.217.267-.447.267-.69 0-1.168-2.038-2.102-4.66-2.102z" fill="#0a328c" stroke="#0a328c"/>
        <path d="M264.427 167.98v7.06c0 .827-2.048 1.498-4.672 1.498s-4.673-.67-4.673-1.6v-7.067c0 .83 2.06 1.6 4.673 1.6 2.624 0 4.672-.67 4.672-1.6z" stroke-width=".187"/>
        <path d="M246.282 167.982v1.082l2.22 6.846 1.772-6.266 1.946 6.466 1.426-6.16 1.783 3.47v-1.92l-1.666-3.363a8.26 8.26 0 0 1-.693.134l-1.03 3.813-1.446-3.604a14.622 14.622 0 0 1-.716-.024l-1.464 3.627-1.66-4.367c-.377-.217-.694-.466-.694-.734z" fill="#d20014" stroke="#d20014" stroke-width=".183"/>
        <path d="M264.427 173.72v1.32c0 .826-2.048 1.498-4.672 1.498s-4.673-.672-4.673-1.6v-1.317c0 .83 2.06 1.6 4.673 1.6 2.624 0 4.672-.67 4.672-1.6z" fill="#0a328c" stroke="#0a328c" stroke-width=".187"/>
        <path d="M261.737 176.086c-.372.066-.77.097-1.186.118l.01 1.317c.418-.02.816-.062 1.187-.118l-.013-1.317zm-4.869-.23l-.012 1.312c.363.1.76.186 1.186.246v-1.317a8.907 8.907 0 0 1-1.174-.24zm-1.686-1.132v1.317c0 .246.186.474.606.68l.023-1.302c-.336-.21-.628-.443-.628-.696zm9.146.14l-.023.006c-.08.266-.38.616-.83.722l.006 1.312c.63-.246.848-.64.848-.863v-1.177z" stroke-width=".187"/>
        <path d="M264.427 168.027v7.012c0 .827-2.048 1.498-4.672 1.498s-4.673-.67-4.673-1.6v-7.01" fill="none" stroke-width=".187"/>
        <path d="M263.392 167.62c0 .6-1.684.907-3.637.907-1.964 0-3.638-.406-3.638-.907 0-.6 1.684-.907 3.638-.907 1.963 0 3.637.406 3.637.907z" fill="#fff" stroke="#fff" stroke-width=".192"/>
        <path d="M248.698 168.19l.167 1.26c.307.022.626.038.963.04l.232-1.29h-1.342zm4.102-.303l-.91.247.067 1.177c.31-.062.602-.116.866-.19l-.012-1.233zm-6.403-1.907c-.26.076-.6.164-.72.262l.127.946.68-.186.013-1.023zm2.44-.374c-.122 0-.24.007-.36.01l.197 1.184.606-.012.237-1.164a9.727 9.727 0 0 0-.68-.028zm2.673.418l-.122 1.034.69.244.077-1.016a6.26 6.26 0 0 0-.646-.263z"/>
        <path d="M246.993 168.8l.184-1.288-.936-.606.028 1.466.723.33zm8.403-.278l.042-1.288-.876.262.834 1.026z" stroke-width=".183"/>
      </g>
      <path d="M263.686 160.03c.83-.116 2.062 1.023 2.136 2.432.06 1.118-1.69 1.06-1.69 1.06-.09.468-1.066.88-1.84.916-.763.033.207-1.432.207-1.432-.476-1.26.147-2.748.147-2.748l1.04-.23z"/>
      <path d="M262.6 162.948l.8-.03s.06.416.208.43c.167.018.326-.4.326-.4l1.217-.03"/>
      <path d="M264.13 160.86c.68-.492.086-1.48-.386-1.49l-1.098.03c-.617.01-1.392.672-1.276 1.068.103.424.388.618.832.644.202-.033.626-.663.83-.672.276-.013.88.688 1.1.43z" fill="#d20014" stroke="#f1b617"/>
      <path d="M214.242 174.866c-.617.078-.73.788-.6 1.44-2.686.766-6.086 1.74-7.466 2.406-.096-.473 1.174-1.844 1.174-1.844.337.162.688.93.688.93.084-1.678 1.64-2.628 1.64-2.628-.926-.122-3.733.967-4.07 1.412 0 0 1.088-.12 1.266 0 0 0-2.14 2.312-2.237 3 .333.76 4.027 1.31 4.027 1.31-.068.196-1.087.932-1.087.932 1.47.322 3.686-.718 4.347-1.36 0 0-1.728-.144-3.074-1.236 0 0 .277.68.11 1.004 0 0-2.1-.604-2.318-.962.006-.03 4.966-1.316 7.368-2 .088.428.666 1.238 1.138 1.047.374-.126.266-.866.117-1.39a.77.77 0 0 0 .606.186c.422 0 .767-.327.767-.736 0-.407-.346-.74-.767-.74a.766.766 0 0 0-.72.606c-.096-.463-.346-1.364-.808-1.296zm1.89 1.628c0 .19-.162.346-.36.346a.362.362 0 0 1-.367-.346c0-.19.16-.346.368-.346.197 0 .368.164.368.346z" fill-rule="evenodd"/>
      <g>
        <path d="M293.068 177.884c.183-.367-.162-2.212-.162-2.212-.373.042-.882.68-.882.68.48-1.61-.866-4.036-.866-4.036.91.19 3.944 3.128 4.102 3.667 0 0-1.33-.474-1.63-.416.217 1.606 1.268 2.206 1.66 2.988 0 0-1.726.38-1.663 1.822l-1.128.02c-.39-.48.162-1.276.162-1.276l-7.74-3.24c-.498-.21-1.62-.72-1.46-1.32.168-.603 2.016.262 2.47.4l6.934 2.93z"/>
        <path d="M286.636 176.64l.91-1.672c.326-.44-.346-.92-.823-.366l-1.02 1.627c-.464.836.6 1.066.933.6z"/>
      </g>
    </g>
    <g fill="#fff" stroke-width=".293">
      <path d="M290.187 288.686l-.1-2.92-3.632.196-.2 3.18 3.832-.464z"/>
      <path d="M264.38 292.678l-4.722-2.648c19.47 1.784 23.446-6.006 28.16-6.37 2.893-.226 3.344 3.203-2.26 1.672l1.46 3.686s-13.822 7.776-27.407 4.664l4.79-1.704zm84.818-4.092l.1-2.92 4.32.1.202 3.18-4.622-.36z"/>
      <path d="M376.902 291.963l4.443-2.424c-22.302.663-17.224-3.664-28.383-4.878-2.883-.313-6.06 3.393 2.26 1.672l-1.448 3.686 3.607.003c7.698 6.003 17.86 6.46 24.643 3.843l-6.02-1.703z"/>
      <path d="M286.47 286.263v6.047s12.364 4.687 34.43 4.687c22.16 0 34.43-4.687 34.43-4.687v-6.047s-9.36 4.312-34.43 4.312c-24.978 0-34.43-4.312-34.43-4.312z"/>
    </g>
    <path d="M287.317 291.328l1.09-3.696.608.14-.963 3.268 1.887.62-.13.436-2.393-.668zm3.678-1.626l.06-.726.164-.622.64.13-.164.624-.31.664-.29-.07zm6.32-.26l.617.102-.46 2.176c-.08.38-.187.67-.322.876a1.168 1.168 0 0 1-.696.448c-.26.094-.68.104-.966.03-.367-.07-.663-.19-.86-.368a1.066 1.066 0 0 1-.386-.626c-.06-.26-.034-.674.06-.972l.46-2.176.616.102-.46 2.172c-.068.327-.088.676-.067.742a.7.7 0 0 0 .26.422c.136.114.313.193.636.236.38.076.668.046.866-.09.196-.134.344-.437.444-.91l.468-2.172zm.682 4.017l.642-3.792.633.086 1.66 3.302.604-2.977.6.08-.644 3.79-.634-.084-1.66-3.306-.606 2.98-.498-.08zm4.066.614l.647-3.806.62.07-.646 3.806-.622-.07zm1.6-1.68c.076-.632.31-1.11.706-1.428.396-.32.87-.46 1.43-.388.364.04.683.16.967.362.273.2.47.46.687.778.118.318.166.668.11 1.06a2.212 2.212 0 0 1-.367 1.012 1.667 1.667 0 0 1-.77.618 2.046 2.046 0 0 1-.99.13 1.923 1.923 0 0 1-.966-.37 1.69 1.69 0 0 1-.684-.786 2.097 2.097 0 0 1-.114-.978zm.64.07c-.066.46.03.836.266 1.128.226.293.63.46.918.604.394.043.734-.066 1.02-.294.286-.24.46-.606.617-1.096.037-.31.014-.688-.067-.832-.08-.243-.22-.44-.414-.69a1.33 1.33 0 0 0-.682-.27c-.37-.04-.704.047-1 .263-.297.216-.48.61-.647 1.186zm3.693 2.266l.324-3.83.638.042 1.83 3.17.266-3.006.603.04-.324 3.83-.64-.043-1.83-3.174-.264 3.008-.603-.04zm6.682.387l.174-3.838 2.686.112-.02.463-2.168-.09-.063 1.187 1.867.08-.02.462-1.867-.08-.08 1.746-.626-.023zm2.934.126l1.607-3.813.668.01 1.662 3.872-.6-.01-.44-1.173-1.666-.032-.46 1.166-.66-.01zm1.182-1.666l1.36.026-.396-1.07a9.822 9.822 0 0 1-.266-.802c-.066.246-.13.488-.23.73l-.468 1.118zm3.06 1.617l.01-3.842.626.002-.008 3.842h-.627zm2.47-.01l-.06-3.39-1.313.02-.008-.464 3.166-.046.007.464-1.317.017.06 3.388-.627.008zm3.906-.093l-.186-3.838.626-.024.166 3.386 1.96-.088.02.463-2.486.112zm2.68-.117l1.242-3.937.667-.04 1.908 3.72-.698.043-.66-1.13-1.66.114-.36 1.19-.66.04zm1.03-1.662l1.346-.092-.493-1.033c-.16-.314-.262-.672-.34-.776a4.76 4.76 0 0 1-.16.746l-.362 1.164zm4.676 1.213l-.437-3.818 2.67-.286.062.46-2.147.23.136 1.182 1.868-.198.062.46-1.868.2.198 1.734-.624.066zm2.92-2.192c-.094-.63.01-1.16.307-1.664.3-.406.726-.647 1.282-.723.364-.06.704-.01 1.02.116.318.126.676.33.773.61.198.278.326.607.38.988.06.386.03.742-.088 1.068-.116.327-.31.69-.683.786a2.02 2.02 0 0 1-.923.367c-.37.06-.714.008-1.032-.124a1.736 1.736 0 0 1-.77-.616 2.124 2.124 0 0 1-.366-.92zm.64-.066c.067.468.248.802.642 1.03.296.23.636.317 1.02.264.393-.066.696-.233.91-.634.216-.302.286-.697.213-1.187a1.922 1.922 0 0 0-.282-.79 1.26 1.26 0 0 0-.666-.47 1.348 1.348 0 0 0-.73-.094c-.37.06-.67.217-.9.498-.23.28-.303.708-.218 1.28zm4.18 1.29l-.71-3.78 1.737-.306c.36-.06.62-.074.816-.038.196.036.363.13.604.284.14.163.23.333.27.64.06.27.002.61-.143.727-.146.216-.402.38-.768.496a1.4 1.4 0 0 1 .347.133c.177.107.36.26.626.427l.876.91-.662.114-.667-.696a7.436 7.436 0 0 0-.472-.466 1.198 1.198 0 0 0-.31-.207.818.818 0 0 0-.266-.06c-.06 0-.16.01-.292.034l-.602.106.316 1.68-.618.09zm.122-2.203l1.114-.196a1.74 1.74 0 0 0 .642-.17.688.688 0 0 0 .302-.636.673.673 0 0 0-.284-.406c-.166-.09-.38-.112-.67-.06l-1.24.216.236 1.262zm6.29-.42l.643.016c-.013.43-.134.783-.364 1.068-.23.276-.648.466-.962.644-.42.09-.78.082-1.08-.026a1.63 1.63 0 0 1-.766-.686 2.67 2.67 0 0 1-.44-.96c-.09-.39-.093-.747-.006-1.072.087-.324.266-.692.606-.806.26-.213.647-.367.89-.43.388-.086.737-.06 1.047.073.31.133.667.36.74.686l-.478.226c-.164-.264-.33-.424-.63-.61a1.098 1.098 0 0 0-.69-.047c-.3.064-.633.187-.702.368a1.102 1.102 0 0 0-.292.648c-.027.26-.01.6.047.747a2.3 2.3 0 0 0 .34.803c.16.217.342.362.672.436.23.076.464.086.7.036a1.14 1.14 0 0 0 .676-.4c.162-.203.242-.47.24-.8zm1.463 1.046l-1.07-3.7 2.773-.748.127.437-2.266.61.328 1.134 2.12-.67.127.433-2.122.672.366 1.26 2.364-.636.127.437-2.86.77z" fill="#000" stroke="none"/>
  </g>
</svg>
