<svg xmlns="http://www.w3.org/2000/svg" height="480" width="640" version="1">
  <defs>
    <clipPath id="a">
      <path fill-opacity=".67" d="M-87.62 0h682.67v612H-87.62z"/>
    </clipPath>
  </defs>
  <g fill-rule="evenodd" clip-path="url(#a)" transform="translate(82.14) scale(.94)">
    <path fill="#fff" d="M619.43 612H-112V0h731.43z"/>
    <path fill="#00c" d="M619.43 116.23H-112V48.003h731.43zm0 360.46H-112v-67.227h731.43zm-483-274.9l110.12 191.64 112.49-190.76-222.61-.79z"/>
    <path d="M226.76 317.81l20.96 36.606 21.4-36.36-42.36-.146z" fill="#fff"/>
    <path d="M136.02 320.68l110.13-191.64 112.48 190.76-222.61.79z" fill="#00c"/>
    <path d="M226.76 191.61l20.96-36.606 21.4 36.36-42.36.146zm-43.78 79.6l-21.64 36.982 40.9-.127-19.26-36.866zm-21.27-66.6l41.226.29-19.834 36.26-21.39-36.66zm161.24 66.91l20.83 36.676-41.71-.633 20.88-36.043zm20.46-66.91l-41.226.29L311 241.16l21.39-36.66zm-114.27-.04l-28.394 61.616 28.8 60.297 62.73 1.217 32.044-61.616-29.61-61.92-66.672.406z" fill="#fff"/>
  </g>
</svg>
