<svg xmlns="http://www.w3.org/2000/svg" height="480" width="640" version="1">
  <defs>
    <clipPath id="a">
      <path fill-opacity=".67" d="M-77.62 0h682.67v612H-77.62z"/>
    </clipPath>
  </defs>
  <g clip-path="url(#a)" transform="translate(72.77) scale(.94)">
    <path fill-rule="evenodd" fill="#ba0000" d="M629.43 612H-102V0h731.43z"/>
    <path d="M281.02 376.01c.2-.606.603-6.844.402-6.844s-9.46-10.867-9.268-10.867c.202 0 11.874 2.616 11.874 2.213 0-.402 4.63-11.47 4.63-11.672 0-.2 6.634 13.486 6.634 13.486l11.47 6.032-8.06 6.64s1.813 12.88 1.813 13.083c0 .2-8.06-7.66-8.06-7.66l-8.867 1.008s-1.206-4.026-1.608-4.427z" fill-rule="evenodd" fill-opacity=".988" stroke="#000" stroke-width="2.204" fill="#ffef00"/>
    <path d="M218.66 206.89c-7.647 3.938-36.996 37.486-41.02 42.718-3.373 7.696-9.97 17.206-16.763 23.39-7.262 6.488-11.282 12.983-10.284 20.08-.08 8.83 4.87 14.842 8.814 21.066 2.336 2.838 6.476 4.673 8.816 4.896 6.86.906 7.468 3.014 10.887 4.32 13.606 18.39 33.663 31.96 48.163 42.69 9.26 4.876 16.68 9.76 17.886 12.412 4.248 8.112 3.466 16.022 2.884 19.908-3.69 13.66-7.182 27.097-10.773 40.646-1.813 11.07 7.807 8.68 8.324 6.366 4.34-6.636 10.82-1.678 20.077-34.28 4.246-6.713 8.49-11.426 12.733-17.14 0 0 4.898-1.968 4.898-2.447 7.448-8.942 1.778-14.06-2.46-16.67-3.1-1.142-6.2-2.286-9.302-3.43 0 0-10.773-10.772-11.263-10.772-6.12-14.893-30.248-46.687-36.086-61.114-4.04-4.21-6.963-6.006-9.798-8.347-6.897-2.82-7.8-3.738-11.41-6.18-3.008-1.206-.867-4.607 1.046-6.016 19.903-10.834 36.68-22.876 64.778-36.118l2.938-1.96-6.866-39.176-31.83-11.264c-1.67 1.143-2.937 2.287-4.407 3.43z" fill-rule="evenodd" stroke="#000" stroke-width="2.636" fill="#fff"/>
    <path d="M246.29 413.16c.1-.402 19.923-4.026 19.923-4.026s-2.314 7.346-2.416 7.346l-19.72 6.937 2.212-9.267z" fill-rule="evenodd" fill="#ffec00"/>
    <path d="M193.64 338.61c3.824-10.163 14.438-18.21 21.668-20.43" stroke="#000" stroke-width="2.204" fill="none"/>
    <path d="M244.68 413.32c1.28-.36 6.96-2.018 8.616-2.276 1.766-.414 3.623-.876 6.22-1.424 1.96-.4 3.186-.768 6.22-1.14 1.696-.607 3.17-1.024 4.874-1.422m-27.62 18.618c.167-.22 1.617-1.416 2.487-1.992 1.143-.36 6.06-2.018 6.627-2.276a63.936 63.936 0 0 0 4.662-1.424c1.76-.4 2.846-.768 4.663-1.14 1.422-.607 2.83-1.023 4.36-1.422" stroke="#000" stroke-width="2.437" fill="none"/>
    <path d="M249.04 341.38h-.284c.89 0 .344-.074-.866 1.423-.426 1.16-4.08 3.7-6.83 3.7-1.327.142-3.367.284-4.696.284-.38 0-.9-.284-1.28-.284m13.666 63.617h1.422c1.476 0 2.967.263 4.27.284 1.423 0 2.846.404 4.27.404 1.436.203 3.167.137 4.663.348 1.666.067 3.004.386 4.738.386 1.398.063 2.162.286 3.7.286l-3.7-.286c1.398.063 2.162.286 3.7.286M239.08 434.74c.162-.222 1.39-1.416 2.276-1.992 1.047-.36 4.624-2.018 6.978-2.276a46.719 46.719 0 0 0 4.268-1.424c1.604-.4 2.606-.768 4.27-1.14 1.304-.607 2.692-1.024 3.984-1.422m6.874-41.216c-.806 2.337.238 2.924.67 3.933.76.977 2.666 2.466 6.693 3.416 1.167.314 2.064.622 3.416 1.14.894.082 1.334.306 1.992.668M163.13 299.66h.284c-.892 0-.367.068 1.14-1.14.923-1.032 1.696-1.6 2.66-2.66m14.436 23.97c.19 0 16.667-8.26 18.306-10.01 1.238-.9 2.176-1.846 3.68-2.866.967-.604 1.66-1.16 2.664-1.707.76-1.09 1.733-1.748 2.276-2.746 1.006-.87.674-1.816 1.39-2.864.384-1.076 1.106-2.886 1.34-3.87M221.96 308c.09.69-.26 2.402-.236 3.782-.067 1.6-2.116 6.643-4.603 8.02" stroke="#000" stroke-width="2.204" fill="none"/>
    <path d="M192.66 307.82c.096 0 2.687.81 6.76 2.09 6.013 1.803 16.438 8.372 16.472 9.277 1.067.83 2.946 1.673 3.67 2.66 1.133.98 1.962 2.108 2.847 3.13 1.04 1.27 1.926 2.342 2.66 3.417 3.166 2.667 11.68 20.343 11.963 21.346.478.94 1.07 2.246 1.424 3.13.63.728 1.06 1.766 1.707 2.847.696 1.416 1.262 2.06 1.994 3.13.942.666 2.212 1.9 3.416 2.662 1.283 1.096 2.486 1.643 3.416 2.277 1.343.67 16.342 10.062 17.038 10.627 1.37 1.1 6.666 6.437 2.617 8.69-1.246 1.067-2.37 2.48-3.433 3.082-1.086 1.086-2.694 1.672-3.84 2.134-6.768 1.997-10.2 1.282-11.63 1.282h-1.423M169.42 274.29c1.92.762 1.146.197 2.876.984 1.162.61 1.927.622 3.07.94 1.21.387 4.697.997 6.223 2.63 1.194 1.078 2.106 1.99 3.416 2.776 1.66 1.07 2.67 1.646 4.692 2.347 1.622.607 3.436 1.28 6.076 1.338 1.706.1 2.114.014 3.76.014h3.984-3.986 3.984" stroke="#000" stroke-width="2.204" fill="none"/>
    <path d="M168.96 293.28c4.268-.284 11.383.997 11.626.997l9.393-.142c4.934-.476 6.024-2.373 6.83-3.702 1.86-2.846 3.132-3.84 4.666-6.976 2.276-1.707 6.41 2.277 6.66 2.277 7.97 7.643 1.666 16.792 1.138 17.076-3.983 3.663-4.837 3.89-7.266 1.666-2.42-2.846-3.13-4.126-6.123-6.123-3.84-1.86-11.81-.426-11.964-.426-.142 0-4.126 1.666-4.126 1.666-1.946.712-3.18 2.42-6.646 2.988-3.416.238-4.664-.094-6.262-2.846-2.276-3.667-1.14-7.827 2.278-8.263z" fill-rule="evenodd" stroke="#000" stroke-width="2.204" fill="#ffe606"/>
    <path d="M381.8 120.66c-.626.122-6.26 2.828-6.162 3.004.098.176-4.837 13.67-4.936 13.396-.1-.177-3.64-11.634-3.89-11.436-.36.197-12.267 1.687-12.443 1.686-.176.098 8.99-11.62 8.99-11.62l-1.236-12.466 9.734 3.763s10.34-7.892 10.616-7.99c.176-.1-2.722 10.766-2.722 10.766l6.218 7.226s-2.916 3.024-3.07 3.67z" fill-rule="evenodd" fill-opacity=".988" stroke="#000" stroke-width="2.204" fill="#ffef00"/>
    <path d="M264.93 267.9c7.18 4.736 60.806 13.878 67.34 14.822 8.274-.783 19.883.267 28.606 3.148 8.337 3.632 16.846 3.472 22.642-.876 7.737-4.268 10.662-11.62 14.036-18.003 1.33-3.426 1.39-7.062-.062-10.082-2.67-6.416-1.028-7.98-1.67-11.607 9.41-20.784 11.366-44.992 13.608-62.906-.284-10.46.814-18.447 2.064-21.672 4.988-7.68 12.267-10.874 16.94-12.27 13.67-3.612 27.14-7.02 40.71-10.63 10.637-3.846 3.662-11.01 1.47-10.377-7.04-1.022-6.766-8.61-39.72-.7l-21.18-2.7s-4.11-3.31-4.636-3.07c-11.444-2.108-13.126 6.343-12.468 9.816l1.67 9.79s-4.11 14.67-3.87 16.097c-10.473 11.76-26.062 49.628-27.06 66.786-.473 6.82-3.048 6.688-2.367 12.217.026 6.18-.676 1.946 1.163 12.618.422 3.213-3.606 2.966-6.768 2.037-19.198-12.04-37.426-19.89-67.468-30.638-1.06-.634-2.098-1.07-3.147-1.602l-30.788 26.176 6.78 33.266c1.816.896 3.433 1.44 6.16 2.16z" fill-rule="evenodd" stroke="#000" stroke-width="2.636" fill="#fff"/>
    <path d="M431.67 133.6c-.4.11-13.273-16.394-13.273-16.394s7.638-1.683 7.687-1.496l14.84 14.282-9.164 2.607z" fill-rule="evenodd" fill="#ffec00"/>
    <path d="M391.93 216.21c-10.733 1.648-22.96-3.66-28.38-8.787" stroke="#000" stroke-width="2.204" fill="none"/>
    <path d="M432.18 134.14c-.94-.94-6.17-6.08-6.207-6.396a66.484 66.484 0 0 0-3.8-3.863c-1.308-1.61-2.23-2.4-3.66-3.992-1.31-1.09-2.447-2.26-3.63-3.66m29.63 14.91c-.276-.034-1.978-.626-2.966-1.19-.874-.82-4.234-3.41-6.183-4.673a64.209 64.209 0 0 0-3.626-3.366c-1.208-1.33-2.066-2.102-3.28-3.606-1.227-.942-2.28-1.964-3.372-3.096" stroke="#000" stroke-width="2.437" fill="none"/>
    <path d="M367.28 166.61l.14.248c-.437-.777-.234-.263 1.66.047 1.21-.192 6.223 1.743 6.67 4.14.776 1.09 1.9 2.797 2.66 3.966.186.33.194.926.38 1.267m39.96-38.138l-.14-.248c.187.332-.37-.66-.667-.99-.723-1.288-1.22-2.708-1.846-3.863-.697-1.24-1.043-2.68-1.74-3.92-.627-1.362-1.433-2.828-1.977-4.227-.767-1.48-1.136-2.807-1.986-4.32-.64-1.244-.806-2.016-1.666-3.366l1.666 3.367c-.64-1.246-.806-2.016-1.666-3.367m44.819 12.364c-.268-.024-1.914-.617-2.862-1.008-.827-.736-4.026-3.04-4.914-4.096a47.069 47.069 0 0 0-3.332-3.023c-1.136-1.202-1.947-1.894-3.086-3.164-1.17-.838-2.163-1.767-3.193-2.776M397.36 129.46c2.432-.444 2.432-1.64 3.1-2.61.484-1.134.843-3.634.187-6.637-.298-1.172-.47-2.106-.68-3.636-.367-.82-.388-1.312-.482-2.016M377.82 269.62l-.14-.248c.438.778.226.283-1.66-.434-1.364-.3-2.14-.743-3.487-.978m13.817-24.34c-.093-.166-16.306-10.39-17.697-11.06-1.39-.638-2.674-.99-4.3-1.804-.914-.694-1.817-.88-2.746-1.397-1.318-.122-2.372-.666-3.607-.64-1.262-.46-1.864.39-3.178.194-1.126.19-3.066.46-4.03.727m.468-24.17c.47-.366 2.222-.96 3.413-1.648 1.422-.736 6.74-1.363 9.246.082" stroke="#000" stroke-width="2.204" fill="none"/>
    <path d="M366.71 231.2c-.047-.084-.662-2.662-1.486-6.91-.886-6.262-.268-17.668.013-18.904.207-1.328-.072-3.34.433-4.464.298-1.466.876-2.743 1.334-4.016.696-1.628 1.097-2.826 1.723-3.906.686-4.017 12.008-20.16 12.76-20.88a43.017 43.017 0 0 1 2.03-2.776c.326-.907 1.01-1.784 1.646-2.884.94-1.21 1.177-2.108 1.762-3.27.11-1.143.67-2.86.668-4.233.328-1.666.127-2.924.312-4.094-.16-1.46.763-19.172.826-20.01.288-1.736 2.017-7.607 6.206-6.492 1.64.666 3.32.862 4.368 1.484 1.48.413 2.642 1.49 3.743 2.3 6.062 4.913 6.116 8.264 6.766 9.423l.698 1.24M362.64 276.94l-.14-.248c.377.67.17.336-.31-1.132-.126-1.263-.616-2.97-.712-4.17-.266-1.247-.84-2.667-.68-3.636-.447-1.266-.166-2.31-.046-3.666.364-1.668.614-2.703.668-4.232.172-1.876.034-3.206.14-4.977-.494-1.46-.694-2.682-1.348-4.14-.67-1.394-1.182-2.684-1.984-4.11l-1.963-3.473 1.963 3.474-1.963-3.473" stroke="#000" stroke-width="2.204" fill="none"/>
    <path d="M369.6 267.6c-2.34-3.68-4.71-10.41-4.78-10.636l-4.727-8.118c-2.833-4.068-6.02-4.088-6.674-4.14-3.387-.218-4.884-.846-7.442-1.04-2.604-1.148-.666-6.83-.736-6.966 2.67-10.642 13.87-9.693 14.328-9.36 6.137 1.682 6.762 2.31 4.92 6.668-1.294 3.606-2.06 4.76-1.964 6.976.27 4.266 6.417 10.606 6.488 10.63.07.124 3.386 2.83 3.386 2.83 1.674 1.347 3.668 1.686 6.812 4.242 1.882 2.86 2.16 4.016.69 6.862-1.986 3.728-6.266 4.83-8.312 2.06z" fill-rule="evenodd" stroke="#000" stroke-width="2.204" fill="#ffe606"/>
    <path d="M106.242 168.67c.444.467 6.796 3.69 6.888 3.61s14.004-3.387 13.91-3.208-7.793 9.333-7.436 9.618c.366.186 8.047 9.394 8.226 9.487.18.092-14.663-1.212-14.663-1.212l-9.76 7.86-2.186-10.203s-12.266-4.328-12.446-4.42c-.178-.093 10.497-3.62 10.497-3.62l3.188-8.324s4.128.784 4.67.612z" fill-rule="evenodd" fill-opacity=".988" stroke="#000" stroke-width="2.204" fill="#ffef00"/>
    <path d="M284.068 191.266c.03-8.6-16.22-60.106-19.01-66.09-6.187-6.492-10.676-16.774-13.036-26.664-1.627-8.963-6.322-16.994-13.08-18.378-7.8-4.14-16.418-2.617-22.76-1.88-3.696.764-6.67 2.706-8.407 6.666-3.96 6.663-6.11 6.23-8.86 7.672-22.644 3.613-43.862 16.146-60.082 23.074-8.688 6.962-16.878 9.426-19.266 10.164-9.166.033-16.816-4.306-18.997-6.613l-31.108-28.29c-8.99-6.71-11.212 2.976-9.486 4.464 3 6.46-3.496 10.376 21.172 33.613l9.344 19.197s-.618 6.26-.084 6.476c4.604 10.73 11.66 8.066 16.036 6.046l7.33-6.676s14.626-4.697 14.76-6.03c16.676 2.318 66.712-6.328 62.33-8.47 6.966-3.34 6.346-.61 11.612-4.72 4.32-2.868 1.944-.682 9.926-7.874 2.468-2.113 4.4 1.308 4.86 3.7.443 22.667 3.86 42.207 6.926 64.798.13 1.17.267 2.34.386 3.61 12.64 3.99 26.286 7.978 37.926 11.967 8.22-7.686 16.444-16.373 24.664-23.06-.244-2.007-.676-3.66-1.012-6.49z" fill-rule="evenodd" stroke="#000" stroke-width="2.637" fill="#fff"/>
    <path d="M88.737 119.86c.31.276-6.608 19.637-6.608 19.637s-6.466-6.44-6.408-6.63l3.82-20.237 7.196 6.23z" fill-rule="evenodd" fill="#ffec00"/>
    <path d="M178.78 108.396c7.268 8.077 9.61 21.206 8.194 28.666" stroke="#000" stroke-width="2.204" fill="none"/>
    <path d="M88.917 119.143c-.27 1.302-1.416 7.108-1.96 8.696a66.817 66.817 0 0 0-1.142 6.288c-.647 1.923-.786 3.18-1.394 6.168-.194 1.694-.66 3.284-.982 4.98m-3.764-32.966c.12.26.667 1.998.622 3.126-.206 1.18-.636 6.41-.987 6.84a64.366 64.366 0 0 0-.886 4.794c-.46 1.737-.628 2.88-1.138 4.663-.116 1.643-.394 2.984-.74 4.617" stroke="#000" stroke-width="2.437" fill="none"/>
    <path d="M160.694 166.247l.13-.262c-.41.79-.09.34-.868-1.416-.826-.908-1.403-6.326-.136-7.766.486-1.244 1.3-3.12 1.912-4.3.174-.336.667-.668.842-1.006M98.8 128.987l-.13.262-.626 1.01c-.68 1.31-1.696 2.602-2.22 3.667-.666 1.263-1.67 2.34-2.326 3.604-.842 1.182-1.68 2.76-2.464 3.97-.817 1.463-1.726 2.488-2.626 4.027-.69 1.217-1.244 1.78-1.968 3.163l1.96-3.163c-.692 1.217-1.246 1.78-1.96 3.163M72.44 104.386c.127.237.616 1.886.72 2.938-.163 1.096-.34 6.034-.736 6.364-.298 1.47-.66 2.96-.703 4.444-.384 1.607-.62 2.666-.967 4.314-.06 1.438-.286 2.773-.673 4.192m33.872 24.222c-1.703-1.793-2.706-1.137-3.8-1.22-1.21.217-3.416 1.23-6.663 3.48-.816.89-1.602 1.646-2.684 2.606-.486.766-.886 1.043-1.422 1.606m141.417-66.717l-.13.262c.41-.792.112-.343.486 1.636.49 1.296.66 2.197 1.092 3.463M206.66 97.41c-.088.17-.31 18.496.46 20.868.226 1.613.636 2.78.846 4.687.002 1.09.267 2.002.336 3.06.62 1.17.762 2.346 1.387 3.286.31 1.294 1.347 1.346 1.903 2.663.776.837 2.06 2.31 2.816 2.973m-20.472 12.861c-.663-.192-2.01-1.34-3.247-1.963-1.396-.787-4.833-4.89-4.997-7.78" stroke="#000" stroke-width="2.204" fill="none"/>
    <path d="M206.627 121.672c-.044.086-1.91 1.923-4.967 6.028-3.91 3.618-14.642 9.843-16.822 10.344-1.224.666-2.764 1.89-3.963 2.077-1.39.666-2.776.772-4.09 1.086-1.606.34-2.966.63-4.212.7-3.737 1.626-23.436.992-24.462.77a43.166 43.166 0 0 1-3.434-.178c-.936.226-2.046.13-3.313.204-1.63-.123-2.41.17-3.697.327-1.016.636-2.704 1.09-3.847 1.86-1.666.634-2.616 1.497-3.696 1.983-1.126.928-16.462 9.872-17.193 10.27-1.608.71-7.384 2.426-8.83-1.636-.372-1.697-1.107-3.244-1.162-4.467-.466-1.463-.2-3.026-.126-4.39 1.342-6.92 3.663-9.643 4.176-10.823l.666-1.263m142.437-26.449l-.13.263c.363-.683.188-.326-.778.88-.987.796-2.203 2.067-3.1 2.88-.902.896-1.77 2.162-2.683 2.606-.814 1.068-1.843 1.406-2.968 1.992-1.606.663-2.643 1.06-3.846 1.86-1.664.886-2.7 1.73-4.24 2.61-.96 1.213-1.918 1.967-2.726 3.396-.8 1.324-1.697 2.46-2.36 3.91l-1.837 3.637 1.837-3.637-1.837 3.637m11.76 73.122l.263-.606c-.486.936-.316.69.14-.888.006-1.892.464-4.18.473-6.86.286-1.766.674-3.676.692-6.464-.107-2.094-.104-3.97-.417-6.99-.024-1.867-.24-3.784-.296-6.606-.036-1.803-.17-3.36-.66-6.1-.037-1.31-.118-3.11-.437-4.716.17-1.267-.19-2.432-.468-3.446-.49-1.96-.68-3.09-1.196-6.11-.31-1.084-.616-2.468-1.082-4.09-.17-1.637-.992-3.633-1.326-4.868-.467-.974-.918-2.294-1.096-3.463-.478-1.07-1.16-2.376-1.346-3.686-.604-.924-1.04-2.36-1.698-3.718-.48-1.116-.834-2.49-1.346-3.684-.617-1.38-1.147-2.66-1.468-3.97-.493-.476-.606-1-.87-1.412" stroke="#000" stroke-width="2.204" fill="none"/>
    <path d="M234.893 98.47c-1.714 3.92-6.13 9.644-6.196 9.77l-4.202 8.402c-1.86 4.698-.67 6.44.137 7.767 1.673 2.962 1.967 4.648 3.206 6.796.467 2.807-4.612 3.76-4.678 3.877-10.366 3.696-16.623-6.36-16.68-6.86-1.406-6.218-1.222-6.086 1.966-7.16 3.64-.837 6.104-.878 6.907-2.187 3.412-2.667 6.82-10.286 6.887-10.413.066-.126.612-4.383.612-4.383.266-2.066-.683-3.938.366-7.188 1.363-3.14 2.182-3.998 6.41-4.246 4.207-.38 7.472 2.696 6.276 6.826z" fill-rule="evenodd" stroke="#000" stroke-width="2.204" fill="#ffe606"/>
    <path d="M221.29 199.66c-1.666-1.422 29.468 11.24 33.726 11.386 6.836-2.134 29.886-22.484 29.886-22.484.237 1.993 1.09 7.163 3.414 8.266-9.296 7.643-17.74 14.8-27.037 22.34.663 11.966-1.62 24.62 4.662 37.998 0 0-7.266.14-7.266 0-6.404-6.404-8.682-37.284-8.682-37.284-10.198-4.666-20.398-8.966-30.696-13.62 1.47-.96 2.666-3.89 1.992-6.69z" fill-rule="evenodd" fill-opacity=".987" stroke="#000" stroke-width="2.204" fill="#ffef00"/>
    <path d="M260.81 231.3c.496-.36-6.696 2.83-7.16 3.63-28.186 16.036-42.69 36.906-43.694 37.732-.487.932-1.384 2.174-2.204 3.392-.66 1.02-1.61 2.076-2.234 3.108-.864 1.196-2.68 3.668-3.67 4.606-.124.676.47-.23.276.22m77.846-70.668c-.647-.277 6.077 3.682 6.606 4.707 26.26 18.187 62.344 21.082 63.492 21.607 1.06.007 2.666.236 4.023.41 1.21.12 2.683.48 3.787.663 1.468.22 4.39.764 6.776 1.167.666-.2-.42-.312.067-.346" stroke="#000" stroke-width="2.204" fill="none"/>
  </g>
</svg>
