<svg xmlns="http://www.w3.org/2000/svg" height="480" width="640">
  <defs>
    <clipPath id="a">
      <path fill-opacity=".67" d="M0 0h682.67v612H0z"/>
    </clipPath>
  </defs>
  <g clip-path="url(#a)" transform="scale(.9376)">
    <path fill-rule="evenodd" fill="#fff" d="M0 0h1024v612H0z"/>
    <path d="M1024 446.24c-11.474 6.903-21.332 23.036-61.814 23.036-60.947 0-76.188-33.966-121.9-33.966-30.474 0-46.712 33.966-76.187 33.966-60.962 0-76.191-33.966-121.9-33.966-30.477 0-46.716 33.966-76.191 33.966-60.962 0-76.191-33.966-121.9-33.966-30.477 0-46.716 33.966-76.191 33.966-60.962 0-76.191-33.966-121.9-33.966-30.478 0-46.716 33.966-76.191 33.966-60.962 0-76.192-33.966-121.91-33.966-30.476 0-39.619 24.203-67.906 24.203v43.727c18.286 0 27.428-24.2 67.906-24.2 46.716 0 60.966 33.96 121.9 33.96 30.476 0 46.713-33.966 76.191-33.966 46.713 0 60.962 33.966 121.9 33.966 30.476 0 46.714-33.966 76.191-33.966 46.714 0 60.962 33.966 121.9 33.966 30.476 0 46.714-33.966 76.191-33.966 46.714 0 60.962 33.966 121.9 33.966 30.476 0 46.714-33.966 76.187-33.966 46.716 0 60.966 33.966 121.9 33.966 30.482 0 40.34-9.626 61.814-16.628v-60.236zM1024 360.32c-11.474 6.903-21.332 23.036-61.814 23.036-60.947 0-76.188-33.966-121.9-33.966-30.474 0-46.712 33.966-76.187 33.966-60.962 0-76.191-33.966-121.9-33.966-30.477 0-46.716 33.966-76.191 33.966-60.962 0-76.191-33.966-121.9-33.966-30.477 0-46.716 33.966-76.191 33.966-60.962 0-76.191-33.966-121.9-33.966-30.478 0-46.716 33.966-76.191 33.966-60.962 0-76.192-33.966-121.91-33.966-30.476 0-39.619 24.203-67.906 24.203v43.727c18.286.01 27.428-24.2 67.906-24.2 46.714 0 60.963 33.966 121.91 33.966 30.476 0 46.713-33.966 76.191-33.966 46.713 0 60.962 33.966 121.9 33.966 30.476 0 46.714-33.966 76.191-33.966 46.714 0 60.962 33.966 121.9 33.966 30.476 0 46.714-33.966 76.191-33.966 46.714 0 60.962 33.966 121.9 33.966 30.476 0 46.714-33.966 76.187-33.966 46.716 0 60.966 33.966 121.9 33.966 30.482 0 40.34-9.626 61.814-16.628v-60.236zM1024 276.41c-11.474 6.903-21.332 23.036-61.814 23.036-60.947 0-76.188-33.966-121.9-33.966-30.474 0-46.712 33.966-76.187 33.966-60.962 0-76.191-33.966-121.9-33.966-30.477 0-46.716 33.966-76.191 33.966-60.962 0-76.191-33.966-121.9-33.966-30.477 0-46.716 33.966-76.191 33.966-60.962 0-76.191-33.966-121.9-33.966-30.478 0-46.716 33.966-76.191 33.966-60.962 0-76.192-33.966-121.91-33.966-30.476 0-39.619 24.203-67.906 24.203v43.727c18.286 0 27.428-24.2 67.906-24.2 46.714 0 60.963 33.966 121.91 33.966 30.476 0 46.713-33.966 76.191-33.966 46.713 0 60.962 33.966 121.9 33.966 30.476 0 46.714-33.966 76.191-33.966 46.714 0 60.962 33.966 121.9 33.966 30.476 0 46.714-33.966 76.191-33.966 46.714 0 60.962 33.966 121.9 33.966 30.476 0 46.714-33.966 76.187-33.966 46.716 0 60.966 33.966 121.9 33.966 30.482 0 40.34-9.626 61.814-16.628v-60.236zM1024 190.6c-11.474 6.903-21.332 23.036-61.814 23.036-60.947 0-76.188-33.966-121.9-33.966-30.474 0-46.712 33.966-76.187 33.966-60.962 0-76.191-33.966-121.9-33.966-30.477 0-46.716 33.966-76.191 33.966-60.962 0-76.191-33.966-121.9-33.966-30.477 0-46.716 33.966-76.191 33.966-60.962 0-76.191-33.966-121.9-33.966-30.478 0-46.716 33.966-76.191 33.966-60.962 0-76.192-33.966-121.91-33.966-30.476 0-39.619 24.203-67.906 24.203V247.6c18.286 0 27.428-24.2 67.906-24.2 46.714 0 60.963 33.966 121.91 33.966 30.476 0 46.713-33.966 76.191-33.966 46.713 0 60.962 33.966 121.9 33.966 30.476 0 46.714-33.966 76.191-33.966 46.714 0 60.962 33.966 121.9 33.966 30.476 0 46.714-33.966 76.191-33.966 46.714 0 60.962 33.966 121.9 33.966 30.476 0 46.714-33.966 76.187-33.966 46.716 0 60.966 33.966 121.9 33.966 30.482 0 40.34-9.626 61.814-16.628v-60.236zM1024 106.69c-11.474 6.903-21.332 23.036-61.814 23.036-60.947 0-76.188-33.966-121.9-33.966-30.474 0-46.712 33.966-76.187 33.966-60.962 0-76.191-33.966-121.9-33.966-30.477 0-46.716 33.966-76.191 33.966-60.962 0-76.191-33.966-121.9-33.966-30.477 0-46.716 33.966-76.191 33.966-60.962 0-76.191-33.966-121.9-33.966-30.478 0-46.716 33.966-76.191 33.966-60.962 0-76.192-33.966-121.91-33.966-30.491-.002-39.634 24.2-67.92 24.2v43.727c18.286 0 27.428-24.203 67.906-24.203 46.714 0 60.963 33.966 121.91 33.966 30.476 0 46.713-33.966 76.191-33.966 46.713 0 60.962 33.966 121.9 33.966 30.476 0 46.714-33.966 76.191-33.966 46.714 0 60.962 33.966 121.9 33.966 30.476 0 46.714-33.966 76.191-33.966 46.714 0 60.962 33.966 121.9 33.966 30.476 0 46.714-33.966 76.187-33.966 46.716 0 60.966 33.966 121.9 33.966 30.482 0 40.34-9.626 61.814-16.628v-60.236zM1024 20.676c-11.474 6.903-21.332 23.036-61.814 23.036-60.947 0-76.188-33.966-121.9-33.966-30.474 0-46.712 33.966-76.187 33.966-60.962 0-76.191-33.966-121.9-33.966-30.477 0-46.716 33.966-76.191 33.966-60.962 0-76.191-33.966-121.9-33.966-30.477 0-46.716 33.966-76.191 33.966-60.962 0-76.191-33.966-121.9-33.966-30.478 0-46.716 33.966-76.191 33.966-60.962 0-76.192-33.966-121.91-33.966-30.491 0-39.634 24.203-67.92 24.203v43.727c18.286 0 27.428-24.203 67.906-24.203 46.714 0 60.963 33.966 121.91 33.966 30.476 0 46.713-33.966 76.191-33.966 46.713 0 60.962 33.966 121.9 33.966 30.476 0 46.714-33.966 76.191-33.966 46.714 0 60.962 33.966 121.9 33.966 30.476 0 46.714-33.966 76.191-33.966 46.714 0 60.962 33.966 121.9 33.966 30.476 0 46.714-33.966 76.187-33.966 46.716 0 60.966 33.966 121.9 33.966 30.482 0 40.34-9.626 61.814-16.628V20.674z" fill-rule="evenodd" fill="#000063"/>
    <path fill-rule="evenodd" fill="#000063" d="M0 .063h261.31v167.91H0z"/>
    <g stroke-width="1pt">
      <path d="M0 .063v17.664L232.097 167.97h29.216v-17.664L29.216.064H0zm261.312 0v17.664L29.216 167.968H0v-17.664L232.097.064h29.216z" fill="#fff"/>
      <path d="M108.88.063v167.906h43.662V.063H108.88zM0 62.698v62.636h261.312V62.698H0z" fill="#fff"/>
      <path d="M0 63.226v31.681h261.312v-31.68H0zM117.69.063v167.906h26.132V.063H117.69zM0 167.968l87.104-62.636h19.476l-87.104 62.636H0zM0 .063l87.104 62.636H67.628L0 11.833V.063zm164.732 62.636L241.836.063h19.476l-87.104 62.636h-19.476zm106.68 106.27l-87.104-62.636h19.476l67.628 40.866v11.77z" fill="#c00"/>
    </g>
    <path d="M814.96-301.18l-17.72 708.66c0 37.298 80.097 37.298 88.683 0l-17.717-708.66h-63.149z" fill-rule="evenodd" transform="matrix(.2064 0 0 .4902 211.633 267.436)" stroke="#fff" stroke-width="6.936" fill="#a24300"/>
    <path d="M496.06 649.21l17.717 70.866 36.433-63.16-17.717 88.683 36.433-36.433-36.433 88.682 36.433-36.433-36.433 88.683 36.433-36.433-36.433 106.3 36.433-36.433-36.433 106.3 36.433-36.433-36.433 106.3-17.716 63.161-17.717 17.72-17.717-17.72-17.716-63.161-36.433-106.3 36.433 36.433-36.433-106.3 36.433 36.433-36.433-106.3 36.433 36.433-36.433-88.683 36.433 36.433-36.433-88.682 36.433 36.433-17.717-88.683 36.433 63.16 17.717-70.866z" fill-rule="evenodd" transform="matrix(-.2364 .06743 -.1036 -.19601 691.314 322.649)" stroke="#fff" stroke-width="8.26" fill="#006d00"/>
    <path d="M496.06 649.21v496.07M426.2 868.11l70.86 106.3 70.87-106.3" transform="matrix(-.2364 .06743 -.1036 -.19601 691.314 322.649)" stroke="#000" stroke-width="1pt" fill="none"/>
    <path d="M426.2 797.24l70.866 106.3 70.866-106.3" transform="matrix(-.2364 .06743 -.1036 -.19601 691.314 322.649)" stroke="#000" stroke-width="1pt" fill="none"/>
    <path d="M426.2 726.38l70.866 106.3 70.866-106.3" transform="matrix(-.2364 .06743 -.1036 -.19601 691.314 322.649)" stroke="#000" stroke-width="1pt" fill="none"/>
    <path d="M426.2 673.23l70.866 88.683 70.866-88.683" transform="matrix(-.2364 .06743 -.1036 -.19601 691.314 322.649)" stroke="#000" stroke-width="1pt" fill="none"/>
    <path d="M426.2 620.08l70.866 88.682 70.866-88.682" transform="matrix(-.2364 .06743 -.1036 -.19601 691.314 322.649)" stroke="#000" stroke-width="1pt" fill="none"/>
    <path d="M442.91 666.93l63.16 106.3 63.16-106.3" transform="matrix(-.2364 .06743 -.1036 -.19601 691.314 322.649)" stroke="#000" stroke-width="1pt" fill="none"/>
    <g>
      <path d="M496.06 649.21l17.717 70.866 36.433-63.16-17.717 88.683 36.433-36.433-36.433 88.682 36.433-36.433-36.433 88.683 36.433-36.433-36.433 106.3 36.433-36.433-36.433 106.3 36.433-36.433-36.433 106.3-17.716 63.161-17.717 17.72-17.717-17.72-17.716-63.161-36.433-106.3 36.433 36.433-36.433-106.3 36.433 36.433-36.433-106.3 36.433 36.433-36.433-88.683 36.433 36.433-36.433-88.682 36.433 36.433-17.717-88.683 36.433 63.16 17.717-70.866z" fill-rule="evenodd" transform="matrix(.17703 -.18126 .22077 .14638 73.836 93.626)" stroke="#fff" stroke-width="8.26" fill="#006d00"/>
      <path d="M496.06 649.21v496.07M426.2 868.11l70.86 106.3 70.87-106.3" transform="matrix(.17703 -.18126 .22077 .14638 73.836 93.626)" stroke="#000" stroke-width="1pt" fill="none"/>
      <path d="M426.2 797.24l70.866 106.3 70.866-106.3" transform="matrix(.17703 -.18126 .22077 .14638 73.836 93.626)" stroke="#000" stroke-width="1pt" fill="none"/>
      <path d="M426.2 726.38l70.866 106.3 70.866-106.3" transform="matrix(.17703 -.18126 .22077 .14638 73.836 93.626)" stroke="#000" stroke-width="1pt" fill="none"/>
      <path d="M426.2 673.23l70.866 88.683 70.866-88.683" transform="matrix(.17703 -.18126 .22077 .14638 73.836 93.626)" stroke="#000" stroke-width="1pt" fill="none"/>
      <path d="M426.2 620.08l70.866 88.682 70.866-88.682" transform="matrix(.17703 -.18126 .22077 .14638 73.836 93.626)" stroke="#000" stroke-width="1pt" fill="none"/>
      <path d="M442.91 666.93l63.16 106.3 63.16-106.3" transform="matrix(.17703 -.18126 .22077 .14638 73.836 93.626)" stroke="#000" stroke-width="1pt" fill="none"/>
    </g>
    <g>
      <path d="M496.06 649.21l17.717 70.866 36.433-63.16-17.717 88.683 36.433-36.433-36.433 88.682 36.433-36.433-36.433 88.683 36.433-36.433-36.433 106.3 36.433-36.433-36.433 106.3 36.433-36.433-36.433 106.3-17.716 63.161-17.717 17.72-17.717-17.72-17.716-63.161-36.433-106.3 36.433 36.433-36.433-106.3 36.433 36.433-36.433-106.3 36.433 36.433-36.433-88.683 36.433 36.433-36.433-88.682 36.433 36.433-17.717-88.683 36.433 63.16 17.717-70.866z" fill-rule="evenodd" transform="matrix(.1136 .2166 -.24917 .1076 681.766 -67.78)" stroke="#fff" stroke-width="8.26" fill="#006d00"/>
      <path d="M496.06 649.21v496.07M426.2 868.11l70.86 106.3 70.87-106.3" transform="matrix(.1136 .2166 -.24917 .1076 681.766 -67.78)" stroke="#000" stroke-width="1pt" fill="none"/>
      <path d="M426.2 797.24l70.866 106.3 70.866-106.3" transform="matrix(.1136 .2166 -.24917 .1076 681.766 -67.78)" stroke="#000" stroke-width="1pt" fill="none"/>
      <path d="M426.2 726.38l70.866 106.3 70.866-106.3" transform="matrix(.1136 .2166 -.24917 .1076 681.766 -67.78)" stroke="#000" stroke-width="1pt" fill="none"/>
      <path d="M426.2 673.23l70.866 88.683 70.866-88.683" transform="matrix(.1136 .2166 -.24917 .1076 681.766 -67.78)" stroke="#000" stroke-width="1pt" fill="none"/>
      <path d="M426.2 620.08l70.866 88.682 70.866-88.682" transform="matrix(.1136 .2166 -.24917 .1076 681.766 -67.78)" stroke="#000" stroke-width="1pt" fill="none"/>
      <path d="M442.91 666.93l63.16 106.3 63.16-106.3" transform="matrix(.1136 .2166 -.24917 .1076 681.766 -67.78)" stroke="#000" stroke-width="1pt" fill="none"/>
    </g>
    <g>
      <path d="M496.06 649.21l17.717 70.866 36.433-63.16-17.717 88.683 36.433-36.433-36.433 88.682 36.433-36.433-36.433 88.683 36.433-36.433-36.433 106.3 36.433-36.433-36.433 106.3 36.433-36.433-36.433 106.3-17.716 63.161-17.717 17.72-17.717-17.72-17.716-63.161-36.433-106.3 36.433 36.433-36.433-106.3 36.433 36.433-36.433-106.3 36.433 36.433-36.433-88.683 36.433 36.433-36.433-88.682 36.433 36.433-17.717-88.683 36.433 63.16 17.717-70.866z" fill-rule="evenodd" transform="matrix(-.16682 .19461 -.23666 -.12827 706.86 197.798)" stroke="#fff" stroke-width="8.26" fill="#006d00"/>
      <path d="M496.06 649.21v496.07M426.2 868.11l70.86 106.3 70.87-106.3" transform="matrix(-.16682 .19461 -.23666 -.12827 706.86 197.798)" stroke="#000" stroke-width="1pt" fill="none"/>
      <path d="M426.2 797.24l70.866 106.3 70.866-106.3" transform="matrix(-.16682 .19461 -.23666 -.12827 706.86 197.798)" stroke="#000" stroke-width="1pt" fill="none"/>
      <path d="M426.2 726.38l70.866 106.3 70.866-106.3" transform="matrix(-.16682 .19461 -.23666 -.12827 706.86 197.798)" stroke="#000" stroke-width="1pt" fill="none"/>
      <path d="M426.2 673.23l70.866 88.683 70.866-88.683" transform="matrix(-.16682 .19461 -.23666 -.12827 706.86 197.798)" stroke="#000" stroke-width="1pt" fill="none"/>
      <path d="M426.2 620.08l70.866 88.682 70.866-88.682" transform="matrix(-.16682 .19461 -.23666 -.12827 706.86 197.798)" stroke="#000" stroke-width="1pt" fill="none"/>
      <path d="M442.91 666.93l63.16 106.3 63.16-106.3" transform="matrix(-.16682 .19461 -.23666 -.12827 706.86 197.798)" stroke="#000" stroke-width="1pt" fill="none"/>
    </g>
    <g>
      <path d="M496.06 649.21l17.717 70.866 36.433-63.16-17.717 88.683 36.433-36.433-36.433 88.682 36.433-36.433-36.433 88.683 36.433-36.433-36.433 106.3 36.433-36.433-36.433 106.3 36.433-36.433-36.433 106.3-17.716 63.161-17.717 17.72-17.717-17.72-17.716-63.161-36.433-106.3 36.433 36.433-36.433-106.3 36.433 36.433-36.433-106.3 36.433 36.433-36.433-88.683 36.433 36.433-36.433-88.682 36.433 36.433-17.717-88.683 36.433 63.16 17.717-70.866z" fill-rule="evenodd" transform="matrix(-.16647 -.16616 .17678 -.16123 276.837 396.088)" stroke="#fff" stroke-width="8.26" fill="#006d00"/>
      <path d="M496.06 649.21v496.07M426.2 868.11l70.86 106.3 70.87-106.3" transform="matrix(-.16647 -.16616 .17678 -.16123 276.837 396.088)" stroke="#000" stroke-width="1pt" fill="none"/>
      <path d="M426.2 797.24l70.866 106.3 70.866-106.3" transform="matrix(-.16647 -.16616 .17678 -.16123 276.837 396.088)" stroke="#000" stroke-width="1pt" fill="none"/>
      <path d="M426.2 726.38l70.866 106.3 70.866-106.3" transform="matrix(-.16647 -.16616 .17678 -.16123 276.837 396.088)" stroke="#000" stroke-width="1pt" fill="none"/>
      <path d="M426.2 673.23l70.866 88.683 70.866-88.683" transform="matrix(-.16647 -.16616 .17678 -.16123 276.837 396.088)" stroke="#000" stroke-width="1pt" fill="none"/>
      <path d="M426.2 620.08l70.866 88.682 70.866-88.682" transform="matrix(-.16647 -.16616 .17678 -.16123 276.837 396.088)" stroke="#000" stroke-width="1pt" fill="none"/>
      <path d="M442.91 666.93l63.16 106.3 63.16-106.3" transform="matrix(-.16647 -.16616 .17678 -.16123 276.837 396.088)" stroke="#000" stroke-width="1pt" fill="none"/>
    </g>
    <g>
      <path d="M460.63 649.21l28.643 70.866 42.223-63.16-10.184 88.683 27.9-36.433-17.716 88.682 26.249-36.433-26.249 88.683 36.433-36.433-36.433 106.3 36.433-36.433-36.433 106.3 36.433-36.433-36.433 106.3-17.716 63.161-17.717 17.72-17.717-17.72-17.716-63.161-36.433-106.3 36.433 36.433-36.433-106.3 36.433 36.433-36.433-106.3 36.433 36.433-46.617-88.683 46.617 36.433-63.16-88.682 42.966 36.433-26.26-88.683 36.433 63.16.001-70.866z" fill-rule="evenodd" transform="matrix(-.27108 -.06397 -.16704 .20433 684.121 -32.23)" stroke="#fff" stroke-width="8.26" fill="#006d00"/>
      <path d="M467.21 684.66l28.866 124.02v336.62" transform="matrix(-.27108 -.06397 -.16704 .20433 684.121 -32.23)" stroke="#000" stroke-width="1pt" fill="none"/>
      <path d="M436.23 886.83l69.833 88.682 60.682-88.682" transform="matrix(-.27108 -.06397 -.16704 .20433 684.121 -32.23)" stroke="#000" stroke-width="1pt" fill="none"/>
      <path d="M434.63 814.96l61.63 88.682 60.682-88.682" transform="matrix(-.27108 -.06397 -.16704 .20433 684.121 -32.23)" stroke="#000" stroke-width="1pt" fill="none"/>
      <path d="M436.38 744.1l60.682 88.682 69.833-88.682" transform="matrix(-.27108 -.06397 -.16704 .20433 684.121 -32.23)" stroke="#000" stroke-width="1pt" fill="none"/>
      <path d="M432.84 690.94l63.228 70.866 63.149-70.866" transform="matrix(-.27108 -.06397 -.16704 .20433 684.121 -32.23)" stroke="#000" stroke-width="1pt" fill="none"/>
      <path d="M426.2 637.8l70.866 70.866 46.406-70.866" transform="matrix(-.27108 -.06397 -.16704 .20433 684.121 -32.23)" stroke="#000" stroke-width="1pt" fill="none"/>
      <path d="M436.12 693.24l63.16 86.886 36.327-96.478" transform="matrix(-.27108 -.06397 -.16704 .20433 684.121 -32.23)" stroke="#000" stroke-width="1pt" fill="none"/>
    </g>
    <g>
      <path d="M460.63 649.21l28.643 70.866 42.223-63.16-10.184 88.683 27.9-36.433-17.716 88.682 26.249-36.433-26.249 88.683 36.433-36.433-36.433 106.3 36.433-36.433-36.433 106.3 36.433-36.433-36.433 106.3-17.716 63.161-17.717 17.72-17.717-17.72-17.716-63.161-36.433-106.3 36.433 36.433-36.433-106.3 36.433 36.433-36.433-106.3 36.433 36.433-46.617-88.683 46.617 36.433-63.16-88.682 42.966 36.433-26.26-88.683 36.433 63.16.001-70.866z" fill-rule="evenodd" transform="matrix(.27011 .06696 .00989 .24471 240.767 -138.419)" stroke="#fff" stroke-width="8.26" fill="#006d00"/>
      <path d="M467.21 684.66l28.866 124.02v336.62" transform="matrix(.27011 .06696 .00989 .24471 240.767 -138.419)" stroke="#000" stroke-width="1pt" fill="none"/>
      <path d="M436.23 886.83l69.833 88.682 60.682-88.682" transform="matrix(.27011 .06696 .00989 .24471 240.767 -138.419)" stroke="#000" stroke-width="1pt" fill="none"/>
      <path d="M434.63 814.96l61.63 88.682 60.682-88.682" transform="matrix(.27011 .06696 .00989 .24471 240.767 -138.419)" stroke="#000" stroke-width="1pt" fill="none"/>
      <path d="M436.38 744.1l60.682 88.682 69.833-88.682" transform="matrix(.27011 .06696 .00989 .24471 240.767 -138.419)" stroke="#000" stroke-width="1pt" fill="none"/>
      <path d="M432.84 690.94l63.228 70.866 63.149-70.866" transform="matrix(.27011 .06696 .00989 .24471 240.767 -138.419)" stroke="#000" stroke-width="1pt" fill="none"/>
      <path d="M426.2 637.8l70.866 70.866 46.406-70.866" transform="matrix(.27011 .06696 .00989 .24471 240.767 -138.419)" stroke="#000" stroke-width="1pt" fill="none"/>
      <path d="M436.12 693.24l63.16 86.886 36.327-96.478" transform="matrix(.27011 .06696 .00989 .24471 240.767 -138.419)" stroke="#000" stroke-width="1pt" fill="none"/>
    </g>
    <g>
      <path d="M364.33 631.6l88.683 88.683 17.716-63.149v88.682l36.433-36.433-17.716 88.683 36.432-36.434-17.716 88.684 36.433-36.433-17.716 106.3 36.433-36.433-36.433 106.3 36.433-36.433-17.717 106.3-17.716 63.161-17.717 17.72-17.717-17.72-17.716-63.161-63.16-82.294 36.434 11.429-36.433-106.3 36.433 36.433-63.16-106.3 36.433 36.433-63.16-88.684 63.16 36.434-70.866-88.683 63.149 36.433-70.866-70.866 70.866 36.433-63.149-88.683z" fill-rule="evenodd" transform="matrix(.03463 -.23466 .24402 .04167 116.462 229.638)" stroke="#fff" stroke-width="8.26" fill="#006d00"/>
      <path d="M378.96 660.02l63.962 96.497 17.716 63.16 8.869 46.206 8.868 78.811 9.316 70.866 8.401 141.74" transform="matrix(.03463 -.23466 .24402 .04167 116.462 229.638)" stroke="#000" stroke-width="1pt" fill="none"/>
      <path d="M426.2 903.64l63.666 70.866 60.749-88.683" transform="matrix(.03463 -.23466 .24402 .04167 116.462 229.638)" stroke="#000" stroke-width="1pt" fill="none"/>
      <path d="M417.08 814.96l70.679 88.683 60.76-88.683" transform="matrix(.03463 -.23466 .24402 .04167 116.462 229.638)" stroke="#000" stroke-width="1pt" fill="none"/>
      <path d="M407.48 762.44l70.867 80.236 46.948-88.683M372.06 637.8l88.683 70.866 26.831-70.866" transform="matrix(.03463 -.23466 .24402 .04167 116.462 229.638)" stroke="#000" stroke-width="1pt" fill="none"/>
      <path d="M360.62 602.36l82.296 63.149 10.616-63.149M389.76 690.94l81.096 70.866 33.946-70.866" transform="matrix(.03463 -.23466 .24402 .04167 116.462 229.638)" stroke="#000" stroke-width="1pt" fill="none"/>
    </g>
    <g fill-rule="evenodd">
      <path d="M641.46 1173.3l-1.7-229.13-61.1-106.94c-16.277-62.618-7.764-78.079 16.973-79.776 24.728-1.698 49.224 13.679 84.868 16.276 36.646 1.697 28.866-69.408 81.474-67.71 62.618 1.697 144.28 32.26 222.36 37.342 78.078 6.092 118.81-27.168 208.77-30.663 89.97-3.396 113.73 42.436 118.82 42.436s30.66-18.672 66.01-22.066c26.46-3.396 33.96 10.184 33.96 10.184s-1.7 67.71-13.68 91.667c-11.88 33.948-64.32 89.961-66.01 89.961-1.7 0-16.28 249.62-16.28 261.21 0 1.7-676.66-6.79-676.66-11.88z" stroke="#000" stroke-width="1pt" fill="#c00" transform="matrix(.13669 0 0 .12673 266.36 208.19)"/>
      <g stroke="#000" stroke-width="1pt">
        <path d="M631.6 684.66s-67.982-62.097-69.813-177.17c-1.063-71.929 34.38-124.02 122.96-124.02 124.02 0 301.18 63.149 301.18 63.149v17.717s-141.73-63.16-301.18-63.16c-70.866 0-106.3 62.087-106.3 106.24 0 88.683 70.867 178.23 70.867 178.23v141.73h-17.717v-141.73z" fill="#fff100" transform="matrix(-.13669 0 0 .12673 608.367 262.74)"/>
        <path d="M478.36 649.21c0 9.786-7.932 17.717-17.717 17.717-9.786 0-17.717-7.932-17.717-17.717 0-9.786 7.932-17.717 17.717-17.717 9.786 0 17.717 7.932 17.717 17.717z" transform="matrix(-.13669 0 0 .12673 606.168 262.626)" fill="#fff"/>
        <path d="M478.36 649.21c0 9.786-7.932 17.717-17.717 17.717-9.786 0-17.717-7.932-17.717-17.717 0-9.786 7.932-17.717 17.717-17.717 9.786 0 17.717 7.932 17.717 17.717z" transform="matrix(-.13669 0 0 .12673 608.688 247.431)" fill="#fff"/>
        <path d="M478.36 649.21c0 9.786-7.932 17.717-17.717 17.717-9.786 0-17.717-7.932-17.717-17.717 0-9.786 7.932-17.717 17.717-17.717 9.786 0 17.717 7.932 17.717 17.717z" transform="matrix(-.13669 0 0 .12673 609.849 242.243)" fill="#fff"/>
        <path d="M478.36 649.21c0 9.786-7.932 17.717-17.717 17.717-9.786 0-17.717-7.932-17.717-17.717 0-9.786 7.932-17.717 17.717-17.717 9.786 0 17.717 7.932 17.717 17.717z" transform="matrix(-.13669 0 0 .12673 610.776 236.694)" fill="#fff"/>
        <path d="M478.36 649.21c0 9.786-7.932 17.717-17.717 17.717-9.786 0-17.717-7.932-17.717-17.717 0-9.786 7.932-17.717 17.717-17.717 9.786 0 17.717 7.932 17.717 17.717z" transform="matrix(-.13669 0 0 .12673 610.646 230.678)" fill="#fff"/>
        <path d="M478.36 649.21c0 9.786-7.932 17.717-17.717 17.717-9.786 0-17.717-7.932-17.717-17.717 0-9.786 7.932-17.717 17.717-17.717 9.786 0 17.717 7.932 17.717 17.717z" transform="matrix(-.13669 0 0 .12673 602.69 267.008)" fill="#fff"/>
        <path d="M478.36 649.21c0 9.786-7.932 17.717-17.717 17.717-9.786 0-17.717-7.932-17.717-17.717 0-9.786 7.932-17.717 17.717-17.717 9.786 0 17.717 7.932 17.717 17.717z" transform="matrix(-.13669 0 0 .12673 608.487 224.996)" fill="#fff"/>
        <path d="M478.36 649.21c0 9.786-7.932 17.717-17.717 17.717-9.786 0-17.717-7.932-17.717-17.717 0-9.786 7.932-17.717 17.717-17.717 9.786 0 17.717 7.932 17.717 17.717z" transform="matrix(-.13669 0 0 .12673 604.082 220.616)" fill="#fff"/>
        <path d="M478.36 649.21c0 9.786-7.932 17.717-17.717 17.717-9.786 0-17.717-7.932-17.717-17.717 0-9.786 7.932-17.717 17.717-17.717 9.786 0 17.717 7.932 17.717 17.717z" transform="matrix(-.13669 0 0 .12673 498.064 217.628)" fill="#fff"/>
        <path d="M478.36 649.21c0 9.786-7.932 17.717-17.717 17.717-9.786 0-17.717-7.932-17.717-17.717 0-9.786 7.932-17.717 17.717-17.717 9.786 0 17.717 7.932 17.717 17.717z" transform="matrix(-.13669 0 0 .12673 492.026 217.1)" fill="#fff"/>
        <path d="M478.36 649.21c0 9.786-7.932 17.717-17.717 17.717-9.786 0-17.717-7.932-17.717-17.717 0-9.786 7.932-17.717 17.717-17.717 9.786 0 17.717 7.932 17.717 17.717z" transform="matrix(-.13669 0 0 .12673 486.636 217.314)" fill="#fff"/>
        <path d="M478.36 649.21c0 9.786-7.932 17.717-17.717 17.717-9.786 0-17.717-7.932-17.717-17.717 0-9.786 7.932-17.717 17.717-17.717 9.786 0 17.717 7.932 17.717 17.717z" transform="matrix(-.13669 0 0 .12673 479.043 218.168)" fill="#fff"/>
        <path d="M478.36 649.21c0 9.786-7.932 17.717-17.717 17.717-9.786 0-17.717-7.932-17.717-17.717 0-9.786 7.932-17.717 17.717-17.717 9.786 0 17.717 7.932 17.717 17.717z" transform="matrix(-.13669 0 0 .12673 472.66 219.022)" fill="#fff"/>
        <path d="M478.36 649.21c0 9.786-7.932 17.717-17.717 17.717-9.786 0-17.717-7.932-17.717-17.717 0-9.786 7.932-17.717 17.717-17.717 9.786 0 17.717 7.932 17.717 17.717z" transform="matrix(-.13669 0 0 .12673 466.696 220.088)" fill="#fff"/>
        <path d="M478.36 649.21c0 9.786-7.932 17.717-17.717 17.717-9.786 0-17.717-7.932-17.717-17.717 0-9.786 7.932-17.717 17.717-17.717 9.786 0 17.717 7.932 17.717 17.717z" transform="matrix(-.13669 0 0 .12673 469.668 221.683)" fill="#fff"/>
      </g>
      <path d="M478.36 649.21c0 9.786-7.932 17.717-17.717 17.717-9.786 0-17.717-7.932-17.717-17.717 0-9.786 7.932-17.717 17.717-17.717 9.786 0 17.717 7.932 17.717 17.717z" transform="matrix(.13669 0 0 .12673 268.648 262.626)" stroke="#000" stroke-width="1pt" fill="#fff"/>
      <path d="M478.36 649.21c0 9.786-7.932 17.717-17.717 17.717-9.786 0-17.717-7.932-17.717-17.717 0-9.786 7.932-17.717 17.717-17.717 9.786 0 17.717 7.932 17.717 17.717z" transform="matrix(.13669 0 0 .12673 266.128 247.432)" stroke="#000" stroke-width="1pt" fill="#fff"/>
      <path d="M478.36 649.21c0 9.786-7.932 17.717-17.717 17.717-9.786 0-17.717-7.932-17.717-17.717 0-9.786 7.932-17.717 17.717-17.717 9.786 0 17.717 7.932 17.717 17.717z" transform="matrix(.13669 0 0 .12673 264.867 242.243)" stroke="#000" stroke-width="1pt" fill="#fff"/>
      <path d="M478.36 649.21c0 9.786-7.932 17.717-17.717 17.717-9.786 0-17.717-7.932-17.717-17.717 0-9.786 7.932-17.717 17.717-17.717 9.786 0 17.717 7.932 17.717 17.717z" transform="matrix(.13669 0 0 .12673 263.94 236.694)" stroke="#000" stroke-width="1pt" fill="#fff"/>
      <path d="M478.36 649.21c0 9.786-7.932 17.717-17.717 17.717-9.786 0-17.717-7.932-17.717-17.717 0-9.786 7.932-17.717 17.717-17.717 9.786 0 17.717 7.932 17.717 17.717z" transform="matrix(.13669 0 0 .12673 264.172 230.678)" stroke="#000" stroke-width="1pt" fill="#fff"/>
      <path d="M478.36 649.21c0 9.786-7.932 17.717-17.717 17.717-9.786 0-17.717-7.932-17.717-17.717 0-9.786 7.932-17.717 17.717-17.717 9.786 0 17.717 7.932 17.717 17.717z" transform="matrix(.13669 0 0 .12673 266.23 224.996)" stroke="#000" stroke-width="1pt" fill="#fff"/>
      <path d="M478.36 649.21c0 9.786-7.932 17.717-17.717 17.717-9.786 0-17.717-7.932-17.717-17.717 0-9.786 7.932-17.717 17.717-17.717 9.786 0 17.717 7.932 17.717 17.717z" transform="matrix(.13669 0 0 .12673 270.636 220.616)" stroke="#000" stroke-width="1pt" fill="#fff"/>
      <path d="M478.36 649.21c0 9.786-7.932 17.717-17.717 17.717-9.786 0-17.717-7.932-17.717-17.717 0-9.786 7.932-17.717 17.717-17.717 9.786 0 17.717 7.932 17.717 17.717z" transform="matrix(.13669 0 0 .12673 276.662 217.627)" stroke="#000" stroke-width="1pt" fill="#fff"/>
      <path d="M478.36 649.21c0 9.786-7.932 17.717-17.717 17.717-9.786 0-17.717-7.932-17.717-17.717 0-9.786 7.932-17.717 17.717-17.717 9.786 0 17.717 7.932 17.717 17.717z" transform="matrix(.13669 0 0 .12673 282.69 217.1)" stroke="#000" stroke-width="1pt" fill="#fff"/>
      <path d="M478.36 649.21c0 9.786-7.932 17.717-17.717 17.717-9.786 0-17.717-7.932-17.717-17.717 0-9.786 7.932-17.717 17.717-17.717 9.786 0 17.717 7.932 17.717 17.717z" transform="matrix(.13669 0 0 .12673 289.181 217.314)" stroke="#000" stroke-width="1pt" fill="#fff"/>
      <path d="M478.36 649.21c0 9.786-7.932 17.717-17.717 17.717-9.786 0-17.717-7.932-17.717-17.717 0-9.786 7.932-17.717 17.717-17.717 9.786 0 17.717 7.932 17.717 17.717z" transform="matrix(.13669 0 0 .12673 296.674 218.168)" stroke="#000" stroke-width="1pt" fill="#fff"/>
      <path d="M478.36 649.21c0 9.786-7.932 17.717-17.717 17.717-9.786 0-17.717-7.932-17.717-17.717 0-9.786 7.932-17.717 17.717-17.717 9.786 0 17.717 7.932 17.717 17.717z" transform="matrix(.13669 0 0 .12673 302.166 219.021)" stroke="#000" stroke-width="1pt" fill="#fff"/>
      <path d="M478.36 649.21c0 9.786-7.932 17.717-17.717 17.717-9.786 0-17.717-7.932-17.717-17.717 0-9.786 7.932-17.717 17.717-17.717 9.786 0 17.717 7.932 17.717 17.717z" transform="matrix(.13669 0 0 .12673 309.12 220.088)" stroke="#000" stroke-width="1pt" fill="#fff"/>
      <path d="M478.36 649.21c0 9.786-7.932 17.717-17.717 17.717-9.786 0-17.717-7.932-17.717-17.717 0-9.786 7.932-17.717 17.717-17.717 9.786 0 17.717 7.932 17.717 17.717z" transform="matrix(.13669 0 0 .12673 316.149 221.683)" stroke="#000" stroke-width="1pt" fill="#fff"/>
      <path d="M478.36 649.21c0 9.786-7.932 17.717-17.717 17.717-9.786 0-17.717-7.932-17.717-17.717 0-9.786 7.932-17.717 17.717-17.717 9.786 0 17.717 7.932 17.717 17.717z" transform="matrix(.13669 0 0 .12673 272.026 267.008)" stroke="#000" stroke-width="1pt" fill="#fff"/>
      <path d="M631.6 684.66s-67.982-62.097-69.813-177.17c-1.063-71.929 34.38-124.02 122.96-124.02 124.02 0 301.18 63.149 301.18 63.149v17.717s-141.73-63.16-301.18-63.16c-70.866 0-106.3 62.087-106.3 106.24 0 88.683 70.867 178.23 70.867 178.23v141.73h-17.717v-141.73z" transform="matrix(.13669 0 0 .12673 266.36 262.74)" stroke="#000" stroke-width="1pt" fill="#fff100"/>
      <path d="M1240.2 631.6s16.36-36.433 70.86-36.433c37.79 0 70.87 36.433 70.87 70.866v70.866h36.43v-70.866c0-36.47 36.44-70.866 70.87-70.866 63.16 0 70.87 36.433 70.87 36.433s0-106.3-70.87-106.3c-63.16 0-70.87 36.433-70.87 36.433s17.72-63.16 17.72-106.3-36.43-88.683-36.43-88.683c0 6.79-36.44 36.433-36.44 88.683 0 63.149 17.72 106.3 17.72 106.3s-17.72-36.433-70.87-36.433c-70.86 0-70.86 106.3-70.86 106.3z" transform="matrix(.04663 0 0 .0479 299.433 309.064)" stroke="#000" stroke-width="2.991" fill="#fff100"/>
      <path d="M1240.2 631.6s16.36-36.433 70.86-36.433c37.79 0 70.87 36.433 70.87 70.866v70.866h36.43v-70.866c0-36.47 36.44-70.866 70.87-70.866 63.16 0 70.87 36.433 70.87 36.433s0-106.3-70.87-106.3c-63.16 0-70.87 36.433-70.87 36.433s17.72-63.16 17.72-106.3-36.43-88.683-36.43-88.683c0 6.79-36.44 36.433-36.44 88.683 0 63.149 17.72 106.3 17.72 106.3s-17.72-36.433-70.87-36.433c-70.86 0-70.86 106.3-70.86 106.3z" transform="matrix(.04663 0 0 .0479 347.83 309.064)" stroke="#000" stroke-width="2.991" fill="#fff100"/>
      <path d="M631.6 832.68V673.23s36.433 63.16 88.683 63.16c43.489 0 88.682-70.866 88.682-70.866s41.616 63.149 88.683 63.149c42.021 0 88.616-68.672 88.616-68.672s43.207 68.672 88.649 68.672c46.441 0 88.681-63.149 88.681-63.149s46.29 70.866 106.3 70.866c63.16 0 70.87-63.16 70.87-63.16v169.46h-708.66z" transform="matrix(.13669 0 0 .12673 266.36 262.74)" stroke="#000" stroke-width="1pt" fill="#fff100"/>
      <path d="M708.66 832.68V708.66s106.3 36.433 106.3 124.02h-106.3z" transform="matrix(.13669 0 0 .12673 242.16 262.74)" stroke="#000" stroke-width="1pt" fill="#fff100"/>
      <path d="M708.66 832.68V708.66s106.3 36.433 106.3 124.02h-106.3z" transform="matrix(-.13669 0 0 .12673 632.647 262.74)" stroke="#000" stroke-width="1pt" fill="#fff100"/>
      <path d="M602.36 832.68c0-88.683 106.37-144.6 106.37-144.6s106.23 66.016 106.23 144.6h-212.6z" transform="matrix(.13669 0 0 .12673 266.36 262.74)" stroke="#000" stroke-width="1pt" fill="#fff100"/>
      <path d="M602.36 832.68c0-88.683 106.37-144.6 106.37-144.6s106.23 66.016 106.23 144.6h-212.6z" transform="matrix(.13669 0 0 .12673 314.768 262.74)" stroke="#000" stroke-width="1pt" fill="#fff100"/>
      <path d="M684.66 847.63c0-88.683 124.08-169.46 124.08-169.46s123.96 70.866 123.96 169.46H684.66z" transform="matrix(.13669 0 0 .12673 290.668 260.873)" stroke="#000" stroke-width="1pt" fill="#fff100"/>
      <path d="M1276.6 666.61c-36.43-17.716-166.02-36.433-376.28-36.433s-360.1 17.717-386.63 36.433c-36.434 17.717-36.434 63.149-.001 70.866 36.433 17.716 176.28 36.433 386.64 36.433s340.84-17.716 376.28-36.433c36.43-17.716 36.43-63.149 0-70.866z" transform="matrix(.13606 0 0 .12673 266.898 276.016)" stroke="#000" stroke-width="1pt" fill="#fff"/>
      <path d="M436.767 366.342c0 4.466-40.266 4.466-48.399 4.466-8.797 0-48.398 1.207-48.398-4.466 0-4.466 39.928-4.466 48.398-4.466 8.47 0 48.399.906 48.399 4.466z" fill="gray"/>
      <path d="M343.797 360.342c0 1.466-1.084 2.636-2.42 2.636-1.337 0-2.42-1.18-2.42-2.636s1.083-2.637 2.42-2.637c1.336 0 2.42 1.18 2.42 2.637zM436.763 360.342c0 1.466-1.083 2.636-2.42 2.636-1.336 0-2.42-1.18-2.42-2.636s1.084-2.637 2.42-2.637c1.337 0 2.42 1.18 2.42 2.637z" fill="#c00"/>
      <path d="M392.196 348.932c0 1.466-2.167 2.636-4.84 2.636s-4.84-1.18-4.84-2.636 2.167-2.636 4.84-2.636 4.84 1.18 4.84 2.636z"/>
      <path d="M416.41 348.932c0 1.466-1.626 2.636-3.63 2.636-2.004 0-3.63-1.18-3.63-2.636s1.626-2.636 3.63-2.636c2.006 0 3.63 1.18 3.63 2.636zM366.676 348.932c0 1.466-1.626 2.636-3.63 2.636-2.006 0-3.63-1.18-3.63-2.636s1.626-2.636 3.63-2.636c2.004 0 3.63 1.18 3.63 2.636z" fill="#006300"/>
      <path d="M1267.9 496.06s36.44-63.16 70.87-63.16h36.43v36.433c0 63.16-63.16 70.867-63.16 70.867h141.74s-63.16-17.717-63.16-70.867V442.91h36.43c36.43 0 70.87 63.16 70.87 63.16V364.33s-36.44 63.16-70.87 63.16h-36.43v-36.433c0-63.16 63.16-70.867 63.16-70.867h-141.74s63.16 17.717 63.16 70.867v36.433h-36.43c-36.43 0-70.87-63.16-70.87-63.16v141.73z" transform="matrix(.07806 0 0 .07186 279.6 297.926)" stroke="#000" stroke-width="2.188" fill="#fff100"/>
      <path d="M1381.9 649.21l70.87.001s-63.16-17.717-63.16-70.867v-36.433h36.43c36.43 0 70.87 63.16 70.87 63.16v-141.73s-36.44 63.16-70.87 63.16h-36.43v-36.433c0-63.16 63.16-70.867 63.16-70.867h-70.87v248.03z" transform="matrix(.03903 0 0 .06287 286.03 307.314)" stroke="#000" stroke-width="3.307" fill="#fff100"/>
      <path d="M1381.9 649.21l70.87.001s-63.16-17.717-63.16-70.867v-36.433h36.43c36.43 0 70.87 63.16 70.87 63.16v-141.73s-36.44 63.16-70.87 63.16h-36.43v-36.433c0-63.16 63.16-70.867 63.16-70.867h-70.87v248.03z" transform="matrix(-.03903 0 0 .06287 489.686 307.314)" stroke="#000" stroke-width="3.307" fill="#fff100"/>
      <path d="M903.64 602.36c0 9.786-7.932 17.717-17.717 17.717-9.786 0-17.717-7.932-17.717-17.717 0-9.786 7.932-17.717 17.717-17.717 9.786 0 17.717 7.932 17.717 17.717z" transform="matrix(.13669 0 0 .12673 266.36 262.74)" stroke="#000" stroke-width="1pt" fill="#fff"/>
      <path d="M1267.9 496.06s36.44-63.16 70.87-63.16h36.43v36.433c0 63.16-63.16 70.867-63.16 70.867h141.74s-63.16-17.717-63.16-70.867V442.91h36.43c36.43 0 70.87 63.16 70.87 63.16V364.33s-36.44 63.16-70.87 63.16h-36.43v-36.433c0-63.16 63.16-70.867 63.16-70.867h-141.74s63.16 17.717 63.16 70.867v36.433h-36.43c-36.43 0-70.87-63.16-70.87-63.16v141.73z" transform="matrix(.07806 0 0 .07186 279.6 261.16)" stroke="#000" stroke-width="2.188" fill="#fff100"/>
      <path d="M903.64 602.36c0 9.786-7.932 17.717-17.717 17.717-9.786 0-17.717-7.932-17.717-17.717 0-9.786 7.932-17.717 17.717-17.717 9.786 0 17.717 7.932 17.717 17.717z" transform="matrix(.13669 0 0 .12673 266.692 206.336)" stroke="#000" stroke-width="1pt" fill="#fff"/>
      <path stroke="#000" stroke-width="1pt" fill="#fff100" d="M860.39 666.61h70.866v63.16H860.39z" transform="matrix(.13669 0 0 .12673 266.36 208.19)"/>
      <path stroke="#000" stroke-width="1pt" fill="#fff100" d="M860.39 683.3h70.866v202.63H860.39z" transform="matrix(.13669 0 0 .12673 266.36 208.19)"/>
      <path d="M478.36 649.21c0 9.786-7.932 17.717-17.717 17.717-9.786 0-17.717-7.932-17.717-17.717 0-9.786 7.932-17.717 17.717-17.717 9.786 0 17.717 7.932 17.717 17.717z" transform="matrix(.13669 0 0 .12673 324.438 246.067)" stroke="#000" stroke-width="1pt" fill="#fff"/>
      <path d="M478.36 649.21c0 9.786-7.932 17.717-17.717 17.717-9.786 0-17.717-7.932-17.717-17.717 0-9.786 7.932-17.717 17.717-17.717 9.786 0 17.717 7.932 17.717 17.717z" transform="matrix(.13669 0 0 .12673 324.438 240.296)" stroke="#000" stroke-width="1pt" fill="#fff"/>
      <path d="M478.36 649.21c0 9.786-7.932 17.717-17.717 17.717-9.786 0-17.717-7.932-17.717-17.717 0-9.786 7.932-17.717 17.717-17.717 9.786 0 17.717 7.932 17.717 17.717z" transform="matrix(.13669 0 0 .12673 324.438 234.92)" stroke="#000" stroke-width="1pt" fill="#fff"/>
      <path d="M478.36 649.21c0 9.786-7.932 17.717-17.717 17.717-9.786 0-17.717-7.932-17.717-17.717 0-9.786 7.932-17.717 17.717-17.717 9.786 0 17.717 7.932 17.717 17.717z" transform="matrix(.13669 0 0 .12673 324.438 229.372)" stroke="#000" stroke-width="1pt" fill="#fff"/>
      <path d="M392.496 367.482c0 1-2.202 1.81-4.918 1.81s-4.918-.81-4.918-1.81 2.202-1.811 4.918-1.811c2.717 0 4.918.81 4.918 1.81zM437.066 361.903c-.272.686-2.668.742-6.36.127-2.683-.616-4.638-1.67-4.366-2.366.273-.686 2.668-.743 6.36-.128 2.684.616 4.638 1.67 4.366 2.366zM418.437 368.899c-.108.882-2.439 1.44-6.206 1.247-2.768-.194-4.926-1.066-4.817-1.947.108-.882 2.439-1.44 6.206-1.247 2.768.193 4.926 1.066 4.817 1.947zM336.667 361.903c.272.686 2.668.742 6.36.127 2.683-.616 4.638-1.67 4.366-2.366-.273-.686-2.668-.743-6.36-.128-2.684.616-4.638 1.67-4.366 2.366zM366.128 368.472c.108.882 2.439 1.44 6.206 1.247 2.768-.193 4.926-1.066 4.817-1.947-.108-.882-2.439-1.44-6.207-1.247-2.767.193-4.924 1.066-4.816 1.947z"/>
    </g>
  </g>
</svg>
