<svg xmlns="http://www.w3.org/2000/svg" height="480" width="640">
  <path fill="#fff" d="M0 160h640v160H0z"/>
  <path fill="#ce1126" d="M0 0h640v160H0z"/>
  <path d="M0 320h640v160H0z"/>
  <g transform="translate(-179.27 -92.847) scale(1.76182)" fill="#007a3d">
    <path d="M326.626 173.177c-.668-.294-1.186-.767-1.396-1.063-.314-.44-.13-.466 1.163-.106 2.32.628 3.816.383 6.298-.873l1.31-1.103 1.64.784c.847.428 1.747.724 2.007.666.667-.176 2.06-1.96 2.006-2.664-.064-.76.687-.67.896.263.616 1.63-.28 3.603-1.866 3.918-.774.203-1.488.128-2.66-.28-1.438-.6-1.683-.494-2.406.068-1.617 1.24-3.87 1.366-6.893.3zm6.733-6.242c-.663-.716-1.24-3.423-1.02-4.088.192-.676.39-.69.914-.626.918.288 1.13.92.993 3.064-.107 1.748-.366 2.207-.887 1.66zm-67.616-1.946c-.186 1.31 2.326 4.668 3.468 6.168-.77.346-1.727.19-2.433.677-3.948 3.948-18.367 18.006-21 21.366 7.8.166 16.46-.106 23.76-.44-.006-6.298 6.02-6.672 8.382-7.602 1.73 2.726 6.074 2.616 6.617 6.618 0 4.91.01 12.306.01 17.646H216.91c-1.17 6.176-6.843 9.126-12.363 7.6 2.014-2.103 6.406-2.827 6.62-6.734 1.024-6.366-2.046-10.296-4.032-13.907 3.284-1.194 3.782-1.492 7.12-3.736-2.342 7.12 6.092 6.338 12.364 6.176.21-2.418.088-6.272-1.767-6.626 2.396-.87 2.794-1.168 6.62-4.412v9.692c14.886 0 30.942-.11 46.138-.11 0-3.003.796-7.826-1.68-7.826-2.27 0-.107 6.173-1.87 6.173h-36.63c0-1.328-.034-4.104-.034-6.104 1.61-1.612 1.33-1.38 11.648-11.7 1.028-1.028 8.266-7.666 14.6-13.71zm89.06-.263c2.488 1.338 4.467 3.19 7.602 3.97-.363 1.26-1.476 1.76-1.77 3.088v26.91c3.403.76 4.12-1.178 6.738-2.206.442 4.307 3.186 8.63 3.088 11.91h-14.668v-43.673zM333.39 180.16s6.297-4.472 6.297-4.644v23.486l3.814-.006c0-8.948-.117-18.023-.117-26.338 1.648-1.66 4.68-3.792 6.338-6.36v42.06c-10.746 0-30.792.013-33.442.013-.493-8.73-.677-17.77 9.6-16.827v-3.662c-.31-.608-.87.148-1-.644 1.617-1.617 2.164-2.03 6.64-6.86 0 4.61.08 16.498.08 16.498 1.07 0 3.163.004 3.867.004 0 0 .036-18.228.036-18.83zm-12.663 18.6c.716 1.076 3.166 1.067 3.04-.764-.41-1.493-3.616-.924-3.04.766z"/>
    <circle cx="224.026" cy="214.369" r="2.042"/>
    <path d="M287.048 166.78c2.488 1.338 4.467 3.19 7.602 3.97-.363 1.26-1.476 1.76-1.768 3.087v26.91c3.4.76 4.117-1.178 6.736-2.206.44 4.307 3.186 8.63 3.088 11.91h-14.66c.002-14.666.002-29.114.002-43.673z"/>
  </g>
</svg>
