<svg xmlns="http://www.w3.org/2000/svg" height="480" width="640">
  <defs>
    <clipPath id="a">
      <path fill-opacity=".67" d="M-86.311 0h682.67v612h-682.67z"/>
    </clipPath>
  </defs>
  <g clip-path="url(#a)" fill-rule="evenodd" transform="translate(79.98) scale(.9376)">
    <path fill="#fff" d="M-191.96 0h896v612h-896z"/>
    <path fill="#da0000" d="M-191.96 343.84h896V612h-896z"/>
    <g stroke-width="1pt" fill="#fff">
      <path d="M-21.628 360.968h49.07v3.377h-49.07zM-14.312 367.842h3.377v3.28h-3.377zM27.67 367.736v3.377h-9.807v-3.377zM32.844 360.968h3.377v20.16h-3.377z"/>
      <path d="M62.379 367.736v3.377H33.794v-3.377zM17.763 369.849h3.377v11.27h-3.377z"/>
      <path d="M49.614 360.968h3.377v20.16h-3.377zM41.172 360.968h3.377v20.16h-3.377zM-3.627 368.982v3.377h-17.91v-3.377zM36.673 368.982v3.377h-17.91v-3.377z"/>
      <path d="M17.763 369.849h3.377v11.27h-3.377z"/>
      <path d="M17.763 369.849h3.377v11.27h-3.377z"/>
      <path d="M17.763 369.849h3.377v11.27h-3.377zM-21.637 369.849h3.377v11.27h-3.377zM7.27 369.849h3.376v11.27H7.27zM-7.002 369.849h3.377v11.27h-3.377z"/>
      <path d="M9.639 367.736v3.377h-16.14v-3.377zM10.646 368.982v3.377H1.048v-3.377z"/>
    </g>
    <g stroke-width="1pt" fill="#fff">
      <path d="M-102.228 360.968h49.07v3.377h-49.07zM-94.912 367.842h3.377v3.28h-3.377zM-63.03 367.736v3.377h-9.807v-3.377zM-47.766 360.968h3.377v20.16h-3.377z"/>
      <path d="M-28.221 367.736v3.377h-18.686v-3.377zM-62.837 369.849h3.377v11.27h-3.377z"/>
      <path d="M-30.986 360.968h3.377v20.16h-3.377zM-39.428 360.968h3.377v20.16h-3.377zM-84.227 368.982v3.377h-17.91v-3.377zM-44.927 368.982v3.377h-17.91v-3.377z"/>
      <path d="M-62.837 369.849h3.377v11.27h-3.377z"/>
      <path d="M-62.837 369.849h3.377v11.27h-3.377z"/>
      <path d="M-62.837 369.849h3.377v11.27h-3.377zM-102.137 369.849h3.377v11.27h-3.377zM-73.33 369.849h3.376v11.27h-3.377zM-87.602 369.849h3.377v11.27h-3.377z"/>
      <path d="M-70.961 367.736v3.377h-16.14v-3.377zM-69.964 368.982v3.377h-9.698v-3.377z"/>
    </g>
    <g stroke-width="1pt" fill="#fff">
      <path d="M68.297 360.968h49.07v3.377h-49.07zM66.613 367.842h3.376v3.28h-3.376zM107.494 367.736v3.377h-9.807v-3.377zM112.769 360.968h3.377v20.16h-3.377z"/>
      <path d="M132.303 367.736v3.377H113.72v-3.377zM97.687 369.849h3.377v11.27h-3.377z"/>
      <path d="M129.639 360.968h3.377v20.16h-3.377zM121.097 360.968h3.377v20.16h-3.377zM76.298 368.982v3.377h-17.91v-3.377zM116.697 368.982v3.377h-17.91v-3.377z"/>
      <path d="M97.687 369.849h3.377v11.27h-3.377z"/>
      <path d="M97.687 369.849h3.377v11.27h-3.377z"/>
      <path d="M97.687 369.849h3.377v11.27h-3.377zM68.388 369.849h3.377v11.27h-3.377zM87.194 369.849h3.377v11.27h-3.377zM72.922 369.849H76.3v11.27h-3.377z"/>
      <path d="M89.663 367.736v3.377h-16.14v-3.377zM90.67 368.982v3.377h-9.698v-3.377z"/>
    </g>
    <g stroke-width="1pt" fill="#fff">
      <path d="M622.682 360.968h49.07v3.377h-49.07zM629.998 367.842h3.377v3.28h-3.377zM671.88 367.736v3.377h-9.807v-3.377zM677.164 360.968h3.377v20.16h-3.377z"/>
      <path d="M696.689 367.736v3.377h-18.686v-3.377zM662.073 369.849h3.377v11.27h-3.377z"/>
      <path d="M693.924 360.968h3.377v20.16h-3.377zM686.482 360.968h3.377v20.16h-3.377zM640.683 368.982v3.377h-17.91v-3.377zM679.983 368.982v3.377h-17.91v-3.377z"/>
      <path d="M662.073 369.849h3.377v11.27h-3.377z"/>
      <path d="M662.073 369.849h3.377v11.27h-3.377z"/>
      <path d="M662.073 369.849h3.377v11.27h-3.377zM622.773 369.849h3.377v11.27h-3.377zM661.68 369.849h3.376v11.27h-3.377zM637.308 369.849h3.377v11.27h-3.377z"/>
      <path d="M663.949 367.736v3.377h-16.14v-3.377zM664.966 368.982v3.377h-9.698v-3.377z"/>
    </g>
    <g stroke-width="1pt" fill="#fff">
      <path d="M138.742 360.968h49.07v3.377h-49.07zM146.068 367.842h3.377v3.28h-3.377zM187.94 367.736v3.377h-9.807v-3.377zM193.214 360.968h3.377v20.16h-3.377z"/>
      <path d="M212.749 367.736v3.377h-18.686v-3.377zM178.133 369.849h3.377v11.27h-3.377z"/>
      <path d="M209.984 360.968h3.377v20.16h-3.377zM201.642 360.968h3.377v20.16h-3.377zM166.743 368.982v3.377h-17.91v-3.377zM196.043 368.982v3.377h-17.91v-3.377z"/>
      <path d="M178.133 369.849h3.377v11.27h-3.377z"/>
      <path d="M178.133 369.849h3.377v11.27h-3.377z"/>
      <path d="M178.133 369.849h3.377v11.27h-3.377zM138.833 369.849h3.377v11.27h-3.377zM167.64 369.849h3.376v11.27h-3.377zM163.368 369.849h3.377v11.27h-3.377z"/>
      <path d="M170.009 367.736v3.377h-16.14v-3.377zM171.016 368.982v3.377h-9.698v-3.377z"/>
    </g>
    <g stroke-width="1pt" fill="#fff">
      <path d="M219.482 360.968h49.07v3.377h-49.07zM226.798 367.842h3.377v3.28h-3.377zM268.68 367.736v3.377h-9.807v-3.377zM273.964 360.968h3.377v20.16h-3.377z"/>
      <path d="M293.489 367.736v3.377h-18.686v-3.377zM268.873 369.849h3.377v11.27h-3.377z"/>
      <path d="M290.724 360.968h3.377v20.16h-3.377zM282.282 360.968h3.377v20.16h-3.377zM237.483 368.982v3.377h-17.91v-3.377zM276.783 368.982v3.377h-17.91v-3.377z"/>
      <path d="M268.873 369.849h3.377v11.27h-3.377z"/>
      <path d="M268.873 369.849h3.377v11.27h-3.377z"/>
      <path d="M268.873 369.849h3.377v11.27h-3.377zM219.673 369.849h3.377v11.27h-3.377zM248.38 369.849h3.376v11.27h-3.377zM234.108 369.849h3.377v11.27h-3.377z"/>
      <path d="M260.749 367.736v3.377h-16.14v-3.377zM261.766 368.982v3.377h-9.698v-3.377z"/>
    </g>
    <path fill="#239f40" d="M-191.96 0h896v168.16h-896z"/>
    <g stroke-width="1pt" fill="#fff">
      <path d="M300.692 360.968h49.07v3.377h-49.07zM308.008 367.842h3.377v3.28h-3.377zM349.89 367.736v3.377h-9.807v-3.377zM366.164 360.968h3.377v20.16h-3.377z"/>
      <path d="M374.699 367.736v3.377h-18.686v-3.377zM340.083 369.849h3.377v11.27h-3.377z"/>
      <path d="M371.934 360.968h3.377v20.16h-3.377zM363.492 360.968h3.377v20.16h-3.377zM318.693 368.982v3.377h-17.91v-3.377zM367.993 368.982v3.377h-17.91v-3.377z"/>
      <path d="M340.083 369.849h3.377v11.27h-3.377z"/>
      <path d="M340.083 369.849h3.377v11.27h-3.377z"/>
      <path d="M340.083 369.849h3.377v11.27h-3.377zM300.783 369.849h3.377v11.27h-3.377zM329.69 369.849h3.376v11.27h-3.377zM316.318 369.849h3.377v11.27h-3.377z"/>
      <path d="M331.969 367.736v3.377h-16.14v-3.377zM332.966 368.982v3.377h-9.698v-3.377z"/>
    </g>
    <g stroke-width="1pt" fill="#fff">
      <path d="M381.422 360.968h49.07v3.377h-49.07zM388.738 367.842h3.377v3.28h-3.377zM430.62 367.736v3.377h-9.807v-3.377zM436.894 360.968h3.377v20.16h-3.377z"/>
      <path d="M466.429 367.736v3.377h-18.686v-3.377zM420.813 369.849h3.377v11.27h-3.377z"/>
      <path d="M462.664 360.968h3.377v20.16h-3.377zM444.222 360.968h3.377v20.16h-3.377zM399.423 368.982v3.377h-17.91v-3.377zM438.723 368.982v3.377h-17.91v-3.377z"/>
      <path d="M420.813 369.849h3.377v11.27h-3.377z"/>
      <path d="M420.813 369.849h3.377v11.27h-3.377z"/>
      <path d="M420.813 369.849h3.377v11.27h-3.377zM381.613 369.849h3.377v11.27h-3.377zM410.32 369.849h3.376v11.27h-3.377zM396.048 369.849h3.377v11.27h-3.377z"/>
      <path d="M412.689 367.736v3.377h-16.14v-3.377zM413.696 368.982v3.377h-9.698v-3.377z"/>
    </g>
    <g stroke-width="1pt" fill="#fff">
      <path d="M462.162 360.968h49.07v3.377h-49.07zM469.478 367.842h3.377v3.28h-3.377zM611.36 367.736v3.377h-9.807v-3.377zM616.634 360.968h3.377v20.16h-3.377z"/>
      <path d="M636.169 367.736v3.377h-18.686v-3.377zM601.663 369.849h3.377v11.27h-3.377z"/>
      <path d="M633.404 360.968h3.377v20.16h-3.377zM624.962 360.968h3.377v20.16h-3.377zM480.163 368.982v3.377h-17.91v-3.377zM619.463 368.982v3.377h-17.91v-3.377z"/>
      <path d="M601.663 369.849h3.377v11.27h-3.377z"/>
      <path d="M601.663 369.849h3.377v11.27h-3.377z"/>
      <path d="M601.663 369.849h3.377v11.27h-3.377zM462.263 369.849h3.377v11.27h-3.377zM491.06 369.849h3.376v11.27h-3.377zM476.788 369.849h3.377v11.27h-3.377z"/>
      <path d="M493.429 367.736v3.377h-16.14v-3.377zM494.436 368.982v3.377h-9.698v-3.377z"/>
    </g>
    <g stroke-width="1pt" fill="#fff">
      <path d="M643.372 360.968h49.07v3.377h-49.07zM660.688 367.842h3.377v3.28h-3.377zM692.67 367.736v3.377h-9.807v-3.377zM697.844 360.968h3.377v20.16h-3.377z"/>
      <path d="M617.379 367.736v3.377h-18.686v-3.377zM682.763 369.849h3.377v11.27h-3.377z"/>
      <path d="M614.614 360.968h3.377v20.16h-3.377zM606.172 360.968h3.377v20.16h-3.377zM661.373 368.982v3.377h-17.91v-3.377zM600.673 368.982v3.377h-17.91v-3.377z"/>
      <path d="M682.763 369.849h3.377v11.27h-3.377z"/>
      <path d="M682.763 369.849h3.377v11.27h-3.377z"/>
      <path d="M682.763 369.849h3.377v11.27h-3.377zM643.463 369.849h3.377v11.27h-3.377zM672.27 369.849h3.376v11.27h-3.377zM667.998 369.849h3.377v11.27h-3.377z"/>
      <path d="M674.639 367.736v3.377h-16.14v-3.377zM676.646 368.982v3.377h-9.698v-3.377z"/>
    </g>
    <g stroke-width="1pt" fill="#fff">
      <path d="M-183.788 360.968h49.07v3.377h-49.07zM-176.472 367.842h3.377v3.28h-3.377zM-134.69 367.736v3.377h-9.807v-3.377zM-129.316 360.968h3.377v20.16h-3.377z"/>
      <path d="M-109.781 367.736v3.377h-18.686v-3.377zM-144.397 369.849h3.377v11.27h-3.377z"/>
      <path d="M-112.646 360.968h3.377v20.16h-3.377zM-120.988 360.968h3.377v20.16h-3.377zM-166.787 368.982v3.377h-17.91v-3.377zM-126.487 368.982v3.377h-17.91v-3.377z"/>
      <path d="M-144.397 369.849h3.377v11.27h-3.377z"/>
      <path d="M-144.397 369.849h3.377v11.27h-3.377z"/>
      <path d="M-144.397 369.849h3.377v11.27h-3.377zM-183.697 369.849h3.377v11.27h-3.377zM-164.89 369.849h3.376v11.27h-3.377zM-169.162 369.849h3.377v11.27h-3.377z"/>
      <path d="M-162.621 367.736v3.377h-16.14v-3.377zM-161.614 368.982v3.377h-9.698v-3.377z"/>
    </g>
    <g stroke-width="1pt" fill="#fff">
      <path d="M-21.628 143.442h49.07v3.377h-49.07zM-14.312 160.326h3.377v3.28h-3.377zM27.67 160.22v3.377h-9.807v-3.377zM32.844 143.442h3.377v20.16h-3.377z"/>
      <path d="M62.379 160.22v3.377H33.794v-3.377zM17.763 162.333h3.377v11.27h-3.377z"/>
      <path d="M49.614 143.442h3.377v20.16h-3.377zM41.172 143.442h3.377v20.16h-3.377zM-3.627 161.466v3.377h-17.91v-3.377zM36.673 161.466v3.377h-17.91v-3.377z"/>
      <path d="M17.763 162.333h3.377v11.27h-3.377z"/>
      <path d="M17.763 162.333h3.377v11.27h-3.377z"/>
      <path d="M17.763 162.333h3.377v11.27h-3.377zM-21.637 162.333h3.377v11.27h-3.377zM7.27 162.333h3.376v11.27H7.27zM-7.002 162.333h3.377v11.27h-3.377z"/>
      <path d="M9.639 160.22v3.377h-16.14v-3.377zM10.646 161.466v3.377H1.048v-3.377z"/>
    </g>
    <g stroke-width="1pt" fill="#fff">
      <path d="M-102.228 143.442h49.07v3.377h-49.07zM-94.912 160.326h3.377v3.28h-3.377zM-63.03 160.22v3.377h-9.807v-3.377zM-47.766 143.442h3.377v20.16h-3.377z"/>
      <path d="M-28.221 160.22v3.377h-18.686v-3.377zM-62.837 162.333h3.377v11.27h-3.377z"/>
      <path d="M-30.986 143.442h3.377v20.16h-3.377zM-39.428 143.442h3.377v20.16h-3.377zM-84.227 161.466v3.377h-17.91v-3.377zM-44.927 161.466v3.377h-17.91v-3.377z"/>
      <path d="M-62.837 162.333h3.377v11.27h-3.377z"/>
      <path d="M-62.837 162.333h3.377v11.27h-3.377z"/>
      <path d="M-62.837 162.333h3.377v11.27h-3.377zM-102.137 162.333h3.377v11.27h-3.377zM-73.33 162.333h3.376v11.27h-3.377zM-87.602 162.333h3.377v11.27h-3.377z"/>
      <path d="M-70.961 160.22v3.377h-16.14v-3.377zM-69.964 161.466v3.377h-9.698v-3.377z"/>
    </g>
    <g stroke-width="1pt" fill="#fff">
      <path d="M68.297 143.442h49.07v3.377h-49.07zM66.613 160.326h3.376v3.28h-3.376zM107.494 160.22v3.377h-9.807v-3.377zM112.769 143.442h3.377v20.16h-3.377z"/>
      <path d="M132.303 160.22v3.377H113.72v-3.377zM97.687 162.333h3.377v11.27h-3.377z"/>
      <path d="M129.639 143.442h3.377v20.16h-3.377zM121.097 143.442h3.377v20.16h-3.377zM76.298 161.466v3.377h-17.91v-3.377zM116.697 161.466v3.377h-17.91v-3.377z"/>
      <path d="M97.687 162.333h3.377v11.27h-3.377z"/>
      <path d="M97.687 162.333h3.377v11.27h-3.377z"/>
      <path d="M97.687 162.333h3.377v11.27h-3.377zM68.388 162.333h3.377v11.27h-3.377zM87.194 162.333h3.377v11.27h-3.377zM72.922 162.333H76.3v11.27h-3.377z"/>
      <path d="M89.663 160.22v3.377h-16.14v-3.377zM90.67 161.466v3.377h-9.698v-3.377z"/>
    </g>
    <g stroke-width="1pt" fill="#fff">
      <path d="M622.682 143.442h49.07v3.377h-49.07zM629.998 160.326h3.377v3.28h-3.377zM671.88 160.22v3.377h-9.807v-3.377zM677.164 143.442h3.377v20.16h-3.377z"/>
      <path d="M696.689 160.22v3.377h-18.686v-3.377zM662.073 162.333h3.377v11.27h-3.377z"/>
      <path d="M693.924 143.442h3.377v20.16h-3.377zM686.482 143.442h3.377v20.16h-3.377zM640.683 161.466v3.377h-17.91v-3.377zM679.983 161.466v3.377h-17.91v-3.377z"/>
      <path d="M662.073 162.333h3.377v11.27h-3.377z"/>
      <path d="M662.073 162.333h3.377v11.27h-3.377z"/>
      <path d="M662.073 162.333h3.377v11.27h-3.377zM622.773 162.333h3.377v11.27h-3.377zM661.68 162.333h3.376v11.27h-3.377zM637.308 162.333h3.377v11.27h-3.377z"/>
      <path d="M663.949 160.22v3.377h-16.14v-3.377zM664.966 161.466v3.377h-9.698v-3.377z"/>
    </g>
    <g stroke-width="1pt" fill="#fff">
      <path d="M138.742 143.442h49.07v3.377h-49.07zM146.068 160.326h3.377v3.28h-3.377zM187.94 160.22v3.377h-9.807v-3.377zM193.214 143.442h3.377v20.16h-3.377z"/>
      <path d="M212.749 160.22v3.377h-18.686v-3.377zM178.133 162.333h3.377v11.27h-3.377z"/>
      <path d="M209.984 143.442h3.377v20.16h-3.377zM201.642 143.442h3.377v20.16h-3.377zM166.743 161.466v3.377h-17.91v-3.377zM196.043 161.466v3.377h-17.91v-3.377z"/>
      <path d="M178.133 162.333h3.377v11.27h-3.377z"/>
      <path d="M178.133 162.333h3.377v11.27h-3.377z"/>
      <path d="M178.133 162.333h3.377v11.27h-3.377zM138.833 162.333h3.377v11.27h-3.377zM167.64 162.333h3.376v11.27h-3.377zM163.368 162.333h3.377v11.27h-3.377z"/>
      <path d="M170.009 160.22v3.377h-16.14v-3.377zM171.016 161.466v3.377h-9.698v-3.377z"/>
    </g>
    <g stroke-width="1pt" fill="#fff">
      <path d="M219.482 143.442h49.07v3.377h-49.07zM226.798 160.326h3.377v3.28h-3.377zM268.68 160.22v3.377h-9.807v-3.377zM273.964 143.442h3.377v20.16h-3.377z"/>
      <path d="M293.489 160.22v3.377h-18.686v-3.377zM268.873 162.333h3.377v11.27h-3.377z"/>
      <path d="M290.724 143.442h3.377v20.16h-3.377zM282.282 143.442h3.377v20.16h-3.377zM237.483 161.466v3.377h-17.91v-3.377zM276.783 161.466v3.377h-17.91v-3.377z"/>
      <path d="M268.873 162.333h3.377v11.27h-3.377z"/>
      <path d="M268.873 162.333h3.377v11.27h-3.377z"/>
      <path d="M268.873 162.333h3.377v11.27h-3.377zM219.673 162.333h3.377v11.27h-3.377zM248.38 162.333h3.376v11.27h-3.377zM234.108 162.333h3.377v11.27h-3.377z"/>
      <path d="M260.749 160.22v3.377h-16.14v-3.377zM261.766 161.466v3.377h-9.698v-3.377z"/>
    </g>
    <g stroke-width="1pt" fill="#fff">
      <path d="M300.692 143.442h49.07v3.377h-49.07zM308.008 160.326h3.377v3.28h-3.377zM349.89 160.22v3.377h-9.807v-3.377zM366.164 143.442h3.377v20.16h-3.377z"/>
      <path d="M374.699 160.22v3.377h-18.686v-3.377zM340.083 162.333h3.377v11.27h-3.377z"/>
      <path d="M371.934 143.442h3.377v20.16h-3.377zM363.492 143.442h3.377v20.16h-3.377zM318.693 161.466v3.377h-17.91v-3.377zM367.993 161.466v3.377h-17.91v-3.377z"/>
      <path d="M340.083 162.333h3.377v11.27h-3.377z"/>
      <path d="M340.083 162.333h3.377v11.27h-3.377z"/>
      <path d="M340.083 162.333h3.377v11.27h-3.377zM300.783 162.333h3.377v11.27h-3.377zM329.69 162.333h3.376v11.27h-3.377zM316.318 162.333h3.377v11.27h-3.377z"/>
      <path d="M331.969 160.22v3.377h-16.14v-3.377zM332.966 161.466v3.377h-9.698v-3.377z"/>
    </g>
    <g stroke-width="1pt" fill="#fff">
      <path d="M381.422 143.442h49.07v3.377h-49.07zM388.738 160.326h3.377v3.28h-3.377zM430.62 160.22v3.377h-9.807v-3.377zM436.894 143.442h3.377v20.16h-3.377z"/>
      <path d="M466.429 160.22v3.377h-18.686v-3.377zM420.813 162.333h3.377v11.27h-3.377z"/>
      <path d="M462.664 143.442h3.377v20.16h-3.377zM444.222 143.442h3.377v20.16h-3.377zM399.423 161.466v3.377h-17.91v-3.377zM438.723 161.466v3.377h-17.91v-3.377z"/>
      <path d="M420.813 162.333h3.377v11.27h-3.377z"/>
      <path d="M420.813 162.333h3.377v11.27h-3.377z"/>
      <path d="M420.813 162.333h3.377v11.27h-3.377zM381.613 162.333h3.377v11.27h-3.377zM410.32 162.333h3.376v11.27h-3.377zM396.048 162.333h3.377v11.27h-3.377z"/>
      <path d="M412.689 160.22v3.377h-16.14v-3.377zM413.696 161.466v3.377h-9.698v-3.377z"/>
    </g>
    <g stroke-width="1pt" fill="#fff">
      <path d="M462.162 143.442h49.07v3.377h-49.07zM469.478 160.326h3.377v3.28h-3.377zM611.36 160.22v3.377h-9.807v-3.377zM616.634 143.442h3.377v20.16h-3.377z"/>
      <path d="M636.169 160.22v3.377h-18.686v-3.377zM601.663 162.333h3.377v11.27h-3.377z"/>
      <path d="M633.404 143.442h3.377v20.16h-3.377zM624.962 143.442h3.377v20.16h-3.377zM480.163 161.466v3.377h-17.91v-3.377zM619.463 161.466v3.377h-17.91v-3.377z"/>
      <path d="M601.663 162.333h3.377v11.27h-3.377z"/>
      <path d="M601.663 162.333h3.377v11.27h-3.377z"/>
      <path d="M601.663 162.333h3.377v11.27h-3.377zM462.263 162.333h3.377v11.27h-3.377zM491.06 162.333h3.376v11.27h-3.377zM476.788 162.333h3.377v11.27h-3.377z"/>
      <path d="M493.429 160.22v3.377h-16.14v-3.377zM494.436 161.466v3.377h-9.698v-3.377z"/>
    </g>
    <g stroke-width="1pt" fill="#fff">
      <path d="M643.372 143.442h49.07v3.377h-49.07zM660.688 160.326h3.377v3.28h-3.377zM692.67 160.22v3.377h-9.807v-3.377zM697.844 143.442h3.377v20.16h-3.377z"/>
      <path d="M617.379 160.22v3.377h-18.686v-3.377zM682.763 162.333h3.377v11.27h-3.377z"/>
      <path d="M614.614 143.442h3.377v20.16h-3.377zM606.172 143.442h3.377v20.16h-3.377zM661.373 161.466v3.377h-17.91v-3.377zM600.673 161.466v3.377h-17.91v-3.377z"/>
      <path d="M682.763 162.333h3.377v11.27h-3.377z"/>
      <path d="M682.763 162.333h3.377v11.27h-3.377z"/>
      <path d="M682.763 162.333h3.377v11.27h-3.377zM643.463 162.333h3.377v11.27h-3.377zM672.27 162.333h3.376v11.27h-3.377zM667.998 162.333h3.377v11.27h-3.377z"/>
      <path d="M674.639 160.22v3.377h-16.14v-3.377zM676.646 161.466v3.377h-9.698v-3.377z"/>
    </g>
    <g stroke-width="1pt" fill="#fff">
      <path d="M-183.788 143.442h49.07v3.377h-49.07zM-176.472 160.326h3.377v3.28h-3.377zM-134.69 160.22v3.377h-9.807v-3.377zM-129.316 143.442h3.377v20.16h-3.377z"/>
      <path d="M-109.781 160.22v3.377h-18.686v-3.377zM-144.397 162.333h3.377v11.27h-3.377z"/>
      <path d="M-112.646 143.442h3.377v20.16h-3.377zM-120.988 143.442h3.377v20.16h-3.377zM-166.787 161.466v3.377h-17.91v-3.377zM-126.487 161.466v3.377h-17.91v-3.377z"/>
      <path d="M-144.397 162.333h3.377v11.27h-3.377z"/>
      <path d="M-144.397 162.333h3.377v11.27h-3.377z"/>
      <path d="M-144.397 162.333h3.377v11.27h-3.377zM-183.697 162.333h3.377v11.27h-3.377zM-164.89 162.333h3.376v11.27h-3.377zM-169.162 162.333h3.377v11.27h-3.377z"/>
      <path d="M-162.621 160.22v3.377h-16.14v-3.377zM-161.614 161.466v3.377h-9.698v-3.377z"/>
    </g>
    <g stroke-width="1pt" fill="#d90000">
      <path d="M-68.83 339.607h6.048v10.606h-6.048zM91.702 339.607h6.048v10.606h-6.048zM-192.003 339.607h6.048v10.606h-6.048zM-110.628 339.607h6.048v10.606h-6.048zM-29.633 339.607h6.048v10.606h-6.048zM10.391 339.607h6.049v10.606H10.39zM61.262 339.607H67.3v10.606h-6.048zM131.727 339.607h6.048v10.606h-6.048zM334.783 339.607h6.048v10.606h-6.048zM172.686 339.607h6.048v10.606h-6.048zM212.621 339.607h6.048v10.606h-6.048zM263.069 339.607h6.048v10.606h-6.048zM293.607 339.607h6.048v10.606h-6.048zM616.66 339.607h6.047v10.606h-6.048zM373.98 339.607h6.048v10.606h-6.048zM414.84 339.607h6.049v10.606h-6.049zM466.124 339.607h6.049v10.606h-6.049zM494.9 339.607h6.049v10.606H494.9zM636.174 339.607h6.048v10.606h-6.048zM676.622 339.607h6.048v10.606h-6.048zM696.296 339.607h6.048v10.606h-6.048zM667.618 339.607h6.048v10.606h-6.048zM-161.39 339.607h6.048v10.606h-6.048z"/>
    </g>
    <g stroke-width="1pt" fill="#239e3f">
      <path d="M-68.83 162.607h6.048v10.606h-6.048zM91.702 162.607h6.048v10.606h-6.048zM-192.003 162.607h6.048v10.606h-6.048zM-110.628 162.607h6.048v10.606h-6.048zM-29.633 162.607h6.048v10.606h-6.048zM10.391 162.607h6.049v10.606H10.39zM61.262 162.607H67.3v10.606h-6.048zM131.727 162.607h6.048v10.606h-6.048zM334.783 162.607h6.048v10.606h-6.048zM172.686 162.607h6.048v10.606h-6.048zM212.621 162.607h6.048v10.606h-6.048zM263.069 162.607h6.048v10.606h-6.048zM293.607 162.607h6.048v10.606h-6.048zM616.66 162.607h6.047v10.606h-6.048zM373.98 162.607h6.048v10.606h-6.048zM414.84 162.607h6.049v10.606h-6.049zM466.124 162.607h6.049v10.606h-6.049zM494.9 162.607h6.049v10.606H494.9zM636.174 162.607h6.048v10.606h-6.048zM676.622 162.607h6.048v10.606h-6.048zM696.296 162.607h6.048v10.606h-6.048zM667.618 162.607h6.048v10.606h-6.048zM-161.39 162.607h6.048v10.606h-6.048z"/>
    </g>
    <g fill="#da0000">
      <path d="M279.8 197.489c8.463 10.36 34.611 67.662-16.73 106.18-23.62 17.777-8.994 18.676-8.296 21.663 37.966-20.167 60.366-47.49 60.078-71.966-.29-24.476-13.266-46.102-26.062-64.873z"/>
      <path d="M284.826 194.826c18.76 9.6 69.663 67.879 16.636 112.344 27.288-6.066 61.98-86.417-16.636-112.344zM227.246 194.826c-18.749 9.6-69.663 67.879-16.636 112.344-27.288-6.066-61.98-86.417 16.636-112.344z"/>
      <path d="M232.2 197.489c-8.464 10.36-34.612 67.662 16.73 106.18 23.618 17.777 8.993 18.676 8.294 21.663-37.966-20.167-60.366-47.49-60.077-71.966.289-24.476 13.266-46.102 26.062-64.873z"/>
      <path d="M304.198 319.111c-14.86.236-33.693-2.047-47.486-9.267 2.288 4.46 4.189 7.262 6.477 11.701 13.26 1.222 31.636 2.734 41.01-2.434zM209.226 319.111c14.86.236 33.693-2.047 47.487-9.267-2.289 4.46-4.19 7.262-6.478 11.701-13.26 1.222-31.636 2.734-41.01-2.434zM236.482 180.397c3.011 8.002 10.91 9.166 19.366 4.464 6.161 3.697 16.69 3.93 18.976-4.067 2.499 19.784-18.306 16.104-19.08 11.231-7.746 7.487-22.166 3.163-19.26-11.618z"/>
      <path d="M266.402 331.669l7.813-8.93 1.117-120.178-9.302-8.186-9.3 7.813 1.869 120.92 7.813 8.668z"/>
    </g>
  </g>
</svg>
