<svg xmlns="http://www.w3.org/2000/svg" height="480" width="640" version="1" xmlns:xlink="http://www.w3.org/1999/xlink" viewBox="0,0 30,18">
  <defs>
    <clipPath id="a">
      <path fill-opacity=".67" d="M-6.264-6h40v30h-40z"/>
    </clipPath>
  </defs>
  <g clip-path="url(#a)" transform="matrix(.76 0 0 .76 3.94 2.26)">
    <path fill="#fff" d="M-10.264-6h60v30h-60z"/>
    <path d="M-10.264-6v1.927L11.617 9l-21.771 13.073V24h3.281l21.72-13.073L36.464 24h3.281v-1.927L17.976 9l21.77-13.073V-6h-3.28L14.746 7.073-6.973-6h-3.281z" fill-rule="evenodd" fill="#df112d"/>
    <g transform="translate(-9.649 -6.038) scale(.20361)">
      <path d="M132.66 22.233c3.166 12.778 1.426 28.66-12.829 37.316-14.266-8.766-16.986-24.638-12.829-37.316 3.36-3.066 18.632-4.938 26.668 0z" stroke="#000" stroke-width=".126" fill="#e8112d"/>
      <path d="M119.81 19.667c6.226 0 10.093 1.383 12.962 3.176.663-4.406 2.661-8.811 4.918-12.142-2.469-.06-3.661 1.266-3.686 2.613-.616-1.742-3.023-1.64-3.766-.691 2.69 1.818.616 6.046-1.818 4.38-1.143-.313-1.747-1.11-1.961-2.267a1.322 1.322 0 1 0-.664-.088c-.769 1.266-2.148 1.632-3.136 1.366-1.281-.369-1.819-1.612-1.819-2.636 0-2.664 2.661-3.074 3.33-2.613-.061-1.793-2.869-3.227-3.74-1.742.973-1.742.922-4.2-.82-6.84-1.741 1.64-1.793 4.098-.819 6.84-.871-1.486-3.689-.061-3.74 1.742.768-.461 3.33-.061 3.33 2.613 0 1.024-.638 2.177-1.819 2.636-.988.276-2.367-.1-3.137-1.366.209-.08.401-.212.662-.398a1.322 1.322 0 1 0-1.116.486c-.214 1.167-.819 1.964-1.961 2.267-2.433.666-4.608-2.662-1.819-4.38-.742-.948-3.16-1.06-3.766.691-.026-1.367-1.127-2.664-3.686-2.613 2.366 3.33 4.364 7.736 4.918 12.142 2.869-1.793 7.736-3.176 12.961-3.176z" stroke="#000" stroke-width=".126" fill="#f9dd16"/>
      <g id="b" stroke="#000">
        <g stroke-width=".126" fill="#f9dd16">
          <path d="M130.66 32.2c-.316.076-.316.481-.48.481.819-.023 1.217-.248 1.466-.661-.18.166-.023.48-.083.666.601-.21.887-.722.677-1.067.136.196.626.3.646.316-.421-.33-.12-1.082-.797-1.473.226-.016.662.24.782.641-.106-.676-.211-1.112-.767-1.488.06.068.376.128.611 0-.36-.226-.466-.6-.436-.841.042-.337-.181-.406-.602-.3-.379.094-1.247.16-1.768.16-1.062 0-1.969 0-2.841-.602 1.308.641 2.976-.601 2.976-1.648 0-1.062-1.293-1.909-3.908-1.338-2.616.672-6.801.331-6.801-.64 0-.872 2.284-.993 3.467-.812 1.172.18 2.013.3 4.208-.481-.641.21-2.286.27-3.667-.12-1.383-.391-4.78-.391-4.81 1.442-.03 1.834 3.617 1.667 6.764 1.203 1.833-.27 2.796-.09 2.796.61 0 .672-1.683.812-2.976.662-1.292-.16-2.616-.12-4.148.33-1.28.377-2.164 0-3.677.241-.686.117-2.346 0-3.164-1.362-.604.36-2.022 1.116-2.277 1.862-.361.676-.12 1.349.36 2.01.606.833-.3.707-.946.737-.886.041-2.072-.094-2.691-.797-.648-.622-1.278-1.121-1.861-.66-.3.238-.012.66.226.463.236-.087.613.087.764.197-.401-.172-.842-.038-1.014.116-.237.213.061.619.338.476.226-.112.687-.187.987.088-.326-.063-.663-.06-.826.126s-.037.428.313.412c.662-.026.706.37 1.269.288-.346.046-.642.226-.632.36.626-.24 1.107.409 1.789.266-.266.11-.696.371-.691.672.406-.466 3.126.36 3.186-.662.076.21.06.626-.16.797.348-.21 1.473-.286 1.818-1.097.03.24-.016.666-.226.63.361.119.836-.16 1.322-.87.193-.287.239-.477.206-.692.482.018.831-.103 1.207-.421.391-.33.812.27 1.473-.16.662-.421 1.233-.06 1.693-.27.361-.211.867.074 1.248-.166s.997.118 1.644-.393c1.018.372 2.206 1.063 6.12.628 1.67-.307 2.194.266 2.194 1.022 0 .626-.308.672-.641.686-.929.067-1.328-.347-1.696-.218-.246.088-.396.488-.04.626-.294.16-.266.432-.106.636s.637.01.8-.113c-.338.163-.688.428-.488.716.121.174.427.322.713-.06.287-.376.812-.688 1.146-.638zM112.14 24.264c-.842-.346-1.126-.366-.932.33.083.294.286.707.488.896.008-.286.113-1.076.444-1.226z"/>
          <path d="M114.77 24.264c.842-.346 1.126-.366.932.33-.083.294-.286.707-.489.896-.007-.286-.112-1.076-.443-1.226z"/>
          <path d="M113.46 23.802c1.693 0 1.792.748 1.784 1.68-.007 1.007-.648.66-.866 1.963-.12.606-.623.634-.928.634-.406 0-.808-.028-.929-.634-.307-1.292-.849-.946-.866-1.963-.008-.932.191-1.68 1.786-1.68z"/>
          <path d="M109.36 27.496c-.406-.24-.668-.074-.833-.029.626.136.647.81 1.76 1.126-.271-.076-.421.076-.677-.06.496.39 1.062.843 2.226.867.664.007.202.346-.226.16.444.469 1.323.083 1.879.917.106-.646-1.037-1.668-.611-2.406-1.622-.069-1.766-.968-2.69-1.683-.761-.682-.829-1.173-1.166-2.28-.163-.601-.74-.814-1.066-.696-.284.104-.388.36-.144.636.244.184.666.209.623.676-.317-.38-.792-.617-1.02-.28-.139.146-.083.482.216.613.487.06.137.626.691.99-.491-.662-.916-.602-1.179-.302-.167.18 0 .6.338.466.489-.06 1.066 1.19 1.788 1.606zM122.43 32.139c-.266.046-.18.466-.626.496.827 0 1.247-.196 1.638-.611-.18.106-.266.376-.27.626.436-.376 1.473-.406 2.014-.3s.631-.16.826-.496c.196-.346-.076-.642-.346-.812-.271-.27-.331-.646-.271-1.278-1.443-1.923-4.028-.992-4.068-.16.932 1.082 1.062.962 1.834 1.112.781.16 1.26.16.736.686-.18.16-.932.08-1.618.106-1.311.067-1.911-.906-2.298-.406-.319.411.01.693.66.67-.46.004-1.047-.02-.946.399.172.706.847-.131 1.11.16-.226-.064-.676.084-.688.296-.012.213.6.488 1.063.04a1.64 1.64 0 0 1 .938-.338z"/>
        </g>
        <g stroke-width=".126" fill="none">
          <path d="M123.66 29.206c-.469-.172-.899-.277-1.449-.163M116.48 28.983c-.386.83-.162 1.239-.096 1.624M112.37 26.062c.266.133.414-.242.803.166-.107-.116-.24.308-.638.026M114.63 26.062c-.266.133-.414-.242-.803.166.107-.116.24.308.638.026"/>
          <path d="M113.73 26.207c-.091.076-.1-.06-.031.296.128.661.279.966-.248.966-.638 0-.376-.306-.248-.966.07-.366.061-.22-.03-.296"/>
        </g>
        <path d="M113.46 27.706c.428 0 .676-.007.609-.609-.028-.241.293-.337.18-.729.12.481-.789.436-.789.217 0 .218-.909.264-.789-.217-.113.392.207.488.18.73-.067.6.181.608.609.608z" stroke-width=".063" fill="#ff0016"/>
        <g stroke-width=".063">
          <path d="M113.07 26.489l-1.028-.287M113.07 26.643l-1.148-.01M113.08 26.602l-.979.262M113.84 26.489l1.028-.287M113.84 26.643l1.148-.01M113.83 26.602l.979.262"/>
        </g>
        <g stroke-width=".013" fill="#0061ba">
          <path d="M108.13 23.414c-.299-.372-1.048-.068-1.063.404.263-.3.666.132.891.041.166-.063.293-.294.172-.446zM107.76 24.296c-.299-.372-1.047-.068-1.062.404.262-.3.666.132.891.041.166-.062.293-.293.171-.446zM107.66 26.479c-.339-.336-1.047.06-1.01.62.218-.326.676.067.89-.068.148-.08.268-.326.12-.462zM107.91 29.148c-.376-.296-1.033.18-.944.634.179-.349.678-.022.877-.161.138-.097.22-.363.067-.473zM107.89 29.961c-.448-.166-.928.49-.703.893.062-.387.638-.23.786-.423.102-.134.1-.403-.082-.47zM108.46 30.661c-.448-.166-.928.49-.704.893.063-.387.639-.23.786-.423.102-.134.1-.403-.082-.47zM120.2 31.714c-.448-.166-.928.49-.703.893.063-.387.638-.23.786-.423.102-.134.1-.403-.082-.47zM120.81 32.268c-.464-.113-.866.692-.697.968.018-.392.608-.301.732-.61.086-.146.064-.412-.136-.468zM120.38 30.942c-.414-.239-.998.326-.846.76.128-.37.668-.117.846-.283.123-.116.167-.38-.001-.477zM128.73 31.883c-.464-.113-.866.692-.697.968.019-.392.609-.301.732-.61.086-.146.064-.412-.136-.468zM128.76 31.146c-.421-.226-.986.369-.818.79.116-.376.664-.141.836-.313.119-.12.164-.386-.018-.477zM129.07 32.642c-.468-.093-.839.63-.664.993.002-.392.696-.327.709-.642.08-.149.036-.413-.166-.461zM113.49 27.346c.294 0 .413.086.413.617 0 1.126-.013 1.609-.376 1.609-.363 0-.338-.46-.338-1.286 0-.43 0-.646-.087-.61 0-.282.126-.33.387-.33z"/>
        </g>
      </g>
      <use xlink:href="#b" transform="matrix(.9 0 0 .9 11.6 13.7)" height="18" width="30"/>
      <use xlink:href="#b" transform="matrix(.67 0 0 .76 39.2 27.6)" height="18" width="30"/>
    </g>
  </g>
</svg>
