<svg xmlns="http://www.w3.org/2000/svg" height="480" width="640">
  <defs>
    <clipPath id="a">
      <path fill-opacity=".67" d="M-84.949 0h682.67v612h-682.67z"/>
    </clipPath>
  </defs>
  <g clip-path="url(#a)" fill-rule="evenodd" transform="translate(79.64) scale(.9376)">
    <path fill="#be0027" d="M-128 0h768.77v612H-128z"/>
    <path d="M106.46 261.14c13.668-16.61 41.96-.399 66.046-12.369-27.368 1.604-42.27-13.129-63.884-11.078 22.396-13.767 41.461 4.6 66.602-2.839-33.166-2.79-31.727-17.616-61.884-19.72 26.788-11.426 40.036 11.76 66.276 6.479-30.927-7.14-36.046-26.366-68.039-29.212 33.608-6.073 31.417 14.794 64.364 17.22-33.441-14.346-24.676-26.797-62.646-37.723 31.297-.74 29.222 20.96 60.93 26.64-27.144-17.22-23.791-32.936-46.149-46.232 26.624.48 29.114 27.629 66.184 36.04-24.148-19.16-17.797-36.313-38.664-62.423 26.383 6.188 22.642 29.61 60.019 44.662-20.363-22.616-12.66-38.806-30.314-67.318 26.374 8.172 16.736 30.432 42.066 61.696-16.094-24.866-6.776-40.707-20.629-61.677 23.669 12.166 12.161 34.872 34.023 67.668-10.296-26.608.016-41.362-10.607-63.941 20.162 16.067 8.166 39.323 24.422 62.472-6.926-31.92 7.841-37.17 3.667-66.124 16.306 18.79-1.802 37.68 9.949 66.26-1.43-31.476 16.294-38.796 12.394-64.067 16.169 22.646-8.607 42.363 1.396 66.606 2.66-29.864 22.186-37.697 22.49-60.836 11.933 21.332-14.111 36.672-9.884 64.966 8.67-31.196 29.476-36.061 31.943-66.026 7.236 24.678-21.266 36.16-19.698 63.6 8.489-27.736 34.62-30.988 39.962-61.476 3.297 26.107-22.4 30.742-29.636 69.686 13.612-23.64 37.143-26.471 47.783-44.09-.836 26.816-29.844 29.2-38.748 63.373 16.726-20.61 37.691-16.96 64.416-36.136-1.766 23.299-31.293 21.982-47.009 46.104 18.136-16.732 46.436-11.718 69.33-26.126-.674 20.608-36.908 19.069-63.996 37.479 21.076-11.646 47.767-4.764 63.226-16.487-2.826 18.068-41.076 13.846-69.366 27.946 26.211-6.986 44.677 3.81 66.102-3.996-9.94 17.687-44.634 6.466-63.064 17.888 21.88-3.706 46.126 9.66 66.091 6.297-6.662 16.201-44.68-.918-66.09 8.638 24.61-.216 40.402 16.434 63.133 14.4-12.363 13.762-46.788-6.163-66.262-1.93 23.76 4.914 41.911 24.601 69.926 26.66-14.784 11.361-42.423-14.498-64.864-11.216 23.106 6.186 42.616 32.472 66.774 33.048-14.284 9.762-42.617-22.464-61.86-21.319 23.496 10.62 34.271 37.616 49.697 41.296-19.099 6.128-37.868-29.217-68.39-30.442 23.771 14.993 26.114 37.918 43.417 48.124-19.267 4.708-32.964-36.167-63.269-38.632 19.49 14.327 22.428 44.931 36.361 64.608-19.607 1.036-26.692-40.714-46.787-46.678 17.216 14.38 13.094 46.68 26.48 68.863-20.426-4.19-17.793-40.638-39.118-62.778 16.32 19.32 7.627 46.846 17.612 62.337-19.87-8.038-11.24-40.668-30.21-68.99 10.348 20.682-.774 44.686 7.387 64.486-18.163-8.864-6.944-47.384-19.866-62.666 6.396 23.786-6.4 43.47-.646 64.794-18.669-21.626 2.817-43.189-13.281-66.126 4.273 26.177-13.336 42.697-10.667 63.771-14.716-17.19 7.906-44.774-3.628-66.478 2.462 24.764-20.276 46.44-18.716 62.03-11.978-19.968 13.298-43.683 6.63-66.286-1.426 23.672-24.37 36.382-28.691 67.866-7.713-23.689 19.664-40.812 17.209-64.09-7.811 22.144-29.982 31.023-37.793 62.484-6.396-23.623 26.914-36.167 26.768-61.02-9.987 23.308-36.622 28.426-46.28 46.264-3.269-23.6 33.808-34.007 36.188-66.276-11.936 21.382-40.97 22.26-60.991 39.264-1.62-23.416 37.682-26.316 43.72-60.826-11.882 18.278-43.734 16.907-66.986 30.767 2.09-21.722 44.388-23.066 61.129-42.6-16.723 16.168-44.963 8.882-61.426 20.913 9.163-21.336 48.838-16.812 67.808-32.267-17.664 9.164-48.68.28-63.997 9.444 13.92-20.206 44.803-8.136 62.28-22.06-28.428 4.143-46.606-7.17-66.182-1.933z" fill="#ff0"/>
    <path d="M366.939 266.111c0 64.8-44.424 99.223-99.223 99.223-64.8 0-99.222-44.424-99.222-99.223 0-64.8 44.424-99.222 99.222-99.222 64.8 0 99.223 44.423 99.223 99.222z" fill="#ff0"/>
    <path d="M343.17 266.307c0 47.644-38.623 86.266-86.266 86.266-47.643 0-86.264-38.622-86.264-86.266s38.622-86.264 86.264-86.264c47.644 0 86.266 38.622 86.266 86.264z" fill="#be0027"/>
    <path d="M331.166 266.487c0 40.911-33.164 74.076-74.074 74.076-40.911 0-74.076-33.166-74.076-74.076 0-40.91 33.166-74.076 74.076-74.076 40.91 0 74.074 33.166 74.074 74.076z" fill="#ff0"/>
    <path d="M194.04 207.96c20.601-.461 46.033 1.418 62.869 14.893 17.869-11.164 39.006-16.311 60.64-14.313l11.026 20.116c-16.989-1.613-31.691.646-60.096 8.124 23.697 18.696 36.396 42.81 34.622 72.144-2.707 3.362-6.963 7.091-9.67 10.443 3.932-28.496-11.09-60.279-32.881-76.978 17.73 26.696 28.304 48.676 26.339 80.46-3.16 1.87-6.9 4.613-10.068 6.383 4.64-28.046-1.933-60.926-22.63-80.074 11.927 17.637 23.866 48.999 16.44 81.04-3.224.968-8.188 3.676-11.411 4.643 8.317-26.239 3.093-69.066-10.832-78.719-13.796 19.794-18.31 60.029-10.446 77.946-3.869-.967-6.77-2.128-10.637-3.096-6.673-30.043 2.193-63.967 16.86-81.62-13.926 8.06-27.078 42.614-23.404 77.946-3.362-1.647-6.932-2.708-9.283-4.266-4.613-26.369 7.413-60.666 24.664-80.46-19.471 12.26-36.266 42.294-32.494 74.668-2.966-2.643-6.739-3.932-8.704-6.676-3.417-28.24 12.894-66.67 32.106-73.691-16.182-7.222-30.043-8.64-60.094-8.318 3.169-6.612 6.126-14.183 9.284-20.696z" fill="#be0027"/>
  </g>
</svg>
