<svg xmlns="http://www.w3.org/2000/svg" height="480" width="640" version="1">
  <defs>
    <clipPath id="a">
      <path fill-opacity=".67" d="M-86.333 0h682.67v612h-682.67z"/>
    </clipPath>
  </defs>
  <g fill-rule="evenodd" clip-path="url(#a)" transform="translate(80) scale(.9376)">
    <path fill="#1b0073" d="M-128 0h768v612h-768z"/>
    <path fill="#e60006" d="M-128 128h768v266h-768z"/>
    <g stroke="#e60000" fill="#fff">
      <path stroke-width="1.207667" d="M93.261 248.066h326.473v62.63H93.261z"/>
      <path d="M220 280l-6 16h320l-6-16H220z" transform="matrix(1.0614 0 0 .82666 -138.286 69.641)" stroke-width="1.26"/>
      <path d="M246 280l-6 16h60l-6-16h-60z" transform="matrix(1.27667 0 0 .82666 37.621 69.642)" stroke-width="1.123"/>
      <path d="M246 280l-6 16h60l-6-16h-60z" transform="matrix(.64243 0 0 .82666 211.19 69.642)" stroke-width="1.62"/>
      <path d="M246 280l-6 16h60l-6-16h-60z" transform="matrix(.4162 0 0 .82666 272.668 69.642)" stroke-width="2.024"/>
      <path d="M246 280l-6 16h60l-6-16h-60z" transform="matrix(1.3409 0 0 .82666 -106.068 69.641)" stroke-width="1.098"/>
      <path stroke-width="1.3066066" d="M91.424 247.27h329.137v12.384H91.424z"/>
      <path stroke-width="1.2292311" d="M349.646 248.179h64.606v62.422h-64.606z"/>
      <path stroke-width=".8308406000000001" d="M396.79 272.746h6.461v27.862h-6.46zM367.408 272.746h6.46v27.862h-6.46z"/>
      <path d="M246 280l-6 16h60l-6-16h-60z" transform="matrix(.67366 0 0 .82666 73.91 69.641)" stroke-width="1.664"/>
      <path d="M246 280l-6 16h60l-6-16h-60z" transform="matrix(.42246 0 0 .82666 141.926 69.641)" stroke-width="1.966"/>
      <path stroke-width="1.2643226" d="M221.676 248.066h67.968v62.63h-67.968z"/>
      <path stroke-width="1.0733840000000001" d="M276.83 272.74h6.46v27.863h-6.46zM230.944 272.738h6.464v27.862h-6.464z"/>
      <path stroke-width=".980496" d="M239.63 236.33h32.914v66.362h-32.913z"/>
      <path stroke-width="1.0733840000000001" d="M264.219 272.739h6.46v27.862h-6.46zM242.666 272.74h6.466v27.862h-6.466z"/>
      <path d="M368.18 217.13l13.471 22.98 14.264-22.98H368.18z" transform="matrix(1.0321 0 0 .87371 -128 66.123)" stroke-width="1pt"/>
      <path stroke-width="1.2168469" d="M376.242 248.066h18.286v66.012h-18.286z"/>
      <path stroke-width="1.2168138" d="M378.286 248.066h12.178v66.012h-12.178z"/>
      <g>
        <path d="M246 280l-6 16h60l-6-16h-60z" transform="matrix(1.27668 0 0 .82666 -216.169 69.642)" stroke-width="1.123"/>
        <path d="M246 280l-6 16h60l-6-16h-60z" transform="matrix(.69976 0 0 .82666 -34.228 69.642)" stroke-width="1.637"/>
        <path d="M246 280l-6 16h60l-6-16h-60z" transform="matrix(.38267 0 0 .82666 24.297 69.642)" stroke-width="2.049"/>
        <path stroke-width="1.2271669" d="M96.906 248.066h63.998v62.63H96.906z"/>
        <path stroke-width=".8308406000000001" d="M109.383 272.747h6.46V300.6h-6.46zM139.066 272.748h6.46V300.6h-6.46z"/>
        <path stroke-width="1.2168469" d="M118.847 248.066h18.286v66.012h-18.286z"/>
        <path stroke-width="1.2168138" d="M121.882 248.066h12.177v66.012h-12.177z"/>
      </g>
      <path stroke-width="1.3200668999999998" d="M87.77 236.68h336.446v12.383H87.77z"/>
      <g>
        <path stroke-width="1pt" d="M187.6 328.66h406.26v17.6H187.6z" transform="matrix(1.0802 0 0 .9098 -166.977 60.86)"/>
        <path stroke-width="1.197" d="M226.26 284.81h327.6v17.6h-327.6z" transform="matrix(1.0802 0 0 .9098 -166.977 60.86)"/>
        <path stroke-width="1.216" d="M221.26 288.66h337.6v17.6h-337.6z" transform="matrix(1.0802 0 0 .9098 -166.977 60.86)"/>
        <path stroke-width="1pt" d="M187.6 328.66h406.26v17.6H187.6z" transform="matrix(1.0802 0 0 .9098 -166.977 60.86)"/>
        <path stroke-width="1.249" d="M212.6 298.66h366.26v17.6H212.6z" transform="matrix(1.0802 0 0 .9098 -166.977 60.86)"/>
        <path stroke-width="1.292" d="M200 311.06h381.26v17.6H200z" transform="matrix(1.0802 0 0 .9098 -166.977 60.86)"/>
        <g>
          <path stroke-width="1.373" d="M287.6 283.66h18.76v62.6H287.6z" transform="matrix(.97621 0 0 .89163 -161.623 67.166)"/>
          <path stroke-width="1.121" d="M290.62 283.66h12.6v62.6h-12.6z" transform="matrix(.97621 0 0 .89163 -161.623 67.166)"/>
        </g>
        <g>
          <path stroke-width="1.373" d="M287.6 283.66h18.76v62.6H287.6z" transform="matrix(.97621 0 0 .89163 94.47 67.166)"/>
          <path stroke-width="1.121" d="M290.62 283.66h12.6v62.6h-12.6z" transform="matrix(.97621 0 0 .89163 94.47 67.166)"/>
        </g>
      </g>
      <path stroke-width="1.2396621" d="M249.233 248.066h14.696v117.64h-14.696z"/>
      <g>
        <path d="M217.92 220.3l.184-36.916s3.362 7.236 29.612 8.821c24.749-.937 28.848-6.362 29.969-9.284l-1.026 37.616-68.64-.137z" transform="matrix(.97394 0 0 .87371 141.674 66.123)" stroke-width="1pt"/>
        <path d="M330.92 208.66l-18.42-20.46c6.141-6.303 17.643 3.789 17.643 3.789s6.14-23.486 32.467-33.334c26.316 9.849 32.466 33.334 32.466 33.334s11.403-9.092 17.644-3.789l-18.422 20.466h-63.167z" transform="matrix(.428 0 0 .30969 228.667 146.27)" stroke-width="3.628"/>
        <path d="M330.92 208.66l-18.42-20.46c6.141-6.303 17.643 3.789 17.643 3.789s6.14-23.486 32.467-33.334c26.316 9.849 32.466 33.334 32.466 33.334s11.403-9.092 17.644-3.789l-18.422 20.466h-63.167z" transform="matrix(.66638 0 0 .43342 182.114 136.848)" stroke-width="2.616"/>
        <g>
          <path d="M0 280.62c.792 0 30.112 62.301 0 63.093-30.112.793 0-61.608 0-63.093z" transform="matrix(.40719 0 0 .40808 383.966 46.902)" stroke-width="3.383"/>
          <path d="M330.92 208.66l-18.42-20.46c6.141-6.303 17.643 3.789 17.643 3.789s6.14-23.486 32.467-33.334c26.316 9.849 32.466 33.334 32.466 33.334s11.403-9.092 17.644-3.789l-18.422 20.466h-63.167z" transform="matrix(.32914 0 0 .16262 264.684 164.67)" stroke-width="6.963"/>
          <path d="M330.92 208.66l-.878-16.666s6.14-23.486 32.467-33.334c26.316 9.849 32.466 33.334 32.466 33.334l-.878 16.666H330.92z" transform="matrix(.16902 0 0 .16262 322.73 167.278)" stroke-width="8.321"/>
          <path d="M330.92 208.66l-.878-16.666s6.14-23.486 32.467-33.334c26.316 9.849 32.466 33.334 32.466 33.334l-.878 16.666H330.92z" transform="matrix(.33803 0 0 .2167 261.461 164.106)" stroke-width="6.096"/>
          <path d="M330.92 208.66l-.878-16.666s6.14-23.486 32.467-33.334c26.316 9.849 32.466 33.334 32.466 33.334l-.878 16.666H330.92z" transform="matrix(.33803 0 0 .2167 261.461 169.623)" stroke-width="6.096"/>
          <path d="M330.92 208.66l-18.42-20.46c6.141-6.303 17.643 3.789 17.643 3.789s6.14-23.486 32.467-33.334c26.316 9.849 32.466 33.334 32.466 33.334s11.403-9.092 17.644-3.789l-18.422 20.466h-63.167z" transform="matrix(.3291 0 0 .4334 264.684 130.68)" stroke-width="3.661"/>
          <path d="M330.92 208.66l-18.42-20.46c6.141-6.303 17.643 3.789 17.643 3.789s6.14-23.486 32.467-33.334c26.316 9.849 32.466 33.334 32.466 33.334s11.403-9.092 17.644-3.789l-18.422 20.466h-63.167z" transform="matrix(.3291 0 0 .4334 264.684 141.416)" stroke-width="3.661"/>
          <path d="M330.92 208.66l-.878-16.666s6.14-23.486 32.467-33.334c26.316 9.849 32.466 33.334 32.466 33.334l-.878 16.666H330.92z" transform="matrix(.33803 0 0 .64176 261.461 136.069)" stroke-width="3.223"/>
          <path d="M330.92 208.66l-18.42-20.46c6.141-6.303 17.643 3.789 17.643 3.789s6.14-23.486 32.467-33.334c26.316 9.849 32.466 33.334 32.466 33.334s11.403-9.092 17.644-3.789l-18.422 20.466h-63.167z" transform="matrix(.32914 0 0 .32606 264.684 180.266)" stroke-width="4.216"/>
        </g>
      </g>
      <g>
        <path d="M330.92 208.66l-18.42-20.46c6.141-6.303 17.643 3.789 17.643 3.789s6.14-23.486 32.467-33.334c26.316 9.849 32.466 33.334 32.466 33.334s11.403-9.092 17.644-3.789l-18.422 20.466h-63.167z" transform="matrix(.428 0 0 .30969 -26.964 143.968)" stroke-width="3.628"/>
        <path d="M330.92 208.66l-18.42-20.46c6.141-6.303 17.643 3.789 17.643 3.789s6.14-23.486 32.467-33.334c26.316 9.849 32.466 33.334 32.466 33.334s11.403-9.092 17.644-3.789l-18.422 20.466h-63.167z" transform="matrix(.66638 0 0 .43342 -73.607 134.634)" stroke-width="2.616"/>
        <path d="M217.92 220.3l.184-36.916s3.362 7.236 29.612 8.821c24.749-.937 28.848-6.362 29.969-9.284l-1.026 37.616-68.64-.137z" transform="matrix(.97394 0 0 .87371 -111.867 66.123)" stroke-width="1pt"/>
        <g>
          <path d="M0 280.62c.792 0 30.112 62.301 0 63.093-30.112.793 0-61.608 0-63.093z" transform="matrix(.40719 0 0 .40808 127.97 46.902)" stroke-width="3.383"/>
          <path d="M330.92 208.66l-18.42-20.46c6.141-6.303 17.643 3.789 17.643 3.789s6.14-23.486 32.467-33.334c26.316 9.849 32.466 33.334 32.466 33.334s11.403-9.092 17.644-3.789l-18.422 20.466h-63.167z" transform="matrix(.32914 0 0 .16262 8.688 164.67)" stroke-width="6.963"/>
          <path d="M330.92 208.66l-.878-16.666s6.14-23.486 32.467-33.334c26.316 9.849 32.466 33.334 32.466 33.334l-.878 16.666H330.92z" transform="matrix(.16902 0 0 .16262 66.734 167.278)" stroke-width="8.321"/>
          <path d="M330.92 208.66l-.878-16.666s6.14-23.486 32.467-33.334c26.316 9.849 32.466 33.334 32.466 33.334l-.878 16.666H330.92z" transform="matrix(.33803 0 0 .2167 6.466 164.106)" stroke-width="6.096"/>
          <path d="M330.92 208.66l-.878-16.666s6.14-23.486 32.467-33.334c26.316 9.849 32.466 33.334 32.466 33.334l-.878 16.666H330.92z" transform="matrix(.33803 0 0 .2167 6.466 169.623)" stroke-width="6.096"/>
          <path d="M330.92 208.66l-18.42-20.46c6.141-6.303 17.643 3.789 17.643 3.789s6.14-23.486 32.467-33.334c26.316 9.849 32.466 33.334 32.466 33.334s11.403-9.092 17.644-3.789l-18.422 20.466h-63.167z" transform="matrix(.3291 0 0 .4334 8.688 130.68)" stroke-width="3.661"/>
          <path d="M330.92 208.66l-18.42-20.46c6.141-6.303 17.643 3.789 17.643 3.789s6.14-23.486 32.467-33.334c26.316 9.849 32.466 33.334 32.466 33.334s11.403-9.092 17.644-3.789l-18.422 20.466h-63.167z" transform="matrix(.3291 0 0 .4334 8.688 141.416)" stroke-width="3.661"/>
          <path d="M330.92 208.66l-.878-16.666s6.14-23.486 32.467-33.334c26.316 9.849 32.466 33.334 32.466 33.334l-.878 16.666H330.92z" transform="matrix(.33803 0 0 .64176 6.466 136.069)" stroke-width="3.223"/>
          <path d="M330.92 208.66l-18.42-20.46c6.141-6.303 17.643 3.789 17.643 3.789s6.14-23.486 32.467-33.334c26.316 9.849 32.466 33.334 32.466 33.334s11.403-9.092 17.644-3.789l-18.422 20.466h-63.167z" transform="matrix(.32914 0 0 .32606 8.688 180.266)" stroke-width="4.216"/>
        </g>
      </g>
      <g transform="translate(-128) scale(1.0321)">
        <rect ry="6.449" height="12.898" width="86.039" y="226.28" x="329.63" stroke-width="1.226"/>
        <path d="M363.24-212.6l1.093-66.693s-3.28 13.906-13.123 13.906H190.29c-9.843 0-13.124-13.906-13.124-13.906l1.093 66.693h174.98z" transform="matrix(.6 0 0 .76 239.17 393.31)" stroke-width="1.679"/>
        <path d="M610.49 70.219l.41-26.609s23.667-2.998 20.288-9.332c-3.27-6.333-31.604 7.986-31.604 7.986h-113.34s-28.336-14.32-31.604-7.986c-3.269 6.334 20.288 9.332 20.288 9.332l.408 26.609h136.16z" transform="matrix(.4 0 0 .67434 194.88 174.23)" stroke-width="2.4"/>
        <path d="M610.49 70.219l.41-26.609s23.667-2.998 20.288-9.332c-3.27-6.333-31.604 7.986-31.604 7.986h-113.34s-28.336-14.32-31.604-7.986c-3.269 6.334 20.288 9.332 20.288 9.332l.408 26.609h136.16z" transform="matrix(.48 0 0 .67434 169.46 186.23)" stroke-width="2.19"/>
        <path d="M610.49 70.219l.41-26.609s23.667-2.999 20.288-9.332c-3.27-6.333-27.29-18.36-61.81-31.08-24.29-6.906 31.26-26.346-21.07-27.709-48.02.767-6.42 23.318-21.07 28.618-38.84 11.81-69.33 23.838-72.6 30.171-3.27 6.334 20.29 9.332 20.29 9.332l.408 26.61h136.16z" transform="matrix(.12986 0 0 .26106 314.17 134.08)" stroke-width="6.247"/>
        <path d="M610.49 70.219l.41-26.609s23.667-2.998 20.288-9.332c-3.27-6.333-31.604 7.986-31.604 7.986h-113.34s-28.336-14.32-31.604-7.986c-3.269 6.334 20.288 9.332 20.288 9.332l.408 26.609h136.16z" transform="matrix(.28332 0 0 .46992 246.66 166.76)" stroke-width="3.162"/>
        <path d="M610.49 70.219l.41-26.609s23.667-2.998 20.288-9.332c-3.27-6.333-31.604 7.986-31.604 7.986h-113.34s-28.336-14.32-31.604-7.986c-3.269 6.334 20.288 9.332 20.288 9.332l.408 26.609h136.16z" transform="matrix(.34 0 0 .46992 221.46 166.67)" stroke-width="2.877"/>
        <path d="M610.49 70.219l.41-26.609s23.667-2.998 20.288-9.332c-3.27-6.333-31.604 7.986-31.604 7.986h-113.34s-28.336-14.32-31.604-7.986c-3.269 6.334 20.288 9.332 20.288 9.332l.408 26.609h136.16z" transform="matrix(.18333 0 0 .31908 290.86 149.49)" stroke-width="4.766"/>
        <path d="M610.49 70.219l.41-26.609s23.667-2.998 20.288-9.332c-3.27-6.333-31.604 7.986-31.604 7.986h-113.34s-28.336-14.32-31.604-7.986c-3.269 6.334 20.288 9.332 20.288 9.332l.408 26.609h136.16z" transform="matrix(.22 0 0 .31908 274.61 166.16)" stroke-width="4.341"/>
        <path d="M610.49 70.219l.41-26.609s23.667-2.998 20.288-9.332c-3.27-6.333-31.604 7.986-31.604 7.986h-113.34s-28.336-14.32-31.604-7.986c-3.269 6.334 20.288 9.332 20.288 9.332l.408 26.609h136.16z" transform="matrix(.12986 0 0 .26106 314.63 139.78)" stroke-width="6.247"/>
        <path d="M610.49 70.219l.41-26.609s23.667-2.998 20.288-9.332c-3.27-6.333-31.604 7.986-31.604 7.986h-113.34s-28.336-14.32-31.604-7.986c-3.269 6.334 20.288 9.332 20.288 9.332l.408 26.609h136.16z" transform="matrix(.16683 0 0 .26106 303.03 146.24)" stroke-width="6.702"/>
        <g>
          <path d="M330.92 208.66l-18.42-20.46c6.141-6.303 17.643 3.789 17.643 3.789s6.14-23.486 32.467-33.334c26.316 9.849 32.466 33.334 32.466 33.334s11.403-9.092 17.644-3.789l-18.422 20.466h-63.167z" transform="matrix(.17717 0 0 .17997 307.82 126.336)" stroke-width="6.444"/>
          <path d="M330.92 208.66l-18.42-20.46c6.141-6.303 17.643 3.789 17.643 3.789s6.14-23.486 32.467-33.334c26.316 9.849 32.466 33.334 32.466 33.334s11.403-9.092 17.644-3.789l-18.422 20.466h-63.167z" transform="matrix(.24803 0 0 .17997 282.14 132.336)" stroke-width="6.444"/>
          <path d="M330.92 208.66l-18.42-20.46c6.141-6.303 17.643 3.789 17.643 3.789s6.14-23.486 32.467-33.334c26.316 9.849 32.466 33.334 32.466 33.334s11.403-9.092 17.644-3.789l-18.422 20.466h-63.167z" transform="matrix(.28346 0 0 .23996 269.29 130.316)" stroke-width="4.41"/>
          <path d="M330.92 208.66l-18.42-20.46c6.141-6.303 17.643 3.789 17.643 3.789s6.14-23.486 32.467-33.334c26.316 9.849 32.466 33.334 32.466 33.334s11.403-9.092 17.644-3.789l-18.422 20.466h-63.167z" transform="matrix(.36433 0 0 .29996 243.6 130.697)" stroke-width="3.628"/>
          <path d="M368.18 217.13l13.471 22.98 14.264-22.98H368.18z" transform="matrix(.92308 0 0 .67386 28.619 67.664)" stroke-width="1.468"/>
          <path d="M330.92 208.66l-18.42-20.46c6.141-6.303 17.643 3.789 17.643 3.789s6.14-23.486 32.467-33.334c26.316 9.849 32.466 33.334 32.466 33.334s11.403-9.092 17.644-3.789l-18.422 20.466h-63.167z" transform="matrix(.4262 0 0 .33427 217.91 136.867)" stroke-width="3.061"/>
          <path d="M368.18 217.13l13.471 22.98 14.264-22.98H368.18z" transform="matrix(1 0 0 .84664 0 37.089)" stroke-width="1.26"/>
          <path d="M330.92 208.66l-18.42-20.46c6.141-6.303 17.643 3.789 17.643 3.789s6.14-23.486 32.467-33.334c26.316 9.849 32.466 33.334 32.466 33.334s11.403-9.092 17.644-3.789l-18.422 20.466h-63.167z" transform="matrix(.46063 0 0 .41993 206.07 136.488)" stroke-width="2.616"/>
          <path d="M330.92 208.66l-18.42-20.46c6.141-6.303 17.643 3.789 17.643 3.789s6.14-23.486 32.467-33.334c26.316 9.849 32.466 33.334 32.466 33.334s11.403-9.092 17.644-3.789l-18.422 20.466h-63.167z" transform="matrix(.46063 0 0 .41993 206.07 162.762)" stroke-width="2.616"/>
        </g>
      </g>
      <g stroke-width="1.04">
        <path d="M166.6 272.743h6.46v27.862h-6.46zM188.432 272.74h6.46v27.863h-6.46zM178.11 272.74h6.461v27.862h-6.46zM296.306 272.742h6.461v27.862h-6.46zM339.17 272.74h6.46v27.862h-6.46zM317.238 272.739h6.46v27.862h-6.46zM306.917 272.738h6.46v27.862h-6.46zM327.669 272.738h6.46v27.862h-6.46zM210.364 272.742h6.46v27.862h-6.46zM198.763 272.74h6.46v27.862h-6.46z" stroke-width="1.0733840000000001"/>
      </g>
    </g>
  </g>
</svg>
