<svg xmlns="http://www.w3.org/2000/svg" height="480" width="640">
  <defs>
    <clipPath id="a">
      <path fill-opacity=".67" d="M-86.326 0h682.67v612h-682.67z"/>
    </clipPath>
  </defs>
  <g clip-path="url(#a)" transform="translate(80.93) scale(.9376)">
    <path fill-rule="evenodd" fill="#e73e2d" d="M-164.28 0h836.79v306.49h-836.79z"/>
    <path d="M204.3 282.11c-19.436-16.174-66.633-10.041-61.696-61.286 27.717 21.469 22.686-1.227 64.082 19.229L204.3 282.11z" fill-rule="evenodd" stroke="#d8aa3f" stroke-width="1.666" fill="#fec74a"/>
    <path d="M209.47 263.36c-13.862-20.398-49.882-26.602-42.922-67.69 19.807 28.928 21.971 6.782 66.109 37.936L209.47 263.36z" fill-rule="evenodd" stroke="#d8aa3f" stroke-width="1.666" fill="#fec74a"/>
    <path d="M216.77 260.01c-6-24.146-36.922-43.663-13.782-78.968 7.242 34.303 18.091 13.743 36.418 66.124l-22.637 22.834z" fill-rule="evenodd" stroke="#d8aa3f" stroke-width="1.666" fill="#fec74a"/>
    <path d="M230.32 237.61c2.663-24.614-20.786-62.672 11.123-79.376-3.638 34.87 12.998 18.633 17.431 64.694l-28.663 14.782z" fill-rule="evenodd" stroke="#d8aa3f" stroke-width="1.666" fill="#fec74a"/>
    <path d="M243.26 227.67c12.467-21.279 2.66-66.474 42.646-67.864-17.696 30.324 4.23 22.321-10.643 66.068l-32.103 1.796z" fill-rule="evenodd" stroke="#d8aa3f" stroke-width="1.666" fill="#fec74a"/>
    <path d="M262.07 230.29c18.669-16.234 20.327-62.761 61.967-60.849-26.3 23.183-3.062 22.611-30.94 69.321l-31.017-8.471z" fill-rule="evenodd" stroke="#d8aa3f" stroke-width="1.666" fill="#fec74a"/>
    <path d="M278.67 239.87c22.606-10.072 34.914-44.463 74.162-30.426-31.946 14.444-9.634 20.621-46.987 47.628L278.67 239.87z" fill-rule="evenodd" stroke="#d8aa3f" stroke-width="1.666" fill="#fec74a"/>
    <path d="M292.49 264.93c24.431-3.33 46.018-32.837 79.718-8.323-34.72 4.867-14.963 17.104-68.494 32.476L292.49 264.93z" fill-rule="evenodd" stroke="#d8aa3f" stroke-width="1.666" fill="#fec74a"/>
    <path d="M379.46 269.6l-112.06 2.46 4.706 30.194 107.36-32.664z" fill-rule="evenodd" stroke="#d8aa3f" stroke-width="1.666" fill="#fec74a"/>
    <path d="M363 218.41l-103.84 39.869 17.386 33.373 86.468-73.232z" fill-rule="evenodd" stroke="#d8aa3f" stroke-width="1.666" fill="#fec74a"/>
    <path d="M280.68 280.67l63.722-97.64-82.407 76.706 28.684 20.836z" fill-rule="evenodd" stroke="#d8aa3f" stroke-width="1.666" fill="#fec74a"/>
    <path d="M279.46 272.63l17.268-109.47-63.811 97.286 36.643 12.187z" fill-rule="evenodd" stroke="#d8aa3f" stroke-width="1.666" fill="#fec74a"/>
    <path d="M273.01 263.74l-18.036-110.26-19.989 110.73 38.026-.482z" fill-rule="evenodd" stroke="#d8aa3f" stroke-width="1.666" fill="#fec74a"/>
    <path d="M263.68 264.29l-62.292-92.072 20.096 111.92 32.197-19.846z" fill-rule="evenodd" stroke="#d8aa3f" stroke-width="1.666" fill="#fec74a"/>
    <path d="M266.66 263.6l-81.101-68.479 67.667 98.003 23.436-29.624z" fill-rule="evenodd" stroke="#d8aa3f" stroke-width="1.666" fill="#fec74a"/>
    <path d="M146.96 218.89l87.069 71.891 13.387-37.606-100.46-34.286z" fill-rule="evenodd" stroke="#d8aa3f" stroke-width="1.666" fill="#fec74a"/>
    <path d="M232.1 260.86l-102.31-1.438 101.88 34.01.429-32.672z" fill-rule="evenodd" stroke="#d8aa3f" stroke-width="1.666" fill="#fec74a"/>
    <path d="M316.121 279.224c0 33.896-27.478 61.374-61.374 61.374s-61.373-27.478-61.373-61.374 27.478-61.374 61.373-61.374 61.374 27.478 61.374 61.374z" fill-rule="evenodd" stroke="#d8aa3f" stroke-width="1.6661236" fill="#fec74a"/>
    <path fill-rule="evenodd" fill="#006989" d="M-166.12 303.4h839.9V612h-839.9z"/>
    <path d="M-166.6 464c16.618 7.228 37.991 26.319 61.922 26.303 40.042-.26 41.108-27.426 81.669-26.133 40.667 1.036 33.311 29.634 88.224 29.491 46.369-.119 60.026-34.666 99.134-30.626 28.963-1.49 40.817 32.714 86.334 33.148 46.172.987 63.126-37.28 92.09-34.112 30.866 0 40.964 30.821 84.263 31.043 66.136.278 64.829-32.078 99.323-30.008 24.66-.618 43.91 23.714 79.887 24.317 28.707.489 62.74-21.214 68.976-28.974l.803-36.827c-17.016 6.327-42.386 27.073-67.766 27.301-36.61 1.336-69.094-23.946-84.464-23.718-30.397.273-42.61 31.284-94.076 31.284-47.11 0-67.918-31.284-88.316-31.284-29.712.228-38.816 34.026-90.263 33.4-41.96-.606-68.31-32.262-88.023-32.034-31.6 0-64.072 30.881-98.961 29.39-48.14-2.034-68.641-29.39-90.041-29.39-23.642 0-48.948 26.636-77.31 26.062-28.206.434-69.891-26.608-62.826-26.062l.402 38.33zM-166.6 381.07c16.618 7.228 37.991 26.319 61.922 26.303 40.042-.26 41.108-27.426 81.669-26.133 40.667 1.036 33.311 29.634 88.224 29.491 46.369-.119 60.026-34.666 99.134-30.626 28.963-1.49 40.817 32.714 86.334 33.148 46.172.987 63.126-37.28 92.09-34.112 30.866 0 40.964 30.821 84.263 31.043 66.136.278 64.829-32.078 99.323-30.008 24.66-.618 43.91 23.714 79.887 24.317 28.707.489 62.74-21.214 68.976-28.974l.803-36.827c-17.016 6.327-42.386 27.073-67.766 27.301-36.61 1.336-69.094-23.946-84.464-23.718-30.397.273-42.61 31.284-94.076 31.284-47.11 0-67.918-31.284-88.316-31.284-29.712.228-38.816 34.026-90.263 33.4-41.96-.606-68.31-32.262-88.023-32.034-31.6 0-64.072 30.881-98.961 29.39-48.14-2.034-68.641-29.39-90.041-29.39-23.642 0-48.948 26.636-77.31 26.062-28.206.434-69.891-26.608-62.826-26.062l.402 38.33z" fill-rule="evenodd" fill="#fff"/>
    <path d="M-166.6 308.92c16.603 7.228 37.966 26.319 61.866 26.303 40.004-.26 41.07-27.426 81.693-26.133 40.629 1.036 33.28 29.634 88.141 29.491 46.327-.119 69.97-34.666 99.042-30.626 28.936-1.49 40.779 32.714 86.264 33.148 46.129.987 63.067-37.28 92.004-34.112 30.827 0 40.926 30.821 84.174 31.043 66.086.278 64.769-32.078 99.23-30.008 24.628-.618 43.869 23.714 79.813 24.317 28.68.489 62.691-21.214 68.911-28.974l.802-36.827c-17 6.327-42.346 27.073-67.693 27.301-36.476 1.336-69.038-23.946-84.386-23.718-30.369.273-42.471 31.284-93.988 31.284-47.066 0-67.864-31.284-88.234-31.284-29.684.228-38.779 34.026-90.169 33.4-41.921-.606-68.266-32.262-87.941-32.034-31.47 0-64.012 30.881-98.869 29.39-48.096-2.034-68.486-29.39-89.967-29.39-23.62 0-48.903 26.636-77.237 26.062-28.16.44-69.81-26.6-62.74-26.06l.401 38.33z" fill-rule="evenodd" fill="#fff"/>
    <path d="M136.81 76.966c61.048-4.18 49.921-9.394 74.493-13.316 30.964 4.267 34.606 23.004 61.768 34.606 0 0-6.486 21.926-27.706 18.822-2.863-8.796 10.273-11.616-27.497-34.64-21.968-1.307-61.26 3.864-71.048-6.472zM326.07 109.89l-43.979 1.81v10.866c29.664.949 36.011-3.018 43.979-12.676z" fill-rule="evenodd" stroke="#d8aa3f" stroke-width="1.776" fill="#ffc84b"/>
    <path stroke-linejoin="round" d="M174.84 108.07c7.666-3.92 11.477-2.32 18.118-2.679 4.67 8.278 8.882 9.064 18.886 10.09 16.263 21.471 36.736 21.73 39.839 21.73 29.923-.778 39.409-21.73 69.601-24.06h21.214c-3.636-6.036-6.296-9.486-13.97-9.83-16.781-.863-36.217-.431-64.067 3.621l-26.094 6.21c-7.33-3.636-26.266-22.336-36.736-21.99-6.726 1.81-6.726 4.139-10.089 6.726-6.467 2.76-12.936 1.437-17.601 10.08z" fill-rule="evenodd" stroke="#d8aa3f" stroke-width="1.666" fill="#ffc84b"/>
    <path d="M206.104 98.914a3.174 3.174 0 1 1-6.348 0 3.174 3.174 0 0 1 6.348 0z" fill-rule="evenodd" stroke="#d8aa3f" stroke-width="1.664882" fill="#ffc84b"/>
    <path d="M226.66 107.82c44.927-64.164 84.163-47.614 136.3-61.222 1.726 6.296 1.122 16.696-23.282 24.069-33.372 4.916-93.132 40.097-93.39 40.097-11.126-.617-18.886-12.168-18.627-12.936z" fill-rule="evenodd" stroke="#d8aa3f" stroke-width="1.776" fill="#ffc84b"/>
    <path d="M317.87 72.636l33.134 1.436M314.26 77.942l24.162 1.97" stroke="#d9a43e" stroke-linecap="round" stroke-width="1.776" fill="none"/>
  </g>
</svg>
