<svg xmlns="http://www.w3.org/2000/svg" height="480" width="640">
  <defs>
    <clipPath id="a">
      <path fill-opacity=".67" d="M0 0h682.67v612H0z"/>
    </clipPath>
  </defs>
  <g clip-path="url(#a)" fill-rule="evenodd" transform="scale(.9376)">
    <path fill="#ff0" d="M0 0h768.77v128H0z"/>
    <path fill="#fff" d="M0 128h768.77v128H0z"/>
    <path fill="#be0027" d="M0 266h768.77v128H0z"/>
    <path fill="#3b6aa3" d="M0 384h768.77v128H0z"/>
    <path d="M0 0v612l381.86-266.28L0 0z" fill="#239e46"/>
    <path d="M167.21 141.43C72.113 137.12 33.34 204.9 33.43 267.3c-.194 61.97 68.629 113.08 112.81 109.99-29.27-13.84-66.008-62.66-66.337-110.26-.3-62.18 29.497-97.66 76.307-116.61z" fill="#fff"/>
    <path fill="#fff" d="M166.927 197.068l-11.992-9.386-14.639 4.676 6.216-14.317-8.831-12.41 16.227.628 9.066-12.238 4.196 14.649 14.462 4.846-12.644 8.624zM166.672 249.121l-11.993-9.386-14.638 4.676 6.216-14.317-8.831-12.41 16.227.628 9.066-12.238 4.194 14.649 14.463 4.846-12.646 8.624zM166.927 301.698l-11.992-9.386-14.639 4.676 6.216-14.317-8.831-12.41 16.227.628 9.066-12.239 4.196 14.66 14.462 4.846-12.644 8.624zM166.672 364.778l-11.993-9.386-14.638 4.676 6.216-14.317-8.831-12.41 16.227.628 9.066-12.239 4.194 14.66 14.463 4.846-12.646 8.624z"/>
  </g>
</svg>
