<svg xmlns="http://www.w3.org/2000/svg" height="480" width="640" version="1">
  <defs>
    <clipPath id="a">
      <path fill-opacity=".67" d="M-80.109 0h682.67v612h-682.67z"/>
    </clipPath>
  </defs>
  <g fill-rule="evenodd" clip-path="url(#a)" transform="translate(76.102) scale(.9376)">
    <path fill="#ffe900" d="M-107.86.239H629.8v611.29h-737.66z"/>
    <path d="M-108.24.239l.86 368.68L466.6-.001l-674.84.238z" fill="#36a100"/>
    <path d="M630.69 611.63l-1.347-383.26-678.98 383.64 680.33-.283z" fill="#c70000"/>
    <path d="M-107.87 396.61l.49 116.39 126.26-.16L629.63 101.7l-.69-100.32L606.18.239l-613.06 396.37z"/>
    <path fill="#fff" d="M380.466 166.62l-9.913-42.246 33.364 27.076 38.014-24.636-17.437 41.311 33.404 27.021-44.132-1.641-17.37 41.333-9.836-42.266-44.138-1.48zM106.21 336.63l-9.913-42.246 33.364 27.076 38.014-24.636-17.437 41.311 33.404 27.021-44.132-1.641-17.37 41.333-9.836-42.266-44.138-1.48z"/>
  </g>
</svg>
