<svg xmlns="http://www.w3.org/2000/svg" height="480" width="640" version="1">
  <defs>
    <clipPath id="a">
      <path fill-opacity=".67" d="M6.077.1h682.63V612H6.077z"/>
    </clipPath>
  </defs>
  <g fill-rule="evenodd" clip-path="url(#a)" transform="translate(-4.761 -.094) scale(.93768)">
    <path stroke="#000" stroke-width="1.014" fill="#fff" d="M776.94 611.62H-76.92V.67h861.86z"/>
    <path fill="#3e6698" d="M776.94 419.07H-76.92v92.467h861.86z"/>
    <path fill="#c60000" d="M776.94 397.66H-76.92V114.44h861.86z"/>
    <path fill="#3e6698" d="M776.94.676H-76.92v92.467h861.86z"/>
    <path d="M328.618 266.07c0 63.46-63.108 114.886-118.619 114.886-66.612 0-118.618-61.437-118.618-114.886 0-63.46 63.108-114.886 118.618-114.886 66.612 0 118.619 61.436 118.619 114.886z" fill="#fff"/>
    <path fill="#c40000" d="M176.83 270.667l-67.06-40.618 71.066-.289 22.636-66.367 21.164 66.147 71.067-.407-67.978 41.177 21.276 66.117-66.998-40.696-67.908 41.264z"/>
  </g>
</svg>
