<svg xmlns="http://www.w3.org/2000/svg" height="480" width="640" version="1">
  <defs>
    <clipPath id="a">
      <path fill-opacity=".67" d="M-96.808-.44h682.67v612h-682.67z"/>
    </clipPath>
  </defs>
  <g fill-rule="evenodd" clip-path="url(#a)" transform="translate(89.82 .412) scale(.9376)">
    <path fill="#fff" d="M610.61 611.66h-730.17v-612h730.17z"/>
    <path d="M261.871 266.021c0 62.137-60.372 112.608-112.607 112.608-62.137 0-112.607-60.372-112.607-112.608 0-62.137 60.371-112.607 112.607-112.607 62.137 0 112.607 60.372 112.607 112.607z" fill="#fff"/>
    <path d="M393.011 262.66c0 81.079-66.034 146.803-146.261 146.803S102.488 343.63 102.488 262.66s66.034-146.804 146.262-146.804S393.01 181.471 393.01 262.66z" fill="#c70000"/>
    <path d="M-49.417 126.44l83.66-96.77 19.821 17.136-83.66 96.771zM-22.018 160.127l83.66-96.77 19.82 17.136-83.66 96.77z"/>
    <path d="M-49.417 126.44l83.66-96.77 19.821 17.136-83.66 96.771z"/>
    <path d="M-49.417 126.44l83.66-96.77 19.821 17.136-83.66 96.771zM6.967 174.32l83.66-96.77 19.82 17.136-83.66 96.77z"/>
    <path d="M-49.417 126.44l83.66-96.77 19.821 17.136-83.66 96.771z"/>
    <path d="M-49.417 126.44l83.66-96.77 19.821 17.136-83.66 96.771zM469.413 29.638l83.002 97.336-19.937 17-83.002-97.334zM403.707 77.141l83.002 97.336-19.936 17-83.002-97.334z"/>
    <path d="M417.66 133.19l78.602-67.814 14.641 16.963-83.996 76.619-9.247-24.669z" fill="#fff"/>
    <path d="M614.228 372.013l-80.416 96.829-19.716-16.4 80.417-96.828zM431.863 63.14l83.002 97.334-19.936 17.001-83.002-97.334zM641.476 394.676l-80.417 96.829-19.716-16.399 80.417-96.829zM486.39 348.867l-80.417 96.83-19.716-16.4 80.416-96.829z"/>
    <path d="M104.6 236.68c4.692 36.974 11.297 78.176 68.199 82.466 21.328 1.278 62.817-6.074 77.061-63.19 18.688-66.829 74.976-71.88 113.28-41.613 21.718 14.166 27.727 36.666 29.283 63.667-1.739 64.243-32.874 101.2-72.823 122.14-46.93 27.3-109.66 27.87-166.3-13.49-26.12-23.67-60.219-67.02-49.7-139.86z" fill="#3d6897"/>
    <path d="M436.91 370.69l78.734 67.661-14.691 16.997-87.166-71.861 23.013-12.807z" fill="#fff"/>
    <path d="M-1.887 367.197l83.002 97.336-19.937 17-83.002-97.334z"/>
    <path d="M-16.188 437.26l78.602-67.814 14.641 16.963-83.996 76.619-9.247-24.669z" fill="#fff"/>
    <path d="M26.672 333.696l83.003 97.334-19.937 17-83.002-97.334zM-30.033 381.199l83.002 97.334-19.936 17L-49.97 398.2z"/>
  </g>
</svg>
