<svg xmlns="http://www.w3.org/2000/svg" height="480" width="640" version="1">
  <path fill="#006" d="M0 0h640v480H0z"/>
  <path fill-rule="evenodd" fill="#006" d="M0 0h400v200H0z"/>
  <g stroke-width="1pt">
    <path fill="#fff" d="M0 0v27.09l334.411 216.208h42.094v-27.09L42.093.002H0zm376.606 0v27.089L42.093 242.297H0v-27.089L334.411 0h42.094z"/>
    <path fill="#fff" d="M166.877 0v242.297h62.76V0h-62.76zM0 80.766v80.766h376.606V80.766H0z"/>
    <path fill="#c00" d="M0 96.919v48.46h376.606v-48.46H0zM169.427 0v242.297h37.66V0h-37.66zM0 242.297l126.602-80.766h28.062L28.062 242.297H0zM0 0l126.602 80.766H97.439L0 18.06V0zm222.941 80.766L348.443 0h28.062L261.003 80.766h-28.062zm163.664 161.63l-126.602-80.766h28.062l97.44 62.707v18.069z"/>
  </g>
  <g>
    <path d="M448.33 179.141c-1.009.61-3.028 2.44-6.048 1.83-2.019-.61-6.662-8.642-11.61-7.322-6.06 1.22-8.078 3.061-10.097 3.061-2.02 0-7.673 1.831-7.673 6.712 0 4.882.606 8.643 1.616 8.643 1.01 0 2.624-3.06 2.624-3.06s.606 6.1 4.039 6.1 11.106.611 11.61 2.442c.606 1.83-3.633 6.102-2.623 9.763 1.01 3.661 6.663 9.763 6.663 9.763s-6.663 4.881-6.663 7.933 1.01 6.102 1.01 6.102l-29.28 1.22s-2.02 86.647-1.01 93.36c1.01 6.71 3.633 23.186 3.633 23.186s-6.662-2.134-12.116 3.368c-6.663 6.493-24.988 14.948-26.493 19.219-.606 4.271-2.272 7.934-.262 10.984 2.019 3.06 9.124 11.34 7.067 10.986-6.777-1.17-9.3-10.798-13.882-14.34-4.604-3.476-13.378-2.746-14.387.914-1.01 3.662-.606 9.763 0 10.984.604 1.22 6.067 20.747 7.672 26.018s17.416 10.677 24.484 10.068c13.377.304 19.436-6.796 19.94-6.184.606.608 28.78 29.768 86.83 29.898 46.188.1 79.268-29.29 79.268-28.678 0 .609 18.679 6.101 26.241 4.272 6.663-1.834 16.166-6.106 18.174-10.376 2.02-4.27 7.673-26.239 8.078-29.897.606-3.663 0-7.934-4.644-9.166s-7.067-.916-9.691.304-3.282 4.68-7.068 10.68c-2.019 1.833-7.32 6.713-6.806 6.492s4.796-10.372 6.3-13.426c.606-3.06 2.02-8.642-1.614-11.693-3.634-3.06-8.947-4.297-16.146-8.846-6.886-4.034-10.6-10.68-14.136-10.68-3.634 0-7.673-1.829-7.068-1.829.606 0 4.662-8.866 3.642-18.016-1.01-9.166.496-96.7-.008-96.7-.606 0-26.242 1.83-26.242.61s2.02-9.763 0-16.266c-2.019-6.491-10.601-9.163-8.077-10.373 2.624-1.22 13.63-4.271 13.126-9.163-.606-4.882-7.672-4.271-10.601-6.102-3.029-1.83-12.116-10.373-13.126-10.373-1.01 0 26.26-16.476 24.232-16.476-2.019 0-12.62-3.06-16.164-1.22 0-3.061 14.64-12.204 12.116-13.426-2.624-1.22-14.136-2.44-11.107-3.06 3.03-.61 4.039-7.933 3.634-7.933-.606 0-13.126 1.83-13.126 1.83s-3.03-4.27-4.039-4.27c-1.01 0-6.663 2.44-6.663 2.44l-2.624-6.712-6.663 3.661-2.624-3.061s-4.644 1.22-4.644 0c.191-.044-.623-3.064-1.236-3.064-.716 0-6.712 3.883-6.89 3.667-.179-.216-6.712-7.982-6.712-7.766 0 .216-3.927 14.67-4.106 14.67-.178 0-3.927.431-4.106.647-.179.216-19.99-11.434-19.811-11.218.178.216 6.176 11.218 6.176 11.218s-4.283 2.373-4.283 2.69c0 .216.714 4.96.714 4.96l-13.21-4.63s4.998 10.139 4.64 10.139c-.366 0-9.816.432-9.637.432.178 0 4.462 8.413 4.462 8.413l-1.606 4.962s14.217 10.033 13.207 10.644zm84.307 212.347c1.262 1.83 8.077 10.372 7.067 10.372-1.01 0-17.92 11.289-24.737 13.426-6.816 2.134-29.027 6.1-27.766 6.796 1.262-.304 19.946-10.636 27.619-16.414 7.672-4.88 17.916-13.67 17.916-14.18zm-106.613-.308c-1.01 1.22-6.806 10.68-6.806 10.68s13.883 9.763 24.232 13.426c10.349 3.669 28.018 4.88 27.008 4.676-1.01-.304-22.212-9.763-28.27-14.643-6.068-4.883-16.912-14.038-17.166-14.038z" fill-rule="evenodd" fill="#fff"/>
    <g fill-rule="evenodd" stroke="#6d6666" fill="#fec600">
      <path d="M394.66-212.97s28.777 17.266 36.364 21.376 27.964 22.199 29.698 21.377c1.646-.822 13.166-9.866 13.166-9.866s-23.843-18.91-38.642-23.021-39.466-8.222-39.466-9.866z" stroke-width="1.403" transform="matrix(.307 0 0 .37108 317.064 244.267)"/>
      <path d="M390.64-231.88c2.467 0 47.687 23.022 61.664 34.632s19.732 26.31 21.377 26.31c1.644 0 23.021-3.289 22.198-3.289-.822 0-9.866-29.698-30.42-38.642-20.666-9.044-73.996-18.911-74.819-18.911z" stroke-width="1.403" transform="matrix(.307 0 0 .37108 317.064 244.267)"/>
      <path d="M603.48-296.01c-.822 0-9.044 24.666-11.611 32.066-2.466 7.4-6.677 23.021-6.677 23.021s-36.176 3.289-34.632-.822c1.646-4.111 66.086-64.264 62.62-64.264z" transform="matrix(.307 0 0 .37108 317.064 246.983)" stroke-width="1.403"/>
      <path d="M398.76-261.48s42.764 28.776 67.663 46.22c14.799 16.443 29.698 46.22 30.42 46.22.823 0 40.287-8.222 40.287-7.4s-46.042-46.042-68.241-60.019-69.197-21.377-60.019-23.021z" stroke-width="1.403" transform="matrix(.307 0 0 .37108 317.064 244.267)"/>
      <path d="M443.16-273.81s21.377 32.887 26.487 44.398c4.111 11.61 16.444 41.109 16.444 41.109H618.8s-16.443-36.998-34.631-66.086-40.287-28.776-41.109-30.421z" transform="matrix(.307 0 0 .37108 317.064 246.983)" stroke-width="1.403"/>
      <path d="M464.66-291.9c.823 2.467 31.243 31.243 38.643 60.163 7.399 18.91 13.166 42.764 13.166 42.764l29.698-7.4s-26.31-48.609-42.763-61.664c-16.444-13.164-36.998-22.198-38.643-23.843z" transform="matrix(.307 0 0 .37108 317.064 246.983)" stroke-width="1.403"/>
      <path d="M700.6-209.68s-61.663 6.678-83.862 12.333-34.632 27.132-34.632 27.132 28.777 10.688 30.421 9.044 18.91-18.91 37.82-26.488c18.91-6.677 61.797-22.199 60.163-23.021z" stroke-width="1.403" transform="matrix(.307 0 0 .37108 317.064 244.267)"/>
      <path d="M698.03-249.97c-1.646.823-60.976 41.11-66.697 64.264-16.621 13.166-30.421 27.132-32.066 27.964-1.644.823-32.066-4.11-30.421-6.766 1.646-1.644 46.22-36.998 73.997-62.619 28.776-16.622 62.619-22.199 66.086-23.844z" stroke-width="1.403" transform="matrix(.307 0 0 .37108 317.064 244.267)"/>
      <path d="M686.7-278.76c-4.933 6.766-63.442 46.22-66.697 69.197s-34.631 38.643-34.631 38.643-26.488-11.611-23.843-16.444c1.644-4.933 36.176-33.709 60.841-60.163 24.666-16.444 66.696-29.699 64.13-31.243z" stroke-width="1.403" transform="matrix(.307 0 0 .37108 317.064 244.267)"/>
      <path d="M636.37-282.04c-.822.823-29.698 31.243-36.364 39.466-6.766 8.222-23.021 44.398-23.021 44.398s-26.487-22.199-26.487-23.021 32.066-34.632 60.976-47.687 33.709-10.688 32.887-13.166z" stroke-width="1.403" transform="matrix(.307 0 0 .37108 317.064 244.267)"/>
      <path d="M666.09-241.77c0 6.78-4.686 10.466-10.466 10.466s-10.466-4.686-10.466-10.466 4.686-10.466 10.466-10.466 10.466 4.686 10.466 10.466zM686.02-227.81c0 6.137-4.686 9.302-10.466 9.302s-10.466-4.166-10.466-9.302 4.686-9.302 10.466-9.302 10.466 4.166 10.466 9.302zM639.61-238.28c0 6.137-6.726 9.302-12.79 9.302-7.064 0-12.79-4.166-12.79-9.302s6.726-9.302 12.79-9.302c7.064 0 12.79 4.166 12.79 9.302z" transform="matrix(.307 0 0 .37108 317.064 246.983)" stroke-width="1.497"/>
      <path d="M673.23-219.09c0 9.964-6.607 18.022-14.634 18.022-8.027 0-14.634-8.069-14.634-18.022 0-9.964 6.607-18.022 14.634-18.022 8.027 0 14.634 8.069 14.634 18.022zM633.7-218.61c0 7.706-6.607 13.963-14.634 13.963-8.027 0-14.634-6.247-14.634-13.963 0-7.706 6.607-13.963 14.634-13.963 8.027 0 14.634 6.247 14.634 13.963z" transform="matrix(.307 0 0 .37108 317.064 246.983)" stroke-width="1.497"/>
      <path d="M613.93-207.46c0 6.743-4.946 12.209-11.046 12.209s-11.046-6.466-11.046-12.209c0-6.743 4.946-12.209 11.046-12.209 6.1 0 11.046 6.466 11.046 12.209zM696.32-208.63c0 8.027-7.648 14.634-16.86 14.634-9.311 0-16.86-6.607-16.86-14.634 0-8.027 7.648-14.634 16.86-14.634 9.311 0 16.86 6.607 16.86 14.634zM664.63-229.66c0 4.816-6.987 8.72-13.372 8.72s-13.372-3.904-13.372-8.72 6.987-8.72 13.372-8.72 13.372 3.904 13.372 8.72z" transform="matrix(.307 0 0 .37108 317.064 246.983)" stroke-width="1.497"/>
      <path d="M666.96-210.37c0 7.064-8.33 12.79-18.604 12.79s-18.604-6.726-18.604-12.79c0-7.064 8.33-12.79 18.604-12.79s18.604 6.726 18.604 12.79zM604.62-187.7c0 8.67-7.809 16.697-17.441 16.697s-17.441-7.028-17.441-16.697 7.809-16.697 17.441-16.697c9.633 0 17.441 7.028 17.441 16.697zM609.28-191.77c0 6.78-4.426 10.466-9.883 10.466s-9.884-4.686-9.884-10.466 4.426-10.466 9.884-10.466 9.883 4.686 9.883 10.466z" transform="matrix(.307 0 0 .37108 317.064 246.983)" stroke-width="1.497"/>
      <path d="M679.04-193.61c0 7.386-6.768 13.372-16.116 13.372-8.348 0-16.116-6.987-16.116-13.372s6.768-13.372 16.116-13.372c8.348 0 16.116 6.987 16.116 13.372zM631.37-194.09c0 6.422-6.987 11.627-13.371 11.627-7.386 0-13.371-6.206-13.371-11.627 0-6.422 6.987-11.627 13.371-11.627 7.386 0 13.371 6.206 13.371 11.627z" transform="matrix(.307 0 0 .37108 317.064 246.983)" stroke-width="1.497"/>
      <path d="M664.63-190.61c0 7.064-6.247 12.79-13.963 12.79-7.706 0-13.963-6.726-13.963-12.79 0-7.064 6.247-12.79 13.963-12.79 7.706 0 13.963 6.726 13.963 12.79zM494.16-267.36c3.488 0 27.906 8.139 27.906 8.139s-30.232 11.628-26.681 10.466 33.72-4.661 31.394-4.661c-2.326 0-26.68 22.092-18.604 20.929 6.977-1.162 20.93-16.116 22.092-16.116 1.163 0 16.116 22.092 16.279 20.929 1.162-1.163 0-22.092 1.162-22.092 1.163 0 29.069 13.963 26.743 12.79-2.326-1.163-18.603-17.441-17.441-17.441 1.163 0 38.371 3.488 36.046 2.326-2.326-1.162-24.417-11.627-24.417-11.627s16.278-16.116 12.79-16.116-30.231 16.116-27.906 13.962c2.326-1.162 29.069-31.393 29.069-31.393l-26.743 12.79s4.661-18.604 2.326-17.442c-2.326 1.163-20.929 24.418-22.092 24.418s-6.814-23.266-6.814-23.266 1.163 26.68-6.813 26.743c-6.977 1.163-31.394 6.814-31.394 4.661z" transform="matrix(.307 0 0 .37108 317.064 246.983)" stroke-width="1.497"/>
    </g>
    <g fill-rule="evenodd">
      <path d="M446.609 216.636c.178.863 6.89 16.396 14.636 16.964s12.316-3.02 11.968-3.236c-.367-.216-4.106-2.804-6.247-8.414-2.142-6.609-2.499-7.982-2.499-7.982l-17.848 3.668zM476.744 210.496s6.426 16.317 9.28 17.474c2.867 2.168 9.46 3.884 12.316 3.668 2.866-.216 6.247 0 6.247 0s-2.866-1.61-6.176-9.924-3.034-11.218-3.034-11.218h-19.633zM616.01 216.104s-1.26 11.218 0 14.023c1.26 2.806 7.496 7.982 7.496 7.982s7.496-1.079 7.676-7.982c.178-6.904-2.499-13.376-2.499-13.376l-12.672-.647z" fill="#00389b"/>
      <path d="M288.94 21.016s1.163 4.66 0 8.14-11.046 12.79-11.046 20.347c0 7.668 11.627 30.812 47.091 31.394 36.463.681 80.229-19.186 79.647-19.767-.68-.68-84.88-66.974-86.04-66.393-1.16.682-29.66 17.441-29.66 16.28zM623.23 61.129s7.667 20.348 10.464 22.674c2.907 2.326 4.07 6.976 4.661 6.976s48.836 10.464 48.836 10.464 4.661-13.37-2.326-23.836c-6.977-10.466-33.138-37.789-33.138-37.789l-28.49 21.611zM666.37 36.13c1.162 0 12.79 9.883 22.092 4.66 9.301-6.231 24.417-19.184 24.417-19.184s-12.79 4.07-22.092 3.488c-9.302-.681-23.836 11.627-24.417 11.046z" stroke="#000" stroke-width="1.497" fill="#006120" transform="matrix(.307 0 0 .37108 360.733 188.676)"/>
      <path d="M287.2 23.34s-3.488-9.883-12.79-10.466c-9.302-.681-26.162 1.163-31.976-3.488-6.814-4.661-7.668-16.697-10.466-16.116-2.907.681-10.466 0-11.046 0s-3.488-9.302 4.661-13.963 16.116-.682 19.766-4.07c4.661-3.488 11.628-6.814 20.93-6.396 9.302-.681 24.417 11.628 31.394 14.634 6.976 2.907 22.092 6.396 27.906 3.488 6.814-2.907 38.371-16.697 49.998-16.278 11.627-.681 36.046-1.162 46.347-.681s46.928 6.232 66.974 10.466c11.046 6.232 69.764 26.68 77.903 30.23 8.139 4.662 26.162 11.628 26.162 11.628s-31.976 31.394-47.672 36.626c-16.697 6.232-66.696 13.372-96.346 11.627-29.66-1.744-62.904-4.661-76.678-16.278-22.68-11.626-47.1-22.672-48.26-28.486-1.16-6.813-.68-13.371-.68-13.371l-27.324 9.883z" stroke="#000" stroke-width="1.497" fill="#006120" transform="matrix(.307 0 0 .37108 360.733 188.676)"/>
      <path d="M261.16-14.449c-1.163.681-6.976 2.907-6.814 4.07 1.163 1.162 3.489 4.66 10.466 4.07 6.977-.682 14.634-4.662 14.634-4.662s-8.72-4.07-19.186-3.488z" stroke="#000" stroke-width="1.497" fill="#006120" transform="matrix(.307 0 0 .37108 360.733 188.676)"/>
      <path d="M260.67-13.286v6.396s8.139 2.326 8.139.681c0-1.744.681-6.813-1.163-6.813s-6.396-.682-6.976-1.163z" stroke="#000" stroke-width="1.497" transform="matrix(.307 0 0 .37108 360.733 188.676)"/>
      <path d="M331.96-8.463c2.066-3.7 0-8.632 11.922-14.388 11.921-6.766 32.681-4.11 32.681-4.11s-6.96 4.621-6.166 9.249c-.206 4.727.411 6.783.411 6.783s-11.306-3.7-19.938-1.439-18.704 4.622-18.91 3.906zM386.4-28.696c-1.233.617-10.277 10.688-9.26 13.772 1.028 3.083 13.166 10.483 17.061 9.866 3.906-.616 21.787-9.26 22.816-13.666 1.028-4.316 1.86-10.072.411-11.306-1.439-1.233-30.832 1.646-31.037 1.233zM424.66-30.24c-2.261 2.261-1.439 13.166-.617 14.388.822 1.233 16.006 16.416 18.088 16.238 3.083.822 26.899-1.439 27.749-3.906s7.399-12.96 6.766-16.416c-1.646-2.467-6.678-6.766-21.788-9.044s-24.264-2.878-29.187-2.261zM482.82-16.469c3.7 1.86 26.282 12.333 38.026 20.76 12.743 8.427 17.882 18.088 21.682 18.91 3.7.822 18.704-8.222 19.321-10.688.617-2.467-18.293-16.621-31.037-21.682-12.744-6.96-47.892-6.783-47.892-7.4zM478.3-7.63c-1.86 1.644 23.021 46.014 27.748 46.463 4.728 1.438 33.093-8.428 32.682-11.716-.41-3.288-7.81-9.866-26.28-19.626C496.98-2.08 481.8-8.462 478.3-7.63zM447.47 8.196c-3.906 2.261-10.071 41.11-6.166 42.96 3.906 1.86 62.003-4.728 63.863-9.044 1.849-4.317-19.733-38.643-26.106-38.643-6.371 0-17.882 1.646-21.682 4.728zM397.73-.026c-6.14 4.727-4.11 40.903-1.86 43.164 2.261 2.26 30.831 9.66 33.914 6.988 3.084-2.672 7.196-43.37 4.317-46.463-2.878-3.083-10.894-10.483-17.06-11.099-6.167-.616-16.444 6.96-19.321 7.4zM333.19-.642c-4.728 3.7-4.933 13.36.206 16.006 6.139 1.644 17.882 7.194 29.804 12.333 11.922 6.139 18.706 11.306 22.199 11.099 3.494-.206 6.783-36.381 3.083-38.437-3.7-2.066-14.694-3.7-24.871-3.289-10.277.411-26.282 1.44-30.42 3.289z" stroke="#000007" stroke-width="1.497" fill="#001707" transform="matrix(.307 0 0 .37108 360.733 188.676)"/>
    </g>
    <path d="M387.976 369.201c2.69-2.62 6.616-8.682 12.081-8.962 6.466-.28 11.22 4.761 11.22 4.761s6.762 23.628 6.466 23.628c-.288 0-9.493 6.722-9.78 6.722-.288 0-4.028-9.243-7.48-8.404-3.461.841-3.164 13.446-3.739 12.606-.676-.84-16.246-18.206-14.67-18.766.676-.66 7.192-10.642 6.904-11.483zM639.866 366.12c1.726-.28 9.493-6.163 14.968-6.882 6.466.28 8.63 2.8 11.606 6.321 2.876 2.621 6.329 8.962 6.329 8.962s-6.904 19.046-7.479 19.046-3.462 1.681-4.028.28-2.3-6.882-6.763-6.442c-3.461-.66-4.316 6.161-4.316 6.161l-11.217-27.447z" fill-rule="evenodd" fill-opacity=".996" fill="#d40f0f"/>
    <path d="M643.604 362.007c0 1.682 10.643 28.01 27.903 33.06 17.268 6.041 22.724-4.761 24.737-8.122 2.013-3.361 9.206-3.08 9.206-3.08s-1.726 24.647-4.603 27.727c-2.876 3.081-6.178 9.803-21.286 10.082-16.107.281-30.778-16.123-36.667-19.606-4.892-4.482-11.22-16.244-13.81-21.667-2.687-6.32 13.809-17.924 13.62-18.486zM366.048 414.374c.288 0 7.767 8.123 18.697 7.282 10.931-.839 29.629-7.282 38.268-18.486 8.63-11.202 12.944-23.247 12.944-23.247s-12.666-22.406-12.944-22.406c-.288 0-1.438 7.282-3.74 12.043-2.301 4.762-8.63 18.206-19.272 22.408-10.644 4.2-10.644 6.88-14.968 6.32-4.316-.66-16.633-7.281-16.633-7.662 0-.28-6.466 13.166-6.466 13.166s-1.161 8.682 2.013 11.483z" fill-rule="evenodd" fill-opacity=".996" fill="#fddc69"/>
    <path d="M387.782 368.423c-.814 0-21.164 11.091-20.34 16.844.813 4.763 34.986 72.089 108.206 72.88 73.223.794 117.976-60.998 114.719-71.296-3.264-10.298-26.034-22.181-26.034-22.181s6.694 4.763 4.881 11.09c-.814 6.338-26.036 61-89.497 69.416-63.461-1.686-93.666-49.908-93.666-66.463 0-6.646 3.266-8.716 1.628-10.299z" fill-rule="evenodd" fill-opacity=".996" fill="#fddc69"/>
    <path d="M686.171 407.38c1.727-1.4 12.37-30.629 18.41-29.688 6.042.84 4.029 9.622 3.463 11.763-.676 2.24-6.616 22.407-6.616 22.407s.288-4.762-3.74-6.882c-4.026-1.12-10.643 1.961-11.606 1.401zM366.048 414.671c0-1.683-4.882-7.129.813-8.714 6.696-1.683 13.019 1.686 13.019 1.686s-4.069-11.883-8.96-21.39c-4.882-9.606-6.61-7.92-10.677-6.337-4.068 1.686-3.97 6.778-1.628 12.116 2.44 6.338 7.223 24.326 7.223 22.741z" fill-rule="evenodd" fill-opacity=".996" fill="#d40f0f"/>
    <path fill="#fdc400" fill-rule="evenodd" d="M423.176 360.347l7.063-23.923-19.616-16.038 24.668-.667 8.012-23.608 8.123 23.668 24.667.466-19.649 16.13 7.17 23.887-20.201-14.216z"/>
    <path d="M666.637 236.833v92.04c.18 44.983-46.689 84.374-76.147 92.04-30.461-7.666-76.328-47.067-76.147-92.036v-92.04h162.294z" fill-rule="evenodd" fill="#fff"/>
    <path d="M177.16 326.98l.421 160.73s2.386-3.288 36.012-1.284c32.627 2.004 36.433 36.433 70.867 36.433 36.433 0 36.433-36.433 70.866-36.433s36.433 36.433 70.866 36.433 36.433-36.433 70.866-36.433 36.433 36.433 72.87 37.469c33.429-2.026 33.429-37.469 69.062-39.463l36.233 2.004v-169.46h-496.06z" fill-rule="evenodd" fill-opacity=".996" transform="matrix(.307 0 0 .36829 348.962 119.039)" stroke="#000" stroke-width="1.497" fill="#d40f0f"/>
    <path d="M403.34 312.006v19.043h10.879c10.016.718 10.878 12.696 21.766 12.696s10.878-12.696 21.766-12.696 10.878 12.696 21.767 12.696 10.878-12.696 21.766-12.696 10.263 11.969 21.766 12.696c10.263-.726 10.817-11.977 21.767-12.696h10.878v-19.043h-10.878c-10.879 0-10.879 12.696-21.767 12.696-10.878 0-10.878-12.696-21.766-12.696S490.366 324.7 479.488 324.7c-10.879 0-10.879-12.696-21.767-12.696S446.863 324.7 436.976 324.7s-10.878-12.696-21.766-12.696H403.34zM406.623 360.088l7.696 19.043c10.017.718 10.878 12.696 21.767 12.696 10.878 0 10.878-12.696 21.766-12.696s10.878 12.696 21.766 12.696 10.879-12.696 21.767-12.696 10.263 11.97 21.766 12.696c10.263-.726 10.664-11.977 21.604-12.696l7.86-19.337-7.698.294c-10.878 0-10.878 12.696-21.766 12.696-10.878 0-10.878-12.696-21.766-12.696s-10.878 12.696-21.767 12.696c-10.878 0-10.878-12.696-21.766-12.696s-10.878 12.696-21.766 12.696-10.878-12.696-21.767-12.696h-7.696zM479.49 419.911c10.879 0 36.803-19.043 36.648-19.043.263 0-2.914-12.696-13.792-12.696s-10.878 12.696-21.767 12.696c-10.878 0-10.878-12.696-21.766-12.696s-13.666 12.696-13.68 12.696c-.604 0 24.668 19.043 36.436 19.043z" fill-rule="evenodd" fill-opacity=".996" fill="#0062bb"/>
    <path d="M90.849 117.67c.822 0 8.222 1.233 13.666.822 6.344-.411 7.4-2.467 7.4-2.878v-1.233h6.988s1.233 6.766.411 6.166-2.878 2.066-3.289 2.066 0-2.878-.822-2.066-1.233 2.066-1.233 2.066-.822-1.234-1.233-1.234-1.233 1.234-1.233 1.234 0-1.234-.412-1.234c-.411 0-2.466 2.066-2.466 2.066l-2.066-1.646s-1.234 2.066-1.646 2.066-2.877-1.644-2.877-1.644l-4.111 2.466s0-3.7-.822-3.289c-.822.411-6.344.411-6.344.411s-1.234 2.467-1.646 2.467-2.066-2.066-1.644-2.066 1.233-1.234.822-1.646c-.41-.411-2.466 0-2.466-.411s-.822-2.878-.411-2.878 2.066.412 2.066.412v-2.467h2.066l.412 2.467z" fill-rule="evenodd" fill-opacity=".996" transform="matrix(1.6006 0 0 1.3064 286.934 126.302)" stroke="#000" stroke-width=".701" fill="#fdc400"/>
    <path d="M98.248 94.136c-.411 0-3.289 3.289-2.878 6.988.411 3.7 7.4 9.044 7.4 9.044s3.7-1.644 4.933 0 1.233 6.677.822 6.677-6.344 1.234-6.344.41c0-.821 0-1.643-.411-1.643s-4.933.41-4.933.41l.411-1.643-4.11-.822 1.644-1.646s-6.678-2.877-6.167-2.877 2.878-1.644 2.878-1.644L87.66 104h2.878s-4.111-3.288-3.7-3.288c.41 0 2.466.41 2.466.41l-1.233-3.287h1.233l-1.233-2.467 2.066-.822 1.234 2.066-.411-4.933 2.877.412v4.11s1.233-2.466 1.233-2.877c0-.411 3.7 1.644 3.289.822z" fill-rule="evenodd" fill-opacity=".996" transform="matrix(1.6006 0 0 1.3064 286.934 126.302)" stroke="#000" stroke-width=".701" fill="#fdc400"/>
    <path d="M629.966 282.463c-.771.671-3.086 2.146-3.086 2.146s6.244-.402 6.09-.402-1.86-1.342-2.006-1.744zM634.436 284.998c-.307.403-1.233 4.662-.616 4.293.616-.268 3.083-3.364 3.083-3.364l-2.467-.939zM641.619 286.634c.77.67 4.317 3.766 3.864 3.084-.462-.67-.926-3.488-1.233-3.62-.31-.136-2.314.803-2.621.636zM479.384 281.108c-.462.136-4.317 2.684-4.317 2.684s6.477-1.074 6.167-1.074c-.307 0-2.004-1.206-1.86-1.61zM483.39 284.333c-.616.636-2.62 4.292-1.86 4.169.772-.136 4.164-2.66 4.164-2.66l-2.313-1.61zM480.916 279.098c-.462-.134-3.702-1.476-3.647-1.476s4.318-.939 4.318-.939l-.771 2.416zM419.868 277.362l-4.626-3.22 6.86 1.61-1.234 1.61zM416.849 279.603c-.617 0-6.477 3.219-6.323 3.219s8.173.134 8.019 0c-.164-.133-1.388-2.96-1.696-3.22zM419.649 284.202c-.617.27-6.243 3.364-4.936 3.364.309 0 6.94.134 6.94 0s-1.861-3.22-2.006-3.364zM418.932 260.792s-1.696-3.766-1.642-3.766c.164 0 4.318 2.961 4.318 2.961l-2.776.806zM423.668 246.096c0-.134.463-2.414.463-2.414s4.163 2.817 4.009 2.817c-.164 0-4.164 0-4.472-.403zM430.036 247.84c0-.134.463-3.488.463-3.488s3.866 4.662 3.647 4.696c-.309.134-3.701-.67-4.01-1.208z" fill-rule="evenodd" fill-opacity=".996"/>
    <path d="M137.26 110.86c0 .206 4.316 3.7 4.419 4.622.102.822-7.811 1.028-7.811 1.028s-2.261-1.747-2.98-1.646c-.72.103-1.028 1.86-1.028 1.86l1.86 1.028-3.494.206 1.028 1.963 2.672-.206-.617 1.86s1.644 1.234 1.963 1.028c.308-.206 1.336-2.066 2.168-2.364.822-.308 2.669-.308 2.669-.308s-1.336 2.261-.719 2.261c.616 0 3.391-2.364 3.391-2.364s.617 2.168.719 2.168c.103 0 2.066-2.466 2.066-2.466s0 1.963.308 1.963 3.186-2.467 3.186-2.467 2.261 2.878 2.669 2.672c.309-.206.617-3.083.926-3.083s2.261-.308 2.261-.411-1.233-1.131-1.439-2.669c-.206-1.439.206-4.83.103-4.83s-13.874.613-14.079.206z" fill-rule="evenodd" fill-opacity=".996" transform="matrix(1.6006 0 0 1.3064 286.91 126.697)" stroke="#000" stroke-width=".701" fill="#fdc400"/>
    <path d="M116.37 104.6h40.286c4.111 0 7.81-1.644 7.81-4.111 0-2.466-6.677-2.877-9.043-2.066-2.467.822-13.166 6.766-17.677 6.344s-8.632-3.289-9.043-6.166c-.412-2.878 2.066-6.344 6.677-6.344s10.277 1.644 11.61 1.233 4.111-3.7 6.344-4.11c1.233-.412 4.933-.823 4.933-.823l-1.644 1.233 6.344-1.233s-4.111 4.622-8.222 6.766c-4.111 1.234-12.743.822-16.032.822s-4.933-.41-4.622 2.066c.411 2.466 2.878 4.111 4.933 3.699 2.066-.411 8.222-2.466 8.222-2.466l-1.646-1.233 7.4-.411s-.411-1.233 0-1.233 4.111.41 4.111.41-2.467-1.233-2.066-1.233 2.066 0 6.344.412c3.289.41 10.277 1.644 9.866 4.932-.411 3.289-2.877 6.166-6.766 6.166s-6.344-.822-6.344.412c0 1.233 3.289 2.066 6.344 2.066s4.622-1.644 4.933-1.644 1.233 2.466 1.644 2.466 2.878-.822 2.878-.822l-1.644 4.622 2.877.822s-1.644 1.644-1.233 1.644 2.877 0 2.877.411-3.288 2.878-3.288 3.289 2.466 1.644 2.466 1.644-1.644 2.467-2.066 2.066-2.066-2.467-2.066-2.467-.411 1.646-1.233 1.646-2.466-.411-2.466-.411 1.233-2.467.822-2.467-2.467 1.644-2.467 1.233l-1.232-1.236s3.288-1.336 3.288-3.289c0-1.962-1.336-3.906-7.296-4.213-6.961-.309-6.064 1.438-10.483 1.233-4.419-.206-4.419-1.963-7.708-1.963-3.288 0-13.463 4.111-18.19 4.008-4.727-.102-10.688-.411-10.483-.616.206-.206 3.906-9.661 4.008-9.966z" fill-rule="evenodd" fill-opacity=".996" transform="matrix(1.6006 0 0 1.3064 286.91 126.697)" stroke="#000" stroke-width=".701" fill="#fdc400"/>
    <path d="M106.88 102.46c-.411.206-4.008.72-4.214 4.622-.206 3.803.309 3.803.72 3.697.411-.206 1.233-3.494 1.233-3.494s-1.233 4.622.103 6.66a9.298 9.298 0 0 0 2.776 1.438l.613-3.697s-1.027 3.496 1.439 4.728c2.467 1.233 3.392.308 3.186-.617-.206-.926-.926-3.288-.926-3.288s1.963 2.168 2.066 2.363c.102.206 1.027 1.86 3.494 1.131 2.466-.72.719-2.364.719-2.364l-2.98-2.46s3.083 3.186 4.419 2.066-1.028-3.697-.926-3.494 1.963 3.494 2.672 1.336-1.13-2.776-1.747-4.83c-.617-2.066-1.131-2.261-.614-3.496.617-1.233.72-3.696.72-3.696s2.669.616 2.363-1.642c-.206-2.168-2.776-2.672-3.288-2.776-.614-.103-.412-2.26-.617-2.168-.206.103-1.86 1.336-1.86 1.336s-1.439-3.392-1.747-3.186-1.963 1.963-3.186 2.066c-1.233.103-1.963 1.86-1.963 1.86s-4.316-2.066-4.213 1.336c.103 3.392 2.669 2.67 2.669 2.672s-.411 4.728-.822 4.933z" fill-rule="evenodd" fill-opacity=".996" transform="matrix(1.6006 0 0 1.3064 286.934 126.302)" stroke="#000" stroke-width=".701" fill="#fdc400"/>
    <path d="M460.874 263.267c.742-.227 1.833-1.174 3.098-1.06s3.291 1.086 2.288 1.616c-1.006.63-1.746.768-2.88.491-1.133-.267-2.006-.837-2.606-1.046zM463.462 263.123c-.742-.227-1.833-1.176-3.098-1.06s-3.29 1.086-2.287 1.616c1.004.63 1.746.767 2.88.49 1.132-.266 2.004-.836 2.606-1.046z" fill-rule="evenodd" fill-opacity=".996"/>
    <path d="M110.99 103.17c.103.614.411 4.831.616 4.622.206-.308 1.748-4.419 1.646-4.419s-2.168.103-2.261-.103z" fill-rule="evenodd" fill-opacity=".996" transform="matrix(1.6006 0 0 1.3064 287.143 126.366)" stroke="#000" stroke-width=".421" fill="#000039"/>
    <path d="M109.96 103.17c.049-1.216.822-1.13 2.467-.926 1.644.206 2.466 1.028 2.363 1.234-.102.206-1.438.719-2.669.616-1.336-.411-2.298.089-2.261-.926z" transform="matrix(1.6006 0 0 1.3064 287.143 126.666)" stroke="#000" stroke-width=".842" fill="none"/>
    <path d="M112.43 100.08l-.206 1.963M119.32 94.844s1.336.617 1.131 1.233c-.206.617-1.131.926-1.131.926M108.12 94.33c-.308.103-.719.308-.926 1.13-.206.823.926 1.337.926 1.337" transform="matrix(1.6006 0 0 1.3064 287.143 126.666)" stroke="#000" stroke-width="1.497" fill="none"/>
    <path d="M111.19 136.13s-1.464 1.464 1.017 1.464.727-1.308.727-1.308" transform="matrix(1.6006 0 0 1.3064 287.361 77.606)" stroke="#000" stroke-width="1.497" fill="none"/>
    <path fill="#fdc400" fill-rule="evenodd" d="M462.348 403.76l6.41-21.062-17.8-13.24 22.293-.498 7.271-20.784 7.37 20.76 22.294.4-17.74 13.32 6.606 21.03-18.33-12.616z"/>
    <path fill="#003017" fill-rule="evenodd" fill-opacity=".996" d="M466.383 398.116l6.34-16.73-14.832-10.618 18.677-.396 6.06-16.61 6.141 16.482 18.678.318-14.783 10.682 6.421 16.706-16.276-9.942z"/>
    <path fill="#fdc400" fill-rule="evenodd" d="M426.661 361.106l6.34-19.917-17.607-12.62 22.062-.472 7.193-19.666 7.291 19.622 22.063.378-17.648 12.697 6.436 19.887-18.132-11.836z"/>
    <path fill="#003017" fill-rule="evenodd" fill-opacity=".996" d="M428.673 366.764l6.283-16.822-14.673-9.946 18.377-.374 6.994-16.614 6.076 16.688 18.377.3-14.623 10.007 6.363 16.798-16.11-9.403z"/>
    <path fill="#fdc400" fill-rule="evenodd" d="M499.67 361.106l6.423-19.917-17.836-12.62 22.337-.472 7.286-19.666 7.386 19.622 22.337.378-17.774 12.697 6.618 19.887-18.366-11.836z"/>
    <path fill="#003017" fill-rule="evenodd" fill-opacity=".996" d="M602.618 366.764l6.362-16.822-14.862-9.946 18.614-.374 6.07-16.614 6.164 16.688 18.614.3-14.811 10.007 6.431 16.798-16.304-9.403z"/>
    <path d="M373.272 372.664c8.026 34.643 41.902 60.18 87.628 66.243 68.606 7.787 114.614-21.906 124.796-66.277" fill="none"/>
    <path d="M373.128 377.899l11.006-6.218 1.036 2.263-4.317 2.439 1.429 3.12 4.316-2.438 1.036 2.263-11.006 6.218-1.036-2.263 4.988-2.818-1.428-3.121-4.988 2.818-1.036-2.263m4.607 9.63l10.276-7.607 3.616 6.866-1.708 1.264-2.26-3.762-2.376 1.769 2.094 3.492-1.628 1.206-2.094-3.492-2.829 2.094 2.303 3.84-1.736 1.286-3.67-6.964m7.16 11.046l9.066-9.316 1.662 1.863-3.666 3.664 2.139 2.67 3.666-3.663 1.662 1.864-9.066 9.316-1.661-1.864 4.108-4.222-2.14-2.67-4.108 4.222-1.661-1.864m11.837 6.616l1.47 1.434 2.674-6.06-4.144 3.616m-6.76 1.72l10.232-8.277 2.321 2.261-6.031 12.372-1.863-1.816 1.688-3.039-1.99-1.938-2.491 2.167-1.767-1.72m8.93 8.294l6.097-9.238-2.134-1.739 1.206-1.826 6.122 4.99-1.204 1.826-2.134-1.74-6.097 9.24-1.866-1.613m6.008 4.003l6.432-11.71 1.96 1.322-2.622 4.693 2.69 1.824 2.622-4.693 1.96 1.323-6.432 11.71-1.96-1.322 2.916-6.308-2.69-1.824-2.916 6.308-1.96-1.323m12.09 7.662l6.19-12.448 6.867 3.014-.849 2.037-3.768-1.94-1.227 2.943 3.667 1.83-.829 1.99-3.667-1.832-2.286 6.48-2.088-1.074m11.463-1.89c-.721 2.11-1.066 3.486-1.033 4.128.039.64.368 1.086.968 1.338.69.249 1.083.162 1.48-.29.403-.446.97-1.736 1.698-3.868s1.076-3.616 1.041-4.163c-.034-.637-.348-1.08-.943-1.332-.694-.26-1.096-.16-1.6.301-.406.462-.973 1.743-1.701 3.876m-2.197-.927c.466-1.36.893-2.421 1.286-3.183.394-.768.783-1.306 1.169-1.613.633-.442 1.076-.69 1.626-.744.66-.064 1.204.08 1.964.4s1.33.703 1.709 1.149c.38.446.64 1.032.78 1.768.1.626.067 1.217-.1 2.074-.162.869-.474 1.966-.937 3.32-.46 1.36-.888 2.408-1.282 3.176-.392.762-.78 1.304-1.164 1.626-.639.44-1.083.686-1.633.74-.66.064-1.206-.08-1.966-.4s-1.329-.703-1.708-1.149c-.38-.446-.637-1.03-.773-1.766-.106-.614-.076-1.2.086-2.06.164-.866.478-1.977.943-3.338m10.62-2.914l2.206.73-2.376 8.862c-.271 1.014-.346 1.739-.223 2.176.13.433.478.744 1.047.932.664.186 1.002.133 1.316-.16.317-.291.614-.962.89-1.983l2.366-8.828 2.176.72-2.432 9.076c-.237.882-.466 1.613-.668 1.892a2.88 2.88 0 0 1-.732.92 2.867 2.867 0 0 1-1.639.626c-.684.064-1.234-.037-1.961-.274-1.363-.448-2.221-1.088-2.606-1.922-.378-.837-.36-2.067.086-3.69l2.432-9.076m6.906 16.178l2.696-13.388 2.308.674 1.262 10.143 1.823-9.379 2.12.628-2.696 13.387-2.292-.67-1.272-10.166-1.827 9.396-2.112-.626m12.07.682l1.006.176c.612.09.877.11 1.094.064a.966.966 0 0 0 .661-.337c.26-.316.48-.77.666-1.366.177-.6.36-1.676.66-2.926.186-1.314.267-2.28.246-2.896-.021-.617-.137-1.1-.347-1.46a1.086 1.086 0 0 0-.47-.406c-.198-.1-.618-.19-.961-.266l-.976-.17-1.36 9.676m-2.607 1.61l1.91-13.664 3.662.636c.746.13 1.326.303 1.746.62.424.218.766.61.996.877.363.638.68 1.177.666 1.917.08.736.016 1.848-.196 3.338-.27 1.926-.623 3.276-.767 4.063-.233.77-.636 1.41-.904 1.916-.368.609-.804.831-1.337.967-.627.13-1.406.089-2.636-.126l-3.129-.646m9.66 1.67l1.188-13.666 6.312.677-.197 2.27-4.038-.433-.276 3.167 3.76.403-.189 2.164-3.769-.404-.326 3.76 4.133.444-.2 2.306-6.408-.687m10.43-1.106l1.018.04c.618.022.882-.006 1.093-.08a1 1 0 0 0 .611-.408c.226-.347.393-.828.604-1.441.111-.62.189-1.612.233-2.978.043-1.329.021-2.299-.066-2.908-.087-.61-.264-1.074-.6-1.393a1.048 1.048 0 0 0-.611-.341c-.206-.074-.634-.12-.982-.138l-.986-.04-.314 9.687m-2.317 1.931l.444-13.71 3.694.148c.763.03 1.36.126 1.788.286.444.16.806.407 1.083.739.418.486.703 1.092.866 1.817.169.72.213 1.833.166 3.34-.064 1.947-.17 3.322-.319 4.124-.148.796-.379 1.47-.691 2.023-.301.662-.71.931-1.224 1.136-.61.2-1.386.276-2.63.226l-3.166-.127m13.764.18l-.49-13.71 2.3-.1.49 13.708-2.3.102m6.141-.361l-.844-11.419-2.637.241-.166-2.266 7.667-.69.167 2.266-2.637.24.844 11.418-2.294.21m8.1-14.71l2.268-.438 1.426 9.11c.163 1.042.387 1.728.672 2.069.29.324.726.43 1.31.316.68-.112.961-.376 1.114-.793.168-.419.169-1.167.003-2.216l-1.42-9.076 2.236-.431 1.46 9.33c.141.906.198 1.68.169 2.02-.026.432-.12.827-.287 1.186a3.267 3.267 0 0 1-1.128 1.321c-.6.338-1.12.678-1.866.72-1.39.269-2.426.126-3.103-.431-.674-.663-1.142-1.679-1.403-3.346l-1.46-9.33m12.286 3.479l.936-.263c.696-.189 1.161-.47 1.366-.847.213-.381.24-.939.08-1.672-.163-.738-.406-1.214-.726-1.426-.318-.22-.838-.232-1.66-.037l-.966.262.87 3.973m-.614 8.08l-2.922-13.33 3.88-1.06c1.183-.32 2.1-.267 2.748.191.648.448 1.119 1.342 1.412 2.68.289 1.316.226 2.372-.188 3.169-.41.79-1.184 1.338-2.321 1.646l-1.628.44 1.239 6.662-2.22.601m8.817-9.669c.614 2.161 1.113 3.468 1.498 3.96.387.473.887.602 1.498.387.601-.212.934-.628.998-1.249.067-.628-.21-2.029-.83-4.203s-1.122-3.499-1.604-3.974c-.383-.476-.877-.607-1.484-.394-.606.214-.942.638-1.008 1.272-.066.634.212 2.037.832 4.211m-2.239.79c-.396-1.388-.663-2.616-.772-3.383-.12-.873-.116-1.663.016-2.07.171-.716.468-1.283.869-1.706.401-.422.989-.77 1.763-1.042.776-.273 1.436-.366 1.982-.278.646.088 1.078.368 1.694.84.372.343.733.907 1.08 1.694.364.786.727 1.869 1.122 3.26.392 1.376.649 2.6.77 3.374.118.868.117 1.66-.006 2.076-.177.717-.466 1.286-.867 1.707-.4.422-.989.77-1.763 1.042-.776.273-1.436.366-1.982.278-.646-.088-1.076-.369-1.686-.843-.37-.33-.73-.889-1.084-1.674-.364-.79-.73-1.88-1.126-3.267m11.286 3.136l-4.694-12.736 2.196-.977 6.197 7.676-3.273-8.88 2.017-.897 4.694 12.734-2.18.972-6.226-7.684 3.279 8.896-2.01.896m14.3-7.024l-4.816-10.13-2.34 1.374-.961-2 6.713-3.942.961 2-2.339 1.374 4.817 10.13-2.034 1.194m6.436-3.24l-6.693-11.6 1.932-1.366 2.686 4.66 2.664-1.87-2.686-4.66 1.932-1.366 6.693 11.6-1.932 1.366-2.988-6.267-2.664 1.87 2.988 6.267-1.932 1.366m8.236-6.932l-7.441-10.947 6.06-4.247 1.238 1.82-3.238 2.716 1.72 2.631 3.014-2.629 1.18 1.736-3.014 2.629 2.048 3.014 3.316-2.781 1.266 1.848-6.138 4.311m6.362-11.772l1.641-1.792.667.63c.632.6.962.939 1.29 1.014.328.066.668-.082.99-.444.347-.38.624-.764.63-1.164.011-.396-.162-.783-.49-1.164-.268-.293-.642-.474-.861-.644-.313-.074-.826-.048-1.637.08l-1.426.267c-1.22.231-2.089.273-2.61.126-.616-.162-1.018-.603-1.606-1.064-.726-.822-1.077-1.706-1.06-2.66.026-.944.424-1.837 1.194-2.678.816-.89 1.66-1.326 2.634-1.304s1.72.496 2.64 1.423c.082.093.144.167.186.222.046.061.082.098.112.14l-1.666 1.698-.23-.26c-.469-.63-.882-.823-1.24-.882-.36-.068-.718.109-1.076.6-.263.287-.394.601-.393.941 0 .332.136.66.406.966.363.41 1.103.497 2.22.26a.103.103 0 0 1 .029-.006l1.606-.307c1.063-.229 1.897-.267 2.6-.083.6.17 1.188.68 1.766 1.233.787.89 1.166 1.826 1.136 2.808-.03.983-.471 1.938-1.321 2.866-.886.966-1.769 1.432-2.663 1.398-.88-.038-1.782-.678-2.703-1.62-.098-.11-.261-.3-.46-.671l-.034-.038m9.664-3.864l-9.463-8.811 4.073-6.401 1.673 1.466-2.606 3.466 2.188 2.037 2.426-3.217 1.6 1.397-2.426 3.216 2.606 2.426 2.668-3.637 1.698 1.487-4.136 6.483m2.404-12.282l1.093-1.803-4.847-2.307 3.764 4.11m2.264 6.12l-8.687-10.229 1.726-2.844 11.809 6.078-1.384 2.284-2.914-1.366-1.479 2.438 2.242 2.473-1.312 2.166m1.466-11.166l1.061-2.276.707.403c.676.386 1.179.666 1.611.612.33-.062.602-.307.816-.767.222-.48.28-.908.177-1.28-.102-.38-.366-.69-.794-.936-.328-.187-.66-.26-.963-.218-.318.039-.797.243-1.436.612l-1.28.742c-1.092.646-1.906.99-2.442 1.03-.633.037-1.109-.121-1.727-.474-.922-.626-1.606-1.242-1.747-2.148-.242-.906-.117-1.893.376-2.96.623-1.13 1.201-1.839 2.036-2.124.836-.284 1.773-.13 2.814.464.106.06.184.109.239.147.067.032.106.063.146.093l-.996 2.166-.293-.166c-.694-.34-1.07-.474-1.427-.404-.366.07-.66.364-.88.86-.168.366-.203.708-.106 1.031.096.316.314.67.666.766.461.263 1.189.087 2.182-.628a.079.079 0 0 1 .026-.016l1.342-.816c.946-.69 1.729-.907 2.36-.963.618-.048 1.293.137 2.026.664.999.67 1.622 1.327 1.871 2.27.26.943.102 2.004-.443 3.182-.666 1.226-1.274 1.977-2.123 2.264-.846.271-1.864.073-3.024-.694a11.64 11.64 0 0 1-.699-.382l-.042-.024"/>
  </g>
</svg>
