<svg xmlns="http://www.w3.org/2000/svg" height="480" width="640">
  <g fill-rule="evenodd">
    <path fill="#6fdcff" d="M0 0h640v480H0z"/>
    <g fill="#ffe400">
      <path d="M60.236 466.996c3.262 3.184 2.182 8.639 11.226 7.86 13.806 0 14.204-8.446 14.204-14.343 0-6.888-20.671-14.124-21.618-22.789-.96-8.674 4.748-11.096 9.624-11.096 4.748 0 8.082 2.777 8.082 6.198s-2.374 3.122-6.708 3.122 1.427-1.733-1.427-3.122-4.762 2.078-4.762 4.166c0 2.077 7.136 2.766 11.897 1.21.961 4.677 1.428 6.032-6.242 12.997 4.776-3.121 6.229-3.81 10.486-2.077-6.243-4.61-1.318-13.696-1.14-16.036s-1.001-6.116-3.142-6.603c-3.816-3.466-12.146-3.622-17.14-1.388-7.273 3.246-7.63 12.819-6.722 16.96l20.169 20.67c1.427 2.432 1.92 9.186-6.642 9.63-9.044.69-12.146-11.64-13.76-16.742-2.166 4.479-4.667 16.838-13.6 16.16-8.677-.346-10.224-7.1-8.797-9.631l20.708-21.077c1.894-3.131 1.637-12.704-6.736-16.96-4.996-2.234-13.311-2.078-17.126 1.388-2.141 1.388-3.336 4.166-3.166 6.603s4.103 11.626-1.14 16.036c6.266-1.733 6.723-1.044 10.486 2.077-6.67-7.966-6.19-8.32-6.242-12.997 4.762 1.666 11.911.867 11.911-1.21 0-2.088-1.921-6.664-4.776-4.166-2.841 1.389 1.907 3.122-1.414 3.122-3.348 0-6.722-.7-6.722-3.122s3.334-6.198 8.096-6.198 10.47 2.422 9.61 11.096c-.947 8.666-22.063 18.123-22.063 24.01 0 6.898 1.469 13.122 16.274 13.122 9.044.689 10.114-4.666 13.394-7.86z"/>
      <path d="M69.137 343.293c3.262-3.184 6.928-12.621 14.972-11.932 13.806 0 19.034 7.63 19.034 13.629 0 6.887-28.078 64.084-29.024 62.749-.961 8.674 4.748 11.096 9.623 11.096 4.748 0 8.083-2.776 8.083-6.198s-2.374-3.122-6.709-3.122 1.428 1.733-1.427 3.122-4.762-2.078-4.762-4.166c0-2.078 7.136-2.767 11.898-1.211.96-4.677 1.427-6.032-6.242-12.997 4.776 3.121 6.228 3.81 10.484 2.077-6.242 4.61-1.317 13.696-1.139 16.036s-1.001 6.116-3.142 6.603c-3.816 3.466-12.146 3.623-17.14 1.389-7.273-3.247-7.63-12.82-6.723-16.961l27.13-68.694c1.428-2.433-2.373-10.408-10.937-10.762-9.043-.69-12.144 8.79-13.76 12.892l12.323-.898s.48 1.9 0 3.132c-6.367.417-12.323 1.676-12.323 1.676l-.467 6.242h6.08l-.48 2.767s-6.133-.346-6.6 0c-.48.344-.96 6.263-.96 6.263s-.947.344-1.976.344c-1.043 0-1.99-.344-1.99-.344s-.48-6.909-.947-6.263c-.48-.346-6.613 0-6.613 0l-.466-2.767h6.079l-.48-6.242s-6.966-1.169-12.324-1.676c-.466-1.232 0-3.132 0-3.132l12.324.898c-1.606-4.103-4.707-13.681-13.737-12.892-8.677.344-12.378 8.32-10.961 10.762l27.144 68.694c1.894 3.132 1.637 12.704-6.736 16.96-4.996 2.236-13.312 2.078-17.126-1.388-2.141-1.388-3.336-4.166-3.167-6.603s4.103-11.626-1.139-16.036c6.266 1.733 6.723 1.044 10.486-2.077-6.67 7.966-6.19 8.32-6.243 12.997 4.762-1.666 11.912-.867 11.912 1.21 0 2.088-1.921 6.664-4.776 4.166-2.84-1.389 1.908-3.122-1.413-3.122-3.349 0-6.723.7-6.723 3.122s3.336 6.198 8.097 6.198 10.47-2.422 9.61-11.096c-.947-8.666-29.024-66.862-29.024-62.76 0-6.897 6.228-13.628 19.034-13.628 9.043-.69 12.264 8.748 16.634 11.932z"/>
      <path d="M69.137 319.408c3.262 3.184 6.928 12.621 14.972 11.932 13.806 0 19.034-7.63 19.034-13.629 0-6.888-28.078-64.084-29.026-62.749-.96-8.676 4.749-11.096 9.624-11.096 4.748 0 8.083 2.776 8.083 6.198s-2.374 3.121-6.709 3.121 1.427-1.732-1.427-3.12-4.762 2.077-4.762 4.164c0 2.078 7.136 2.767 11.898 1.211.96 4.677 1.427 6.032-6.242 12.997 4.776-3.121 6.228-3.81 10.484-2.077-6.242-4.61-1.317-13.696-1.139-16.036s-1.002-6.116-3.142-6.603c-3.816-3.466-12.146-3.623-17.14-1.389-7.274 3.247-7.63 12.82-6.723 16.961l27.13 68.694c1.428 2.433-2.374 10.408-10.937 10.762-9.043.69-12.146-8.79-13.76-12.892l12.323.898s.48-1.9 0-3.132c-6.367-.417-12.323-1.676-12.323-1.676l-.467-6.243h6.08l-.48-2.766s-6.133.346-6.6 0c-.48-.344-.96-6.263-.96-6.263s-.947-.344-1.977-.344c-1.042 0-1.99.344-1.99.344s-.48 6.909-.946 6.263c-.48.346-6.613 0-6.613 0l-.467 2.766h6.08l-.48 6.243s-6.966 1.169-12.324 1.676c-.466 1.232 0 3.132 0 3.132l12.323-.898c-1.606 4.103-4.707 13.681-13.736 12.892-8.677-.344-12.378-8.32-10.961-10.762l27.144-68.694c1.894-3.132 1.637-12.704-6.736-16.96-4.996-2.236-13.312-2.078-17.127 1.388-2.14 1.388-3.334 4.166-3.166 6.603s4.103 11.626-1.139 16.036c6.266-1.733 6.723-1.044 10.484 2.077-6.669-7.966-6.189-8.32-6.242-12.997 4.762 1.666 11.912.867 11.912-1.21 0-2.088-1.921-6.664-4.776-4.166-2.84 1.389 1.908 3.121-1.413 3.121-3.349 0-6.723-.699-6.723-3.12s3.336-6.2 8.097-6.2 10.47 2.422 9.61 11.097c-.947 8.666-29.024 66.861-29.024 62.76 0 6.897 6.228 13.628 19.034 13.628 9.043.689 12.264-8.748 16.634-11.932z"/>
      <path d="M69.137 160.61c3.262-3.184 6.928-12.62 14.972-11.932 13.806 0 19.034 7.631 19.034 13.63 0 6.887-28.078 64.084-29.024 62.748-.961 8.676 4.748 11.097 9.623 11.097 4.748 0 8.083-2.777 8.083-6.199s-2.374-3.121-6.709-3.121 1.428 1.733-1.427 3.121-4.762-2.077-4.762-4.166c0-2.077 7.136-2.766 11.898-1.21.96-4.678 1.427-6.032-6.242-12.997 4.776 3.12 6.228 3.81 10.484 2.077-6.242 4.61-1.317 13.696-1.139 16.034s-1.001 6.116-3.142 6.604c-3.816 3.466-12.146 3.622-17.14 1.388-7.273-3.246-7.63-12.819-6.723-16.96l27.13-68.696c1.428-2.432-2.373-10.407-10.937-10.762-9.043-.689-12.144 8.79-13.76 12.892l12.323-.898s.48 1.9 0 3.132c-6.367.418-12.323 1.676-12.323 1.676l-.467 6.243h6.08l-.48 2.766s-6.133-.344-6.6 0c-.48.346-.96 6.263-.96 6.263s-.947.346-1.976.346c-1.043 0-1.99-.346-1.99-.346s-.48-6.908-.947-6.263c-.48-.344-6.613 0-6.613 0l-.466-2.766h6.079l-.48-6.243s-6.966-1.168-12.324-1.676c-.466-1.232 0-3.132 0-3.132l12.324.898c-1.606-4.102-4.707-13.68-13.737-12.892-8.677.346-12.378 8.32-10.961 10.762l27.144 68.694c1.894 3.132 1.637 12.706-6.736 16.961-4.996 2.234-13.312 2.077-17.126-1.388-2.141-1.389-3.336-4.166-3.167-6.604s4.103-11.624-1.139-16.034c6.266 1.733 6.723 1.044 10.486-2.077-6.67 7.966-6.19 8.32-6.243 12.996 4.762-1.666 11.912-.866 11.912 1.211 0 2.088-1.921 6.664-4.776 4.166-2.84-1.388 1.908-3.121-1.413-3.121-3.349 0-6.723.7-6.723 3.121s3.336 6.199 8.097 6.199 10.47-2.422 9.61-11.097c-.947-8.664-29.024-66.861-29.024-62.749 0-6.898 6.228-13.629 19.034-13.629 9.043-.689 12.264 8.748 16.634 11.932z"/>
      <path d="M69.137 136.726c3.262 3.184 6.928 12.62 14.972 11.932 13.806 0 19.034-7.631 19.034-13.63 0-6.887-28.078-64.084-29.026-62.748-.96-8.676 4.749-11.097 9.624-11.097 4.748 0 8.083 2.777 8.083 6.199s-2.374 3.121-6.709 3.121 1.427-1.733-1.427-3.121-4.762 2.077-4.762 4.166c0 2.077 7.136 2.766 11.898 1.21.96 4.677 1.427 6.032-6.242 12.997 4.776-3.12 6.228-3.81 10.484-2.077-6.242-4.61-1.317-13.696-1.139-16.034s-1.002-6.116-3.142-6.604c-3.816-3.466-12.146-3.622-17.14-1.388-7.274 3.246-7.63 12.819-6.723 16.96l27.13 68.696c1.428 2.432-2.374 10.407-10.937 10.762-9.043.689-12.146-8.79-13.76-12.892l12.323.897s.48-1.9 0-3.131c-6.367-.418-12.323-1.677-12.323-1.677l-.467-6.242h6.08l-.48-2.766s-6.133.344-6.6 0c-.48-.346-.96-6.263-.96-6.263s-.947-.346-1.977-.346c-1.042 0-1.99.346-1.99.346s-.48 6.908-.946 6.263c-.48.344-6.613 0-6.613 0l-.467 2.766h6.08l-.48 6.242s-6.966 1.16-12.324 1.677c-.466 1.232 0 3.131 0 3.131l12.323-.897c-1.606 4.102-4.707 13.68-13.736 12.892-8.677-.346-12.378-8.32-10.961-10.762l27.144-68.694c1.894-3.132 1.637-12.706-6.736-16.961-4.996-2.234-13.312-2.078-17.127 1.388-2.14 1.389-3.334 4.166-3.166 6.604s4.103 11.624-1.139 16.034c6.266-1.733 6.723-1.044 10.484 2.077-6.669-7.966-6.189-8.32-6.242-12.996 4.762 1.666 11.912.866 11.912-1.211 0-2.088-1.921-6.664-4.776-4.166-2.84 1.388 1.908 3.121-1.413 3.121-3.349 0-6.723-.7-6.723-3.121s3.336-6.199 8.097-6.199 10.47 2.422 9.61 11.097c-.947 8.664-29.024 66.861-29.024 62.749 0 6.898 6.228 13.629 19.034 13.629 9.043.689 12.264-8.748 16.634-11.932z"/>
      <path d="M60.234 13.003c3.263-3.184 2.182-8.64 11.226-7.86 13.806 0 14.203 8.446 14.203 14.343 0 6.887-20.67 14.124-21.618 22.788-.96 8.676 4.749 11.097 9.624 11.097 4.748 0 8.083-2.777 8.083-6.199s-2.374-3.121-6.709-3.121 1.427 1.733-1.427 3.121-4.762-2.077-4.762-4.166c0-2.077 7.136-2.766 11.898-1.21.96-4.678 1.427-6.033-6.242-12.997 4.776 3.12 6.228 3.81 10.484 2.077-6.242 4.61-1.317 13.696-1.139 16.034s-1.002 6.116-3.142 6.604c-3.816 3.466-12.146 3.622-17.14 1.388-7.274-3.246-7.63-12.819-6.723-16.96l20.16-20.67c1.426-2.432 1.92-9.186-6.643-9.63-9.043-.69-12.146 11.639-13.76 16.741-2.166-4.478-4.666-16.838-13.6-16.149-8.676.346-10.223 7.099-8.796 9.63l20.708 21.077c1.894 3.132 1.637 12.706-6.736 16.961-4.996 2.234-13.312 2.077-17.127-1.388-2.14-1.389-3.334-4.166-3.166-6.604s4.103-11.624-1.139-16.034c6.266 1.733 6.723 1.044 10.484-2.077-6.669 7.964-6.189 8.32-6.242 12.996 4.762-1.666 11.912-.866 11.912 1.211 0 2.088-1.921 6.664-4.776 4.166-2.84-1.388 1.908-3.121-1.413-3.121-3.349 0-6.723.7-6.723 3.121s3.336 6.199 8.097 6.199 10.47-2.422 9.61-11.097c-.947-8.664-22.063-18.122-22.063-24.01 0-6.898 1.468-13.121 16.274-13.121 9.043-.69 10.114 4.666 13.393 7.86z"/>
    </g>
    <g fill="#ffe400" transform="translate(-194.73 8.286) scale(1.0673)">
      <rect rx="86.12" ry="80.648" height="161.3" width="170.24" y="104.46" x="426.9"/>
      <path d="M606.94 66.366c-.708-.007-4.634 26.842-6.013 32.876-1.326 13.43 18.07 12.94 14.897-.632l-8.88-32.344zM613.77 316.21c.706.063 6.49-26.479 8.408-32.401 2.306-13.31-17.078-14.098-14.9-.46l6.492 32.86zM378.17 184.61c-.06.669 27.916 6.277 34.166 8.123 14.037 2.249 14.962-16.113.647-14.116l-34.703 6.992zM649.89 187.8c.03-.67-28.166-6.274-34.483-6.896-14.123-1.746-14.234 16.638.079 14.126l34.404-7.23zM406.79 99.641c-.482.492 17.893 21.249 21.606 26.348 9.688 9.97 22.266-3.946 9.616-10.793l-31.22-16.669zM617.96 270.64c.436-.63-19.772-19.698-23.937-24.472-10.466-9.146-21.819 6.761-8.69 11.643l32.628 12.929zM448.97 70.619c-.644.28 7.966 26.114 9.34 32.171 4.84 12.686 22.167 4.414 13.24-6.493l-22.68-26.678zM671.98 302.96c.663-.237-6.032-26.676-6.96-32.708-3.897-12.973-21.79-6.862-13.682 6.606l20.642 27.101zM602.16 88.602c-.611-.466-22.711 16.61-28.162 20.046-10.676 8.923 3.807 21.166 11.236 9.282l16.916-29.327zM419.24 282.33c.476.497 23.874-16.076 29.663-18.146 11.304-8.199-2.247-21.366-10.628-9.999L419.24 282.33zM384.16 138.16c-.29.612 24.124 14.716 29.362 18.422 12.449 6.643 19.766-10.482 6.47-13.139l-34.832-6.283zM638.07 236.6c.336-.691-22.987-16.266-27.941-20.309-11.939-7.347-20.486 9.166-6.419 12.748l34.36 7.661zM667.37 63.719c-.667-.261-14.671 23.416-18.276 28.621-6.412 12.042 11.831 18.301 14.072 4.662l4.204-33.183zM463.62 307.97c.637.294 16.262-22.401 20.322-27.26 7.28-11.691-10.461-19.036-13.696-6.677l-6.626 32.826zM386.04 238.68c.267.626 27.986-6.986 34.449-6.926 13.662-3.826 6.966-20.703-6.066-12.906L386.04 238.68zM638.13 136.11c-.21-.64-28.367 4.13-34.873 4.643-13.899 2.917-7.468 20.261 6.096 13.273l29.777-17.916z"/>
      <path d="M634.62 68.119c-.692-.141-10.14 26.429-12.87 31.068-4.149 12.903 14.964 16.119 14.706 2.318L634.62 68.12zM486.16 313.97c.68.187 11.979-24.7 16.116-30.136 6.086-12.699-13.736-17.064-14.6-3.28l-.616 33.416zM476.38 60.639c-.692.144 1.918 27.122 1.9 33.317 1.88 13.37 20.668 8.783 14.396-3.676l-16.29-29.642zM644.39 312.46c.7-.098.076-27.183.646-33.362-.896-13.462-19.974-10.121-14.628 2.72l14.082 30.641zM428.16 83.092c-.68.384 12.766 24.346 16.26 30.07 7.164 11.661 22.642.689 11.8-8.63l-27.06-21.44zM693.02 290.86c.607-.346-10.96-26.126-13.019-31.002-6.283-12.104-22.646-2.077-12.404 7.834l26.423 23.168zM393 116.64c-.397.666 21.128 18.39 26.624 22.888 11.091 8.466 21.36-7.142 7.76-12.066L393 116.64zM627.19 266.26c.436-.629-19.729-19.736-23.886-24.619-10.446-9.166-21.832 6.72-8.616 11.626l32.6 12.992zM377.67 168.63c-.181.649 26.336 10.784 32.143 13.63 13.409 4.63 17.693-13.4 3.13-13.809l-36.273.179zM646.04 216.36c.229-.636-26.482-12.49-31.067-16.712-13.046-6.4-18.632 12.204-4.136 13.67l36.202 2.143zM376.7 209.96c.098.666 28.689.262 36.207.762 14.214-.763 10.823-18.863-2.767-13.879L376.7 209.96zM646.91 164.97c-.06-.67-28.601-2.149-36.067-3.067-14.236-.184-12.178 18.096 1.743 14.027l33.324-10.96zM401.18 263.43c.396.667 26.926-11.641 32.016-13.899 12.438-6.662 1.04-21.438-8.89-11.338L401.18 263.43zM623.48 111.1c-.363-.682-26.717 9.907-32.966 11.769-12.889 6.727-2.61 21.318 8.037 11.896l24.92-23.664zM442.83 298.77c.697.362 18.872-20.474 23.606-24.846 8.643-10.718-8.072-20.062-12.926-7.037l-10.68 31.883zM682.64 76.063c-.669-.4-20.327 19.183-26.269 23.239-9.407 10.124 6.683 20.636 12.378 7.87l12.891-31.11z"/>
      <g transform="matrix(2.1824 0 0 2.0629 -406.01 -272.66)">
        <path d="M360.137 247.889c.626 2.6.781 16.662 14.844 30 14.062 13.437 37.969 16.406 37.969 16.406s.166 1.876-1.663 2.031c-1.719.167-9.844-1.662-13.906-2.812-4.063-1.26-7.666-3.438-8.126-3.281-.469.166-1.26 1.662-2.6 1.406s-7.031-6.26-9.631-7.813c-2.6-1.662-10.938-10.781-13.76-16.312-2.813-4.631-3.438-7.6-4.376-7.6-.938 0-4.219 2.187-4.219 2.187s-2.969-4.631-6.626-11.719c-2.666-7.187-2.344-11.406-1.719-11.718.626-.313.626 6.312 2.666 10.468 2.032 6.167 4.844 6.719 4.844 6.719s-1.876-2.666-3.281-9.376-1.876-13.126-.938-16.166c.938-2.031 1.876-2.666 2.032-2.6.166.166-1.719 3.126-.469 10.781s4.844 14.219 6.626 13.906c.781-.312-.469-1.876-1.094-6.406s.626-7.344 1.719-7.666c.469-.469 1.26 6 1.406 7.344zM360.292 260.699c-2.666-2.6-6.876-11.26-7.812-10.781-.938.469 6.876 12.969 7.031 14.063.166 1.093 1.876 4.631.626 4.062s-10.626-10.312-9.631-8.437 8.126 10.468 7.666 10.937-6.781-4.688-6.937-4.062c-.167.626 6.312 6.781 6.166 6.406s-3.438-3.281-3.438-2.6 3.438 4.687 3.438 6.312-2.969-2.812-2.031-.937c.937 1.876 3.693 3.694 3.437 4.219s-2.187-.782-2.187-.469c0 .312 3.906 1.719 4.843 2.812.938 1.094 7.344 8.438 12.188 12.188s18.694 10.166 19.631 10.166c.938 0 2.344-2.031 2.031-2.812-.312-.782-13.76-6.313-17.6-8.76-3.76-3.438-12.968-11.663-13.76-12.032-.781-.468-2.812-.312-2.812-.781s2.666.313 2.6 0c-.166-.312-3.76-1.876-3.694-2.187.166-.313 2.6.626 2.6.312 0-.312-4.219-2.666-4.062-3.126.166-.469 3.126 1.406 3.126 1.094 0-.313-4.063-3.126-3.907-3.694.167-.469 3.126 2.188 2.969 1.663s-2.344-3.907-2.344-4.376c0-.469 3.694 3.437 3.907 2.666.312-.781-1.26-7.188-1.094-7.344s2.646 1.422 3.114.484c.468-.937-1.837-2.241-4.062-4.078zM396.4 309.9c-1.893.249-2.747-.393-1.672-1.934 1.488-.11 6.449-1.379 6.849-1.96s2.894-1.416 4.137-2.634c1.24-1.22 1.903.782 1.282 1.819-.616.73-2.838 2.044-4.646 2.739-2.479.826-4.61 1.967-6.061 1.87zM408.887 304.769c-1.26-1.407-.166-2.344 1.719-3.438 2.812-1.662 2.032-3.693 6.626-6.312 1.663-.938 23.906-10 31.26-14.844s27.813-20.313 33.281-30.938c6.469-10.626 2.813-11.406 3.694-11.876.781-.468 1.663 1.663 1.406 3.907-.166 2.343-1.876 9.376-1.406 10s8.281-6.469 11.406-12.969 6.626-16.313 7.188-16.313c1.662 0-2.666 12.813-6.313 17.813-2.666 6-6.781 7.6-6 8.694.782 1.093 8.694-6.469 11.26-10.313 2.667-4.844 6.167-9.219 6.626-8.281.469.937-2.6 11.26-6.718 16.094-4.219 4.843-9.219 8.281-8.438 9.062.781.782 6.406 1.663 12.344-2.6 6.937-4.062 6.662-10 7.344-9.687.781.312-.782 8.437-6.407 13.437s-13.281 6.469-12.968 6.663c.312 1.094 16.26-4.631 16.937-3.281-.312 1.26-20.626 9.218-20.782 10 .001.626 3.439.781 8.907-.469 6.469-1.26 10.626-6.468 11.407-4.631.166 1.406-3.907 4.844-10.167 6.406-6.26 1.663-9.376 3.76-9.631 4.219-.166.468 11.094-1.407 11.094-.782s-14.688 3.438-14.844 4.22c-.166.781 14.062-2.813 13.76-2.032-.313.781-19.219 6.406-19.063 6.719.167.312 16.782-3.438 16.469-2.813-.312.626-26.406 7.969-26.662 8.438-.167.468 22.968-6.167 22.812-4.688s-12.031 3.437-12.031 3.76c0 .312 9.631-1.662 9.376-1.094-.166.469-24.063 6.663-24.632 7.6-.468.938 12.344-2.6 12.188-.781s-27.666 11.094-27.813 9.376c-.166-1.719 16.719-6.094 16.663-6.662-.166-.469-9.687 1.093-9.844.166-.166-.938 6.26-2.969 6.782-3.438-.469-.468-6.313 1.406-4.844.313.469-1.094 9.631-6.313 9.376-6.626-.166-.313-3.281 1.093-2.969 0 .313-1.094 19.687-6.719 19.376-7.344-.313-.626-8.906 1.406-9.687 1.662-.313-.624 12.031-6.166 11.718-6.937-.312-.781-6.662 2.666-6.874 1.719-.313-.938 10.781-6.313 10.166-6.938s-6.781 1.719-6.406 1.094 10.468-8.437 8.749-8.694c-1.718-.166-3.76 2.346-4.062.782.313-2.032 8.76-6.313 6.876-6.876-2.969-.938-13.126.626-17.344 3.126s-18.126 16.406-21.663 18.693c-3.437 2.188-16 7.032-17.187 7.969-3.438 1.26-4.063 3.126-7.6 4.844-6.261 1.719-6.26 3.694-9.219 4.687-1.093.313-12.343 6.781-12.6 6.313zM393.107 311.797c-1.876.938-3.693 3.438-2.601 4.376.626 1.26 2.601-2.666 4.063-2.6 1.663.166 3.76.167 7.969.47 4.219.312 6.406-.938 8.76-.782s7.667-1.26 10.167-1.26 2.968.312 3.281-.782c.312-1.093-7.813-.312-11.407-.468-3.693-.166-8.126.781-10.781.781-2.6-.166-6.876-.938-9.631.166z"/>
        <rect rx="1.719" ry="1.484" height="2.969" width="3.438" y="309.14" x="401.7"/>
        <path d="M446.02 307.731c1.718-.313 6.307 1.26 9.478 2.031 6.828 2.188 16.603 1.094 16.603 2.188s-.67 2.6-3.242 2.666-8.768-.937-8.687-.937 4.972 2.187 3.6 2.812-6.486-1.26-6.171-.781 3.771 1.406 3.086 1.719c-.686.312-3.782-.469-4.811-.312-1.028.166.868 1.249-.333 1.718-1.199.469-3.216-.624-4.073-.313-.867.314 1.846 2.032.646 2.188-1.2.166-4.089-.781-6.632-.937-1.643-.166 1.618 1.662.49 1.718-1.03.166-3.827-1.249-4.612-1.249s.064 1.874-.974 1.874c-1.029 0-2.239-1.662-2.763-1.662s.01 1.876-1.018 1.876-1.397-2.031-2.264-1.876c-1.014.167.026 2.666-1.346 2.6-1.371-.167-1.663-2.666-2.681-2.6-1.03.166.182 2.6-.847 2.6-1.028 0-1.196-2.344-2.224-2.6-1.028-.166-.62 2.187-1.206 2.187s-1.196-2.187-1.638-2.187c-.342 0-.004 2.187-1.206 2.031s-1.194-2.6-1.638-2.344c-.342.167-.348 1.719-1.204 1.719s-.863-1.662-1.196-1.406c-.344.166-1.648 2.187-2.406 1.876-.867-.313.206-1.876-.136-1.876-.343 0-1.406 1.093-2.092.937s.036-1.406-.137-1.406c-.171 0-1.76.781-2.436.781s-2.671 1.094-3.086.166c-.613-.937 1.342-.937 1.684-1.876.344-.937-.998-3.693.373-4.631 1.372-.937 6.668 1.26 12-.312 11.666-3.126 20.662-6.718 21.676-6.663z"/>
      </g>
    </g>
  </g>
</svg>
