<svg xmlns="http://www.w3.org/2000/svg" height="480" width="640">
  <defs>
    <clipPath id="a">
      <path fill-opacity=".67" d="M-86.333 0h682.67v612h-682.67z"/>
    </clipPath>
  </defs>
  <g clip-path="url(#a)" transform="translate(80) scale(.9376)">
    <g fill-rule="evenodd" stroke-width="1pt">
      <path fill="red" d="M-128 383.993h767.976v128H-128zM-128 0h767.976v128.001H-128z"/>
      <path fill="#fff" d="M-128 128.001h767.976v266.992H-128z"/>
    </g>
    <path d="M262.1 129.96c-7.81 16.693-13.018 16.693-26.034 26.99-6.206 6.198-13.016 7.797-2.603 12.996-10.413 6.197-16.62 7.797-20.827 18.192l2.603 2.699s9.896-4.86 10.414-2.699c1.73 2.078-13.024 10.061-14.929 11.263-1.904 1.212-11.106 6.93-11.106 6.93-13.016 10.397-20.827 7.796-28.637 23.39l26.034-2.697c6.207 18.192-13.017 20.79-26.034 28.688l-20.827 12.996c6.208 18.192 20.827 7.796 33.844 2.698l2.604 2.6v6.197l-26.034 12.996s-30.733 17.684-31.24 18.192c-.21.942 0 6.198 0 6.198 10.413 2.6 26.034 6.199 36.448 0 13.016-6.198 16.619-10.396 31.24-10.396-18.224 12.994-31.24 18.193-62.068 20.791v10.397c16.62 0 26.033 0 39.061-2.699l33.844-10.396c7.81 0 16.62 7.797 13.017 16.693-7.81 28.688-39.062 23.391-49.466 46.781l41.666-16.693c10.413-6.198 20.826-10.396 33.843-7.796 16.62 6.196 16.62 16.694 36.448 20.79l-6.206-12.993c6.206 2.698 10.413 2.698 16.619 6.197 13.018 6.2 16.621 10.396 31.24 7.797-13.016-16.694-16.619-12.994-26.033-23.39-10.413-16.694-16.62-38.984 0-41.684l18.224 6.199c18.223 2.698 18.223-2.699 44.267 7.797 16.621 6.197 20.828 12.994 39.062 7.796-7.81-18.192-36.448-31.188-64.671-36.386 20.826-12.996 16.619 6.198 44.267-2.6v-6.196c-20.826-16.694-28.637-28.69-67.276-28.69l44.269-6.198v-6.198s-43.649-11.461-44.664-11.868c.304-1.32 1.372-3.366 4.27-4.497 8.289 6.366 33.367 4.74 34.78 4.64-.732-6.396-12.61-11.676-23.023-16.873 0 0-44.69-27.483-44.811-29.916.884-6.966 18.314 1.107 37 6.624-6.206-10.396-16.62-16.693-26.033-18.192l16.62-2.698c-10.413-23.391-36.448-20.792-62.067-31.188-10.416-7.797-10.416-12.996-26.034-20.792z" fill="#007900"/>
    <path stroke-linejoin="round" d="M223.96 303.07c1.932-6.194 4.476-11.674-7.117-16.964-11.693-6.278 6.796 21.114 7.117 16.964zM237.69 290.68c-2.337.304-3.66 8.836 1.117 11.169 6.188.81.917-11.066-1.117-11.169zM261.22 289.77c-2.442.712-2.643 12.691 6 10.66 8.643-2.13-.103-11.673-6-10.66zM266.98 269.01c1.83-2.946-.101-16.026-7.426-9.96-7.321 6.077 6.086 10.762 7.426 9.96zM261.01 248.96c2.239-.812 2.442-8.223-3.964-6.294-6.406 1.93 2.238 7.817 3.964 6.294zM236.68 261.9s-4.476-6.193-7.933-4.874c-4.373 4.163 8.238 4.976 7.933 4.874zM186.99 271.69c1.906.173 16.027-2.329 20.908-7.81 4.88-6.483-26.127 2.346-26.127 2.447 0 .101 2.836 4.844 4.22 6.363zM328.1 236.73c.728-1.296-7.617-7.172-12.416-4.866-1.261 4.339 12.376 6.748 12.416 4.866zM300.34 222.76c1.626-2.233-3.668-11.37-13.727-6.294-10.17 6.076 10.676 9.848 13.727 6.294zM268.2 217.38s2.641-8.223 8.644-6.6c6.916 6.281-8.34 6.906-8.644 6.6zM262.2 211.19c-.917-2.336-7.323-.913-14.644 3.868-7.324 4.772 16.88 1.422 14.644-3.868zM280.91 189.06s6.623-2.92 8.44 0c2.747 4.366-8.641.102-8.44 0zM276.44 186.2c-1.322-2.64-8.64-2.89-8.366.926-1.21 2.989 9.38 2.432 8.366-.926zM268.24 186.21c-.711-1.623-10.98.029-14.032 6.193 4.899 2.382 16.271-2.336 14.032-6.193zM236.27 192.61s-13.61 8.26-14.339 14.316c.41 6.229 16.778-9.442 16.778-9.442s1.424-6.787-2.439-4.873zM221.32 186c.378-1.68 6.676-6.672 7.22-6.28.61 1.694-6.143 6.28-7.22 6.28zM226.69 216.67c.304-2.437-16.068-2.236-9.864 6.278 6.166 6.301 10.984-4.161 9.864-6.278zM210.69 227.36c-.864-1.647-2.082-6.038-4.324-6.442-1.827-.103-11.672 1.928-12.426 3.694-.406 1.32 4.076 9.436 6.602 9.638 1.729.71 10.842-6.978 11.147-6.79zM299.02 282.46c.608-1.726 17.239-7.607 23.016-1.976 6.812 9.34-23.421 4.922-23.016 1.976zM346 293.39c3.666-6.204-11.267-13.669-17.692-6.47 2.166 8.617 14.628 11.6 17.692 6.47z" fill-rule="evenodd" stroke="#fff" stroke-linecap="round" stroke-width="3.219" fill="#fff"/>
  </g>
</svg>
