<svg xmlns="http://www.w3.org/2000/svg" xmlns:xlink="http://www.w3.org/1999/xlink" height="480" width="640">
  <path fill="#002b7f" d="M0 0h640v240H0z"/>
  <path fill="#ce1126" d="M0 240h640v240H0z"/>
  <g transform="scale(.8)" fill="#ffd83d" stroke="#000" stroke-width="2" stroke-linecap="round" stroke-linejoin="round">
    <g id="a">
      <path d="M216.377 122.29l-1.838 62.6h-63.42c-7.803-16.17-14.247-28.063-14.247-46.498 0-14.6 11.483-26.196 28.033-26.196 17.62 0 36.77 6.904 61.47 9.192z" stroke="none"/>
      <g stroke-width="1.6">
        <path d="M144.466 126.16v36.076m6.094-39.766v48.033m6.093-60.661v67.226m6.093-68.407v44.882m6.094-46.104v46.327m6.093-46.91v46.886m6.094-46.886v46.886m6.093-46.426v46.886m6.094-46.426v46.886m6.093-43.899v46.886m6.093-46.426v62.86m6.094-62.86v46.886m6.093-46.886v46.886"/>
        <path d="M176.396 117.923c10.764 1.776 34.407 12.837 31.71 27.803-3.82 21.21-16.208 12.698-32.63 9.66l-12.407 4.137c-4.44 4.632-10.978 8.683-16.396 3.217h-7.363v28.722h81.342V122.06z" fill="#000"/>
      </g>
      <circle cx="212.816" cy="112.983" r="4.94"/>
      <circle cx="201.713" cy="110.311" r="4.94"/>
      <circle cx="190.46" cy="107.482" r="4.94"/>
      <circle cx="179.143" cy="106.696" r="4.94"/>
      <circle cx="167.836" cy="104.481" r="4.94"/>
      <circle cx="166.749" cy="106.113" r="4.94"/>
      <circle cx="146.179" cy="108.732" r="4.94"/>
      <circle cx="137.276" cy="116.28" r="4.94"/>
      <circle cx="130.967" cy="124.414" r="4.94"/>
      <circle cx="127.912" cy="136.166" r="4.94"/>
      <circle cx="128.027" cy="146.301" r="4.94"/>
      <circle cx="130.162" cy="167.216" r="4.94"/>
      <path d="M214.998 119.63l-.46 6.436c-12.29-1.883-29.714-8.732-46.966-8.732-16.006 0-26.664 6.003-26.664 21.14 0 14.92 6.316 28.486 14.704 42.28l-8.73 4.136c-7.804-16.17-14.248-28.063-14.248-46.498 0-14.6 11.484-28.962 31.26-28.962 17.62 0 36.39 6.904 60.092 9.19z"/>
    </g>
    <use height="100%" width="100%" xlink:href="#a" transform="matrix(-1 0 0 1 443.938 0)"/>
    <path d="M221.97 63.126l-6.167 9.666 6.166 9.626 6.166-9.626-6.166-9.666zm0 24.376l-6.167 9.626 6.166 9.666 6.166-9.666-6.166-9.626zm-18.383-2.647l8.132 6.166 8.104-6.167-8.106-6.166-8.133 6.166zm20.626 0l8.106 6.166 8.13-6.167-8.13-6.166-8.107 6.166z"/>
    <circle cx="221.969" cy="76.069" r="3.906"/>
    <circle cx="221.969" cy="100" r="10.466"/>
    <path d="M219.344 89.876c0 3.114-.022 4.924-.03 6.626a62.606 62.606 0 0 0-7.44.78m20.19 0a62.126 62.126 0 0 0-7.44-.78v-6.626m-12.78 12.688a61.39 61.39 0 0 1 10.126-.844c3.46 0 6.83.292 10.124.843" fill="none" stroke-width="1.6"/>
    <path d="M211.76 117.688c-.992 17.082-3.01 34.48-9.666 47.124l10.812-4.376c3.777-14.328 4.67-32.842 6.72-41.693l-6.876-1.166zm20.438 0l-6.876 1.166c1.148 8.76 1.942 27.266 6.718 41.694l10.814 4.376c-6.648-12.646-8.666-30.043-9.666-47.126z"/>
    <path d="M221.963 164.688c-12.913 0-22.4 6.086-22.97 21.693-3.166-6.664-16.61-23.024-28.967-20.686-7.41 1.39-13.967 11.666-12.844 23.437-6.136-17.63-24.107-20.618-37.22-10.093 11.643 9.673 16.822 37.836 26.626 60.094h160.76c9.804-12.268 16.014-40.62 26.666-60.093-13.112-10.426-31.083-7.636-37.218 10.094 1.113-11.77-6.466-22.046-12.876-23.436-12.468-2.338-26.78 16.132-28.937 20.687-.67-16.606-10.086-21.693-23-21.693z"/>
    <g stroke-width="1.6">
      <path d="M297.107 219.026c0 6.68-33.662 11.718-76.138 11.718-41.477 0-76.14-6.137-76.14-11.718 0-6.68 33.663-8.602 76.14-8.602 41.476 0 76.137 2.92 76.137 8.602z" fill="#000"/>
      <circle cx="221.969" cy="114.446" r="3.604"/>
      <circle cx="221.969" cy="122.027" r="3.734"/>
      <circle cx="221.969" cy="130.184" r="4.079"/>
      <circle cx="221.969" cy="139.261" r="4.663"/>
      <circle cx="221.969" cy="149.371" r="6.113"/>
      <path d="M219.938 169.206c-.663-.007-1.076.46-.938 1.344.163 1.043.367 2.996.663 4.312.22 1.493 1.09 1.13 1.312-.03.22-1.162.132-1.907.188-4.064.027-1.078-.673-1.666-1.126-1.662zm4.062 0c-.663.007-1.163.484-1.126 1.662.066 2.167-.034 2.902.188 4.063.22 1.162 1.09 1.626 1.312.032.196-1.317.4-3.27.663-4.312.138-.886-.386-1.36-.938-1.344zm-7.687.662c-.606.07-1.03.68-1 1.126.066.996.33 2.19.437 3.688.11 1.66 1.202.948 1.313.063.11-.884.236-2.192.126-3.906-.042-.643-.323-.926-.667-.97a.84.84 0 0 0-.217 0zm11.093 0c-.334.043-.616.326-.666.97a20.13 20.13 0 0 0 .126 3.906c.11.886 1.202 1.486 1.313-.062.107-1.498.382-2.69.437-3.687.03-.644-.494-1.064-1-1.126a.84.84 0 0 0-.22 0zm-16.437 1.76c-.464.12-.89.677-.76 1.313.276 1.273.63 2.68.63 3.97 0 1.106.946.71 1-.063a69.76 69.76 0 0 0 .166-3.906c0-1.114-.474-1.43-.937-1.312zm19.686 0c-.33.09-.626.477-.626 1.313 0 1.494.103 3.133.168 3.907.066.774 1 1.17 1 .063 0-1.29.264-2.697.63-3.97.14-.636-.286-1.192-.76-1.312a.66.66 0 0 0-.312 0zm-69.093.17c-.666-.017-.943.736-.663 1.664.608 1.327 1.264 2.166 1.876 3.694.663 1.27 1.4.478 1.126-.407-.277-.886-.677-1.87-1.406-3.76-.31-.706-.7-.99-1.03-1zm98.812 0c-.332.012-.72.296-1.03 1-.83 1.88-1.13 2.867-1.407 3.76-.277.886.67 1.68 1.126.408.62-1.43 1.266-2.267 1.876-3.694.38-.83-.008-1.68-.663-1.663zm-94.812.064c-.408.124-.666.642-.407 1.26.498 1.216 1.217 2.463 1.72 3.78.44 1.162 1.426.833 1.093-.218-.333-1.06-.432-1.666-1.096-3.666-.332-.996-.906-1.28-1.312-1.166zm90.6 0c-.36.074-.762.41-1 1.166-.664 1.99-.763 2.606-1.094 3.666-.333 1.06.66 1.38 1.093.22.602-1.32 1.22-2.666 1.718-3.782.26-.608.003-1.126-.406-1.26a.692.692 0 0 0-.312 0zm-86.6.97c-.616.096-.913.88-.663 1.842.443 1.217 1.072 2.368 1.626 3.76.663 1.383 1.47 1.104 1.26.22-.22-.886-.492-2.362-1.166-4.663-.29-.967-.768-1.326-1.167-1.26zm80.812 0c-.4-.078-.866.28-1.166 1.26-.666 2.21-.936 3.676-1.167 4.66-.222.886.696 1.166 1.26-.218.663-1.382 1.182-2.633 1.626-3.76.36-.96-.06-1.746-.663-1.843zm-93.187.686c-.667.067-1.066.966-.72 1.666.664 1.106.904 1.483 1.438 2.667.663 1.217 1.16.276.938-.6-.222-.774-.606-1.676-.78-2.78-.204-.81-.642-1.066-.876-1.032zm106.662 0c-.334-.034-.672.22-.876 1.03-.276 1.107-.66 2.008-.78 2.783-.223.776.383 1.717.936.6.636-1.173.886-1.66 1.44-2.666.344-.69-.163-1.6-.72-1.666zm-67.03 2.798c-.686 0-1.21.774-1 1.6.33 1.16.843 2.19 1.218 3.687.33 1.327 1.274.666 1.218-.218-.066-.886-.207-2.09-.693-3.97-.146-.704-.494-1-.844-1zm28.6 0c-.362 0-.7.296-.846 1-.387 1.88-.638 3.084-.694 3.97-.064.883.888 1.644 1.22.217.374-1.496.887-2.626 1.22-3.687.206-.726-.417-1.6-1-1.6zm-14.26 1.187c-.72 0-.82.966-.846 1.76-.083 2.672-1.16 6.07-2.062 6.313-.913 1.244-2.266.913-3.6.26-1.246-.664-1.986-1.16-3.313-2.166-1.327-.996-2.334-.414-.76 1.843 4.617 6.68 9.626 12.206 9.626 22.938 0 1.39.242 1.813.844 1.813.6 0 .874-.424.874-1.812 0-10.732 4.976-16.366 9.694-22.937 1.683-2.267.677-2.84-.76-1.843-1.327.996-2.07 1.492-3.313 2.166-1.244.663-2.688.994-3.6-.26-.913-1.244-1.98-3.74-2.062-6.313-.026-.784-.126-1.76-.844-1.76zm-36.282-1.61a.692.692 0 0 0-.188.03c-.27.086-.448.41-.344.97.186 1.002.88 2.967 1.167 3.906.276.94 1.432.74 1.166-.632-.278-1.272-.263-1.666-.696-3.094-.18-.786-.747-1.27-1.187-1.28zm70.662 0c-.44.012-1.006.496-1.187 1.28-.332 1.44-.318 1.823-.694 3.096-.278 1.272.878 1.472 1.166.63.276-.938.97-2.903 1.166-3.906.106-.66-.074-.884-.342-.97a.698.698 0 0 0-.188-.03zm-91.63.406c-.68.046-.996.772-.407 1.843.633 1.167 1.72 2.608 2.218 3.438.6.83 1.36.27.76-.78-.607-1.06-.81-2.268-1.63-3.76-.27-.66-.684-.778-1.03-.76zm112.6 0c-.36-.028-.763.19-1.032.76-.72 1.492-.924 2.7-1.632 3.76-.608 1.06.263 1.61.76.78.498-.83 1.686-2.28 2.22-3.437.687-1.07.172-1.798-.407-1.844zm-144.19 3.328c-.667-.036-.876 1.17-.26 1.97.914 1.16 1.66 1.776 2.696 2.718.83.746 1.07-.222.666-.97-.413-.746-1.013-1.604-1.842-2.76-.466-.68-.863-.96-1.167-.968zm176.876 0c-.303.016-.7.287-1.166.97-.83 1.244-1.43 2.003-1.844 2.76-.414.746-.173 1.714.667.968 1.046-.942 1.68-1.668 2.693-2.72.627-.797.418-2.003-.26-1.968zm-170.843 1c-.633.007-.884.4-.47 1.313.696 1.307 1.378 2.787 1.876 3.782.496.996 2.013 1.33 1.406-.22-.608-1.647-.728-2.342-1.28-3.78-.278-.72-1-1.1-1.632-1.094zm166.812 0c-.632-.007-1.266.376-1.63 1.094-.664 1.438-.674 2.233-1.282 3.78-.61 1.66.908 1.216 1.406.22.497-.996 1.28-2.476 1.874-3.78.414-.914.063-1.307-.47-1.314zm-176.662.344c-.774.008-.84.784-.167 1.28.913.666 2 1.4 3.063 2.26 1.243.997 1.726.08 1.06-.76-.662-.828-1.308-1.67-2.967-2.6-.416-.206-.743-.282-1-.28zm186.312 0c-.268-.003-.686.074-1 .28-1.66.83-2.306 1.672-2.97 2.6-.662.83-.18 1.747 1.064.76 1.06-.86 2.16-1.686 3.06-2.26.686-.496.62-1.272-.166-1.28zm-109.666.72c-.434.06-.808.66-.626 1.186.33 1.16.708 2.392.937 3.694.223 1.162 1.666 1.176 1.346.126-.22-1.06-.332-2.366-.72-3.97-.144-.6-.447-.89-.76-.936a.62.62 0 0 0-.186 0zm33.81 0c-.3.046-.604.336-.76.936-.386 1.604-.497 2.92-.717 3.97-.222 1.06 1.122 1.036 1.343-.126.23-1.202.606-2.433.938-3.694.18-.636-.192-1.127-.626-1.187a.62.62 0 0 0-.19 0zm-63.906-1.986c-.34.094-.636.744-.28 1.666 1.41 6.06 1.84 7.724 1.693 8.97-.26 1.243-.932 1.413-1.844 1a18.844 18.844 0 0 1-2.813-1.696c-.828-.68-1.69.114-.6 1.094 6.066 4.977 10.263 10.666 11.876 17.663.332 1.41 1.218 1.676.97 0-1.373-8.69-1.637-16.833.437-20.312.78-1.683-.006-3.3-1.26-.662-.83 1.826-2.172 2.646-3.26.97-1.08-1.677-3.306-6.78-3.97-7.69-.248-.714-.666-1.046-.812-1.092a.362.362 0 0 0-.166 0zm94.03 0c-.266.047-.662.378-.81 1.093-.666 1.907-2.892 6.11-3.97 7.687-1.08 1.676-2.42.866-3.26-.97-1.244-2.736-2.03-1.12-1.26.664 2.074 4.48 1.81 11.623.438 20.313-.26 1.676.637 1.41.968 0 1.624-6.898 6.82-12.686 11.876-17.662 1.192-.98.33-1.674-.6-1.093-.83.68-1.9 1.18-2.812 1.694-.912.416-1.696.246-1.844-1-.26-1.244.184-3.91 1.694-8.968.264-.912.068-1.662-.28-1.666a.362.362 0 0 0-.168 0zm-124.467 2.422c-.647.007-1 .39-.76 1.22.398 1.328 1.223 2.764 1.6 3.693.276.83 1.166.443 1-.718-.166-1.16-.248-1.863-.47-3.126-.11-.636-.734-.976-1.28-.97zm166.062 0c-.646-.007-1.17.333-1.28.97-.223 1.27-.304 1.963-.47 3.124-.166 1.16.723 1.648 1 .72.276-.83 1.1-2.266 1.6-3.696.26-.83-.204-1.212-.76-1.22zm-136.28-1.736c-.636-.114-.728 1.624-.19 2.188.72.886 1.72 1.966 2.72 3.167.83.996 1.342.11.844-.72-.498-.83-1.236-1.71-2.663-3.81-.33-.627-.6-.776-.81-.814zm117.6 0c-.213.038-.482.287-.814.813-1.327 2.1-2.066 2.982-2.662 3.812-.498.83.014 1.714.844.72 1-1.203 2-2.272 2.718-3.167.64-.663.448-2.3-.187-2.187zm-132 3.964c-.396-.027-.73.292-.664 1.094.232 1.117.667 2.044.844 3.096.276 1.06 1 .87 1-.126 0-.996-.178-2.106-.344-3.167-.083-.626-.643-.878-.937-.906zm146.6 0c-.396.028-.866.38-.94.906-.166 1.06-.342 2.16-.342 3.167 0 .996.723 1.176 1 .126.276-1.06.612-1.978.843-3.094.167-.8-.167-1.12-.66-1.093zm-133.407 1.42c-.62.096-1.164.693-.438 1.626 1.16 1.493 2.432 2.64 2.876 3.094.442.663 1.663.36.844-.813-.736-1.186-1.846-2.616-2.344-3.6-.187-.33-.666-.462-.937-.406zm120.062 0c-.272.03-.648.16-.687.407-.498.886-1.61 2.314-2.344 3.6-.72 1.162.4 1.366.844.813.442-.663 1.713-1.6 2.876-3.094.726-.933.18-1.63-.438-1.626a.873.873 0 0 0-.26 0zm-140.72 4.174c-.487-.043-.666.36 0 1.26 1.494 2.047 3.14 6.143 3.26 6.47.112 1.327-.644 1.312-1.166 1.312-1.826 0-2.716-1.332-4.376-1.72-1.66-.386-1.9.487-.72 1.346 6.084 4.424 12.18 9.36 14.626 13.844.996 1.826 2.342 2.493 1.696.76-2.287-6.336-2.84-9.866-2.344-12.693.6-2.737 1.178-4.68 1.096-6.166-.083-1.676-.977-1.467-1.344 0-.248.996-.73 2.316-1.06 2.813-.333.498-1.667.777-2.94-.937-1.27-1.714-4.48-6.016-6.63-6.844-.394-.31-.8-.606-1.094-.63zm161.626 0c-.292.027-.7.22-1.092.632-1.06.83-4.26 4.13-6.632 6.844-1.272 1.714-2.606 1.436-2.937.937-.333-.498-.816-1.817-1.064-2.812-.367-1.467-1.26-1.676-1.343 0-.083 1.677.696 3.42 1.093 6.167s-.066 7.267-2.343 12.694c-.747 1.743.698 1.076 1.693-.76 2.447-4.484 8.643-9.42 14.626-13.843 1.182-.868.942-1.73-.717-1.344-1.66.387-2.66 1.72-4.376 1.72-.61 0-1.268.014-1.167-1.313.112-1.327 1.768-4.423 3.26-6.47.668-.9.49-1.293 0-1.26z" fill="#000" stroke="none"/>
      <path d="M160.127 212.66l1.96 6.176m2.06-7.344l1.728 6.24m2.606-6.962l1.187 6.366m2.833-7.17l1.27 6.36m3.886-6.868l1.032 6.392m4.462-6.386l1.112 6.378m4.242-8.19l.803 6.426m4.234-6.1l.804 6.426m4.07-7.073l.806 6.424m4.088-6.928l.442 6.46m4.786-6.462l.384 6.463m4.367-6.79l.326 6.467m4.9-6.793l.272 6.47m6.74-6.632l.272 6.47m79.044.176l-1.96 6.176m-2.06-7.344l-1.728 6.24m-2.604-6.962l-1.187 6.366m-2.832-7.17l-1.27 6.36m-3.886-6.868l-1.033 6.392m-4.463-6.386l-1.112 6.378m-4.24-8.19l-.806 6.426m-4.233-6.1l-.804 6.426m-4.07-7.073l-.804 6.424m-4.09-6.928l-.442 6.46m-4.787-6.462l-.382 6.463m-4.367-6.79l-.326 6.467m-4.9-6.793l-.27 6.47m-6.742-6.632l-.27 6.47m-7.203-6.89v7.122"/>
    </g>
  </g>
</svg>
