<svg xmlns="http://www.w3.org/2000/svg" xmlns:xlink="http://www.w3.org/1999/xlink" height="480" width="640">
  <path fill="#ffb700" d="M0 0h640v480H0z"/>
  <path d="M26.667 240l88-213.333h88v426.666h-88z" fill="#ff6b00"/>
  <path fill="#006641" d="M26.667 26.667h88v426.666h-88z"/>
  <path fill="#8d2029" d="M229.333 26.667H616v426.666H229.332z"/>
  <path id="a" d="M679.263 408.666s3.626 7.382 7.632 10.39c6.936 4.466 18.104 4.134 23.27 9.333 6.187 6.13-.482 14.23-.426 14.933l.338 4.28s-4.173.06-6.93.323c-2.642.412-3.672 2.662-8.69 2.243-12.37-.803-11.87-11.946-12.67-21.467-.62-3.627-2.068-8.364-2.876-11.98-.7-3.107-.86-8.066-.86-8.066z" fill="#ffb700" stroke="#000" stroke-width="1.134"/>
  <use height="100%" width="100%" xlink:href="#a" transform="matrix(-1 0 0 1 846.333 0)"/>
  <use height="100%" width="100%" xlink:href="#a" transform="matrix(1 0 0 -1 0 480)"/>
  <use height="100%" width="100%" xlink:href="#a" transform="rotate(180 422.667 240)"/>
  <g transform="translate(0 -76)">
    <use xlink:href="#b" width="100%" height="100%" stroke="#000" stroke-width="6.66"/>
    <g id="b" fill="#ffb700">
      <path d="M363.488 416.766l2.326-1.342.996 1.346c1.326 1.79 4.99 1.77 7.424-.04l1.86-1.387 1.668 1.387c2.048 1.822 6.873 1.824 8.316.006 1.71-1.274 1.96-1.3 3.08-.33.673.677 2.66 1.236 4.392 1.46 3.138.408 3.186.386 6.02-2.368 1.638-2.306 1.78-3.24 1.412-6.477a69.406 69.406 0 0 1-.683-6.304c-.14-2.697-.126-2.613 3.668-3.93 2.09-.728 4.608-1.703 6.374-2.17 1.61-.81 6.676-6.706 6.676-6.67 0-.266-1.627-.647-3.616-.87-7.912-.887-9.26-6.136-4.11-13.026 8.388-12.87 13.46-26.4 13.483-33.384.016-3.67.218-4.767.677-3.99 1.874 3.17-1.483 16.467-6.67 26.016l-2.046 3.846 1.964-.46c1.074-.247 7.392-2.913 14.04-6.924 18.194-8.24 24.444-9.866 36.22-9.36 9.864.416 14.066 2.344 21.03 9.66 3.69 3.87 7.246 6.638 13.747 10.708 13.863 8.672 14.43 9.423 16.09 19.62.667 10.333.336 10.893-7.48 12.62-6.68 1.476-10.866 4.69-11.99 8.916-.6 2.31.663 2.377 4.03.213l2.468-1.686 1.098 1.686c1.443 2.086 4.61 2.094 7.067.02L611 413.98l1.967 1.667c3.066 2.436 7.118 1.844 8.266-1.2.22-.686.808-.4 2 .636 2.232 1.94 7.964 2.772 8.67 1.247.237-.682-.21-2.02-.994-3.194-3.33-4.992-4.37-7.372-4.414-10.09-.06-3.78 1.067-6.602 6.366-8.676 6.222-3.734 6.836-8.66 2.864-8.66-2.462 0-4.923-2.168-6.6-6.7-3.204-7.18-2.676-16.228 2.233-28.617 4.886-13.6 6.427-16.108 6.446-26.203.016-7.364-.17-8.626-1.842-12.668-1.022-2.466-3.098-6.136-4.612-8.167l-2.763-3.676 3.634-2.928c10.79-8.94 8.683-23.672-4.407-29.21-3.976-1.726-4.968-1.877-11.932-1.83-4.177.028-10.66.678-14.167 1.222-3.68.666-9.907 1.184-14.18 1.2-6.786.028-7.937-.14-10.663-1.63-2.727-1.463-3.196-2.142-3.728-6.497-.11-.69-.692-1.378-1.072-1.63-.927-.29-6.21 3.426-6.844 6.073-.312.813-.667.767-1.483-.327-.61-.72-1.468-2.373-1.888-3.674-1.08-3.273.247-6.726 4.093-7.664l2.984-1.426-1.76-1.092c-3.63-2.263-9.806-.712-12.038 3.006-.632 1.062-1.32 1.914-1.63 1.916-.21 0-1.412-1.002-2.67-2.23-4.687-4.68-3.076-11.368 3.196-13.428 3.344-1.103 6.303-.26 6.918 1.968.94 3.406 3.862-1.07 3.338-6.11-.348-2.688-.296-2.78 1.663-2.78 2.684 0 8.087 3.392 9.79 6.036 1.976 3.07 1.832 7.906-.343 11.61l-1.708 2.83 2.233-.448c3.276-.667 6.46-2.69 8.07-6.16 1.702-2.608 1.886-7.687.376-10.428-1.464-2.667-1.297-3.078.866-2.18 3.68 1.626 6.646 3.21 7.12 6.096 1.33 2.6 1.403 3.244.684 6.96-.444 1.67-1.43 3.864-2.194 4.88-1.188 1.68-1.23 1.844-.282 1.844 1.762 0 6.443-1.668 6.76-3.06.66-.703 1.624-2.434 2.14-3.847l.94-2.67 1.078 1.96c1.626 2.768 4.492 6.26 8.11 6.81 3.89 1.668 6.608 1.762 3.474.202-1.37-1.062-3.9-8.47-3.133-9.194.46-.426 6.732 3.638 11.762 9.06 6.704 6.12 9.288 6.8 14.627 6.8 6.692 0 10.69-6.827 7.68-11.336-1.763-3.212-6.66-3.668-7.944-.908-1.06 1.266-1.34 2.27-1.03 3.698.376 1.626.23 1.84-1.262 1.84-1.946 0-6.78-2.487-12.69-8.17-10.384-8.666-23.002-16.01-32.114-18.693-6.847-1.722-18.337-2.394-24.28-1.306-6.434 1.177-14.043 4.868-18.19 8.8-7.344 6.982-7.46 16.276-.31 24.738l2.06 2.424-1.387 2.164c-2.018 3.134-1.846 7.362.428 10.46 1.002 1.367 2.012 2.486 2.246 2.486.233 0 .49-.88.668-1.966.2-2.718 1.368-4.64 3.37-6.26 1.804-.66 2.97-.343 11.227 2.963 8.688 3.468 22.976 3.706 38.166.637 7.447-1.604 16.228-1.416 20.092.203 7.082 2.967 8.724 10.686 3.617 16.646-2.264 2.636-4.428 3.67-11.726 6.672-6.663 1.624-6.868 1.626-19.49 1.6-10.782-.11-14.668.1-19.06 1.018-4.778.997-7.717 1.098-21.764.744l-16.23-.41 1.8 1.49c.99.82 2.39 1.83 3.11 2.243 1.223.702 1.182.797-.637 1.47-1.07.398-3.443.722-6.274.722h-3.33l-.46 2.83c-.246 1.666-.227 3.372.042 4.037.398.98.26 1.12-.783.746-.702-.264-2.662-.766-4.336-1.112-1.684-.368-3.96-1.086-6.036-1.617-1.828-.896-2.03-.87-2.704.32-.6 1.063-6.24 6.26-7.068 6.26-.134 0-.306-.808-.383-1.798-.078-.99-.89-3.664-1.81-6.723-.916-2.168-1.874-4.613-2.127-6.232-.383-1.086-.666-1.14-1.017-.327-.304.64-.76 2.01-.99 3.27-.24 1.26-1.09 3.304-1.89 4.646l-1.462 2.266-.926-1.93c-.996-2.07-2.646-4.217-3.244-4.217-.202 0-.646.662-.764 1.472-.466 1.69-4.372 6.376-6.328 6.376-.362 0-.64-1.326-.64-2.944 0-1.618-.31-2.943-.69-2.943-.38 0-.692.418-.692.93 0 1.246-3.344 4.966-4.466 4.966-.49 0-1.277.44-1.76.98-1.232 1.408-2.24 1.21-1.723-.337.243-.726.086-2.418-.36-3.76-.437-1.346-.9-2.776-1.03-3.18-.166-.608-1.366-.373-3.9.44-4.1 1.316-6.474 1.082-3.366-.67.77-.602 1.942-2.693 2.604-4.646.662-1.96 1.64-3.683 2.17-3.848.746-.23.706.066-.172 1.242-.627.846-1.142 1.99-1.144 2.64 0 .648-.474 1.86-1.048 2.894-.674 1.042-.936 2-.802 2.126s1.692-.468 3.466-1.318l3.224-1.646.013 1.382c.007.76.396 2.766.863 4.468l.86 3.076 2.194-1.008c2.243-1.03 4.367-4.706 4.367-7.666 0-1.408.807-1.192 1.137.306.098.44.604 2.088 1.126 3.664l.96 2.864 1.602-1.81c.826-.994 1.862-2.946 2.302-4.336.763-2.413 1.962-3.46 1.962-1.698 0 1.263 3.447 6.792 4.11 6.403.323-.188.963-1.888 1.423-3.778.96-3.93 2.606-6.602 3.487-6.028.37.217.613.636.32.933-.194.296.6 2.86 1.763 6.678a2667.7 2667.7 0 0 1 2.697 6.323c.426 1.048.81.896 3.304-1.307 1.663-1.37 2.962-2.906 3.132-3.41.266-.764.602-.736 2.064.166 2.03 1.26 8.866 3.29 9.383 2.79.198-.187.4-1.98.46-3.984l.09-3.643 1.964.408c1.078.224 3.348.21 6.043-.03l3.082-.44-2.746-1.883c-1.612-1.036-3.04-2.377-3.396-2.98-.38-.642-1.724-1.187-3.247-1.316-4.114-.36-11.407-4.44-11.407-6.4 0-.367 1.01.268 2.246 1.39 2.738 2.61 6.643 4.086 9.866 4.086h2.486l-1.638-2.046c-.883-1.176-1.676-3.406-1.862-6.24-.296-2.922-.606-3.387-3.667-6.608-1.833-1.276-4.104-3.186-6.046-4.246l-1.713-1.928-.873 2.29c-.48 1.268-1.068 2.288-1.306 2.288-.238 0-1.162-.736-2.064-1.636-.892-.898-1.8-1.63-2.02-1.627-.218.004-1.01 1.216-1.766 2.692l-1.368 2.686-1.06-1.647c-.678-.86-1.942-2.367-3.03-3.346-1.09-.99-1.664-1.8-1.274-1.8.39 0 1.733 1.03 2.988 2.29l2.28 2.29.93-1.677c.66-.996.766-2.626.607-3.76-.364-1.804-.313-1.91.378-.777.44.72 1.774 2.1 2.966 3.066l2.167 1.767 1.494-2.738c1.487-2.726 1.498-2.73 2.174-1.103.906 2.176 7.466 7.646 13.033 10.684.86.483.498-1.18-1.09-6.004-.42-1.012-.764-2.838-.764-4.067 0-1.808-.622-2.612-2.834-4.372-3.34-2.64-4.42-4.347-6.048-8.446-.266-1.66-.84-3.607-1.298-4.103-.682-.886-.794-.39-.612 2.69.123 2.078-.147 4.66-.6 6.74l-.824 1.96-.637-1.634c-.36-.9-1.898-2.463-3.44-3.476-1.643-1.013-2.626-2.01-2.407-2.218.22-.208 1.807.714 3.627 2.06 2.622 2.034 3.2 2.264 3.662 1.368.426-1.063 0-6.633-.826-8.834-.41-1.698-.376-1.69 1.697.382 1.464 1.464 2.268 3.188 2.88 6.213.792 3.843 1.192 4.483 4.746 7.604 2.134 1.874 3.99 3.302 4.127 3.173.136-.13.406-4.976.6-10.773.37-11.116-.06-13.76-2.727-17.194l-1.376-1.764 2.162-2.333c2.82-3.042 4.116-6.48 4.678-8.808l.467-2.706-2.44 2.31c-1.998 1.892-2.963 2.31-6.267 2.31-2.29 0-3.186-.383-4.73-2.03-1.863-1.973-6.136-3.873-8.293-4.797-1.167-.342-1.664-.193-1.664.696 0 .677-.646 2.246-1.432 3.708l-1.43 2.667-3-2.964c-1.84-1.818-4.024-3.233-6.648-3.66-4.16-1.092-4.376-.983-4.376 2.108 0 4.69-2.002 6.664-6.606 2.447-2.747-2.377-6.026-2.893-10.236-2.32l-4.023.442.723 1.816c.606 1.617.468 2.166-.827 3.88-2.1 2.793-4.833 4.004-9.04 4.004-1.936 0-4.36.4-6.386.89-1.026.49-3.674 1.066-6.663 1.266-2.09.2-4.316.667-4.948.793-.99.37-1.1.066-.78-2.186.487-3.446-1.92-6.986-6.67-6.986-4.863 0-7.107 4.362-6.202 10.092a44.633 44.633 0 0 1 1.066 3.872c.228 1.063 2.42 3.884 6.103 6.67 2.687 2.688 6.033 6.282 6.434 6.986.402.703 1.73 1.832 2.96 2.61l2.22 1.228-.294-2.373c-.322-2.61.247-3.02 1.636-1.177.498.668 1.768 1.722 2.803 2.364 1.646 1.012 1.9 1.032 1.9.164 0-.668.336-1.842.746-2.866l.746-1.84 1.293 2.604c.712 1.378 3.026 4.61 6.14 6.96 4.107 4.762 6.61 10.063 6.318 11.286-.624.496-1.94.467-4.874-.132-2.274-.466-6.087-.698-6.26-.636-2.38.33-2.666.023-1.104-1.807 1.643-1.932 1.298-2.26-1.734-2.26-3.607 0-12.213-1.682-16.666-3.006-3.26-1.286-4-.966-4.966 2.117-.43 1.386-1.22 3.9-1.762 6.686l-.97 3.064 3.618-.34c1.933-.186 4.42-.61 6.627-.94 1.106-.332 2.112-.608 2.234-.392.123.116-.37 1.313-1.096 2.66l-1.317 2.46 2.192-.447c1.206-.246 3.02-.847 4.03-1.336 1.76-.86 1.903-.79 3.29 1.44 1.708 2.74 3.073 2.626 3.376-.28.316-3.004 1.303-2.66 3.162 1.42 1.787 3.83 3.647 6.18 4.004 2.91.12-.762 1.082-1.978 2.14-2.724 2.14-1.608 3.764-1.066 4.678 1.312.968 2.46-1.177 4.977-7.388 8.742-12.44 7.64-19.672 17.866-21.737 31.002-1.863 11.867 3.963 24.11 16.62 32.91 6.684 4.212 14.464 8.667 13.89 6.96-2.394-7.2-2.316-20.946.133-23.263.368-.348.242 1.086-.28 3.186-1.944 7.826-1.1 14.06 3.883 28.673 4.607 13.217 3.883 18.866-2.496 22.6-2.048 1.2-3.367 1.396-8.876 1.33-6.977-.073-6.628.047-8.647 1.676-1.86 1.482-4.272 6.36-4.272 8.62 0 1.23 1.366 1.068 4.06-.482z"/>
      <path d="M460.607 416.6l2.607-1.613 1.7 1.612c2.23 2.11 4.842 2.063 6.986-.128.934-.966 1.774-1.617 1.866-1.47.09.146.608.863.927 1.673.63.91 1.62 1.37 3.686 1.607 2.37.167 3.006-.062 3.946-1.422l1.122-1.622 2.468 1.686c6.767 4.343 10.368-.213 7.338-9.286-1.634-4.613-.69-7.206 4.26-13.078 2.086-2.476 3.796-6.118 3.797-6.872 0-1.202-.386-1.363-3.164-1.308-2.667.063-3.436-.233-4.834-1.773-2.276-2.606-2.14-6.373.402-8.667l2.032-2.643-3.606-2.446c-1.984-1.346-6.66-4.628-7.947-7.074-6.362-6.717-10.634-8.428-17.687-9.042l-4.66-.413.006 3.63c.01 4.642 2.14 8.912 7.96 16.313 6.616 8.416 7.077 9.72 7.346 20.718l.227 9.304-1.916 1.816c-1.73 1.64-2.61 1.86-8.093 2.173-6.314.306-6.43.68-7.99 1.962-2.07 1.836-2.69 2.833-3.33 6.367-.373 1.476-.222 1.798.844 1.798.716 0 2.427-.726 3.806-1.61zm-142.203-24.044c.69-.8 1.076-2.09 1.076-2.87 0-1.176.626-1.49 3.11-1.866l3.11-.442-2.076-1.663c-2.464-1.963-2.692-3.497-.62-3.6 2.163 0 6.827-2.247 6.383-3.91.26-.77.096-1.804-.368-2.333-1.213-1.384-3.492-1.176-3.916.368-.466 1.66-1.217 1.663-2.946.016-2.6-2.46-2.668-7.666-.122-10.623 1.196-1.4 1.186-1.49-.34-2.934-1.64-1.664-2.81-4.628-2.04-6.367.246-.232 1.64-.047 2.88.41 1.9.662 2.662.662 3.436.046 2.373-1.866-.198-4.266-4.003-3.736-1.632.213-2.166 0-2.386-.794-.166-.603-1.606-1.39-3.016-1.77-2.697-.683-2.716-.674-2.716 1.184 0 2.036-1.162 2.42-3.37 1.114-1.796-1.062-3.636-.238-3.636 1.674 0 1.783 1.793 2.662 6.007 2.466 2.466-.16 2.666 1.674.216 4.31l-1.683 1.894 1.333 1.917c1.976 2.838 1.81 7.66-.348 9.892l-1.692 1.834-1.11-1.472c-1.642-2.046-3.662-1.908-4.23.276-.38 1.43-.066 2.083 1.724 3.698 1.203 1.018 2.96 1.86 3.902 1.86 2.336 0 2.244 1.837-.183 3.692l-1.9 1.462 2.936.464c1.613.26 2.934.72 2.934 1.047 0 1.248 2.034 6.13 2.688 6.13.378 0 1.17-.666 1.762-1.466z"/>
      <path d="M366.623 374.89c2.666-1.06 8.438-6.937 8.438-7.146 0-.38-1.692-2.132-3.64-3.893-4.097-3.707-8.664-9.96-9.708-13.6-.602-1.904-3.612-6.162-11.707-13.11L329.1 326.663l-3.144.796c-1.73.438-3.838.807-4.687.82-1.466.022-1.438.106.607 1.612l2.063 1.69 2.878-1.6c2.79-1.647 2.89-1.666 3.233-.31.202.73-.232 1.993-1.004 2.922-.747.9-1.173 1.92-.946 2.27.227.347-.49 1.074-1.696 1.616-2.048 1.002-3.47 4.304-1.863 4.304 1.464 0 4.66-3.966 4.29-6.294-.188-.686-.097-1.39.204-1.666 1.26-.73 1.17 2.376-.098 3.902-.747.9-1.173 1.92-.946 2.27.227.347-.49 1.076-1.696 1.616-2.036.996-3.47 4.304-1.87 4.304 1.672 0 4.726-3.78 4.336-6.194-.206-.74-.127-1.49.174-1.666.84-.492 1.296 1.96.686 3.16-.38.646-.378 1.623.008 2.22.698 1.262-.01 3.686-1.297 4.44-.66.322-.177.966 1.16 1.966 1.938 1.463 1.976 1.616 1.976 8.07 0 6.392.218 6.784 1.21 7.723 1.11 1.064 1.208 1.067 1.208.047 0-1.103 1.937-2.462 3.62-2.462.47 0 3.39 2.476 6.49 6.6 3.12 3.043 6.386 6.632 7.31 6.797.92.164 1.916.338 2.212.387.297.06 1.696-.366 3.107-.923zM323.18 348.8c0-1.74-3.688-3.694-7.877-4.076-3.463-.39-3.62-.367-3.62 1.363 0 1.432.646 1.996 2.936 3.036 3.842 1.673 8.46 1.496 8.46-.324z"/>
      <path d="M327.11 348.64c1.76-1.687 2.677-3.476 1.626-3.476-1.21 0-4.423 2.883-4.423 3.97 0 1.694.697 1.692 2.897-.496zm-3.73-6.14c.16-.982-.467-1.637-2.276-2.468-3.923-1.772-8.613-2.693-9.743-1.706-2.08 1.636-.693 3.83 2.67 4.226 1.363.16 3.19.672 4.078.918 2.686 1.004 6.042.647 6.273-.98zm0-6.266c.213-1.4-.682-1.9-7.987-4.47-6.463-1.92-7.868-1.016-6.126 2.296.607 1.164 1.626 1.68 3.912 2.023 1.7.266 4.022.762 6.162 1.106 3.044.944 4.803.61 6.04-.966zm3.66-4.922c1.102-1.118 2.004-2.436 2.004-2.93 0-1.604-4.363 1.233-4.908 3.198-.666 2.367.414 2.268 2.904-.267zm-3.66-.331c.242-1.694-2.41-3.033-7.622-4.14-3.826-.812-6.612-.36-6.226 1.426.166.97 1.43 1.68 6.043 2.807 6.783 1.804 7.622 1.784 7.806-.093zm6.1-7.419c6.68-2.973 7.268-10.472.96-12.44-2.617-.818-4.286-.377-6.287 1.394-.767 1.367-.264 3.823.794 3.823.366 0 .644.467.644 1.014 0 2.604-10.198 3.784-14.38 1.664-1.47-.746-2.11-2.678-.886-2.678.914 0 1.646-1.97 1.08-3.363-.638-1.898-2.66-2.666-6.326-1.83-6.26 1.637-6.086 8.994.29 12.116 6.227 2.66 16.686 2.716 22.112.3z"/>
      <path d="M324.326 319.808c.387-.366.22-.93-.43-1.44-1.42-1.116-1.344-2.776.214-4.676 1.17-1.427 1.316-3.663 1.717-26.106.694-37.126 3.466-66.06 7.094-71.76 1.46-2.666 1.246-2.677-2.497-.13-4.823 3.28-8.494 7.664-11.747 13.67-6.142 11.647-8.277 27.083-8.277 60.246 0 18.83.128 21.294 1.2 23.064 1.02 1.68 1.073 2.302.367 4.098-.464 1.164-.674 2.276-.467 2.472 1.37 1.3 11.36.964 12.836-.443zm66.123-36.403c.21-.32-.263-1.94-1.027-3.697-1.207-2.686-1.693-3.014-3.413-3.014-6.387 0-14.048-2.408-22.977-6.388-6.166-2.298-6.937-2.826-7.666-2.24-1.677 1.494 1.046 6.04 6.106 6.904 3.6 1.664 13.67 3.686 18.266 3.686 2.666 0 2.728.12 1.21 2.312l-1.114 1.612 3.016.078c1.668.042 3.947.302 6.087.676 2.96.714 2.987.714 3.407.072z"/>
      <path d="M411.92 301.136c0-.96-2.818-3.66-6.674-6.236-2.242-1.316-2.613-1.366-2.618-.282-.007 1.63-1.466 6.723-2.026 6.723-.32 0-.796-.8-1.066-1.777-.26-.978-1.346-2.906-2.416-4.282l-1.946-2.603-1.614 2.32c-1.412 2.163-3.867 4.282-4.942 4.282-.26 0-.31-1.14-.113-2.633.213-1.613.048-2.713-.412-2.982-.423-.247-.77-.16-.77.192 0 .816-3.396 4.668-4.114 4.668-.296 0-.71-1.104-.92-2.463-.21-1.36-.67-3.483-.796-4.742-.227-1.26.267-.406 1.076 1.897l1.487 4.187 1.63-2.662c.898-1.403 1.633-2.936 1.636-3.407 0-.47.306-.68.674-.464.368.217.88 1.904 1.14 3.76l.47 3.366 1.794-1.968c.987-1.082 2.144-2.63 2.67-3.22.762-1.228.806-1.227 2.32.067.847.72 2.16 2.44 2.897 3.824.747 1.383 1.467 2.413 1.68 2.29.12-.126.394-1.663.606-3.172.212-1.618.4-3.003.42-3.076.106-.4 6.406 3.043 7.367 4.788 1.26 1.12 2.467 1.88 2.66 1.69.203-.192.368-1.847.368-3.676 0-2.836-.3-3.696-2.034-6.146-1.994-1.783-2.06-1.793-2.786-.49-.967 1.694-2.086 1.718-2.086.046 0-1.22-3.768-6.91-4.76-6.91-.263 0-1.046 1.03-1.762 2.29s-1.486 2.288-1.71 2.287c-.968-.006-6.28-6.928-6.278-6.997 0-.86.368-.633 1.29.787.707 1.08 2.12 2.69 3.14 3.68 2.066 1.802 2.817 1.364 3.614-2.11.227-.988.62-1.797.876-1.797.884 0 6.608 4.912 6.16 6.64l.662 1.636.496-1.8c.604-2.2 1.272-2.28 2.237-.274.404.838 2.396 2.68 4.428 3.873l3.693 2.36.743-2.364c.407-1.3.948-2.047 1.2-1.66.376.677-.684 4.492-1.308 6.336-.11.127-1.306-.67-2.66-1.66l-2.463-1.777-.01 3.184c-.006 1.76-.196 3.847-.426 4.666-.448 1.683-1.637 2.028-1.637.613zm-18.416-26.386c-4.39-3.666-6.067-4.606-4.96-6.242l.104-1.86.287 1.787c.167 1.043 1.336 2.606 2.81 3.766l2.623 1.97 1.66-1.793c.864-.986 1.663-2.16 1.677-2.61.036-1.173.246-1.076 3.218 1.604 2.64 2.292 2.682 2.303 3.076.82.22-.83.14-2.387-.173-3.464-.863-2.96-.694-3.407.614-1.622.66.89 1.698 2.147 2.326 2.796 1.096 1.126 1.162 1.11 1.67-.33.233-.826.43-2.34.434-3.363l.01-1.86 2.38 2.698c2.226 2.622 2.43 2.616 3.11 1.413.398-.707.73-2.41.736-3.78.007-1.776.194-2.222.646-1.647.764 1.13.23 4.2-1.16 6.816l-.997 1.877-1.31-2.04c-1.676-2.61-2.234-2.668-3.31.248-1.016 2.66-1.676 2.863-2.666.817-.64-1.324-.763-1.162-1.218 1.62l-.606 3.092-3.03-2.362-3.027-2.36-1.362 1.648c-.76.86-1.372 1.916-1.384 2.366-.027.976-.766 1.006-1.866.08zm39.061-13.664c-1.698-1.44-2.7-2.813-2.447-3.062.263-.24.637-.308.632-.162.096.166 1.4 1.628 2.903 3.062 3.467 3.607 2.746 3.607-1.088.162zm-62.016-6.376c-1.466-1.966-1.366-3.268.416-6.398 1.278-1.64 1.862-1.748 4.096-1.466 1.432.182 4.614 1.448 6.86 2.812 2.696 1.676 6.484 2.63 7.644 2.894 1.87.227 3.4.313 3.4.19 0-.122-.776-1.388-1.726-2.813-2.266-3.382-2.178-3.746.366-1.718 2.61 2.08 6.734 2.69 12.712 2.477l3.41-.106-1.978-1.966c-2.766-2.736-1.916-2.98 1.14-.328 2.866 2.486 2.686 2.662-3.346 3.263-2.662.266-6.318.07-7.61-.612-3.426-.87-3.66-.868-2.91.29.374.663.98 1.204 1.347 1.204.366 0 .666.336.666.746 0 1.26-7.402.162-10.94-1.64-8.08-4.09-9.097-4.444-11.02-3.838-1.07.337-2.14 1.324-2.61 2.313-1.232 3.3 3.448 6.866 6.378 2.948.66-.846.43-1.424-.664-2.462-1.347-1.41-1.22-1.61.697-.96 1.29.47 1.466 3.668.264 4.706-1.373 1.3-4.608.932-6.692-.67z" fill="#000"/>
      <path d="M412.368 248.67c-1.01-.966-.218-1.19 4.312-1.276 6.604-.106 9.008-1.04 13.024-3.674 3.218-2.03 4.09-1.63 1.036.476-2.786 1.92-7.132 3.398-11.328 3.86-2.03.22-4.347.622-6.146.673-.798.16-1.663.084-1.9-.16z" fill="#000"/>
    </g>
  </g>
</svg>
