<svg xmlns="http://www.w3.org/2000/svg" height="480" width="640">
  <defs>
    <clipPath id="a">
      <path fill-opacity=".67" d="M0 0h682.67v612H0z"/>
    </clipPath>
  </defs>
  <g clip-path="url(#a)" fill-rule="evenodd" transform="scale(.9376)">
    <path fill="#fff" d="M0 .084h767.87v611.92H0z"/>
    <path fill="#006" d="M0 0h232.74v232.76H0z"/>
    <path fill="#c00" d="M0 464.87h767.89v47.127H0z"/>
    <path fill="#c00" d="M0 466.43h767.89v46.674H0zM0 372.62h767.89v46.21H0zM0 279.26h766.96v46.7H0zM232.67.066h636.17v46.494H232.67zM232.67 186.06h636.17v46.796H232.67zM232.67 93.361h636.17v46.494H232.67z"/>
    <path d="M166.36 177.47l-60.71-30.98-60.466 31.29 18.769-60.86-60.373-31.394 62.321-.438 19.328-60.691 19.744 60.674 62.321.067-60.116 31.693 19.184 60.732z" fill="#fff"/>
  </g>
</svg>
