<svg xmlns="http://www.w3.org/2000/svg" version="1" width="640" height="480" viewBox="0 0 320 240">
  <defs>
    <clipPath id="a">
      <path d="M26-60h400v300H26z"/>
    </clipPath>
  </defs>
  <g transform="matrix(.8 0 0 .8 -20 48)" clip-path="url(#a)">
    <path fill="#fff" d="M0-60h460v300H0z"/>
    <path fill="#009643" d="M0 160h460v90H0z"/>
    <path fill="#00209f" d="M0-60h460v90H0z"/>
    <path d="M224.764 36.669c-1.71.037-3.378 1.93-3.378 1.93l.148 20.234-6.388 6.692h6.17l-.043 11.602-30.691 41.193-4.622-1.663-7.906 16.861s19.66 12.241 47.926 11.907c31.143-.37 48.064-12.472 48.064-12.472l-8.168-16.644-4 1.74-30.983-40.98-.043-11.948h6.17l-7.037-6.61.042-20.169s-1.762-1.82-3.462-1.783z" stroke="#000" stroke-width="1.000616"/>
    <path d="M236.43 84.01h-21.163s-7.678-16.177-6.433-27.486c1.267-11.616 7.848-16.963 16.698-17.06 10.346-.116 16.767 6.07 17.406 16.699 1.623 11.424-6.418 27.946-6.418 27.946z" fill="none" stroke="#000" stroke-width="6.0003060999999996"/>
    <path d="M187.788 122.67c-.346.46-2.882 6.632-2.882 6.632l4.38-.922-1.498-4.61zM190.324 129.14l-4.61 1.498 6.632 2.19-.922-3.688zM192.398 122.686l2.306 6.8 6.648-1.613-1.499-3.228-6.466-1.96zM196.972 131.906l.806 2.766 7.493 1.846-2.997-6.34-6.302 1.729zM204.27 126.143l2.662 6.34 6.648-2.19-1.846-2.767-6.464-1.383zM207.969 134.788l.922 2.42 8.76 1.268-3.688-6.763-6.994 2.076zM216.373 127.987l3.228 6.648 8.183-2.997-.922-2.19-10.489-.46zM221.099 136.71l1.729 2.997 10.143-.346-3.804-6.648-8.068 2.997zM231.819 128.218l2.766 4.726 6.466-3.112-1.73-2.636-7.491.923zM242.423 131.79l-6.466 3.228 1.729 2.766 8.646-1.383-3.92-4.61zM244.498 126.834l3.342 4.16 6.418-4.266-1.846-1.96-6.916 2.076zM264.41 129.024l-6.187 3.92 1.384 2.42 7.146-1.844-3.343-4.496zM261.667 120.84l1.267 1.846-3.673 6.302-3.688-4.726 6.994-2.42zM263.977 126.461l2.19 4.38-4.38 1.499-.346-2.076 2.636-3.804z" fill="#fff"/>
  </g>
</svg>
