<svg xmlns="http://www.w3.org/2000/svg" height="480" width="640">
  <g fill-rule="evenodd" stroke-width="1pt">
    <path fill="#00319c" d="M0 0h213.337v480H0z"/>
    <path fill="#ffde00" d="M213.337 0h213.338v480H213.337z"/>
    <path fill="#de2110" d="M426.662 0H640v480H426.662z"/>
  </g>
  <path d="M360.376 320.377l24.267 36.012c1.348 1.946 2.696 3.89.66 6.178-2.036 1.289-1.374 6.467-.026 8.412 2.696 3.89 6.08 4.647 8.116 3.269l18.319-11.694c2.036-1.288 2.723-4.622.027-8.412-1.648-1.96-6.08-4.647-8.116-3.269-2.036 1.289-3.384-.666-4.732-2.602l-24.267-36.012" fill-rule="evenodd" stroke="#000" stroke-width=".7296678999999999" fill="#ff1900"/>
  <path d="M177.17 696.26c0 24.461-9.618 44.291-21.26 44.291-11.741 0-21.26-19.83-21.26-44.291s9.618-44.291 21.26-44.291c11.741 0 21.26 19.83 21.26 44.291z" fill-rule="evenodd" transform="matrix(.62728 -.42386 .44368 .60386 -32.42 19.918)" stroke="#000" stroke-width="2.64" fill="#a77b3b"/>
  <path d="M261.962 306.142L240.63 342.81c-1.19 2.037-2.38 4.074-4.612 2.937-2.132-1.138-6.646 1.8-7.836 3.836-2.38 4.076-1.439 7.249.693 8.386l19.186 10.236c2.132 1.137 6.464.238 7.834-3.837 1.114-2.213 1.44-7.248-.693-8.386-2.132-1.137-.941-3.174.249-6.211l21.423-36.667" fill-rule="evenodd" stroke="#000" stroke-width=".7296678999999999" fill="#ff1900"/>
  <path d="M331.169 280.677h-19.632c-.646.617-6.2 36.698-12.208 48.993-7.324 16.33-29.26 30.741-29.26 30.741s13.142 3.98 17.063 6.686c.972-.273 21.936-4.666 24.377-30.329 2.442 26.664-14.61 37.329-14.61 37.329s24.416 6.999 24.416 23.33c0-16.331 24.416-23.33 24.416-23.33s-12.246-11.666-14.687-37.329c4.882 26.664 23.48 30.066 24.463 30.33 3.91-2.607 17.063-6.687 17.063-6.687s-21.936-14.41-29.26-30.741c-6.007-13.396-11.662-48.376-12.207-48.993zM248.124 163.907l36.623 11.666c12.207 0 24.416-11.662 24.416-23.318.406-26.96-9.766-36.007-12.208-36.007l4.884-4.666-7.326-7s2.449-12.102 26.866-11.662c24.407.46 24.416 11.666 24.416 23.33s-12.208 11.666-12.208 34.996c0 11.666 12.208 23.33 24.416 23.33l36.623-11.666v116.661H248.124V163.908z" fill-rule="evenodd" stroke="#000" stroke-width="1.7113473" fill="#a77b3b"/>
  <g stroke="#000" fill="none">
    <path d="M302.16 292.24l14.646 14.964 14.644-14.964 14.646 14.964 29.29-14.964 14.261 16.809 16.028-16.809 21.606 16.809 22.329-16.809 14.646 14.964 14.646-14.964" transform="matrix(.16672 0 0 .46773 263.9 31.899)" stroke-width=".49"/>
    <path d="M432.28 436.83l-7.086 38.976M436.83 436.83v38.976M442.91 436.83v38.976M460 436.83l3.643 38.976M467.09 436.83l3.643 38.976" transform="matrix(.68906 0 0 .66843 16.176 -144.034)" stroke-width=".203"/>
  </g>
  <g stroke="#000" stroke-width="2.64">
    <path d="M318.9 361.42c36.433 17.717 36.433 63.149 36.433 70.866-1.261 16.117 0 364.33 0 364.33s-2.306-20.022-17.717-36.433L318.9 733.467l-17.717-17.717c-12.961-11.774-17.716-36.433-17.716-63.16V414.67s0-17.717 36.433-63.16z" fill-rule="evenodd" transform="matrix(-.68906 0 0 .66843 443.446 -144.034)" fill="#a77b3b"/>
    <path d="M283.46 674.02c.417 0 17.716-17.717 17.716-17.717l17.717 17.717 17.716-17.717 17.717 17.717" transform="matrix(-.68906 0 0 .66843 443.446 -237.364)" fill="none"/>
    <path d="M283.46 674.02c.417 0 17.716-17.717 17.716-17.717l17.717 17.717 17.716-17.717 17.717 17.717" transform="matrix(-.68906 0 0 -.66843 443.446 630.2)" fill="none"/>
    <path d="M283.46 674.02c.417 0 17.716-17.717 17.716-17.717l17.717 17.717 17.716-17.717 17.717 17.717" transform="matrix(-.68906 0 0 .66843 443.446 -190.696)" fill="none"/>
    <path d="M301.39 666.99l-.208 168.76" transform="matrix(-.68906 0 0 1.24911 443.446 -666.794)" fill="none"/>
    <path d="M301.39 639.27l-.208 176.48" transform="matrix(-.68906 0 0 1.12111 431.38 -463.993)" fill="none"/>
    <path d="M301.39 639.27l-.208 176.48" transform="matrix(-.68906 0 0 1.2669 419.17 -648.331)" fill="none"/>
  </g>
  <g stroke="#000" stroke-width="2.64">
    <path d="M318.9 361.42c36.433 17.717 36.433 63.149 36.433 70.866-1.261 16.117 0 364.33 0 364.33s-2.306-20.022-17.717-36.433L318.9 733.467l-17.717-17.717c-12.961-11.774-17.716-36.433-17.716-63.16V414.67s0-17.717 36.433-63.16z" fill-rule="evenodd" transform="matrix(.68906 0 0 .66843 199.292 -144.034)" fill="#a77b3b"/>
    <path d="M283.46 674.02c.417 0 17.716-17.717 17.716-17.717l17.717 17.717 17.716-17.717 17.717 17.717" transform="matrix(.68906 0 0 .66843 199.292 -237.364)" fill="none"/>
    <path d="M283.46 674.02c.417 0 17.716-17.717 17.716-17.717l17.717 17.717 17.716-17.717 17.717 17.717" transform="matrix(.68906 0 0 -.66843 199.292 630.2)" fill="none"/>
    <path d="M283.46 674.02c.417 0 17.716-17.717 17.716-17.717l17.717 17.717 17.716-17.717 17.717 17.717" transform="matrix(.68906 0 0 .66843 199.292 -190.696)" fill="none"/>
    <path d="M301.39 666.99l-.208 168.76" transform="matrix(.68906 0 0 1.24911 199.292 -666.794)" fill="none"/>
    <path d="M301.39 639.27l-.208 176.48" transform="matrix(.68906 0 0 1.12111 211.368 -463.993)" fill="none"/>
    <path d="M301.39 639.27l-.208 176.48" transform="matrix(.68906 0 0 1.2669 223.66 -648.331)" fill="none"/>
  </g>
  <path d="M177.17 696.26c0 24.461-9.618 44.291-21.26 44.291-11.741 0-21.26-19.83-21.26-44.291s9.618-44.291 21.26-44.291c11.741 0 21.26 19.83 21.26 44.291z" fill-rule="evenodd" transform="matrix(.63606 .26323 -.26602 .60778 361.161 -166.211)" stroke="#000" stroke-width="2.64" fill="#a77b3b"/>
  <path fill-rule="evenodd" fill="red" d="M248.119 176.688h146.493v69.991H248.119z"/>
  <path d="M248.12 246.68h146.492v34.996c0 23.33-36.623 23.33-73.246 46.66-36.624-23.33-73.247-23.33-73.247-46.66V246.68z" fill-rule="evenodd" fill="#664dff"/>
  <path d="M336.61 486.43h212.6v169.46c0 36.433-63.16 36.433-106.3 70.866-63.149-36.433-106.3-36.433-106.3-70.866V486.43z" transform="matrix(.68906 0 0 .66843 16.177 -144.034)" stroke="#ff0" stroke-width="2.032" fill="none"/>
  <path d="M386.69 129.9s-60.618 66.447-60.618 108.6c0 63.149 63.149 70.866 63.149 70.866s-17.717 0-17.717 70.866c0 36.433 63.16 17.717 63.16 36.433 0 17.717-.761 60.678 0 88.683 0 17.716-36.433 0-36.433 17.716 0 8.869 26.676 63.16 63.16 63.16 26.674 0 63.149-44.291 63.149-63.16 0-17.716-36.433 0-36.433-17.716v-88.683c0-17.716 63.16 0 63.16-36.433 0-70.866-17.717-70.866-17.717-70.866s63.16-17.717 63.16-70.866-60.619-108.6-60.619-108.6c0-.001 28.473 73.163 28.473 108.6 0 17.717-13.287 63.149-48.72 63.149 0 0-8.961-17.716-17.717 0 0 0-10.189-17.716-17.716 0-2.698 6.116-7.207-17.716-17.717 0-4.466 4.697-7.984-17.716-17.717 0-17.716 0-63.148-17.716-63.149-63.149 0-36.433 32.902-108.6 32.902-108.6z" fill-rule="evenodd" transform="matrix(.48234 0 0 .30917 108.623 140.092)" stroke="#000" stroke-width="2.448" fill="#ff0"/>
  <path d="M382.68 248.03c-3.643 3.643 4.681 61.274 7.087 63.779 3.643 3.643 24.803 3.643 28.346 0 2.626-2.626 0-66.693-3.643-60.236-3.643-3.644-29.384-6.049-31.89-3.643z" fill-rule="evenodd" transform="matrix(.48234 0 0 .30917 110.363 201.69)" stroke="#000" stroke-width="2.448" fill="#ff0"/>
  <path d="M382.68 248.03c-3.643 3.643 4.681 61.274 7.087 63.779 3.643 3.643 24.803 3.643 28.346 0 2.626-2.626 0-66.693-3.643-60.236-3.643-3.644-29.384-6.049-31.89-3.643z" fill-rule="evenodd" transform="matrix(-.48234 0 0 .30917 632.374 201.69)" stroke="#000" stroke-width="2.448" fill="#ff0"/>
  <path d="M414.67 228.64c0 8.806-7.139 16.946-16.946 16.946-8.806 0-16.946-7.139-16.946-16.946 0-8.806 7.139-16.946 16.946-16.946 8.806 0 16.946 7.139 16.946 16.946z" fill-rule="evenodd" transform="matrix(.6644 0 0 .38642 82.69 183.727)" stroke="#000" stroke-width="2.448" fill="#ff0"/>
  <path d="M414.67 228.64c0 8.806-7.139 16.946-16.946 16.946-8.806 0-16.946-7.139-16.946-16.946 0-8.806 7.139-16.946 16.946-16.946 8.806 0 16.946 7.139 16.946 16.946z" fill-rule="evenodd" transform="matrix(.66441 0 0 .38643 118.046 183.727)" stroke="#000" stroke-width="2.448" fill="#ff0"/>
  <path d="M336.763 307.498c0 1.613-1.913 2.739-4.273 2.739-2.36 0-4.272-1.226-4.272-2.739s1.913-2.739 4.272-2.739c2.36 0 4.273 1.226 4.273 2.739zM314.631 307.498c0 1.613-1.913 2.739-4.273 2.739-2.36 0-4.272-1.226-4.272-2.739s1.913-2.739 4.272-2.739c2.36 0 4.273 1.226 4.273 2.739z" fill-rule="evenodd"/>
  <path fill-rule="evenodd" transform="matrix(.67226 0 0 .64237 26.002 -133.336)" stroke="#000" stroke-width="1.084" fill="#ff0" d="M439.37 649.92l-7.78-10.26-12.77 1.76 1.76-12.76-10.26-7.78 10.26-7.79-1.76-12.76 12.77 1.76 7.78-10.27 7.78 10.27 12.77-1.76-1.76 12.76 10.26 7.79-10.26 7.78 1.76 12.76-12.77-1.76z"/>
  <path d="M496.06 691.73l21.26 10.63 21.26-10.63-21.26-10.63-21.26 10.63z" fill-rule="evenodd" transform="matrix(.68906 0 0 .66843 16.176 -144.034)" stroke="#000" stroke-width="1.084" fill="#ff0"/>
  <path d="M496.06 691.73l21.26 10.63 21.26-10.63-21.26-10.63-21.26 10.63z" fill-rule="evenodd" transform="matrix(.68906 0 0 .66843 -88.808 -144.034)" stroke="#000" stroke-width="1.084" fill="#ff0"/>
  <path d="M636.04 669.06c-3.643-7.086-14.173-10.63-21.269-10.63-7.087 0-14.174 0-21.26 10.63 0-14.173 10.602-21.26 21.26-21.26 10.766 0 21.269 10.603 21.269 21.26z" fill-rule="evenodd" transform="matrix(.69763 -.3279 .34316 .67097 -166.149 86.49)" stroke="#000" stroke-width="1.084" fill="#ff0"/>
  <path d="M386.22 661.97a7.087 7.087 0 1 1-14.173 0 7.087 7.087 0 0 1 14.173 0z" fill-rule="evenodd" transform="matrix(.68906 0 0 .66843 13.736 -166.7)" stroke="#000" stroke-width="1.084" fill="#ff0"/>
  <path d="M386.22 661.97a7.087 7.087 0 1 1-14.173 0 7.087 7.087 0 0 1 14.173 0z" fill-rule="evenodd" transform="matrix(.68906 0 0 .66843 8.861 -139.368)" stroke="#000" stroke-width="1.084" fill="#ff0"/>
  <path d="M386.22 661.97a7.087 7.087 0 1 1-14.173 0 7.087 7.087 0 0 1 14.173 0z" fill-rule="evenodd" transform="matrix(.68906 0 0 .66843 6.41 -148.7)" stroke="#000" stroke-width="1.084" fill="#ff0"/>
  <path d="M386.22 661.97a7.087 7.087 0 1 1-14.173 0 7.087 7.087 0 0 1 14.173 0z" fill-rule="evenodd" transform="matrix(.68906 0 0 .66843 18.618 -139.368)" stroke="#000" stroke-width="1.084" fill="#ff0"/>
  <path d="M386.22 661.97a7.087 7.087 0 1 1-14.173 0 7.087 7.087 0 0 1 14.173 0z" fill-rule="evenodd" transform="matrix(.68906 0 0 .66843 21.06 -148.7)" stroke="#000" stroke-width="1.084" fill="#ff0"/>
  <path d="M386.22 661.97a7.087 7.087 0 1 1-14.173 0 7.087 7.087 0 0 1 14.173 0z" fill-rule="evenodd" transform="matrix(.68906 0 0 .66843 13.736 -146.367)" stroke="#000" stroke-width="1.084" fill="#ff0"/>
  <g fill-rule="evenodd">
    <path d="M297.774 120.38c-12.323 0-13.962 1.946-19.633 3.89 0-6.366 13.722-11.666 26.044-11.666 0 3.889-3.266 7.778-6.611 7.777z" fill="#da4600"/>
    <path d="M316.484 107.932c0 2.677-2.186 4.666-4.883 4.666s-4.883-2.089-4.883-4.666 2.186-4.666 4.883-4.666 4.883 2.09 4.883 4.666z" fill="#cac9c7"/>
    <path d="M361.42 367.87v10.63h17.717v63.16h10.63V368.6h17.716v-10.63h-17.716v-14.173h-10.63v14.173H361.42z" stroke="#000" stroke-width="1.084" fill="#ff0" transform="matrix(.68906 0 0 .66843 16.176 -144.034)"/>
    <path d="M304.263 112.607c-14.376 0-22.787 1.294-29.298 3.887 0-7.166 8.412-16.663 22.787-16.663 3.266 0 6.61 7.776 6.61 11.666z" fill="#da4600"/>
  </g>
  <g fill-rule="evenodd">
    <path d="M67.323 612.99c-14.173-14.17-16.634-21.36 3.643-10.1l283.76 247.6-3.366 6.968-283.93-244.37z" transform="matrix(.38821 .29663 -.14073 .23692 237.462 71.286)" stroke="#000" stroke-width=".711" fill="#008600"/>
    <path d="M228.398 330.406c.77-10.686-18.61-22.036-19.377-21.292-.767.744 1.178 6.907 4.864 10.119-7.038-3.626-14.41-6.869-14.664-4.286-.674 2.122 10.937 7.19 11.893 9.148.166 1.399-8.464 1.216-8.297 2.616.166 1.4 24.26 13.673 26.49 3.694zM209.036 299.67c.769-10.684-18.611-22.036-19.378-21.29-.767.743 1.178 6.906 4.864 10.117-7.038-3.626-14.41-6.868-14.664-4.284-.674 2.122 10.938 7.19 11.893 9.147.166 1.4-8.463 1.217-8.297 2.616.166 1.399 24.26 13.673 26.491 3.694zM194.217 271.674c.77-10.686-18.611-22.036-19.377-21.291-.767.743 1.178 6.906 4.863 10.118-7.038-3.626-14.409-6.869-14.663-4.286-.674 2.123 10.937 7.19 11.893 9.148.166 1.399-8.464 1.216-8.298 2.616.167 1.4 24.26 13.673 26.492 3.696zM179.668 241.24c.769-10.686-18.611-22.036-19.378-21.291-.767.743 1.179 6.906 4.864 10.118-7.038-3.626-14.41-6.869-14.664-4.286-.674 2.123 10.938 7.19 11.894 9.148.166 1.399-8.464 1.216-8.298 2.616.166 1.4 24.26 13.673 26.491 3.696z" fill="#008f00"/>
    <path d="M184.603 239.866c9.377-6.682 7.64-27.386 6.46-27.633-1.082-.16-6.124 6-6.662 9.733-1.116-7.666-3.603-14.662-6.022-13.748-2.129.816.423 12.68-.66 14.676-1.087.96-6.036-6.784-7.123-4.836-1.086.96 2.936 26.709 11.997 21.808zM198.186 266.497c10.826-2.366 16.676-23.408 16.709-23.893-.967-.486-6.676 3.08-8.728 7.372 1.692-7.487 1.692-14.876.07-14.661-2.291.09-4.03 12.087-6.714 13.628-1.366.649-3.669-7.378-6.026-6.83-1.366.649-6.666 26.112 3.689 24.384zM214.41 293.739c9.872-4.867 10.078-26.63 9.016-26.87-1.063-.241-6.67 4.642-6.64 9.21-.403-7.63-2.224-14.812-3.713-14.122-2.197.63-.767 12.666-2.024 14.46-1.171.863-6.47-6.278-6.64-6.426-1.172.863.418 26.863 9.902 22.747zM231.972 329.307c10.336-3.878 12.846-26.619 11.813-26.861-1.032-.343-6.023 3.98-7.482 8.63.408-7.63-.644-14.96-2.198-14.408-2.263.416-2.106 12.626-3.646 14.19-1.266.736-4.776-6.776-6.032-6.04-1.266.736-2.426 26.766 7.444 23.688z" fill="#008f00"/>
  </g>
  <path d="M209.06 776.98c0 7.828-10.312 14.173-23.031 14.173-12.72 0-23.031-6.346-23.031-14.173 0-7.828 10.312-14.173 23.031-14.173 12.72 0 23.031 6.346 23.031 14.173z" fill-rule="evenodd" transform="matrix(.60164 .32097 -.3369 .6749 389.683 -146.809)" stroke="#000" stroke-width="1.084" fill="#ff1900"/>
  <g stroke="#000" fill-rule="evenodd" fill="#ff0">
    <path d="M166.91 414.67v-7.087h7.086v-7.086h7.087v7.086h7.086v7.087h-7.086v17.716h-7.087V414.67h-7.086z" transform="matrix(.49887 .1671 -.1826 .4713 461.443 -3.726)" stroke-width=".608"/>
    <path stroke-width=".612" d="M162.99 474.8h7.087v206.61h-7.087z" transform="matrix(.49887 .1671 -.1826 .4713 461.443 -3.726)"/>
    <path stroke-width=".608" d="M169.46 676.77h14.173v66.693H169.46zM166.91 439.37h21.269c14.174 0-3.643 38.976-3.643 38.976h-14.173s-17.717-38.976-3.643-38.976z" transform="matrix(.49887 .1671 -.1826 .4713 461.443 -3.726)"/>
    <path d="M173.62 434.06c0 2.936-3.173 6.316-7.087 6.316s-7.086-2.38-7.086-6.316 3.173-6.316 7.086-6.316 7.087 2.38 7.087 6.316z" stroke-width=".608" transform="matrix(.49887 .1671 -.1826 .4713 461.443 -3.726)"/>
  </g>
  <path d="M209.06 776.98c0 7.828-10.312 14.173-23.031 14.173-12.72 0-23.031-6.346-23.031-14.173 0-7.828 10.312-14.173 23.031-14.173 12.72 0 23.031 6.346 23.031 14.173z" fill-rule="evenodd" transform="matrix(.67449 -.36367 .38048 .64896 -2.269 4.212)" stroke="#000" stroke-width="1.084" fill="#ff1900"/>
</svg>
