<svg xmlns="http://www.w3.org/2000/svg" height="480" width="640">
  <g fill-rule="evenodd">
    <path fill="#3b6aa3" d="M0 0h639.864v480H0z"/>
    <path d="M0 467.08L639.904 0l-.027 86.916L0 479.996v-12.92z" fill="#e2ae67"/>
    <path d="M22.397 479.98L639.98 179.22l-.133-96.479-639.86 396.26 22.396-.02zM176.32 16.163l-6.314 102.79-27.01-66.662 10.361 69.776-41.83-66.378 27.42 64.338L83.012 87.62l42.766 63.646-62.102-27.62 64.392 41.19-67.66-8.96 63.93 26.34-100.36 9.18 100.69 6.723-63.742 26.207 66.972-9.062-64.196 40.018 62.891-27.696-42.896 63.99 64.673-41.318-27.036 62.889 43.684-64.69-11.824 68.173 27.478-63.7 6.212 100.63 9.69-100.38 23.692 64.088-9.032-69.067 43.468 64.738-28.661-63.93 64.66 43.996-43.37-64.93 64.834 26.996-67.38-41.902 69.879 11.78-66.896-26.694 104.06-6.46-104.06-9.691 68.486-22.828-70.972 8.914 68.638-40.996-66.091 26.686 46.644-66.334-66.682 43.408 26.746-66.412-43.146 66.474 9.267-70.43-26.666 66.466-9.687-102.79z" fill="#fff"/>
  </g>
</svg>
