<svg xmlns="http://www.w3.org/2000/svg" xmlns:xlink="http://www.w3.org/1999/xlink" height="480" width="640">
  <path fill="#00786e" d="M0 0h640v480H0z"/>
  <path fill="#fbd116" d="M294.916 108.727L336.6 138.21 320 90.6l-16.6 47.71 40.686-29.483z"/>
  <g id="a">
    <path d="M320 331.626H217.623a146.33 146.33 0 0 1-3.806-4H320a2.14 2.14 0 0 1 1.426 1.894c.046.92-.633 1.783-1.426 2.106zm0-31.336c.696-1.216 1.763-4.03 1.227-7.66a12.39 12.39 0 0 0-1.227-3.81c-6.76 6.44-16.666 14.16-32.493 18.982A81.04 81.04 0 0 1 264 311.374h-63.133a144.396 144.396 0 0 0 6.862 8h61.03c19.9 0 38.13-7.18 62.26-19.086zm-109.694-24.696a32.286 32.286 0 0 1-9.696 2.1c14.87 16.818 36.696 27.43 60.79 27.43 22.98 0 43.736-9.672 68.6-24.946a440.94 440.94 0 0 0 4.646-68.908 440.923 440.923 0 0 0-4.646-67.67c-6.696 6.91-18.96 18.684-24.776 38.267a81.046 81.046 0 0 0-3.36 23.13c0 16.68 6.042 32.188 13.687 46.086-10.616-13.713-16.938-30.914-16.938-49.686 0-12.403 2.79-24.167 7.774-34.673a32.49 32.49 0 0 1-7.63-12.984c-6.68 11.786-10.494 26.4-10.494 39.907 0 18.042 6.9 34.71 16.876 48.187-17.37-18.21-41.867-29.662-69-29.662-1.468 0-2.91.037-4.363.1a32.644 32.644 0 0 1 6.76 8.9c26.992.04 61.36 11.32 68.69 29.4-16.66-13.826-37.863-22.16-61.086-22.16-12.983 0-26.363 2.6-36.647 7.306 11.696 30.638 41.214 62.446 76.898 62.446 2.248 0 4.474-.1 6.673-.28-4.68.84-9.6 1.28-14.42 1.28-21.886 0-41.76-8.68-66.347-22.78zM320 364.374h-63.11c16.437 6.633 34.366 10.126 63.11 10.126a10.912 10.912 0 0 0 1.26-4.966 10.927 10.927 0 0 0-1.26-6.17zm0-24.6h-93.633a143.792 143.792 0 0 0 7.82 6.26H320c.216-.22 1.273-1.348 1.273-3.126 0-1.778-1.068-2.906-1.273-3.126zm0 12.6h-76.696a143.623 143.623 0 0 0 14.446 8H320a7.667 7.667 0 0 0 1.16-4.193 7.63 7.63 0 0 0-1.16-3.806z" fill="#fff"/>
    <path fill="#fbd116" d="M200.484 174.766l26.384 23.67-6.626-34.07-14.664 31.462 30.36-16.836zm36.891-32.009l34.71.603-27.726-20.884 10.148 33.196 11.304-32.828z"/>
  </g>
  <use height="100%" width="100%" xlink:href="#a" transform="matrix(-1 0 0 1 640 0)"/>
</svg>
