<svg xmlns="http://www.w3.org/2000/svg" height="480" width="640" version="1">
  <defs>
    <clipPath id="a">
      <path fill-opacity=".67" d="M0 0h640v480H0z"/>
    </clipPath>
  </defs>
  <g clip-path="url(#a)">
    <path fill-rule="evenodd" fill="#0071bc" d="M-160 0h960v480h-960z"/>
    <path d="M369.927 366.661s16.223-16.1 29.86-13.027c4.392-16.98 20.932-18.297 20.932-18.297s-1.61-18.736 19.616-22.834c.686-12.736 13.467-23.274 13.467-23.274s-2.636-19.76 10.832-24.298c-8.198-16.662 2.78-27.08 2.634-27.372-.146-.293-13.906-24.738-1.61-31.764-13.027-10.978-8.782-23.42-8.782-23.42s-14.2-3.66-9.076-20.64c-11.71-2.049-14.062-20.931-14.062-20.931s-18.004 3.669-20.2-12.004c-11.866 1.903-13.174-9.806-13.32-9.806-.146 0-23.667 6.294-28.26-11.418-9.076 4.684-13.028-3.66-13.028-3.66s-13.027 6.441-20.786-6c-16.616 9.66-24.162-.44-24.162-.44s-20.346 13.467-27.08 3.074c-12.003 12.16-22.688 6.88-22.688 6.88s-9.076 16.1-23.713 12.002c-3.366 14.93-20.2 16.223-20.2 16.223s1.767 13.174-18.443 16.687c-2.634 16.616-13.173 18.16-13.173 18.16s1.024 16.078-8.49 19.907c3.366 8.49-6.416 18.883-6.416 18.883s9.368 11.71-3.367 24.884c12.296 3.22 3.367 24.446 3.367 24.446s16.98 7.611 6.294 21.663c12.16 3.963 8.343 13.613 8.49 19.322 7.768 3.613 14.637 1.767 11.271 17.419 23.86 2.636 12.688 16.809 12.688 16.809s11.124.439 6.734 9.222c20.346-.44 23.273 16.223 23.273 16.223s18.883-4.977 21.372 2.342c2.488 7.319-8.197 66.647-8.197 66.647s-16.966 0-27.812-12.734c-27.81-.732-21.663-19.029-22.103-19.029-.439 0-9.222 3.367-13.76-11.866-18.69 3.806-18.004-11.866-18.16-12.002-.146-.147-8.343-3.806-6.27-11.664-19.174 1.766-17.71-16.98-17.71-16.98-4.197-1.707-6.768-6.61-6.124-9.614-2.488-.878-19.468-1.17-10.686-23.666-16.248-9.807-6.148-21.078-6.148-21.078s-22.396-11.663-6.123-24.883c-12.882-19.029 1.024-28.643 1.024-28.643s-17.868-18.161.293-31.032c-2.927-27.619 13.467-34.106 13.467-34.106s-8.636-22.396 14.784-31.764c1.463-22.688 17.868-23.273 17.868-23.273s.439-18.006 26.201-16.248c4.977-16.1 22.642-12.881 22.642-12.881s6.416-19.468 29.276-10.1c12.16-23.713 30.164-11.664 30.164-11.664s11.417-7.466 17.126-6.123c7.249-12.467 22.68-.483 32.66 1.928 3.616-1.406 16.622-11.16 26.476 1.146 13.174-8.636 24.446 6.88 24.446 6.88s18.16-9.221 26.64 11.866c38.498-3.613 32.936 21.664 32.936 21.664s30.3-6.88 23.713 23.273c27.619 1.903 24.738 20.064 24.738 20.064s17.418 13.174 9.806 26.03c16.616.732 9.807 16.662 9.807 16.662s11.866 4.638 2.06 22.982c22.687 18.16 4.39 36.166 4.244 36.009-.146-.147 12.16 14.637 1.026 31.617 3.367 26.933-10.246 33.813-10.246 33.813s3.613 17.419-11.71 22.396c-.293 20.492-19.616 22.981-19.616 22.981s6.124 8.902-14.061 18.27c-.767 13.712-20.786 14.812-20.786 14.812s-1.903 26.176-27.373 18.443c-6.181 20.2-36.008 14.198-36.693 13.906-.686-.293-6.709-43.327-6.709-43.474z" fill-rule="evenodd" stroke="#000" stroke-width="1.8670921699999999" fill="#fff"/>
    <path stroke-linejoin="round" d="M184.94 124.083c.074 0 6.466 6.634 6.264 13.876-1.192 8.34-6.009 19.936-6.04 28.673.691 3.463.367 9.669.367 9.669s-6.784-8.22-6.869-17.008 6.264-17.131 6.264-23.61-1.146-11.648-.996-11.6zM181.772 126.672s-8.373 7.993-9.461 16.761c-.797 4.004-1.106 22.662-1.2 30.943-.188 2.64-1.24 12.67-1.464 16.218-.224 3.66 6.169-6.229 6.624-14.272-.2-8.326-.2-26.86.646-28.496.763-3.387.69-7.13 1.764-10.628 1.64-4.716 3.266-9.662 3.191-9.626z" fill-rule="evenodd" stroke="#000" stroke-width="1.8670921699999999" fill="#217900"/>
    <g fill-rule="evenodd" stroke="#ef8a10" fill="#ffd200">
      <path d="M366.966 100.463s10.866-6.008 13.96-14.336-9.396-9.416-11.047-6.461c-1.661 2.964 1.408 10.346.62 12.296-.788 1.962-6.204 6.662-3.633 8.49z" stroke-width="1.8676071200000002"/>
      <path d="M269.746 103.866s7.048-9.667 6.22-19.316c-1.827-9.667-12.79-3.664-12.79-.26 0 3.393 6.266 8.362 6.626 10.44.26 2.088-1.306 8.363 1.044 9.136zM260.691 109.699s7.048-9.668 6.22-19.316c-1.827-9.668-12.79-3.666-12.79-.261 0 3.393 6.266 8.362 6.626 10.44.261 2.089-1.306 8.363 1.044 9.136zM229.66 116.124s7.047-9.668 6.22-19.316c-1.828-9.668-12.79-3.666-12.79-.261 0 3.393 6.264 8.362 6.626 10.44.261 2.089-1.306 8.363 1.044 9.136zM214.672 131.001s7.047-9.667 6.22-19.316c-1.827-9.667-12.79-3.664-12.79-.26 0 3.392 6.264 8.362 6.626 10.44.26 2.088-1.306 8.363 1.044 9.136zM199.01 146.368s7.048-9.668 6.22-19.316c-1.826-9.668-12.789-3.666-12.789-.261 0 3.393 6.264 8.362 6.626 10.44.261 2.089-1.306 8.363 1.046 9.136z" stroke-width="2.47736633"/>
      <path d="M236.018 61.727s-9.386 7.406-10.222 17.2c-.837 9.793 11.336 6.969 12.248 3.69.913-3.268-3.787-9.73-3.477-11.81.31-2.082 3.604-7.696 1.461-9.08zM266.34 62.068s-9.386 7.407-10.222 17.2c-.837 9.793 11.336 6.969 12.249 3.69.912-3.268-3.788-9.73-3.478-11.81.31-2.082 3.604-7.694 1.461-9.08zM149.617 136.623s1.982 11.79 10.167 17.233c8.186 6.442 11.662-6.696 9.126-8.966s-10.362-1.367-12.028-2.63c-1.676-1.272-6.062-6.77-7.264-6.637zM133.974 176.666s.097 11.966 7.32 18.622c7.224 6.666 12.449-4.689 10.426-7.414s-10.009-2.973-11.463-4.494c-1.464-1.622-3.93-7.486-6.283-6.714zM170.064 221.381s-4.267-11.169-13.364-14.891c-9.097-3.723-10.026 8.741-7.18 10.688 2.848 1.847 10.417-.71 12.311.207 1.894.918 6.298 6.64 8.233 4.096zM162.667 202.063s7.234-9.619 6.696-19.21c-1.639-9.692-12.716-3.903-12.782-.61-.066 3.392 6.1 8.472 6.32 10.666.22 2.093-1.467 8.326.867 9.164zM388.16 110.11s10.866-6.008 13.969-14.334-9.396-9.417-11.047-6.462c-1.66 2.964 1.409 10.346.62 12.297-.788 1.96-6.204 6.661-3.633 8.489zM420.976 126.484s6.386-10.107 3.917-19.622c-2.47-9.614-13.006-2.79-12.779.696.227 3.386 6.809 7.916 7.21 9.981.4 2.066-.744 8.421 1.662 9.046zM610.681 219.61s-4.282-11.162-13.384-14.873c-9.102-3.71-10.014 8.766-7.166 10.698 2.86 1.843 10.416-.724 12.311.19 1.896.916 6.306 6.633 8.238 4.086zM466.764 226.443s.248-11.963 7.666-18.628c7.307-6.674 12.388 4.846 10.331 7.646-2.067 2.698-10.046 2.846-11.619 4.349-1.473 1.602-4.024 7.434-6.367 6.633zM469.714 99.684s-11.176-4.246-20.008.069c-8.832 4.314-.146 13.3 3.128 12.404 3.272-.897 6.4-8.248 8.346-9.062 1.946-.803 8.401-.948 8.636-3.42zM434.139 78.28s-11.177-4.246-20.008.068c-8.832 4.316-.146 13.301 3.127 12.406 3.273-.897 6.4-8.249 8.346-9.062 1.946-.804 8.4-.948 8.636-3.421zM396 67.87s-9.474 7.29-10.432 17.072c-.967 9.783 11.26 7.098 12.202 3.841.963-3.267-3.667-9.776-3.332-11.863.336-2.077 3.698-7.66 1.663-9.061zM371.16 61.894s-4.32 11.148-.066 20.008c4.264 8.86 13.299.236 12.426-3.043-.876-3.28-8.206-6.467-8.996-8.407-.79-1.96-.89-8.407-3.363-8.668zM300.716 94.861s7.728-9.121 6.606-18.886c-1.123-9.766-12.491-4.672-12.737-1.187-.246 3.384 6.643 8.784 6.762 10.886.11 2.101-1.907 8.236.38 9.187z" stroke-width="1.8676071200000002"/>
    </g>
    <path d="M342.776 114.432s18.626 1.166 19.433 11.789-4.406 17.1-4.406 17.1 2.332 22.932-16.806 29.668c-19.433 2.332-49.877.619-49.877.619s-8.94 2.202-12.666-16.324c-3.628-18.626-4.664-31.61-4.664-31.61s1.814-10.366 14.898-11.012c13.086-.648 62.867.13 62.987-.13z" fill-rule="evenodd" stroke="#000" stroke-width="1.8670921699999999" fill="#8c8a8c"/>
    <path d="M367.674 143.193s-9.976 12.437-8.94 17.49" stroke="#000" stroke-linecap="round" stroke-width="1.8670921699999999" fill="none"/>
    <path d="M344.333 172.337c2.462 2.073 4.793 4.406 6.312 12.049l1.036 16.287 12.966 116.696 11.4 84.339.778 13.086s-2.72 9.686-10.364 10.363c-6.67 11.66-36.766 16.028-38.736 14.899-2.72-.13-12.308-4.146-18.138-3.628-6.83.618-16.936 4.406-20.469 3.767-4.634-.647-14.768-4.146-16.682-11.63-12.696-4.016-14.769-13.732-14.769-13.732l13.733-97.664 13.343-123.33s1.666-16.463 8.162-18.916c6.866-.648 42.363.648 62.338-1.684z" fill-rule="evenodd" stroke="#000" stroke-width="1.8670921699999999" fill="#8c8a8c"/>
    <path d="M274.376 341.147l-2.721 86.281M368.196 362.647l7.644 71.124" stroke="#000" stroke-width="1.8670921699999999" fill="none"/>
    <path d="M136.672 296.312l-.284.996M494.972 293.188l.284.996" stroke="#000" stroke-width=".96770688" fill="none"/>
    <path stroke-linejoin="round" d="M126.966 179.83s6.676 7.86 6.694 12.37c1.019 4.612 2.91 13.39 6.386 17.028 2.474 3.638 16.691 23.868 17.319 32.308.146 6.63-6.822 14.99-14.7 16.136-6.63-.146-19.792-3.784-20.376-16.01-.682-12.226 4.366-12.616 4.949-19.937.682-7.423.727-40.76.727-40.896z" stroke="#6b18b6" stroke-width="1.8670921699999999" fill="none"/>
    <path stroke-linejoin="round" d="M224.466 72.814s-6.876.42-10.4 2.872c-3.606 2.161-9.443 6.271-13.692 11.024-10.664 8.227-26.43 12.066-31.438 18.9-2.997 4.66-2.813 16.834 4.697 20.67 4.801 2.749 18.878 7.06 26.726-3.094 6.849-10.144 2.772-12.963 6.13-19.608 6.642-16.23 18.802-30.64 18.878-30.664zM367.012 67.968s-4.39-3.93-9.298-6.474c-3.991-1.016-10.638-.673-17.616-1.248-13.261-1.869-26.913-11.442-36.306-10.286-6.426 1.081-13.331 8.993-11.61 17.683 1.366 6.36 7.361 16.203 19.412 14.068 12.061-2.136 11.947-4.766 19.066-6.974 17.34-9.724 36.02-7.738 36.162-7.77zM608.373 196.364c.99-2.261-.832-6.612-2.127-11.492-1.266-3.922-3.132-10.009-7.72-16.42-6.462-12.22-4.617-28.977-9.96-36.48-3.793-4.026-14.693-6.633-21.094-.38-3.822 4-11.377 16.632-3.176 26.716 8.202 9.084 11.776 6.663 17.42 10.618 13.464 9.038 20.043 24.88 26.646 26.637zM603.662 302.116c1.838-2.644 6.127-7.446 4.736-11.63-.31-3.233 1.482-13.037 1.678-17.316 1.216-13.326 9.667-24.142 7.289-36.72-1.342-6.366-9.203-13.022-17.794-10.783-6.289 1.623-17.066 8.103-14.36 20.036 2.717 11.934 6.673 11.736 9.123 18.73 7.321 14.46 2.636 31.637 9.318 36.681z" stroke="#6b18b6" stroke-width=".96770688" fill="none"/>
    <path d="M406.486 386.834s-2.269 4.344 6.777 8.167M423.66 376.683s10.078-2.433 16.866 0M463.618 361.207c0 .174-1.39 4.618 6.603 10.773M469.363 339.92s6.908 4.344 16.812 4.17M399.76 362.699s.348 11.468-6.66 16.866M419.667 334.872s9.73 2.433 17.724-1.664M481.944 318.024s2.086 2.964 12.869 2.433M439.894 311.246c.348.174 12.686 4.17 20.606.622M464.666 263.982s.62-.696 4.344 12.686M474.12 226.276s-.62 7.124-6.266 10.262M610.784 197.078s-8.34 6.777-6.777 9.667M469.266 192.214s4.344 7.298-2.78 12.337M448.231 160.937s7.472-.347 10.774 6.082M434.16 139.738h6.734M463.87 113.676c0 .173 1.663 1.663-1.39 4.617M410.624 114.37s3.996 6.266 3.301 13.902M433.637 93.17c1.738-.174 7.646-2.78 7.646-2.78M407.922 68.321c-.174 0-2.26 7.82 1.664 10.6M398.368 103.944c0 8.34 6.603 6.266 2.086 14.248M382.197 96.992c-.173 0-10.426 7.993-10.426 9.383M366.437 92.649s4.344 4.344 3.302 10.262M342.768 89.173s-2.269 6.603-6.213 8.34M319.644 87.436c-.173.348-3.649 7.82-6.081 9.21M288.02 87.61c.174 0 3.476 6.96-.869 11.99M280.719 61.64c.173.173.696 6.386-2.607 9.904M249.442 63.466c0 .173 1.39 6.908-7.82 7.82M231.724 116.46c.174.348 8.862 1.738 8.862 1.738M210.003 136.614c.174-.174 10.6-3.301 10.6-3.301M193.146 149.642c.348 0 7.298 1.216 9.036.347M188.282 166.073s2.269 1.216.347 12.868M164.396 126.492l4.17 6.266M140.149 167.64c0-.176 4.17 6.264 9.73 7.47M172.992 190.308c.173 0 6.776-1.39 7.82-2.086M170.033 213.936c.174 0-.174-4.344 6.213-7.298M162.906 224.709c0 .173 6.039 6.429 8.614 7.298M169.966 236.7c.622-.173 6.908-4.866 12.164-4.618M168.216 262.86s.174 6.388 16.16 3.998M169.781 271.797c0-.174 4.692-10.773 14.249-14.77M172.644 286.366s1.39-4.618 9.382-7.646M181.603 303.248s6.734-4.692 7.819-6.387M188.63 317.164s3.476 3.66 12.163-2.606M146.746 320.104c1.043-.174 13.727-3.127 18.072 3.476M161.793 330.63s13.38-1.738 16.117-.348M199.677 333.314s-1.737 3.66 14.77-2.432M220.08 339.92c-2.964 6.039.696 9.036-3.128 11.294M169.869 346.864c.621-.347 6.082-2.269 6.213-10.262M174.897 368.866c.696-.174 9.906-4.17 11.817-2.086M192.972 370.6s1.217-8.167 3.823-9.036M206.87 382.831s7.646-.174 10.948-2.606M221.638 366.21c.174.173 7.124 3.822 21.894.173M227.199 388.392s2.086 10.6 1.911 13.033" stroke="#000" stroke-width="1.8670921699999999" fill="none"/>
    <g fill-rule="evenodd" stroke="#000" stroke-width="1.483" fill="#de2010">
      <path d="M232.84 119.03c.002-2.109-.794-4.068-2.087-6.114-1.294-1.066-2.888-1.066-4.18 0s-2.09 3.006-2.088 6.114c-.002 2.109.794 4.068 2.087 6.114 1.293 1.066 2.887 1.066 4.18 0s2.09-3.006 2.088-6.114z" transform="matrix(1.60886 -.2011 .2072 1.66762 94.796 74.927)"/>
      <path d="M232.84 119.03c.002-2.109-.794-4.068-2.087-6.114-1.294-1.066-2.888-1.066-4.18 0s-2.09 3.006-2.088 6.114c-.002 2.109.794 4.068 2.087 6.114 1.293 1.066 2.887 1.066 4.18 0s2.09-3.006 2.088-6.114z" transform="matrix(1.60886 -.2011 .2072 1.66762 93.368 67.276)"/>
      <path d="M232.84 119.03c.002-2.109-.794-4.068-2.087-6.114-1.294-1.066-2.888-1.066-4.18 0s-2.09 3.006-2.088 6.114c-.002 2.109.794 4.068 2.087 6.114 1.293 1.066 2.887 1.066 4.18 0s2.09-3.006 2.088-6.114z" transform="matrix(1.68497 -.3417 .36206 1.633 78.089 74.089)"/>
      <path d="M232.84 119.03c.002-2.109-.794-4.068-2.087-6.114-1.294-1.066-2.888-1.066-4.18 0s-2.09 3.006-2.088 6.114c-.002 2.109.794 4.068 2.087 6.114 1.293 1.066 2.887 1.066 4.18 0s2.09-3.006 2.088-6.114z" transform="matrix(1.4466 -.73446 .7667 1.4893 66.863 162.938)"/>
      <path d="M232.84 119.03c.002-2.109-.794-4.068-2.087-6.114-1.294-1.066-2.888-1.066-4.18 0s-2.09 3.006-2.088 6.114c-.002 2.109.794 4.068 2.087 6.114 1.293 1.066 2.887 1.066 4.18 0s2.09-3.006 2.088-6.114z" transform="matrix(1.4466 -.73446 .7667 1.4893 48.886 147.133)"/>
      <path d="M232.84 119.03c.002-2.109-.794-4.068-2.087-6.114-1.294-1.066-2.888-1.066-4.18 0s-2.09 3.006-2.088 6.114c-.002 2.109.794 4.068 2.087 6.114 1.293 1.066 2.887 1.066 4.18 0s2.09-3.006 2.088-6.114z" transform="matrix(1.3781 -.86423 .88011 1.41987 39.968 167.39)"/>
      <path d="M232.84 119.03c.002-2.109-.794-4.068-2.087-6.114-1.294-1.066-2.888-1.066-4.18 0s-2.09 3.006-2.088 6.114c-.002 2.109.794 4.068 2.087 6.114 1.293 1.066 2.887 1.066 4.18 0s2.09-3.006 2.088-6.114z" transform="matrix(1.28907 -.98346 1.01327 1.32812 33.796 193.08)"/>
      <path d="M232.84 119.03c.002-2.109-.794-4.068-2.087-6.114-1.294-1.066-2.888-1.066-4.18 0s-2.09 3.006-2.088 6.114c-.002 2.109.794 4.068 2.087 6.114 1.293 1.066 2.887 1.066 4.18 0s2.09-3.006 2.088-6.114z" transform="matrix(1.1329 -1.16994 1.19608 1.16722 36.346 239.043)"/>
      <path d="M232.84 119.03c.002-2.109-.794-4.068-2.087-6.114-1.294-1.066-2.888-1.066-4.18 0s-2.09 3.006-2.088 6.114c-.002 2.109.794 4.068 2.087 6.114 1.293 1.066 2.887 1.066 4.18 0s2.09-3.006 2.088-6.114z" transform="matrix(1.02138 -1.26922 1.29739 1.06234 34.296 262.698)"/>
      <path d="M232.84 119.03c.002-2.109-.794-4.068-2.087-6.114-1.294-1.066-2.888-1.066-4.18 0s-2.09 3.006-2.088 6.114c-.002 2.109.794 4.068 2.087 6.114 1.293 1.066 2.887 1.066 4.18 0s2.09-3.006 2.088-6.114z" transform="matrix(.79817 -1.41132 1.46408 .82236 61.907 316.002)"/>
      <path d="M232.84 119.03c.002-2.109-.794-4.068-2.087-6.114-1.294-1.066-2.888-1.066-4.18 0s-2.09 3.006-2.088 6.114c-.002 2.109.794 4.068 2.087 6.114 1.293 1.066 2.887 1.066 4.18 0s2.09-3.006 2.088-6.114z" transform="matrix(.66642 -1.4781 1.62289 .6866 66.808 337.386)"/>
      <path d="M232.84 119.03c.002-2.109-.794-4.068-2.087-6.114-1.294-1.066-2.888-1.066-4.18 0s-2.09 3.006-2.088 6.114c-.002 2.109.794 4.068 2.087 6.114 1.293 1.066 2.887 1.066 4.18 0s2.09-3.006 2.088-6.114z" transform="matrix(.66682 -1.61946 1.6666 .68296 67.907 362.404)"/>
      <path d="M232.84 119.03c.002-2.109-.794-4.068-2.087-6.114-1.294-1.066-2.888-1.066-4.18 0s-2.09 3.006-2.088 6.114c-.002 2.109.794 4.068 2.087 6.114 1.293 1.066 2.887 1.066 4.18 0s2.09-3.006 2.088-6.114z" transform="matrix(.4482 -1.6682 1.60643 .46178 63.012 370.362)"/>
      <path d="M232.84 119.03c.002-2.109-.794-4.068-2.087-6.114-1.294-1.066-2.888-1.066-4.18 0s-2.09 3.006-2.088 6.114c-.002 2.109.794 4.068 2.087 6.114 1.293 1.066 2.887 1.066 4.18 0s2.09-3.006 2.088-6.114z" transform="matrix(.20288 -1.60864 1.66738 .20903 94.666 408.901)"/>
      <path d="M232.84 119.03c.002-2.109-.794-4.068-2.087-6.114-1.294-1.066-2.888-1.066-4.18 0s-2.09 3.006-2.088 6.114c-.002 2.109.794 4.068 2.087 6.114 1.293 1.066 2.887 1.066 4.18 0s2.09-3.006 2.088-6.114z" transform="matrix(.06606 -1.62008 1.66918 .06703 106.296 427.394)"/>
      <path d="M232.84 119.03c.002-2.109-.794-4.068-2.087-6.114-1.294-1.066-2.888-1.066-4.18 0s-2.09 3.006-2.088 6.114c-.002 2.109.794 4.068 2.087 6.114 1.293 1.066 2.887 1.066 4.18 0s2.09-3.006 2.088-6.114z" transform="matrix(.06606 -1.62008 1.66918 .06703 88.849 428.012)"/>
      <path d="M232.84 119.03c.002-2.109-.794-4.068-2.087-6.114-1.294-1.066-2.888-1.066-4.18 0s-2.09 3.006-2.088 6.114c-.002 2.109.794 4.068 2.087 6.114 1.293 1.066 2.887 1.066 4.18 0s2.09-3.006 2.088-6.114z" transform="matrix(-.36132 -1.6806 1.62862 -.37226 172.606 473.633)"/>
      <path d="M232.84 119.03c.002-2.109-.794-4.068-2.087-6.114-1.294-1.066-2.888-1.066-4.18 0s-2.09 3.006-2.088 6.114c-.002 2.109.794 4.068 2.087 6.114 1.293 1.066 2.887 1.066 4.18 0s2.09-3.006 2.088-6.114z" transform="matrix(-.49046 -1.64642 1.69227 -.60631 188.286 486.828)"/>
      <path d="M232.84 119.03c.002-2.109-.794-4.068-2.087-6.114-1.294-1.066-2.888-1.066-4.18 0s-2.09 3.006-2.088 6.114c-.002 2.109.794 4.068 2.087 6.114 1.293 1.066 2.887 1.066 4.18 0s2.09-3.006 2.088-6.114z" transform="matrix(-.67103 -1.476 1.62073 -.69138 221.877 499.092)"/>
      <path d="M232.84 119.03c.002-2.109-.794-4.068-2.087-6.114-1.294-1.066-2.888-1.066-4.18 0s-2.09 3.006-2.088 6.114c-.002 2.109.794 4.068 2.087 6.114 1.293 1.066 2.887 1.066 4.18 0s2.09-3.006 2.088-6.114z" transform="matrix(-.7946 -1.41337 1.4662 -.81868 241.371 608.33)"/>
      <path d="M232.84 119.03c.002-2.109-.794-4.068-2.087-6.114-1.294-1.066-2.888-1.066-4.18 0s-2.09 3.006-2.088 6.114c-.002 2.109.794 4.068 2.087 6.114 1.293 1.066 2.887 1.066 4.18 0s2.09-3.006 2.088-6.114z" transform="matrix(-.94339 -1.31867 1.36863 -.97197 271.636 616.396)"/>
      <path d="M232.84 119.03c.002-2.109-.794-4.068-2.087-6.114-1.294-1.066-2.888-1.066-4.18 0s-2.09 3.006-2.088 6.114c-.002 2.109.794 4.068 2.087 6.114 1.293 1.066 2.887 1.066 4.18 0s2.09-3.006 2.088-6.114z" transform="matrix(-1.06169 -1.2341 1.27161 -1.08344 292.379 620.207)"/>
      <path d="M232.84 119.03c.002-2.109-.794-4.068-2.087-6.114-1.294-1.066-2.888-1.066-4.18 0s-2.09 3.006-2.088 6.114c-.002 2.109.794 4.068 2.087 6.114 1.293 1.066 2.887 1.066 4.18 0s2.09-3.006 2.088-6.114z" transform="matrix(-1.13737 -1.16663 1.19066 -1.17183 308.9 626.104)"/>
      <path d="M232.84 119.03c.002-2.109-.794-4.068-2.087-6.114-1.294-1.066-2.888-1.066-4.18 0s-2.09 3.006-2.088 6.114c-.002 2.109.794 4.068 2.087 6.114 1.293 1.066 2.887 1.066 4.18 0s2.09-3.006 2.088-6.114z" transform="matrix(-1.2301 -1.06628 1.08829 -1.26738 331.402 629.662)"/>
      <path d="M232.84 119.03c.002-2.109-.794-4.068-2.087-6.114-1.294-1.066-2.888-1.066-4.18 0s-2.09 3.006-2.088 6.114c-.002 2.109.794 4.068 2.087 6.114 1.293 1.066 2.887 1.066 4.18 0s2.09-3.006 2.088-6.114z" transform="matrix(-1.33673 -.91908 .94693 -1.3762 362.624 626.12)"/>
      <path d="M232.84 119.03c.002-2.109-.794-4.068-2.087-6.114-1.294-1.066-2.888-1.066-4.18 0s-2.09 3.006-2.088 6.114c-.002 2.109.794 4.068 2.087 6.114 1.293 1.066 2.887 1.066 4.18 0s2.09-3.006 2.088-6.114z" transform="matrix(-1.47374 -.67697 .69646 -1.61841 416.897 604.087)"/>
      <path d="M232.84 119.03c.002-2.109-.794-4.068-2.087-6.114-1.294-1.066-2.888-1.066-4.18 0s-2.09 3.006-2.088 6.114c-.002 2.109.794 4.068 2.087 6.114 1.293 1.066 2.887 1.066 4.18 0s2.09-3.006 2.088-6.114z" transform="matrix(-1.62896 -.63968 .66693 -1.6763 438.682 497.622)"/>
      <path d="M232.84 119.03c.002-2.109-.794-4.068-2.087-6.114-1.294-1.066-2.888-1.066-4.18 0s-2.09 3.006-2.088 6.114c-.002 2.109.794 4.068 2.087 6.114 1.293 1.066 2.887 1.066 4.18 0s2.09-3.006 2.088-6.114z" transform="matrix(-1.61446 -.12006 .16429 -1.33344 600.491 406.96)"/>
      <path d="M232.84 119.03c.002-2.109-.794-4.068-2.087-6.114-1.294-1.066-2.888-1.066-4.18 0s-2.09 3.006-2.088 6.114c-.002 2.109.794 4.068 2.087 6.114 1.293 1.066 2.887 1.066 4.18 0s2.09-3.006 2.088-6.114z" transform="matrix(-1.68082 -.36036 .37126 -1.62873 468.417 480.766)"/>
    </g>
    <path d="M480.012 194.66c2.146-2.297 4.143-2.946 6.669-2.109-.891-6.06-2.809-8.116-6.146-7.386-2.336.73-3.393 3.846-1.624 9.496zM483.293 212.934c2.313-2.129 4.363-2.626 6.809-1.6-.432-6.11-2.19-8.306-4.674-7.764-2.384.662-3.673 3.679-2.236 9.364zM476.63 177.96c1.493-2.766 3.269-3.902 6.916-3.733-2.4-6.636-4.778-7.137-6.862-6.838-2.074 1.3-2.306 4.68.938 9.672zM467.394 161.312c1.492-2.767 3.268-3.903 6.914-3.734-2.4-6.636-4.777-7.137-6.862-6.838-2.074 1.3-2.306 4.681.938 9.672zM447.874 130.818c1.028-2.97 2.69-4.376 6.238-4.636-3.276-6.176-6.863-6.277-7.701-4.661s-1.64 4.892 2.463 9.296zM436.117 117.63c.916-3.008 2.421-4.47 6.068-4.83-3.468-6.06-6.096-6.06-7.871-4.367-1.777 1.684-1.364 4.947 2.813 9.197zM408.287 94.896c-.066-3.143.927-4.999 3.326-6.164-4.866-3.736-7.663-3.878-8.834-1.73-1.17 2.16.236 6.124 6.609 7.884zM422.246 106.36c.49-3.106 1.779-4.762 4.34-6.484-4.136-4.62-6.876-6.147-8.4-3.234-1.626 1.914-.666 6.087 4.06 8.718zM392.362 86.106c-.38-3.12.406-6.067 2.672-6.463-6.214-3.216-8.022-3.068-8.966-.81-.943 2.269.763 6.072 6.293 7.273zM376.088 79.002c-.822-3.036-.323-6.074 1.72-6.78-6.62-2.436-8.378-1.888-8.989.482-.61 2.37 1.481 4.91 7.269 6.298zM368.663 73.669c-1.076-2.964-.761-6.028 1.14-6.901-6.807-1.96-8.609-1.172-8.916 1.241-.408 2.414 1.891 4.767 7.776 6.66zM341.33 70.234c-1.286-2.868-1.112-4.96.638-6.966-6.932-1.626-8.67-.664-8.802 1.883-.232 2.436 2.231 4.617 8.166 6.082zM323.09 68.836c-1.677-2.719-1.62-4.818-.087-6.993-6.069-.902-8.682.338-8.66 2.786.022 2.447 2.698 4.362 8.648 4.208zM287.376 71.626c-2.186-2.268-2.736-4.286-1.772-6.766-6.097.686-8.247 2.397-7.636 4.767.611 2.37 3.67 3.682 9.407 2zM304.966 69.212c-1.86-2.634-2.13-4.616-.84-6.943-6.12-.246-8.496 1.269-8.21 3.69.286 2.43 3.161 4.046 9.06 3.263zM270.128 76.263c-2.488-1.922-3.321-3.86-2.723-6.443-6.96 1.464-7.819 3.666-6.874 6.813.946 2.267 4.146 3.019 9.697.63zM237.102 90.437c-2.808-1.413-3.992-3.147-3.899-6.806-6.666 2.669-6.999 4.977-6.642 7.013 1.367 2.037 4.644 2.176 9.642-1.207zM263.028 82.302c-2.616-1.744-3.681-3.608-3.166-6.237-6.836 1.864-7.662 4.09-6.462 6.277 1.1 2.186 4.346 2.723 9.617-.04zM207.48 111.061c-3.041-.797-4.661-2.246-6.024-4.866-4.91 3.662-6.808 6.326-4.067 8.036 1.762 1.71 4.996 1.16 9.08-3.169zM221.612 99.496c-2.97-1.033-4.37-2.696-4.627-6.246-6.182 3.267-6.286 6.862-4.673 7.693 1.612 1.841 4.89 1.648 9.3-2.448zM194.922 123.43c-3.101-.618-4.746-1.822-6.446-4.39-4.667 4.094-6.21 6.829-3.31 8.371 1.9 1.643 6.08.701 8.766-3.981zM183.67 138.033c-3.136-.234-4.892-1.384-6.822-3.878-4.166 4.49-4.667 7.273-2.636 8.637 2.032 1.364 6.123.237 8.366-4.76zM174.263 162.966c-3.133.249-6.046-.618-6.346-2.94-3.43 6.076-3.4 7.886-1.183 8.923 2.217 1.037 6.099-.66 7.63-6.983zM166.986 168.917c-3.076.664-6.083.042-6.674-2.091-2.742 6.477-2.348 8.26-.016 9 2.333.741 4.984-1.207 6.69-6.909zM169.372 186.287c-2.932 1.132-6.012.846-6.92-1.008-1.84 6.842-1.01 8.628 1.41 8.89 2.42.362 4.73-1.982 6.61-7.882zM164.943 203.618c-2.86 1.326-4.946 1.18-6.973-.642-1.444 6.962-.437 8.677 2.003 8.776 2.44.199 4.686-2.294 4.97-8.233zM163.141 218.704c-2.683 1.421-4.774 1.689-6.967.616-.798 4.86.48 6.768 2.918 6.696 2.438-.173 4.3-2.412 4.06-7.11zM460.127 146.483c1.073-2.966 2.666-4.336 6.307-4.666-3.196-6.226-6.766-6.364-7.629-4.777-1.863 1.687-1.613 4.868 2.322 9.332zM486.296 231.47c2.313-2.129 4.362-2.626 6.808-1.6-.431-6.11-2.189-8.306-4.673-7.763-2.384.661-3.673 3.678-2.236 9.363z" fill-rule="evenodd" fill="#ffe300"/>
    <path stroke-linejoin="round" d="M461.32 132.01c-.076 0-6.926 6.862-6.736 16.192 1.192 8.341 6.48 18.618 6.611 27.267-.968 8.639-2.632 14.373-2.632 14.373s8.043-9.16 8.118-17.948c.074-8.788-6.611-20.33-6.611-26.81s.298-12.212.149-12.063zM474.061 160.006s-6.362 3.947-4.84 13.033c.62 9.086 9.904 26.767 9.904 26.767s6.861 14.076 6.628 17.724c-.224 3.649 1.266-3.6.696-11.643s-11.022-26.767-11.022-26.767-2.234-3.649-2.01-9.681c.223-6.032.818-9.468.744-9.633z" fill-rule="evenodd" stroke="#000" stroke-width="1.8670921699999999" fill="#217900"/>
    <path d="M312.926 47.43c0-1.88-2.114-3.406-4.724-3.406s-4.724 1.626-4.723 3.406c-.001 1.88 2.114 3.406 4.723 3.406s4.726-1.624 4.724-3.406zM314.946 66.36c0-1.804-2.177-3.266-4.863-3.266-2.686 0-4.862 1.462-4.862 3.266s2.177 3.266 4.862 3.266c2.686 0 4.863-1.461 4.863-3.266zM320.986 46.972s-6.668 4.168-3.266 6.836c2.292 1.667 8.614-3.612 8.614-3.612l-6.36-2.223zM484.32 141.4c.002-1.184-.664-2.28-1.467-2.873a2.616 2.616 0 0 0-2.918 0c-.902.693-1.468 1.689-1.466 2.873-.002 1.186.664 2.28 1.466 2.874a2.616 2.616 0 0 0 2.918 0c.903-.693 1.469-1.689 1.467-2.874zM482.197 133.466c0-1.976-1.366-3.678-3.048-3.678s-3.048 1.602-3.048 3.678 1.364 3.678 3.048 3.678 3.048-1.602 3.048-3.678zM483.669 149.616c0-1.026-.634-1.866-1.193-1.866s-1.193.83-1.193 1.866.634 1.866 1.193 1.866 1.193-.83 1.193-1.866zM488.668 136.17c0-1.172-.634-2.12-1.193-2.12-.668 0-1.192.948-1.192 2.12s.634 2.12 1.192 2.12c.669 0 1.193-.96 1.193-2.12zM476.174 136.632c0-.962-.634-1.723-1.193-1.723s-1.193.771-1.193 1.723c0 .961.634 1.722 1.193 1.722s1.193-.771 1.193-1.722zM477.297 148.032c0-1.638-1.127-2.784-2.618-2.784s-2.618 1.246-2.618 2.784c0 1.637 1.127 2.784 2.618 2.784s2.619-1.247 2.618-2.784zM470.666 142.993c0-1.317-.96-2.386-2.12-2.386-1.172 0-2.12 1.068-2.12 2.386s.948 2.386 2.12 2.386c1.17 0 2.12-1.068 2.12-2.386zM469.613 136.231c0-.71-.363-1.368-.927-1.724a1.749 1.749 0 0 0-1.867 0c-.674.366-.928 1.013-.927 1.724 0 .711.363 1.368.927 1.724a1.749 1.749 0 0 0 1.867 0c.674-.366.928-1.013.927-1.724zM499.819 170.697c-2.737-3.613-7.12-6.136-9.789-3.4-2.668 1.736-2.612 6.07.126 9.682 2.737 3.613 7.12 6.136 9.789 3.4 2.668-1.736 2.612-6.07-.126-9.682zM607.699 237.249c.63-4.433-1.632-8.337-4.83-8.72-3.197-.383-6.22 2.9-6.76 7.334-.63 4.433 1.632 8.337 4.83 8.72 3.197.382 6.22-2.901 6.76-7.334zM609.244 276.044c.91-4.37-.906-8.447-4.069-9.104-3.162-.667-6.447 2.363-7.368 6.724-.911 4.37.906 8.447 4.068 9.104 3.163.667 6.447-2.363 7.369-6.724zM616.719 239.729c0-1.767-1.187-3.18-2.66-3.18s-2.661 1.423-2.661 3.18c0 1.766 1.187 3.18 2.66 3.18s2.661-1.424 2.661-3.18zM610.227 247.021l-6.433 6.163s-6.102.132-4.837 1.789c.266 1.666 7.023 6.626 6.967 8.614-.066 1.988 4.606-.464 4.606-.464s3.644-11.066 3.644-11.132c0-.066-.199-7.687-2.186-7.664-1.988.133-2.627 2.444-2.66 2.686zM162.837 244.686a2.686 2.686 0 1 0-6.172 0 2.686 2.686 0 0 0 6.172 0zM166.274 236.683c0-1.608-1.168-2.73-2.686-2.73s-2.686 1.222-2.686 2.73 1.167 2.73 2.686 2.73c1.428 0 2.686-1.222 2.686-2.73zM134.04 199.106c-.97-2.174-2.99-3.386-4.612-2.707-1.621.68-1.968 2.992-.999 6.166.97 2.173 2.99 3.386 4.612 2.706 1.621-.679 1.968-2.991.999-6.166zM140.463 222.616c-1.332-2.818-4.106-4.389-6.197-3.609s-2.706 3.878-1.372 6.696 4.107 4.388 6.197 3.608 2.706-3.877 1.372-6.694zM147.32 239.686c.431-3.619-1.027-6.761-3.267-7.22-2.23-.468-4.389 2.004-4.82 6.623-.432 3.62 1.026 6.762 3.266 7.22 2.23.47 4.389-2.004 4.82-6.623zM136.302 242.192c1.38-3.266.863-6.776-1.163-7.837s-4.77.726-6.16 3.991-.862 6.776 1.164 7.836 4.77-.724 6.16-3.99z" fill-rule="evenodd" fill="#6b18b6"/>
    <path d="M131.281 234.812c0-1.666-1.286-3.017-2.873-3.017s-2.874 1.36-2.874 3.017 1.287 3.017 2.874 3.017 2.873-1.36 2.873-3.017zM128.984 227.346c0-1.607-1.168-2.73-2.686-2.73-1.429 0-2.686 1.223-2.686 2.73 0 1.608 1.167 2.73 2.686 2.73s2.686-1.222 2.686-2.73zM131.429 212.978c0-2.64-1.126-4.698-2.614-4.698-1.389 0-2.614 2.069-2.614 4.698 0 2.639 1.126 4.697 2.614 4.697s2.614-2.068 2.614-4.697zM139.166 211.872c.336-2.616-.609-4.706-1.886-4.888-1.377-.184-2.764 1.708-3.099 4.226-.336 2.617.61 4.706 1.886 4.889 1.376.183 2.763-1.709 3.098-4.226zM194.286 101.894c1.026-3.664-.032-7.147-2.36-8.001-2.328-.866-6.047 1.342-6.071 4.906-1.026 3.666.032 7.147 2.36 8.002 2.329.864 6.047-1.343 6.071-4.907zM183.817 117.766c3.071-2.613 4.383-6.227 2.93-8.071-1.462-1.846-6.119-1.221-8.19 1.392s-4.382 6.227-2.93 8.072c1.463 1.844 6.12 1.22 8.19-1.393zM177.708 108.962c3.037-2.244 4.334-6.346 2.898-6.93s-6.063-1.047-8.1 1.196c-3.036 2.244-4.333 6.346-2.897 6.93s6.063 1.047 8.1-1.196zM201.267 93.467c2.048-1.666 2.923-3.73 1.964-4.836-.969-1.106-3.414-.731-6.462.834s-2.922 3.73-1.964 4.836c.969 1.106 3.414.731 6.462-.834z" fill-rule="evenodd" fill="#6b18b6"/>
    <path d="M188.978 108.47c1.4-2.163 1.494-4.496.21-6.21-1.284-.713-3.46.462-4.86 2.626s-1.496 4.497-.211 6.21c1.284.714 3.46-.461 4.86-2.626zM206.696 99.198c2.202-1.866 3.06-4.314 1.916-6.49-1.143-1.178-3.866-.627-6.068 1.229s-3.06 4.314-1.916 6.49c1.143 1.178 3.866.627 6.068-1.229zM174.68 120.828c2.069-.103 3.612-1.128 3.47-2.29-.141-1.163-1.926-2.022-3.983-1.919-2.069.103-3.613 1.128-3.471 2.29.142 1.163 1.926 2.022 3.984 1.919zM213.44 87.703c1.4-2.164 1.496-4.497.21-6.21-1.284-.714-3.46.462-4.86 2.626s-1.496 4.497-.21 6.21c1.284.714 3.46-.462 4.86-2.626z" fill-rule="evenodd" fill="#6b18b6"/>
    <path d="M446.83 163.376s6.386-10.108 3.917-19.621c-2.47-9.616-13.006-2.791-12.78.696.228 3.386 6.81 7.916 7.21 9.981.4 2.066-.744 8.422 1.663 9.046z" fill-rule="evenodd" stroke="#ef8a10" stroke-width=".96770688" fill="#ffd200"/>
    <path stroke-linejoin="round" d="M324.883 69.303s23.012.894 23.16 16.788c-.074 2.308 0 6.064-.818 11.691 4.642-2.467 7.696-9.309 7-13.702.074-16.118-20.664-26.47-29.342-13.778z" fill-rule="evenodd" stroke="#000" stroke-width="2.3218003200000004" fill="#217900"/>
    <path stroke-linejoin="round" d="M310.29 68.633s18.642-3.873 18.691 11.021c.16 14.894-6.883 17.277-6.883 17.277s14.224-3.063 14.298-18.17c.076-16.118-18.32-21.82-27.107-10.128z" fill-rule="evenodd" stroke="#000" stroke-width="2.3218003200000004" fill="#217900"/>
    <path stroke-linejoin="round" d="M373.282 389.962s86.796-24.618 113.006-131.041C471.069 368.262 376.1 402.916 376.1 402.916l-2.818-12.963z" fill-rule="evenodd" stroke="#000" stroke-width="2.47736633" fill="#f7df73"/>
    <path d="M382.186 396.684c2.682 0 9.32-7.343 13.132-8.19 3.812-.847 4.236-4.66-.142-4.8-4.377-.142-8.19 4.942-8.19 4.942s-3.812 3.247-7.766 3.671c-3.963.424-1.412 6.366 2.966 4.377z" fill-rule="evenodd" fill="#8c1800"/>
    <path d="M432.167 369.298s-9.037 6.226-7.766 6.496c1.271 1.27 9.32-4.942 9.46-6.084.142-.14 3.39-4.094-1.694-1.412z" fill-rule="evenodd" stroke="#8c1800" stroke-width="2.47736633" fill="#8c1800"/>
    <path d="M400.678 383.036s-2.683-.988 4.236-3.67c6.92-2.684 6.496-6.79 8.766-7.061 2.26-1.27 7.06-4.66 8.048-2.683s-6.083 6.93-6.496 6.364c-1.412.424-8.331 6.778-10.308 7.343-1.977.666-3.389.282-4.236-.283z" fill-rule="evenodd" fill="#8c1800"/>
    <path d="M446.682 346.036c-6.93 6.636-6.93 6.496-6.93 6.496" stroke="#8c1800" stroke-linecap="round" stroke-width="3.0186116699999996" fill="none"/>
    <path d="M464.486 336.16l-6.648 6.919" stroke="#8c1800" stroke-linecap="round" stroke-width="2.78641068" fill="none"/>
    <path d="M463.373 321.044l-6.366 10.166" stroke="#8c1800" stroke-linecap="round" stroke-width="2.66420979" fill="none"/>
    <path d="M470.866 306.644l-6.224 10.449M474.248 299.01l-1.696 3.67" stroke="#8c1800" stroke-linecap="round" stroke-width="2.3220088999999997" fill="none"/>
    <path d="M478.066 288.987l-1.412 4.377" stroke="#8c1800" stroke-linecap="round" stroke-width="1.39320634" fill="none"/>
    <g>
      <path stroke-linejoin="round" d="M160.26 216.97s61.968-14.677 67.647-78.444c-9.11 66.464-66.96 86.204-66.96 86.204l-1.687-7.76z" fill-rule="evenodd" stroke="#000" stroke-width="1.483" fill="#f7df73" transform="matrix(-1.66628 0 0 1.70062 624.796 20.382)"/>
      <path d="M260.697 394.416c-2.668 0-9.234-7.476-13.012-8.337-3.778-.862-4.197-4.744.14-4.888 4.337-.143 8.116 6.032 8.116 6.032s3.778 3.306 7.696 3.737c3.918.432 1.4 6.462-2.938 4.466z" fill-rule="evenodd" fill="#8c1800"/>
      <path d="M196.61 197.62s-6.41 3.127-4.649 3.888c.76.761 6.679-2.968 6.663-3.043.086-.084 2.029-2.461-1.014-.846z" fill-rule="evenodd" stroke="#8c1800" stroke-width="1.483" fill="#8c1800" transform="matrix(-1.66628 0 0 1.70062 624.796 20.382)"/>
      <path d="M232.373 380.624s2.669-1.006-4.197-3.737-6.436-6.894-8.676-7.188c-2.239-1.293-6.996-4.743-7.976-2.73s6.037 6.037 6.436 6.468c1.4.431 8.266 6.9 10.214 7.476 1.969.676 3.368.287 4.197-.288z" fill-rule="evenodd" fill="#8c1800"/>
      <path d="M203.64 189.68c-3.66 3.973-3.66 3.888-3.66 3.888" stroke="#8c1800" stroke-linecap="round" stroke-width="1.807" fill="none" transform="matrix(-1.66628 0 0 1.70062 624.796 20.382)"/>
      <path d="M208.87 183.17l-3.381 4.142" stroke="#8c1800" stroke-linecap="round" stroke-width="1.668" fill="none" transform="matrix(-1.66628 0 0 1.70062 624.796 20.382)"/>
      <path d="M214.19 174.72l-3.804 6.086" stroke="#8c1800" stroke-linecap="round" stroke-width="1.629" fill="none" transform="matrix(-1.66628 0 0 1.70062 624.796 20.382)"/>
      <path d="M218.67 166.1l-3.127 6.266M220.7 161.63l-1.014 2.198" stroke="#8c1800" stroke-linecap="round" stroke-width="1.39" fill="none" transform="matrix(-1.66628 0 0 1.70062 624.796 20.382)"/>
      <path d="M222.98 166.63l-.846 2.62" stroke="#8c1800" stroke-linecap="round" stroke-width=".834" fill="none" transform="matrix(-1.66628 0 0 1.70062 624.796 20.382)"/>
    </g>
    <path stroke-linejoin="round" d="M490.42 239.302c.427 6.682 6.967 13.08 4.408 24.738-3.27 13.221-14.786 44.641-12.796 60.186-3.412-4.692-2.844-9.1-3.128-16.64-.286-6.639 9.626-30.86 10.378-39.096 0-7.392.711-17.486 1.137-20.188z" fill-rule="evenodd" stroke="#000" stroke-width="2.3218003200000004" fill="#217900"/>
    <path stroke-linejoin="round" d="M490.42 239.442s10.663 13.606 10.094 24.169c-.668 10.663-6.64 23.173-4.66 28.718-3.411-4.692-4.264-7.678-4.649-14.217-.284-6.64 6.26-13.791 4.123-20.9-1.137-7.108-6.26-17.77-6.118-17.77zM141.123 242.427c-.426 6.682-6.402 12.662-2.843 24.31 3.27 13.222 14.928 29.999 13.08 49.192 3.412-4.692 4.407-9.962 4.691-16.492.286-6.64-12.938-28.676-13.79-36.822 0-7.392-.711-17.486-1.138-20.188z" fill-rule="evenodd" stroke="#000" stroke-width="2.3218003200000004" fill="#217900"/>
    <path stroke-linejoin="round" d="M141.123 242.676s-10.378 13.08-9.81 23.742c.142 7.109 13.222 36.822 11.232 42.367 3.412-4.691 4.407-4.123 4.264-11.231-3.838-18.198-10.663-29.866-9.626-36.966 1.137-7.108 3.98-17.913 3.839-17.913z" fill-rule="evenodd" stroke="#000" stroke-width="2.3218003200000004" fill="#217900"/>
    <path stroke-linejoin="round" fill="#fff" stroke-dashoffset="1" transform="matrix(1.16616 0 0 1.16634 201.97 -23.618)" stroke="#000" stroke-linecap="square" stroke-width="1.661" d="M99.969 126.78l22.172 68.231 71.743.003-68.04 42.172 22.167 68.233-68.041-42.16-68.044 42.16 22.168-68.23-68.04-42.17h71.743z"/>
  </g>
</svg>
