<svg xmlns="http://www.w3.org/2000/svg" height="480" width="640">
  <path fill="#006" d="M0 0h640v480H0z"/>
  <g fill-rule="evenodd">
    <path d="M408.303 192.26h214.293l-.266 163.441c1.782 61.682-36.423 99.967-106.72 117.214-49.926-12.476-107.489-38.28-107.673-116.464l.266-166.193z" fill="#fff"/>
    <path d="M44.069 22.713h169.3l-.201 120.79c1.408 48.668-28.777 78.69-84.317 92.276-39.437-9.82-84.916-30.13-84.982-90.9l.201-122.17z" stroke="#000" stroke-width="1pt" fill="#00a2bd" transform="matrix(1.2096 0 0 1.2172 369.74 169.23)"/>
    <path d="M616.248 361.329c-7.46 66.418-60.63 81.069-100.66 94.162-44.276-11.961-91.91-31.032-101.143-93.869l201.798-.283z" fill="#a63d08"/>
  </g>
  <g stroke="#000" fill-rule="evenodd">
    <path stroke-linejoin="round" d="M166.77 197.17c.094.094.668 9.296-4.319 14.929 4.413 1.409 7.418-.282 8.826-2.066 1.409-1.784 1.879-4.037 1.879-4.037s1.22-.761 1.408-2.441c.094-2.348-.939-2.348-1.784-2.817l.187-6.268s-6.07-3.099-6.197 1.69z" stroke-width="1.26" fill="#ffc6b6" transform="matrix(1.2096 0 0 1.2172 369.74 169.23)"/>
    <path d="M166.49 210.32l-1.603-1.221" stroke-linecap="round" stroke-width="1pt" fill="#ff9a08" transform="matrix(1.2096 0 0 1.2172 369.74 169.23)"/>
  </g>
  <path d="M141.64 69.393s.117 6.626-.236 6.211c-.361.686-3.664 2.07-3.664 2.07l2.734 6.82s7.696-1.093 7.734-1.093 3.321-8.711 3.321-8.711-1.719-2.89-1.289-6.898c-2.678-8.166-8.694 1.64-8.711 1.601z" fill-rule="evenodd" stroke="#000" stroke-width="1pt" fill="#ffc6b6" transform="matrix(1.2096 0 0 1.2172 369.74 169.23)"/>
  <path stroke-linejoin="round" d="M131.46 203.09s4.319 4.319 9.296 3.766c11.268-1.22 14.664-11.267 18.028-11.361s6.634 6.103 8.92 6.362c-2.817-6.164-6.821-16.619-6.362-24.694.47-8.076.47-42.066.47-42.066s-6.634-17.668-8.263-20.469c2.629-2.817 4.413-7.793 4.319-13.239-.094-6.446 0-11.466 0-11.466s1.314-1.602 1.221-6.727c-.094-4.226-7.136-10.328-8.076-10.047-.939.281-9.766 7.887-10.616 9.67-.762 1.786-1.784-6.478-.094-7.23 1.69-.76-3.944-1.22-7.612 3.006-3.668 4.226-2.636 124.69-2.441 124.6z" fill-rule="evenodd" stroke="#000" stroke-width="1.26" fill="#006121" transform="matrix(1.2096 0 0 1.2172 369.74 169.23)"/>
  <path d="M467.618 224.122l39.97.144-.286-18.631 14.662.144.142 18.387h39.828l.142 14.366-39.97.144-.32 169.41-14.202.09-.182-169.641-39.693.143.009-14.662z" fill-rule="evenodd"/>
  <path d="M122.03 81.969s-2.268-.398-3.984.133 2.666-19.686 2.666-21.246c1.627-.73 9.162-2.126 8.963-7.603-.631-3.263-11.818.2-11.619 4.316-.73 2.068-8.099 23.038-6.639 29.943 2.689 2.068 7.37 1.66 10.623 1.129v-6.772z" fill-rule="evenodd" stroke="#000" stroke-width="1pt" fill="#ffc6b6" transform="matrix(1.2096 0 0 1.2172 369.74 169.23)"/>
  <path d="M124.22 63.211s-.664 3.718 2.722 4.26" stroke="#000" stroke-linecap="round" stroke-width=".626" fill="none" transform="matrix(1.2096 0 0 1.2172 369.74 169.23)"/>
  <path d="M129.2 63.144c-.133.066-4.382 2.722-4.382 2.722M128.94 64.804l-2.988 2.191M127.81 62.348l-3.32 1.992" stroke="#000" stroke-width=".376" fill="none" transform="matrix(1.2096 0 0 1.2172 369.74 169.23)"/>
  <path d="M96.49 163.66l30.14 31.267c10.422-11.466 3.193-64.272-10.616-62.168-1.643 6.07-4.437 11.149-7.407 13.109-6.634 4.463-22.646 9.669-17.194 12.993 1.22-1.69 4.413-3.286 6.916.47 1.784 6.916-6.666 6.291-6.666 6.291s-6.362-.668-6.291-6.104c-.939-6.446 7.972-10.417 8.732-10.797.761-.282 12.394-3.38 14.366-13.709 2.441-10.141 4.976-8.638 6.446-8.826 16.21 1.602 26.163 28.732 26.727 47.886.663 19.164-7.793 31.83-9.296 32.676-1.602.846-36.243-41.219-36.243-41.219l3.286-1.878z" fill-rule="evenodd" stroke="#000" stroke-width="1pt" fill="#ff9a08" transform="matrix(1.2096 0 0 1.2172 369.74 169.23)"/>
  <path d="M117.46 134.46l.187 66.43M114.08 136.48l.187 61.267M110.42 142.9l.187 40.76M107.42 146.81l.188 33.709M104.22 147.32v28.46M100.76 149.67v22.634M97.744 161.36v17.276" stroke="#000" stroke-width="1pt" fill="none" transform="matrix(1.2096 0 0 1.2172 369.74 169.23)"/>
  <path d="M96.021 167.13l31.079 36.68M127.6 144.69s14.086 30.798 1.033 66.149M91.369 160.66s1.033-2.723 2.347-1.696M88.918 162.76s-6.634 4.976-2.636 8.169" stroke="#ffdf00" stroke-linecap="round" stroke-width="1.26" fill="none" transform="matrix(1.2096 0 0 1.2172 369.74 169.23)"/>
  <path d="M141.03 82.999s.47 4.32-.469 7.606 3.668 12.394 1.877 14.272M142.91 113.7l11.831-.094" stroke="#000" stroke-width="1pt" fill="none" transform="matrix(1.2096 0 0 1.2172 369.74 169.23)"/>
  <path d="M138.69 118.49c.094.187 1.408 6.197 1.032 10.328M142.44 120.66c-.376 1.221-6.268 16.117-6.07 16.68M146.36 114.36c.094.282-.376 8.826-1.69 10.047M161.36 113.7s7.7 17.84 7.606 24.882 2.629 21.314.846 27.606M163.8 138.4s-.664 13.239-6.103 18.403c-6.64 6.166 13.239 19.906 13.239 19.906" stroke="#000" stroke-linecap="round" stroke-width="1pt" fill="none" transform="matrix(1.2096 0 0 1.2172 369.74 169.23)"/>
  <path d="M163.61 176.86s2.066 18.216 6.64 19.63M136.62 146.34c.094.188-1.878 12.3-.282 14.272 1.697 1.972 14.836 20.469 14.272 39.624M146.86 193.61s-.376 11.649-11.08 12.488M143.66 186.91s3.193 12.018-7.699 19.624" stroke="#000" stroke-linecap="round" stroke-width="1.26" fill="none" transform="matrix(1.2096 0 0 1.2172 369.74 169.23)"/>
  <path d="M147.88 166.89s12.3 12.77 12.864 18.404M161.46 113.98s2.16 9.107 1.316 10.704" stroke="#000" stroke-linecap="round" stroke-width="1pt" fill="none" transform="matrix(1.2096 0 0 1.2172 369.74 169.23)"/>
  <path d="M113.61 132.69s-1.317-2.306-1.162-4.867-.412-6.602 7.82-9.713c6.021-6.103 10.618-8.149 13.663-9.712 4.446-2.881 7.327-2.223 9.96-3.211 1.729-1.976 1.646-6.338 3.467-10.206 1.811-3.869 6.021-11.863 8.478-10.618 3.468 1.236.741 11.606-.676 16.228s-2.469 7.408-4.774 9.63c-2.306 2.223-12.768 6.266-14.816 6.997s-11.441 2.88-13.828 6.174c-2.388 3.292-2.223 8.149-8.232 10.289z" fill-rule="evenodd" stroke="#000" stroke-width="1pt" fill="#ffc6b6" transform="matrix(1.2096 0 0 1.2172 369.74 169.23)"/>
  <path d="M112.86 126.78c.247-.082 4.116-1.317 6.926 2.141" stroke="#000" stroke-width="1pt" fill="none" transform="matrix(1.2096 0 0 1.2172 369.74 169.23)"/>
  <path stroke-linejoin="round" d="M141.91 66.2s-1.74 2.837-2.222 4.661c-.374 1.29-1.68-.087-2.218 2.708l1.036.181c-.412.823-.646 2.214-.628 2.643-.083.33-.662 1.834-.676 2.964.046.683 1.162 3.128 10.124-.741 8.972-3.869-2.881-14.86-6.616-12.216z" fill-rule="evenodd" stroke="#000" stroke-width="1.26" fill="#ffc6b6" transform="matrix(1.2096 0 0 1.2172 369.74 169.23)"/>
  <path stroke-linejoin="round" d="M140.9 66.663c.921-.494 7.467-1.07 6.368 11.688 1.267-.166 2.011-.33 2.764.906.764 1.236.671 2.717 2.011 2.717 1.341 0 1.609-.247 1.844-1.236.334-.988 6.63 1.162 6.869-3.467-.232-.897-3.183-2.306-3.619-3.961.766-2.306-.336-9.796-9.886-10.207-4.944-.082-6.948 1.976-6.462 3.64z" fill-rule="evenodd" stroke="#000" stroke-linecap="round" stroke-width="1.261" fill="#c69200" transform="matrix(1.2096 0 0 1.2172 369.74 169.23)"/>
  <path d="M140.42 68.116c.083.082 2.964.906 3.293 2.306" stroke="#000" stroke-linecap="round" stroke-width="1pt" fill="none" transform="matrix(1.2096 0 0 1.2172 369.74 169.23)"/>
  <path d="M631.733 244.091c0 .626-.402.961-.898.961s-.897-.426-.897-.96.401-.961.897-.961.898.426.898.96z" fill-rule="evenodd"/>
  <path stroke-linejoin="round" d="M164.38 61.642s-1.066 6.078 3.694 7.07M160.94 62.167s1.722.078 1.722 1.68c0 1.601-1.414 1.796-1.296 3.086.117 1.289 2.426 1.718 2.603 2.812M143.4 62.792c.078 0 8.243.938 7.774 2.969-.469 2.031-1.768 1.21-1.719 2.968s3.281.704 3.281.704.196-1.486 1.663-1.368.742 1.68 2.617 1.64" stroke="#000" stroke-linecap="round" stroke-width="1.26" fill="none" transform="matrix(1.2096 0 0 1.2172 369.74 169.23)"/>
  <path d="M138.41 66.468l1.936-.064" stroke="#000" stroke-linecap="round" stroke-width="1.26" fill="none" transform="matrix(1.2096 0 0 1.2172 369.74 169.23)"/>
  <path d="M143.46 73.696s.72 3.36-2 3.04" stroke="#000" stroke-linecap="round" stroke-width="1pt" fill="none" transform="matrix(1.2096 0 0 1.2172 369.74 169.23)"/>
  <g stroke-width="1pt">
    <path fill="#fff" d="M0 .063v28.44l343.648 226.93h43.266v-28.438L43.266.064H0zm386.904 0v28.439L43.266 264.433H0v-28.439L343.648.063h43.266z"/>
    <path fill="#fff" d="M161.21.063v264.37h64.484V.063H161.21zM0 84.863v84.79h386.904v-84.79H0z"/>
    <path fill="#c00" d="M0 101.811v60.874h386.904v-60.874H0zM174.107.063v264.37h38.69V.063h-38.69zM0 264.433l128.968-84.79h28.837l-128.968 84.79H0zM0 .063l128.968 84.79h-28.837L0 19.023V.063zm229.099 84.79L368.067.063h28.837l-128.968 84.79h-28.837zm167.806 169.68l-128.968-84.79h28.837l100.131 66.831v18.969z"/>
  </g>
</svg>
