<svg xmlns="http://www.w3.org/2000/svg" height="480" width="640">
  <g fill-rule="evenodd" stroke-width="1pt">
    <path fill="#ce0000" d="M320 0h320v480H320z"/>
    <path fill="#fff" d="M0 0h320v480H0z"/>
  </g>
  <g transform="translate(-12.38 -30.761) scale(1.6986)">
    <path d="M104.824 108.068c0 .81-.918 1.466-2.049 1.466-1.131 0-2.049-.666-2.049-1.466 0-.81.918-1.466 2.049-1.466 1.131 0 2.049.666 2.049 1.466z" fill-rule="evenodd" fill="#f1eeee"/>
    <path d="M40.727 100.98v37.209h37.211c0 6.2 6.202 12.402 12.404 12.402v37.207h37.208v-37.207c6.202 0 12.404-6.202 12.404-12.402h37.211V100.98h-37.211c0-6.2-6.202-12.402-12.404-12.402V61.371H90.342v37.207c-6.202 0-12.404 6.202-12.404 12.402H40.727z" fill-rule="evenodd" fill="#c00"/>
    <path d="M41.969 102.22v34.727H79.18c0 6.2 6.2 12.404 12.402 12.404v37.207h34.73v-37.207c6.202 0 12.402-6.204 12.402-12.404h37.211V102.22h-37.211c0-6.2-6.2-12.404-12.402-12.404V62.609h-34.73v37.207c-6.202 0-12.402 6.204-12.402 12.404H41.969z" fill-rule="evenodd" fill="#ffe600"/>
    <path d="M43.209 103.46v32.249h37.208c0 6.2 6.202 12.402 12.404 12.402v37.207h32.248v-37.207c6.202 0 12.404-6.202 12.404-12.402h37.208V103.46h-37.208c0-6.2-6.202-12.402-12.404-12.402V63.861H92.821v37.207c-6.202 0-12.404 6.202-12.404 12.402H43.209z" fill-rule="evenodd" fill="#707070"/>
    <path d="M44.46 104.7v29.766h37.208c0 6.2 6.202 12.404 12.404 12.404v37.207h29.767V146.87c6.202 0 12.404-6.204 12.404-12.404h37.208V104.7h-37.208c0-6.2-6.202-12.402-12.404-12.402V66.091H94.062v37.207c-6.202 0-12.404 6.202-12.404 12.402H44.46z" fill-rule="evenodd" fill="#a0a0a0"/>
    <g fill-rule="evenodd">
      <path d="M94.37 89.223c2.179 2.18.412 7.48-3.947 11.84s-9.66 6.126-11.84 3.946c-2.18-2.18-.413-7.48 3.946-11.84s9.66-6.126 11.84-3.946z" fill="#d0d0d0"/>
      <path d="M91.74 91.862c2.18 2.18 1.69 6.303-1.316 9.209s-7.03 3.496-9.209 1.316c-2.18-2.18-1.69-6.302 1.316-9.208s7.029-3.496 9.209-1.316z" fill="gray"/>
      <path d="M80.774 98.429l.877-.877 3.608 1.764-1.764-3.608.877-.877 3.608 7.016-7.016-3.608zM86.037 93.167l.877-.877 6.263 6.262-.877.877z" fill="#d0d0d0"/>
    </g>
    <g fill-rule="evenodd">
      <path d="M139.308 106.009c-2.18 2.18-7.481.412-11.84-3.947s-6.127-9.66-3.947-11.84c2.18-2.179 7.48-.412 11.84 3.947s6.126 9.66 3.947 11.84z" fill="#d0d0d0"/>
      <path d="M136.678 102.38c-2.18 2.179-6.303 1.69-9.209-1.316s-3.496-7.03-1.316-9.209c2.18-2.18 6.302-1.69 9.209 1.316s3.496 7.029 1.316 9.208z" fill="gray"/>
      <path d="M130.101 91.414l.877.877-1.764 3.608 3.608-1.764.877.877-7.016 3.608 3.608-7.016zM136.363 96.677l.877.877-6.262 6.262-.877-.877z" fill="#d0d0d0"/>
    </g>
    <g fill-rule="evenodd">
      <path d="M123.62 149.947c-2.179-2.18-.412-7.48 3.947-11.84s9.66-6.126 11.84-3.946c2.18 2.18.413 7.48-3.946 11.84s-9.66 6.126-11.84 3.946z" fill="#d0d0d0"/>
      <path d="M126.16 147.318c-2.18-2.18-1.69-6.303 1.316-9.209s7.03-3.496 9.209-1.316c2.18 2.18 1.69 6.302-1.316 9.208s-7.029 3.496-9.209 1.316z" fill="gray"/>
      <path d="M137.116 140.741l-.877.877-3.608-1.764 1.764 3.608-.877.877-3.608-7.016 7.016 3.608zM131.863 146.003l-.877.877-6.263-6.262.877-.877z" fill="#d0d0d0"/>
    </g>
    <g fill-rule="evenodd">
      <path d="M78.686 134.167c2.18-2.18 7.481-.412 11.84 3.947s6.127 9.66 3.947 11.84c-2.18 2.179-7.48.412-11.84-3.947s-6.126-9.66-3.947-11.84z" fill="#d0d0d0"/>
      <path d="M81.216 136.787c2.18-2.18 6.303-1.69 9.209 1.316s3.496 7.03 1.316 9.209c-2.18 2.18-6.302 1.69-9.209-1.316s-3.496-7.029-1.316-9.208z" fill="gray"/>
      <path d="M87.792 147.762l-.877-.877 1.764-3.608-3.608 1.764-.877-.877 7.016-3.608-3.608 7.016zM82.63 142.489l-.877-.877 6.262-6.262.877.877z" fill="#d0d0d0"/>
    </g>
    <path d="M269.29 414.67c0 41.096-34.107 74.409-76.181 74.409s-76.181-33.314-76.181-74.409 34.107-74.409 76.181-74.409 76.181 33.314 76.181 74.409z" transform="matrix(.34191 0 0 .36003 42.921 -26.627)" stroke="#707070" stroke-width="1pt" fill="none"/>
    <path d="M269.29 414.67c0 41.096-34.107 74.409-76.181 74.409s-76.181-33.314-76.181-74.409 34.107-74.409 76.181-74.409 76.181 33.314 76.181 74.409z" transform="matrix(.2606 0 0 .26669 68.641 9.023)" stroke="#707070" stroke-width="1pt" fill="none"/>
    <path d="M100.266 140.667a1.24 1.24 0 1 1-2.481 0 1.24 1.24 0 0 1 2.48 0zM120.11 140.667a1.24 1.24 0 1 1-2.48 0 1.24 1.24 0 0 1 2.48 0zM108.12 140.67v1.293h-1.664c-1.664 0-1.664 1.293 0 1.293h1.664v1.294c.006 1.34 1.443 1.602 1.649.104l.106-1.398h1.664c1.663 0 1.663-1.293 0-1.293h-1.664v-1.293c0-1.293-1.664-1.293-1.664 0z" fill-rule="evenodd" fill="#d0d0d0"/>
    <path d="M102.77 122.36v.733s-.389.661-2.868.733c-2.48.172-2.868 0-2.868 0 .066.64.647 1.862.41 3.3.096 1.686-.476 3.21-.476 3.21.066.089-.233.133-.764.089.41-.367.362-1.428.41-2.933.047-1.606-1.666-3.772-1.23-4.399.336-.627 7.376-.733 7.376-.733zM112.61 119.69c2.412-.111 6.469-.087 6.469-.087s.964 1.914.916 2.971c-.04 1.068-.368 1.968-.819 1.608-.46-.46.209-.366.29-1.608.08-1.142-.771-2.326-.771-2.326s-1.73.766-4.332.603c-2.602-.163-1.46-1.117-1.742-1.162z" fill-rule="evenodd" stroke="#707070" stroke-width=".146" fill="#d0d0d0"/>
    <path d="M113.43 121.68c2.412-.111 3.996.268 3.996.268s.964 1.916.916 2.972c-.04 1.067-.368 1.967-.819 1.607-.46-.46.21-.366.29-1.607.08-1.142-.771-2.326-.771-2.326s-1.73.766-4.332.603c-2.602-.162-1.86-.308-2.162-.363-.291-.046-.362.72-4.298.827-3.937.107-6.944-.827-6.944-.827s-.39.661-2.868.733c-2.48.172-2.868 0-2.868 0 .064.64.647 1.862.41 3.3.096 1.686-.476 3.21-.476 3.21.066.089-.233.133-.766.089.41-.367.363-1.428.41-2.933.047-1.606-1.664-3.772-1.23-4.399.336-.627 2.12-.04 2.46-.366.337-.326-1.69-2.621-1.23-4.766.36-2.146 2.404-1.64 4.917-1.466 2.612.074 8.078.724 9.423 0 1.346-.726.763-3.407 2.049-6.132.819-1.1 2.048-1.466 3.277-1.466.82 0 2.049 2.932 2.049 3.666l-.41.367h-.41v.366c-.936.094-1.066-.8-1.639-1.466-.246 1.033.82 4.4.82 6.698 0 1.833-.766 2.641-.814 2.612z" fill-rule="evenodd" stroke="#707070" stroke-width=".146" fill="#d0d0d0"/>
    <path d="M106.64 118.4c.034.73-3.166 2.369-3.427 3.017-.26.649.814 1.008.481 1.378-.332.37-.606.233-.673.302-.068.068-1.204-2.641-1.204-2.641s3.002-1.364 2.888-1.938c-.114-.686-2.216-.94-2.699-2.412s-.17-4.316-.481-4.91c-.311-.694-3.996-1.161-3.999-2.06-.003-.9 3.787-3.367 4.197-3.733.41-.367.82.366.41.733-.41.366-3.377 2.633-3.377 3 0 .366 2.468.733 3.277.733.82 0 1.23-.367 1.23-.733.004-.317-.82-.367-.82-1.1s.41-1.1 1.229-1.1c.41 0 1.197.47 1.229 1.1s-.729.684-.82 1.1c-.09.416.82.733 1.64.733.819 0 3.616 2.132 4.026 2.499.41.366.82.366.41.733-.41.366-.17.8-.68.434-.348-.364-.41-.733-.41-.733-.036-.334-3.037-1.833-3.447-1.467-.41.367 0 4.766 0 6.132 0 .733.864.73.82 1.833z" fill-rule="evenodd" stroke="#707070" stroke-width=".146" fill="#d0d0d0"/>
    <path fill-rule="evenodd" fill="#a7a7a7" d="M100.32 109.9h4.917v6.132h-4.917z"/>
    <rect transform="matrix(.66442 .83223 -.88237 .47066 0 0)" fill-rule="evenodd" rx=".446" ry=".199" height=".399" width="30.647" y="-26.672" x="138.6" fill="gray"/>
    <path d="M180.71 42.62a7.087 7.087 0 1 1-14.173 0 7.087 7.087 0 0 1 14.173 0z" fill-rule="evenodd" transform="matrix(.11663 0 0 .10346 80.66 101.47)" stroke="#707070" stroke-width="1pt" fill="#d0d0d0"/>
    <path d="M116.88 112.64c0 .304-1.902.66-4.097.66-2.196 0-4.097-.366-4.097-.66 0-.304 1.902.44 4.097.44 2.196 0 4.097-.744 4.097-.44z" fill-rule="evenodd" fill="gray"/>
    <path fill-rule="evenodd" fill="#a7a7a7" d="M100.73 116.03h4.097v1.466h-4.097z"/>
    <path d="M114.048 111.417c-.397.744-.774 1.276-.841 1.186-.068-.089.199-.764.696-1.608.397-.744.774-1.276.842-1.186.068.089-.2.764-.697 1.608zM116.083 113.343c-.462.397-.83.664-.842.674-.013-.08.344-.466.796-.863.463-.397.83-.664.842-.674.013.08-.343.466-.796.863z" fill-rule="evenodd" fill="gray"/>
    <path d="M114.664 112.414c.333.606.663 1.12.491 1.146-.062.027-.383-.443-.717-1.06-.334-.607-.663-1.12-.491-1.147.062-.027.383.444.717 1.06zM114.244 116.683c0 .1-1.284.183-2.868.183s-2.867-.082-2.867-.183c0-.102 1.284-.184 2.867-.184 1.684 0 2.868.082 2.868.184zM104.824 116.216c0 .102-.918.184-2.049.184-1.131 0-2.049-.082-2.049-.184 0-.1.918-.183 2.049-.183 1.131 0 2.049.082 2.049.183z" fill-rule="evenodd" fill="gray"/>
    <path d="M96.813 127.96s.676 1.643 3.666 1.666c2.881.022 3.872-.493 2.707-1.363s-3.333-.6-3.063.161c.28.761-.813 1.001-1.07.473-.267-.627-1.289-2.09.667-2.196 1.866-.106 6.784-.674 6.766.416.982 1.09-1.11 2.078.472 2.31 1.682.23 1.807-.266 4.628-.414 2.722-.16 3.761.606 4.694.413.932-.09.8-1.694.062-2.1-.737-.407-2.164-.482-2.617-.928-.363-.446-1.361-.083-1.26-.687.093-.603 1.402.347 1.417.09 0-.008.216-.179.26-.222-.166-.038-.269.023-.383.089.136-.108.126-.167.171-.246-.023-.033-.186.124-.213.092-.028-.033.19-.267.09-.176-.033.024-.292.162-.296.064.004-.036.136-.128.09-.178-.038-.042-.236.048-.26.068.113-.16.106-.148-.004-.26-.094-.111-.163-.109-.317.017.064-.18.081-.219-.074-.287-.127-.07-.133-.136-.291.189.06-.347-.102-.362-.036-.626.04-.16.262-.214.6-.18.676.006 1.038.816 1.269.813.22-.002.468-.868 1.416-.61.948.347 1.066.417 1.642.624.477.206-.336.62-.063.927.273.407 2.134 1.764 1.606 3.18-.629 1.416-1.892 1.64-2.014 2.262-.122.613 4.314.362 6.446.668 1.13.206 1.843 1.06 1.888 1.192.046.142-1.983.133-1.983.133s-1.041-.638-3.626-.687c-2.483-.049-3.429-1.06-4.368-1.176-.93-.126-2.911.21-4.018.16-1.108-.049-2.23-.224-2.947-.321-.717-.098-4.286 1.61-4.274 2.009-.744-.029-2.496-.124-2.423-.076.072.047.314-.776 1.68-.92 1.366-.144 2.694-.798 2.66-1.228-.044-.43.264-1.904.378-2.636.114-.632.626-.938.603-1.268-.122-.331-1.682-.672-3.179-.663-1.497.01-3.167.094-3.399.464-.24.361-.069 1.408.262 1.287.311-.12-.076-.806.262-.946.327-.14 1.166-.266 1.961-.284.787-.018 2.164.67 2.14.89-.014.22.44.962-.188 1.23-.63.279-1.916.403-3.148.34-1.232-.061-2.478-.486-2.927-.766-.448-.272-.723-1.098-.723-1.166z" fill-rule="evenodd" stroke="gray" stroke-width=".078" fill="#d0d0d0"/>
    <path d="M114.063 126.63a.329.329 0 1 1-.667 0 .329.329 0 0 1 .667 0z" fill-rule="evenodd"/>
    <path d="M129.61 120.77l1.696.344 2.666-1.824-.206.968-1.389.927c-.268.17-.614.326-.767.467.168.221.334.486.626.793l.86 1.39-.198.917-1.66-2.84-1.696-.346.17-.787zM126.79 109.04l3.086-1.421-.838-1.82.413-.191 2.017 4.38-.413.19-.842-1.828-3.086 1.421-.337-.731zM122.01 103.23l2.841-2.602.668.61-.073 4.398 2.23-2.042.622.669-2.841 2.602-.668-.61.076-4.4-2.233 2.044-.62-.669zM109.69 98.214l.466-3.824.799.097-.411 3.373 2.974.362-.066.462-3.773-.46zM103.48 98.762l-.69-3.79.793-.144.608 3.342 2.947-.636.082.448-3.74.68zM92.198 104.33l-.283-.363 2.01-1.613.894 1.116a6.69 6.69 0 0 1-.673 1.118c-.266.34-.672.66-.917.927-.466.373-.941.66-1.424.83-.482.177-.916.224-1.302.14a1.69 1.69 0 0 1-.934-.669 1.702 1.702 0 0 1-.367-1.049c-.009-.41.119-.822.383-1.236.264-.414.632-.81 1.106-1.189a4.786 4.786 0 0 1 1.014-.637c.336-.163.632-.23.89-.231.268 0 .61.068.764.206l-.488.662a1.293 1.293 0 0 0-.666-.148c-.176-.003-.383.048-.621.163a3.203 3.203 0 0 0-.719.444c-.287.23-.612.467-.677.681-.166.222-.278.43-.336.626-.066.192-.076.37-.06.636.028.283.13.633.304.76.214.268.466.436.766.6.292.062.612.026.96-.11.349-.136.68-.329.993-.68.272-.217.612-.463.718-.736.206-.276.346-.604.42-.686l-.46-.66-1.396 1.118zM92.068 132.03l-3.141 2.23-2.377-3.346.371-.263 1.91 2.69.973-.69-1.663-2.329.37-.263 1.664 2.328 1.427-1.013.466.666zM87.441 127.02c.447-.126.746-.414.897-.866.149-.463.143-.966-.02-1.638-.164-.683-.429-1.026-.794-1.328-.367-.304-.788-.39-1.266-.266a1.36 1.36 0 0 0-.72.466c-.18.224-.289.609-.324.866-.037.346-.002.71.107 1.096.166.648.408.987.76 1.316.348.327.802.412 1.36.264zm.218.8c-.616.174-1.17.06-1.666-.376-.496-.423-.861-1.047-1.094-1.872-.162-.64-.209-1.061-.167-1.631s.176-.876.406-1.184a1.63 1.63 0 0 1 .898-.624c.376-.106.746-.081 1.11.074.364.166.686.432.963.828.276.397.486.849.629 1.367.166.662.21 1.068.164 1.66-.046.481-.183.876-.412 1.181-.229.306-.606.606-.83.697zM87.981 120l-3.862-.087.061-2.697c.013-.642.067-.963.134-1.234.074-.28.2-.603.38-.668a.821.821 0 0 1 .686-.24c.273.006.6.161.682.436.18.284.29.718.328 1.302.07-.21.137-.371.203-.48.141-.232.317-.462.627-.667l1.072-1.034-.023 1.012-.82.787c-.236.23-.417.42-.643.669-.126.149-.216.284-.267.404-.062.118-.088.24-.11.363-.016.092-.024.24-.029.447l-.021.934 1.71.04-.018.804zm-2.134-.863l.04-1.731a4.067 4.067 0 0 0-.062-.864c-.044-.209-.118-.368-.22-.478a.48.48 0 0 0-.344-.17c-.182-.004-.334.098-.466.306-.122.204-.188.631-.198.982l-.044 1.926 1.274.029zM96.66 102.2l.026-4.606.746-.446 4.116 2.027-.787.47-1.208-.636-2.183 1.307.026 1.344-.734.439zm.694-2.269l1.77-1.069-1.093-.69a8.264 8.264 0 0 1-.78-.463c.06.261.092.618.096.8l.007 1.312zM116.86 98.734l4.167-1.738.7.61-.266 4.68-.741-.64.113-1.36-2.066-1.498-1.227.66-.691-.604zm2.36-.246l1.667 1.216.116-1.237a8.44 8.44 0 0 1 .122-.9 3.692 3.692 0 0 1-.698.402l-1.206.62zM128.6 112.83l3.747-.897.628 2.624c.126.627.188.936.186 1.227 0 .29-.067.638-.198.743a.82.82 0 0 1-.606.381c-.266.064-.622-.019-.77-.247-.247-.228-.463-.62-.648-1.176a2.463 2.463 0 0 1-.074.617c-.078.26-.192.617-.343.769l-.773 1.273-.236-.984.692-.97c.17-.282.297-.612.382-.688.083-.177.136-.33.164-.46.02-.127.026-.263.016-.379a3.717 3.717 0 0 0-.087-.44l-.217-.908-1.664.398-.187-.783zm2.28.282l.403 1.683c.086.368.176.632.27.823.096.19.208.326.336.406.13.08.264.106.376.077.177-.043.298-.18.364-.411.066-.23.046-.663-.069-1.002l-.448-1.872-1.24.296z" fill="#d0d0d0"/>
  </g>
</svg>
