<svg xmlns="http://www.w3.org/2000/svg" height="480" width="640" version="1">
  <g stroke-width="1pt" fill-rule="evenodd">
    <path fill="#f41408" d="M0 0h639.998v480H0z"/>
    <path fill="#21873b" d="M0 319.997h639.998V480H0z"/>
    <path d="M0 0h639.998v160.003H0z"/>
    <g>
      <path d="M220.479 141.06c22.308-49.262 84.602-72.826 138.83-62.697 27.36 10.188 46.74 27.764 67.987 62.66l-196.81.037zM194.609 147.426c-23.46-1.677-48.376-6.466-62.443-7.798-4.066-1.343-4.223-3.686-3.722-6.303.601-1.717 3.096-3.667 6.127-2.94 6.682 1.363 28.788 6.906 60.034 16.044zM319.139 61.614c-4.208-20.98-6.27-44.078-4.86-47.986.41-3.906 2.766-4.608 4.724-4.6 1.96.008 4.693 1.796 4.68 4.638-.027 6.33-.132 27.003-4.644 47.948zM330.679 62.001c-2.21-21.23-1.086-44.326-.308-48.186.778-3.86 3.19-4.376 6.141-4.216 1.962.16 4.607 2.163 4.224 4.984-.63 6.308-2.682 26.893-9.067 47.418zM341.139 63.286c-.276-21.322 2.94-44.266 4.066-48.046 1.126-3.789 3.676-4.123 6.606-3.818 1.93.306 4.296 2.483 3.767 6.283-1.01 6.26-6.113 26.601-13.329 46.681zM362.149 66.619c1.793-21.262 7.222-43.86 8.711-47.636 1.49-3.684 3.963-3.821 6.866-3.364 1.894.468 4.039 2.816 3.23 6.662-1.614 6.16-7.673 26.09-17.796 46.338zM362.999 68.663c3.867-21.034 11.486-43.097 13.33-46.647 1.844-3.66 4.321-3.488 6.161-2.88 1.841.609 3.747 3.13 2.674 6.8-2.01 6.007-10.2 26.37-22.16 43.726zM373.109 72.484c6.836-20.667 16.607-42.048 17.679-46.443 2.172-3.394 4.634-3.14 6.41-2.39 1.777.748 3.438 3.407 2.117 6.986-2.478 4.833-12.662 24.486-26.206 41.848zM383.069 77.207c7.808-20.113 19.607-40.666 21.999-43.863 2.491-3.21 4.92-2.76 6.617-1.873 1.697.887 3.096 3.668 1.63 6.13-2.936 4.618-14.868 23.396-30.146 39.607zM392.469 82.676c9.712-19.42 23.341-38.968 26.131-41.968 2.79-3 6.166-2.36 6.771-1.343 1.606 1.018 2.732 3.899.936 6.228-3.367 4.368-17.06 22.132-33.838 37.074zM401.329 88.876c11.644-18.677 27.001-36.963 30.07-39.73 3.068-2.768 6.374-1.943 6.876-.802 1.602 1.14 2.346 4.1.332 6.278-3.776 4.086-19.126 20.697-37.277 34.264zM409.679 96.766c13.292-17.69 30.464-34.68 33.787-37.192 3.324-2.614 6.64-1.61 6.926-.264 1.386 1.266 1.94 4.27-.276 6.281-4.164 3.77-21.049 19.1-40.439 31.166zM417.169 103.31c14.943-16.466 33.701-32.123 37.266-34.362 3.664-2.24 6.666-1.062 6.924.299 1.269 1.36 1.62 4.408-.881 6.236-4.604 3.424-22.816 17.362-43.298 27.828zM423.679 111.046c16.41-16.274 36.649-29.461 40.297-31.413 3.748-1.961 6.743-.629 6.872.823 1.129 1.462 1.108 4.608-1.464 6.146-4.803 3.071-24.338 16.66-46.716 24.444zM429.679 119.433c17.791-13.944 39.193-26.608 43.113-28.172 3.92-1.664 6.782-.18 6.77 1.363.987 1.634.678 4.678-2.03 6.01-6.076 2.688-26.716 13.616-47.863 20.808zM436.049 128.99c19.138-12.39 41.731-23.103 46.804-24.43 4.073-1.328 6.776.304 6.602 1.916.827 1.61.208 4.616-2.633 6.814-6.329 2.26-26.996 11.397-49.773 16.701zM439.229 138.221c20.24-10.866 43.763-19.771 47.946-20.778 4.183-1.006 6.726.763 6.396 2.422.672 1.67-.229 4.614-3.173 6.688-6.622 1.827-27.974 9.266-61.17 12.768zM442.689 148.006c21.216-9.197 46.614-16.198 49.779-16.867 4.266-.667 6.63 1.208 6.136 2.924.607 1.716-.676 4.678-3.704 6.313-6.678 1.378-28.766 6.984-62.21 8.63zM307.849 61.912c-6.33-20.638-9.744-43.448-9.733-47.373.01-3.924 2.283-4.82 4.234-4.976 1.962-.167 4.866 1.394 6.132 4.226.618 6.309 2.624 26.898.367 48.123zM296.749 63.213c-8.283-19.968-13.889-42.611-14.266-46.421-.367-3.91 1.81-4.982 3.739-6.293 1.93-.31 4.972 1.006 6.62 3.803 1.026 6.248 6.203 26.687 4.997 47.91zM286.719 66.413c-10.19-19.218-17.97-41.236-18.72-46.102-.746-3.866 1.32-6.107 3.21-6.67 1.892-.464 6.06.602 6.868 3.346 1.632 6.146 7.766 26.07 9.633 47.326zM276.319 68.369c-11.96-18.366-21.76-39.703-22.86-43.498-1.106-3.794.836-6.19 2.677-6.797 1.841-.608 6.088.212 6.16 2.883 2.009 6.008 10.179 26.376 14.03 46.412zM266.169 72.131c-13.66-17.369-26.44-37.867-26.9-41.662-1.46-3.696.343-6.237 2.12-6.986 1.777-.748 6.09-.184 6.409 2.396 2.476 4.834 12.639 24.492 18.362 46.162zM264.889 76.934c-16.313-16.183-29.09-36.636-30.91-39.196-1.82-3.66-.179-6.243 1.616-6.133 1.696-.89 6.061-.699 6.622 1.86 2.944 4.613 14.92 23.369 22.773 43.47zM246.639 82.306c-16.8-14.924-32.37-33.226-34.63-36.63-2.163-3.404-.677-6.21.927-6.229 1.606-1.02 4.976-.992 6.774 1.336 3.372 4.364 17.089 22.113 26.826 41.624zM236.779 88.282c-18.139-13.67-36.382-30.6-37.847-33.826-2.466-3.226-1.166-6.139.337-6.278 1.603-1.14 4.864-1.374 6.876.806 3.771 4.088 19.108 20.71 30.636 39.297zM228.269 96.23c-19.4-12.063-38.26-27.621-41.02-30.634-2.772-3.014-1.666-6.024-.281-6.28 1.386-1.268 4.709-1.762 6.926.247 4.168 3.766 21.068 19.083 34.377 36.663zM220.919 102.368c-20.447-10.633-40.668-24.614-43.709-27.406-3.041-2.792-2.124-4.88-.86-6.237 1.263-1.368 4.629-2.112 6.924-.28 4.492 3.438 22.768 17.416 37.646 33.922zM213.879 110.6c-21.398-8.842-42.92-21.237-46.223-23.772-3.303-2.636-2.694-4.69-1.469-6.143 1.126-1.464 4.306-2.47 6.87-.837 4.811 3.062 24.376 16.611 40.822 30.763zM207.669 119.324c-22.191-7.066-44.868-17.638-48.4-19.893-3.642-2.266-3.06-4.467-2.074-6.997s4.041-2.812 6.769-1.396c6.096 2.666 26.819 13.463 43.716 27.287zM202.329 128.292c-22.786-6.276-46.383-14.026-60.128-16.992-3.746-1.967-3.467-4.2-2.643-6.811.826-1.612 3.766-3.12 6.6-1.926 6.331 2.243 27.014 11.362 46.17 23.728zM198.129 137.278c-23.192-3.624-47.616-10.46-61.43-12.126-3.914-1.676-3.843-3.922-3.17-6.69.672-1.669 3.464-3.396 6.398-2.419 6.62 1.83 27.969 9.268 48.202 20.136z" fill="#f31609"/>
      <path d="M194.609 147.426c-23.46-1.677-48.376-6.466-62.443-7.798-4.066-1.343-4.223-3.686-3.722-6.303.601-1.717 3.096-3.667 6.127-2.94 6.682 1.363 28.788 6.906 60.034 16.044z" fill="#f31609"/>
      <path d="M129.386 141.622h381.23v12.662h-381.23z"/>
    </g>
  </g>
</svg>
