<svg xmlns="http://www.w3.org/2000/svg" height="480" width="640">
  <g fill-rule="evenodd" stroke-width="1pt">
    <path fill="#fff" d="M0 0h639.984v480H0z"/>
    <path fill="#0b7226" d="M0 0h214.301v480H0z"/>
    <path fill="#bc0000" d="M426.91 0h213.074v480H426.909z"/>
  </g>
  <path d="M213.126 268.71c.077-.1 3.468-6.038 3.066-6.081 1.662 1.197 4.416.063 2.346-2.63.604-1.089 1.14-1.919 1.643-3.008 1.138-2.132-1.299-3.06-2.263-1.676-.69 1.128-1.169 1.8-1.748 2.929-3.071-1.468-3.273 1.97-1.804 2.67-.662.922-1.762 2.443-2.413 3.366.39 1.143.783 2.286 1.174 3.43z" fill-rule="evenodd" fill="#9c4314"/>
  <path d="M212.722 267.388c-.101-.076-6.086-3.382-6.124-2.994 1.176-1.679 0-4.416-2.662-2.307-1.096-.489-1.936-1.113-3.032-1.601-2.147-1.107-3.03 1.342-1.644 2.286 1.138.674 1.816 1.133 2.964 1.707-1.414 3.09 2.017 3.244 2.696 1.767.932.639 4.644 2.732 6.476 3.37 1.137-.406.2-1.82 1.337-2.227zM234.369 293.669c.02-.124.174-6.96.276-6.928 1.943.309 3.911-2.047.809-3.429-.076-1.197.088-2.23.012-3.428-.014-2.416-2.696-2.063-2.74-.308.019 1.274-.162 2.136-.143 3.409-3.394.18-1.939 3.291-.361 3.118-.134 1.122-.386 2.988-.62 4.11l2.667 2.466z" fill-rule="evenodd" fill="#9c4314"/>
  <path d="M233.384 292.694c-.124-.018-6.961-.076-6.93-.192.28-1.948-2.103-3.882-3.44-.76-1.197.092-2.232-.067-3.429.036-2.416.049-2.026 2.624-.269 2.746 1.274-.038 2.137.13 3.41.093.23 3.392 3.32 1.892 3.124.318l6.766.602c.806-.9-.027-1.942.778-2.842z" fill-rule="evenodd" fill="#9c4314"/>
  <path d="M304.128 316.122s2.346 3.166 3.4 3.283c3.283.234 29.312 0 29.312 0 0-.04.938-.647.938-.686.86-1.096.782-1.72 1.642-2.816 1.368-1.367 3.322-1.797 4.69-3.166 6.862-1.407 11.138-2.814 17.001-3.762-.469-3.478-3.986-2.736-6.862-4.104-.686-.647-.47-1.094-.118-1.641l13.016-6.98v-1.407c-9.224 1.094-17.744 2.892-27.671 3.283L306.69 313.19l-2.462 2.931z" fill-rule="evenodd" stroke="#000" stroke-width=".99" fill="#42b2f3"/>
  <path d="M210.444 263.863h-.118c.688 0 .12.039 0-1.408" stroke="#000" stroke-width=".6278124999999999" fill="none"/>
  <path d="M210.96 266.428c-1.769-6.214-4.6-11.66-11.233-13.27-1.244-.282-2.127-3.834-.066-3.668 1.173.469.024-.223 1.196.246 1.161.416 2.968-.6 2.222-2.476 0-.236-2.213-4.164-2.213-4.281-.416-.46.366-2.969 2.346-1.642.938.616 1.876 2.06 3.228 2.346.498-.083.827-1.627.744-2.823 0-.117.117-4.062.117-4.062-.471-2.371 1.627-3.682 3.311-1.807.118.686-.013.692.104 1.178.386.786.866.907 1.406.117l2.228-2.228c1.323-.491 2.149-.983 2.228 1.76 0 0-1.826 2.287-2.688 3.116-.46.663-1.424 1.666.269 2.062.117 0 2.419.332 2.419.332 1.676.666 1.741 2.388.68 2.646 0 0-1.228 1.433-3.383 2.628-.663.632-1.21 1.173-.629 1.904 1.244.484.848.02 2.969.02 1.79-.414 1.624 3.969-1.61 3.672-.967.231-2.244.136-2.768 1.682-.236 1.204-.293 3.617-.293 4.103-.2 2.79.21 6.662.21 6.779.234 1.993-.47 1.29-.704 1.768zM230.14 291.186c-.228-.292-6.104-6.73-12.89-6.007-1.267.163-3.298-2.892-1.29-3.436 1.261.046.279-.134 1.64-.088 1.067-.749-.862-3.061-1.733-2.262-.079-.22-2.327.482-3.28.288-2.949-.283-4.237-3.678-2.083-4.828 1.34.612 3.873.66 6.243.37 1.363-.412.726-1.644-.686-1.828-1.866-.276-9.396-2.11-8.73-3.024-1.244-2.073-.01-3.671 2.176-2.67 1.803 1.093 2.013.48 1.674-.336-.634-1.66-1.048-1.179-1.126-2.624-.133-.867.148-1.66 1.427-1.106.64-.464 1.427 2.792 4.78 1.661.62.619 1.147-3.612 3.473-2.898 1.744.64.663 2.362.893 4.912.28 1.686 1.964 1.299 2.196.423-.364-3.873 3.422-3.941 3.866-2.632.36.966.683 3.662.226 6.012-.249 1.246-.061 3.716.742 4.21 1.334.034.473-.268 1.39-1.648 1.646-.994 3.947 2.606 1.136 4.414-2.966.64 1.68 11.938 2.072 12.67-.43.462-.94-.104-1.003.417z" fill-rule="evenodd" stroke="#286726" stroke-width="1.8309376" fill="#008d00"/>
  <path d="M266.663 321.4c0-.126-.92-6.901-.666-6.897 1.968 0 3.642-2.636.262-3.614-.262-1.17-.263-2.216-.626-3.387-.393-2.384-2.887-1.632-2.766.126.218 1.266.176 2.133.393 3.388-3.324.71-1.4 3.666.132 3.137.043 1.129.087 3.011.13 4.14l3.019 2.008z" fill-rule="evenodd" fill="#9c4314"/>
  <path d="M266.44 320.603c-.126.002-6.887 1.017-6.887.74-.028-1.968-2.686-3.606-3.617-.212-1.167.278-2.213.293-3.38.672-2.378.427-1.69 2.91.164 2.763 1.262-.236 2.131-.206 3.383-.441.767 3.313 3.674 1.349 3.134-.176l6.78-.307c.666-1.016-.331-1.913.324-2.929z" fill-rule="evenodd" fill="#9c4314"/>
  <path d="M264.134 283.663c16.66 9.769 20.803 8.361 20.112 4.023.793 0 .964.69 3.314-1.04-.328 6.4 6.641 10.078 10.89 9.307 3.833.247 3.339 6.317 3.339 6.317.233 6.188-1.612 7.286-1.28 12.473-.067 0-.116-.619-.174-.619-4.716-1.121-14.008-1.263-17.488-2.004 16.961-10.883-12.268-11.18-14.792-11.661-1.906-.248-.646-2.102.667-2.697 8.78-1.731-8.263-10.046-7.81-11.036-1.04-.619.073-1.113.073-1.113 1.166-.768 2.084-.403 3.26-1.16z" fill-rule="evenodd" stroke="#000" stroke-width="1.03876" fill="#33b1e9"/>
  <path d="M306.46 291.831a6.182 6.182 0 0 0-6.194 6.194c-.866 3.967-.743 9.622 0 14.839a6.182 6.182 0 0 0 6.193 6.194c11.46 1.236 23.784.866 34.378 0a6.182 6.182 0 0 0 6.193-6.194c1.36-4.699.99-9.646 0-14.839a6.182 6.182 0 0 0-6.193-6.194c-11.46-.494-23.166-1.113-34.378 0z" fill-rule="evenodd" stroke="#000" stroke-width="1.4840626" fill="#983d26"/>
  <path stroke-linejoin="round" d="M266.76 160.669l-7.844 6.793c-3.222 1.424-6.724 3.198-4.202 10.786-1.471 9.736 6.373 11.276 13.236 9.244 1.144-2.62 1.607-4.261 2.661-6.782-3.036-.467-4.668.696-7.413.41-1.891-.304-2.031-1.728-1.33-2.662 2.964-1.47 6.648-2.871 8.613-4.342-.07-.443-.14-.116-.21-.66-2.461 1.26-4.202 1.68-6.793 2.731-2.066.724-2.638-1.914-1.821-3.082 0 0 6.322-7.633 6.322-7.703.446-1.606.137-4.308-.21-4.832z" fill-rule="evenodd" stroke="#000003" stroke-linecap="round" stroke-width=".99" fill="#268728"/>
  <path d="M288.682 284.03a4.11 4.11 0 1 1-8.22 0 4.11 4.11 0 0 1 8.22 0z" fill-rule="evenodd" stroke="#000" stroke-width=".9894999999999999" fill="#fff"/>
  <path d="M269.192 299.63a3.876 3.876 0 1 1-7.76 0 3.876 3.876 0 0 1 7.76 0z" fill-rule="evenodd" stroke="#000" stroke-width=".98930018" fill="#fff"/>
  <path d="M366.476 308.21a3.876 3.876 0 1 1-7.76 0 3.876 3.876 0 0 1 7.76 0z" fill-rule="evenodd" stroke="#000" stroke-width=".9796976" fill="#fff"/>
  <path stroke-linejoin="round" d="M267.126 166.763c.093 2.33.166 6.266.166 6.147-.099-2.179-.862-3.924-1.146-4.781.34-.66.89-1.366.989-1.366z" fill-rule="evenodd" stroke="#000" stroke-width=".6278124999999999" fill="#ba4600"/>
  <path d="M306.119 312.908a3.876 3.876 0 1 1-7.76 0 3.876 3.876 0 0 1 7.76 0zM346.984 312.908a3.876 3.876 0 1 1-7.749 0 3.876 3.876 0 0 1 7.76 0zM346.984 294.12a3.876 3.876 0 1 1-7.749 0 3.876 3.876 0 0 1 7.76 0zM306.363 294.12a3.876 3.876 0 1 1-7.76 0 3.876 3.876 0 0 1 7.76 0z" fill-rule="evenodd" stroke="#000" stroke-width="1.42480124" fill="#973100"/>
  <path d="M267.144 323.61c-.229-.292-1.969-6.226-11.804-6.44-1.384-.08-2.261.317-6.063.124-1.624.133-.988-1.802-.344-2.498 1.066-.749-3.8-.384-6.473-.186-1.687-.097-2.822-.384-3.774-.677-2.96-.283-4.676-2.364-2.62-3.604.902-.887 4.672.122 6.94-.067 1.366-.412 1.166-2.694-.147-2.878-1.866-.276-10.006-.886-9.341-1.8-1.246-2.073-.884-3.146 2.36-2.746 1.802 1.094 1.76-.307 1.311-1.123-.634-1.66-3.496-1.79-3.676-3.136-.482-3.228 1.636-3.662 2.914-3.117.64-.466-2.42-2.98.932-4.21.833-.261 2.646-.068 3.124 3.003 1.744.64.639-2.008 2.904-3.044 2.028-.86-.136 9.081 2.283 8.992 2.083.848 1.673-6.428 3.417-4.207 3.77-.967 1.946 12.046 3.686 11.26 2.724 2.382 3.009-2.142 3.802-1.66 1.334.036 2.222.083 1.478 3.076-.664 2.328.276 2.868.698 3.802 2.647 6.614 6.37 6.661 7.646 8.146.41 3.82-.281 1.369-.344 1.88z" fill-rule="evenodd" stroke="#286726" stroke-width="1.8309376" fill="#008d00"/>
  <path d="M314.244 332.144c-4.703 3.863-9.688 6.366-11.377 10.386 2.143-.288 2.971-.646 4.67-.444 1.732-3.876 7.178-6.944 10.393-9.077l-3.687-.866zM326.816 332.666c4.262 3.928 9.623 6.173 11.376 10.323-2.143-.288-3.037-.681-4.314-.261-1.732-3.876-7.434-6.137-10.649-9.27 1.196-.289 2.391-.613 3.687-.802z" fill-rule="evenodd" stroke="#000" stroke-width=".99" fill="#009400"/>
  <path d="M323.61 333.363c6.162 3.092 7.208 6.317 10.382 9.274-1.626.092-3.664.784-4.447 1.237-3.834-4.987-6.802-6.76-10.016-9.892 1.196-.289 2.886-.33 4.08-.619z" fill-rule="evenodd" stroke="#000" stroke-width=".99" fill="#fff"/>
  <path d="M274.963 166.944c-2.064.668-2.966 2.308-3.143 3.931-7.604 6.326-2.077 16.811 4.976 13.633-6.218-7.813 0-12.227 6.803-9.488 1.769 1.29 2.986 3.98 3.16 3.814 1.106-2.394 6.473-4.478 6.473-4.478s3.619.473 4.163-1.803c.401-1.466 3.64-7.482 3.64-7.482l-11.276-2.321-7.793-.166-4.146 1.824c-.662.884-.284 1.661-.837 2.636z" stroke-opacity=".772" fill-rule="evenodd" stroke="#000" stroke-width=".99" fill="#ffba00"/>
  <path d="M319.4 333.606c6.163 3.092 7.616 6.987 10.69 9.944-1.397.412-1.87 2.71-2.662 3.164-2.474-4.988-6.664-9.238-10.892-13.484 1.196-.289 1.669.664 2.864.376z" fill-rule="evenodd" stroke="#000" stroke-width=".99" fill="#d40000"/>
  <path d="M317.46 333.006c-6.163 3.092-6.962 6.06-10.126 9.018 1.626.092 3.407 1.04 4.19 1.493 3.834-4.987 6.801-6.76 10.016-9.892-1.196-.289-2.886-.33-4.08-.618z" fill-rule="evenodd" stroke="#000" stroke-width=".99" fill="#fff"/>
  <path d="M321.66 333.26c-6.163 3.092-7.323 6.178-10.497 10.136 2.664 1.83 1.932 1.941 2.468 2.973 2.474-4.987 7.916-9.109 12.243-13.364-1.196-.289-3.01.636-4.206.247z" fill-rule="evenodd" stroke="#000" stroke-width=".99" fill="#d40000"/>
  <path d="M203.69 472.46c0 6.002-7.22 9.068-16.127 9.068s-16.127-4.066-16.127-9.068 7.22-9.068 16.127-9.068 16.127 4.066 16.127 9.068z" fill-rule="evenodd" transform="matrix(.41114 .13432 -.1236 .44716 238.466 46.832)" stroke="#000" stroke-width="2.243" fill="#973000"/>
  <path d="M313.288 326.763c-3.716 2.669-8.967 6.234-12.681 8.903-.763.661 2.676 1.334 3.798.736 3.92-2.692 6.983-4.466 9.904-7.147l2.242-1.261c-1.6-.116-1.663-1.127-3.263-1.241z" fill-rule="evenodd" stroke="#006e00" stroke-width=".99" fill="#008d2b"/>
  <path d="M203.69 472.46c0 6.002-7.22 9.068-16.127 9.068s-16.127-4.066-16.127-9.068 7.22-9.068 16.127-9.068 16.127 4.066 16.127 9.068z" fill-rule="evenodd" transform="matrix(.3491 -.13706 .16417 .36723 137.816 164.088)" stroke="#000" stroke-width="2.649" fill="#973000"/>
  <path d="M361.172 286.636c.194-10.192 9.13-1.269 12.638-6.468 8.246-9.717 8.962-10.467 16.236-9.403 19.622 7.672-.866 26.412-20.808 17.334-2.19-1.206-6.876-1.26-8.066-2.464z" fill-rule="evenodd" stroke="#000" stroke-width="1.0396874999999999" fill="#008d00"/>
  <g fill-rule="evenodd" fill="#6d390b">
    <path d="M424.792 262.061c-.26 1.14-1.692 1.744-2.976 1.361s-2.291-1.634-2.03-2.773 1.692-1.744 2.974-1.361 2.291 1.634 2.03 2.773z"/>
    <path d="M424.134 261.634l4.76 4.12-1.261 1.442-4.76-4.12z"/>
  </g>
  <path d="M396.319 266.622l1.037 1.463 3.683-3.122-1.037-1.463-3.683 3.122z" fill-rule="evenodd" fill="#6d390b"/>
  <path d="M306.46 291.7c6.069 1.866 10.61 23.867 16.446 26.846M311.272 291.678c6.06 1.866 10.387 23.867 16.323 26.846M316.962 291.336c6.06 1.866 10.612 23.99 16.447 26.967" stroke="#000" stroke-linecap="round" stroke-width="1.4840626" fill="none"/>
  <path d="M203.69 472.46c0 6.002-7.22 9.068-16.127 9.068s-16.127-4.066-16.127-9.068 7.22-9.068 16.127-9.068 16.127 4.066 16.127 9.068z" fill-rule="evenodd" transform="matrix(.3491 -.13706 .16417 .36723 226.363 148.76)" stroke="#000" stroke-width="2.243" fill="#973000"/>
  <path d="M398.169 271.676c.303 1.176-.223 2.7-2.29 3.234-2.068.634-4.01-.272-4.313-1.447-.304-1.176.894-2.866 2.962-3.4 2.067-.634 3.337.438 3.64 1.613z" fill-rule="evenodd" stroke="#000" stroke-width=".9460000000000001" fill="#dc0000"/>
  <path d="M307.176 328.01c-3.066.621-10.064 2.136-13.1 8.243-.663 1.16-6.16 2.04-4.628.067.719-1.039.976-1.129 1.694-2.167-.066-1.302-3.036-.917-2.83.247-.229-.062-1.67.227-2.346.926-1.827 2.333-4.946 2.229-4.838-.26 1.163-.862 1.737-1.671 2.316-2.926.382-1.363-2.283-1.86-3.146-.846-1.824.966-2.969 2.322-6.14 3.38-2.417.87-4.74-.68-2.636-1.926 1.893-.93.316-3.08-.608-3.149-1.694-.386-8.123.717-9.299.069-.92-.121-2.6-2.64-.63-2.971 1.783-.682 4.761.663 6.63-2.834.771-6.871 10.088 3.004 8.676.663-3.413-6.047 2.397-6.233 4.16-2.796.716 1.662 4.263 3.863 6.292 3.42 1.934.216-3.688-4.888.796-6.72 1 .212 2.784.288 4.014 1.994.916.88 1.11 4.607 4.632 4.808.748-1.104.03-.642-.638-2.069-.006-1.837 3.032-1.687 4.33 1.422 1.286 2.374 8.074.762 14.286.904 1.99-.326 6.192 1.424-6.777 1.64z" fill-rule="evenodd" stroke="#286026" stroke-width="1.8309376" fill="#008d00"/>
  <path d="M391.288 271.46c1.092 1.679 1.07 4.339-1.884 6.261s-6.41 1.683-7.604.004c-1.093-1.679-.108-4.961 2.846-6.873 2.963-1.922 6.46-1.071 6.642.608z" fill-rule="evenodd" stroke="#000" stroke-width=".99" fill="#dc0000"/>
  <path d="M393.406 264.494c1.023.663 1.677 2.127.628 3.927-1.148 1.8-3.118 2.634-4.141 1.88-1.023-.662-1.3-2.706-.16-4.606 1.148-1.8 2.74-1.966 3.763-1.302z" fill-rule="evenodd" stroke="#000" stroke-width=".9460000000000001" fill="#dc0000"/>
  <path d="M396.619 267.66c.662 1.017.648 2.63-1.142 3.796s-3.886 1.02-4.648.003c-.662-1.018-.066-3.001 1.726-4.166 1.789-1.166 3.302-.649 3.966.369z" fill-rule="evenodd" stroke="#000" stroke-width=".9460000000000001" fill="#dc0000"/>
  <path d="M403.176 261.622c.498.766.488 1.979-.869 2.866-1.346.877-2.924.767-3.422.002-.498-.766-.06-2.268 1.297-3.136 1.347-.876 2.486-.488 2.984.278z" fill-rule="evenodd" stroke="#000" stroke-width=".7106260000000001" fill="#d90000"/>
  <path d="M318.088 323.331c-2.636.31-4.134.472-4.64 2.378-.281 1.294-.067 2.986.168 4.437 0 1.668 2.106 2.773 4.666 3.249h4.218c1.776 0 6.062-1.739 6.062-3.407.263-.943.263-2.466.263-3.496 0-2.806-1.98-2.978-4.466-3.24l-6.161.078z" fill-rule="evenodd" stroke="#000" stroke-width=".99" fill="#fff"/>
  <path d="M411.734 290.19c-.29-9.734-2.866-23.842 9.094-28.68 1.642-.402 2.099.467 1.674 1.749l-10.668 26.931z" fill-rule="evenodd" stroke="#286326" stroke-width="1.633126" fill="#008f00"/>
  <path d="M427.176 270.372c2.127-4.001 7.386-6.01 9.24-4.886-3.67 3.76-7.338 12.943-9.399 16.961-2.968 6.112-11.624 8.739-16.817 11.748 6.812-7.914 11.164-14.9 16.977-22.814z" fill-rule="evenodd" stroke="#286326" stroke-width="1.633126" fill="#008c00"/>
  <path d="M318.313 323.276s-2.639.47-2.697.47-2.062 1.289-2.062 1.289-.41 2.62-.41 2.68.468 2.872.468 2.872l1.232 1.7 3.224 1.113.236-10.024z" fill-rule="evenodd" stroke="#000" stroke-width=".6278124999999999" fill="#009400"/>
  <path d="M410.16 293.172c.349-.36 6.84-30.96 17.663-34.676 1.748 2.273.906 7.216.206 9.838-3.323 11.426-11.398 19.267-17.87 24.737z" fill-rule="evenodd" stroke="#286326" stroke-width="1.633126" fill="#008d00"/>
  <g fill-rule="evenodd" fill="#6d390b">
    <path d="M434.064 266.617c-.467 1.07.246 2.348 1.69 2.864s2.814.047 3.281-1.024-.244-2.349-1.69-2.864-2.814-.047-3.28 1.024z"/>
    <path d="M434.89 266.491l-6.268.492.16 1.904 6.268-.493z"/>
  </g>
  <g fill-rule="evenodd" fill="#6d390b">
    <path d="M407.649 286.838c-.673 1.081-2.228 1.212-3.473.29s-1.71-2.643-1.038-3.626 2.227-1.211 3.473-.29 1.71 2.643 1.038 3.626z"/>
    <path d="M407.176 286.067l3.28 6.032-1.776 1.026-3.28-6.031z"/>
  </g>
  <g fill-rule="evenodd" fill="#6d390b">
    <path d="M416.414 296.28c-.683-1.132.103-2.634 1.632-3.13s3.06-.164 3.644.968-.102 2.634-1.631 3.13-3.061.164-3.646-.968z"/>
    <path d="M416.327 296.274l-6.86-.278.03-2.061 6.86.278z"/>
  </g>
  <path d="M406.463 302.286c6.66-3.604 2.483 1.462 2.07 4.22-1.966 6.83-3.802 6.874-6.112 8.038-3.446 3.143-14.487 1.618-19.617 2.913 6.43-4.67 17.229-10.602 23.66-16.171zM396.497 300.7c2.776-2.203 3.232-7.068 3.047-8.764-2.616 3.694-8.967 7.643-11.021 9.621-3.634 3.043-6.704 11.183-7.607 16.12 6.41-6.822 10.172-11.164 16.68-16.987z" fill-rule="evenodd" stroke="#286326" stroke-width="1.3284376" fill="#008c00"/>
  <path d="M360.922 328.647c4.349-1.276 11.76 1.937 12.97 3.36-6.247 0-13.76 3.643-17.342 4.273-6.73 1.46-21.62-7.616-27.31-8.796 9.498-.479 21.96 2.649 31.682 1.172z" fill-rule="evenodd" stroke="#286326" stroke-width="1.633126" fill="#008c00"/>
  <path d="M327.819 327.728c3.714 2.67 8.966 6.236 12.68 8.904.763.66-2.674 1.334-3.798.736-3.92-2.692-6.983-4.466-9.903-7.147l-2.243-1.262c1.6-.116 1.663-1.126 3.264-1.24z" fill-rule="evenodd" stroke="#004600" stroke-width=".99" fill="#00602b"/>
  <path d="M379.372 317.463c.446-.169 18.163-24.073 29.16-23.086.661 2.623-2.017 6.661-3.661 8.666-7.408 8.684-17.624 12.266-26.6 14.629z" fill-rule="evenodd" stroke="#286326" stroke-width="1.6690626" fill="#008c00"/>
  <g fill-rule="evenodd" fill="#6d390b">
    <path d="M377.196 313.962c-1.103.637-2.636.02-3.2-1.38s-.31-3.06.793-3.687 2.636-.019 3.2 1.38.31 3.06-.793 3.687z"/>
    <path d="M377.146 313.04l.061 6.866-2.06.068-.061-6.866z"/>
  </g>
  <g fill-rule="evenodd" fill="#6d390b">
    <path d="M381.821 323.761c.074-1.271 1.378-2.129 2.912-1.916s2.718 1.418 2.644 2.689-1.378 2.129-2.912 1.916-2.718-1.417-2.644-2.689z"/>
    <path d="M382.61 324.22l-6.764-3.73 1.07-1.76 6.763 3.73z"/>
  </g>
  <path d="M231.613 236.94c.618-.773 1.714-1.282 3.203-.447 1.49.834 2.12 2.296 1.6 3.07-.618.776-2.193 1.008-3.683.174-1.489-.834-1.64-2.022-1.12-2.796z" fill-rule="evenodd" stroke="#000" stroke-width=".73876" fill="#dc0000"/>
  <path d="M367.894 326.46c7.312-1.934 6.876-6.466 10.293-8.634-7.909-1.168-14.218 1.641-17.696 3.6-6.337 3.442-6.718 7.178-11.342 9.761 7.883-1.006 11.434-2.138 18.644-4.718z" fill-rule="evenodd" stroke="#286326" stroke-width="1.3284376" fill="#008c00"/>
  <path d="M334.044 327.697c20.914 1.678 17.68-6.913 40.6-6.703-.338 2.684-4.714 6.062-6.972 7.312-10.023 6.3-26.493 7.783-33.629-.609z" fill-rule="evenodd" stroke="#286326" stroke-width="1.6690626" fill="#008c00"/>
  <path d="M323.413 323.219l.068 9.848 2.697-1.066s1.113-1.769 1.113-1.876c0-.117.47-2.404.47-2.462 0-.069-.236-2.814-.236-2.814l-2.062-1.348-2.061-.293z" fill-rule="evenodd" stroke="#000" stroke-width=".6278124999999999" fill="#d40000"/>
  <path fill-rule="evenodd" fill="#6d390b" d="M236.346 231.77L233 228.091l1.139-.964 3.346 3.677z"/>
  <path d="M232.137 234.036c.668-.988 1.877-1.638 3.607-.672 1.631 1.064 2.32 2.93 1.762 3.919-.667.988-2.4 1.287-4.032.222-1.63-1.066-1.794-2.68-1.227-3.67z" fill-rule="evenodd" stroke="#000" stroke-width=".87376" fill="#dc0000"/>
  <path d="M241.363 229.91c.963.039 1.987.882 1.934 2.8-.064 1.916-1.09 3.382-2.044 3.342s-1.966-1.602-1.912-3.42c.064-1.916 1.067-2.76 2.022-2.722z" fill-rule="evenodd" stroke="#000" stroke-width=".7940626" fill="#dc0000"/>
  <path d="M236.666 230.678c1.08-.283 2.489.196 2.996 2.098.608 1.901-.22 3.691-1.3 3.976-1.081.283-2.647-.813-3.166-2.716-.607-1.902.378-3.074 1.46-3.368z" fill-rule="evenodd" stroke="#000" stroke-width=".87" fill="#dc0000"/>
  <path stroke-linejoin="round" d="M263.6 261.176c-3.261-8.29-12.16-22.064-21.224-16.42-10.06 8.677 4.688 22.329 17.08 21.666l4.146-6.136z" fill-rule="evenodd" stroke="#000" stroke-linecap="round" stroke-width=".99" fill="#008d00"/>
  <path d="M237.716 236.876c1.741-1.171 4.636-1.198 6.611 1.846 2.076 3.044 1.89 6.666.148 7.826-1.743 1.172-6.198.207-7.273-2.836-2.076-3.043-1.229-6.662.614-6.836z" fill-rule="evenodd" stroke="#000" stroke-width="1.0369376" fill="#dc0000"/>
  <path d="M231.276 223.028c.794-.634 2.068-.646 3.016.842.946 1.387.861 3.036.067 3.67-.794.633-2.37.093-3.317-1.296-.946-1.387-.66-2.682.236-3.117z" fill-rule="evenodd" stroke="#000" stroke-width=".744376" fill="#dc0000"/>
  <path d="M291.294 271.038c-4.097-7.29-16.278-16.406-26.667-10.673-13.469 9.462 6.432 23.611 24.776 16.63 1.736-1.798.166-4.26 1.891-6.068z" fill-rule="evenodd" stroke="#000" stroke-width="1.0396874999999999" fill="#008d00"/>
  <path d="M329.263 276.36c-4.097-7.289-26.066-16.676-36.622-8.683-11.976 13.432 6.699 22.782 29.263 16.132 1.736-1.798 4.633-6.761 6.369-7.66z" fill-rule="evenodd" stroke="#000" stroke-width="1.0396874999999999" fill="#008d00"/>
  <path stroke-linejoin="round" d="M243.978 248.126c.117 0 2.462 2.931 2.462 2.931l-.117-4.104M248.084 263.863l2.463 2.462M266.766 262.222l.236 2.814 1.624-.117M266.766 261.606c-.686-.361-2.68-1.993-2.68-1.993M261.01 261.84l-3.284-1.064" stroke="#000" stroke-linecap="round" stroke-width=".99" fill="none"/>
  <path d="M244.794 266.626l-3.166-1.066" stroke="#000" stroke-width=".99" fill="none"/>
  <path stroke-linejoin="round" d="M238.822 263.76h-2.697" stroke="#000" stroke-linecap="round" stroke-width=".99" fill="none"/>
  <path stroke-linejoin="round" d="M261.478 244.836v-3.618" stroke="#000" stroke-linecap="round" stroke-width=".6278124999999999" fill="none"/>
  <path stroke-linejoin="round" d="M246.79 263.838c-.36 0-4.924-.236-4.924-.236M266.003 266.997l-3.617 1.172M260.272 264.463c.117-.117 2.931-1.624 2.931-1.624M262.303 260.469c0-.117-.938-3.869-.938-3.869" stroke="#000" stroke-linecap="round" stroke-width=".99" fill="none"/>
  <path d="M318.031 323.266c-2.634.309-4.133.471-4.64 2.377-.28 1.294-.066 2.986.169 4.438.469 2.43 2.106 2.773 4.666 3.248h4.218c1.776 0 4.662-1.162 6.12-3.348.322-1.119.196-2.623.196-3.664-.234-2.67-1.98-2.978-4.466-3.24l-6.162.079zM318.322 323.276l-.083 9.783M323.46 323.276l-.084 9.783" stroke="#000" stroke-width=".99" fill="none"/>
  <path d="M429.266 239.613c1.647-6.086-3.807-6.288-6-9.144-2.444 4.784-1.687 9.666-1.166 12.218 1.003 4.16 4.69 7.036 6.302 10.66 1.08-6.246.907-8.462.863-13.626z" fill-rule="evenodd" stroke="#286326" stroke-width=".8887499999999999" fill="#008c00"/>
  <path d="M436.344 234.888c.104-2.783 3.734-4.776 6.197-6.216-.907 6.411.722 7.963.291 10.172-.323 3.624-6.96 9.16-9.782 12.236 1.43-6.944 2.862-11.26 4.293-17.193z" fill-rule="evenodd" stroke="#286326" stroke-width="1.18126" fill="#008c00"/>
  <path d="M428.694 266.681c.177-.332-2.762-26.866 4.6-31.164 1.93 1.133 2.662 4.788 2.704 6.792.408 8.801.696 13.273-7.304 24.373z" fill-rule="evenodd" stroke="#286326" stroke-width="1.2646876" fill="#008c00"/>
  <path d="M281.01 266.972c2.106.669 3.962 2.966 2.823 6.7-1.14 3.736-2.904 6.137-6.672 6.303-3.6-.834-4.246-4.17-3.106-7.906 1.139-3.734 3.847-4.766 6.964-4.098z" fill-rule="evenodd" stroke="#000" stroke-width="1.0940626" fill="#dc0000"/>
  <path d="M284.672 262.166c.67.47 1.07 1.466.263 2.672-.816 1.116-2.166 1.6-2.824 1.03-.67-.47-.802-1.813.014-2.93.816-1.114 1.887-1.142 2.667-.672zM279.031 261.013c.8-.17 1.794.209 2.064 1.667.26 1.367-.37 2.6-1.17 2.77-.8.169-1.873-.66-2.134-2.008-.26-1.367.46-2.16 1.26-2.33z" fill-rule="evenodd" stroke="#000" stroke-width="1.2634376" fill="#dc0000"/>
  <path d="M281.366 263.976c.783.236 1.473 1.046 1.06 2.361-.424 1.316-1.674 2.103-2.367 1.868-.783-.236-1.332-1.47-.908-2.786.423-1.316 1.43-1.68 2.216-1.444z" fill-rule="evenodd" stroke="#000" stroke-width="1.2634376" fill="#dc0000"/>
  <path d="M282.6 249.269c.663.178 1.23.79.876 1.786s-1.313 1.692-1.966 1.414c-.664-.179-1.111-1.112-.768-2.108.363-.996 1.194-1.27 1.848-1.092z" fill-rule="evenodd" stroke="#000" stroke-width=".9966624999999999" fill="#dc0000"/>
  <path d="M286.931 266.26c.716.491 1.116 1.427.177 2.366-.938.938-2.42 1.162-3.136.67-.716-.492-.808-1.728.13-2.667.937-.937 2.113-.86 2.828-.368z" fill-rule="evenodd" stroke="#000" stroke-width="1.2663126" fill="#dc0000"/>
  <path d="M276.931 263.206c.728-.087 1.684.346 1.703 1.611.12 1.267-.646 2.361-1.273 2.439-.729.087-1.618-.766-1.738-2.02-.12-1.267.68-1.942 1.308-2.03z" fill-rule="evenodd" stroke="#000" stroke-width="1.1390626" fill="#dc0000"/>
  <path d="M266.019 319.066v-.117.117z" stroke="#000" stroke-width=".6278124999999999" fill="none"/>
  <path d="M360.684 270.026c4.104 2.189 2.697 7.309-.234 8.677-.167-3.362-2.306-4.378-6.61-6.169 1.68-.938 3.478-3.987 6.744-3.618z" fill-rule="evenodd" stroke="#000" stroke-width=".99" fill="#fff"/>
  <path d="M321.397 290.6c1.61-22.261 18.416-24.96 29.622-21.098 16.41 11.907-.232 21.8-24.794 22.44-2.19-1.204-2.638-.137-4.828-1.342z" fill-rule="evenodd" stroke="#000" stroke-width="1.0396874999999999" fill="#008d00"/>
  <path d="M326.31 266.497c-6.249-.212-6.833 4.91-4.774 7.682 2.09-2.811 4.763-2.689 8.327-1.626-1.092-1.664-1.081-6.204-3.664-6.967z" fill-rule="evenodd" stroke="#000" stroke-width="1.0618760000000001" fill="#fff"/>
  <path d="M329.047 272.163c-4.104 2.19-3.23 7.309-.299 8.677.167-3.361 2.306-4.378 6.61-6.169-1.68-.938-2.944-3.987-6.211-3.618z" fill-rule="evenodd" stroke="#000" stroke-width=".99" fill="#fff"/>
  <path stroke-linejoin="round" d="M361.128 270.447c.048-1.83-1.397-3.414-3.091-3.67-2.042-.248-4 1.161-6.043-.33-.248-.167-4.99-4.26-6.361-6.166-1.361-.747-4.213-2.146-4.213-2.146-1.68 2.189-2.863 4.709-6.29 6.161-1.207.484-1.668 1.06-3.87.87-2.276-1.064-4.78-1.61-6.082-.466 1.107 2.193.806 4.967.337 7.077.821.47 1.726-.092 2.711.128 3.04.08 2.267 3.347 3.4 4.764 3.203.871 4.83-.663 6.297-3.274.847-1.333 3.436-1.606 6.276-2.008 1.993-.386 4.484-1.019 6.311.006 1.61.802 2.62 1.77 3.283 3.4 0 0 2.403.216 4.807-.234.083-1.444-.213-4.07 3.618-4.104z" fill-rule="evenodd" stroke="#000" stroke-linecap="round" stroke-width=".99" fill="#f6aa00"/>
  <path d="M339.884 260.436l.118 6.276c.626 1.916 4.886 1.72 6.393.469l-.117-6.98" stroke="#000" stroke-width=".99" fill="none"/>
  <path d="M341.29 271.686c.92-.312 1.261-2.87 1.261-2.87M346.06 270.981l.234-2.11M348.913 270.981l-.347-2.221M338.713 269.34c-.143.08-1.993-2.227-1.407-1.992M336.319 272.744c.234 0-3.063-3.416-2.477-3.18M332.262 266.416c-.086-.262-.234-1.624.362-1.29M339.613 266.628c-6.01 4.324-9.726 2.606-10.407 6.14M362.016 268.076c.176-.212.778-1.33.147-1.329" stroke="#000" stroke-linecap="round" stroke-width=".99" fill="none"/>
  <path stroke-linejoin="round" d="M271.669 270.213c.066-.097 3.806-.406 3.806-.406l-3.47-2.194M294.369 273.944c.066-.097 3.806-.406 3.806-.406l-2.972-3.44M303.684 274.672c-.183-.696 3.932.092 3.807-.406l-2.698-2.817M298.663 261.447c.117 0 2.462 2.931 2.462 2.931l-.118-4.104M369.276 281.013c.09.076-.022 4.18-.022 4.18l2.693-2.92M339.219 279.963c.08.086-.463 3.801-.463 3.801l4.016-2.13M268.84 260.913l2.463 2.462M264.36 266.019l2.462 2.462M281.16 271.403l3.468-.31M276.637 274.826l3.474-.246M300.763 266.94l2.462 2.463M311 268.216l2.462 2.462M291.903 263.736l2.462 2.462M266.019 266.916l2.462 2.462M293.634 286.888l2.278-2.634M306.076 288.072l2.278-2.634M260.778 274.6l3.468-.31" stroke="#000" stroke-linecap="round" stroke-width=".99" fill="none"/>
  <path stroke-linejoin="round" d="M267.34 272.136c-.666.03 1.767-.16 2.398.106l-3.426-2.46" stroke="#000" stroke-linecap="round" stroke-width="1.0637600000000002" fill="none"/>
  <path stroke-linejoin="round" d="M271.672 279.476l3.468-.31M312.8 276.11l3.473-.247M306.912 280.976l3.474-.246M311.094 263.116c.117 0 2.462 2.93 2.462 2.93l-.118-4.103M344.89 273.606l-2.462 2.463M362.963 276.297l-2.463 2.462M349.372 283.216l-2.462 2.462M378.331 283.863l-2.462 2.463M363.088 282.063l-2.463 2.462M378.078 267.326l-2.462 2.462M389.731 283.966l-3.467-.33M360.613 291.69l.168-3.478M371.6 276.96l1.772-2.998M377.113 279.278l1.771-2.998M381.706 288.813c-.076.089-3.828-.03-3.828-.03l2.69 1.961M329.61 287.772c.08.086-.463 3.801-.463 3.801l4.016-2.13M298.719 280.976c.467-.339 2.777-1.061 2.663-1.66l-2.47-.894" stroke="#000" stroke-linecap="round" stroke-width=".99" fill="none"/>
  <path stroke-linejoin="round" d="M403.278 267.628c1.627 1.263 4.37-13.106 3.96-17.601 0-.297-.61-9.832 1.486-16.643 1.26-2.293 1.306-19.474-.686-23.991 1.606-.127 3.332-.616 3.667-2.466-6.968 2.676-8.61-14.707-16.306-24.632-6.637-9.964-14.661-16.766-23.08-21.796.667-1.69 1.63-3.276 2.918-4.86-10.36 6.186-26.478-13.686-60.276-12.183-6.364.634-7.891.868-9.263 4.124-4.424.376-8.964 1.38-8.966 7.22.009 1.398 1.279 3.962 4.124 3.986 3.9 1.123 7.063.26 9.702 6.68.198 1.486.601 4.127.7 6.613 0 0-3.491-4.422-6.4-6.167.606-.736-.3-1.24 1.17-2.377-1.786-1.033-4.983-.193-4.983-.193s-6.912-3.263-12.48-2.377c0-.694-1.066-4.608-1.066-4.608-.986 2.767-3.16 2.608-3.479 6.226-.694-1.882-1.399-4.186-1.993-6.067-1.964 2.669-1.387 6.647-2.08 8.32-.776.631-2.32.666-2.709-1.12-.198-2.18-.466-2.397-.464-4.996-1.41 2.468-3.102 3.666-3.672 7.9-.694-1.686-.908-3.1-1.603-4.686.076 6.62-4.686 8.833-9.196 12.708-1.267 2.346.198 2.378.297 3.666l2.378 1.189c1.386-.099 2.878-.198 4.266-.297.693.891.126.946 1.976 1.62 4.963 1.388 11.162-4.667 16.016 4.79-2.24 1.863-4.48 6.249-3.777 7.062.892 0-1.79 1.261 1.834.106-3.782 3.678-6.346 8.613-6.346 8.81-.42 1.033 1.624-.14 1.118 1.737.631-1.407.899-.117.899-.117-8.632 9.337-.289 19.36-1.219 24.744 1.436 2.311 1.614-.044 3.409-.3 1.618 6.616 6.861 10.629 8.636 16.88-1.381-.424-4.126-.674-6.611.066.126 2.49 2.377 4.867 4.16 7.034-1.287.396-2.476.791-3.764 1.19-2.674 1.386-4.462 2.843-6.334 4.92-1.266 3.033 6.99 3.769 9.464 4.28-.316 1.088-.769 2.467-.128 3.663 6.463.626 11.776-1.089 11.776-1.386 0-.3 1.37-1.068 1.37-1.068.736 1.472 2.363 1.907 3.07 1.698 1.032 0 2.636-4.113 1.9-7.263 1.98 2.374 3.846 6.168 6.826 8.637.6.63 1.376.166 1.87-.267 1.684 2.676 4.009 6.361 6.693 8.023.891 1.021.7.646 1.906.72 1.101-.366 2.04-.602 2.616-2.64 0 0 .366.332.886 1.61 1.33.946 2.269-1.328 3.004-2.064.42-1.014 2.06.198 2.06-.396.696.396.986 2.138 1.68 2.633.909-.336 1.812-2.336 1.881-4.466.904 1.86 1.183 1.706 1.876 2.204.696-.498.781-2.438 1.376-2.933-.129-1.026 7.137 7.006 7.434 7.006.718.623 4.824 1.781 6.664.313 2.06 1.37 7.668 2.216 8.462.016 4.642 1.939 9.886-.234 9.66-2.403 4.142 1.666 10.699.66 10.699.263.736-.087 2.732-2.026.84-3.494-13.769-9.61-34.261-26.622-42.147-29.363 0-2.836-2.146-13.07-4.467-16.887-.42-1.463.626-3.26 1.892-3.144 6.368 6.01 7.306 4.632 10.142 6.34 3.07 2.422 4.172 6.12 7.243 9.488 1.447.463 3.167 1.928 2.713.6-1.916-4.81-4.233-9.466-9.97-16.719 2.971 1.486 7.839 6.422 11.126 8.274 2.191 3.61 2.806 6.487 4.788 11.043 1.436.91 2.902 4.268 2.692 1.486-.316-6.234-3.986-13.646-3.986-14.14 6.836 4.666 6.776 11.87 7.634 16.286 1.624 2.24 2.29 6.217 2.921 4.62.736-1.017-1.732-13.62-1.732-13.62-.396-1.684-.696-3.38-.99-4.964 4.343 2.6 6.861 12.04 7.894 23.469.006 1.82.747 3.816.648 6.003.932 1.162 2.006 4.33 1.967 2.434 0 0 .003-18.693-1.267-22.866-.316-2.276.668-6.997.668-6.997 1.686 7.726 3.276 16.082 4.86 23.808v6.648c.792.791 1.684 1.683 2.377 2.379l1.486-13.968s-1.783-16.346-1.783-16.642v-4.766c-.036-1.676 1.603-1.364 2.618.644.198 4.061.186 7.282.384 11.344.694 4.663 1.177 8.049 1.666 13.966.186 4.849.373 16.316 1.4 16.118z" stroke-opacity=".772" fill-rule="evenodd" stroke="#000" stroke-width=".99" fill="#9c4314"/>
  <path stroke-linejoin="round" d="M326.3 284.406c-.223-.623-.384-2.948-.898-2.943l-1.446 2.193M369.763 271.169l-.296 2.463M348.144 289.263c-.666.069-2.94-.46-3.077.044l1.706 1.999" stroke="#000" stroke-linecap="round" stroke-width=".99" fill="none"/>
  <path d="M311.806 234.297v.267-.267.267-.267 4.486c.131.636.128 1.344.128 2.06.08.644.27 1.196.613 1.796.036.76.247 1.268.613 1.922.064.666.278 1.216.612 1.794.066.668.269 1.003.386 1.638.186.616.41 1.016.64 1.41.167.167.231.333.386.384" stroke="#000" stroke-width=".6278124999999999" fill="none"/>
  <path d="M301.803 260.066c0-.207-.032-.837.267-1.281.463-.646.817-1.046 1.409-1.666.7-.446 1.2-.973 1.794-1.638.638-.407.969-.767 1.638-1.163.366-.363.766-.642 1.163-.77.441-.216.762-.636 1.41-.64.39-.196 1.201-.128 1.794-.128.611 0 .826-.117 1.41-.128" stroke="#000" stroke-width=".6278124999999999" fill="none"/>
  <path d="M394.963 206.644c1.98 1.436 4.16 4.667 6.062 10.203M383.826 207.466c2.872 2.676 4.494 6.376 6.637 11.689" stroke-opacity=".772" stroke="#000" stroke-linecap="round" stroke-width=".99" fill="none"/>
  <path d="M376.887 210.64c1.76 1.998 2.807 4.096 3.766 6.688M366 204.006c2.278 2.626 6.943 6.637 7.826 10.698" stroke-opacity=".772" fill-rule="evenodd" stroke="#000" stroke-linecap="round" stroke-width=".99" fill="#00c600"/>
  <path d="M316.616 136.976c.166 11.418 16.878 8.633 18.286 19.361 3.198 11.708 1.866 19.272-2.814 22.989-2.666 2.736-.626 6.987.166 9.17 4.344 11.01 10.903 12.782 13.723 22.286" stroke-opacity=".772" stroke="#000" stroke-width=".99" fill="none"/>
  <path d="M310.363 144.766c0-.22.392-.602.78-.78 1.663-.642 2.686-.674 4.387-.682 1.463 0 2.828.064 4.29.292" stroke-opacity=".772" stroke="#000" stroke-linecap="round" stroke-width=".99" fill="none"/>
  <path d="M332.01 249.678l6.81 9.462M360.626 236.616l31.11 23.824M349.69 242.06l22.734 19.967M306.922 217.29c2.994 6.946 11.464 13.84 16.63 16.1.174-3.819-.042-6.293-.66-7.94" stroke-opacity=".772" stroke="#000" stroke-width=".99" fill="none"/>
  <path d="M316.66 213.906c2.994 6.946 6.727 12.279 13.668 16.88.824-6.77-.964-13.623-6.337-21.607" stroke-opacity=".772" stroke="#000" stroke-width=".99" fill="none"/>
  <path d="M317.966 206.938c2.734 1.649 6.207 2.386 7.03 2.603.824-6.77 1.646-11.877-3.162-20.14" stroke-opacity=".772" stroke="#000" stroke-width=".99" fill="none"/>
  <path d="M307.438 209.36c4.036 4.383 7.289 4.699 9.111 4.816 1.346-3.948 1.91-12.322.26-21.348M296.984 212.866c4.018 6.2 13.28 16.068 18.264 18.666.173-.827.43-1.212.364-3.868M366.6 166.763c4.304 4.961 20.912 21.669 24.2 29.474 6.676 12.773 16.14 16.202 18.749 13.772M337.147 224.79c1.494 6.112 4.208 17.23 8.119 18.988.673-.667 1.242-1.872 1.176-4.62" stroke-opacity=".772" stroke="#000" stroke-width=".99" fill="none"/>
  <path d="M314.672 190.16c1.766 1.788 2.164 3.417 3.976 3.634 2.22-1.816 6.13-11.938 4.726-19.41" stroke-opacity=".772" stroke="#000" stroke-width=".99" fill="none"/>
  <path d="M306.366 189.869c.826 4.021 1.696 7.418 4.441 7.449 4.733-3.966 6.13-12.812 4.726-20.283M303.628 211.16l-2.13-4.683M349.612 249.044l14.266 12.969M342.716 243.831l4.402 12.393M323.319 232.488c2.994 6.946 9.372 14.626 14.448 16.784.174-.823.077-1.64.011-4.183M316.694 231.297c2.994 6.941 11.79 16.626 16.867 18.464.174-.823.914-.981.848-3.626M337.603 248.022l6.366 10.64M329.9 221.666c2.733 1.649 6.603 3.03 7.426 3.248.279-6.426-1.961-16.79-6.66-24.726" stroke-opacity=".772" stroke="#000" stroke-width=".99" fill="none"/>
  <path d="M298.269 187.872c-.812 3.04-.7 6.361 2.147 6.392 7.898-3.41 3.182-6.807 9.966-18.318M308.694 166.966c2.994 6.944 3.871 9.986 8.636 11.612.934-.42 3.266-10.927-4.62-19.467" stroke-opacity=".772" stroke="#000" stroke-width=".99" fill="none"/>
  <path d="M318.284 171.916c1.638 1.788 3.792 2.216 6.616 2.106 1.783-3.662-2.03-13.664-7.06-18.873M362.403 163.686c3.768 6.289 20.247 23.762 27.314 29.646 1.688-.202 3.938 1.77 1.74-4.903" stroke-opacity=".772" stroke="#000" stroke-width=".99" fill="none"/>
  <path d="M360.647 176.366c3.768 6.289 10.64 14.243 17.706 20.137 1.777.663 3.496.46 4.06-.012.606-.683.066-4.776.211-9.04" stroke-opacity=".772" stroke="#000" stroke-width=".99" fill="none"/>
  <path d="M366.076 182.031c4.304 4.744 9.986 10.204 16.942 16.636 1.777.663 3.312.69 3.616-.012.169-.693.491-.618.101-4.782" stroke-opacity=".772" stroke="#000" stroke-width=".99" fill="none"/>
  <path d="M360.066 190.644c4.304 4.743 8.238 8.239 12.14 9.11 1.886.227 2.874.263 3.077-.448.169-.693.064-4.011-.007-7.84" stroke-opacity=".772" stroke="#000" stroke-width=".99" fill="none"/>
  <path d="M343.963 196.872c4.304 4.743 4.308 6.71 8.21 7.682 1.886.226 3.281-.022 3.623-.667.606-1.348.818-2.81.766-6.638" stroke-opacity=".772" stroke="#000" stroke-width=".99" fill="none"/>
  <path d="M342.21 166.869c4.336.789 4.694-2.96 4.342-6.64-.427-3.362-2.804-4.833-6.62-4.127M339.8 180.719c2.043.789 4.61.738 6.644-1.601.764-1.78.471-6.143-2.344-6.437" stroke-opacity=".772" stroke="#000" stroke-linecap="round" stroke-width=".99" fill="none"/>
  <path d="M342.866 173.622c3.898.243 4.263-1.637 4.124-3.786-.164-2.62-1.93-4.614-4.746-3.907" stroke-opacity=".772" stroke="#000" stroke-linecap="round" stroke-width=".99" fill="none"/>
  <path d="M346.663 163.44c6.693-3.426 22.093 10.316 9.62 14.691M346.444 173.172c6.693-3.427 18.23 7.784 6.618 12.161M343.316 180.906c6.366.221 13.67 10.424 1.208 11.67" stroke-opacity=".772" stroke="#000" stroke-width=".99" fill="none"/>
  <path d="M336.826 186.363c2.043.79 3.223 1.3 6.046-.274.72-.66 1.669-3.688-1.017-6.367" stroke-opacity=".772" stroke="#000" stroke-linecap="round" stroke-width=".99" fill="none"/>
  <path d="M282.603 174.026c2.16-2.774 7.404-4.643 9.202-.87M339.66 186.86c3.702 1.216 9.694 11.617-.3 12.668" stroke-opacity=".772" stroke="#000" stroke-width=".99" fill="none"/>
  <path d="M334.934 140.266c4.27.808 6.427 7.708 9.83 8.24 6.224.928-.804-7.204-2.161-8.118" stroke-opacity=".772" stroke="#000" stroke-linecap="round" stroke-width=".99" fill="none"/>
  <path d="M271.972 169.76c1.916.078 3.713-.274 4.924-2.64M290.966 189.622c1.064 1.984 3.799 1.191 6.069-.186 3.091-1.768.486-7.98 7.866-13.276M294.876 216.678c4.017 6.2 11.638 12.967 16.387 17.127.174-.823.944-1.242.878-3.89M311.113 232.46l9.136 12.693M330.163 229.394c1.494 6.11 7.437 16.786 11.347 17.644.673-.66 1.126-3.28 1.06-6.929M328.034 246.897l-.668 6.664M341.713 218.676c1.494 6.111 3.739 20.982 7.18 23.678.674-.667 2.064-13.012 1.998-16.668M337.1 218.163c2.03.243 3.213.236 4.801.218.28-6.426-2.606-13.979-7.104-21.914" stroke-opacity=".772" stroke="#000" stroke-width=".99" fill="none"/>
  <path d="M348.416 202.281l-.317 6.498" stroke-opacity=".772" fill-rule="evenodd" stroke="#000" stroke-linecap="round" stroke-width=".99" fill="#00c600"/>
  <path d="M326.476 199.606c2.147.829 3.682 1.097 6.388.962 1.762-8.702-2.676-8.711-8.204-14.863" stroke-opacity=".772" stroke="#000" stroke-width=".99" fill="none"/>
  <path d="M360.178 141.663c4.27.807 1.663 7.194 7.368 9.177 4.873 1.624 2.127-6.093.78-6.007" stroke-opacity=".772" stroke="#000" stroke-linecap="round" stroke-width=".99" fill="none"/>
  <path d="M343.831 166.006c3.081-2.24 14.096.862 17.823 3.992 1.068.996 2.697 4.97-2.366 8.623M286.472 161.266c8.842-8.629 12.943-7.646 23.066-1.282 1.463.342 3.033.043 3.973-.612.612-1.24.024-2.601-.641-3.46-4.628-3.246-7.902-4.186-12.174-3.688M298.203 193.29c-1.988 2.931-3.614 9.306-.266 16.403.133.817.991 1.634.128 2.179-1.666.833-2.403 2.21-3.332 3.688M349.728 238.61c.06-10.763-1.61-19.33-6.8-27.093M331.166 196.74c1.42-.16 3.202.243 4.078-.18.423-1.67-.786-3.604-1.269-4.984.816-.09 1.813-.09 2.447-.272.362-1.36 0-3.262 0-4.893" stroke-opacity=".772" stroke="#000" stroke-width=".99" fill="none"/>
  <path d="M278.047 166.14c.341-2.391 2.477-6.04 4.87-6.406 1.163-.641 1.922.128 2.434.383.641 1.026.266 2.948 0 3.717-.64 1.282-1.922 2.307-4.228 3.204-1.197-.613-1.88-.386-3.076-.897z" stroke-opacity=".772" fill-rule="evenodd" stroke="#000" stroke-width=".99" fill="#fff"/>
  <path d="M298.66 211.76c.613.266 6.638 6.894 6.638 6.894h3.076l.266-8.686" stroke-opacity=".772" stroke="#000" stroke-width=".99" fill="none"/>
  <path stroke-linejoin="round" d="M306.876 196.231c-1.026 3.376-.64 6.76 0 10.124" stroke-opacity=".772" stroke="#000" stroke-linecap="round" stroke-width=".99" fill="none"/>
  <path d="M300.2 211.16l1.2-4.683M302.394 193.431c-1.638 2.82-1.976 7.461-1.176 10.814M344.281 212.172l-2.9.068" stroke-opacity=".772" stroke="#000" stroke-width=".99" fill="none"/>
  <path d="M240.397 201.278c.407 1.266-.963.682-1.267.936-1.44.608-3.722-1.266-6.164-6.622.704-1.194 4.839-3.761 6.166-3.209 0 0 2.602.992 2.914 2.079-.6 1.686-2.747 6.894-2.669 6.717z" fill-rule="evenodd" stroke="#000" stroke-width=".99" fill="#9f3000"/>
  <path d="M344.281 212.172l.048-6.709M348.997 242.163l.814 13.928" stroke-opacity=".772" stroke="#000" stroke-width=".99" fill="none"/>
  <path d="M240.303 201.766c2.81 2.642 7.226.87 7.927 7.326.301 3.613-4.816 10.838 0 17.36 1.706 2.61 6.122 6.218 6.122 6.218 2.308 2.676 3.01 7.168 4.616 10.737 3.178 4.76 7.66 6.787 11.038 4.617 0 0 11.44-6.118 11.44-6.219 0-.1-6.82-7.827-6.82-7.726 0 .1-6.623 6.62-6.623 6.62-.703-.101-4.616.3-6.92-4.617-.1-6.164-3.144-9.662-8.028-12.04-2.476-1.876-4.449-4.86-2.308-9.032 1.237-3.813 2.476-10.236-1.907-14.66-2.81-1.873-4.817-3.346-7.827-3.914-3.98 1.606-3.947 1.104-2.609 6.222z" fill-rule="evenodd" stroke="#000" stroke-width=".99" fill="#238700"/>
  <path d="M296.872 148.047c-1.638 2.819-1.398 4.61-1.142 7.328M289.063 161.913h3.687c.966-.026 1.363-.388 2.061-.897.462-.261.963-.666 1.41-1.026.38-.272.836-.691 1.281-.77.727 0 1.296.064 1.922.267.68.243 1.067.691 1.638.897.48.192.913.266 1.666.266.782 0 1.602-.036 2.306.129.678.046 1.436.194 1.923.384.62.391.994.868 1.41 1.282.024.68.247 1.096.266 1.793 0 .696.067 1.404-.128 1.796 0 .737-.118 1.261-.267 1.794-.47.442-.641.784-1.281.897-.604.396-1.268.384-2.06.384h-2.061c-.446-.37-.986-.767-1.638-1.281-.297-.69-.494-.914-1.163-1.164a12.76 12.76 0 0 0-1.922-.128c-.626 0-1.148.044-1.638-.266-.364-.337-.864-.614-1.41-.64-.68-.166-1.266-.129-1.922-.129h-1.026" stroke-opacity=".772" stroke="#000" stroke-width=".99" fill="none"/>
  <path d="M292.39 163.066l.129.128c-.291-.29-.186-.16.612.128.849.196 1.761.368 2.692.386.881 0 1.683.108 2.662.128.613 0 1.269.06 1.796-.128" stroke-opacity=".772" stroke="#000" stroke-width=".99" fill="none"/>
  <path d="M300.694 161.013h-.128c.401 0 .164-.034-.386.64-.062.732-.209 1.136.128 1.796.418.139 1.126.449 1.41.768.412.296.384.66.384 1.282-.246.4-.468.723-.768 1.281-.162.403-.371.944-.613 1.41-.146.686-.249 1.142-.266 1.794v1.281M346.99 146.088c.144.273 2.6 6.179 6.662 2.067.463-.63.61-.916.61-1.82 0-.471-.064-1.02-.18-1.409" stroke-opacity=".772" stroke="#000" stroke-width=".99" fill="none"/>
  <path d="M273.031 244.76c1.478 2.06 4.164 1 4.703-.66-1.84.12-2.642-.966-3.191-2.63-.393.963-1.926 2.098-1.612 3.28z" fill-rule="evenodd" stroke="#000" stroke-width=".6371874999999999" fill="#fff"/>
  <path d="M369.966 160.672c0 .096 2.603 2.489 6.64 2.489.96 0 6.466-1.14 6.904-3.146" stroke-opacity=".772" stroke="#000" stroke-width=".99" fill="none"/>
  <path d="M366.403 162.978c.068.386.181 1.787.181 2.719-.012.987.226 1.813-.147 2.636-.406 1.06-.866 1.469-1.846 1.83-.807.364-.979.016-1.878.048M343.738 148.019c0 .06 2.776 6.667 3.69 7.326" stroke-opacity=".772" stroke="#000" stroke-width=".99" fill="none"/>
  <path d="M274.84 243.66c1.479 2.06 4.166 1 4.704-.66-1.84.12-2.643-.966-3.192-2.63-.393.963-1.926 2.098-1.611 3.28z" fill-rule="evenodd" stroke="#000" stroke-width=".6371874999999999" fill="#fff"/>
  <path d="M277.644 242.36c1.478 2.06 4.164 1 4.703-.66-1.84.12-2.643-.966-3.192-2.63-.393.963-1.926 2.098-1.611 3.28z" fill-rule="evenodd" stroke="#000" stroke-width=".6371874999999999" fill="#fff"/>
  <path d="M327.894 144.644H328.8c2.88-.486 12.664 1.299 14.236 3.08M329.703 191.397c-.06-.06.136 1.11.076 1.049.367.367-.064-.966-.266-1.774-.302-.72-.363-1.196-.363-2.176v-.726M311.619 234.063v.268-.268.268-1.06 6.277c.13.637.128 1.346.128 2.06.08.646.27 1.196.613 1.797.036.76.247 1.269.612 1.92.066.667.278 1.219.613 1.796.066.667.268 1.002.384 1.636.186.618.41 1.017.64 1.41.168.17.33 1.028.484 1.076" stroke-opacity=".772" stroke="#000" stroke-width=".99" fill="none"/>
  <path d="M303.8 226.497v3.461c.167.849.196 1.747.384 2.663.07.732.247 1.367.386 2.06.061.686.881 3.116 1.163 3.717.304.666.762 1.166 1.026 1.636.612.169.93.34 1.637.384h1.794c.72-.138.967-.214 1.282-.768.173-.344.162-.686.384-.768M301.626 249.822c0-.21-.032-.839.266-1.282.464-.646.818-1.046 1.41-1.667.7-.447 2.441-2.842 7.689-4.227.611 0 .826-.119 1.41-.13M302.244 238.197c.042.044 2.868 1.62 4.333 1.683" stroke-opacity=".772" stroke="#000" stroke-width=".99" fill="none"/>
  <path d="M310.316 243.166h-.14.14c-.047 0-.094 0 0 0z" stroke="#000" stroke-width=".6278124999999999" fill="none"/>
  <path d="M309.06 243.016c-.42-.28-14.006-4.202-13.727-4.202.28 0-4.972 3.672-4.972 3.672l12.966 4.412 6.182-3.782h.66z" fill-rule="evenodd" stroke="#000" stroke-width=".99" fill="#ffbc00"/>
  <path d="M296.076 238.703c.868-2.179.627-6.06-2.179-6.834-6.404-3.928-17.167-3.698-19.214.99-2.212-.297-3.336 1.487-3.666 3.27-6.711 1.66-.428 8.16.99 8.416 1.92.667 2.444.176 2.774-.462 1.068.263 2.633-.88 2.901-1.667 1.367.26 2.387.226 2.413-1.136 3.887 3.642 9.244 6.164 9.84 1.473l6.14-4.06z" fill-rule="evenodd" stroke="#000" stroke-width=".99" fill="#f7b200"/>
  <path d="M271.026 236.031c-.363 2.643 1.344 6.283 4.061 7.924M274.678 232.863c-.363 2.642.363 6.866 3.07 9.608M278.6 230.136c-2.486 2.087-1.131 8.647 1.676 11.189" stroke="#000" stroke-width=".99" fill="none"/>
  <path stroke-linejoin="round" d="M286.247 177.326c6.737 7.698-2.286 16.992-9.296 20.829-8.264 6.6-12.727 19.169 1.847 19.947 6.263-.097 10.978-.663 14.194 3.668 3.216 4.121 3.334 11.734-4.766 16.614-.794-.701-1.974-2.79-2.863-3.427-.879-.637-1.467.18-2.26-.621-.28-2.616 3.992-6.606-.048-7.446-6.23.887-23.636.963-23.302-16.499.402-3.891 2.482-8.26 6.82-12.704 3.339-4.444 12.49-9.966 13.37-12.368 1.408-2.084-1.169-6.138-3.223-6.699-1.68-4.482 6.743-9.268 10.606-1.286z" fill-rule="evenodd" stroke="#000100" stroke-width=".99" fill="#288800"/>
  <path d="M272.497 190.769l.198 10.2M267.163 194.828l10.896 1.686M276.178 188.49l9.21 1.882" stroke="#000" stroke-width=".99" fill="none"/>
  <path d="M266.476 196.61l7.67 4.642M260.01 206.2l6.989 6.363M266.66 197.031l1.017 16.047M261.416 203.331l9.84.2" stroke-opacity=".642" stroke="#000" stroke-width=".99" fill="none"/>
  <path d="M261.122 228.766c1.623-1.443 3.114-3.616 4.098-6.642M264.197 231.344c2.068-1.274 4.7-2.278 7.32-2.811M267.984 240.1c1.786-1.487 3.706-3.064 6.018-6.136M268.06 240.438c3.14-.077 6.326-.4 9.42-.97M263.666 246.616c2.336-.88 4.47-2.23 6.2-3.682M247.41 226.697c1.81-1.462 3.621-3.126 6.096-4.868M246.078 220.91c1.969-.629 3.892-1.629 6.67-2.462M246.762 216.026c1.693-.617 3.466-.876 6.182-.976M248.244 211.626c1.926-.19 3.224-.072 6.16.63M248.672 208.666c1.694-.866 3.386-1.413 6.178-1.179M247.776 206.647l6.66-3.79M246.8 204.981l4.727-4.686M246.46 204.336l3.463-6.916M269.269 169.366l-.043 8.43M267.8 170.706c-1.243 2.43-2.983 6.302-6.22 7.447M261.61 169.086c-2.477-.198-4.816 1.143-6.698 2.727" stroke="#000" stroke-width=".99" fill="none"/>
  <path stroke-linejoin="round" d="M274.71 176.616c4.116 1.614 9.679 3.696 9.01 16.681 3.406-3.69 4.968-8.869.64-16.397-2.91-3.146-7.167-3.809-9.66-.284z" fill-rule="evenodd" fill-opacity=".994" stroke="#000" stroke-linecap="round" stroke-width=".6278124999999999" fill="#9d4600"/>
  <path d="M276.666 179.647c.166-2.342 3.44-6.238 6.167-6.877M277.822 181.666c.863-2.993 4.694-6.369 6.32-6.007M277.906 186.903c1.694.026 7.626-3.32 9.006-6.311M278.394 183.672c1.939-1.348 6.681-4.4 7.308-6.038M283.719 186.119c1.462-.827 1.948-.624 3.47-2.19M274.71 176.681c4.138 1.349 9.2 4.4 8.869 16.61" stroke="#000" stroke-width=".99" fill="none"/>
  <path d="M260.928 218.903l6.633-6.828M261.631 220.31l6.03-.006M268.819 213.486l7.037 4.009" stroke-opacity=".642" stroke="#000" stroke-width=".99" fill="none"/>
  <path d="M268.297 212.8c-1.347-.126-2.12-.381-3.292-.816.662 9.07 1.467 9.636 2.89 12.966 4.289 2.72 11.71 2.084 14.861 1.406.338.474 2.196 2.779 1.063 3.448-1.231.772-1.73 2.269-1.776 4.688.727.82 1.486.108 2.226.636s1.61 2.391 2.296 3.996c0 0 9.12-6.268 7.64-12.166-.97-6.64-4.716-7.426-4.716-7.426-6.296-2.647-12.738-.891-16.464-1.906-3.378-.76-6.603-3.67-6.72-4.817z" fill-rule="evenodd" stroke="#000" stroke-width=".6278124999999999" fill="#9d4600"/>
  <path d="M283.326 228.803c4.668-2.086 9.397-2.266 10.71-2.063M266.466 216.69c.992-.68 2.461-1.819 4.132-1.793M273.866 226.686c.812-4.806 2.871-8.06 3.932-8.862M276.603 227.06c.812-4.806 3.068-8.238 4.118-9.049M279.66 226.74c.81-4.804 2.87-7.924 3.93-8.736M281.976 226.366c.811-4.806 3.496-7.176 4.666-7.988M283.603 227.736c.812-4.806 4.893-7.476 6.963-8.287M283.634 228.476c2.782-4 7.364-6.944 8.66-6.226M270.988 226.066c.81-4.806 2.932-7.426 3.993-8.237M268.24 226.186c.812-4.806 3.308-7.239 4.37-8.06M282.6 236.066c2.166-1.696 3.622 3.783 3.729 4.447.107.664.61 1.34 1.683 1.96M266.663 221.876c.873-2.434 2.808-6.116 3.869-6.928" stroke="#000" stroke-width=".99" fill="none"/>
  <path d="M278.384 230.36c-2.798 4.446.432 8.37 4.066 6.796-.416-3.072-1.201-6.023 1.6-7.978-1.986.117-3.77-.686-6.666 1.182z" fill-rule="evenodd" stroke="#000" stroke-width="1.0618760000000001" fill="#fff"/>
  <path d="M267.828 197.669l1.324 6.63M269.16 203.669l-2.383 8.03M283.222 229.226c4.928-.96 9.666 0 10.896.493" stroke="#000" stroke-width=".99" fill="none"/>
  <path d="M282.64 230.013c6.062-.074 9.468 1.99 10.644 2.8" stroke="#000" stroke-width="1.0640626" fill="none"/>
  <path d="M282.697 230.96c4.86 1.106 7.038 3.67 7.888 4.61M282.36 232.066c4.36 2.414 6.34 4.396 6.867 6.632" stroke="#000" stroke-width="1.0666626" fill="none"/>
  <path fill-rule="evenodd" fill="#296626" d="M210.222 266.434l2.342-.66 2.639 10.83-2.341.648zM229.69 292.019l4.917 6.699 1.836-1.663-4.616-6.8-2.137 1.764zM379.766 316.944l-6.09 4.291 1.348 1.991 6.268-3.97-1.616-2.312zM411.884 289.16l-6.433 6.098 1.613 1.784 6.643-4.804-1.823-2.078zM429.116 263.188l-1.977 4.878 1.08 1.399 2.127-4.642-1.23-1.636z"/>
  <path d="M268.176 226.447c-2.639-4.342-2.973-8.886-3.106-13.327 1.402.668 2.606 1.036 3.306.801M268.988 169.113c-2.173-6.433.336-8.376 3.046-10.966" stroke="#000" stroke-width=".99" fill="none"/>
  <path d="M262.626 166.643c.467.679.179 1.628-.621 2.344-.8.716-1.82.826-2.278.247-.467-.68-.179-1.629.622-2.344.8-.716 1.82-.826 2.277-.247z" fill-rule="evenodd"/>
  <path d="M248.46 197.997c-.466 0-8.326-1.06-8.326-1.06M246.131 203.763c0-.302-6.146-6.66-6.146-6.66" stroke="#000" stroke-width="1.2862600000000001" fill="none"/>
</svg>
