<svg xmlns="http://www.w3.org/2000/svg" xmlns:xlink="http://www.w3.org/1999/xlink" height="480" width="640" version="1">
  <path fill="#cc0001" d="M0-.06h640v480.1H0z"/>
  <path id="a" fill="#fff" d="M0 446.767h640v34.293H0z"/>
  <use height="100%" width="100%" transform="translate(0 -68.686)" xlink:href="#a"/>
  <use height="100%" width="100%" transform="translate(0 -137.17)" xlink:href="#a"/>
  <use height="100%" width="100%" transform="translate(0 -206.767)" xlink:href="#a"/>
  <use height="100%" width="100%" transform="translate(0 -274.343)" xlink:href="#a"/>
  <use height="100%" width="100%" transform="translate(0 -342.93)" xlink:href="#a"/>
  <use height="100%" width="100%" transform="translate(0 -411.614)" xlink:href="#a"/>
  <path fill="#010066" d="M0-.06h480.1v274.343H0z"/>
  <path d="M197.627 34.243c-66.976 0-103.222 46.09-103.222 102.878S140.66 240 197.627 240c20.686 0 39.764-6.023 66.872-16.386a91.674 91.674 0 0 1-29.93 6.007c-60.62 0-91.626-40.866-91.626-91.22 0-60.366 41.004-91.223 91.626-91.223 11.167 0 21.862 1.994 31.767 6.647-16.474-11.096-36.334-17.68-67.7-17.68z" fill="#fc0"/>
  <path d="M368.706 190.678l-43.48-22.686 12.866 46.43L309 176.68l-9.073 47.272-8.923-47.298-29.206 38.76 13.002-46.39-43.662 22.666 32.363-36.292-49.273 1.892 46.296-19.01-46.236-19.146 49.267 2.04-32.238-36.39 43.48 22.686-12.866-46.428 29.08 38.838 9.074-47.27 8.923 47.297 29.206-38.76-13.003 46.39 43.662-22.666-32.363 36.293 49.273-1.892-46.296 19.01 46.234 19.146-49.266-2.04z" fill="#fc0"/>
</svg>
