<svg xmlns="http://www.w3.org/2000/svg" height="480" width="640">
  <defs>
    <clipPath id="a">
      <path fill-opacity=".67" d="M0 0h682.67v612H0z"/>
    </clipPath>
  </defs>
  <g clip-path="url(#a)" transform="scale(.9376)">
    <path fill-rule="evenodd" fill="#009a00" d="M0 0h768v160H0z"/>
    <path fill-rule="evenodd" fill="#fff" d="M0 169.96h768v16.018H0z"/>
    <path fill-rule="evenodd" d="M0 176.98h768v160H0z"/>
    <path fill-rule="evenodd" fill="#fff" d="M0 336.98h768v16.018H0z"/>
    <path fill-rule="evenodd" fill="#ffca00" d="M0 362h768v160H0z"/>
    <path d="M0 0v612l336.02-266L0 0z" fill-rule="evenodd" fill="red"/>
    <path fill="#ffca00" fill-rule="evenodd" d="M198.632 332.966l-61.23-37.606-61.163 37.614 19.841-60.31-61.49-37.066 63.493.236 19.336-60.424 19.397 60.46 63.442-.29-61.606 37.13z"/>
    <path stroke-linejoin="round" d="M102.837 290.906h36.906c2.969 3.331 9.694 4.69 16.904-.04 11.667-6.334 33.946.04 33.946.04l4.407-4.682-10.742-36.262-3.866-4.131s-8.261-4.967-23.96-3.306c-16.698 1.663-21.207-.66-21.207-.66s-13.77 1.662-17.626 3.68c-.424.343-4.407 4.406-4.407 4.406l-9.364 39.934z" fill-rule="evenodd" stroke="#000" stroke-linecap="round" stroke-width="1.1027126" fill="#fff"/>
    <path stroke-linejoin="round" d="M110.274 281.819s36.261-4.407 46.442 9.088c-6.766 3.938-10.823 4.263-16.26.276.866-1.44 12.67-13.77 42.689-9.64" stroke="#000" stroke-linecap="round" stroke-width="1.1027126" fill="none"/>
    <path d="M148.002 246.667l-.273 38.833M179.399 247.114l6.61 30.846" stroke="#000" stroke-width=".88217pt" fill="none"/>
    <path stroke-linejoin="round" d="M116.971 246.63l-3.668 16.906" stroke="#000" stroke-linecap="round" stroke-width="1.1027126" fill="none"/>
    <path stroke-linejoin="round" d="M78.868 296.14l8.68 10.176c1.018.608 1.924.67 2.829 0l12.862-16.434 6.402-6.689c.837-.99 1.104-2.096 1.03-3.086l10.327-9.178c.846.069 1.348.164 2.193.211-.998-.268-1.73-.744-.946-1.838l2.316-1.8 1.8 2.314s-2.671 3.344-2.829 3.344h-2.83l-6.402 4.889 2.362 2.087 3.666 9.746 4.374-3.088-2.83-10.032 6.174-6.688-2.316-3.602 1.644-2.068s21.368 13.463 29.6 9.862c.223.08.498-9.696.498-9.696s-22.123-2.316-22.638-6.688c-.616-4.373 4.888-4.888 4.888-4.888l-2.316-3.344.616-1.801 3.869 4.888 8.747-7.46 61.449 68.662c2.809-1.139 3.408-1.826 3.602-4.63-.073-.07-60.42-67.881-60.42-67.881l3.868-4.116c.76-.867 1.027-1.221 1.028-2.673l6.917-6.144c1.78.61 2.914 1.677 3.869 3.086l16.266-13.786c.429.43 1.73.868 2.616.376l26.888-26.816-29.306 20.703-1.033-.772c0-.868 1.064-1.07 0-2.673-1.138-1.366-2.83 1.286-3.086 1.286-.268 0-4.243-1.408-6.116-3.192l-.287 4.736-7.46 6.946-6.66-.268-8.232 7.976-1.028 3.087 1.286 2.673s-4.374 3.869-4.374 3.601c0-.267-.884-1.137-.922-1.26l3.762-3.38.614-2.316-1.261-1.964c-.38.276-6.18 6.299-6.437 4.784-.432-.477-13.894-16.69-13.894-16.69l.77-2.83-8.746-9.619c-3.189-1.1-8.232-1.286-9.261 6.66-.801 1.631-7.46.267-7.46.267l-3.602.772-20.322 28.811 11.319 13.634 23.162-29.326.688-8.308 4.867 6.432c1.62.208 3.163.227 4.631-.614l13.717 16.31-2.284 2.229c.772.868 1.303 1.406 2.076 2.263.772-.614 1.608-1.132 2.28-1.647.268.344.686.996.944 1.339-1.16.626-1.966 1.468-3.106 2.084-1.84-1.2-3.616-2.692-3.48-6.068l-7.718 6.431-.267 1.287-22.896 19.036-2.068.268-.616 6.916 14.92-12.347v-1.802l1.644 1.286 11.676-9.26s.772 1.029.616 1.029-10.29 9.26-10.29 9.26l-.267 1.03-1.801 1.643-1.03-.772-13.89 12.348h-2.069l-7.717 7.718c-1.99.173-3.716.384-6.402 1.643L78.86 296.14z" fill-rule="evenodd" stroke="#000" stroke-linecap="round" stroke-width="1.1027126"/>
  </g>
</svg>
