<svg xmlns="http://www.w3.org/2000/svg" height="480" width="640" version="1">
  <defs>
    <clipPath id="a">
      <path fill-opacity=".67" d="M0 0h640v480H0z"/>
    </clipPath>
  </defs>
  <g fill-rule="evenodd" clip-path="url(#a)">
    <path fill="#fff" d="M0 0h640v480H0z"/>
    <path d="M-26.374.224l.803 346.643L612.636 0-26.378.222z" fill="#3662a2"/>
    <path d="M666.37 479.66l-1.262-369.298-642.793 369.67 644.069-.266z" fill="#38a100"/>
    <path d="M-26.028 371.822L-26.67 480l117.421-.16L666.376 96.344l-.646-94.06L648.704.224-26.031 371.82z" fill="#c70000"/>
    <g>
      <path fill="#ffe700" d="M219.666 171.927l-21.733-13.122-12.676 22.103-12.236-22.246-21.93 12.883.636-26.406-26.413.198 13.167-21.769-22.082-12.631 22.27-12.278-12.837-21.907 26.406.487-.16-26.41 21.734 13.126 12.676-22.106 12.236 22.246 21.93-12.88-.636 26.407 26.41-.201-13.166 21.76 22.08 12.632-22.27 12.278 12.84 21.906-26.406-.488z"/>
      <path d="M232.384 112.437c0 26.644-20.87 46.262-46.613 46.262s-46.614-20.708-46.614-46.262 20.87-46.263 46.614-46.263 46.613 20.708 46.613 46.263z" fill="#3662a2"/>
      <path d="M222.267 112.437c0 20.166-16.34 36.496-36.496 36.496s-36.497-16.34-36.497-36.496 16.34-36.497 36.497-36.497 36.496 16.34 36.496 36.497z" fill="#ffe700"/>
    </g>
  </g>
</svg>
