<svg xmlns="http://www.w3.org/2000/svg" height="480" width="640">
  <g fill-rule="evenodd">
    <path fill="#fff" d="M194.79 0h260.46v480H194.79z"/>
    <path fill="#198200" d="M0 0h194.79v480H0zM446.23 0H640v480H446.23z"/>
    <path stroke-linejoin="round" d="M313.6 361.29v62.63l21.271.22s-6.798-46.833-3.07-61.973c3.728-6.14 7.236-6.263 7.236-6.263s13.816 4.167 16.36 3.61c1.636-.669-.219-6.264 7.237-4.606 2.412-.877 1.097-6.044 3.29-6.263 2.193-.22 44.616 11.842 63.726.439-2.412-6.36-10.746-.44-12.938-.22-1.974 0-10.306-3.947-16.132 0-4.386-3.289-24.341-6.482-24.341-6.482-2.632-2.632 47.686 1.316 60.437-.668 6.92-6.921-10.964-6.263-13.696-3.29-4.678-2.86-10.646-2.63-14.127-.667-1.718-4.108-18.036-2.339-27.1-3.609-2.901-1.701-2.406-2.669-.439-3.727 18.932.804 37.772 3.26 66.796 2.412 6.142-6.704-6.478-9.218-13.696-3.61-4.179-6.871-12.719-.219-18.42-.876-6.701-.668-3.07-7.676 4.166-6.68 7.237 1.097 20.176-.437 22.688-3.727 2.412-3.289-1.44-6.63-13.377-3.608-4.04-3.949-12.938 0-17.104 1.316-6.643-3.092-18.42-.439-22.806.668-4.293-2.669 22.687-7.017 22.687-7.017 10.376-.184 16.228-1.974 19.616-2.861 16.686-8.408-.224-9.303-8.466-3.192-6.11-3.99-9.963.34-14.669 1.876-4.606 1.636-13.377 2.632-13.377 1.974 0-.668 12.6-8.334 12.6-8.334s16.36-1.096 18.42-1.634c3.07-.44 18.782-8.603-2.631-3.07-7.466.667-11.842.219-14.693.438-16.632-1.71 1.636-3.289 1.636-3.289s23.407-2.162 23.683-3.29c.46-9.126-19.078-4.824-19.297-4.824.067-6.62-18.2.22-18.2 0-3.49-2.066 1.973-4.166 1.973-4.166 4.824-1.17 12.036-1.613 13.923-3.06 0 0 13.626-.131 16.243-3.748-3.342-9.22-28.824 1.636-32.236 3.29-4.606 0 3.07-7.467 3.29-7.676.219-.22 21.061-1.096 30.92-14.473.686-8.143-11.623 4.606-11.623 4.606-.918-10.66-13.377.668-20.613 1.636-7.236.876-7.466-3.29-2.411-3.948 6.043-.668 10.746-.219 13.696-7.894 2.86-7.676 11.403.438 12.938-2.412 1.636-2.861-3.07-6.264-3.07-6.264s6.369-6.678-3.947-6.369c-10.307.22-23.684-1.316-23.684-1.316s10.746-4.167 20.833-3.948c10.088.22 4.606-7.236-6.044-7.236-9.648 0-14.692-3.29-14.692-3.29l16.447-6.14-1.097-4.606s9.649-7.676-3.947-6.921c-13.696 1.766-16.13 1.974-16.13 1.974s-27.193 4.167-27.412 4.167c-.22 0-7.466-2.193-.439-3.948 7.018-1.764 31.797-6.798 36.626-6.482 3.729 1.316-.438-9.21-13.696-10.626-13.167-1.316-21.27 3.29-21.27 3.29s-8.663-3.07-.668-6.702c7.894-2.631 20.394.877 20.394.877s14.036-4.166 2.412-6.92c-11.622-1.766-16.288 1.67-20.613 1.764-2.126-2.664 18.246-3.288 19.616-6.483-2.148-3.948-14.766 0-22.148 0-3.14-1.332-3.343-3.492.22-4.824 7.629-.293 14.698.16 22.128-.143-.22-4.02.02-8.776-.2-12.796-9.66-1.746-20.764 1.26-26.116 1.006 1.434-4.387 22.067-6.612 24.362-6.706 4.776-6.968-20.176 0-20.394 0-4.362-.643-4.07-3.39-1.316-6.044 6.36-.73 20.616.926 19.637-3.386-.826-4.04-9.889-1.877-13.617-1-3.727.877-9.21.22-9.21.22-2.387-3.214 21.49-1.907 21.271-4.386-.311-2.847-16.132-.877-20.176-.668-3.94-2.719 18.931-4.613 19.298-4.824.827-7.29-16.36 0-18.42 0-3.07 0-1.636-4.606-1.636-4.606s6.36-2.861 6.14-3.29c-.22-.438-4.824-1.973-6.263-1.973-.438 0 0-6.044 0-6.044s6.263-3.947 4.826-6.044c-.44-1.096-6.14.877-6.14.877v-4.386s4.166-.439 4.606-2.413c.439-1.973-6.044-2.192-6.044-2.192l-2.193-23.026-1.973 21.49-7.237 1.096s6.044 2.86 6.921 6.701c.877 2.861-6.14 1.974-6.14 1.974s6.701 4.824 6.14 6.679c.438 1.764-7.896 2.193-7.896 2.193s7.018 6.043 7.466 7.894c.44 2.861 0 4.386 0 4.386s-11.622-10.087-19.079-7.237c-3.874 2.026 8.877 2.961 17.324 10.307-.02 1.636-20.617-4.992-21.27-.877.476 1.146 21.886 4.22 23.463 7.018-7.821.292-23.999-1.712-23.464.876-1.634 2.988 16.28 1.292 22.367 3.729 2.078 2.36 1.861 4.366-1.764 4.606-6.832-3.267-22.112-6.707-22.148-1.636.093 1.114 16.796.391 21.49 4.167-7.6 1.73-33.383-3.619-33.646-.963.736 1.193 4.82 6.446 11.836 6.226 7.018-.22 23.244 2.86 24.341 6.044 1.096 2.193-21.062-4.606-29.386-.668-8.332 3.947 23.902 1.636 29.166 6.36 6.264 4.824-10.626-.44-10.626-.44s-21.929-3.07-26.218-1.636c-3.29 1.636-7.017 6.044-7.017 6.044s2.193 4.386 4.386 3.61c2.193-.878-.668 2.63-.668 2.63s30.7 7.466 37.499 14.036c6.798 6.68-39.034-10.306-39.034-10.306s-18.42 6.798 1.096 7.237c-2.246 3.286 1.097 6.262 1.097 6.262s32.466 6.798 36.744 12.06c3.29 6.264-22.148-6.043-27.86-7.893-6.702-2.861-21.93 1.764-21.71 2.86.22 1.097 7.896 2.632 8.114 4.606.22 1.974-9.429 2.632-9.429 4.386 0 1.766 41.007 10.307 61.972 19.617 10.964 9.21-32.236-10.964-32.236-10.964s2.412 3.289 0 4.166c-2.412.877-10.964-12.28-24.999-4.166-2.666 3.338 12.243 6.992 16.008 6.36-1.286 3.306-2.412 4.386 2.861 7.674 6.263 3.29-10.307-4.824-10.307-4.386 0 .439 1.097 6.702 1.097 6.702-4.869-3.947-10.726-6.139-16.228-1.097 0 0-.22 3.948 6.482 6.36-3.113 6.361 3.609 4.386 14.036 10.306-16.644-4.088-16.886 3.61-6.701 6.263s41.884 2.861 49.12 12.28c7.237 9.43-10.28-3.616-12.28-3.947-.438.22-.877 4.826-.877 4.826-4.678-2.708-8.99-6.14-14.686-6.288-.439.877-.326 2.122-.766 2.998-6.078-3.662-9.611-6.222-16.886-6.678l-.877 3.609s-6.14-7.676-18.201 0c-6.736 4.828 26.438 1.764 30.701 7.466 6.263 6.701 1.096 6.678 1.096 6.678-4.386-1.607-8.771-3.216-13.167-4.824 0 0-16.669-2.861-19.966.667-4.386 3.61 64.033 12.061 66.006 21.491 1.33 6.114-16.08-6.369-31.139-9.868l-1.766 6.044s-6.98-6.008-12.719-7.018c-.22 0 1.316 6.922 1.316 6.922s-16.886-7.896-26.437-3.729c-8.663 4.167 29.824 6.36 33.332 10.307 3.608 3.947-11.622-2.631-12.938 0-1.317 2.632-19.966-4.824-19.737-1.316.219 3.61 2.631 6.483 2.631 6.483s38.814 3.727 40.131 8.333c1.316 4.606-21.49-2.632-21.49-2.632s-2.194 3.29-.44 4.824c1.766 1.636-13.167-8.771-11.842-1.973-4.836-1.926-17.324-7.894-16.669-3.289 1.766 4.606 36.306 11.184 36.306 11.184s-14.693 1.096-14.036 4.826c-18.9-11.616-18.42-4.168-17.982-3.948.44.22-24.34-6.14-6.701 3.948 18.64 10.087 10.088 8.332 10.307 8.662.219.219 1.973 6.043 1.634 6.043-.438 0-12.719-6.679-16.886-7.017-4.167-.439-23.903 6.482-2.86 14.692s33.99-2.193 46.611-.877c11.622 1.316 17.104 3.29 16.008 7.018-1.096 3.727-11.873-12.217-23.216 1.676-12.902-2.664-21.668-4.036-14.998 6.446-21.07-7.874-33.934 2.407-7.399 6.674 26.076.768 42.103-6.36 42.103-6.36s4.386 8.114 10.746 2.412c6.36-6.701 6.679 2.193 6.798 2.193.219 0 6.14-2.632 6.14-2.632h1.636z" stroke="#000" stroke-linecap="round" stroke-width=".742" fill="#198200"/>
    <path stroke-linejoin="round" d="M316.07 320.16v-3.673s-8.283-1.47-12.322-.643c-2.392-1.37-4.663-3.176-7.612-1.662-.661 1.193 6.234 4.316 7.162 4.316 2.269 1.43 12.672 1.837 12.672 1.663zM316.97 326.13s-8.283-3.028-11.689.46c.64 3.71 9.763 6.609 11.681 4.499 1.929-1.01 0-4.776-.092-4.969zM329.93 327.6v2.671s9.917 1.928 11.662-.183c1.744-2.112-7.897-3.49-11.662-2.388zM329.48 317.36l.366 2.901s8.639 1.928 11.846-2.766c3.306-4.683-7.604.038-12.21-.146zM329.93 307.4v1.928s6.428 1.01 7.897-1.744c1.47-2.766-7.713 0-7.897-.184zM316.61 301.46c-.989-1.41-4.48-4.904-13.846-6.914-6.61-.022 11.768 9.678 13.846 6.914zM329.76 291.69s-.367 2.663-.276 2.663c.092 0 22.038-6.62 27.18-6.06 4.693-1.3 6.61-4.6 6.326-4.6-3.92-2.867-22.864 2.296-32.23 7.897zM330.21 283.89c-.092.46-.276 2.671-.276 2.671s16.618-3.03 19.661-6.968c4.132-2.939-19.19 3.49-19.376 3.397zM329.67 276.27l.001 2.689s10.368-.316 12.487-2.406c1.369-2.09-9.129-.297-12.488-.184zM361.18 298.01s6.38.762 6.39-.809c-.198-2.77-6.39.9-6.39.809zM330.02 266.63c-.092.469.091 6.693.091 6.693s24.886-7.897 26.446-9.367c1.661-1.469 6.026-6.891-26.638 3.674zM329.29 268.73v4.132s10.009-.736 14.601-4.6c4.691-3.764-14.601.46-14.601.368zM317.26 249.36l.643 3.766s-32.966-10.662-32.873-10.662c.091 0-1.66-6.426 32.23 6.887zM317.81 236.14c-.092.367-.092 3.68-.184 3.49-.092-.093-22.864-9.66-23.69-8.724-3.024-7.086 23.876 6.417 23.876 6.234zM328.92 242.02c0 .092.367 3.214.367 3.214s13.968-2.938 14.784-4.316c.827-1.378-16.16 1.193-16.16 1.101zM329.26 249.46c.13.79.404 3.306.404 3.306s6.602-.469 6.428-1.746c.827-1.286-6.832-1.469-6.832-1.661zM328.37 232.47c0 .276.091 3.122.091 3.122s16.336-3.03 16.988-4.6c1.663-1.468-17.366 1.378-17.079 1.378zM328.46 224.02c0 .184-.66 3.122-.184 3.122s18.641-3.122 21.487-6.693c2.848-2.671-21.028 2.847-21.303 2.671zM328.19 209.14v3.214s11.846-2.479 14.06-4.969c2.204-2.48-14.06 1.929-14.06 1.746zM326.17 187.47l.276 4.866s16.886-2.203 18.18-4.866c2.296-2.663-18.647 0-18.466 0zM318.82 161.02v3.03s-7.63-.367-6.694-1.663 6.694-1.102 6.694-1.377zM326.8 166.06l.184 4.132s9.733-.918 10.468-2.48c.734-1.66-10.468-1.662-10.662-1.662zM326.26 161.03s.184 2.671.367 2.671c.184 0 3.867-.276 4.683-1.286.826-1.01-4.683-1.102-6.06-1.286zM316.99 172.78c0 .276.276 3.949.091 3.866s-21.303-6.162-23.232-6.06c-1.927.092-2.479-4.867 23.141 2.204zM318.73 179.67c0 .736.46 4.691-.276 4.408-.734-.184-14.324-4.6-12.947-6.786 1.377-1.286 13.223 1.663 13.223 1.377zM317.64 208.68l.091 3.49s-23.69-7.163-24.617-8.366c-.826-1.194-3.122-6.796 24.426 4.866zM318.46 217.22c0 .092.184 3.306.092 3.306s-32.23-11.294-32.23-11.294-2.671-8.449 32.138 7.988z" stroke="#000" stroke-linecap="round" stroke-width=".792" fill="#fff"/>
    <path stroke-linejoin="round" d="M280.26 328.68c0 .11-.11 3.617-.11 3.617s-6.264-1.769-8.242-6.276c3.627-.989 8.462 1.868 8.362 1.768z" stroke="#000" stroke-width=".792" fill="#fff"/>
  </g>
</svg>
