<svg xmlns="http://www.w3.org/2000/svg" xmlns:xlink="http://www.w3.org/1999/xlink" height="480" width="640" version="1">
  <defs>
    <linearGradient y2="283.42" x2="600.626" y1="289.066" x1="498.738" gradientUnits="userSpaceOnUse" id="f">
      <stop offset="0" stop-color="#610000"/>
      <stop offset=".3" stop-color="#8a0000"/>
      <stop offset="1" stop-color="#a00"/>
    </linearGradient>
    <linearGradient y2="287.449" x2="602.927" y1="291.373" x1="601.444" gradientUnits="userSpaceOnUse" id="g">
      <stop offset="0" stop-color="#ff2a2a"/>
      <stop offset="1" stop-color="red"/>
    </linearGradient>
    <linearGradient y2="317.647" x2="484.764" y1="311.709" x1="484.764" gradientUnits="userSpaceOnUse" id="b">
      <stop offset="0" stop-color="#F6F649"/>
      <stop offset="1" stop-color="#97C924"/>
    </linearGradient>
    <linearGradient id="a">
      <stop offset="0" stop-color="#026"/>
      <stop offset=".6" stop-color="#04a"/>
      <stop offset="1" stop-color="#026"/>
    </linearGradient>
    <linearGradient y2="317.486" x2="634.411" y1="317.486" x1="444.609" gradientUnits="userSpaceOnUse" xlink:href="#a" id="h"/>
    <clipPath id="c">
      <path d="M600 226.376l-63.702 110.332h127.4z"/>
    </clipPath>
    <linearGradient xlink:href="#a" id="o" gradientUnits="userSpaceOnUse" x1="444.609" y1="317.486" x2="634.411" y2="317.486"/>
    <linearGradient xlink:href="#a" id="p" gradientUnits="userSpaceOnUse" x1="444.609" y1="317.486" x2="634.411" y2="317.486"/>
    <linearGradient xlink:href="#a" id="q" gradientUnits="userSpaceOnUse" x1="444.609" y1="317.486" x2="634.411" y2="317.486"/>
    <linearGradient xlink:href="#a" id="r" gradientUnits="userSpaceOnUse" x1="444.609" y1="317.486" x2="634.411" y2="317.486"/>
    <linearGradient xlink:href="#b" id="u" gradientUnits="userSpaceOnUse" x1="484.764" y1="311.709" x2="484.764" y2="317.647"/>
    <linearGradient xlink:href="#a" id="x" gradientTransform="scale(4.46716 .22436)" x1="98.901" y1="1440.166" x2="124.971" y2="1440.166" gradientUnits="userSpaceOnUse"/>
    <linearGradient xlink:href="#a" id="j" gradientUnits="userSpaceOnUse" x1="444.609" y1="317.486" x2="634.411" y2="317.486"/>
    <linearGradient xlink:href="#a" id="l" gradientUnits="userSpaceOnUse" x1="444.609" y1="317.486" x2="634.411" y2="317.486"/>
    <linearGradient xlink:href="#a" id="m" gradientUnits="userSpaceOnUse" x1="444.609" y1="317.486" x2="634.411" y2="317.486"/>
    <linearGradient xlink:href="#a" id="i" gradientUnits="userSpaceOnUse" x1="444.609" y1="317.486" x2="634.411" y2="317.486"/>
    <linearGradient xlink:href="#b" id="s" gradientUnits="userSpaceOnUse" x1="484.764" y1="311.709" x2="484.764" y2="317.647"/>
    <linearGradient xlink:href="#b" id="v" gradientUnits="userSpaceOnUse" x1="484.764" y1="311.709" x2="484.764" y2="317.647"/>
    <linearGradient xlink:href="#a" id="y" gradientUnits="userSpaceOnUse" gradientTransform="scale(9.12406 .1096)" x1="47.866" y1="3064.214" x2="61.746" y2="3064.214"/>
  </defs>
  <path fill="#0067c6" d="M0 0h640v480H0z"/>
  <path fill="#fff" d="M0 160h640v160H0z"/>
  <path d="M248 239.463l7.983.634c.027-.39.06-.778.08-1.167l-3.14-.21c.078-1.282.186-2.663.242-3.847 1.11-.803 2.222-1.606 3.33-2.414l.098-1.48-3.61 2.66c-.12-.83-.678-1.686-1.413-1.974-.73-.266-1.626-.31-2.268.21-.803.69-.947 1.648-1.06 2.667-.14 1.742-.24 3.488-.362 6.23zm1.216-1.09c.096-1.31.166-2.623.28-3.93.1-.647.218-1.394.784-1.806.61-.34 1.267-.087 1.477.49.417 1 .232 2.1.178 3.146l-.16 2.273-2.67-.172zm-.176-11.168c2.696.606 6.193 1.212 7.79 1.82l1.77-7.684c-.37-.086-.738-.17-1.107-.267l-1.606 6.46-2.37-.664c.46-1.938.903-3.876 1.366-6.813l-1.1-.268-1.36 6.812-2.097-.49 1.46-6.208-1.113-.26c-.67 2.447-1.142 4.894-1.714 7.34zm2.806-10.462l7.666 2.628.383-1.103c-.99-.344-1.98-.69-2.972-1.033.388-1.143.813-2.274 1.17-3.427.266-.942.463-2.043-.1-2.918-.46-.648-1.26-1.063-2.04-1.038-.87.037-1.68.678-1.967 1.42-.67 1.074-.89 2.266-1.307 3.392l-.724 2.08zm1.46-.73c.404-1.133.77-2.28 1.207-3.403.273-.6.606-1.31 1.294-1.6.667-.13 1.16.306 1.21.887.14 1.068-.328 2.077-.666 3.07l-.623 1.792-2.43-.846zm2.714-8.947c1.424.827 2.836 1.674 4.27 2.486.807.436 1.832.683 2.677.196 1.163-.638 1.876-1.816 2.44-2.966.447-.968.77-2.17.202-3.16-.613-.99-1.726-1.443-2.676-2.033l-2.766-1.618c-.196.336-.39.67-.687 1.004 1.367.798 2.722 1.68 4.07 2.39.646.392 1.18 1.103 1.07 1.894-.128.942-.667 1.77-1.204 2.63-.442.618-1.186 1.116-1.976.96-.822-.16-1.49-.697-2.214-1.087l-2.72-1.69c-.196.334-.39.67-.687 1.003zm6.762-9.416l6.363 4.86c.986-1.286 1.968-2.677 2.96-3.868.67-.817 1.096-1.88.71-2.883-.36-.8-1.173-1.417-2.064-1.468-.397-.064-.916.247-1.13.38.226-.863-.473-1.666-1.26-1.88-.944-.337-1.903.27-2.628.942-.737.8-1.362 1.703-2.026 2.666l-1.026 1.34zm1.61-.24c.746-.96 1.448-1.936 2.227-2.86.362-.403.943-.86 1.606-.664.612.222.638.868.394 1.333-.39.83-1.03 1.606-1.666 2.243-.29.38-.68.76-.872 1.14-.664-.43-1.127-.86-1.69-1.292zm2.69 1.982c.77-.987 1.498-2.01 2.312-2.962.416-.436.938-.983 1.697-.868.666.13.976.74.78 1.31-.317 1.046-1.1 1.848-1.73 2.716l-.994 1.298-1.964-1.603zm3.003-10.228l6.494 6.816 4.706-4.447-.78-.826-3.766 3.666-.097.09-.07-.072-4.643-4.916zm7.043-6.162l4.876 6.342.962-.732-4.877-6.342zm7.166-4.866c-.79.492-1.428 1.068-1.918 1.74-.49.67-.763 1.37-.792 2.098-.038.73.167 1.436.687 2.126a4.116 4.116 0 0 0 1.68 1.476 3.69 3.69 0 0 0 2.14.394c.774-.087 1.646-.43 2.617-1.034.932-.68 1.693-1.26 2-2.02.39-.738.6-1.622.333-2.367l-1.106.432c.29 1.6-.742 2.367-1.896 3.1-1.807 1.1-3.668 1.02-4.647-.632-1.118-1.862.106-3.4 1.642-4.4 1.09-.68 2.167-1.146 3.19-.494l.866-.772a3.196 3.196 0 0 0-2.044-.66c-.81.046-1.666.343-2.66.902zm9.463-4.718l-.837 8.966 1.246-.602.262-2.78h.004l4.048-1.633 2.11 1.828 1.246-.603-6.82-6.876-1.247.602zm1.096.92l2.66 2.302-2.978 1.2.32-3.603zm16.439-6.866l.6 7.984c1.444-.097 2.89-.166 4.33-.286 1.136-.13 2.362-.424 3.128-1.327 1-1.11 1.143-2.77.706-4.16-.368-1.217-1.462-2.137-2.7-2.37-1.22-.236-2.464-.06-3.692.006l-2.27.143zm1.232 1.062c1.16-.06 2.297-.173 3.448-.18a2.94 2.94 0 0 1 1.83.66c.8.648 1.27 1.634 1.166 2.6-.067 1.113-.876 2.136-1.966 2.417-.618.16-1.26.206-1.893.276l-2.238.14c-.12-1.904-.24-3.808-.368-6.712zM321.33 168c-.16 2.662-.303 6.326-.466 7.987l7.773.444.066-1.133c-2.204-.126-4.408-.263-6.613-.378l.14-2.432c1.986.112 3.972.227 6.968.34l.066-1.13c-1.987-.112-3.973-.227-6.96-.34.04-.717.083-1.434.123-2.16 2.122.12 4.244.242 6.366.363l.067-1.14-7.626-.43zm20.89 3.333l-2.894 7.468 1.03.4 2.293-6.913.118-.307.128.34 2.768 7.936 1.348.622 2.893-7.468-1.032-.4-2.292 6.91-.117.303-.126-.338-2.763-7.93zm10.746 4.617l-3.636 7.126-1.07-.646 3.638-7.126zm6.034 3.636c-.776-.613-1.666-.862-2.38-1.017-.814-.166-1.66-.114-2.238.166-.68.27-1.24.74-1.687 1.42a4.116 4.116 0 0 0-.68 2.062c-.046.743.13 1.44.634 2.11.4.666 1.074 1.316 2.03 1.946.916.606 1.8.926 2.67.976a3.446 3.446 0 0 0 2.28-.68l-.866-.826c-1.332.932-2.46.316-3.608-.43-1.763-1.182-2.416-2.816-1.366-4.486 1.226-1.794 3.134-1.326 4.684-.344 1.074.708 1.946 1.49 1.78 2.693l1.063.466c.124-.716.014-1.41-.346-2.093-.378-.717-1.002-1.36-1.883-1.942zm7.618 6.746l-8.363 3.336 1.014.88 2.69-1.04.003.004 3.296 2.86-.667 2.71 1.016.88 2.127-8.76-1.016-.88zm-.32 1.393l-.84 3.417-2.424-2.106 3.264-1.31zm6.362 4.167l-6.173 6.09.743.9 2.428-2c.823.986 1.624 1.992 2.464 2.964-.267 1.347-.616 2.693-.766 4.04l.942 1.144c.267-1.422.636-2.843.804-4.264.69.667 1.702.86 2.628.402.71-.336 1.336-.982 1.373-1.806.086-1.102-.7-1.996-1.33-2.814-1.004-1.22-2.01-2.438-3.016-3.667zm-.136 1.626c.864 1.067 1.77 2.1 2.697 3.2.38.666.866 1.36.42 2.02-.36.667-1.16.617-1.632.16-.98-.66-1.627-1.67-2.392-2.647l-.978-1.187 1.986-1.637zm9.494 11.104l-8.994.413.67 1.164 2.788-.136.002.006 2.177 3.78-1.617 2.343.67 1.166 4.876-7.67-.67-1.164zm-.768 1.212l-1.912 2.963-1.602-2.783 3.614-.17zm6.89 9.378c-.6-1.367-1.288-2.747-2.623-3.426-1.486-.746-3.462-.383-4.616.926-.918 1.086-.966 2.624-.72 3.96.29 1.636.993 2.996 2.06 4.16-.2.07-.398.142-.697.214l.383 1.066c1.26-.46 2.498-.9 3.747-1.348-.486-1.36-.97-2.698-1.467-4.047-.29.104-.677.208-.866.31l1.072 2.984c-.423.16-.846.303-1.27.466-1.12-.962-1.744-2.384-2.07-3.798-.24-1.062-.26-2.334.666-3.17.924-.96 2.66-1.268 3.67-.44 1.093.802 1.71 2.1 2.022 3.388.214.848.18 1.866-.464 2.618-.18.136.106.323.164.484l.306.606a2.823 2.823 0 0 0 1.074-2.237c.023-.862-.166-1.697-.46-2.496zm2.3 6.248l-4.476.87c-.83.16-1.463.426-1.868.774-.414.36-.68.842-.807 1.497-.126.647-.108 1.442.077 2.408a.197.197 0 0 1 .004.022c.19.966.472 1.71.833 2.262.364.66.794.917 1.31 1.086.616.17 1.19.18 2.02.018l4.476-.87-.222-1.142-4.366.86c-1.96.38-2.62-.66-2.967-2.416l-.004-.022c-.36-1.763-.126-2.966 1.836-3.348l4.366-.86-.22-1.14zm2.463 13.616l-8.278-3.64.097 1.34 2.67 1.09v.006l.314 4.36-2.386 1.46.098 1.34 7.682-4.697-.097-1.34zm-1.21.76l-3.006 1.828-.232-3.203 3.237 1.376zM264.2 264.668l-1.16.306 1.284 4.874 1.16-.306zm131.626 0l1.16.306-1.282 4.874-1.16-.306zM266.674 276.19l-8.946 1.03.747 1.116 2.772-.327.002.004 2.43 3.623-1.362 2.44.748 1.116 4.344-7.886-.748-1.116zm-.674 1.262l-1.704 3.077-1.79-2.668 3.494-.41zm4.098 3.626l-6.702 6.332.76.814 4.806-4.493-2.62 6.937.873.934 6.89-2.09-4.72 4.412.762.814 6.7-6.332-1.166-1.236-7 2.09 2.62-6.774zm8.304 8.472l-4.812 6.392 6.22 4.684.684-.908-6.29-3.986 1.464-1.946 4.768 3.69.68-.903-4.768-3.69 1.296-1.722c1.698 1.28 3.396 2.667 6.093 3.836l.687-.912-6.022-4.636zm7.828 6.73l-3.768 7.068 1.03.66 1.482-2.776c1.137.6 2.26 1.224 3.408 1.803.276 1.343.66 2.686.832 4.027l1.307.698-.88-4.247c.866.26 1.898.138 2.49-.692.606-.663.847-1.364.606-2.11-.28-1.043-1.307-1.69-2.174-2.094-1.442-.776-2.89-1.643-4.332-2.316zm.493 1.666c1.206.668 2.44 1.268 3.62 1.97.648.368 1.243.874 1.174 1.62-.06.664-.766 1.003-1.363.864-1.167-.193-2.162-.89-3.192-1.41l-1.46-.773 1.21-2.27zm8.643 3.169l-3.023 7.407 1.11.463 3.024-7.407zm7.214 2.492c-.884-.294-1.734-.416-2.664-.364-.828.062-1.634.296-2.12.732-.686.436-1.004 1.037-1.26 1.81a4.116 4.116 0 0 0-.126 2.168c.16.73.602 1.366 1.066 1.898.66.64 1.38.993 2.466 1.363 1.043.346 1.98.427 2.832.248a3.446 3.446 0 0 0 2.027-1.26l-1.042-.673c-1.044 1.246-2.294.942-3.696.622-2-.69-3.063-2.094-2.482-3.98.718-2.06 2.683-2.092 4.433-1.647 1.22.404 2.266.934 2.42 2.137l1.146.174a3.192 3.192 0 0 0-.877-1.93c-.66-.694-1.32-1.064-2.323-1.387zm8.043 1.801l-6.232 7.327 1.33.192 1.616-2.276h.006l4.318.626.904 2.64 1.33.193-2.94-8.61-1.33-.192zm.484 1.344l1.14 3.328-3.177-.46 2.037-2.868zm18.269-1.288c-.914.177-1.716.486-2.414.938-.697.46-1.194 1.008-1.49 1.676-.297.668-.37 1.397-.216 2.196.142.732.46 1.38.948 1.944.487.663 1.102.938 1.867 1.136.762.196 1.69.19 2.812-.027 1.08-.208 1.936-.696 2.69-1.17a3.446 3.446 0 0 0 1.167-2.08l-1.188.007c-.302 1.697-1.64 1.946-2.88 2.216-2.08.38-3.696-.326-4.112-2.264-.377-2.14 1.316-3.137 3.11-3.62 1.26-.244 2.432-.293 3.164.682l1.086-.41a3.183 3.183 0 0 0-1.71-1.266c-.77-.248-1.667-.273-2.704-.073zm6.342-.946c.76 2.667 1.617 6.113 2.276 7.67 2.488-.74 4.976-1.477 7.466-2.216-.11-.363-.217-.727-.326-1.09l-6.36 1.884c-.23-.778-.46-1.666-.692-2.336 1.907-.666 3.816-1.13 6.722-1.697l-.322-1.086-6.722 1.698-.612-2.066 6.112-1.814-.326-1.096-7.227 2.144zm8.666-2.72c1.12 2.42 2.24 4.84 3.368 7.26l1.003-.462-2.8-6.066c2.688 1.174 6.163 2.383 7.746 3.67.172.16.344.06.616-.042l1.007-.466c-1.12-2.42-2.24-4.84-3.368-7.26l-1.006.463 2.798 6.048c-2.66-1.206-6.303-2.443-7.966-3.66-.437.2-.873.402-1.31.604zm8.786-4.126l.626.962 2.868-1.88.108-.072.064.082 3.717 6.648.973-.64-3.718-6.647-.064-.082.112-.073 2.87-1.89-.626-.962zm8.049-6.612l6.422 6.883c.286-.263.672-.628.86-.79l-2.134-2.316c.94-.876 1.9-1.73 2.826-2.623 1.368.182 2.717.366 4.076.642l1.09-1.004-4.3-.67c.626-.72.764-1.746.26-2.646-.374-.69-1.063-1.28-1.877-1.27-1.106-.027-1.966.808-2.737 1.48l-3.486 3.213zm1.632.046c1.017-.92 2-1.884 3.06-2.768.646-.41 1.313-.93 1.997-.63.684.33.678 1.12.24 1.62-.606 1.017-1.68 1.72-2.416 2.632l-1.127 1.04c-.68-.632-1.163-1.263-1.744-1.894zm7.676-9.362l3.68 8.262.86-1.04-1.117-2.667.003-.006 2.763-3.378 2.728.688.862-1.04-8.807-1.87-.86 1.04zm1.402.28l3.44.738-2.034 2.486-1.406-3.226zm2.082-4.812l6.713 4.363 3.623-6.432-.964-.62-2.818 4.347-.072.11-.086-.064-6.674-3.68z" fill="#c8a400"/>
  <g clip-path="url(#c)" transform="matrix(.8 0 0 .8 -80 0)">
    <path d="M600 226.408l-31.478 64.636-16.42 26.702H646.9l-14.716-26.484L600 226.41z" fill="#fff"/>
    <g id="e">
      <g id="d">
        <path d="M600 226.408l-2.366 4.082L600 286.467l2.368-64.977z" opacity=".62" fill="#17c0eb" stroke="#17c0eb" stroke-width=".129"/>
        <path d="M600 277.476l-.133.003.134 3.11.136-3.11c-.046 0-.09-.003-.134-.003z" fill="#fff"/>
      </g>
      <use height="100%" width="100%" xlink:href="#d" transform="rotate(72 600 286.467)"/>
      <use height="100%" width="100%" xlink:href="#d" transform="rotate(144 600 286.467)"/>
      <use height="100%" width="100%" xlink:href="#d" transform="rotate(-144 600 286.467)"/>
      <use height="100%" width="100%" xlink:href="#d" transform="rotate(-72 600 286.467)"/>
    </g>
    <use height="100%" width="100%" xlink:href="#e" transform="rotate(8 600 286.467)"/>
    <use height="100%" width="100%" xlink:href="#e" transform="rotate(16 600 286.467)"/>
    <use height="100%" width="100%" xlink:href="#e" transform="rotate(24 600 286.467)"/>
    <use height="100%" width="100%" xlink:href="#e" transform="rotate(32 600 286.467)"/>
    <use height="100%" width="100%" xlink:href="#e" transform="rotate(40 600 286.467)"/>
    <use height="100%" width="100%" xlink:href="#e" transform="rotate(48 600 286.467)"/>
    <use height="100%" width="100%" xlink:href="#e" transform="rotate(66 600 286.467)"/>
    <use height="100%" width="100%" xlink:href="#e" transform="rotate(64 600 286.467)"/>
    <path d="M600 266.844a44.236 44.236 0 0 0-28.97 10.76L466.376 302c-.6 2.67-.76 6.434-.76 8.26h6.03c0-21.726 17.62-39.344 39.346-39.344 21.727 0 39.344 17.618 39.344 39.344h6.03c0-2.813-.248-6.682-.76-8.26l-14.666-26.406a44.26 44.26 0 0 0-28.97-10.76z" fill="red"/>
    <path d="M600 266.666c-11.764 0-22.44 4.676-30.28 12.26l-12.032 20.844a43.696 43.696 0 0 0-1.28 10.6h4.26c0-21.726 17.616-39.344 39.342-39.344 21.727 0 39.344 17.618 39.344 39.344h4.26a43.86 43.86 0 0 0-1.28-10.63l-12.032-20.814c-7.84-7.674-18.618-12.26-30.282-12.26z" fill="#f60"/>
    <path d="M600 267.47c-12.702 0-24.1 6.62-31.938 14.31l-8.718 16.096a42.733 42.733 0 0 0-2.126 13.376h3.436c0-21.726 17.618-39.344 39.344-39.344 21.726 0 39.344 17.618 39.344 39.344h3.437c0-4.673-.74-9.166-2.124-13.376l-8.72-16.096c-7.836-8.788-19.236-14.312-31.937-14.312z" fill="#ff0"/>
    <path d="M600 268.26c-14.66 0-27.372 7.414-34.906 18.666l-2.813 4.876a41.818 41.818 0 0 0-4.28 18.47h2.666c0-21.726 17.617-39.344 39.343-39.344 21.726 0 39.343 17.618 39.343 39.344H642a41.82 41.82 0 0 0-4.282-18.437l-2.844-4.937C627.338 276.66 614.637 268.26 600 268.26z" fill="#0f0"/>
    <path d="M600 269.062c-22.747 0-41.188 18.44-41.188 41.188h1.844c0-21.727 17.618-39.344 39.344-39.344 21.726 0 39.344 17.617 39.344 39.344h1.844c0-22.748-18.44-41.188-41.188-41.188z" fill="#0cf"/>
    <path d="M600 269.844c-22.306 0-40.376 18.1-40.376 40.406h1.344c0-21.66 17.47-39.03 39.03-39.03 21.66 0 39.03 17.47 39.03 39.03h1.376c0-22.306-18.1-40.406-40.406-40.406z" fill="#00f"/>
    <path d="M600 270.667c-21.863 0-39.688 17.726-39.688 39.69 0 .244.003.49.007.732h.8c-.006-.246-.007-.49-.007-.734 0-21.422 17.366-38.788 38.788-38.788 21.423 0 38.79 17.366 38.79 38.788 0 .246-.003.49-.008.733h.797c.003-.244.006-.49.006-.734 0-21.864-17.72-39.69-39.686-39.69z" fill="purple"/>
    <g>
      <path d="M600.396 288.134c-.644-.124-1.226-.484-1.776-.61-.766.726-.836 1.467-.73 2.08.26.14.31.363.877.86s.496.773.462 1.966c-.016.602.07 1.68.678 1.68.648.11.932-.346 1.09-1.16.162-.79.417-1.216.698-1.7.306-1.863-.193-2.61-1.2-3.116z" fill="#610000"/>
      <path d="M497.168 283.624c-.696.016-1.628 1.012-1.943.476-.24-.31-.28-.903-.037-1.4.66-1.162 1.124-1.717 2.167-2.33 2.378-1.402 3.89-.962 6.074 1.062 1.097 1.772 2.16 3.73 2.246 6.37.03.602.283 1.41-.166 1.86-1.36 1.39-4.697-1.434-6.498-.987-.64.16-1.377.617-1.98.218-.47-.31-.078-.997.272-1.294.612-.62 1.6-2.366 1.38-3.166-.067-.446-.08.18-.626.19z" fill="red"/>
      <path d="M496.927 282.648c-1.083.446-.966 1.076-1.61 1.69.164.068.766.31 1.364-.3.26-.216.66-.294.678-.363-.306.22-.623.664-.684.684-.404.328-1.034 1.082-1.34 1.846-.307.764-.43 1.673-.376 1.782.066.11.426.78 1.666 1.232 2.03.806 2.417 2.438 4.477 2.438 1.616 0 1.366-1.066 2.647-.832 1.12.194 1.714-.696.636-1.232-1.37-.468-4.092-.192-6.372.033-.413-4.083-.066-2.66-.16-4.406-.098-1.766-.624-1.86.07-3.28-.677.87-1.276.733-2.003.806z" fill="url(#f)"/>
      <path d="M600.938 279.796c-.04.223-.077.616-.066.6.087.34.176.693.278.994.116.336.162.678.24.927.082.36.4.6.694.722.37.28.084 1.036.316 1.067.183.026.487-1.07.49-1.246 0-.236-.002-.426-.038-.646a16.3 16.3 0 0 0-.426-.872c-.002-.004-.007-.006-.01-.01a3.662 3.662 0 0 0-.193-.327 4.204 4.204 0 0 0-.786-.863c-.02-.016-.037-.032-.066-.047a3.936 3.936 0 0 0-.268-.187c-.062-.04-.13-.076-.194-.113z" fill="#ff2a2a"/>
      <path d="M601.26 287.398c-.72-.188-1.427-.643-2.038-.726-1.2-.36-2.48-1.134-3.366-.814-.317.14-.29.466-.39.91-.042.632-.696 1.318-.136 1.06.686-.382 2.49.734 3.096 1.107.287.177.892.624 1.082 1.022.19.497.092 1.766.04 2.296-.062.666.12 1.836.687 1.987.61.163 1.078-.323 1.316-1.23.23-.88.406-1.387.767-1.916s.766-.766 1.32-.863c.664-.106 1.382.462 1.382-.203 0-.436-.386-.864-.22-1.463.127-.472-.403-.378-.843-.672-1.036-.32-1.97-.42-2.688-.607z" fill="url(#g)"/>
      <path d="M498.363 288.902c-.327-.178-2.316-1.478-3.043-1.07-.23.127-.317-.017-.32-.268-.004-.24.11-.694.184-.866.074-.273.196-.792.616-1.062.687-.68 2.27.676 3.108.886-.072.436-.47 2.366-.446 2.37z" fill="#910000"/>
      <path d="M601.763 291.36c.916-1.602 1.608-1.396 2.613-1.373.37.008.477-.33.393-.667-.28.624-1.663-.07-2.416.263-1.673.692-1.28 3.77-2.027 4.07.776.66 1.124-1.746 1.436-2.292z" fill="#ff3a3a"/>
    </g>
    <g fill="url(#h)">
      <path d="M463.103 307.646l-9.966 17.237h113.708l-9.966-17.237h-93.797z" fill="#fff"/>
      <g id="n" fill="url(#i)">
        <path id="k" d="M449.706 321.364c-1.668 0-3.197.167-4.71.363l-.486.846c2.432-.216 4.696-.66 7.14-.71 3.292.08 6.282.83 9.786.83 1.618.016 3.027-.03 4.626 0 3.6 0 6.49-.76 9.784-.83 3.296.08 6.304.83 9.803.83 1.618.006 3.178-.023 4.63 0 3.6 0 6.474-.76 9.766-.83 3.293.08 6.27.83 9.77.83 1.63.016 3.032-.03 4.642 0 3.6 0 6.49-.76 9.787-.83 3.297.08 6.282.83 9.783.83 1.616.016 3.03-.03 4.63 0 3.6 0 6.476-.76 9.766-.83 2.66.063 4.92.62 7.486.726l-.616-.893c-1.404-.168-2.836-.32-4.37-.32-1.628-.022-3.036.03-4.646 0-3.6 0-6.474.747-9.766.828-3.297-.08-6.284-.83-9.787-.83-1.613-.02-3.03.032-4.626 0-3.6 0-6.493.76-9.786.83-3.293-.08-6.283-.83-9.782-.83-1.622-.02-3.042.032-4.647 0-3.498 0-6.476.76-9.764.83-3.294-.08-6.27-.83-9.77-.83-1.62-.02-3.026.032-4.626 0-3.6 0-6.49.76-9.786.83-3.294-.08-6.283-.83-9.783-.83-1.62-.02-3.043.032-4.647 0z" fill="url(#j)"/>
        <use height="100%" width="100%" xlink:href="#k" y="-1.113" fill="url(#l)"/>
        <use height="100%" width="100%" xlink:href="#k" y="-2.23" fill="url(#m)"/>
      </g>
      <use height="100%" width="100%" xlink:href="#n" y="-3.344" fill="url(#o)"/>
      <use height="100%" width="100%" xlink:href="#n" y="-6.691" fill="url(#p)"/>
      <path d="M463.23 307.468l-.123.216h93.79l-.124-.216H463.23zm-.22.377l-.126.22h94.236l-.128-.22h-93.98zm-.2.346l-.204.367h94.792l-.206-.366H462.81zm-.317.662l-.26.433h96.618l-.26-.433h-96.017zm-.4.69l-.26.436h96.317l-.26-.434h-96.816zm-.398.692l-.247.43h97.107l-.247-.43h-96.613zm-.398.692l-.26.43h97.91l-.26-.43h-97.41zm-.43.744l-.304.63h98.877l-.303-.63h-98.27z" fill="url(#q)"/>
      <path d="M467.367 312.287c3.46.662 3.782 0 3.782 0zm81.603 0s.33.662 3.782 0z" fill="url(#r)"/>
    </g>
    <g fill="#ccd11e">
      <g id="t">
        <path d="M630.63 297.043c-1.708 0-2.23.862-2.23.862-2.737 10.676-11.808 21.333-22.6 21.333h-8.082v10.768c0 .003.012 0 .017 0h61.498l-6.187-10.964c-9.707-1.46-17.64-11.373-20.166-21.147 0 0-.64-.862-2.26-.862z" fill="url(#s)"/>
        <path d="M630.63 297.466c-.783 0-1.26.18-1.637.366-.264.166-.316.276-.32.288 0 .007-.016.01-.02.016-1.4 6.323-4.36 10.67-8.333 14.707-4.012 4.07-9.07 6.83-14.606 6.83h-7.674v9.923h60.866l-6.68-10.068c-4.687-.612-8.973-3.163-12.468-6.694-3.986-4.037-6.932-9.383-8.334-14.706l-.017-.016c-.007-.012-.07-.106-.338-.27-.284-.177-.766-.373-1.64-.373z" fill="#97c924"/>
        <path d="M630.63 297.466c.147 0 .28.02.406.034.024 3.016 0 8.108 0 10.8-.03 2.34-.83 4.223-2.012 6.44-.647 1.666-.986.964-2.36 2.868-1.83.664-3.186.91-6.138 1.216-2.617.398-8.12.76-10.887.136 3.64-1.068 6.96-3.27 9.77-6.12a30.67 30.67 0 0 0 2.13-2.4 33.663 33.663 0 0 0 3.01-4.48c.362-.626.686-1.248.997-1.893a33.86 33.86 0 0 0 1.26-2.94c.124-.33.246-.667.366-.998.222-.666.417-1.33.692-1.996.002-.006.016-.01.016-.017.007-.012.06-.122.322-.287.136-.086.332-.17.676-.237h.017c.262-.067.664-.118.946-.118z" fill="#ede71f"/>
        <path d="M629.938 298.902c-.412 6.034-2.277 13.192-6.644 17.81-1.607 1.337-3.66 2.66-6.646 2.266 6.77-6.61 10.886-13.947 12.29-20.066z" fill="#c6cb24"/>
        <path d="M624.494 309.28c-1.002 2.722-4.788 6.747-8.84 10.046-1.16.036-1.76.1-2.804.038 2.468-.226 8.22-6.083 11.644-10.083z" fill="#9ecb34"/>
      </g>
      <use height="100%" width="100%" xlink:href="#t" x="-16.341"/>
      <g fill="#c6cb24">
        <path d="M602.218 297.91c2.736 10.676 11.79 21.334 22.683 21.334h8.09v10.768c0 .003-.016 0-.017 0h-66.796c-.006 0-.017.003-.017 0v-10.768h8.073c10.792 0 19.863-10.768 22.6-21.333 0 0 .634-.866 2.243-.866 1.708 0 2.243.866 2.243.866z" fill="url(#u)"/>
        <path d="M499.976 297.466c.784 0 1.266.196 1.638.372.27.166.332.26.34.27l.016.017c1.4 6.323 4.347 10.67 8.332 14.707 4.017 4.07 9.087 6.83 14.623 6.83h7.64v9.923h-64.98v-9.923h7.676c6.636 0 10.693-2.76 14.606-6.83 3.982-4.037 6.934-9.383 8.334-14.706.002-.007.014-.01.016-.016.006-.012.067-.123.32-.288.28-.174.766-.366 1.64-.366z" fill="#97c924"/>
        <path d="M499.263 297.63a3.4 3.4 0 0 0-.242.066h-.017c-.243.066-.436.16-.672.236-.263.166-.313.276-.32.287-.002.006-.016.01-.017.017a28.878 28.878 0 0 1-.949 2.993 34.22 34.22 0 0 1-1.26 2.942 34.21 34.21 0 0 1-.997 1.894 33.634 33.634 0 0 1-3.01 4.477 30.73 30.73 0 0 1-2.13 2.402c-2.81 2.86-6.128 6.06-9.77 6.117 2.766.614 4.033-.067 6.66-.466 1.962-.308 4.21-.663 6.043-1.217 1.364-1.894.9-1.3 1.446-2.864 1.18-2.218 2.906-4.222 3.334-6.68 1.62-3.023 1.903-8.616 1.903-10.214z" fill="#ede71f"/>
        <path d="M499.276 298.902c-.412 6.034-2.277 13.192-6.644 17.81-1.606 1.337-3.66 2.66-6.646 2.266 6.77-6.61 10.886-13.947 12.29-20.066z"/>
        <path d="M493.832 309.28c-1.002 2.722-4.788 6.748-8.84 10.046-1.16.036-1.76.1-2.804.038 2.467-.226 8.222-6.083 11.644-10.083z" fill="#9ecb34"/>
        <path d="M600.96 297.684h.02c.24.067.434.16.67.236.264.166.316.274.32.286.003.006.017.01.02.018.174.666.37 1.333.69 1.996.112.332.236.666.368.996a33.6 33.6 0 0 0 1.26 2.942c.31.646.644 1.268.997 1.896a33.634 33.634 0 0 0 3.01 4.477 30.73 30.73 0 0 0 2.13 2.4c2.81 2.86 6.128 6.446 9.768 6.613-7.246.028-10.39-.63-13.022-4.016-2.632-3.387-3.606-4.868-4.14-6.937-.634-2.068-2.026-6.67-1.87-10.806z" fill="#ede71f"/>
        <path d="M601.476 298.902c.412 6.034 2.22 12.006 6.687 16.626 1.607 1.337 3.66 2.66 6.646 2.266-7.336-6.002-10.83-12.762-12.234-18.88z"/>
      </g>
      <g id="w">
        <path d="M484.76 297.043c-1.71 0-2.26.862-2.26.862-2.622 9.747-11.824 22.318-21.496 23.81l-4.79 8.29h49.016V318.66c-8.826-2.37-16.89-11.63-18.26-20.763 0 0-.622-.862-2.23-.862z" fill="url(#v)"/>
        <path d="M484.76 297.466c-.786 0-1.266.196-1.64.372-.268.166-.33.26-.337.27l-.017.017c-1.402 6.323-4.678 10.706-8.08 14.99-3.402 4.283-9.72 8.617-14.042 9.076l-4.282 7.393h48.06V318.89c-3.664-1.09-6.8-3.267-9.662-6.06-3.982-4.037-6.934-9.383-8.334-14.706-.002-.007-.016-.01-.017-.016-.007-.012-.06-.123-.322-.288-.28-.174-.766-.366-1.64-.366z" fill="#97c924"/>
        <path d="M483.446 298.903c-.617 9.043-6.663 20.464-11.34 22.42-1.866.64-6.1.864-6.227 1.008 9.948-4.73 16.828-16.862 17.667-23.427z" fill="#93bc30"/>
        <path d="M484.746 297.466c-.147 0-.28.02-.406.034-.023 3.016 0 8.108 0 10.8.03 2.34.83 4.223 2.012 6.44.07.196.136.366.203.49.41 1.087.713 1.464 2.282 2.666 4.987 3.787 11.17 4.363 14.808 4.04-1.14-.898-2.368-1.716-3.43-2.467 1.71-.066 3.36-.26 4.612-.608-3.64-1.067-6.96-3.27-9.77-6.12a30.623 30.623 0 0 1-1.403-1.664c-.21-.292-.6-.698-.692-.812-1.118-1.4-2.263-2.947-3.146-4.613a34.164 34.164 0 0 1-.997-1.893 34.023 34.023 0 0 1-1.606-3.938 31.676 31.676 0 0 1-.692-1.996c-.002-.006-.016-.01-.017-.017-.006-.012-.067-.122-.32-.287a2.207 2.207 0 0 0-.676-.237h-.018a3.614 3.614 0 0 0-.946-.118z" fill="#ede71f"/>
        <path d="M486.446 298.902c.412 6.034 2.277 13.192 6.644 17.81 1.606 1.337 3.66 2.66 6.646 2.266-6.77-6.61-10.886-13.947-12.29-20.066z"/>
        <path d="M489.613 307.247c2.37 6.837 8.37 11.29 14.643 14.964 1.16.036 1.492.004 2.637-.06-4.42-2.37-11.64-6.763-17.08-14.893z" fill="#9ecb34"/>
      </g>
      <use height="100%" width="100%" xlink:href="#w" x="-16.43" fill="#c6cb24"/>
    </g>
    <g>
      <path d="M666.6 324.692c-.674.203-4.42-.19-6.433-.044l-1.28.336c-1.123-.008-2.238.024-3.33 0-3.602 0-6.66.948-10.076.948-3.433 0-6.47-.948-10.076-.948-1.12-.008-2.234.026-3.33 0-3.602 0-6.647.948-10.076.948-3.428 0-6.472-.948-10.074-.948-1.13-.007-2.242.023-3.348 0-3.602 0-6.632.948-10.068.948-3.43 0-6.466-.948-10.068-.948-.267 0-.616.01-.776.017-.178-.003-.377-.016-.667-.016-.12 0-.223-.003-.34 0-.117-.003-.237 0-.366 0-.18 0-.346.013-.623.017-.268-.007-.61-.016-.778-.016-3.606 0-6.643.96-10.076.948-3.43 0-6.473-.948-10.076-.948-.26 0-.62.01-.776.017-.18-.003-.34-.016-.622-.016-.124 0-.262-.003-.374 0-.118-.003-.238 0-.367 0-.18 0-.362.013-.64.017-.26-.007-.61-.016-.776-.016-2.88 0-6.218.607-8.936.86l-6.272 10.868 62.972-.007 64.376.007z" fill="#fff"/>
      <path d="M647.993 323.11c-.2 0-.398 0-.696.008-3.24.096-6.664 1.116-11.2 1.116-6.638 0-6.22-1.02-12.684-.88-6.947.132-8.443 1.263-11.67 1.218-3.228-.043-8.473-.696-12.61-.274-4.037.423-8.828 1.284-11.973 1.29-3.91-.016-7.82-.73-11.906-.323-4.087.406-6.997 1.6-11.063 1.486-4.366-.013-9.082-.698-12.746-.696-3.436.003-7.267.967-10.086 1.443l-.844 1.464c2.247-.26 8.66-1.218 10.802-1.277 2.344-.06 10.717.483 16.336.326 4.618-.16 6.168-1.172 10.618-1.172 3.802 0 6.667.4 10.667.4 2.434 0 4.643-1.243 8.343-1.243.936-.027 1.866-.06 2.794-.09 3.12-.616 8.384.044 12.048.23 3.316.174 6.467-.614 8.914-.73 1.496-.067 2.998-.066 4.474-.147 3.46-.116 6.422.64 9.68.624 3.26-.2 6.403-.922 9.86-1.037 1.61-.07 2.998-.072 4.49-.148 2.287-.076 6.837.078 8.273.6l-.84-1.46c-2.38-.076-6.31-.634-8.18-.634z" fill="url(#x)"/>
      <g id="A">
        <path id="z" d="M460.312 334.748c-3.467 0-6.402.863-9.662.946-1.21-.033-2.367-.183-3.636-.346l-.49.86c.486.032.976.063 1.488.063 1.602.02 2.99-.036 4.474 0 3.467 0 6.382-.86 9.634-.944 3.266.092 6.207.946 9.667.946 1.6.02 2.993-.036 4.474 0 3.468 0 6.413-.862 9.667-.944 3.266.092 6.23.946 9.687.946 1.496.02 2.993-.036 4.47 0 3.467 0 6.4-.862 9.662-.944 3.263.092 6.19.946 9.66.946 1.61.02 2.998-.036 4.49 0 3.467 0 6.41-.862 9.666-.944 3.267.092 6.21.946 9.67.946 1.496.02 2.99-.036 4.47 0 3.466 0 6.4-.862 9.66-.944 3.264.092 6.21.946 9.667.946 1.6.02 2.996-.036 4.473 0 .606 0 1.196-.033 1.778-.076l-.462-.797c-1.064.144-2.133.276-3.236.306-3.264-.092-6.196-.946-9.662-.946-1.61-.02-2.996.03-4.49 0-3.467 0-6.396.863-9.648.946-3.267-.09-6.206-.946-9.666-.946-1.496-.02-2.993.03-4.473 0-3.468 0-6.413.863-9.667.946-3.264-.092-6.21-.946-9.666-.946-1.603-.02-3.003.03-4.49 0-3.468 0-6.4.863-9.66.946-3.263-.092-6.194-.946-9.66-.946-1.607-.02-2.99.03-4.476 0-3.46 0-6.41.864-9.666.946-3.266-.092-6.21-.946-9.667-.946-1.602-.02-3.006.03-4.49 0z" fill="url(#y)"/>
        <use height="100%" width="100%" xlink:href="#z" y="-1.289"/>
        <use height="100%" width="100%" xlink:href="#z" y="-2.676"/>
      </g>
      <use height="100%" width="100%" xlink:href="#A" y="-3.867"/>
      <use height="100%" width="100%" xlink:href="#A" y="-7.729"/>
    </g>
    <path d="M443.846 324.706l-2.427 4.19c2.838-.47 7.1-1.702 10.633-1.706 3.663-.003 8.082.903 12.438.916 6.067.014 6.977-1.08 11.064-1.486 4.086-.406 7.998.628 11.906.646 3.146-.007 7.936-1.09 11.973-1.612 4.037-.422 7.737.293 12.603.37 4.866.074 6.63-1.18 11.676-1.312 6.366-.14 6.947.878 12.684.878 4.242.23 7.883-.864 11.666-1.12 3.784-.27 6.64.042 8.306.108l-1.838-3.263c-.032 0-.062.003-.093.004l-101.246 2.226z" fill="#97c924"/>
    <path d="M660.067 324.648s2.71.148 3.847.276a91.39 91.39 0 0 0 2.966.263l-.37-.486c-.674.203-4.42-.19-6.433-.044z" fill="#fff"/>
  </g>
  <path d="M320 179.9l-26.713 44.648L268 269.968l61.438-.007 62.662.007-26.723-44.646L320 179.9zm0 2.4l26.24 43.723 24.68 42.742-60.482-.003-49.36.003 26.247-43.716z" fill="#c8a400"/>
</svg>
