<svg xmlns="http://www.w3.org/2000/svg" height="480" width="640">
  <defs>
    <clipPath id="a">
      <path fill-opacity=".67" d="M0-16.967h612v612H0z"/>
    </clipPath>
  </defs>
  <path fill="#fff" d="M0 0h640v480H0z"/>
  <g clip-path="url(#a)" transform="translate(0 14.96) scale(.9376)">
    <g fill-rule="evenodd">
      <path d="M6.64 489.64l378.786-.01L137.399 238.11l267.263.302L6.661-9.474 6.64 489.64z" stroke="#000063" stroke-width="13.832831999999998" fill="#ce0000"/>
      <path fill="#fff" d="M180.737 366.803l-26.986 8.936 21.11 19.862-28.438-1.827 11.716 26.232-26.649-12.29.626 28.697-18.786-20.9-10.741 26.632-9.16-26.32-20.366 20.688 1.861-27.734-26.884 11.427 12.602-24.918-29.336.613 21.43-18.322-27.296-10.476 26.987-8.923-21.122-19.862 28.436 1.816-11.703-26.22 26.66 12.29-.627-28.61 18.787 20.901 10.728-26.62 9.162 26.32 20.366-20.6-1.873 27.734 26.896-11.414-12.601 24.917 29.322-.613-21.43 18.323zM148.32 171.126l-11.33 8.387 6.684 4.614c13.661-10.482 23.211-20.062 30.763-36.96 1.769 21.22-17.683 68.866-68.73 69.381-64.633-.046-73.69-60.687-71.482-70.276 10.037 18.209 16.161 27.088 31.916 36.668l4.82-4.424-10.671-8.891 13.737-3.672-7.39-12.44 14.391 1.06-1.808-14.486 12.616 7.383 3.948-13.484 9.066 10.86 8.491-10.296 4.624 13.99 11.79-8.203-1.612 14.228 14.133-1.669-6.626 13.163 13.682 4.077z"/>
    </g>
  </g>
</svg>
