<svg xmlns="http://www.w3.org/2000/svg" height="480" width="640">
  <defs>
    <clipPath id="a">
      <path fill-opacity=".67" d="M-64.667 0h682.67v612h-682.67z"/>
    </clipPath>
  </defs>
  <g fill-rule="evenodd" clip-path="url(#a)" transform="translate(61.26) scale(.9376)" stroke-width="1pt">
    <path fill="#002170" d="M-140 0H884v612H-140z"/>
    <path fill="#ffb20d" d="M-140 234.11H884v43.783H-140z"/>
    <path fill="#fff" d="M161.81 437.989l-32.916-32.971-10.604 46.363-12.008-46.016-31.876 33.978 12.107-44.989-44.69 13.498 32.972-32.907-46.366-10.613 46.016-12.008L40.66 320.46l44.989 12.108-13.49-44.691 32.907 32.971 10.614-46.364 12.008 46.016 31.866-33.977-12.098 44.988 44.69-13.498-32.98 32.908 46.363 10.613-46.016 12.009 33.987 31.874-44.989-12.108z"/>
  </g>
</svg>
