<svg xmlns="http://www.w3.org/2000/svg" height="480" width="640">
  <defs>
    <clipPath id="a">
      <path fill-opacity=".67" d="M0 0h496.06v372.06H0z"/>
    </clipPath>
  </defs>
  <g transform="scale(1.2902)" clip-path="url(#a)">
    <path fill-rule="evenodd" fill="#fff" d="M.013 0h499.66v248.1H.013z"/>
    <path d="M.013 0l-.02 18.621 119.21 61.263 44.86 1.3L.012 0z" fill="#c00"/>
    <path d="M61.064 0l144.63 76.491V.001H61.064z" fill="#006"/>
    <path fill="#c00" d="M214.86 0v96.372H.02v66.07h214.84v96.372h66.106v-96.372h214.84v-66.07h-214.84V0H214.86z"/>
    <path d="M300.24 0v71.132L441.63.662 300.24 0z" fill="#006"/>
    <path d="M304.71 78.887l39.76-.32L498.96.661l-40.99.668-163.26 77.668z" fill="#c00"/>
    <path d="M.013 167.6v62.776l99.16-62.22-99.16-.66z" fill="#006"/>
    <path d="M381.86 169.68l-41.336-.321 166.82 77.68-1.026-17.749-113.46-69.61zM38.73 248.26l146.11-76.71-38.38.26L.01 248.14" fill="#c00"/>
    <path d="M497.9 21.796l-118 68.616 116.43.436v87.194h-99.169l98.242 63.23 1.442 27.08-62.474-.627-143.62-70.606v71.132h-104.67v-71.132l-134.72 70.94-60.844.192v247.81h991.69V.43L498.947 0M.637 27.971L.014 79.438l104.39 1.308L.644 27.971z" fill="#006"/>
    <g fill-rule="evenodd" stroke-width="1pt" fill="#ffd900">
      <path d="M496.06 0h496.06v496.06H496.06z"/>
      <path d="M0 248.03h623.49v248.03H0z"/>
    </g>
    <g fill-rule="evenodd">
      <path d="M290.9 126.29c0 23.619-19.148 42.767-42.768 42.767-23.619 0-42.767-19.147-42.767-42.767s19.147-42.767 42.767-42.767c23.62 0 42.767 19.147 42.767 42.767z" fill="#000067"/>
      <path fill="#fff40d" d="M240.189 114.32l8.226-24.692 8.224 24.691 26.686-.018-21.603 16.176 8.266 24.68-21.677-16.211-21.677 16.207 8.27-24.676-21.6-16.182zM388.737 118.346l4.076-11.612 4.076 11.612 13.226-.008-10.707 7.104 4.097 11.608-10.694-7.122-10.693 7.12 4.098-11.606-10.704-7.107zM244.067 203.886l4.076-11.612 4.076 11.612 13.226-.008-10.707 7.104 4.097 11.608-10.694-7.122-10.693 7.12 4.098-11.606-10.704-7.107zM244.067 36.836l4.076-11.612 4.076 11.612 13.226-.008-10.707 7.104 4.097 11.608-10.694-7.122-10.693 7.12 4.098-11.606-10.704-7.107zM98.93 118.346l4.076-11.612 4.076 11.612 13.226-.008-10.706 7.104 4.096 11.608-10.693-7.122-10.694 7.12 4.099-11.606-10.706-7.107z"/>
    </g>
  </g>
</svg>
