<svg xmlns="http://www.w3.org/2000/svg" height="480" width="640">
  <g fill-rule="evenodd" stroke-width="1pt">
    <path fill="#00006a" d="M.004 0h640v480h-640z"/>
    <path d="M0 .002l318.986 304.34h66.432L72.318.146 0 .002z" fill="#fff"/>
    <path d="M360.616 304.324L48.2-.003 23.894.37l313.623 303.96h22.997z" fill="red"/>
    <path d="M384.424.002L66.437 304.342H.006L312.106.146l72.319-.144z" fill="#fff"/>
    <path d="M360.447.003L48.263 304.33l-24.296.012L337.467.003h22.989z" fill="red"/>
    <path fill="#fff" d="M161.466.004h61.606v304.332h-61.606z"/>
    <path fill="#fff" d="M.006 121.736h384.403v60.866H.006z"/>
    <path fill="red" d="M174.916.004h34.697v304.332h-34.697z"/>
    <path fill="red" d="M.006 136.969h384.403v30.433H.006z"/>
    <g>
      <path fill="#fff" d="M620.008 179.327l-19.677-14.469-20.296 13.424 7.642-23.186-18.972-16.267 24.296.139 8.667-22.864 7.384 23.27 24.26 1.134-19.728 14.243z"/>
      <path fill="red" d="M612.167 167.613l-11.68-8.376-11.837 8.007 4.36-13.66-11.237-8.844 14.273-.067 4.893-13.472 4.469 13.62 14.264.616-11.494 8.486z"/>
      <path fill="#fff" d="M444.878 304.046L426.3 289.676 406.004 303l7.643-23.186-18.973-16.267 24.296.139 8.666-22.864 7.386 23.271 24.26 1.133-19.728 14.243z"/>
      <path fill="red" d="M437.026 292.331l-11.68-8.376-11.836 8.007 4.36-13.66-11.238-8.843 14.274-.068 4.892-13.472 4.47 13.62 14.264.616-11.494 8.486z"/>
      <g>
        <path fill="#fff" d="M698.633 291.763l-19.676-14.469-20.297 13.424 7.642-23.186-18.972-16.266 24.296.138 8.667-22.863 7.384 23.27 24.26 1.133-19.727 14.244z"/>
        <path fill="red" d="M690.782 280.04l-11.68-8.376-11.836 8.007 4.36-13.66-11.238-8.843 14.274-.067 4.892-13.472 4.469 13.619 14.264.616-11.494 8.486z"/>
      </g>
      <g>
        <path fill="#fff" d="M618.261 469.17l-19.677-14.468-20.296 13.423 7.642-23.186-18.973-16.267 24.296.138 8.666-22.863 7.386 23.27 24.26 1.134-19.728 14.243z"/>
        <path fill="red" d="M610.41 467.467l-11.681-8.376-11.836 8.007 4.36-13.66-11.238-8.844 14.274-.067 4.893-13.472 4.468 13.62 14.266.616-11.494 8.486z"/>
      </g>
    </g>
  </g>
</svg>
