<svg xmlns="http://www.w3.org/2000/svg" height="480" width="640" version="1">
  <defs>
    <clipPath id="a">
      <path fill-opacity=".67" d="M0 0h640v480H0z"/>
    </clipPath>
  </defs>
  <g clip-path="url(#a)">
    <path fill-rule="evenodd" fill="#ef2d29" d="M-3.299-21.609h702.27v663.02H-3.299z"/>
    <path fill-rule="evenodd" fill="#009026" d="M174.67 317.33h636.76v207.66H174.67z"/>
    <path fill-rule="evenodd" fill="#fff" d="M174.67-36.416h664.88v190.08H174.67z"/>
    <g stroke-width=".983" stroke="#ef2d28">
      <g fill-rule="evenodd" transform="matrix(.19848 0 0 .17744 111.26 -13.444)" fill="#fff">
        <rect rx="11.298" ry="11.861" height="86.039" width="138.19" y="467.72" x="17.717" stroke-width="1.406"/>
        <rect rx="10.719" ry="10.864" height="77.963" width="131.1" y="471.26" x="21.26" stroke-width="1.311"/>
        <path d="M64.966 396.07l9.723.443.442 6.746 7.966 6.303 6.187-6.629 7.613 6.303-7.07 6.746 1.767 7.966 8.838-.442v10.607l-7.07-.442-3.636 6.629 7.966 7.613-6.187 6.187-6.63-6.629-9.722 2.662.442 9.723-10.607.884-1.326-9.281-8.839-4.862-4.861 6.629-7.614-4.861 4.42-7.613-6.304-4.862H34.03l-.442-13.7 7.613.884 6.304-7.966-6.187-6.187 7.966-7.071 6.746 6.746 9.723-1.768 1.326-6.746z" transform="matrix(.68108 0 0 .6862 37.972 260.74)" stroke-width="1.311"/>
        <ellipse transform="matrix(.66819 0 0 .70224 38.846 209.62)" cx="68.944" rx="11.049" cy="426.78" ry="9.944" stroke-width="1.311"/>
        <g stroke-width="1.311">
          <path d="M38.976 474.8l-10.63 10.63M46.063 474.8l-10.63 10.63M63.149 474.8l-10.63 10.63M60.236 474.8l-10.63 10.63M67.322 474.8l-10.63 10.63M74.409 474.8l-10.63 10.63M81.496 474.8l-10.63 10.63M88.682 474.8l-10.63 10.63M96.669 474.8l-10.63 10.63M102.766 474.8l-10.63 10.63M109.842 474.8l-10.63 10.63M116.929 474.8l-10.63 10.63M88.682 474.8l-10.63 10.63M124.016 474.8l-10.63 10.63M131.102 474.8l-10.63 10.63M138.189 474.8l-10.63 10.63M146.276 474.8l-10.63 10.63M134.644 474.8l10.63 10.63M127.664 474.8l10.63 10.63M120.474 474.8l10.63 10.63M113.384 474.8l10.63 10.63M106.304 474.8l10.63 10.63M99.214 474.8l10.63 10.63M92.124 474.8l10.63 10.63M86.044 474.8l10.63 10.63M77.964 474.8l10.63 10.63M70.864 474.8l10.63 10.63M63.784 474.8l10.63 10.63M66.693 474.8l10.63 10.63M86.044 474.8l10.63 10.63M49.607 474.8l10.63 10.63M42.62 474.8l10.63 10.63M36.434 474.8l10.63 10.63M28.347 474.8l10.63 10.63"/>
        </g>
        <g stroke-width="1.311">
          <path d="M38.976 636.036l-10.63 10.63M46.063 636.036l-10.63 10.63M63.149 636.036l-10.63 10.63M60.236 636.036l-10.63 10.63M67.322 636.036l-10.63 10.63M74.409 636.036l-10.63 10.63M81.496 636.036l-10.63 10.63M88.682 636.036l-10.63 10.63M96.669 636.036l-10.63 10.63M102.766 636.036l-10.63 10.63M109.842 636.036l-10.63 10.63M116.929 636.036l-10.63 10.63M88.682 636.036l-10.63 10.63M124.016 636.036l-10.63 10.63M131.102 636.036l-10.63 10.63M138.189 636.036l-10.63 10.63M146.276 636.036l-10.63 10.63M134.644 636.036l10.63 10.63M127.664 636.036l10.63 10.63M120.474 636.036l10.63 10.63M113.384 636.036l10.63 10.63M106.304 636.036l10.63 10.63M99.214 636.036l10.63 10.63M92.124 636.036l10.63 10.63M86.044 636.036l10.63 10.63M77.964 636.036l10.63 10.63M70.864 636.036l10.63 10.63M63.784 636.036l10.63 10.63M66.693 636.036l10.63 10.63M86.044 636.036l10.63 10.63M49.607 636.036l10.63 10.63M42.62 636.036l10.63 10.63M36.434 636.036l10.63 10.63M28.347 636.036l10.63 10.63"/>
        </g>
      </g>
      <g fill-rule="evenodd" fill="#fff" transform="matrix(.19848 0 0 .17744 19.131 -14.073)">
        <rect rx="11.298" ry="11.861" height="86.039" width="138.19" y="467.72" x="17.717" stroke-width="1.406"/>
        <rect rx="10.719" ry="10.864" height="77.963" width="131.1" y="471.26" x="21.26" stroke-width="1.311"/>
        <path d="M64.966 396.07l9.723.443.442 6.746 7.966 6.303 6.187-6.629 7.613 6.303-7.07 6.746 1.767 7.966 8.838-.442v10.607l-7.07-.442-3.636 6.629 7.966 7.613-6.187 6.187-6.63-6.629-9.722 2.662.442 9.723-10.607.884-1.326-9.281-8.839-4.862-4.861 6.629-7.614-4.861 4.42-7.613-6.304-4.862H34.03l-.442-13.7 7.613.884 6.304-7.966-6.187-6.187 7.966-7.071 6.746 6.746 9.723-1.768 1.326-6.746z" transform="matrix(.68108 0 0 .6862 37.972 260.74)" stroke-width="1.311"/>
        <ellipse transform="matrix(.66819 0 0 .70224 38.846 209.62)" cx="68.944" rx="11.049" cy="426.78" ry="9.944" stroke-width="1.311"/>
        <g stroke-width="1.311">
          <path d="M38.976 474.8l-10.63 10.63M46.063 474.8l-10.63 10.63M63.149 474.8l-10.63 10.63M60.236 474.8l-10.63 10.63M67.322 474.8l-10.63 10.63M74.409 474.8l-10.63 10.63M81.496 474.8l-10.63 10.63M88.682 474.8l-10.63 10.63M96.669 474.8l-10.63 10.63M102.766 474.8l-10.63 10.63M109.842 474.8l-10.63 10.63M116.929 474.8l-10.63 10.63M88.682 474.8l-10.63 10.63M124.016 474.8l-10.63 10.63M131.102 474.8l-10.63 10.63M138.189 474.8l-10.63 10.63M146.276 474.8l-10.63 10.63M134.644 474.8l10.63 10.63M127.664 474.8l10.63 10.63M120.474 474.8l10.63 10.63M113.384 474.8l10.63 10.63M106.304 474.8l10.63 10.63M99.214 474.8l10.63 10.63M92.124 474.8l10.63 10.63M86.044 474.8l10.63 10.63M77.964 474.8l10.63 10.63M70.864 474.8l10.63 10.63M63.784 474.8l10.63 10.63M66.693 474.8l10.63 10.63M86.044 474.8l10.63 10.63M49.607 474.8l10.63 10.63M42.62 474.8l10.63 10.63M36.434 474.8l10.63 10.63M28.347 474.8l10.63 10.63"/>
        </g>
        <g stroke-width="1.311">
          <path d="M38.976 636.036l-10.63 10.63M46.063 636.036l-10.63 10.63M63.149 636.036l-10.63 10.63M60.236 636.036l-10.63 10.63M67.322 636.036l-10.63 10.63M74.409 636.036l-10.63 10.63M81.496 636.036l-10.63 10.63M88.682 636.036l-10.63 10.63M96.669 636.036l-10.63 10.63M102.766 636.036l-10.63 10.63M109.842 636.036l-10.63 10.63M116.929 636.036l-10.63 10.63M88.682 636.036l-10.63 10.63M124.016 636.036l-10.63 10.63M131.102 636.036l-10.63 10.63M138.189 636.036l-10.63 10.63M146.276 636.036l-10.63 10.63M134.644 636.036l10.63 10.63M127.664 636.036l10.63 10.63M120.474 636.036l10.63 10.63M113.384 636.036l10.63 10.63M106.304 636.036l10.63 10.63M99.214 636.036l10.63 10.63M92.124 636.036l10.63 10.63M86.044 636.036l10.63 10.63M77.964 636.036l10.63 10.63M70.864 636.036l10.63 10.63M63.784 636.036l10.63 10.63M66.693 636.036l10.63 10.63M86.044 636.036l10.63 10.63M49.607 636.036l10.63 10.63M42.62 636.036l10.63 10.63M36.434 636.036l10.63 10.63M28.347 636.036l10.63 10.63"/>
        </g>
      </g>
      <path d="M638.68 631.6c1.717 166.66 24.803 201.97 3.643 201.97s-31.89-92.07-31.89-206.61 14.173-206.61 36.433-206.61-8.913 31.909-7.086 209.06z" fill-rule="evenodd" transform="matrix(-.32136 -.12684 -.20168 .20221 346.89 61.391)" stroke-width="1.311" fill="#fff"/>
      <path d="M646.67 779.63l-60.236 17.716c66.693 60.236 120.47 86.039 138.19 74.409 17.717-10.629-31.89-36.433-77.963-92.126z" fill-rule="evenodd" stroke-width="1.229" fill="#fff" transform="matrix(-.19848 0 0 .17744 146.247 -13.446)"/>
      <path d="M647.27 786.9l-60.926 14.74c66.693 60.236 112.77 77.386 127.28 70.016 14.691-7.37-30.287-28.063-76.36-84.766z" fill-rule="evenodd" transform="matrix(-.19334 0 0 .17062 142.76 -8.126)" stroke-width="1.27" fill="#fff"/>
      <path d="M363.13 634.23c.187 1.273.748 7.068 1.26 9.376 0 3.186.288 6.632.626 8.126.796 2.177.661 4.198 3.126 6.001 1.694 2.631 2.76 3.313 6 4.376 1.627 1.323 3.84 2.642 6.26 3.76 2.499 1.071 4.771 1.218 7.6.626 2.19-1.626 3.804-3.1 6.626-4.376.429-1.973.822-4.903 1.26-6.876-.674 2.024-1.147 6.266-1.26 8.126.24 3.12 1.266 4.481 2.6 6.876" transform="matrix(-.13978 0 0 .12414 123.027 20.362)" stroke-width="1.761" fill="none"/>
      <path d="M389.38 681.73l.626-.626c-1.484 1.484-.878.776 2.6-1.26 2.426-1.246 6.016-1.908 8.126-2.6h8.76c3.406 0 6.696.611 8.126 1.26 1.762 1.762 4.393 2.763 6.26 4.376 1.906 1.296 2.722 2.829 3.76 6 1.701 1.701 2.803 4.326 4.376 6.626.704 2.871 2.141 2.773 3.126 6-2.948.227-6.311.631-6.876 2.6-2.697 1.344 2.179-1.317 3.126-2.6 2.046-.618 2.676-1.26 6.626-1.26 2.86-.904 4.679.737 7.6 1.26 1.706.987 2.178 1.26 4.376 1.26" transform="matrix(-.13978 0 0 .12414 124.863 19.663)" stroke-width="1.761" fill="none"/>
      <path d="M438.13 724.86c1.273.076 7.083 1.146 9.376 0 2.662-.696 4.068-2.04 6.626-4.376.767-1.689 0 2.998 0 6 .283 3.68 1.366 3.714 3.126 6.26 1.814 1.163 3.726 2.8 6.626 3.76 1.676 1.366 3.613 2.28 6.626 3.126 1.896.898 4.111 1.813 6.626 3.126 2.09 1.493 1.888 3.278 3.126 6.626-.236 3.067-.733 4.79-2.6 6.26-.738 2.113-2.396 4.206-3.76 6.626-1.646 2.87-3.266 4.224.626 6 2.132.914 3.327.197 6.626 0" transform="matrix(-.13978 0 0 .12414 126.96 18.19)" stroke-width="1.761" fill="none"/>
      <path d="M480.63 771.73c1.636-.391 6.983-2.213 9.376-3.126h8.76c3.391.261 4.037 1.266 6.876 2.6 1.832 1.871 3.089 3.162 6.626 4.376 1.341 1.733 3.963 4.677 6 6.876.746 2.133 1.26 6.018 1.26 8.126-.044 3.648-1.002 4.271-1.26 7.6-.701 2.684-1.839 6.143-3.76 7.6-.266.793-.467.986-1.26 1.26" transform="matrix(-.13978 0 0 .12414 127.396 17.802)" stroke-width="1.761" fill="none"/>
      <path d="M638.13 817.98c.374 0 1.201 2.018 2.6 3.76 2.828 2.906 3.192 3.126 7.6 3.126 3.884-.143 3.622-1.632 6.26-2.6 1.289-2.008 2.896-3.6 4.376-6.26 1.006-1.634 1.89-4.129 3.126-6.626 1.141-1.864 2.663-3.264 3.76-6 1.172-.602 1.618-.984 3.126-1.26-3.6.678-3.916 1.867-6.261 3.76-1.094 1.779-2.181 3.633-3.126 6.626-.361 2.673-1.21 4.779-1.26 8.126 0 3.467.017 6.872 1.26 8.76 1.473 1.646 2.663 3.143 4.376 4.376 1.439 1.406 3.244 3.336 4.376 6 1.96 1.206 3.386 2.189 6.626 3.76 1.884 1.102 3.916 2.234 6.876 2.6 3.67-.262 4.766-1.297 7.6-2.6 2.329-1.713 4.163-2.838 6.26-4.376 1.629-1.141 3.288-3.403 4.376-6 3.382-.846 6.629-.608 7.6 1.26a16.636 16.636 0 0 1 4.376 4.376c1.02.61 2.73 1.99 3.76 2.6" transform="matrix(-.09924 0 0 .09799 109.467 38.807)" stroke-width="2.339" fill="none"/>
      <path d="M603.76 836.11c-.802.334-3.717 2.367-6 3.126-.8 2.631-2.077 4.069-2.6 6.876-.677 2.709-.626 6.692-.626 8.76.686 3.194 2.016 6.667 3.126 8.126 1.974 1.342 2.967 2.33 6.626 3.76 2.494.337 4.94.626 8.126.626 1.904.636 6.616.942 7.6 0 2.783-.376 4.864-1.607 6.876-2.6 2.306-1.307 3.728-2.642 6.26-3.76 1.226-1.801 3.13-3.46 6-6.626 1.666-2.106 2.7-3.286 3.76-6.626-.924 2.669-2.327 4.999-3.126 7.6-1.422 2.661-2.248 3.604-2.6 6.876-.871 2.613-.626 6.76-.626 8.76.274 2.031.418 6.837 1.26 7.6v1.876" transform="matrix(-.12338 0 0 .12229 111.376 19.248)" stroke-width="1.878" fill="none"/>
      <path d="M641.26 799.23v.626c0-1.687.041-.83-.626 2.6-1.179 1.462-3.944 1.868-6.26 1.26-2.022-1.67-1.96-2.936-6.626-3.76-3.642.263-4.892 1.279-6.876 2.6-2.364 1.177-3.438 1.771-6 4.376-.776 2.12-1.209 3.666 1.26 4.376 1.964 1.386 4.277 2.149 6.876 2.6 2.887 0 4.968-.339 6.26 1.26 1.983 2.066 1.876 3.277 1.876 6.876.667 1.112.799 4.394 1.26 6.626 1.736.823 2.766 1.26 6.626 1.26.674-1.931 1.423-6.419 1.876-7.6.489-2.248.64-6.379 1.876-6.876a16.68 16.68 0 0 1 4.376-4.376c.766-1.073 2.223-1.966 3.76-2.6-2.462 1.261-2.801 2.603-3.126 6.626 2.166 1.078 2.731 1.833 6.26 1.876 3.469-.291 4.296-1.169 6.626-3.126.242 3.136 1.243 4.186 1.876 6.876 1.286 1.891 1.832 3.828 3.126 6.26-.661 3.012-1.737 3.163-1.876 6.876-.811 2.436-.723 4.783-2.6 6.261-.792.968-1.384 1.168-3.126 1.26 3.618 0 6.727-.391 8.126-1.876 1.864-1.141 3.266-2.663 6.001-3.76 2.212-1.603 4.947-3.086 7.6-3.761 2.887 0 4.968-.339 6.26 1.26 1.77 1.266 2.969 3.447 3.76 6.261.679 3.244.8 6.404-.626 7.6-1.067 2.408-1.297 3.346 0 6.26 1.462 2.033 3.617 2.272 6.876 3.126 2.379-.128 4.668-.671 6.26-1.26" stroke-width="1.229" fill="none" transform="matrix(-.19848 0 0 .17744 146.247 -13.446)"/>
      <g fill-rule="evenodd" stroke-width="1.311" transform="matrix(-.19848 0 0 .17744 146.247 -13.446)">
        <path d="M631.6 369.64c0-166.27 7.937-299.41 17.717-299.41 9.779 0 17.716 134.13 17.716 299.41H631.6z" transform="matrix(1.4216 -.73423 .46161 .89376 -716.84 641.07)" fill="#fff"/>
        <path d="M631.6 369.64c0-166.27 7.937-299.41 17.717-299.41 9.779 0 17.716 134.13 17.716 299.41" transform="matrix(1.1373 -.68739 .44632 .86221 -664.83 471.77)" fill="#fff"/>
        <path d="M663.39 301.18c.189 18.908 0 40.188 0 60.236h-28.347c0-20.048-.189-41.328 0-60.236h28.347z" transform="matrix(1.4216 -.73423 .46889 .88849 -716.67 641.39)" fill="#fff"/>
        <path d="M669.84 304.72c.189 18.908 0 33.102 0 63.16h-21.26c0-20.048-.189-34.242 0-63.16h21.26z" transform="matrix(1.4216 -.73423 .46889 .88849 -716.67 641.39)" fill="#fff"/>
        <path transform="matrix(1.4216 -.73423 .46889 .88849 -716.67 641.39)" fill="#fff" d="M642.13 311.81h14.173v38.976H642.13zM642.13 311.81l14.173 38.976M642.13 360.79l14.173-38.976M642.13 113.39h14.173"/>
        <ellipse fill="#ef0000" transform="matrix(1.6046 .46376 -.36216 1.6787 -734.9 -170.86)" cx="646.67" rx="3.643" cy="92.126" ry="3.643"/>
      </g>
      <g>
        <path d="M638.68 631.6c1.717 166.66 24.803 201.97 3.643 201.97s-31.89-92.07-31.89-206.61 14.173-206.61 36.433-206.61-8.913 31.909-7.086 209.06z" fill-rule="evenodd" transform="matrix(.32136 -.12684 .20168 .20221 -181.612 60.764)" stroke-width="1.311" fill="#fff"/>
        <path d="M646.67 779.63l-60.236 17.716c66.693 60.236 120.47 86.039 138.19 74.409 17.717-10.629-31.89-36.433-77.963-92.126z" fill-rule="evenodd" stroke-width="1.229" fill="#fff" transform="matrix(.19848 0 0 .17744 19.131 -14.073)"/>
        <path d="M647.27 786.9l-60.926 14.74c66.693 60.236 112.77 77.386 127.28 70.016 14.691-7.37-30.287-28.063-76.36-84.766z" fill-rule="evenodd" transform="matrix(.19334 0 0 .17062 21.629 -8.764)" stroke-width="1.27" fill="#fff"/>
        <path d="M363.13 634.23c.187 1.273.748 7.068 1.26 9.376 0 3.186.288 6.632.626 8.126.796 2.177.661 4.198 3.126 6.001 1.694 2.631 2.76 3.313 6 4.376 1.627 1.323 3.84 2.642 6.26 3.76 2.499 1.071 4.771 1.218 7.6.626 2.19-1.626 3.804-3.1 6.626-4.376.429-1.973.822-4.903 1.26-6.876-.674 2.024-1.147 6.266-1.26 8.126.24 3.12 1.266 4.481 2.6 6.876" transform="matrix(.13978 0 0 .12414 41.36 19.736)" stroke-width="1.761" fill="none"/>
        <path d="M389.38 681.73l.626-.626c-1.484 1.484-.878.776 2.6-1.26 2.426-1.246 6.016-1.908 8.126-2.6h8.76c3.406 0 6.696.611 8.126 1.26 1.762 1.762 4.393 2.763 6.26 4.376 1.906 1.296 2.722 2.829 3.76 6 1.701 1.701 2.803 4.326 4.376 6.626.704 2.871 2.141 2.773 3.126 6-2.948.227-6.311.631-6.876 2.6-2.697 1.344 2.179-1.317 3.126-2.6 2.046-.618 2.676-1.26 6.626-1.26 2.86-.904 4.679.737 7.6 1.26 1.706.987 2.178 1.26 4.376 1.26" transform="matrix(.13978 0 0 .12414 39.616 19.036)" stroke-width="1.761" fill="none"/>
        <path d="M438.13 724.86c1.273.076 7.083 1.146 9.376 0 2.662-.696 4.068-2.04 6.626-4.376.767-1.689 0 2.998 0 6 .283 3.68 1.366 3.714 3.126 6.26 1.814 1.163 3.726 2.8 6.626 3.76 1.676 1.366 3.613 2.28 6.626 3.126 1.896.898 4.111 1.813 6.626 3.126 2.09 1.493 1.888 3.278 3.126 6.626-.236 3.067-.733 4.79-2.6 6.26-.738 2.113-2.396 4.206-3.76 6.626-1.646 2.87-3.266 4.224.626 6 2.132.914 3.327.197 6.626 0" transform="matrix(.13978 0 0 .12414 37.419 17.663)" stroke-width="1.761" fill="none"/>
        <path d="M480.63 771.73c1.636-.391 6.983-2.213 9.376-3.126h8.76c3.391.261 4.037 1.266 6.876 2.6 1.832 1.871 3.089 3.162 6.626 4.376 1.341 1.733 3.963 4.677 6 6.876.746 2.133 1.26 6.018 1.26 8.126-.044 3.648-1.002 4.271-1.26 7.6-.701 2.684-1.839 6.143-3.76 7.6-.266.793-.467.986-1.26 1.26" transform="matrix(.13978 0 0 .12414 36.982 17.174)" stroke-width="1.761" fill="none"/>
        <path d="M638.13 817.98c.374 0 1.201 2.018 2.6 3.76 2.828 2.906 3.192 3.126 7.6 3.126 3.884-.143 3.622-1.632 6.26-2.6 1.289-2.008 2.896-3.6 4.376-6.26 1.006-1.634 1.89-4.129 3.126-6.626 1.141-1.864 2.663-3.264 3.76-6 1.172-.602 1.618-.984 3.126-1.26-3.6.678-3.916 1.867-6.261 3.76-1.094 1.779-2.181 3.633-3.126 6.626-.361 2.673-1.21 4.779-1.26 8.126 0 3.467.017 6.872 1.26 8.76 1.473 1.646 2.663 3.143 4.376 4.376 1.439 1.406 3.244 3.336 4.376 6 1.96 1.206 3.386 2.189 6.626 3.76 1.884 1.102 3.916 2.234 6.876 2.6 3.67-.262 4.766-1.297 7.6-2.6 2.329-1.713 4.163-2.838 6.26-4.376 1.629-1.141 3.288-3.403 4.376-6 3.382-.846 6.629-.608 7.6 1.26a16.636 16.636 0 0 1 4.376 4.376c1.02.61 2.73 1.99 3.76 2.6" transform="matrix(.09924 0 0 .09799 64.92 38.18)" stroke-width="2.339" fill="none"/>
        <path d="M603.76 836.11c-.802.334-3.717 2.367-6 3.126-.8 2.631-2.077 4.069-2.6 6.876-.677 2.709-.626 6.692-.626 8.76.686 3.194 2.016 6.667 3.126 8.126 1.974 1.342 2.967 2.33 6.626 3.76 2.494.337 4.94.626 8.126.626 1.904.636 6.616.942 7.6 0 2.783-.376 4.864-1.607 6.876-2.6 2.306-1.307 3.728-2.642 6.26-3.76 1.226-1.801 3.13-3.46 6-6.626 1.666-2.106 2.7-3.286 3.76-6.626-.924 2.669-2.327 4.999-3.126 7.6-1.422 2.661-2.248 3.604-2.6 6.876-.871 2.613-.626 6.76-.626 8.76.274 2.031.418 6.837 1.26 7.6v1.876" transform="matrix(.12338 0 0 .12229 63.004 18.62)" stroke-width="1.878" fill="none"/>
        <path d="M641.26 799.23v.626c0-1.687.041-.83-.626 2.6-1.179 1.462-3.944 1.868-6.26 1.26-2.022-1.67-1.96-2.936-6.626-3.76-3.642.263-4.892 1.279-6.876 2.6-2.364 1.177-3.438 1.771-6 4.376-.776 2.12-1.209 3.666 1.26 4.376 1.964 1.386 4.277 2.149 6.876 2.6 2.887 0 4.968-.339 6.26 1.26 1.983 2.066 1.876 3.277 1.876 6.876.667 1.112.799 4.394 1.26 6.626 1.736.823 2.766 1.26 6.626 1.26.674-1.931 1.423-6.419 1.876-7.6.489-2.248.64-6.379 1.876-6.876a16.68 16.68 0 0 1 4.376-4.376c.766-1.073 2.223-1.966 3.76-2.6-2.462 1.261-2.801 2.603-3.126 6.626 2.166 1.078 2.731 1.833 6.26 1.876 3.469-.291 4.296-1.169 6.626-3.126.242 3.136 1.243 4.186 1.876 6.876 1.286 1.891 1.832 3.828 3.126 6.26-.661 3.012-1.737 3.163-1.876 6.876-.811 2.436-.723 4.783-2.6 6.261-.792.968-1.384 1.168-3.126 1.26 3.618 0 6.727-.391 8.126-1.876 1.864-1.141 3.266-2.663 6.001-3.76 2.212-1.603 4.947-3.086 7.6-3.761 2.887 0 4.968-.339 6.26 1.26 1.77 1.266 2.969 3.447 3.76 6.261.679 3.244.8 6.404-.626 7.6-1.067 2.408-1.297 3.346 0 6.26 1.462 2.033 3.617 2.272 6.876 3.126 2.379-.128 4.668-.671 6.26-1.26" stroke-width="1.229" fill="none" transform="matrix(.19848 0 0 .17744 19.131 -14.073)"/>
      </g>
      <g stroke-width="1.311" fill-rule="evenodd" transform="matrix(.19848 0 0 .17744 19.131 -14.073)">
        <path d="M631.6 369.64c0-166.27 7.937-299.41 17.717-299.41 9.779 0 17.716 134.13 17.716 299.41H631.6z" transform="matrix(1.4216 -.73423 .46161 .89376 -716.84 641.07)" fill="#fff"/>
        <path d="M631.6 369.64c0-166.27 7.937-299.41 17.717-299.41 9.779 0 17.716 134.13 17.716 299.41" transform="matrix(1.1373 -.68739 .44632 .86221 -664.83 471.77)" fill="#fff"/>
        <path d="M663.39 301.18c.189 18.908 0 40.188 0 60.236h-28.347c0-20.048-.189-41.328 0-60.236h28.347z" transform="matrix(1.4216 -.73423 .46889 .88849 -716.67 641.39)" fill="#fff"/>
        <path d="M669.84 304.72c.189 18.908 0 33.102 0 63.16h-21.26c0-20.048-.189-34.242 0-63.16h21.26z" transform="matrix(1.4216 -.73423 .46889 .88849 -716.67 641.39)" fill="#fff"/>
        <path transform="matrix(1.4216 -.73423 .46889 .88849 -716.67 641.39)" fill="#fff" d="M642.13 311.81h14.173v38.976H642.13zM642.13 311.81l14.173 38.976M642.13 360.79l14.173-38.976M642.13 113.39h14.173"/>
        <ellipse fill="#ef0000" transform="matrix(1.6046 .46376 -.36216 1.6787 -734.9 -170.86)" cx="646.67" rx="3.643" cy="92.126" ry="3.643"/>
      </g>
      <g fill-rule="evenodd" fill="#fff" transform="matrix(.19848 0 0 .17744 19.131 -14.073)">
        <path d="M306.61 396.86c0 124.02.491 170.76-6.62 177.17-6.79 6.867-167.12 0-167.12 36.433s132.87 70.867 172.74 70.866c63.149 0 79.723-36.433 79.723-106.3v-177.17H306.61z" transform="matrix(1.3333 0 0 1 -141.74 0)" stroke-width="1.311"/>
        <path d="M266.76 396.86v17.717c36.433 6.906 70.866 6.906 106.3 0V396.86c-36.433 6.906-70.866 6.906-106.3 0z" transform="matrix(1 0 0 .99999 0 36.437)" stroke-width="1.311"/>
        <path d="M266.76 396.86v17.717c36.433 6.906 70.866 6.906 106.3 0V396.86c-36.433 6.906-70.866 6.906-106.3 0z" transform="matrix(1 0 0 .99999 0 .004)" stroke-width="1.311"/>
        <path d="M266.76 396.86v17.717c36.433 6.906 70.866 6.906 106.3 0V396.86c-36.433 6.906-70.866 6.906-106.3 0z" transform="matrix(1 0 0 .99999 0 17.721)" stroke-width="1.311"/>
        <path d="M266.76 396.86v17.717c36.433 6.906 70.866 6.906 106.3 0V396.86c-36.433 6.906-70.866 6.906-106.3 0z" transform="matrix(1 0 0 .99999 0 63.164)" stroke-width="1.311"/>
        <ellipse transform="matrix(.64646 0 0 .14383 130.46 394.32)" cx="266.89" rx="8.868" cy="210.83" ry="26.676" stroke-width="4.388"/>
        <ellipse transform="matrix(.64646 0 0 .14383 130.46 391.13)" cx="292.32" rx="8.868" cy="246.26" ry="26.676" stroke-width="4.388"/>
        <ellipse transform="matrix(.64646 0 0 .14383 130.46 390.49)" cx="327.76" rx="8.868" cy="263.98" ry="26.676" stroke-width="4.388"/>
        <ellipse transform="matrix(.64646 0 0 .14383 130.46 390.49)" cx="363.19" rx="8.868" cy="263.98" ry="26.676" stroke-width="4.388"/>
        <ellipse transform="matrix(.64646 0 0 .14383 130.46 391.13)" cx="398.62" rx="8.868" cy="246.26" ry="26.676" stroke-width="4.388"/>
        <ellipse transform="matrix(.64646 0 0 .14383 130.46 394.32)" cx="434.06" rx="8.868" cy="210.83" ry="26.676" stroke-width="4.388"/>
        <path d="M266.76 486.43l106.3 96.669M276.38 486.43l96.669 86.039M290.66 488.98l81.496 70.866M301.18 488.98l70.866 60.237M311.81 488.98l60.236 49.607M322.44 488.98l49.606 38.977M333.07 488.98l38.976 28.347M343.7 488.98l28.346 21.26M364.33 488.98l17.716 14.174M364.96 488.98l7.086 7.087M266.76 496.06l106.3 96.669M372.06 486.43l-116.93 106.3M361.42 486.43l-102.76 92.126M347.26 488.98l-81.496 70.866M336.62 488.98l-70.866 60.237M326.99 488.98l-60.236 49.607M316.36 488.98l-49.606 38.977M304.73 488.98l-38.976 28.347M294.1 488.98l-28.346 21.26M283.47 488.98l-17.716 14.174M272.84 488.98l-7.086 7.087M372.06 496.06l-116.93 106.3M372.06 606.69l-116.93 106.3M372.06 617.32l-116.93 106.3M372.06 627.96l-116.93 106.3M372.06 638.68l-116.93 106.3M372.06 649.21l-116.93 106.3M372.06 669.84l-116.93 106.3M372.06 670.47l-116.93 106.3M372.06 681.1l-109.84 99.21M372.06 691.73l-99.212 88.683M368.6 606.9l-77.963 70.866M364.96 620.08l-63.779 66.693M367.87 637.79l-31.89 28.346M266.76 606.69l102.76 92.126M266.747 617.327l102.76 92.126M266.747 627.967l99.213 88.683M266.747 638.687l99.213 88.683M266.763 649.213l96.67 86.039M262.204 666.303l96.669 86.04M262.204 666.933l88.683 77.963M268.663 674.013l88.683 77.963M266.114 681.103l86.04 74.409M266.113 691.73l81.496 70.866M266.113 602.36l70.866 63.779" stroke-width="1.311"/>
        <path d="M266.76 396.86v17.717c36.433 6.906 70.866 6.906 106.3 0V396.86c-36.433 6.906-70.866 6.906-106.3 0z" transform="matrix(1 0 0 .99999 0 70.87)" stroke-width="1.311"/>
        <path d="M266.114 612.99l63.78 66.692M266.114 623.62l66.693 49.606M266.113 634.26l49.606 42.619M266.114 644.88l36.434 31.889M266.114 666.61l28.347 24.804M266.113 666.14l17.716 14.173" stroke-width="1.311"/>
        <ellipse transform="matrix(.64646 0 0 .14383 130.46 447.47)" cx="266.89" rx="8.868" cy="210.83" ry="26.676" stroke-width="4.388"/>
        <ellipse transform="matrix(.64646 0 0 .14383 130.46 444.28)" cx="292.32" rx="8.868" cy="246.26" ry="26.676" stroke-width="4.388"/>
        <ellipse transform="matrix(.64646 0 0 .14383 130.46 443.64)" cx="327.76" rx="8.868" cy="263.98" ry="26.676" stroke-width="4.388"/>
        <ellipse transform="matrix(.64646 0 0 .14383 130.46 443.64)" cx="363.19" rx="8.868" cy="263.98" ry="26.676" stroke-width="4.388"/>
        <ellipse transform="matrix(.64646 0 0 .14383 130.46 444.28)" cx="398.62" rx="8.868" cy="246.26" ry="26.676" stroke-width="4.388"/>
        <ellipse transform="matrix(.64646 0 0 .14383 130.46 447.47)" cx="434.06" rx="8.868" cy="210.83" ry="26.676" stroke-width="4.388"/>
        <path d="M113.39 661.97l127.66-74.41M106.303 648.427l120.47-70.87M102.76 641.341l109.84-63.78M99.217 634.264l96.669-66.693M92.127 627.16l88.683-49.606M96.667 616.637l60.236-36.433M92.127 609.464l46.063-28.346M92.124 698.817l31.89-17.717M124.013 666.607l120.47-70.86M134.647 669.064l113.38-67.32M146.28 662.6l106.3-63.78M166.91 666.144l88.683-63.16M170.083 666.136l77.962-46.063M180.713 669.68l67.323-38.976M191.336 673.227l63.16-31.89M206.61 673.233l42.62-24.803M219.68 676.777l28.347-17.717M233.863 676.773l17.717-10.63" stroke-width="1.311"/>
        <path d="M266.76 396.86v17.717c36.433 6.906 70.866 6.906 106.3 0V396.86c-36.433 6.906-70.866 6.906-106.3 0z" transform="matrix(0 1 -.99999 0 666.61 308.27)" stroke-width="1.311"/>
        <path d="M49.61 623.624l42.62-36.433M49.61 698.8l42.62 42.62" stroke-width="1.311"/>
        <path d="M260.16 387.99l6.696 26.676c36.433 6.906 66.271 6.906 100.7 0l11.19-26.676c-36.433 6.906-82.066 6.906-117.49 0z" transform="matrix(0 .63333 -.8 0 423.78 416.34)" stroke-width="1.311"/>
        <path d="M268.66 360.79v-17.866c-10.63.149-17.716-10.481-17.717-21.26l-36.432.149c0 10.63-7.087 21.26-17.717 21.26v17.716h70.866z" transform="matrix(1.4983 0 0 1 -16.633 63.149)" stroke-width="1.311"/>
        <path stroke-width="1.366" d="M296.09 343.7h46.606v21.26H296.09zM299.88 322.44h37.922v21.26H299.88zM299.88 301.18h37.922v21.26H299.88zM303.67 272.83h30.337v28.346H303.67z"/>
        <path stroke-width="1.413" d="M302.36 248.03h32.963v24.803H302.36z"/>
        <ellipse transform="matrix(1.0333 0 0 1 76.364 63.779)" cx="237.4" rx="42.62" cy="161.22" ry="33.661" stroke-width="1.311"/>
        <path d="M268.66 169.46c0 9.291 10.63 24.803 10.63 24.803-7.696 6.093-20.164 10.63-31.889 10.63s-26.349-2.628-31.89-10.63c0 0 10.63-16.612 10.63-24.803s-10.63-21.26-10.63-21.26c7.696-6.093 20.164-10.63 31.89-10.63 11.736 0 24.193 4.637 31.889 10.63 0 0-10.63 11.969-10.63 21.26z" transform="matrix(1.0333 0 0 1 76.364 63.779)" stroke-width="1.311"/>
        <path d="M261.68 169.46c0 9.291 10.63 28.346 10.63 28.346-7.696 6.093-13.068 7.087-24.803 7.087s-19.262 1.016-24.803-7.087c0 0 10.63-19.066 10.63-28.346s-10.63-24.803-10.63-24.803c7.696-6.093 13.067-7.087 24.803-7.087 11.736 0 17.107.994 24.803 7.087 0 0-10.63 16.612-10.63 24.803z" transform="matrix(1.0333 0 0 1 76.364 63.779)" stroke-width="1.311"/>
        <ellipse transform="matrix(1.0333 0 0 1 76.364 60.236)" cx="194.88" rx="10.63" cy="166.64" ry="10.63" stroke-width="1.311"/>
        <ellipse transform="matrix(1.0333 0 0 1 163.23 60.236)" cx="194.88" rx="10.63" cy="166.64" ry="10.63" stroke-width="1.311"/>
        <ellipse transform="matrix(1.0333 0 0 1 119.29 60.236)" cx="194.88" rx="10.63" cy="166.64" ry="10.63" stroke-width="1.311"/>
        <ellipse transform="matrix(1.0333 0 0 1 119.29 24.803)" cx="194.88" rx="10.63" cy="166.64" ry="10.63" stroke-width="1.311"/>
        <ellipse transform="matrix(1.0702 0 0 1 79.931 226.77)" cx="194.88" rx="10.63" cy="166.64" ry="10.63" stroke-width="1.311"/>
        <ellipse transform="matrix(1.0702 0 0 1 140.61 226.77)" cx="194.88" rx="10.63" cy="166.64" ry="10.63" stroke-width="1.311"/>
        <path d="M212.6 311.81h49.607l-24.803 31.89-24.804-31.89z" transform="matrix(1.0702 0 0 1 64.762 63.149)" stroke-width="1.311"/>
        <ellipse transform="matrix(1.427 0 0 1.3333 40.746 167.72)" cx="194.88" rx="10.63" cy="166.64" ry="10.63" stroke-width="1.311"/>
      </g>
      <g fill-rule="evenodd" transform="matrix(.19848 0 0 .17744 18.78 -19.096)" fill="#fff">
        <rect rx="4.349" ry="3.687" height="21.26" width="81.496" y="624.41" x="262.2" stroke-width="1.229"/>
        <path d="M368.61 606.69c-9.814 0-17.716 8.269-17.716 18.619v16.111c0 10.26 7.902 18.62 17.716 18.62 9.816 0 17.717-8.26 17.717-18.62v-16.111c0-10.26-7.902-18.619-17.717-18.619zm0 7.087c-6.888 0-10.63 6.608-10.63 14.816v9.346c0 8.208 4.742 14.816 10.63 14.816 6.889 0 10.63-6.608 10.63-14.816v-9.346c0-8.208-4.741-14.816-10.63-14.816zM276.38 610.24c-6.888 0-10.63 6.608-10.63 14.816v16.432c0 8.208 4.742 14.816 10.63 14.816 6.889 0 10.63-6.608 10.63-14.816v-16.432c0-8.208-4.741-14.816-10.63-14.816zm0-7.087c-9.814 0-17.716 8.269-17.716 18.619v23.198c0 10.26 7.902 18.62 17.716 18.62 9.816 0 17.717-8.26 17.717-18.62v-23.198c0-10.26-7.902-18.619-17.717-18.619z" stroke-width="1.229"/>
        <path d="M248.03 617.32c-6.888 0-10.63 6.608-10.63 14.816l-.001 3.864c0 8.208 4.742 14.816 10.63 14.816 6.889 0 10.63-6.608 10.63-14.816l.001-3.864c0-8.208-4.741-14.816-10.63-14.816zm0-7.087c-9.814 0-17.716 8.269-17.716 18.619l-.001 10.63c0 10.26 7.902 18.62 17.716 18.62 9.816 0 17.717-8.26 17.717-18.62l.001-10.63c0-10.26-7.902-18.619-17.717-18.619z" stroke-width="1.229"/>
        <path d="M478.36 237.4c-6.888 0-10.63 6.608-10.63 14.816v16.432c0 8.208 4.742 14.816 10.63 14.816 6.889 0 10.63-6.608 10.63-14.816v-16.432c0-8.208-4.741-14.816-10.63-14.816zm0-7.087c-9.814 0-17.716 8.269-17.716 18.619v23.198c0 10.26 7.902 18.62 17.716 18.62 9.816 0 17.717-8.26 17.717-18.62v-23.198c0-10.26-7.902-18.619-17.717-18.619z" transform="matrix(1.8 0 0 1.1176 -666.61 242.2)" stroke-width=".867"/>
        <path d="M478.36 237.4c-6.888 0-10.63 6.608-10.63 14.816v16.432c0 8.208 4.742 14.816 10.63 14.816 6.889 0 10.63-6.608 10.63-14.816v-16.432c0-8.208-4.741-14.816-10.63-14.816zm0-7.087c-9.814 0-17.716 8.269-17.716 18.619v23.198c0 10.26 7.902 18.62 17.716 18.62 9.816 0 17.717-8.26 17.717-18.62v-23.198c0-10.26-7.902-18.619-17.717-18.619z" transform="matrix(1.8 0 0 1.1176 -426.2 246.74)" stroke-width=".867"/>
        <rect rx="2.269" ry="3.687" height="21.26" width="42.62" y="624.41" x="376.69" stroke-width="1.229"/>
        <rect rx="1.324" ry="4.916" height="28.346" width="24.803" y="620.87" x="336.61" stroke-width="1.229"/>
        <rect rx="1.324" ry="4.916" height="28.346" width="24.803" y="620.87" x="219.69" stroke-width="1.229"/>
        <rect rx="2.647" ry="6.146" height="36.433" width="49.606" y="617.32" x="141.73" stroke-width="1.229"/>
        <rect rx="2.468" ry="6.146" height="36.433" width="46.063" y="620.87" x="460" stroke-width="1.229"/>
      </g>
    </g>
  </g>
</svg>
