<svg xmlns="http://www.w3.org/2000/svg" height="480" width="640">
  <defs>
    <clipPath id="a">
      <path fill-opacity=".67" d="M0 0h640v480H0z"/>
    </clipPath>
  </defs>
  <g clip-path="url(#a)">
    <path fill="#fff" d="M0 0h640v480H0z"/>
    <path fill="#fff" d="M80 0h480v480H80z"/>
    <path d="M277.28 340.76s10.839-8.788 21.386-8.788 13.477 7.323 20.801 7.909c7.324.686 13.476-7.324 22.668-7.617 9.082-.292 20.608 6.446 20.608 6.446l-39.843 12.013-46.41-9.962zM264.43 327.86l136.36.686s-11.718-12.697-26.488-12.89c-13.769-.296-9.96 6.86-20.607 6.737-10.646.88-13.186-6.444-22.862-6.162-9.666.292-16.234 6.162-22.667 6.446-7.324.292-16.699-7.326-22.266-7.03-6.667.292-26.488 8.787-26.488 8.787l3.809 3.616zM237.16 311.76l166.99.687c2.636-3.808-8.204-12.89-18.163-13.77-8.206.293-14.062 8.496-20.801 8.79-6.739.292-14.366-8.497-21.973-8.202-7.616.292-16.626 8.202-23.144 8.202-7.616 0-13.183-8.497-22.86-8.497-9.668 0-14.062 9.376-21.386 8.79-7.326-.687-13.77-9.376-20.801-9.376-7.03 0-18.76 10.646-21.093 9.96-2.344-.686 2.928 4.396 3.223 3.616z" fill-rule="evenodd" stroke="#083d9c" stroke-width="2pt" fill="#083d9c"/>
    <path stroke-linejoin="round" d="M301.3 218.88l38.38 10.266v-64.786c-17.679.88-32.226-33.397-1.172-36.741-30.468-4.396-33.986 3.616-37.6 12.011l.292 68.261z" fill-rule="evenodd" stroke="#000" stroke-width="2.6" fill="red"/>
    <path d="M276.99 268.72l86.718.292" fill-rule="evenodd" stroke="#083d9c" stroke-linecap="round" stroke-width="6" fill="#083d9c"/>
    <g stroke="#000" stroke-linecap="round" stroke-width="2.133" fill="none">
      <path d="M281.094 237.919l10.264 13.77M281.094 261.7l11.134-13.476M286.962 237.037l-.292 8.496" stroke-width="3.999376"/>
    </g>
    <g stroke="#000" stroke-linecap="round" stroke-width="2.133" fill="none">
      <path d="M297.6 237.919l10.264 13.77M297.6 261.7l11.134-13.476M303.368 237.037l-.292 8.496" stroke-width="3.999376"/>
    </g>
    <g stroke="#000" stroke-linecap="round" stroke-width="2.133" fill="none">
      <path d="M314.198 237.919l10.266 13.77M314.198 261.7l11.134-13.476M320.067 237.037l-.292 8.496" stroke-width="3.999376"/>
    </g>
    <g stroke="#000" stroke-linecap="round" stroke-width="2.133" fill="none">
      <path d="M331.484 237.919l10.264 13.77M331.484 261.7l11.134-13.476M337.362 237.037l-.292 8.496" stroke-width="3.999376"/>
    </g>
    <g stroke="#000" stroke-linecap="round" stroke-width="2.133" fill="none">
      <path d="M348.183 237.919l10.264 13.77M348.183 261.7l11.134-13.476M364.061 237.037l-.292 8.496" stroke-width="3.999376"/>
    </g>
    <path d="M218.69 269.6l36.913.293V236.76l-42.187-2.06 6.274 24.902zM216.93 227.67l39.268 3.809-.292-16.406-38.38-16.234-.687 27.832zM224.84 194.86l30.176 14.648 4.309-4.498s-2.776-1.912-2.638-3.672c.062-1.78 2.792-2.06 2.844-3.98.06-1.78-3.103-1.994-3.137-3.774-.206-1.93 2.43-3.998 2.43-3.998l-27.246-23.73-6.739 29.004zM422.88 269.89h-38.964l-.292-22.668 42.772-3.223-3.616 26.78zM384.21 232.06l46.29-6.666-9.962-26.66-36.62 16.626.292 16.698zM417.9 192.61l-33.398 17.678c-.488-1.906-.902-3.737-3.221-6.274 0 0 2.06-1.172 2.06-3.224 0-2.049-2.638-2.343-2.638-3.616s2.417-2.196 2.664-4.833c-.293-1.831-2.664-4.393-2.124-4.907l26.928-19.86L417.9 192.61zM346.64 231.62l16.698-.732.292-6.74-16.99 7.472zM294.67 231.11l-17.678-.612v-7.032l17.678 7.644zM294.49 229.06l-17.606-9.01v-11.718s-2.061.293-1.768-2.06c.097-4.884 12.866 8.91 19.409 13.402l-.146 9.376zM346.64 227.96l-.072-7.616s16.818-14.281 19.187-16.92c0 2.93-1.83 6.2-1.83 6.2v11.133l-17.286 8.202zM243 163.8c.292.293 17.76 19.696 17.76 19.696.49-1.839 4.616-2.118 8.616-1.826 4.102.292 7.372-.276 7.372 2.666 0 2.93-2.081 2.613-2.081 4.666s3.118 1.879 3.118 4.613c0 2.636-2.261 2.098-2.273 4.14-.007 1.688 2.36 1.778 2.36 1.778l16.626 16.114.073-17.213-34.276-63.768L243 163.8zM270.43 143.46c.26.782 23.216 47.477 23.216 47.477s.26-43.826 4.173-46.173l-6.62-12-20.87 10.696zM371.38 146.27l-26.923 46.246.034-19.491s2.16-3.277-1.242-3.016c-3.39.26-7.664-.261-7.664-.261l10.434-36.621 24.26 13.044zM397.99 166.1c-.261.622-17.488 18.04-17.488 18.04-.782-2.086-6.99-1.086-10.947-1.086-4.967 0-6.647 1.69-6.386 2.893.622 3.392 2.196.893 2.196 4.024 0 3.13-2.412 1.987-2.627 4.279.24 2.632 3.786 1.981 1.708 3.976L346.6 216.376l.067-18.146 37.042-67.662 16.392 24.62z" fill-rule="evenodd" fill="#ef7d08"/>
    <path stroke-linejoin="round" d="M309.82 268.4c-8.348 13.826-30.664 9.726-36.882.073-1.664-.443-.639-69.66-.639-69.66s-2.493-1.136-2.608-2.964c-.116-1.836 3.39-2.002 3.39-4.361 0-2.348-3.679-1.427-3.66-3.79.016-2.26 3.82-1.948 3.66-4.036-.201-2.363-4.262-2.006-4.434-4.176-.132-1.723 2.904-3.226 3.748-4-.646.027-2.82-.034-2.836-.042l-6.392.13c-4.641.006.078.99.012 3.61-.042 1.712-2.303 2.861-2.606 4.34-.071 1.627 3.236 2.6 3.278 4.434.037 1.636-3.26 1.748-3.132 3.268.206 2.673 2.912 3.139 2.871 4.696-.041 1.666-3.643 2.16-3.662 3.391.126 2.402.621 60.781.621 60.781 6.74 29.739 38.868 37.304 48.26-1.826zM331.66 268.4c8.348 13.826 30.663 9.726 36.881.073 1.664-.443.64-69.66.64-69.66s2.493-1.136 2.607-2.964c.114-1.836-3.17-2.002-3.17-4.361 0-2.348 3.36-1.427 3.43-3.79-.014-2.26-3.627-2.094-3.367-4.183.2-2.363 2.969-2.078 3.116-4.247.131-1.869-1.732-3.007-2.676-3.782.646.027 2.673-.034 2.689-.041l6.391.13c4.642.006-.078.99-.01 3.61.04 1.712 2.301 2.861 2.606 4.34.07 1.627-3.237 2.6-3.279 4.434-.036 1.636 3.26 1.747 3.131 3.268-.204 2.672-2.911 3.139-2.87 4.696.041 1.666 3.644 2.16 3.662 3.39-.126 2.403-.62 60.782-.62 60.782-6.74 29.739-38.868 37.304-48.26-1.826z" fill-rule="evenodd" stroke="#000" stroke-width="2.6" fill="red"/>
    <path d="M301.71 296.69l37.277-.022c.29-.293-8.346-12.874-18.632-11.987-11.46.3-19.244 12.009-18.644 12.009zM420.67 294.68h-61.008s6.602-3.901 8.402-7.602c3.3 1.8 2.4 3.6 9.002 3.9 6.6.3 12.9-7.6 19.203-7.2 6.3.3 14.4 11.102 14.4 10.802zM219.67 294.68h61.008s-6.602-3.901-8.402-7.602c-3.3 1.8-2.4 3.6-9.002 3.9-6.699.3-12.9-7.6-19.203-7.2-6.3.3-14.4 11.102-14.4 10.802zM223.38 278.64l36.327.292s-2.344-4.98-2.636-11.13c-9.377-3.222-16.993 7.03-23.732 7.323-6.736.292-13.767-7.324-13.767-7.324l3.808 10.84zM417.32 278.64l-36.328.292s2.344-4.98 2.637-11.13c9.376-3.222 16.992 7.03 23.73 7.323 6.738.292 13.769-7.324 13.769-7.324l-3.808 10.84zM310.97 278.94l18.466-.684s.294-6.667-9.374-6.667c-9.668 0-8.788 6.446-9.081 6.161zM299.84 271.03c3.223-1.76 6.162-3.616 8.204-7.618l-12.698.292s-6.868 3.617-8.788 7.326h13.183zM340.66 271.03c-3.223-1.76-6.161-3.616-8.203-7.618l12.697.292s6.868 3.617 8.788 7.326H340.66z" fill-rule="evenodd" stroke="#083d9c" stroke-width="2pt" fill="#083d9c"/>
    <path fill-rule="evenodd" fill="#de2010" d="M-40 360h720v120H-40zM-40 0h720v120H-40z"/>
  </g>
</svg>
