<svg xmlns="http://www.w3.org/2000/svg" height="480" width="640">
  <g fill-rule="evenodd">
    <path d="M1.644 0l-.6 479.986H641.13L1.64 0z"/>
    <path d="M640.63 479.984l.6-479.986H1.146l639.49 479.986z" fill="red"/>
  </g>
  <path d="M178 64l-3.84-.2c-1.18-2.78-4.613-3.823-6.663-2.663-1.86.16-11.6-.147-11.6-.147l7.12 3.12c1.76 4.76 7.88 6.88 7.88 6.88-.643 8.774-8.881-1.133-16.881 3.867-6 3-6.069 6.683-7.761 12.371-.84 1.61-4.36 6.761-4.36 6.761l6.88-.6-1.88 2.6 7-1s-.94.786-1.6 1.38c1.037.203 8-1.63 8-1.63l-.6 2.26c3.67-1.43 8-2.88 8-2.88s1.67 1.31 3 1.88l1-4 4 1 1-4c6 8 8 16 19 18l-1-4c3.06 1.31 8.74 4.09 8.74 4.09l.86-1.83c4.77 3.42 8.73 3.36 11.4 3.74 0 0-1.99-4.98-2-6 .13.06 1.99 1.01 2 1l-3-8 3 1-4-6 1.6-1-.6-3c6 2 14 6 16 12 1 11-11 14-19 13 6 6 17 3 22-2 2-2 3-6 4-8 1 3 3 7 3 11-1 9-13 12-21 13 9 6 26-1 26-14 0-11-7-16-10-21-.46-1.82-1-6.38-1-6.38.388.116 3 1.39 3 1.39s-1.77-3.31-2-4.01c0 0-3.12-8.6-4.26-10.38.186-.106 2.26.36 2.26.36l-8.19-10.27s1.976-.18 2.32-.24c0 0-9.62-7.61-12.13-8.46l3-1c-6-3-13-1-19 3l1-3-1.83.17v-3.43l1.83-2.74-3-1 2-6-3 1 1-6s-2.24 1.04-3.6.89c.06.11 1.69-3.42 1.69-3.42-.96-1.49.01-4.47.01-4.47-7 1-8 2-12 8-6 11-4 16-3 27z" stroke="#fc0" stroke-width="1.066" fill="#fc0" transform="matrix(2.21989 0 0 2.21194 1.146 0)"/>
  <path d="M216.78 70.438c.621.86 6.197 3.694 10.468 6.016-1.146-4.61-9.479-6.626-10.468-6.016z" fill-rule="evenodd" stroke="red" stroke-width="1.42" fill="red" transform="matrix(2.21989 0 0 2.21194 1.146 0)"/>
  <path fill-rule="evenodd" fill="#fff" d="M174.96 399.034l-14.12-8.98-18.96 9.046 4.202-16.147-14.487-16.174 16.718-1.017 9.996-18.404 6.127 16.628 20.667 3.783-12.929 10.617zM211.184 320.09l-6.66-3.119-6.296 3.606.969-7.188-6.388-4.844 7.142-1.306 2.966-6.613 3.467 6.37 7.221.774-6.006 6.243zM243.113 274.811l-14.363-6.99-13.923 7.831 2.222-16.771-11.786-10.772 16.746-2.766 6.63-14.488 7.626 14.067 16.872 1.814-11.1 11.468zM177.406 211.771l-16.92-8.447-16.673 9.097 2.836-18.642-13.808-12.896 18.671-3.076 8.043-17.07 8.704 16.746 18.776 2.347-13.29 13.422zM116.606 277.244l-17.062-10.087-17.016 10.308 4.362-19.288-16.11-12.918 19.769-1.836 7.676-18.316 7.86 18.16 19.864 1.616-14.906 13.06z"/>
</svg>
