<svg xmlns="http://www.w3.org/2000/svg" xmlns:xlink="http://www.w3.org/1999/xlink" height="480" width="640" version="1">
  <path fill="#0038a8" d="M0 0h640v240H0z"/>
  <path fill="#ce1126" d="M0 240h640v240H0z"/>
  <path d="M416.692 240L0 480V0" fill="#fff"/>
  <g transform="translate(149.333 240) scale(6.33333)" fill="#fcd116">
    <circle r="9"/>
    <g id="d">
      <g id="c">
        <g id="b">
          <path d="M-1 0l.062.062L0 0l-.938-.062z" transform="scale(19)"/>
          <path id="a" d="M-.884.116l.06.06L0 0z" transform="scale(19.2381)"/>
          <use height="100%" width="100%" xlink:href="#a" transform="scale(1 -1)"/>
        </g>
        <use height="100%" width="100%" xlink:href="#b" transform="rotate(46)"/>
      </g>
      <use height="100%" width="100%" xlink:href="#c" transform="rotate(90)"/>
    </g>
    <use height="100%" width="100%" xlink:href="#d" transform="scale(-1)"/>
    <g transform="translate(-2.02)">
      <g id="f" transform="translate(37.962)">
        <path id="e" d="M6 0L1.618 1.176l-.073 3.68-2.163-2.864-3.427 1.037L-2 0z"/>
        <use height="100%" width="100%" xlink:href="#e" transform="scale(1 -1)"/>
      </g>
      <use height="100%" width="100%" xlink:href="#f" transform="rotate(120)"/>
      <use height="100%" width="100%" xlink:href="#f" transform="rotate(-120)"/>
    </g>
  </g>
</svg>
