<svg xmlns="http://www.w3.org/2000/svg" height="480" width="640" version="1">
  <defs>
    <clipPath id="a">
      <path fill-opacity=".67" d="M-62.334 0h682.67v612h-682.67z"/>
    </clipPath>
  </defs>
  <g fill-rule="evenodd" clip-path="url(#a)" transform="translate(49.063) scale(.9376)" stroke-width="1pt">
    <path fill="#0c690b" d="M-96 0h768v612H-96z"/>
    <path fill="#fff" d="M-96 0H97.62v612H-96z"/>
    <g fill="#fff">
      <path d="M403.702 226.4l-31.166-6.666-16.389 27.306-3.396-31.666-31.036-7.16 29.067-13.014-2.791-31.724 21.36 23.622 29.309-12.468-16.866 27.614 20.906 24.026z"/>
      <path d="M416.466 306.086c-27.666 60.96-100.277 87.688-161.41 69.27-61.142-28.326-87.777-100.93-69.461-162.071 14.447-31.184 38.089-62.614 71.462-64.31-3.839 3.246-7.637 6.613-11.8 10.908-43.11 44.491-41.99 116.692 2.6 168.699 44.49 43.11 116.692 41.991 168.698-2.6z"/>
    </g>
  </g>
</svg>
