<svg xmlns="http://www.w3.org/2000/svg" height="480" width="640" version="1" viewBox="-16 -7.6 30 16">
  <defs>
    <clipPath id="a">
      <path d="M-16-7.6h30v16h-30z"/>
    </clipPath>
  </defs>
  <path fill="#00247d" d="M-16-11.26h30v22.6h-30z"/>
  <g clip-path="url(#a)" transform="translate(0 -3.76)">
    <circle r="20" fill="#00247d"/>
    <path stroke-width="3" stroke="#fff" d="M-20-10l40 20m-40 0l40-20"/>
    <path stroke-width="2" stroke="#cf142b" d="M-20-10l40 20m-40 0l40-20"/>
    <path fill="#fff" d="M0 0l20 10h-3L-3 0m3 0l20-10h3L3 0M0 0l-20 10h-3L-3 0m3 0l-20-10h3L3 0"/>
    <path stroke-width="6" stroke="#fff" d="M-20 0h40M0-10v20"/>
    <path stroke-width="3" stroke="#cf142b" d="M-20 0h40M0-10v20"/>
  </g>
  <path d="M4.216 3.299c-.43.364-.84.896-.94 1.376-.283 1.362-.669 1.663-1.24 1.362 0 .726.637.782.916.368 0 .68.247 1.271.804 1.776.236.212.28.067.168-.167-.112-.236-.112-.994-.336-1.43.367.267.882.112.837-.692-.468.268-.913.268-.96-.38-.066-.748.236-1.833.76-2.302zM3.673-2.08c.03-.268-.027-.644-.223-.716-.379-.334-.76-.223-1.026.046-.413-.223-.633.669-1.102.436.078.267.201.368.436.279-.246.223 0 .491-.29.76.624.167.804-.123.781-.626.201.179.614.168.681-.033-.279-.09-.28-.333-.167-.669.167-.336.964-.322.91.416z" stroke="#000" stroke-width=".02964238" fill="#f7e017"/>
  <path d="M4.886 1.806c-.692.312-1.676.178-1.776-.692-.1-.77.648-1.117.849-1.217.313-.167.668.122.468.446a.607.607 0 0 0 .266-.76c.468.034.883-.312 1.061-.803-.16.163-.698.06-.969.026.112-.123.11-.361.077-.484-.38.39-.927.212-1.663 1.34.112-.39.324-1.173.447-1.686a1.27 1.27 0 0 0 .028-.166c.044-.737-.742-.76-.91-.416.184.207.088.449.022.816-.078.436-.246 1.441-.39 1.776-.046-.626-.392-.668-.469-.816-.1.067-.166.246-.134.368-.123-.134-.647.034-.703-.167-.168.336.1.67.38.816-.163.011-.202.207-.38.207.24.279.486.39.77.413s.497.128.67.476c.28.668 1.343.92 2.346.413z" stroke="#000" stroke-width=".02964238" fill="#337321"/>
  <path d="M6.369 1.123C6.024 2.06 6.108 2.71 4.694 2.81c-.703.17-2.137.867-2.622 1.226a.46.46 0 0 1-.168-.064c-.19-.134-.346-.67-.01-.938 1.049-.983 2.177-.668 2.88-1.228-.692.312-1.676.178-1.776-.692A2.727 2.727 0 0 0 6.81.409c.123.134.48.668.648.714z" stroke="#000" stroke-width=".02964238" fill="#f7e017"/>
  <path d="M4.216 3.299c-.63.46-.806 1.664-.76 2.303.016.208.074.349.162.436.04-.424.336-1.62 1.089-2.01.636-.413 1.63-1.34 1.999-2.401-.067-.19-.179-.324-.391-.468C6.96 2.17 4.98 2.66 4.216 3.298z" stroke="#000" stroke-width=".02964238" fill="#337321"/>
  <path d="M6.019.694c-.19.284-.62.676-1.033.832.089-.101.117-.23.122-.336-.626.202-1.674.18-1.999.023A2.727 2.727 0 0 0 6.812.409c.09.1.167.19.207.286z" stroke="#000" stroke-width=".02964238" fill="#316d3a"/>
  <path d="M2.003 3.033c-.863.8-.29 1.497.046 1.663-.09.668.436.491.424.96.213-.123.269-.446.236-.703.268.29.96-.034 1.094.602.09-.692-.368-1.184-.938-1.128.236-.212.1-.668-.122-.647-.046.436-.636.436-.726.301-.19-.134-.347-.67-.012-.938z" stroke="#000" stroke-width=".02964238" fill="#337321"/>
  <path d="M3.862 8.114c-.093.063-.086.173-.028.261.117.166-.082.61.296.686.112.023.198-.046.24-.173.118-.362-.267-.39-.29-.668-.034-.168-.14-.161-.218-.106z" stroke="#000" stroke-width=".02964238" fill="#f7e017"/>
  <path d="M4.17 8.773c-.126.068-.236.14-.184.641.02.167.01.67-.134.676.089.044.279.092.367-.012.076.126.246.09.313-.067.089.073.212-.06.212-.166.078.06.234-.022.196-.262.096.033.218-.034.263-.096-.14-.028-.492-.218-.676-.369-.083-.16-.301-.223-.446-.166z" stroke="#000" stroke-width=".02964238" fill="#f7e017"/>
  <g stroke="#000" stroke-width=".186" fill="none">
    <path d="M2.236-2.621c.067-.084.12-.162.19-.23M4.36-1.043c.1-.066.249-.063.416-.062M4.21 9.878c-.04-.066-.063-.29-.026-.432M4.622 9.812a.66.66 0 0 1-.198-.362M4.734 9.666c-.079-.036-.268-.282-.31-.441M4.93 9.394c-.093-.02-.376-.204-.492-.4" stroke-width=".02964238"/>
  </g>
  <path d="M10.078 3.044c1.374 1.16 1.463 2.066 1.261 2.602-.112-.602-.681-1.284-1.273-1.486l.022-1.117z" stroke="#000" stroke-width=".02964238" fill="#f7e017"/>
  <path d="M7.621 2.397h2.647v3.016c0 2.668-1.43 4.087-2.882 4.891C6.834 9.6 4.406 7.98 4.406 6.412V2.397h1.787c.003.166.017.39.2.626.422-.042.9-.367 1.23-.626z" stroke="#000" stroke-width=".02964238" fill="#337321"/>
  <path d="M10.167 2.397v3.016c0 .776-.13 1.466-.362 2.048L7.287 2.82 4.768 7.46a6.803 6.803 0 0 1-.362-2.048V2.397h6.763z" stroke="#000" stroke-width=".02964238" fill="#006ec7"/>
  <path d="M9.893 7.237a6.638 6.638 0 0 1-.189.496L7.287 3.24 4.869 7.733a6.638 6.638 0 0 1-.188-.496l2.606-4.832 2.607 4.832z" fill="#f7e017"/>
  <g stroke="#000" stroke-width=".186" fill="#f7e017">
    <path d="M8.436 8.89c.067.034.19.096.246.118.134-.268.167-.647.112-.983-.146.37-.637.368-.77.681.082.041.168.096.224.143-.167.167-.66.46-.783.616V6.87c0-.168-.066-.307-.066-.447v-.496c0-.112-.022-.274-.123-.274s-.122.162-.122.274v.496c0 .14-.066.301-.066.447v2.396c-.123-.367-.604-.236-.827-.692a.634.634 0 0 1 .268-.011c-.167-.67-.626-.614-.714-.782 0 .236-.1.782.066 1.017a.622.622 0 0 1 .162-.124c.19.413 1.043.414 1.244 1.096.162-.26.743-.64 1.16-.978z" stroke-width=".02964238"/>
    <path d="M7.286 6.897c.19 0 .793-.062 1.01-.062.067 0 .104-.084.104-.189s-.047-.19-.103-.19c-.218 0-.821-.061-1.01-.061s-.794.061-1.012.061c-.066 0-.102.086-.102.19s.046.19.102.19c.218 0 .821.061 1.011.061zM7.164 6.916a.24.24 0 0 0-.161-.063c-.127 0-.23.094-.23.21 0 .116.103.209.23.209.126 0 .228-.094.228-.21 0-.089.13-.089.13 0 0 .182-.16.328-.368.328s-.36-.146-.36-.327c0-.181.161-.328.36-.328.069 0 .116.013.164.036-.004.03-.013.086-.013.136z" stroke-width=".02964238"/>
    <path d="M6.276 6.836c.067 0 .103-.084.103-.189s-.046-.19-.103-.19" stroke-width=".02964238"/>
    <path d="M6.36 6.836c.067 0 .103-.084.103-.189s-.046-.19-.103-.19M6.911 6.874c.069 0 .124-.102.124-.228s-.066-.229-.124-.229M7.04 6.886c.071 0 .13-.107.13-.24 0-.131-.069-.238-.13-.238M7.469 6.887c.072 0 .13-.108.13-.241 0-.134-.068-.242-.13-.242M7.604 6.88c.071 0 .13-.106.13-.234 0-.13-.069-.234-.13-.234M8.203 6.84c.067 0 .104-.087.104-.194s-.047-.193-.104-.193M6.04 8.773a.86.86 0 0 1 .24-.1M8.314 8.796l-.066-.047M8.436 8.89c.166-.167.287-.367.368-.674" stroke-width=".02964238"/>
  </g>
  <g stroke="#000" stroke-width=".186">
    <path d="M6.776 4.628c0-.064.044-.078.097-.117.062-.047.088-.07.146-.07h.733c.064 0 .067.014.067.064v.997c0 .06-.013.064-.067.064h-.976V4.62" fill="#fff" stroke-width=".02964238"/>
    <path d="M7.669 6.663c.096 0 .079-.002.146-.07.07-.07.064-.064.064-.129v-.911c0-.047-.011-.06-.062-.06H7.04c-.063 0-.076.02-.134.066-.049.037-.09.069-.09.11v.996h.764z" fill="#e6e6e6" stroke-width=".02964238"/>
    <path d="M7.64 6.632c0 .06-.012.064-.067.064H6.84c-.064 0-.066-.014-.066-.064v-.997c0-.06.012-.064.066-.064h.733c.066 0 .067.014.067.064v.997z" fill="#fff" stroke-width=".02964238"/>
  </g>
  <path d="M9.062 1.813c.143.169.19.373.112.683h-.212c.089-.268.033-.624-.347-.668-.667-.06-1.228 1.06-2.222 1.184-.29-.346-.276-1.006.094-1.318-.19-.66-.693-1.164-.872-1.416a2.718 2.718 0 0 0-.629-.037c.146-.312.66-.641.894-.776.066-.08.113-.166.167-.224.034-.43 2.077-.229 2.613.039 0 .48.19 2.086.402 2.62z" stroke="#000" stroke-width=".02964238" fill="#96877d"/>
  <path d="M6.684 2.106C6.636 1.36 6.234.748 6.812.33c.2.066.614.066.893-.146.369-.246 1.329-.676 1.68-.491a.648.648 0 0 1 .023.29c-.084-.223-1.01.123-1.273.23-.261.117-.363.273-.274.626-.146-.123-.096-.24-.246-.33.061.146.111.408.128.62C6.688.98 6.688.664 6.37.466c.19.368.366 1.263.277 1.722.16 0 .483-.148.616-.264-.117.168-.466.286-.672.33-.098.117-.166.418-.16.686-.016-.207.049-.71.163-.743zM9.062 1.813c-.186-.206-.63-.318-.972-.198.067-.034.213-.09.341-.112-.017-.117-.123-.62-.14-.742l.123-.06c.062.3.14.647.19.787.04.01.129.028.207.067-.034-.118-.224-.96-.218-1.06l.168-.09c.067.468.173 1.123.3 1.388z"/>
  <g stroke="#000" stroke-width=".186" fill="#96877d">
    <path d="M8.962 2.396c.089-.268.033-.624-.346-.668-.296-.026-.614.26-.992.668h1.338zM6.494-.01a2.233 2.233 0 0 1-.732-.073.798.798 0 0 1 .066-.168c-.118.079-.34.23-.426.337.269.066.822.084 1.1-.106z" stroke-width=".02964238"/>
  </g>
  <path d="M6.487 1.704c.062.178.102.36.108.603M6.98-.623c-.1.147-.189.306-.218.44.19.062.664.096.732.073" stroke="#000" stroke-width=".02964238" fill="none"/>
  <path d="M6.616.289c.072.012.14.026.197.041.201.066.614.066.894-.146S7.744-.64 8.604-.708" stroke="#000" stroke-width=".02964238" fill="none"/>
  <path d="M6.393.096c.268.066.821.084 1.1-.106.648-.441 1.273-.698 1.898-.732" stroke="#000" stroke-width=".02964238" fill="none"/>
  <path d="M10.078 3.044c.938.648 1.63 1.273 1.832 2.279.2 1.006.68 1.273 1.06 1.006-.112.68-.693.647-1.184.2.046.67-.224 1.476-.916 1.766-.046-.402.221-.72.146-1.06-.033-.146-.044-.48.146-.636-.368.123-.949-.112-1.006-.669.426.201.972.236 1.184-.301s.123-1.462-1.26-2.603zM11.262-2.182c.29-.76 1.06-.681 1.306-.367.749-.426.86.636 1.486.346-.012.178-.224.346-.468.336.246.223-.1.668.424.76-.447.223-1.072-.012-1.24-.626-.146.29-.67.29-.882.066.468-.123.426-.648.168-.716-.269-.169-.716-.1-.804.2zM8.997-.61c.208.672.64 1.297 1.104 1.723.636.491 1.346.368 1.798-.1.01.936-.968 1.007-1.497.714-.237-.13-.43-.061-.2.146.346.313 1.103.646 1.998.737 1.664.336 1.006 1.676.647 1.664.132-.003.24-.14.06-.31-1.366-1.22-4.116-.74-4.07-3.466-.29.716-1.486.436-.927-.413.179.146.492.166.68-.067.07-.174.026-.476-.288-.736.061-.004.162 0 .16-.128.016.076.083.187.269.16.06.079.103.131.174.103.014-.006.066-.027.04-.107.013.148.19.201.282.19z" stroke="#000" stroke-width=".02964238" fill="#337321"/>
  <path d="M10.402 1.827c.648.424 1.38.424 2.066-.367.212-.246.647-.468.782-.48.234-.023.223-.246.402-.29-.112-.034-.166-.168-.324-.162.419-.146.296-.48.603-.642-.168.062-.43-.19-.67.129.061-.146-.023-.319-.084-.386.022.168-.33.201-.397.626-.037.238-.167.223-.19-.146-.016-.27-.146-1.017-.3-1.396-.167-.38-.193-.901.02-.98a.42.42 0 0 0-.133-.137c-.268-.169-.714-.1-.804.2-.29.76.626 1.196.468 2.022-.123-.614-1.117-.77-1.106-1.373-.324.146-.28.413-.167.626-.2-.313-.669.2-1.06-.223-.044.668.447.77.86.792-.202.368.066.66.334.76.011-.626 1.294-.369 1.307.703.011.916-.972.994-1.497.704zM12.2 2.71c1.664.334 1.006 1.674.648 1.663-.292-.007-.67-.262-.687-.464-.336.179-.246.63.012.67-.704-.083-1 .38-1.017.888.129-.234.62-.261.666-.2.146.06.619.077.67-.09-.123.106.078.362-.096.641.686-.022.843-.67.743-.81.769-.692.614-1.82-.939-2.099zM11.01 8.016c.1.064.088.197.02.282-.138.17.07.674-.367.642-.126.02-.218-.06-.26-.204-.116-.398.304-.426.348-.61.046-.186.163-.163.248-.11z" stroke="#000" stroke-width=".02964238" fill="#f7e017"/>
  <path d="M10.626 8.736c.138.07.266.166.182.613-.03.186-.037.636.126.648-.102.046-.316.09-.398-.028-.09.137-.279.089-.347-.089-.103.077-.234-.066-.23-.184-.089.063-.26-.036-.206-.301-.108.033-.242-.047-.29-.117.168-.026.669-.222.669-.387.1-.164.346-.236.606-.166z" stroke="#000" stroke-width=".02964238" fill="#f7e017"/>
  <g stroke="#000" stroke-width=".186" fill="none">
    <path d="M10.634 9.969c.046-.06.072-.322.047-.482M10.188 9.882a.738.738 0 0 0 .237-.384M9.968 9.697c.088-.037.311-.303.366-.479M9.761 9.396c.104-.017.427-.21.666-.424" stroke-width=".02964238"/>
  </g>
  <path d="M8.727.498c-.019 1.146.467 1.724 1.116 2.101-.246-.147-.139-.66-.469-.811.079-.006.201.106.397.061-.096-.212-.261-.636-.614-.68.096-.011.301.022.436-.028-.19-.29-.692-.161-.866-.743zM8.608-.69c-.04-.014-.076-.064-.108-.107-.176.038-.244-.074-.268-.16.01.13-.1.124-.162.128.316.26.36.663.29.737-.09.223-.402.212-.68.067-.023.474.691.63.814.033 0 .1.129.09.162.224.16-.267.04-.626-.168-.932z" stroke="#000" stroke-width=".02964238" fill="#f7e017"/>
  <g>
    <path d="M7.628-2.868a1.342 1.342 0 0 1-.397-.932c.011-.246.112-.614.47-.402-.113 0-.034.223-.162.246.096.034.224-.044.24-.096.023.079.168.066.18.146.066-.046-.006-.263-.09-.307.061-.034.096-.207.067-.29-.066.01-.14.088-.167.2.028-.09-.006-.313-.161-.346a.296.296 0 0 0 .006.296c-.146-.034-.367.061-.408.184.012-.148.032-.368.123-.491.031-.046-.044-.123-.103-.017-.109-.212-.4-.324-.628-.218s-.301-.06-.407.118c-.106.167-.466.186-.447.362.011.107-.014.27-.067.33-.128.146.061.261.096.38-.022-.426.663-1.261 1.329-.927-.062.106-.116.318-.134.676-.028.38.028.916.396 1.228l.146-.039z" stroke="#000" stroke-width=".02964238" fill="#337321"/>
    <path d="M7.828-4.187c-.004-.1.17-.231.406-.229.282.003.6.26.726.236s.116.1.067.134c-.047.033-.076.084-.068.146s-.012.102-.103.046c-.201-.126-.403.06-.668-.048-.23-.084-.363-.13-.368-.282z" stroke="#000" stroke-width=".02964238" fill="#cf142b"/>
    <path d="M6.678-1.661c-.112-.362-.636-.737-.743-.827l-.011-.19c.112-.044.38-.266.603-.374.837.402 1.976-.167 2.601-.769l.201.123-.1.134-.106-.066c-.129.166-.608.608-.764.702.196.06.462.084.636.08.469-.336.837-.637 1.016-.66l.16.202-.133.096-.106-.062c-.603.414-1.072 1.318-1.296 1.921-.312-.067-1.43-.022-1.668-.33z" stroke="#000" stroke-width=".02964238" fill="#96877d"/>
    <path d="M8.17-2.798a.824.824 0 0 1-.176-.06c-.089.084-.312.166-.697.168" stroke="#000" stroke-width=".02964238" fill="none"/>
    <path d="M6.722-1.674c-.076-.416.046-.877.267-1.016.464.307 1.267.307 1.726-.028" stroke="#000" stroke-width=".02964238" fill="none"/>
    <path d="M6.722-1.892c.368-.01 1.134.06 1.324.078.19.028.608.106.463.201M6.887-1.961l.103-.103-.103-.102-.102.102.102.103z" stroke="#000" stroke-width=".02964238" fill="none"/>
    <path d="M7.13-4.03c-.128-.18-.482-.236-.668.006-.034.106-.084.218-.168.268-.083.06-.064.203-.027.268.089.162.01.318.184.426 0-.129.19-.263.362-.296.162-.034.407-.179.44-.34.034-.163.09-.297-.223-.33z" stroke="#000" stroke-width=".02964238" fill="#337321"/>
    <path d="M6.326-2.422h.046v.306c.01.003.02.008.027.014l.263-.162.023.04-.264.162a.08.08 0 0 1 0 .03l.264.163-.023.038-.264-.162a.078.078 0 0 1-.026.016v.304h-.046v-.306a.078.078 0 0 1-.027-.014l-.263.161-.023-.038.264-.164a.08.08 0 0 1 0-.03l-.264-.162.023-.039.266.163a.078.078 0 0 1 .026-.016v-.304z" stroke="#000" stroke-width=".02964238" fill="#96877d"/>
    <path d="M6.724-1.676a.628.628 0 0 1-.906-.373.63.63 0 0 1 .96-.32 1.144 1.144 0 0 0-.061.283.362.362 0 1 0-.36.398.37.37 0 0 0 .363-.27c0 .066.002.226.023.282z" stroke="#000" stroke-width=".02964238" fill="#96877d"/>
    <path d="M6.126-1.171c-.033-.04-.096-.146-.09-.224a.29.29 0 0 1 .19.073c-.006-.066-.027-.179-.016-.236.061.023.19.096.234.179a.81.81 0 0 1-.01-.29c.066.039.178.146.2.217.006-.111.046-.296.078-.34.06.06.129.096.18.162.01-.09.066-.196.122-.224.06.066.128.186.146.33.06-.017.117-.1.146-.146a.313.313 0 0 1 .04.217c.06-.066.133-.134.16-.2a.436.436 0 0 1 .161.206c-.011-.073-.006-.201-.028-.274.084.046.16.123.168.207.022-.078.072-.218.117-.261.044.089.09.196.084.284.027-.066.072-.166.117-.178.039.061.033.196.022.268a.64.64 0 0 1 .167-.146c.006.033.01.1 0 .16.06-.028.134-.178.161-.267.079.04.167.174.162.24a.61.61 0 0 0 .201-.178c0 .039.017.146-.006.229.033-.034.067-.1.084-.129.022.066.006.19-.017.263a.292.292 0 0 1 .167-.073c.006.096-.061.263-.123.386-.636-.161-1.668-.207-2.786-.268z" stroke="#000" stroke-width=".02964238" fill="#337321"/>
    <path d="M7.994-4.13c-.002-.04.09-.134.264-.133.197.001.38.146.638.136s.08.04.047.064c-.033.014-.063.036-.041.06s-.009.041-.072.018c-.141-.061-.282.02-.468-.02-.16-.034-.264-.063-.268-.116z" fill="#f7e017"/>
  </g>
  <g stroke="#000" stroke-width=".186">
    <g fill="#f7e017">
      <path d="M6.298-.836c-.167.2-.336.167-.368.039-.034-.129.09-.19.044-.302-.044-.112.073-.162.129-.112.066.06.234-.111.313.066.078.168.14.286.094.362-.044.067-.178.034-.212-.033zM7.018-1.138c-.032-.073.142-.216.231-.114.09.1.23-.11.308.06.078.169.103.243.142.332.04.09-.212.137-.29.069.01.063-.217.094-.28-.066l-.111-.271zM8.18-1.046c-.042-.078.162-.19.268-.047.028-.069.23-.07.243.1.014.17.02.271.026.338s-.122.128-.216-.042c-.164.034-.24-.068-.26-.166s-.038-.146-.06-.193z" stroke-width=".02964238"/>
    </g>
    <g fill="#337321">
      <path d="M6.406-1.167c-.026-.066.143-.168.267-.084.116.084.273-.073.34.078.137.304.146.327.104.386-.042.069-.22.036-.266-.044-.009.066-.163.046-.243.002-.092-.06-.167-.237-.193-.337zM7.682-1.144c-.04-.086.223-.161.337-.01.069-.064.187-.067.26.108.073.166.084.267.03.299-.037.03-.172.063-.217-.022-.062.039-.261.006-.293-.1-.042-.107-.078-.2-.117-.276zM8.693-.979c-.006-.078.137-.114.19 0s.223.012.238.201c.002.036-.02.176-.073.243s-.313 0-.33-.142a3.47 3.47 0 0 1-.026-.302z" stroke-width=".02964238"/>
    </g>
    <g fill="none">
      <path d="M6.298-.836c-.061-.084-.146-.218-.261-.073M6.843-.823a.639.639 0 0 1-.1-.187M7.408-.811a.46.46 0 0 1-.128-.143M7.36-1.104c.097.01.164.103.196.146.03.042.096.117.146.126M7.993-.77c-.034-.063-.067-.1-.076-.14M7.92-1.166a.736.736 0 0 1 .078.131M8.601-.697a.473.473 0 0 0-.173-.193M8.479-1.004c.006.166.226.176.234.293M8.882-.979c.023.042.031.084.034.164" stroke-width=".02964238"/>
    </g>
  </g>
</svg>
