<svg xmlns="http://www.w3.org/2000/svg" xmlns:xlink="http://www.w3.org/1999/xlink" height="480" width="640" version="1">
  <path fill="red" d="M266 0h384v480H266z"/>
  <path fill="#060" d="M0 0h266v480H0z"/>
  <g fill="#ff0" fill-rule="evenodd" stroke="#000" stroke-width=".673" stroke-linecap="round" stroke-linejoin="round">
    <path d="M339.466 306.176c-32.224-.97-179.99-93.206-181.003-107.893l8.16-13.608c14.667 21.297 166.717 110.998 180.666 107.82l-7.712 13.677" stroke-width=".611"/>
    <path d="M164.896 182.827c-2.89 7.78 38.66 33.406 88.43 63.737 49.87 30.33 92.87 49.073 96.066 46.386.196-.348 1.67-2.71 1.443-2.692-.698.9-2.062 1.184-4.32.63-13.474-3.886-48.614-20.016-92.133-46.406-43.618-26.392-81.38-60.714-87.266-61.047-.41-.716-.7-2.023-.642-3.04h-.143l-1.263 2.19-.173.342zm176.317 123.776c-.646.99-1.666 1.024-3.6.812-12.063-1.334-48.628-19.12-91.906-46.028-60.368-30.144-91.947-67.61-87.436-64.79l1.228-2.17.242.076c-4.068 12.166 82.077 61.417 87.148 64.667 49.84 30.877 91.866 48.908 96.676 44.222l-1.363 2.326v-.002z" stroke-width=".611"/>
    <path d="M266.18 207.18c32.264-.266 72.066-4.41 94.96-13.637l-4.936-8.018c-13.638 7.493-63.667 12.42-90.296 13.167-43.463-.4-74.124-4.446-89.49-14.767l-4.66 8.638c28.26 11.964 67.198 14.493 94.422 14.616" stroke-width=".611"/>
    <path d="M362.47 193.824c-.79 1.26-16.727 6.412-37.732 10.214-14.92 2.274-34.383 4.22-68.67 4.242-23.076.022-41.926-1.62-66.197-3.666-23.1-3.622-36.02-8.66-39.428-10.442.42-.838.692-1.426 1.098-2.21 12.688 6.063 24.666 8.1 38.698 10.268 14.177 1.92 32.8 3.687 66.76 3.666 24.176-.026 43.424-2.117 68.268-4.324 22.666-3.64 34.892-8.324 36.623-10.6l1.693 2.762h-.002zm-4.332-8.13c-2.446 1.963-14.632 6.286-36.073 9.71-14.31 2.06-32.604 3.886-66.76 3.908-22.084.022-40.127-1.466-63.86-3.466-21.776-2.844-33.366-7.974-37.643-9.47.416-.72.84-1.432 1.274-2.148 3.26 1.636 14.436 6.176 36.608 9.303 13.668 1.924 31.638 3.368 63.613 3.336 23.136-.023 41.123-1.894 66.34-3.934 21.663-2.966 33.16-8.477 34.91-9.867l1.672 2.614v.003zm-197.866 60.343c19.838 10.67 63.9 16.047 106.694 16.417 37.963.06 87.42-6.868 106.916-16.67l-.61-10.678c-6.786 9.042-68.786 17.716-106.818 17.36-47.033-.364-90.707-7.618-106.266-17.022l.084 9.69" stroke-width=".611"/>
    <path d="M362.796 244.6v2.648c-2.78 3.324-20.208 8.347-42.066 11.886-16.636 2.66-38.323 4.474-66.347 4.474-26.673 0-46.147-1.83-62.024-4.268-26.1-3.666-41.162-10.066-44.376-11.966l.016-2.97c9.68 6.436 36.906 11.142 44.71 12.684 16.776 2.42 36.127 4.238 61.672 4.238 26.898 0 48.463-1.91 64.994-4.444 16.68-2.266 38.02-8.167 42.418-12.08zm.01-9.067v2.647c-2.778 3.32-20.208 8.346-42.066 11.882-16.636 2.66-38.322 4.474-66.346 4.474-26.674 0-46.147-1.828-62.026-4.268-26.098-3.663-41.16-10.063-44.374-11.964l.014-2.97c9.68 6.434 36.906 11.143 44.712 12.682 16.774 2.423 36.126 4.24 61.67 4.24 26.898 0 48.464-1.91 64.994-4.446 16.68-2.266 38.02-8.166 42.418-12.08v.003zM266.776 304.34c-46.623-.27-84.716-12.436-92.97-14.446l6.02 9.424c14.68 6.133 62.718 16.274 87.388 14.262 34.67-1.01 64.97-3.697 86.323-14.092l6.172-9.766c-14.663 6.863-64.074 14.648-92.936 14.618" stroke-width=".611"/>
    <path d="M344.863 297.3a143.02 143.02 0 0 1-2.77 4.086c-10.07 3.66-26.94 7.28-32.636 8.367-13.68 2.818-34.843 4.9-63.626 4.91-40.416-.692-73.6-8.604-89.063-16.263l-1.267-2.16.206-.323 2.13.826c27.678 9.902 68.764 13.863 88.21 14.662 18.71.066 37.436-2.144 62.68-4.862 23.222-4.663 32.612-8.16 36.493-9.76l.734-.41zm6.362-8.826c.023.028.047.064.07.083a287.226 287.226 0 0 1-2.093 3.48c-6.372 1.92-19.96 6.186-41.237 9.162-14.026 1.91-22.743 3.76-60.644 4.302-62.282-1.33-86.132-11.663-94.174-14.076l-1.192-2.286c30.3 7.91 61.26 13.433 96.37 13.997 26.626-.644 36.386-2.424 60.294-4.32 24.823-3.86 37.33-7.946 41.083-9.126a2.846 2.846 0 0 0-.164-.212l2.692-1.006-.002.002z" stroke-width=".687"/>
    <path d="M360.762 237.61c.148 30.013-16.21 66.946-27.682 68.827-17.602 16.81-40.707 27.623-67.807 28.12-30.26.667-68.794-19.17-66.448-27.838-14.963-16.946-27.146-38.462-27.636-67.46 1.863-32.767 14.712-66.674 33.362-71.22 18.64-16.647 43.46-23.268 64.13-22.723 23.847.63 61.706 12.33 70.966 36.664 12.61 16.22 18.072 31.733 20.936 66.74zM266.62 134.847c68.118 0 106.916 47.294 106.916 106.283 0 67.987-47.798 106.283-106.916 106.283-68.117 0-106.62-47.296-106.62-106.284 0-67.99 47.403-106.284 106.62-106.284" stroke-width=".611"/>
    <path d="M266.904 134.486c68.17 0 106.612 47.46 106.612 106.624 0 68.173-47.443 106.62-106.612 106.62-68.17 0-106.612-47.446-106.612-106.62 0-68.176 47.443-106.626 106.612-106.626zM162.617 240.11c0 66.81 46.66 103.297 103.287 103.297 66.637 0 103.29-46.487 103.29-103.298 0-66.814-46.664-103.3-103.29-103.3s-103.287 46.49-103.287 103.3z" stroke-width=".611"/>
    <path d="M266.99 143.264c63.046 0 96.74 43.642 96.74 96.76 0 63.21-43.696 96.76-96.74 96.76-63.046 0-96.74-43.64-96.74-96.76 0-63.208 43.696-96.76 96.74-96.76zm-94.417 96.76c0 61.93 42.646 94.426 94.416 94.426 61.77 0 94.416-42.496 94.416-94.426 0-61.93-42.643-94.426-94.416-94.426-61.772 0-94.417 42.496-94.417 94.426z" stroke-width=".611"/>
    <path d="M260.246 134.06h-9.06l.01 212.223h9.082z" stroke-width=".611"/>
    <path d="M269.34 132.86h2.302l.02 214.666h-2.306l-.016-214.667zm-8.984 0h2.322l.003 214.668h-2.323V132.86z" stroke-width=".611"/>
    <path d="M361.69 244.197v-7.846l-6.39-6.962-36.267-9.6-62.266-6.334-62.934 3.2-44.8 10.667-9.046 6.7v7.846L172.8 233.6l64.4-8.634h62.267l38.4 4.267 26.666 6.4z" stroke-width=".611"/>
    <path d="M266.947 223.766c24.942-.046 49.14 2.363 68.336 6.1 19.807 3.96 33.746 8.913 38.612 14.476l-.006 2.766c-6.748-6.923-24.606-11.998-38.963-14.9-19.06-3.706-43.086-6.098-67.89-6.06-26.174.047-60.646 2.626-69.317 6.19-16.06 2.987-36.147 8.924-37.666 14.78v-2.868c1.377-4.063 16.334-10.11 37.316-14.31 18.912-3.69 43.33-6.126 69.667-6.173zm.01-9.06c24.942-.044 49.142 2.366 68.336 6.102 19.807 3.962 33.746 8.913 38.612 14.476l-.006 2.764c-6.748-6.92-24.606-11.997-38.963-14.897-19.048-3.707-43.086-6.1-67.89-6.062-26.174.047-60.427 2.628-69.2 6.188-14.634 2.766-36.44 8.928-37.772 14.784v-2.87c1.377-4.01 16.636-10.284 37.317-14.31 18.91-3.69 43.328-6.124 69.666-6.173zm-.612-46.206c39.306-.196 73.69 6.496 89.276 13.63l6.72 9.9c-13.632-7.348-60.618-14.988-94.937-13.846-36.11.222-74.696 3.976-94.066 14.304l6.83-11.424c16.89-8.24 63.368-12.42 87.17-12.463" stroke-width=".611"/>
    <path d="M266.968 176.66c22.418-.068 44.08 1.206 61.308 4.316 16.043 2.986 31.344 7.467 33.63 9.877l1.698 2.998c-6.32-3.476-18.66-7.343-36.662-10.667-17.073-3.21-38.72-4.272-61.013-4.213-26.306-.087-44.963 1.26-61.836 4.19-17.843 3.34-30.223 8.11-33.277 10.376l1.662-3.168c6.934-3.028 16.36-6.677 31.172-9.626 17.447-3.187 37.316-4.143 62.317-4.28zm-.01-9.06c21.464-.066 42.637 1.14 69.16 4.11 13.022 2.634 26.9 6.492 30.617 10.014l2.48 3.942c-4.217-4.688-20.09-9.13-34.106-11.62-16.386-2.826-36.688-3.943-68.142-4.122-22.616.063-43.323 1.442-69.47 4.382-16.403 2.93-26.343 6.402-29.66 9.112l2.183-3.292c6.806-3.066 16.182-6.862 26.99-8.167 16.266-2.962 37.202-4.306 69.86-4.37zm62.469 116.4c-19.433-3.627-38.9-4.164-62.498-3.994-66.602.768-86.662 13.46-89.244 17.29l-4.896-7.98c16.677-12.088 62.346-18.866 94.493-18.173 21.886.368 40.773 1.812 66.66 4.89l-4.618 7.97" stroke-width=".611"/>
    <path d="M266.662 278.89c18.22.273 36.106 1.026 63.37 4.244l-1.262 2.207c-16.033-2.968-33.126-4.09-62.066-4-24.174-.188-48.624 2.07-69.91 8.18-6.717 1.868-17.836 6.186-18.97 9.766l-1.244-2.06c.36-2.11 7.08-6.488 19.642-10.017 24.382-6.982 47.188-8.16 70.42-8.32v.003zm.827-9.17c18.877.364 38.372 1.227 67.322 4.98L312.4 277c-17.112-3.397-33.46-4.63-66.91-4.876-24.26.044-49.974 1.773-73.363 8.673-7.66 2.2-20.683 6.966-21.018 10.72l-1.244-2.203c.283-3.42 11.666-7.88 21.716-10.833 23.67-6.863 49.36-8.616 73.8-8.66z" stroke-width=".687"/>
    <path d="M349.42 290.64l-7.872 12.21-22.616-20.083-68.666-39.467-66.134-36.267-34.336-11.744 7.318-13.67 2.486-1.363 21.333 6.333 70.4 36.267 40.634 26.6L336 272l13.867 16z" stroke-width=".611"/>
    <path d="M168.66 196.61c6.022-4.086 60.282 16.63 96.692 43.666 46.188 28.004 90.322 69.66 86.338 66.67l-1.31 2.062-.6.474c.128-.092.792-.904-.066-3.1-1.968-6.476-33.276-31.467-86.22-62.82-60.64-30.197-92.844-48.397-97.064-43.196l1.33-2.648zm192.47 94.866c3.807-7.622-37.244-38.447-88.14-68.667-62.07-29.61-89.696-46.88-96.46-41.7l-1.622 2.77c-.014.163.066-.188.377-.436 1.246-1.088 3.312-1.016 4.244-1.03 11.802.176 46.61 16.688 92.806 42.802 20.723 12.07 87.642 64.923 87.287 66.976.018 1.034.086 1.248-.304 1.76l1.7-2.684v-.003z" stroke-width=".611"/>
  </g>
  <g transform="translate(0 26.667) scale(1.06667)">
    <path d="M180.6 211.01c0 16.27 6.663 30.987 17.467 41.742 10.816 10.778 26.612 17.68 41.81 17.68 16.38 0 31.246-6.664 42.016-17.39 10.77-10.736 17.443-26.662 17.446-41.88h-.002v-79.19l-118.74-.14.012 79.278h.002z" fill="#fff" stroke="#000" stroke-width=".67"/>
    <path d="M182.82 211.12v.046c0 16.667 6.44 29.724 16.776 40.01 10.364 10.304 24.614 16.71 40.214 16.71 16.68 0 29.91-6.36 40.22-16.626 10.31-10.266 16.698-24.433 16.7-40.044h-.002V134.39l-113.84-.02-.07 76.76m91.022-63.748l.004 48.89-.04 6.173c0 1.36-.082 2.912-.24 4.233-.926 7.73-4.48 14.467-9.746 19.708-6.164 6.136-14.67 9.942-24.047 9.942-9.326 0-17.638-3.938-23.828-10.1-6.36-6.32-10.03-14.986-10.03-23.947l-.013-64.022 67.94.122v.002z" fill="red" stroke="#000" stroke-width=".607"/>
    <g id="e">
      <g id="d" fill="#ff0" stroke="#000" stroke-width=".6">
        <path d="M190.19 164.43c.136-6.62 4.062-6.828 4.08-6.847.03-.02 4.232 1.407 4.218 6.898l-8.298-.06" stroke="none"/>
        <path d="M186.81 147.69l-.682 6.346 4.14.01c.04-6.26 3.976-6.124 4.07-6.104.09-.004 3.99 1.16 4.093 6.104h4.162l-.76-6.394-16.022.038v.002zm-.96 6.37h16.946c.367 0 .66.363.66.784 0 .43-.293.78-.66.78H186.86c-.367 0-.66-.36-.66-.78 0-.43.293-.784.66-.784z"/>
        <path d="M192.01 164.03c.018-3.313 2.262-4.26 2.274-4.248 0 0 2.342.966 2.36 4.248h-4.634m-6.8-8.98h16.246c.342 0 .623.318.623.706 0 .387-.28.704-.623.704H186.21c-.342 0-.623-.316-.623-.706 0-.387.28-.706.623-.706zm.34 1.42h16.638c.327 0 .696.317.696.704 0 .388-.268.704-.696.704H186.66c-.327 0-.696-.316-.696-.704 0-.387.268-.704.696-.704zm6.02-10.69l1.227.002v.87h.896v-.89l1.267.006v.887h.896v-.89h1.268l-.002 2.01c0 .317-.264.62-.66.62h-4.41c-.296 0-.67-.236-.67-.626l-.004-1.99zm4.62 2.69l.277 6.46-4.303-.016.286-6.462 3.74.017"/>
        <path id="a" d="M190.94 141.66l.13 3.478h-4.124l.116-3.478h3.88-.002z"/>
        <use height="100%" width="100%" xlink:href="#a" x="10.609"/>
        <path id="b" d="M186.3 139.04l1.2.003v.872h.877v-.892l1.23.004v.89h.88v-.894l1.23.002-.003 2.012c0 .314-.26.618-.636.618h-4.317c-.29 0-.668-.236-.668-.626l-.003-1.99z"/>
        <use height="100%" width="100%" xlink:href="#b" x="10.609"/>
        <path d="M193.9 140.61c-.026-.627.877-.634.866 0v1.636h-.866v-1.636" fill="#000" stroke="none"/>
        <path id="c" d="M188.67 142.84c-.003-.606.837-.618.826 0v1.187h-.826v-1.187" fill="#000" stroke="none"/>
        <use height="100%" width="100%" xlink:href="#c" x="10.641"/>
      </g>
      <use height="100%" width="100%" xlink:href="#d" y="46.32"/>
      <use height="100%" width="100%" xlink:href="#d" transform="rotate(-46.202 312.766 180.004)"/>
    </g>
    <use height="100%" width="100%" xlink:href="#d" x="46.714"/>
    <use height="100%" width="100%" xlink:href="#e" transform="matrix(-1 0 0 1 479.792 0)"/>
    <g id="f" fill="#fff">
      <path d="M232.636 202.406v.006a8.34 8.34 0 0 0 2.212 6.69c1.366 1.467 3.246 2.378 6.302 2.378 2.067 0 3.944-.906 6.303-2.366 1.368-1.46 2.202-3.472 2.202-6.693v-10.768l-14.992-.013-.028 10.766" fill="#039"/>
      <circle cx="236.074" cy="196.736" r="1.486"/>
      <circle cx="244.392" cy="196.742" r="1.486"/>
      <circle cx="240.226" cy="199.736" r="1.486"/>
      <circle cx="236.074" cy="203.916" r="1.486"/>
      <circle cx="244.383" cy="203.906" r="1.486"/>
    </g>
    <use height="100%" width="100%" xlink:href="#f" y="-26.016"/>
    <use height="100%" width="100%" xlink:href="#f" x="-20.799"/>
    <use height="100%" width="100%" xlink:href="#f" x="20.746"/>
    <use height="100%" width="100%" xlink:href="#f" y="26.784"/>
  </g>
</svg>
