<svg xmlns="http://www.w3.org/2000/svg" height="480" width="640">
  <path fill="#0038a8" d="M0 319.7h640V480H0z"/>
  <path fill="#fff" d="M0 160h640v160H0z"/>
  <path fill="#d62b1e" d="M0 0h640v160H0z"/>
  <g fill="none" stroke="#000" transform="translate(-116.364) scale(1.46466)">
    <circle cx="300" cy="166" r="42.2" stroke-width="1.076"/>
    <circle cx="300" cy="166" r="34.67" stroke-width=".478"/>
    <circle cx="300" cy="166" r="26.66" stroke-width=".438"/>
  </g>
  <path d="M287.317 263.68l-7.116 4.227-2.176-3.666c-.403-.68-.664-1.234-.76-1.662a1.93 1.93 0 0 1 .132-1.264c.186-.408.603-.746.967-1.016.394-.233.786-.362 1.17-.363a2.3 2.3 0 0 1 1.11.28c.226.12.472.322.74.606-.068-.314-.094-.667-.078-.73.01-.114.066-.306.166-.673.1-.268.186-.468.26-.67l1.43-2.29 1.476 2.486-1.477 2.466c-.194.316-.298.668-.313.724-.016.224.036.436.166.637l.116.194 2.89-1.716zm-6.644.306l-.66-.927c-.06-.102-.208-.277-.444-.626a.676.676 0 0 0-.436-.226.766.766 0 0 0-.496.106c-.23.137-.364.314-.4.633-.037.218.064.628.302.93l.674.966zm-6.703-6.498l-2.163-6.604 1.677-.667 1.364 4.07 1.248-.414-1.266-3.777 1.602-.633 1.266 3.777 1.648-.616-1.393-4.19 1.78-.69 2.2 6.62zm-2.836-9.673l-.484-4.223c-.106-.92.036-1.634.42-2.143.386-.61.98-.81 1.79-.9.83-.096 1.607.08 2.03.626.626.446.847 1.18.964 2.206l.16 1.39 3.06-.348.293 2.662zm3.213-2.963l-.07-.623c-.067-.49-.182-.826-.374-1.004a.828.828 0 0 0-.688-.222.92.92 0 0 0-.627.333c-.16.193-.212.626-.168 1l.083.726zm-3.476-12.682l.273-2.636 4.906.63a4.16 4.16 0 0 1 1.366.376c.416.197.768.476 1.067.834.29.368.48.722.672 1.092.13.614.168 1.117.083 1.81-.043.4-.118.833-.226 1.3-.107.468-.26.862-.462 1.162-.2.3-.47.666-.804.796-.336.23-.67.377-1.008.44-.64.1-1.013.13-1.417.086l-4.906-.63.274-2.637 6.022.642c.46.048.814-.038 1.093-.26.28-.222.443-.663.49-.996.048-.438-.04-.794-.26-1.07-.223-.276-.663-.438-1.02-.487zm1.106-6.066l1.68-4.62c.263-.763.662-1.266 1.166-1.64a1.92 1.92 0 0 1 1.697-.12c.462.162.808.446 1.038.848.163.27.23.61.228 1.026.33-.616.707-.847 1.128-.996.42-.16.88-.138 1.378.036.406.14.737.363.994.664.268.3.423.648.497 1.04.047.246.026.68-.064 1.007-.12.668-.21.94-.273 1.118l-1.467 4.168zm3.916-1.364l.367-1.06c.132-.376.16-.66.08-.863-.078-.193-.24-.332-.486-.418-.227-.08-.43-.07-.61.034-.18.103-.333.337-.46.703l-.373 1.066zm3.07 1.074l.43-1.23c.146-.417.174-.736.087-.968a.79.79 0 0 0-.606-.464.73.73 0 0 0-.646.06c-.2.12-.374.39-.62.813l-.43 1.226zm-3.073-9.669l1.32-2.19 6.343 3.224 2.062-3.418 1.746 1.063-3.384 6.608zm6.004-7.678l1.64-1.97 6.36 6.3-1.642 1.97zm11.126-4.276l2.142-.947c.296.674.468 1.127.488 1.668.03.63-.07 1.034-.293 1.61-.224.476-.617.964-1.18 1.437-.682.687-1.326.966-1.928 1.14-.604.173-1.277.146-2.02-.086-.743-.23-1.46-.736-2.12-1.614-.892-1.038-1.302-2.074-1.23-3.107.073-1.032.616-1.983 1.626-2.86.79-.68 1.66-1.066 2.277-1.124.728-.07 1.486.132 2.276.606l-1.386 1.863c-.223-.14-.406-.226-.648-.267a1.472 1.472 0 0 0-.692 0 1.61 1.61 0 0 0-.63.333c-.44.378-.624.844-.664 1.4.048.414.314.903.797 1.466.6.696 1.116 1.083 1.648 1.16.434.077.842-.06 1.226-.378.37-.32.662-.664.673-1.036.01-.37-.112-.792-.367-1.262zm8.816-3.172l-2.67 1.37.29 1.396-2.308 1.23-1.16-8.767 2.462-1.312 6.638 6.84-2.36 1.26zm-1.316-1.326l-2.207-2.196.698 3.064zm7.817-8.477l3.744-.647c.74-.127 1.363-.13 1.842-.008.49.12.914.344 1.276.667.36.323.66.72.87 1.196.22.474.378.99.474 1.646.16.872.168 1.666.063 2.08a3.413 3.413 0 0 1-.618 1.36 2.736 2.736 0 0 1-1.023.844 6.933 6.933 0 0 1-1.464.482l-3.744.647zm2.84 1.412l.77 4.466.617-.107c.626-.09.89-.214 1.093-.37.203-.164.342-.388.418-.7.076-.314.067-.797-.066-1.46-.16-.864-.393-1.43-.73-1.7-.337-.272-.832-.36-1.486-.238zm7.793-2.837l6.848.292-.076 1.766-4.287-.183-.066 1.314 3.976.17-.072 1.687-3.977-.17-.07 1.63 4.412.19-.08 1.872-6.973-.3zm9.964.786l2.484.608-1.483 6.06 3.877.96-.486 1.978-6.36-1.667zm13.28 4.407l3.66 2.164c.796.47 1.28 1.013 1.464 1.627.173.614.063 1.27-.36 1.97-.426.72-.976 1.164-1.647 1.303-.67.16-1.46-.038-2.34-.663l-1.204-.713-1.663 2.644-2.21-1.307zm.416 4.346l.64.318c.423.26.766.363 1.024.308a.828.828 0 0 0 .692-.414.92.92 0 0 0 .113-.7c-.068-.246-.293-.488-.704-.732l-.627-.37zm7.177 9.648l-2.134-1.984-1.224.728-1.916-1.78 7.916-3.942 2.042 1.9-3.36 8.18-1.968-1.824zm.826-1.676l1.366-2.8-2.693 1.66zm.992 6.601l6.824-4.682 2.41 3.614c.448.662.734 1.19.86 1.61.124.42.107.84-.06 1.26-.16.418-.466.777-.89 1.076-.378.26-.76.402-1.146.43a2.296 2.296 0 0 1-1.126-.208c-.232-.106-.492-.29-.778-.666.09.31.13.66.126.722-.002.114-.044.31-.126.682a3.263 3.263 0 0 1-.22.686l-1.28 2.377-1.636-2.383 1.313-2.668c.172-.328.26-.676.264-.743a1.08 1.08 0 0 0-.196-.624l-.128-.186-2.77 1.9zm6.613-.667l.61.89c.066.096.226.26.476.494.124.12.274.186.46.196a.762.762 0 0 0 .486-.14c.22-.16.34-.336.363-.667.023-.22-.098-.623-.362-.908l-.636-.926zm2.669 12.391l-1.08-2.706-1.417.136-.97-2.428 8.842-.18 1.033 2.692-6.634 6.966-.99-2.486zm1.464-1.16l2.426-1.963-3.1.268zm2.169 9.044l1.702-.266.686 3.91-3.49.62c-.622-.67-1.068-1.28-1.338-1.83-.27-.646-.466-1.214-.684-2.004-.146-.97-.098-1.787.142-2.46.24-.66.662-1.21 1.267-1.644.604-.436 1.33-.716 2.18-.843.893-.134 1.698-.066 2.414.204a3.62 3.62 0 0 1 1.746 1.394c.347.616.69 1.243.73 2.18.137.906.166 1.694.06 2.067a2.666 2.666 0 0 1-.696 1.23c-.3.36-.703.636-1.21.864l-.8-2.373c.294-.147.606-.363.633-.618s.164-.684.108-.966c-.082-.664-.34-.968-.776-1.24-.436-.27-1.07-.346-1.903-.22-.886.133-1.494.394-1.824.784-.33.39-.46.883-.36 1.478.042.283.123.647.243.79.122.246.306.62.662.82l.77-.114zm6.41 12.014l-.226 2.642-4.916-.438a4.16 4.16 0 0 1-1.362-.36 2.994 2.994 0 0 1-1.072-.816c-.296-.363-.493-.714-.692-1.082-.14-.61-.18-1.113-.117-1.807.036-.4.103-.836.202-1.306.097-.47.244-.866.44-1.16a2.99 2.99 0 0 1 .79-.81c.33-.237.662-.39.997-.468.64-.112 1.01-.16 1.416-.113l4.916.438-.227 2.642-6.032-.46c-.46-.04-.812.066-1.087.28-.276.228-.432.663-.47 1.006-.04.44.064.794.28 1.066.228.272.67.428 1.027.47zm-9.16 8.766l.91-2.767-1.172-.807.817-2.483 6.89 6.64-.87 2.66-8.836.37.836-2.643zm1.87.06l3.11.06-2.642-1.792zm2.96 6.73l-1.46 2.436-3.266-.003 1.638 2.87-1.46 2.42-2.473-6.232-2.974-1.782 1.318-2.198 2.973 1.782z"/>
  <g fill="#009b3a" stroke="#000" stroke-width=".146">
    <path d="M328.117 211.346s23.36 10.06 19.272 30.847c-4.078 20.787-17.078 20.647-22.174 22.946-6.098 2.297-8.614 6.686-10.626 6.126-2.01-.46-4.67-2.012-4.67-2.012s-.212 3.416 3.882 4.037c4.094.62 9.476-6.388 12.06-6.066 2.686-.668 18.466-2.39 22.318-23.64 4.607-22.68-19.917-30.68-20.06-31.344z"/>
    <path d="M339.9 216.768a3.206.76 76.104 0 1-1.64.118 3.206.76 76.104 1 1 1.64-.118z"/>
    <path d="M339.1 216.986a3.303.737 63.336 1 1-1.393.61 3.303.737 63.336 0 1 1.392-.61zm-2.343 1.642a3.128.778 17.063 0 1-.146 1.68 3.128.778 17.063 0 1 .147-1.68z"/>
    <path d="M337.107 216.67a3.29.74 34.226 1 1-.672 1.332 3.29.74 34.226 1 1 .672-1.332z"/>
    <path d="M338.096 216.262a3.344.727 46.194 1 1-1.017 1.042 3.344.727 46.194 0 1 1.016-1.042z"/>
    <path d="M339.726 219.2c.013.016-.9.61-1.108.682-.207.074-.488-.276-1.083.03-.696.306-1.004.863-1.134 1.19-.13.327.17.464.888.114.72-.36.91-.904 1.266-1.12.347-.218.93-.637 1.26-.666.143-.312.61-.983.86-1.37.24-.384 1.186-1.02 1.63-1.76.3-.612.186-1.133-.216-.916-.403.217-.922.833-1.164 1.276-.242.44-.036 1.004-.303 1.418-.212.3-.723 1.212-.778 1.213zm7.229 2.386a1.08 4.807-1.686 1 1-2.17-.62 1.08 4.807-1.686 1 1 2.17.62z"/>
    <path d="M346.747 221.643a6.008 1.036 77.49 1 1-2.097.106 6.008 1.036 77.49 1 1 2.097-.106z"/>
    <path d="M342.008 222.706a4.666 1.112 34.91 1 1-.726 2.198 4.666 1.112 34.91 1 1 .726-2.198z"/>
    <path d="M342.766 221.644a4.99 1.04 60.904 0 1-1.37 1.607 4.99 1.04 60.904 1 1 1.37-1.606z"/>
    <path d="M344.277 221.6a6.096 1.018 61.837 1 1-1.762 1.036 6.096 1.018 61.837 1 1 1.762-1.037z"/>
    <path d="M346.667 226.43c.016.026-1.416.324-1.726.337-.31.013-.683-.613-1.61-.442-.924.17-1.676.786-1.963 1.197-.288.41.08.74 1.192.66 1.11-.178 1.667-.887 2.11-1.042.662-.166 1.463-.363 1.96-.374.303-.384 1.17-1.137 1.63-1.68.462-.446 1.98-.933 2.702-1.84.618-.74.636-1.638.007-1.406-.63.132-1.662.78-2.033 1.306-.482.624-.38 1.423-.89 1.896-.392.336-1.403 1.413-1.48 1.39zm6.193 4.843a1.074 4.828 8.74 1 1-2.026-.93 1.074 4.828 8.74 1 1 2.026.93z"/>
    <path d="M349.6 230.983a1.03 6.04-2.06 1 1-2.067-.3 1.03 6.04-2.06 1 1 2.068.3z"/>
    <path d="M346.732 231.42a4.688 1.106 46.026 1 1-1.106 2.03 4.688 1.106 46.026 1 1 1.106-2.03z"/>
    <path d="M346.663 230.617a6.026 1.032 61.79 1 1-1.63 1.324 6.026 1.032 61.79 1 1 1.63-1.323z"/>
    <path d="M348.147 230.663a6.136 1.01 72.643 1 1-1.9.687 6.136 1.01 72.643 1 1 1.9-.687z"/>
    <path d="M348.626 236.768c.008.028-1.442.048-1.76 0-.306-.046-.46-.717-1.394-.726-.936-.01-1.78.464-2.136.804-.366.36-.066.746 1.064.783 1.118.037 1.682-.677 2.26-.626.667-.047 1.494-.067 1.984.008.366-.322 1.348-.9 1.88-1.26.63-.36 2.102-.64 2.97-1.296.738-.616.898-1.4.26-1.39-.638.01-1.667.476-2.222.9-.666.426-.628 1.333-1.21 1.7-.446.267-1.627 1.127-1.697 1.09m2.616 6.298a1.074 4.83 31.31 0 1-1.472-1.7 1.074 4.83 31.31 0 1 1.473 1.7"/>
    <path d="M360.096 241.324a1.022 6.072 20.618 0 1-1.767-1.132 1.022 6.072 20.618 0 1 1.766 1.132m-3.666-1.192a4.764 1.088 69.934 0 1-1.79 1.426 4.764 1.088 69.934 0 1 1.79-1.426"/>
    <path d="M347.623 239.68a1.016 6.107-4.863 0 1-1.99.664 1.016 6.107-4.863 1 1 1.99-.663"/>
    <path d="M348.917 240.437a.996 6.206 6.66 1 1-1.987-.148.996 6.206 6.66 1 1 1.987.147"/>
    <path d="M347.274 246.324c-.003.03-1.324-.66-1.684-.72-.26-.172-.138-.867-.98-1.262-.846-.396-1.79-.314-2.247-.137-.468.177-.34.67.66 1.166.998.498 1.747.162 2.28.362.632.19 1.378.666 1.793.828.466-.147 1.67-.276 2.186-.38.618-.106 2.116.368 3.196.026.907-.266 1.366-.926.776-1.18-.682-.266-1.686-.247-2.36-.086-.678.16-1.087.976-1.768 1.077-.6.063-1.91.37-1.968.307m.867 7.696a1.267 6.6 48.467 1 1-1.063-2.41 1.267 6.6 48.467 1 1 1.062 2.41"/>
    <path d="M347.332 261.87a1.194 6.792 37.466 1 1-1.66-1.886 1.194 6.792 37.466 1 1 1.66 1.886"/>
    <path d="M343.696 249.223a1.248 6.64-3.478 1 1-2.44.927 1.248 6.64-3.478 1 1 2.44-.927"/>
    <path d="M346.16 249.16a1.173 6.896 11.633 0 1-2.372-.11 1.173 6.896 11.633 1 1 2.372.11"/>
    <path d="M346.328 260.444a1.167 6.978 22.12 1 1-2.14-.882 1.167 6.978 22.12 1 1 2.14.882"/>
    <path d="M342.91 266.26c-.013.03-1.276-1.09-1.606-1.37-.23-.282.13-.996-.67-1.736-.798-.74-1.864-.994-2.426-.964-.662.03-.694.616.342 1.626.936.91 1.87.81 2.396 1.212.624.403 1.336 1.112 1.702 1.663.66.002 1.818.264 2.63.37.714.108 2.206 1.173 3.607 1.186 1.086.037 1.797-.63 1.24-1.022-.666-.49-1.772-.88-2.67-.948-.798-.067-1.616.684-2.288.663-.67-.122-2.223-.28-2.266-.37m-2.298 7.346a1.407 6.066 79.762 1 1 .29-2.906 1.407 6.066 79.762 1 1-.29 2.904"/>
    <path d="M340.496 261.048a1.343 6.366 68.604 0 1-.478-2.696 1.343 6.366 68.604 0 1 .478 2.696"/>
    <path d="M338.416 266.423a1.403 6.086 26.238 0 1-2.86-.63 1.403 6.086 26.238 1 1 2.86.63"/>
    <path d="M339.87 267.208a1.323 6.46 41.823 0 1-2.23-1.476 1.323 6.46 41.823 0 1 2.23 1.476"/>
    <path d="M340.292 269.128a1.306 6.638 62.67 1 1-1.683-2.076 1.306 6.638 62.67 0 1 1.682 2.076"/>
    <path d="M334.367 261.717c-.03.023-.637-1.773-.706-2.173-.067-.4.668-.87.302-2.038-.366-1.166-1.267-2.023-1.816-2.32-.66-.296-.91.242-.603 1.66.406 1.406 1.364 1.86 1.66 2.637.284.686.68 1.83.788 2.47.63.32 1.61 1.303 2.24 1.817.63.614 1.49 2.39 2.738 3.164 1.03.662 2.026.634 1.767-.266-.27-.79-1.23-1.864-1.963-2.39-.734-.626-1.837-.226-2.61-.797-.483-.446-1.993-1.663-1.976-1.666"/>
    <path d="M330.766 267.986a1.763 6.137 89.068 0 1 .01-3.626 1.763 6.137 89.068 0 1-.01 3.626"/>
    <path d="M329.96 262.474a1.704 6.36 37.687 0 1-2.616-2.188 1.704 6.36 37.687 1 1 2.616 2.188"/>
    <path d="M330.808 266.28a1.742 6.213 66.472 0 1-1.246-3.266 1.742 6.213 66.472 0 1 1.246 3.266m1.672-63.411a3.812.776 41.126 0 1-1.446.788 3.812.776 41.126 1 1 1.447-.788m-1.876 1.686a3.86.766 8.163 0 1 .293 1.686 3.86.766 8.163 1 1-.293-1.686"/>
    <path d="M331.36 212.462a4.038.732 26.817 1 1-.766 1.262 4.038.732 26.817 0 1 .766-1.262m-27.666 49.666s6.144 1.103 9.616 2.728c4.47 1.626 11.264 7.203 13.09 7.62 2.048.092 4.888-.607 6.966-3.666-3.164.843-6.046 2.12-8.066.466-1.064-.403-4.648-3.676-8.367-6.272-3.82-1.698-11.62-3.634-11.62-3.634l-.727 1.768m6.484-46.603c-.02-.044 6.92-3.123 6.92-3.123l-6.63 1.67-.767 1.148 1.366.306"/>
    <path d="M314.794 216.946c-2.292-.417-6.817-1.187-8.062-1.367 1.662-1.72 3.69-4.626 6.007-6.408-.87 1.7-2.237 3.944-2.776 6.672 1.68.863 4.064 1.62 6.83 2.202"/>
    <path d="M308.117 216.87c-.026-.04 6.26-4.074 6.26-4.074l-6.11 2.734-.643 1.263 1.393.077"/>
    <path d="M313.732 216.888c-2.308-.44-6.86-1.248-8.116-1.442 1.624-1.77 3.614-4.764 4.902-6.603-.84 1.766-2.168 4.068-2.678 6.76 1.602.886 4.107 1.686 6.892 2.296"/>
    <path d="M307.246 216.204c-.016-.046 6.196-2.694 6.196-2.694l-6.67 1.098-.863 1.076 1.338.42"/>
    <path d="M313.034 216.946c-2.336-.194-6.943-.63-8.197-.68 1.3-1.966 3.014-6.238 4.072-7.247-.626 1.874-1.667 4.37-1.974 6.134 1.69.727 4.248 1.166 6.098 1.692"/>
    <path d="M306.606 216.233c-.034-.034 4.197-6.114 4.197-6.114l-6.318 3.976-.247 1.366 1.368-.22"/>
    <path d="M313.006 217.28c-2.602-.047-6.38-.267-8.772-.066 1.183-2.237 2.677-6.93 3.6-8.196-.477 2.09-1.332 4.887-1.48 6.834 1.867.676 4.633.97 6.662 1.417"/>
    <path d="M306.76 217.44c-.03-.044 6.098-4.89 6.098-4.89l-6.167 3.413-.422 1.46 1.493.018"/>
    <path d="M311.886 217.44c-2.688.01-6.827-.136-9.46.16 1.74-2.496 4.116-6.6 6.68-9.12-.946 2.316-2.46 6.418-3.012 7.667 1.876.696 4.796.964 6.882 1.394"/>
    <path d="M304.046 217.804c-.026-.048 6.61-6.614 6.61-6.614l-7.36 3.913-.767 1.62 1.607-.02"/>
    <path d="M310.91 217.6c-2.662.386-6.784.818-9.34 1.47 1.366-2.673 3.133-7.006 4.223-9.666-.606 2.39-1.66 6.623-1.9 7.796 1.967.417 4.888.262 7.017.4"/>
    <path d="M303.172 218.896c-.038-.04 6.016-6.948 6.016-6.948l-6.26 6.66-.336 1.734 1.68-.446"/>
    <path d="M309.44 218.43c-2.68.26-6.82.476-9.41.997 1.614-2.6 3.622-6.836 4.76-9.437-.74 2.364-1.964 6.63-2.336 7.687 1.932.616 4.868.607 6.987.763"/>
    <path d="M302.27 219.623c-.026-.06 6.386-6.626 6.386-6.626L301.41 218l-.732 1.632 1.692-.01"/>
    <path d="M308.666 218.706c-2.672.664-6.818 1.278-9.37 2.098 1.248-2.73 2.817-7.122 3.786-9.82-.493 2.396-1.387 6.666-1.632 7.816 2 .274 4.966-.083 7.116-.094"/>
    <path d="M301.208 219.913c-.043-.03 4.08-7.674 4.08-7.674l-6.622 6.66-.09 1.73 1.632-.707"/>
    <path d="M308.666 219.143c-2.867.746-7.336 1.723-10.04 2.76 1.04-3.103 2.228-8.077 2.963-11.134-.26 2.697-.836 6.378-.73 8.796 2.23.22 6.434-.307 7.806-.414"/>
    <path d="M300.408 221.66c-.043-.046 6.14-7.692 6.14-7.692l-6.672 6.136-.277 1.916 1.708-.46"/>
    <path d="M307.62 220c-2.817.892-7.217 2.1-9.86 3.26.888-3.123 1.838-8.103 2.427-11.162-.122 2.68-.632 6.348-.316 8.73 2.23.1 6.394-.694 7.76-.827"/>
    <path d="M299.376 222.78c-.06-.036 3.907-8.38 3.907-8.38l-6.664 7.216.026 1.927 1.622-.764"/>
    <path d="M306.446 221.16c-2.887.668-7.378 1.6-10.116 2.44 1.168-3.038 2.666-7.924 3.43-10.926-.366 2.66-1.106 6.284-1.107 8.678 2.213.28 6.426-.162 7.792-.192"/>
    <path d="M298.446 223.68c-.036-.063 6.382-6.66 6.382-6.66l-7.624 4.867-.613 1.842 1.766-.14"/>
    <path d="M306.166 222.284c-2.86.384-7.298.798-10.028 1.484 1.327-2.978 2.993-7.812 4.022-10.782-.622 2.672-1.468 6.287-1.616 8.723 2.143.603 6.307.38 7.62.674"/>
    <path d="M297.18 222.924c-.048-.04 4.342-8.206 4.342-8.206l-6.89 6.904-.093 1.966 1.64-.666"/>
    <path d="M306.614 221.31c-3.11 1.273-7.968 3.048-10.882 4.618.966-3.692 1.963-9.64 2.688-13.136-.112 3.116-.633 7.4-.273 10.14 2.47-.077 6.963-1.16 8.667-1.622"/>
    <path d="M296.683 226.412c-.06-.044 6.198-9.416 6.198-9.416l-6.86 7.967-.19 2.226 1.863-.776"/>
    <path d="M304.32 222.473c-3.046 1.433-7.816 3.46-10.666 6.172.79-3.692 1.636-9.612 1.998-13.088.027 3.074-.202 7.318.18 10.006 2.46-.218 6.9-1.476 8.478-2.09"/>
    <path d="M296.62 226.837c-.066-.033 3.794-10.133 3.794-10.133l-6.677 9.06.144 2.194 1.74-1.11"/>
    <path d="M302.983 223.317c-3.04 1.467-7.8 3.62-10.63 6.266.766-3.696 1.476-9.617 1.916-13.096.046 3.072-.167 7.316.242 9.997 2.46-.238 6.896-1.623 8.47-2.167"/>
    <path d="M294.663 228.044c-.047-.06 6.868-8.936 6.868-8.936l-7.398 7.312-.36 2.216 1.89-.694"/>
    <path d="M302.706 222.862c-2.71 2.164-7 6.344-9.443 7.722-.004-3.73-.604-9.48-.806-13.016.68 2.928 1.366 7.04 2.304 9.604 2.39-.86 6.626-2.96 7.944-4.21"/>
    <path d="M294.964 228.466c-.066-.01.68-10.707.68-10.707l-2.828 10.41.79 1.96 1.368-1.664"/>
    <path d="M301.936 223.84c-2.718 2.16-7.018 6.31-9.47 7.676.01-3.732-.466-9.487-.762-13.026.668 2.932 1.326 7.06 2.264 9.62 2.39-.84 6.634-2.923 7.968-4.17"/>
    <path d="M294.27 230.284c-.06-.026 2.736-10.462 2.736-10.462l-4.732 9.62.373 2.16 1.624-1.308"/>
    <path d="M301.63 224.088c-2.67 2.63-6.66 6.286-8.93 9.006-.403-3.828-1.634-9.67-2.223-13.266 1.016 2.926 2.162 7.067 3.396 9.488 2.377-1.147 6.392-3.66 7.767-6.23"/>
    <path d="M294.286 231.623c-.068-.01.61-11.127.61-11.127l-2.732 10.81.86 2.04 1.372-1.723"/>
    <path d="M300.816 226.936c-2.76 2.273-7.104 6.618-9.674 8.11-.086-3.876-.727-9.846-1.116-13.617.766 3.036 1.663 7.302 2.687 9.864 2.447-.906 6.636-3.116 8.106-4.447"/>
    <path d="M293.47 232.888c-.06-.036 3.874-10.466 3.874-10.466l-6.81 9.273.163 2.297 1.783-1.104"/>
    <path d="M300.772 226.98c-2.433 2.673-6.308 6.393-8.46 9.167-.383-3.88-1.46-9.802-2.116-13.444.966 2.966 2.046 7.16 3.226 9.612 2.262-1.17 6.108-3.728 7.36-6.326"/>
    <path d="M293.616 233.426c-.068 0-.468-11.066-.468-11.066l-1.79 11.022 1.026 1.916 1.223-1.87"/>
    <path d="M299.68 226.808c-2.366 2.697-6.112 6.463-8.18 9.24-.497-3.883-1.746-9.802-2.608-13.442 1.06 2.96 2.263 7.162 3.606 9.696 2.214-1.19 4.99-3.773 7.182-6.392"/>
    <path d="M292.99 234.632c-.062-.02 1.236-11.24 1.236-11.24l-3.296 10.63.667 2.186 1.403-1.676"/>
    <path d="M299.07 227.244c-2.162 2.813-6.61 7.014-7.46 9.986-.792-3.812-2.487-9.678-3.624-13.124 1.273 2.84 2.79 6.894 4.226 9.202 2.12-1.4 4.696-4.24 6.768-6.064"/>
    <path d="M292.946 236.68c-.064-.004-.713-11.266-.713-11.266l-1.417 11.166 1.02 1.967 1.11-1.878"/>
    <path d="M298.862 227.884c-2.02 2.946-6.28 7.367-6.99 10.446-.99-3.796-2.984-9.613-4.206-13.03 1.423 2.794 3.163 6.796 4.71 9.044 2.06-1.62 4.604-4.616 6.486-6.46"/>
    <path d="M293.646 236.626c-.063-.02 1.146-11.304 1.146-11.304l-3.222 10.626.68 2.224 1.397-1.646"/>
    <path d="M298.446 228.932c-1.742 3.208-4.683 8.048-6.003 11.367-1.323-3.638-3.82-9.044-6.36-12.37 1.666 2.68 3.744 6.316 6.494 8.336 1.908-1.797 4.066-6.116 6.86-7.324"/>
    <path d="M293.262 237.667c-.063.018-3.16-10.72-3.16-10.72l1.068 11.3 1.424 1.693.668-2.173"/>
    <path d="M298.372 230.183c-1.816 3.2-4.772 8.024-6.267 11.323-1.33-3.627-3.864-9.017-6.4-12.333 1.69 2.672 3.798 6.298 6.68 8.312 1.974-1.792 4.217-6.1 6.077-7.302"/>
    <path d="M293.397 239.68c-.066 0-1.16-11.273-1.16-11.273l-1.044 11.273 1.128 1.932 1.077-1.933"/>
    <path d="M298.66 231.172c-1.866 3.166-4.9 7.91-6.437 11.176-1.272-3.668-3.707-9.107-6.2-12.46 1.66 2.612 3.696 6.388 6.446 8.443 2.003-1.746 4.3-6 6.193-7.168"/>
    <path d="M293.296 240.48c-.066.008-2.09-11.07-2.09-11.07l-.103 11.338 1.283 1.786.91-2.062"/>
    <path d="M297.76 232.772c-2.012 3.022-6.267 7.66-6.967 10.714-1.096-3.74-3.266-9.36-4.696-12.803 1.62 2.723 3.383 6.636 6.03 8.808 2.083-1.603 4.63-4.696 6.623-6.718"/>
    <path d="M292.32 241.717c-.064-.018.937-11.316.937-11.316l-3.083 10.73.744 2.186 1.403-1.6"/>
    <path d="M297.877 233.048c-1.72 3.273-4.636 8.22-6.924 11.68-1.436-3.668-4.116-8.847-6.766-12.096 1.764 2.6 3.98 6.132 6.82 8.07 1.92-1.876 4.066-6.276 6.86-7.666"/>
    <path d="M291.943 242.663c-.066.02-3.473-10.646-3.473-10.646l1.337 11.214 1.496 1.627.64-2.194"/>
    <path d="M297.412 233.892c-1.202 3.692-3.23 9.067-4.09 12.67-1.96-3.19-6.38-7.79-7.486-10.624 2.112 2.07 4.84 6.166 6.94 6.667 1.61-2.262 3.21-6.072 4.636-8.703"/>
    <path d="M296.026 243.62c-.064.024-3.76-10.4-3.76-10.4l1.644 11.164 1.637 1.466.68-2.22"/>
    <path d="M297.383 234.997c-1.176 3.606-3.164 9.1-4 12.714-1.972-3.17-6.436-7.734-7.66-10.646 2.127 2.047 4.876 6.106 6.99 6.683 1.692-2.278 3.166-6.106 4.67-8.76"/>
    <path d="M296.066 246.296c-.06.033-4.837-9.726-4.837-9.726l2.817 10.8 1.68 1.214.34-2.29"/>
    <path d="M297.02 236.9c-.762 3.74-2.092 9.476-2.606 13.176-2.323-2.86-6.284-6.89-8.716-9.37 2.346 1.724 6.424 4.36 7.69 6.624 1.32-2.487 2.44-6.606 3.63-9.33"/>
    <path d="M296.376 246.823c-.066.013-2.608-10.906-2.608-10.906l.43 11.322 1.366 1.693.812-2.11"/>
    <path d="M297.034 237.063c-.398 3.826-1.194 9.713-1.26 13.463-2.67-2.634-6.874-6.01-9.617-8.164 2.488 1.4 6.788 3.61 8.144 4.463 1.078-2.663 1.816-6.804 2.634-9.762"/>
    <path d="M296.606 247.623c-.06.06-6.896-7.874-6.896-7.874l6.197 9.636 1.9.66-.2-2.312"/>
    <path d="M297.18 238.4c-.414 3.824-1.233 9.707-1.313 13.446-2.66-2.66-6.86-6.06-9.486-8.207 2.484 1.413 6.776 3.642 8.128 4.607 1.088-2.646 1.842-6.793 2.67-9.746"/>
    <path d="M296.277 249.44c-.06.036-6.296-9.49-6.296-9.49l3.328 10.663 1.738 1.137.23-2.3"/>
    <path d="M297.486 239.972c-.262 3.846-.823 9.776-.746 13.617-2.663-2.392-7.092-6.63-9.812-7.628 2.637 1.263 6.914 3.29 8.3 4.013.974-2.71 1.663-6.9 2.267-9.903"/>
    <path d="M296.946 261.186c-.063.047-6.643-8.297-6.643-8.297l4.772 9.846 1.868.77-.097-2.32"/>
    <path d="M297.667 241.746c-.228 3.86-.763 9.784-.664 13.626-2.676-2.367-7.124-6.668-9.866-7.64 2.646 1.24 6.934 3.24 8.323 3.94.968-2.72 1.612-6.916 2.197-9.924"/>
    <path d="M297.643 262.697c-.062.03-4.688-10.003-4.688-10.003l2.64 10.96 1.66 1.316.398-2.263"/>
    <path d="M297.732 242.896c.13 3.862.162 9.84.698 13.662-2.874-1.997-7.686-4.684-10.478-6.18 2.64.893 6.188 2.426 8.623 2.802.697-2.837.866-7.088 1.267-10.176"/>
    <path d="M298.343 262.204c-.04.064-8.38-6.737-8.38-6.737l7.104 7.828 1.974.102-.697-2.193"/>
    <path d="M297.994 243.303c.333 3.844.667 9.802 1.308 13.484-2.983-1.882-7.836-4.283-10.816-6.764 2.69.79 6.323 2.184 8.78 2.467.66-2.863.488-7.096.728-10.188"/>
    <path d="M299.246 264.343c-.062.048-6.983-8.027-6.983-8.027l6.29 9.638 1.91.696-.217-2.307"/>
    <path d="M298.606 244.772c.494 3.828 1.078 9.773 1.873 13.42-3.062-1.706-7.988-3.816-11.02-6.12 2.713.63 6.392 1.807 8.863 1.942.43-2.89.186-7.133.296-10.242"/>
    <path d="M300.64 266.696c-.038.063-8.316-6.876-8.316-6.876l7.014 7.943 1.974.136-.673-2.206"/>
    <path d="M298.866 246.4c.746 3.784 1.72 9.676 2.762 13.26-3.146-1.417-8.188-3.06-11.286-4.078 2.737.373 6.47 1.2 8.923 1.104.232-2.93-.29-7.164-.39-10.276"/>
    <path d="M301.667 266.86c-.062.047-6.878-8.166-6.878-8.166l6.16 9.73 1.904.734-.187-2.31"/>
    <path d="M299.317 247.448c1.092 3.68 2.608 9.434 3.963 12.866-3.24-.994-8.38-1.962-11.64-2.663 2.74.007 6.608.336 8.926-.09-.046-2.96-.967-7.108-1.348-10.212"/>
    <path d="M301.92 266.874c-.014.076-9.608-2.06-9.608-2.06l9.138 4.644 1.846-.696-1.376-1.79"/>
    <path d="M299.943 248.697c1.077 3.686 2.67 9.447 3.912 12.886-3.238-1.013-8.376-2.01-11.63-2.628 2.74.02 6.607.37 8.926-.04-.033-2.96-.93-7.112-1.307-10.218"/>
    <path d="M303.492 267.892c-.03.068-9.194-4.44-9.194-4.44l8.246 6.684 1.976-.186-1.028-2.068"/>
    <path d="M299.463 249.237c1.826 3.368 4.496 8.662 6.627 11.71-3.368-.268-8.683-.07-11.79.04 2.676-.6 6.42-1.11 8.69-2.06-.666-2.884-2.404-6.74-3.427-9.69"/>
    <path d="M304.946 268.896c-.017.074-9.663-2.638-9.663-2.638l8.966 6.077 1.884-.676-1.298-1.863"/>
    <path d="M300.462 260.663c1.846 3.344 4.646 8.62 6.696 11.662-3.368-.23-8.678.003-11.78.14 2.668-.623 6.407-1.166 8.67-2.134-.676-2.88-2.446-6.724-3.486-9.667"/>
    <path d="M306.164 269.68c-.034.066-8.903-6.326-8.903-6.326l7.78 7.444 2 .02-.876-2.14"/>
    <path d="M301.194 261.606c2.137 3.122 6.302 8.073 7.61 10.866-3.33.21-8.424 1.122-11.667 1.676 2.662-.974 6.18-2.006 8.308-3.276-.94-2.807-3.063-6.44-4.36-9.264"/>
    <path d="M306.808 260.466c-.003.08-9.61-.226-9.61-.226l9.608 2.81 1.69-1.06-1.688-1.634m6.672-46.66c0-.03 6.913-1.163 6.913-1.163l-6.88.16-1.2.617 1.166.376"/>
    <path d="M316.176 216.376c-2.006-.606-6.038-1.62-7.097-2.07 2.187-.87 6.426-2.41 7.42-3.367-1.636.96-3.764 2.192-4.962 3.166 1.148.78 3.23 1.676 4.628 2.272"/>
    <path d="M312.074 214.14c-.008-.03 6.69-1.84 6.69-1.84l-6.93.886-1.046.717 1.286.237"/>
    <path d="M316.496 216.87c-2.344-.22-6.94-.67-8.262-.694 1.743-1.643 4.186-4.124 6.69-6.71-1.034 1.49-2.626 3.467-3.31 4.876 1.67.63 4.093 1.063 6.872 1.628"/>
    <path d="M309.686 214.62c.006-.032 6.962-.786 6.962-.786l-6.773-.217-1.267.667 1.09.446"/>
    <path d="M314.736 216.132c-2.132-.408-6.37-1.118-7.626-1.37 2.048-1.006 6.033-2.736 6.87-3.798-1.37 1.036-3.396 2.39-4.42 3.4 1.298.643 3.642 1.223 6.076 1.768"/>
    <path d="M308.99 214.646c-.018-.026 6.12-2.633 6.12-2.633l-6.703 1.77-.803.816 1.386.048"/>
    <path d="M314.632 216.902c-1.774-.732-4.49-1.973-6.246-2.49 1.36-1.263 3.274-3.48 4.463-4.838-.82 1.368-2.076 3.114-2.63 4.46 1.18 1.003 3.084 1.987 4.422 2.87"/>
    <path d="M309.34 214.997c-.014-.04 4.76-2.063 4.76-2.063l-6.186.71-.637.924 1.06.43m-3.984 44.682c.004.076-9.867.073-9.867.073l9.99 2.443 1.64-1.074-1.763-1.443"/>
    <path d="M307.128 260.22c-.01.07-10.02-2.332-10.02-2.332l9.622 4.718 1.886-.607-1.488-1.78"/>
    <path d="M308.772 260.888c0 .076-9.96-.6-9.96-.6l9.96 2.997 1.706-.967-1.706-1.63"/>
    <path d="M302.46 263.863c2.687 2.862 6.466 7.397 9.18 9.913-3.34.606-8.374 1.866-11.47 2.68 2.46-1.182 6.983-2.616 7.964-3.947-1.334-2.666-3.967-6.01-6.676-8.647"/>
    <path d="M310.14 261.397c-.02.07-9.946-3.264-9.946-3.264l9.344 6.666 1.967-.414-1.368-1.89"/>
    <path d="M303.376 264.617c2.82 2.673 7.076 6.703 9.986 8.918-3.202.922-7.962 2.91-10.89 4.126 2.272-1.6 6.663-3.286 7.342-4.98-1.68-2.626-4.496-6.6-6.437-8.063"/>
    <path d="M310.964 262.008c.016.077-9.437 1.866-9.437 1.866l9.944.677 1.406-1.386-1.91-1.147"/>
    <path d="M308.99 261.412c.01.076-9.842.766-9.842.766l10.166 1.746 1.666-1.184-1.868-1.316"/>
    <path d="M310.808 261.936c-.007.073-10.177-1.63-10.177-1.63l9.96 4.037 1.837-.736-1.62-1.672z"/>
    <path d="M312.496 262.488c.006.076-9.968.187-9.968.187l10.166 2.302 1.63-1.08-1.817-1.41z"/>
    <path d="M306.66 266.914c2.797 2.664 7.008 6.927 9.908 9.246-3.298.734-8.22 2.428-11.248 3.463 2.367-1.347 6.783-2.92 7.663-4.484-1.632-2.666-4.41-6.716-6.314-8.226z"/>
    <path d="M313.906 262.896c-.013.07-10.17-2.667-10.17-2.667l9.746 4.893 1.924-.646-1.498-1.79z"/>
    <path d="M306.634 266.496c3.008 2.37 7.666 6.193 10.636 8.2-3.128 1.14-7.73 3.46-10.662 4.862 2.166-1.66 6.307-3.667 6.966-6.468-1.766-2.41-4.907-6.276-7.03-7.696z"/>
    <path d="M314.766 263.448c.02.076-9.28 2.6-9.28 2.6l9.976-.01 1.298-1.478-1.993-1.01z"/>
  </g>
  <path d="M327.68 249.484l-7.68-6.238-7.68 6.238 2.842-8.38-6.633-6.24h8.626l2.843-8.382 2.84 8.382h8.63l-6.634 6.24 2.843 8.38z" fill="#fedf00" stroke="#000" stroke-width=".436"/>
</svg>
