<svg xmlns="http://www.w3.org/2000/svg" height="480" width="640">
  <defs>
    <clipPath id="a">
      <path fill-opacity=".67" d="M-86.333 0h682.67v612h-682.67z"/>
    </clipPath>
  </defs>
  <g clip-path="url(#a)" fill-rule="evenodd" transform="translate(80) scale(.9376)">
    <path fill="#199d00" d="M-128 0h768v612h-768z"/>
    <path d="M66.64 146.13c-.887 11.961-1.96 33.011 8.213 36.17 12.293 1.182 6.614-20.806 9.964-24.793.841-1.97 2.392-1.98 2.62.606v18.66c-.112 6.066 3.876 7.862 6.972 9.106 3.224-.249 6.376-.141 6.639 2.996l1.612 32.261s7.476 2.14 7.832-18.146c.367-11.91-2.38-21.88-.776-24.198.066-2.277 2.964-2.413 4.98-1.303 3.214 2.266 4.646 6.066 9.639 3.946 7.698-2.094 12.166-6.79 12.278-11.624-.444-6.646-1.066-11.09-3.468-16.636.336-1.009-1.467-3.621-1.133-4.63 1.366 2.139 3.444 1.961 3.916 0-1.293-4.261-3.3-8.344-6.663-10.112-2.688-2.368-6.623-1.884-8.064 3.066-.667 6.692 2.062 12.466 6.197 17.968.88 2.164 2.117 6.733 1.673 8.966-2.206 1.269-4.411.734-6.269-1.217 0 0-6.048-4.636-6.048-6.644 1.606-10.276.366-11.441-.633-14.293-.622-3.937-2.49-6.199-4.003-7.888-1.613-1.604-3.66-1.604-4.638 0-2.674 4.636-1.427 14.683.604 19.04 1.396 4.098 3.628 6.67 2.62 6.67-.829 2.316-2.644 1.781-3.792-.892-1.782-6.626-2.139-13.769-2.139-17.48-.634-4.603-1.122-14.42-4.161-16.914-1.848-2.616-4.687-1.289-6.644 1.008-.199 4.668-.22 9.136.296 13.346 2.077 7.383 2.73 13.876 3.738 21.437.28 10.128-6.866 4.394-6.676-.627 1.416-6.622 1.048-16.788-.21-19.39-.996-2.602-2.173-3.244-4.697-2.816-1.926-.117-6.878 6.291-8.269 14.262 0 0-1.186 4.618-1.691 8.718-.68 4.633-3.73 7.903-6.87-.662-1.848-6.217-2.984-21.624-6.08-17.939z" fill="#fff"/>
    <path d="M98.944 194.21c-10.848 6.303-21.339 10.26-32.01 16.376.39-7.266 16.219-20.364 26.331-20.638 6.682.184 4.928 2.66 6.679 6.164z" fill="#fff"/>
    <path d="M93.362 204.24c-16.87 43.487 39.606 49.646 46.806 1.781.693-1.96 2.97-3.92 3.386-.713-1.307 43.248-43.606 46.22-60.794 32.614-1.781-3.207-2.317-10.336-2.496-14.614-1.07-8.494-6.624-6.227-6.237 3.208-.714 4.693-.636 6.002-.636 10.616 2.267 34.169 66.736 19.486 66.687-8.733 4.693-16.626-.773-27.149 1.781-27.09 6.407 6.822 12.96.772 14.614-1.248.714-1.01 2.497-1.662 3.744-.366 4.217 3.032 11.646 1.603 13.189-3.743.892-6.228 1.606-10.634 1.783-16.217-3.447 1.07-6 1.781-6.238 3.208l-.713 4.633c-.296 1.486-3.269 1.644-3.386-.367-1.307-6.941-6.713-6.713-9.981 2.496-2.199 1.782-6.178 2.139-6.696-.634.634-6.179-1.961-7.011-6.96-4.1-1.606-12.238-3.208-23.94-4.813-36.179 2.08-.06 3.982 1.484 6.884-.892-2.082-6.474-6.477-19.723-8.914-20.674-1.188-1.426-2.2-.634-3.742-.178-2.614.832-6.06 3.09-4.279 7.486 3.09 18.772 6.11 33.09 8.2 61.863.474 2.198-1.367 6.107-3.743 4.81-4.04-2.732-6.047-8.266-11.94-8.02-4.991.06-10.696 6.466-11.407 10.696-.832 4.166-1.13 8.67-.002 12.296 3.607 4.217 7.726 3.803 11.408 2.862 3.03-1.247 6.624-4.277 6.694-3.666.714.892.177 10.87-14.269 18.636-8.732 3.92-16.684 4.813-19.426-2.317-2.317-4.466.178-21.387-6.627-17.466z" fill="#fff"/>
    <path d="M164.91 160.03c3.386-1.248 19.429-19.604 19.429-19.604-.833-.713-1.676-1.248-2.408-1.961-.892-.772-.802-1.644 0-2.317 3.98-2.316 2.703-7.396.624-9.712-3.446-1.646-6.446-1.04-8.646.088-2.792 2.674-3.444 6.96-1.246 9.624 2.14 1.01 4.277 3.179 2.86 4.367-6.663 7.01-24.636 19.1-22.466 19.616.444.694 11.496.664 11.86 0zM68.036 226c-6.016 9.684-6.64 23.903-3.22 28.172 1.764 2.017 4.662 2.9 6.806 2.269 3.78-1.64 6.434-9.298 4.637-12.1-1.262-1.974-2.266-2.287-3.616-.607-2.66 6.4-3.764 1.696-3.997-1.323-.408-6.723.131-10.994.762-16.168.662-4.278-.01-2.97-1.363-1.243zM326.12 209.66c-6.817-12.621-13.87-24.894-16.432-29.647-2.662-4.766-21.906-32.827-24.762-36.984-6.284-7.467 10.204 3.11-2.086-11.716-4.686-4.02-4.968-4.266-8.847-7.646-1.962-1.392-6.762-3.936-7.6.28-.427 3.717-.197 6.732.427 8.827.48 2.063 3.486 6.618 4.963 7.62 19.626 26.38 37.027 63.02 63.808 86.616 2.66-1.26 2.07-16.166.62-18.26z" fill="#fff"/>
    <path d="M299.69 261.64c-1.144 1.284 2.824 6.776 7.98 6.77 8.624-1 16.216-6.844 23.244-18.696 1.88-2.974 6.184-9.334 6.28-14.267.668-28.926-1.447-61.433-6.781-72.34-.278-2.036-.109-4.43.236-6.04.669-.667 2.462.003 3.467-1.644 1.474-1.606-3.914-13.97-6.986-18.771-1.09-2.144-1.47-3.676-3.276.262-1.899 3.11-3.174 8.638-3.026 13.61 4.114 28.483 6.378 63.399 8.066 81.882.22 2.764-.186 6.767-2.017 8.363-6.772 7.072-16.648 16.777-27.178 19.79zM416.08 261.39c-6.189 3.677-6.196 7.692-1.192 7.841 8.623-1.001 18.813-1.717 26.84-12.329 1.881-2.974 4.116-11.016 4.212-16.948.667-28.926-.378-60.616-4.712-71.42-.277-2.037-1.178-6.724-.834-7.336.669-1.432 3.37.166 4.376-1.492 1.473-1.604-7.278-12.747-10.36-17.648-1.09-2.143-1.47-3.676-3.276.262-1.9 3.111-2.663 8.692-1.803 13.611 4.673 30.928 7.977 64.163 8.679 81.676-.394 2.602-.492 4.006-1.712 7.283-2.699 3.46-6.689 7.786-8.493 9.876-2.803 2.09-8.786 4.086-10.736 6.636z" fill="#fff"/>
    <path d="M420.72 223.66c-.071-7.233.102-13.479-.136-18.873-.238-6.396-1.191-9.788-3.068-13.617-1.767-4.106-.67-7.406-1.6-11.779-.829-4.372-.626-10.92-1.878-16.108-.343-2.026-1.396-8.616-1.07-9.137.61-1.448 2.466.046 3.406-1.633 1.423-1.662-4.937-18.008-8.163-22.707-1.16-2.107-3.267-1.386-6.864 2.04-2.41 2.266-1.616 7.396-.696 12.286 6.188 32.291 10.803 61.618 9.796 92.267-.309 2.614 9.127-7.796 9.063-12.729zM376 183.61c-3.892-.071-12.044-7.674-14.423-11.97-.899-2.621-.322-4.981.47-6.422 1.441-.937 3.669-1.99 6.316-.98 0 0 1.719 2.404 1.386 2.71 2.126 1.018 3.027.432 3.243-.432.146-1.614-.628-2.416-.637-4.083.901-4.62 6.068-6.223 8.014-2.34 1.424 1.767 1.946 6.492 2.162 8.013-.023 1.288-2.109-.223-3.293.087-1.186.31-1.471 1.678-1.663 2.916-.216 3.278-.603 8.638-.676 12.601zM303.17 231.68c1.072-9.828-.396-27.331-.494-33.13-.394-13.7-2.631-40.162-3.696-44.683-1.2-8.333 3.427.914 2.786-3.93-1.6-8.321-6.116-13.962-11.642-21.684-1.76-2.48-1.69-2.986-4.391.608-2.99 6.78-.41 11.446.363 16.726 3.913 17.206 6.196 33.037 7.269 48.687 1.063 16.66 1.39 32.672.419 49.066 2.932.116 7.647-4.744 9.296-11.86z" fill="#fff"/>
    <path d="M433.97 216.94c-6.863-11.616-17.219-23.987-19.986-28.624-2.766-4.638-26.166-34.83-29.148-37.86-8.66-8.993 3.926-1.464-1.639-8.41-4.707-6.168-6.08-6.79-10.108-9.898-2.02-1.306-3.244-3.798-3.908.46-.264 3.732-.64 8.06-.289 11.196-.014 1.749 1.807 6.034 3.37 6.97 20.766 26.6 43.393 61.637 61.617 84.27 2.693-1.376 1.731-16.067.091-18.093z" fill="#fff"/>
    <path d="M122.69 194.69c-.494.866-1.694 1.988-1.226 3.149.77 1.044 1.386 1.266 2.67 1.313 1.114 0 2.67.263 3.006-.394.6-.66 1.066-2.009.666-3.281-1.16-2.9-4.4-1.82-6.006-.787z" fill="#1ba400"/>
    <path d="M364.17 362.64c9.178.338 16.186.419 23.348 1.39 0 0 7.04-.696 9.663-1.076 10.626-1.014 11.096 16.176 11.096 16.176-.116 9.496-3.781 9.992-8.46 10.996-2.673.34-4.078-1.601-6.483-3.668-1.763.738-4.16.844-7.064.441-3.826-.24-7.66-.224-11.474-.463-4.063-.368-6.224.423-10.288.066-.837 1.316-1.926 3.136-4.41 2.66-2.068-.229-4.617-6.033-3.796-10.446 1.493-3.164 1.083-2.146.927-3.637-37.626-.966-76.41-2.629-112.22-2.16-28.8.119-67.244 1.314-86.687 2.61-16.177-.24-26.769-2.63-34.776-14.342.717 0 38.72 2.161 49.836 1.434 20.666-.24 39.317-1.912 60.231-2.61 41.23.717 82.103.718 123.33 3.686-3.944-2.698-4.086-9.071 1.986-10.629.616-.366.782 3.169 1.69 3.103 4.867-.364 2.727 6.214 1.669 7.67zM188.64 136.28c-6.248 17.869 3.68 37.394 10.394 36.492 4.916 2.036 8.046-7.317 10.069-17.663 1.377-2.876 2.417-3.182 3.124-1.704-.181 13.626.979 16.643 4.482 20.779 7.814 6.029 14.278.77 14.786.262l6.084-6.084c1.364-1.426 3.167-1.608 6.07-.263 1.869 1.69 1.698 4.608 6.677 6.632 3.36 1.34 10.61.31 12.17-2.676 2.232-3.826 2.768-6.14 3.802-6.691 1.693-2.121 4.31-1.178 4.31-.608-.264 1.183-1.848 2.367-.76 4.497 1.894 1.421 2.332.607 3.463.191 3.964-1.896 6.94-10.618 6.94-10.618.176-3.208-1.622-2.943-2.788-2.282-1.621.93-1.62 1.227-3.142 2.167-1.938.288-6.698 1.673-7.667-1.306-1.898-3.461-1.924-8.29-3.376-11.78 0-.264-2.618-6.498-.174-6.834 1.182.22 3.706.888 4.107-1.237 1.241-2.072-2.666-7.938-6.323-10.901-2.316-2.642-6.623-2.848-8.62-.263-2.168 1.996-1.866 4.224-2.282 6.337-.662 2.426-.434 6.411 2.029 8.62 2.164 4.267 6.113 9.763 4.816 17.491 0 0-2.306 3.663-6.326 3.176-1.676-.366-4.392-1.076-6.843-11.794-1.099-8.112.269-19.463-3.184-24.784-1.244-3.213-2.162-6.316-6.183-.82-.814 2.168-4.309 6.433-1.774 12.169 2.074 4.27 2.918 11.22 1.977 18.964-1.437 2.197-1.766 2.941-3.64 6.139-2.646 2.846-6.618 2.119-7.717 1.066-2.066-1.386-3.664-2.101-4.602-6.601.17-7.013.66-18.494-.722-20.929-1.89-3.772-6.006-2.408-6.338-1.268-6.397 6.849-9.667 16.718-11.489 23.677-1.774 6.727-3.662 4.086-4.99 1.776-3.23-3.028-3.46-26.71-7.361-22.816z" fill="#fff"/>
    <path d="M207.46 174.1c2.837-2.01 1.611-3.414 6.764.828 6.312 9.082 8.727 20.846 9.239 31.266-.224 2.668 1.686 4.193 2.414 3.636.492-6.029 16.163-14.429 28.696-16.667 2.066-.447 1.066-4.387 1.391-6.396-.806-7.463 4.194-14.268 11.202-14.8 9.638 1.41 12.713 6.602 12.874 14.276-1.03 14.922-16.676 17.462-26.309 18.642-1.34.607-1.898 1.126 0 1.866l36.696.166 1.867 1.078c.224.873-.633.146-1.978 2.624-1.444 2.379-3.676 7.866-3.686 11.628-10.903 3.606-22.18 6.042-33.642 6.428-3.982 2.014-6.966 4.697-6.138 7.717 1.34 3.36 10.16 6.696 10.16 6.866 1.676 1.06 3.667 3.602-.474 8.626-17.86-.786-31.683-8.382-36.472-19.104-1.443-1.119-2.997-.006-3.993 1.443-6.969 8.984-13.826 17.074-26.708 21.369-7.086 1.77-14.339-1.087-17.766-6.727-2.293-2.641-2.206-6.667-3.048-6.189-3.83 1.694-36.786 16.697-32.608 9.174 8.02-8.686 21.906-14.89 34.169-23.363.886-2.839 2.494-12.442 7.337-16.67.28.023-.767 6.64-.662 8.008.066 1.944-.143 2.706.283 2.206.827-.628 16.707-12.22 16.867-16.806 1.46-2.066.436-7.263.436-7.421-2.79-7.192-6.706-7.803-8.166-11.376-1.306-4.747-.716-10.166 1.998-11.676 2.41-2.187 6.263-1.917 7.896.473 3.006 2.692 6.676 7.963 6.447 11.872-.616 1.66-3.933-1.03-6.118-.26 2.098 2.172 3.077 4.678 3.836 7.744 1.938 8.209 1.347 11.4-.604 16.708-6.606 13.89-16.049 18.036-22.436 23.181-.197.07-.328 3.626 2.46 6.393.968 1.006 4.811 1.622 9.342.07 8.766-4.774 17.843-13.669 22.366-23.367 1.31-7.411-.606-16.27-2.434-22.124-2.903-6.698-6.322-16.262-6.322-16.42-.113-4.177.227-6.626 2.069-7.71zM111.64 136.47c4.212 2.009 12.131 1.164 11.796-6.638 0-.6-.163-2.632-.213-3.183-.86-2.002-3.206-1.607-3.737.66-.167.677.298 1.78-.316 2.12-.362.366-1.698.146-1.642-1.73 0-.698-.44-1.24-.706-1.62-.266-.174-.436-.222-.917-.222-.688.023-.678.176-.9.67-.137.602-.326.993-.326 1.663-.074.668-.326.906-.817 1.006-.649 0-.426.06-.87-.223-.264-.29-.694-.4-.694-.893 0-.611-.116-1.338-.27-1.676-.233-.308-.608-.46-1.03-.669-2.3.008-2.46 2.632-2.327 3.628-.173.188-.27 4.896 2.867 6.197z" fill="#fff"/>
    <path d="M236.11 187.73c4.212 2.009 14.238.863 11.796-6.638 0-.6-.163-2.633-.213-3.183-.86-2.002-3.206-1.607-3.737.66-.167.677.298 1.78-.316 2.12-.362.366-1.698.146-1.642-1.73 0-.698-.44-1.24-.706-1.62-.266-.174-.436-.222-.917-.222-.688.023-.678.176-.9.67-.137.602-.326.993-.326 1.663-.074.668-.326.906-.817 1.006-.649 0-.426.06-.87-.223-.264-.29-.694-.4-.694-.893 0-.611-.116-1.338-.27-1.676-.233-.308-.608-.46-1.03-.669-2.3.008-2.46 2.632-2.327 3.628-.173.188-.27 4.896 2.867 6.197zM307.11 166.1c4.212 2.009 12.131 1.164 11.796-6.638 0-.6-.163-2.632-.213-3.183-.86-2.002-3.206-1.607-3.737.66-.167.677.298 1.78-.316 2.12-.362.366-1.698.146-1.642-1.73 0-.698-.44-1.24-.706-1.62-.266-.174-.436-.222-.917-.222-.688.023-.678.176-.9.67-.137.602-.326.993-.326 1.663-.073.668-.326.906-.816 1.006-.649 0-.426.06-.87-.223-.264-.29-.696-.4-.696-.893 0-.611-.116-1.338-.269-1.676-.233-.308-.608-.46-1.03-.669-2.3.008-2.46 2.632-2.327 3.628-.173.188-.27 4.896 2.867 6.197zM344.4 220.43c-7.34 8.273-4.104 21.966-2.446 24.903 2.42 4.842 4.369 7.947 9.078 10.342 4.29 3.167 7.632 1.184 9.474-1.027 4.317-4.473 4.368-16.894 6.394-18.167 1.422-4.167 6-3.447 6.737-1.606 1.683 2.42 3.666 3.98 6.14 6.298 4.026 3.662 8.833 4.2 13.67.964 3.236-1.816 6.34-4.162 7.236-8.819 2.106-6.63.932-31.648.611-47.068-.162-1.21-4.184-21.206-4.184-21.428 0-.224-.632-10.206-.974-12.683-.078-.966-.317-1.242.694-1.12 1.073.903 1.22.96 1.89 1.267 1.082.198 2.061-1.646 1.398-3.34l-10.048-18.633c-.807-.794-1.848-1.666-3.127.224-1.222 1.071-2.623 3.01-2.483 6.603.297 4.392 1.07 8.86 1.366 13.263l4.02 22.662c1.266 16.076 1.683 29.233 2.848 46.309-.177 6.807-2.293 12.742-4.278 13.698 0 0-3.02 1.76-6.046-.183-1.473-.691-7.368-9.826-7.368-9.826-3.014-2.763-6.001-1.973-7.146 0-6.914 6.711-8.69 16.394-12.609 23.763-1.036 1.646-3.966 3.062-7.21-.12-8.242-11.268-3.411-27.277-4.437-23.168zM309 126.67c3.773 1.68 6.436 9.223 6.667 12.966-.761 4.617-2.762 9.603-4.191 8.964-1.664-.68 1.066-4.69-.437-8.796-.836-2.738-6.984-7.741-6.442-9.216-1.063-3.09 2.189-4.442 4.603-3.897z" fill="#fff"/>
    <path d="M366.66 224.96c.794-9.179-.646-14.776-.784-20.171s-6.102-46.669-7.291-60.641c-1.436-7.718 6.7-1.036 4.92-6.624-2.468-6.66-8.611-13.9-10.64-18.816-1.16-2.106-.673-3.98-3.271-.664-2.409 7.876-3.246 14.314-2.326 19.206 6.187 32.29 12.633 69.14 11.626 89.879 2.934.02 6.316-6.714 7.766-13.377zM421.02 139.68c3.44 1.71 6.466 11.289 6.076 14.026-.684 4.999-2.61 10.397-3.82 9.694-1.426-.628.286-7.413-.4-9.623-.76-2.964-6.464-8.38-4.96-9.977-.97-3.346 1.996-4.809 4.106-4.22zM166.36 207.6c3.29 1.266 6.22 8.296 4.866 10.307-.666 3.672-2.403 7.639-3.666 7.123-1.364-.462.274-6.448-.381-6.998-.278-3.76-4.846-6.707-4.76-7.331-.862-2.986 1.911-3.636 3.931-3.1z" fill="#fff"/>
    <path d="M244.86 218.17c4.247.27 6.37 3.602 2.391 6-3.924 1.343-7.696 2.393-7.713 8.064 1.462 7.902-1.99 6.19-4.044 4.117-2.419-1.737-9.208-6.92-10.176-14.96-.146-2.166 1.636-3.969 4.24-3.966 4.076 1.107 10.087 1.188 16.301 1.726z" fill="#1b9d00"/>
    <path d="M77.399 124.39c4.866 1.464 6.142 8.6 4.784 10.686-.647 3.808-2.367 7.92-3.602 7.384-1.344-.478-.063-6.647-.698-7.266-.72-2.268-4.822-6.384-4.367-7.6-.913-2.649 1.883-3.666 3.873-3.216zM173.28 168.03c-3.726 2.016-6.17 8.02-2.86 11.618 2.166 3.08 6.687 1.938 6.043 1.938 3.66.467 6.816-6.842 6.816-6.842s.116-2.062-4.219 1.826c-1.824.342-2.062-.343-2.608-1.37-.38-1.9-.304-3.8.67-6.701.646-1.824-.761-2.623-2.861-1.369zM201.22 121.63c-1.872 1.266-6.698 6.116-6.712 9.663-.113 2.609-.68 2.601 1.062 4.098 1.187 1.712 2.384 1.668 4.78.303 1.376-1.014 1.841-1.687 2.306-3.387.67-2.86-3.014 1.362-3.47-1.82-.798-2.946 1.604-4.162 3.67-7.002.072-1.963.03-3.336-2.636-1.766zM223.73 126.63c-.807 1.782-1.774 11.093-1.613 11.093-.644 2.774 2.903 3.961 4.616.396 2.419-6.637 2.419-9.31 2.68-12.084-.763-4.224-3.601-4.092-6.483.696zM366.66 197.86c.484-.484 19.998-14.363 19.998-14.363 1.989-.699 1.668 7.16.646 7.096.376 1.668-19.246 14.89-20.644 14.363-.967.699-1.936-6.376 0-7.096zM383.44 197.73c3.44 1.71 4.81 11.773 4.43 14.61.122 6.322-3.316 9.69-4.627 8.888-1.426-.628.126-6.607-.66-8.717-.76-2.964-3.681-8.642-3.188-10.139-.969-3.346 1.836-6.131 3.946-4.642zM267.37 241.07c1.367-1.984 6.66-4.839 6.646-4.839 1.934-.968 3.824.769 3.71.646.321 1.936-1.226 3.737-.74 6.318.422 1.04.732 2.196 2.638 1.766 3.099-2.438 6.97-2.696 9.068-2.76 2.374.143 2.468 4.163.967 4.193-6.721 1.243-8.286 2.776-12.37 4.334-1.936 1.129-3.696-.303-3.696-.464s-1.132-1.098-.342-3.662c.14-2.066-.687-3.183-2.4-2.96-1.29.698-2.426 1.16-3.071-.323-.264-1.096-.337-1.628.491-2.267zM403.97 246.49c.836 1.064 1.377 2.049-.067 3.797-1.369 1.264-2.333 1.946-3.701 3.199-.646 1.102-1.06 2.774.917 3.307 3.66 1.026 12.088-4.448 12.088-4.662 1.369-1.026.913-2.966.798-2.966-.798-.912-2.696-.37-3.806-.618-.676 0-2.466-.286-1.666-1.968.76-1.04 1.019-1.677 1.628-2.969.67-1.264.08-2.09-1.973-2.776-2.09-.38-2.926-.19-6.246 0-1.264.266-1.682.827-1.91 2.347.09 2.306 1.492 2.176 2.936 3.087z" fill="#fff"/>
    <path d="M268.117 189.743c-.636.926-2.344.88-4.04-.1s-2.638-2.627-2.103-3.463 2.344-.88 4.04.102 2.638 2.626 2.103 3.461zM179.046 136.149c-1.014.248-2.339-.666-2.96-2.019s-.301-2.669.712-2.917 2.339.666 2.96 2.018.302 2.67-.712 2.918z" fill="#269f00"/>
    <path d="M366.24 374.97c9.361.466 18.137.106 27.488.663 1.694 1.44.484 4.976-.646 4.722-3.04-.077-4.792-.162-7.833-.229-.104-2.978-7.706-2.49-7.487.096-4.106.494-7.807-.143-11.912-.296-1.214-1.61-1.068-4.232.39-4.866z" fill="#209000"/>
  </g>
</svg>
