<svg xmlns="http://www.w3.org/2000/svg" height="480" width="640">
  <defs>
    <clipPath id="a">
      <path fill-opacity=".67" d="M0 0h682.67v612H0z"/>
    </clipPath>
  </defs>
  <g fill-rule="evenodd" clip-path="url(#a)" transform="scale(.9376)" stroke-width="1pt">
    <path d="M0 607.17L987.43 0H0v607.17z" fill="#0000d6"/>
    <path d="M1024 0L27.17 612H1024V0z" fill="#006000"/>
    <path d="M1024 0h-64.868L.002 486.36V612h64.867l969.14-484.4V.004z" fill="#fc0"/>
    <path fill="#fff" d="M71.397 9.124l11.867 34.442 38.47-.026-31.143 21.264 11.916 34.426-31.106-21.306-31.106 21.3 11.922-34.421L21.07 43.63l38.47.036zM262.64 9.124l11.866 34.442 38.47-.026-31.143 21.264 11.916 34.426-31.106-21.306-31.106 21.3 11.922-34.421-31.138-21.264 38.47.036zM262.64 163.603l11.866 34.442 38.47-.026-31.143 21.264 11.916 34.426-31.106-21.306-31.106 21.3 11.922-34.421-31.138-21.264 38.47.036zM167.627 82.206l11.867 34.442 38.47-.026-31.143 21.264 11.916 34.426-31.106-21.306-31.106 21.3 11.922-34.421-31.138-21.264 38.47.036zM71.397 163.603l11.867 34.442 38.47-.026-31.143 21.264 11.916 34.426-31.106-21.306-31.106 21.3 11.922-34.421-31.138-21.264 38.47.036z"/>
  </g>
</svg>
