<svg xmlns="http://www.w3.org/2000/svg" height="480" width="640" version="1">
  <defs>
    <clipPath id="a">
      <path fill-opacity=".67" d="M0 0h640v480H0z"/>
    </clipPath>
  </defs>
  <g fill-rule="evenodd" clip-path="url(#a)">
    <path fill="#fff" d="M-20 0h720v480H-20z"/>
    <path fill="#df0000" d="M-20 0h720v240H-20z"/>
    <path d="M146.06 40.227c-33.243 7.622-67.944 32.237-64.927 66.701-9.488 46.469 20.124 89.99 66.687 99.488-46.031 13.126-93.69-13.332-106.694-68.932-12.996-46.6 13.46-93.16 69.063-106.162 16.007-4.666 30.746-4.694 46.773-.096z" fill="#fff"/>
    <path fill="#fff" d="M132.98 109.963l4.894 16.119-12.932-9.23-12.87 9.317 4.783-16.144-12.833-9.364 16.876-.137 4.932-16.106 6.031 16.069 16.889.026zM160.639 162.012l4.894 16.119-12.932-9.23-12.87 9.317 4.783-16.143-12.833-9.366 16.877-.137 4.931-16.106 6.032 16.07 16.888.024zM208.964 161.637l4.894 16.119-12.932-9.23-12.87 9.317 4.783-16.143-12.833-9.366 16.877-.137 4.931-16.106 6.032 16.07 16.888.024zM226.392 110l4.894 16.118-12.932-9.23-12.87 9.317 4.783-16.143-12.833-9.364 16.877-.137 4.932-16.106 6.03 16.069 16.89.026zM180.136 76.744l4.894 16.118-12.932-9.23-12.87 9.317 4.783-16.143-12.833-9.366 16.876-.136 4.932-16.106 6.032 16.068 16.888.026z"/>
  </g>
</svg>
