<svg xmlns="http://www.w3.org/2000/svg" height="480" width="640" version="1">
  <path d="M640.013 480.02V.03H.003v479.99h640.01z" fill="#006"/>
  <path d="M-.006 73.341h76.034L-.006 26.768V.03h43.603L149.86 64.76V.03h69.892v64.72L316.11.03h43.88v26.738L283.68 73.34h76.41v73.37h-76.41l76.41 46.673v26.746h-43.88l-106.36-64.73v64.73h-69.892V166.3L43.497 220.03H-.006v-26.746l76.034-46.674H-.006V73.341z" fill="#fff"/>
  <path fill="#ce1126" d="M331.686.027L211.626 73.39h28.764L369.983.027h-28.298zM369.998 220.03l-119.822-73.323h28.89l90.932 66.843v17.48zM120.38 73.372L-.01.009v17.62l91.373 66.843h29.016zM120.129 146.686L-.013 220.009h28.748l120.16-73.323h-28.766z"/>
  <path fill="#ce1126" d="M-.006 88.66h162.621V.027h36.196V88.66h162.18v42.962H197.81v88.606h-36.196v-88.606H-.006V88.66z"/>
  <g>
    <path d="M399.67 640.77c-.046 16.332-2.623 33.927-23.764 42.308-21.142-8.381-23.719-26.976-23.766-42.308h47.629z" stroke-width="1.112" fill="#8fc6ff" transform="matrix(4.4862 0 0 4.4867 -1190.9 -2609)" stroke="#fff"/>
    <path d="M376.9 683.08c9.684-3.799 16.363-9.493 18.8-16.104-.616.02-1.697-.011-2.064-.043-.62-.034-20.271-2.018-22.61-2.876-2.036-.746-9.799.634-13.423 1.929 3.381 7.032 9.237 13.106 19.297 17.094z" fill="#366cc9" transform="matrix(4.4862 0 0 4.4867 -1190.9 -2609)" stroke-width="1.102" stroke="#000"/>
    <path d="M361.13 672.96c.323-.106.94-.08 1.183-.036.286.062.338.078.442-.234s.338-.234.62-.078.649.078.831-.182c.182-.269.234-.233.416-.062.182.182.26.13.442.078.182-.061.494-.269.66-.646s.389-.39.619-.234.26.234.442.208.234.166.208.389c-.026.234.078.286.62-.077.39.389.619.233.619-.182 0-.416-.103-1.949-.269-2.167s-.312-.806-.338-1.274c-.049-.883-.062-.936-1.118-1.481 0-.312-.078-.442-.831-.39.026-.104-.104-.416-.26-.646s-.182-.182-.104-.646c.312.026.66-.026.832-.286.181-.26.779-.208 1.143-.062s.832.182 1.633.078c.26-.208.702-.442 1.17-.702.467-.26.697-.364.623-.728.067-.933-.26-2.001-.62-2.494-.269-.494-.337-1.118-.701-1.898-.396-.849-.39-1.066-.832-1.686-.121-.143-.26-.26-.286-.646-.026-.286-.13-.676-.441-.962-.786-.721-1.092-3.041-1.404-4.766-.179-.983-.062-3.3-.467-3.664-.702-.672-1.04-.468-1.608-.66-.338-.468-.493-1.403-.806-2.236-.494.078-.832.698-1.17.78s-.39.182-.39.66c0 .467-.26 1.117-.727 1.846-.468.727-1.248.62-1.897 1.611-1.43-1.741-1.466-2.236-1.66-2.729-.104-.493-.338-.697-1.143-1.299 0-.208-.104-1.039-.026-1.607-.698-.494-1.04-.416-1.326-.062-.286.364-.494.909-.936 1.117-.266.337-1.064 1.187-1.718 2.199.696 9.044 2.636 18.022 8.773 26.202z" fill="#6d3100" transform="matrix(4.4862 0 0 4.4867 -1190.9 -2609)" stroke-width=".138" stroke="#000"/>
    <path d="M399.67 640.77c.018-6.162-.324-12.126-.168-17.369-7.9-3.636-18.296-4.262-23.696-4.262-6.302 0-16.697.727-23.697 4.262.166 6.234-.186 11.207-.168 17.369h47.629z" stroke-width="1.08" transform="matrix(4.4862 0 0 4.4867 -1190.9 -2609)" stroke="#fff" fill="#ff0"/>
    <path d="M394.613 297.888c1.166 1.867 3.266 6.076 3.499 6.82.817-1.692 1.468-2.446 1.633-3.496s1.4-3.092.933-4.2-.816-1.983.467-1.166c1.278.816 1.032 2.23.763 4.316-.763 6.711-3.144 6.878-3.494 10.728 3.44 8.102.874 11.019 4.602 18.947.684.36 2.14-.274 2.607-.167 1.978-1.4 3.469-.893 6.264-.31 2.8.684 4.316 2.662 4.316 4.312s0 2.216.684 3.266 1.76 2.683 1.616 3.86c-.233 1.162.233 1.862.683 2.446s-.116 1.867-.466 2.683-.234 1.867 1.166 3.616c1.4 1.746 4.661 9.096 4.661 13.407 0 4.316.233 6.299 1.983 7.111 1.76.817 2.333 1.617 2.1 3.383s.816 11.644 1.06 13.06.816 1.167 1.616 1.984c.696.812 1.162 1.746 3.496 1.746s4.684-.31 6.1-.076c2.1 2.916 3.383 6.878 3.86 9.328s.426 6.792 1.243 6.792 1.633.117 1.4-2.916-.467-3.6-1.617-6.012c-1.06-1.616-1.633-2.216-1.06-3.16s.7-2.46.467-3.616-.683-2.912 1.4-.683c1.982 2.333 2.666 2.916 3.149 3.733s.812 2.333.7 3.733c-.117 1.396.112 1.979.928 1.279.817-.696 1.866.466 1.4 1.983s.117 2.46 1.616 2.916 1.983.817 2.333 1.867 1.616 1.612 1.616-.684c0-2.1-.816-6.632-1.4-7.928-.682-1.4-1.049-4.433-1.166-6.182s-.466-2.212-1.283-2.662-1.616-.934-1.633-1.76-.816-1.108-1.341-1.108-.987-.409-1.279-.992-.683-.641-1.166-.7-1.616.292-1.808-.641-.7-2.276-1.283-3.033-1.108-.992-1.166-3.612c-.069-2.626-.117-2.976-.934-3.908s-2.216-3.379-2.799-4.429c-.679-1.06-1.162-2.1-1.162.117 0 2.212 0 3.379 1.396 4.196 1.4.817 1.76.817 1.167 1.983s0 1.983.233 2.8.7 1.633 0 2.446c-.7.817-1.4.684-1.283-.696.117-1.283-.36-2.8-.929-3.86-.683-1.06-1.06-1.76-1.76-1.166s-1.282-.117-.816-.684.36-.816 0-1.166-.466-.7.117-1.4.683-1.06.233-2.679c-.36-1.633-2.916-9.794-4.082-11.66s-1.06-3.267.466-1.4 2.8 3.6 2.916 6.011c.117 1.617.467 2.46.933 3.033s.817.36 1.06-.933 1.167-.816-.466-3.262c-1.633-2.46-4.666-6.632-6.832-13.877s-1.633-12.244-2.8-14.223c-1.162-1.983-1.612-2.46-1.628-4.316s0-3.733-.817-6.128c-.816-1.4-1.4-1.634-1.616.466-.117 2.096.116 6.762.7 7.678s.233 2.912.116 4.079-1.961 2.32 1.867 4.666c1.616.933 1.278 2.216 1.06 3.033-.234.812-.467.696-1.284-.683-.816-1.284-1.633-2.334-2.46-3.033s-.932-1.167-.816-2.8.467-2.8 0-3.379c-.466-.683-.7-.116-.933.812-.233.934-.466 3.6-.933 4.2s-.7.233-1.06-1.283.117-3.846.933-6.628 1.283-6.483.684-8.978c-.7-3.6-.36-4.66-3.033-7.462-2.678-2.916-6.711-6.716-6.994-9.327-1.283-3.617-1.616-6.766-2.916-8.4-1.396-1.628-3.378-3.728-4.661-4.311v-6.362c0-1.283-.683-2.1-2.1-1.866s-2.46 1.616-3.378 3.261c-.933 1.76-1.633.934-2.916 3.967s-3.16 4.646-3.16 7.811z" fill="#cf6200"/>
    <path d="M403.047 332.077c.933.683 1.826.973 3.226.273s3.073-2.719 4.94-.736c1.862 1.978 2.911 6.246 2.911 7.81 0 2.663 0 7.346 2.916 10.029 2.916 2.678 4.428 6.478 4.646 8.978.116 3.496 1.4 8.86 1.76 10.26.36 1.396 1.166 3.03 2.099 3.962s1.633 3.617 1.76 6.412c.116 2.8-.36 4.783 0 6.183s0 2.666-1.06 1.866-1.283-1.06-1.866-2.216-1.283-.934-.7.816 2.333 3.379 3.849 3.379 1.983.233 2.916 1.166c.929.933 1.046 1.4 2.678 1.4s1.866 0 3.383.467 1.616.233 2.333 0 1.628.466 2.211 1.983 1.983 6.711 1.983 6.878 0 2.333.817 3.6.683 2.333-.36 1.633-.933-.467-1.633-.36-1.167-.234-2.096-.817c-.933-.683-.36-.466-1.283-1.866s-1.617-1.867-1.617-.817-.116 2.333-.816 1.76-1.06-.683-1.633 0-.817 1.06-1.616-.117-1.617-1.166-2.217-1.4-.7-.233-1.046-1.283c-.36-1.06-1.4-1.283-2.333-1.283s-1.4-.467-1.616-1.166c-.117-.696-.7-1.163-1.166-1.613s-.234-1.166-.36-1.983-.817-.466-1.283-.7-.817-.116-.817-1.283-.467-1.616-.816-2.333c-.346-.816 0-1.633.233-2.662.233-.933.116-1.616-.679-2.333-.7-.816-.117-1.633-1.983-3.266s-2.8-.233-3.382-4.079c-.684-3.86-1.76-11.777-2.8-13.06s-1.746-2.217-2.796-2.667-1.76-.116-1.866-2.333c-.117-2.212-.816-6.011-2.216-6.411s-1.983-1.867-2.683-2.46-.933-1.633 0-3.612c.933-1.983.683-4.666.467-6.96-.117-1.278-.467-2.911-.234-4.31s.117-3.16-.233-4.084-.816-1.166-.233-1.866zM431.13 298.92c-1.679 2.032-3.261 3.733-6.437 6.286-2.176 1.667-4.976 2.8-3.423 6.443 1.667 2.642 2.8 2.966 3.11 4.976.313 2.02.78 3.733 2.332 4.2 1.667.462 2.176.163 2.176 3.419s0 4.609 1.4 6.762 1.242 2.486 1.866 6.442c.619 2.962.619 9.328 2.486 13.68s6.066 12.694 6.699 14.304-1.09 2.962.776 4.971c1.866 2.024 3.109 4.976 3.266 6.686.162 1.714.467 2.333 2.328 1.714 1.867-.624 2.8-1.247 3.423-2.023.62-.777 1.862-.62 3.676.31 1.709.932 4.361 1.866 6.904.932 1.666-.933 2.332-2.328 3.732-2.328 2.176-1.667 2.962-4.823 3.419-6.762.466-.933.167-.933-.777-1.867s-.466-2.49-.623-4.042c-.163-1.667-.776-3.886-2.642-7.309-1.862-3.419-2.962-7.618-4.196-8.704-1.243-1.09-1.866-3.733-2.023-4.976-.163-1.243-1.663-2.333-2.486-3.266-.933-.929-1.866-2.329-2.962-7.771-1.09-6.443-1.866-9.328-1.866-10.261s-.167-1.09-1.09-1.4-1.4-1.867-1.086-2.643c.31-.776-.314-1.662-.623-2.486s0-2.643.623-3.676c.62-.934.467-3.676-.167-6.762s-1.242-4.043-3.732-4.367c-2.486-.31-2.962-.929-3.886-2.962-.933-2.02-1.867-6.696-2.176-6.376-.31-.776-.776-.933-2.642.624-1.867 1.662-2.486 2.068-2.486 4.976 0 1.866.31 2.486.929 3.676.623 1.086.78 1.4 1.247 4.362s3.109 7.618-.314 10.26c-3.419 2.643-2.962 3.267-2.796 6.13.163 1.866-.933 3.108-1.667.466-.619-2.643 0-4.196 1.867-6.438 1.866-1.247 3.676-2.8 2.332-4.61-1.247-1.709-1.709-6.761-1.866-7.618s-.466-2.49-1.667-1.09z" fill="#cf6200"/>
    <path d="M403.406 338.638c-.086 1.266.197 2.666.296 3.773.116 1.283.466 3.966-.467 6.96-.933 1.978-.7 3.028 0 3.611.04.031.077.063.112.094 1.903-.637 2.16-2.76 1.638-3.787-.643-1.086-.386-2.409.233-3.496.624-1.09.624-1.71.08-2.49-.646-.776-.646-.776.077-2.962.648-1.916-.834-1.902-1.97-.704zM423.324 368.688c-.36-1.4-1.632-6.766-1.76-10.26-.116-3.6-1.628-6.3-4.644-8.979-2.274-2.096-2.772-6.46-2.88-8.068-1.709-1.046-2.431-.67-2.288 1.373.163 2.096 2.262 3.11 1.943 6.138-.31 3.033-.31 2.267 1.166 3.733s2.019 2.876 1.243 3.6c-.776.619-.867 1.709.233 2.096 1.086.39 1.167 1.667 1.01 2.642-.167 1.09.866 1.324 1.476 2.1.624.776.7 2.643.081 3.733-.623 1.086-.7 2.796.386 1.867 1.09-.934 1.667-.081 2.41 1.396.74 1.274 1.368.876 2.161.489a9.836 9.836 0 0 1-.646-1.768zM438.488 396.833c-.7 1.4-1.616.933-2.216.233s-1.617-.7-1.167-1.983.234-1.617-.7-2.217c-.107-.08-.216-.162-.323-.224-.291-.009-.632-.009-1.076-.009-1.633 0-1.76-.466-2.679-1.4a7.84 7.84 0 0 0-.674-.62c-.018.224-.009.62-.009.87 0 1.283 0 1.06-1.283 1.4s-1.06-1.283-1.283-2.333a3.864 3.864 0 0 0-.202-.628c-1.404-.27-2.884-1.76-3.414-3.334-.683-1.76.117-1.983.7-.816s.817 1.616 1.866 2.216 1.4-.466 1.06-1.866c-.112-.449-.139-.97-.126-1.648-.262-.463-.693-.821-1.041-1.019-1.867-.816-1.283-1.06-1.167-2.666.117-1.612-.233-1.612-1.4-.7-1.166.817-1.282-.117-1.282-2.446 0-2.333-1.617-2.333-1.862-.7-.36 1.633-.933.683-1.633-1.76s-1.633-2.916-1.76-.7c-.099 1.876-.619 2.324-1.84 1.283.216 1.366.406 2.62.667 3.617.683 3.846 1.616 2.446 3.383 4.078s1.283 2.46 1.983 3.266c.696.817.812 1.4.678 2.333-.233.93-.678 1.746-.233 2.662.36.817.817 1.167.817 2.333s.36 1.06.816 1.284c.292.143.668.062.942.179.3-.396.674-.88.924-1.23 1.4-1.4 3.6.117 4.2 1.867s1.611 2.217 2.661.817.7-1.167 1.866.116 1.633 1.06 1.633 1.06 1.167-.466 1.983.234 1.283.683 2.796-1.634c1.616-2.216-.696-1.616-1.396-.116zM442.616 331.862c.462-3.418.163-6.837 1.662-8.086 1.4-1.242 3.11-3.728 2.962 1.667-.162 6.286-.31 4.976-1.396 6.219-1.09 1.243-2.023 1.662-.933 3.676 1.086 2.019 1.243 2.176 1.086 6.286-.163 3.11-.163 4.362 1.09 6.909 1.242 1.662 1.662 1.71 1.866 3.419.31 1.71 1.396 4.042 2.796 6.286s2.966 4.819 3.109 7.309c.167 2.486 2.333 3.11 4.361 4.819 2.024 1.71-.462 2.962-2.018 2.176-1.663-.776-.933 0-1.867 1.086-.933 1.09-1.242 1.247-2.018-.62s-3.423-3.109-4.666-3.676-2.328-2.49-3.419-4.61c-.933-1.736-2.78-3.006-4.468-3.136.467 1.31.718 2.338.683 2.827-.466 1.71-1.09 2.962.777 4.971 1.866 2.024 3.108 4.976 3.266 6.686.162 1.714.466 2.333 2.328 1.714 1.866-.623 2.8-1.247 3.423-2.023.619-.777 1.862-.62 3.676.31 1.71.932 4.362 1.866 6.904.932 1.667-.933 2.333-2.328 3.733-2.328 2.176-1.667 2.962-4.823 3.418-6.762.467-.933.167-.933-.776-1.867s-.467-2.49-.624-4.042c-.162-1.667-.776-3.886-2.642-7.309-1.862-3.419-2.962-7.618-4.194-8.704-1.243-1.09-1.867-3.733-2.024-4.976-.162-1.243-1.662-2.333-2.486-3.266-.933-.929-1.866-2.329-2.962-7.771-.862-4.263-1.612-7.661-1.769-9.238-1.117 1.781-1.88 2.216-2.283.996-.467-1.396-1.09-2.176-1.71-1.243-.623.933-.78-.776-.78-1.662 0-.781-.162-.934-.933-.934-.776 0-.163-1.242-.467-3.676-.31-2.333-.776-2.642-1.086.168-.31 2.796-1.867 4.604-1.243 6.128.62.623.31 1.866-.314 3.733-.62 1.862-.31 2.962.167 4.196s-.31 3.676-.624 6.6c-.31 2.018 1.248 4.037 1.714.618zM414.217 303.946c-1.162.086-1.942 1.096-1.283 4.626.413 2.186-1.242 1.71-1.861.62-.624-1.087-1.09-3.42-2.333-6.443-1.247-2.02-.624 1.4-.776 3.266-.167 1.866 1.086 1.866 2.176 3.419 1.086 1.667.162 2.18-1.09 2.18s-.62 2.486-.31 4.196-.31 2.024-1.247.624c-.929-1.4-.31-3.676-.163-6.218.163-2.643.31-2.024-1.4-2.643-1.709-.624-1.4-.933-.776-2.49.62-1.663 1.243-2.333.467-3.11-.78-.776-.624-1.242.619-1.4 1.243-.162.78-1.086 1.866-1.4 1.09-.309 1.667.168 1.71-1.861.13-1.687.696-2.724 1.96-2.212.763 2.698 1.764 6.64 2.431 7.847zM429.874 322.26c0 3.267 0 4.61 1.4 6.763s1.243 2.486 1.866 6.442c.62 2.962.62 9.328 2.486 13.68.666 1.297 1.323 2.943 2.108 4.667 1.032-.812 1.93-2.207 2.248-2.947.462-1.09-.933-3.267-2.024-6.129-1.086-1.866.167-2.49 1.243-4.823 1.09-2.329-.162-2.486-1.862-3.11-1.713-.618-1.713-2.176-2.646-4.66s-.777-3.677-.163-4.977c.62-1.4.163-2.486-1.09-2.8-1.243-.309-.933-1.242-.467-2.796.467-1.666.776-1.866-1.086-1.4-1.414.36-1.764.616-2.176 1.127.103.448.162 1.072.162 1.983z" fill="#00b800"/>
    <path d="M447.774 328.767c-.17 1.866-.167 2.8-.623 3.418-.462.624-.163 1.667.314 2.49s.776 2.177.31 3.886.309 3.11 1.242 3.676 1.4 0 1.09 2.176c-.314 2.176.933 4.61 2.019 6.442 1.09.934 1.866 2.486 1.71 3.42-.163.932.78 1.866 1.866 2.332 1.09.467.934.624.934 1.243 0 .624.466.624 1.709.933s2.176 1.09 3.676 2.8 3.419 2.643 3.11.776 0-3.109-1.867-4.042c-1.862-.934-3.262-6.443-4.042-8.662-.776-3.11-3.262-7.304-4.661-8.08-.167-2.181.167-3.267-1.243-4.367-1.4-1.086-1.866-2.486-1.866-3.676 0-1.086-.776-2.486-1.4-2.796-.619-.314-.933-1.09-.933-2.024s-1.086-.776-1.243.934z" fill="#6d3100"/>
    <path d="M439.62 412.164c2.796-.233 10.376-2.46 11.188-3.16 1.867 1.284 6.132 3.034 6.632 3.034-2.683.683-4.432.233-6.132-.234.36.817 1.283 2.1 1.866 2.217-2.666-.117-6.477-.7-6.41-1.633-2.217.933-6.96 1.166-8.044-.234zM444.644 416.664c.992.292 6.944 1.108 6.686 1.108-1.633 1.396-.233 2.737 2.608 2.604-1.342.176-2.804.682-1.808.876 2.39.466 8.86-1.284 10.143-1.983-2.216 2.868-12.996 6.482-17.429-2.604zM448.986 422.763c1.336-.7 4.66-.467 6.236.292-1.76.641-6.186.641-6.236-.292z" fill="#00d860"/>
    <path d="M463.966 422.663c2.391-.408 9.162 1.226 11.643-.233-.816 2.168-6.074 2.46-6.632 1.983-1.463-.467-2.863-1.06-3.844-.992.626-.291-.36-.36-1.167-.768z"/>
    <path d="M466.433 426.983c1.808.287 8.277-.626 10.26-1.283 2.096.7 6.236 1.804 7.169 1.687-1.983 1.226-6.774.626-6.994 0-3.6 1.167-6.367 1.617-10.436-.404z" fill="#00d860"/>
    <path d="M469.628 427.06c2.689.683 4.796.166 7.344-.686.794.34 2.666.768 4.423.673 1.171.668 2.746 1.601 4.262 1.718-1.674.642-7.348 0-8.61-.641-2.916.068-7.932.7-9.162 1.691-.068-.817.471-1.962 1.633-2.766z" fill="#00d860"/>
    <path d="M466.433 413.914c2.018.673 9.326.36 13.064-1.4 1.472-.69 2.383.467.7 1.06-6.06 2.1-10.843 2.917-14.338 1.06-1.381-.736-1.616-1.4.684-.7z"/>
    <path d="M492.233 403.999c-8.977 4.196-14.926 6.478-27.398 1.633-1.162-.36-1.983 0-.7.816 1.283.812 8.16 2.679 9.794 2.796s1.06.876.068 1.167-1.283.992.068.467 8.834-.723 11.893.876c1.337.7 1.687.683 1.67.068s.684-.876 1.676-.992 1.676-.466.817-.768-.876-.467-.292-.768.642-.683-.233-.768-1.468-.409-.642-.817c.817-.404 2.042-.7 2.976-.812.233-.642-.176-2.333.626-2.916z" fill="#00d860"/>
    <path d="M477.293 406.076c6.133.364 14.676-1.983 19.692-6.878 1.746 1.046 4.194 2.212 6.477 2.446s2.46 1.4.467 1.4-4.782-.816-6.06-1.4c-6.66 4.083-14.429 6.426-19.369 6.017-1.396-.117-1.746-.7-.117-.684z"/>
    <path d="M462.13 377.078c1.76 1.226 4.84 3.262 8.86 2.97 1.983 1.676 6.074 2.917 6.474 3.209-2.683 1.108-6.699 2.041-6.367 2.916-1.226-1.167-2.796-.992-3.203-1.676-1.167.933-.992 1.617-.233 1.983s6.644 1.468 8.102 1.06 1.848.799.641 1.22c-3.16 1.109-9.268.069-11.368-3.32-2.1-3.383-3.907-4.666-9.618-1.676-.642-1.633-.642-2.041-1.76-2.041s-3.16-1.468-1.676-1.4 6.24-.641 10.027-3.437z" fill="#00d860"/>
    <path d="M463.62 384.671c-.973.242-3.732 1.76-4.719 1.867-.991.116-2.74 1.616-.933 1.674 1.804.069 4.137-1.924 6.42-2.1s1.4-1.633.233-1.34zM469.173 390.494c-.69.12-3.67.816-4.486.768s-1.633.176-1.674.768.291.933-.934.817-2.274.36-2.666.7-.626.7.7.816 1.866.233 3.266-.408 2.741-1.633 4.268-1.692c1.611-.068 3.028-2.041 1.336-1.76z" fill="#00d860"/>
    <path d="M466.001 394.083c1.274.826 7.677 2.976 9.862 2.8s1.848.91.117 1.283c-3.668.764-7.9-.794-10.844-3.16-1.468-1.166-.116-1.676.876-.933z"/>
    <path d="M494.836 397.179c-4.823 1.639-9.736.991-11.718.466s-3.791-.641-2.46.642c1.341 1.279 6.667 2.164 8.102 1.612-8.686 1.983-10.96 1.808-13.113 1.468-2.168-.36-6.209-.274-7.927-.117-1.283.117-3.033-.068-3.79-.624s-.992-1.342 1.282-1.109c2.27.234 2.666-.233.683-.626s-4.724.626-2.04 2.217 8.668-.117 12.3.933c3.728 1.06 11.666 1.808 19.179-4.268.386-.31 1.06-1.162-.408-.696zM471.147 390.09c.176.683.176 1.226 0 1.633s-.176.933.684.36 1.224-1.283 1.982-.876 2.683.36 3.664.233c.879-.116 1.166-.291-.113-.816-1.283-.626-2.666-.7-3.266-.642s-1.674-.117-2.167-.36-.769-.117-.684.467z" fill="#00d860"/>
    <path d="M483.674 392.333c-.991.068-2.74-.683-3.674-.991s-2.27-.467-1.279.874c.987 1.342 6.303 2.1 6.82 1.469s.874-1.342 2.386-.409c1.616.934 3.091 1.676 4.2 1.676s1.616 0 .29-.7-1.807-.876-1.924-1.468-.291-.933.817-.683 2.39.991 3.266.626 2.603-1.617 3.96-1.617l.36-.876c-2.099-.176-3.436.467-4.019.7s-1.633.36-2.74.176-2.667-.291-2.917-.683-.36-.626.683-.7 1.226-.817-.068-.683-4.72.116-6.627-.467c-1.808-.679-2.667-.637-3.326-.36-.768.292-.641 1.108.467 1.167s3.616.291 4.49 1.108.769.876-.233.467-2.8-.176-.933 1.166z" fill="#00d860"/>
    <path d="M498.782 390.224l-.36.876c2.168-.068 7.407.467 9.094 1.617 1.633-1.283 1.341-1.692 2.608-1.468s2.624.641 3.266.291 1.108-.291 1.808-.176c.696.117 2.211-.176 3.086-.7s2.683-1.226 3.733-1.226 2.328-.233.408-.626c-1.926-.291-4.84.292-6.832.642-.987.36-3.961.683-6.711.683s-4.136.876-6.12.36-4.723-.176-6.89-.176z" fill="#00d860"/>
    <path d="M626.79 389.192c-3.496 2.667-7.696 3.16-12.706 3.6-1.468.103-1.009.616.234.642 6.244.626 11.31-1.4 13.288-3.6.674-.606.611-1.61-.817-.642z"/>
    <path d="M601.968 396.16c1.616.068 6.76 1.4 8.462 1.983 1.283-.117 1.633-.408 1.4-.876s-.409-.992 1.924-.876c2.328.117 7.694.068 8.686.068.817-.36 2.62-1.76 3.437-1.808-2.096.117-10.84.683-11.947.467s-1.691 0-2.391.408-1.108.683-1.983.233-2.46-.816-3.32-.291c-.876.626-2.683.068-4.267.7z" fill="#00d860"/>
    <path d="M622.426 396.429c.816-.36 2.62-1.76 3.436-1.808 1.616-.117 3.266.626 4.083.641s1.69-.068 1.108-.7-.069-1.76 2.332-1.468c2.387.292 3.612.7 6.946.467s3.382 1.616 7.81-.233c-.36 1.76.467 1.866 1.283 1.616s1.76-.233 3.16.817 9.91 1.166 11.892.816c1.979-.36 3.029.7 1.612 1.167-1.612.466-1.866 1.166-1.612 1.633.346.462.696 1.046-1.166.812-1.866-.233-2.216.36-3.16 1.06s-1.166.933-3.732.467c-2.661-.467-3.028-.117-4.428.116s-1.76.234-3.149-.233-4.428-.933-6.294-.36-3.266 1.166-4.9.7-1.749-.233-.699-1.283 1.283-.934 3.266-1.167c1.983-.229 3.6-.812 2.1-1.629s-1.867-.7-3.733.234-2.8 1.612-4.894.36c-2.1-1.167-3.16-.934-4.66-.684s-3.727-.466-6.71-1.341zM629.423 398.929c-2.67.38-3.387-1.337-6.177-.988-.934.117-2.608 1.28-.36 1.104 2.163-.176 4.486.992 6.686.817s1.167-1.108-.068-.933zM626.328 400.948c1.404-.612 4.316.466 6.64.233s2.391.626 1.108.933-4.374-.768-6.774-.36-2.794-.117-.874-.816zM498.468 408.486c1.926.063 8.86-.233 11.602-6.061.21-.449.408-.642 1.283-.069s4.082 2.608 10.086 3.033c1.682.148 3.499.992.116.769s-8.743-1.167-10.661-2.276c-3.033 4.778-8.48 6.344-12.636 6.246-2.446-.069-1.861-.7 0-.642z" fill="#00d860"/>
    <path d="M613.462 400.644c-.933 1.283-4.14 3.6-6.699 3.616-1.463.117-6.827-.292-6.936-.7s-2.46-.292-.876.817 6.482 1.866 7.062 1.616c1.676-.36 3.383-.876 4.608-.116s3.499 2.211 4.836 1.92c1.341-.287 4.082-.287 4.967.117.876.408 2.391 1.633.117.933s-4.141-.117-6.19-.684c1.166 1.634 3.812 4.268 6.064 4.268.626 0 .876.934-.233 1.469 1.108.624 3.67.933 6.011-.292-.36.467-.176.768.408 1.06s1.284.7.234.816-3.437.409-4.136.117c2.27 1.464 8.16 3.787 14.162 2.62 1.144-.22 1.76-.696-.116-.641-3.86.116-4.078.068-4.778-.346-.7-.413-.683-.768.626-1.108 1.103-.36 3.903-.768 6.07-.768s2.332-.467-.069-.467-6.303 0-6.47-.408-2.04-.933-.816-1.76 2.608-.683 3.091-1.342c-3.849-.068-8.673-2.1-6.948-3.961.61-.436.408-.467-.684-.684s-3.903-.933-6.127-1.633-.409-1.283.683-1.468c-2.276.408-6.824-.816-9.862-3.091zM647.637 400.464c-2.1 1.676-6.06 2.216-7.762 2.216s-1.926.684-.683.769 2.8.36 3.382.176.933-.234 1.804.176c.876.408 2.74.641 4.374.116s4.311-.768 6.42-.7 2.332.117.116-.626c-2.212-.641-6.828-.176-6.703.069s-3.266.068-1.982-.36 2.39-1.06 3.032-1.676c-.466-.117-.768-.233-1.108-.36zM646.66 404.986c-1.808 1.341-4.427 2.62-7.11 2.736 2.46.876 4.49 3.383 6.06 3.267-.768.466-1.686 1.166-2.678 1.283 1.617.408 4.078-.068 6.178-1.226 3.6.992 8.044.36 9.66-.933-2.276 0-6.011-.817-6.236-1.867 1.108 0 2.164-.7 2.678-1.337-2.62.463-7.11-.816-8.462-1.924z" fill="#00d860"/>
    <path d="M642.837 412.299c.991-.117 1.92-.817 2.678-1.283-1.92.641-10.318-.7-12.821-2.917-2.608-2.212-2.608-.626-.769 1.06s4.837 3.966 10.902 3.16zM648.983 417.638c-1.06.683-6.06.933-7.694.683s-2.333-.176-1.924.467.683 1.226-.769 1.06-3.732.117-4.72.466c-.99.36-2.216 1.226-.116.876 2.096-.36 4.02-.768 6.696-.36s7.168.626 8.277.069.36-.467-.176-.467-.769-.36 0-.7 1.341-1.341 1.616-1.983zM600.487 410.863c-2.1.933-9.093 2.8-10.96 2.917-2.332 1.06-4.194 1.633-6.36 1.633.816.7 3.96 1.396 6.244 1.06-.7.696-2.329 1.612-2.912 1.862 1.862-.234 4.078.233 6.011.36-2.46 1.4-6.827 1.866-7.677 1.633.683.816 1.4 1.633 2.46 1.633-2.217.683-4.9.683-6.3.116.684 1.167 1.167 1.867 1.984 1.984-1.866.233-4.2.683-6.178-.684 1.612 1.983 4.896 2.679 9.91 2.1 6.011-.683 9.21-2.8 10.377-3.733-2.1.233-4.899.36-6.299.117 2.8-.7 8.86-3.266 9.91-4.316-1.166 0-2.328-.36-3.149-.934 1.633.234 7.348-.462 9.098-1.162-2.1-.466-3.383-1.76-3.966-2.666 7.344 2.333 16.618 1.67 19.47.683.933-.233 1.046-1.418-.816-1.283-3.266.233-9.66-.7-11.193-1.616 1.616 1.166 3.382 1.866 4.666 2.1-3.032.816-7.227 1.4-13.409-1.984z" fill="#00d860"/>
    <path d="M486.49 418.366c.683-.36 2.212-1.167 2.912-1.862-1.283.346-4.428-.36-6.246-1.06 1.167 0 3.029-.683 6.361-1.633-4.194-.117-7.11-.117-8.627-.933s-4.31-.684-6.36-.36-.7 1.983 3.727 1.616c-1.866 1.283-6.877 1.76-8.743 1.283.466 1.612.816 3.029.36 3.846 2.46 1.4 8.86 3.16 12.01 2.916-2.8-1.06-4.316-2.217-1.984-2.46s3.616-.7 6.6-1.283z" fill="#00d860"/>
    <path d="M479.267 426.938c6.681-.466 13.066-.666 19.004-6.699 1.616-1.283 2.636-.862 1.06.467-3.146 2.8-10.96 6.644-18.42 6.761-3.038.06-4.429-1.4-1.634-1.629z"/>
    <path d="M621.079 416.696c-1.4.626-6.307 1.166-6.47.991-1.166-.176-2.867-.233-3.79.36s-.992.934.291 1.06 2.916.234 3.733.176c-1.06.684-1.76 1.4-1.983 1.76 1.866-.467 6.303.36 6.294.933-.768.234-1.633-.068-2.274-.408 3.149 3.326 12.476 3.326 13.992 2.741-.7.626-1.341 1.06-2.041 1.226 2.624.467 6.663.409 8.627-1.341-.992.176-3.961-.117-4.72-.176a6.697 6.697 0 0 1 2.27-1.342c-1.161-.233-4.836-.116-6.71.36.36-.7.991-1.676 1.69-1.866-4.607 0-10.2-.069-12.242-1.167 3.266.36 6.882-1.676 8.394-1.676-2.662-.068-6.361-.641-6.061-1.691zM609.37 419.263c-2.276.467-6.711 1.4-6.644 1.926s-1.926.817.116.817 7.678.233 8.802.408c-3.09-.467-7.286-.683-8.102-.683s-1.76-.069-.233-.626 3.6-1.617 6.06-2.042zM604.749 424.682c.812 0 4.37 0 6.77-1.226 1.467 1.109 4.267 2.679 6.06 2.679 1.808 0 1.633.467.068.641-1.67.176-4.66-.763-6.236-1.92-2.1.768-3.846.117-6.663-.176zM477.742 440.386c3.611 1.4 8.394 2.46 11.889 1.283 1.982 1.76 6.066 1.866 8.277 1.4 2.216-.467 4.199-.7 6.648.116 2.446.817 7.46.876 8.86 2.037-1.283.063-4.024 0-4.666.18-.642.17-.292.679.876 1.22-3.962-.233-10.786 1.468-12.88 3.266.763-1.808 3.086-4.267 6.76-4.267-2.1-.764-8.802-.812-10.96.626-.641-.7-1.4-1.862-1.467-2.329-3.664 2.037-10.662-.876-13.347-3.441zM468.6 433.836c4.303-.616 7.232-1.983 8.616-3.266.768.7 3.903 1.4 7.344.36-.7.626-.768 1.616-.466 2.041-2.276.068-6.69 1.167-8.044 1.926-1.468.764-6.716 1.279-7.11.62-1.4-.763-1.469-1.396-.238-1.67z" fill="#00d860"/>
    <path d="M483.888 432.983c-2.274.068-6.69 1.166-8.044 1.924.292.684.467 1.612.626 2.164 4.196-1.616 13.813-2.446 17.488-1.862-1.76.117-6.074 1.92-6.936 2.164 4.644-.36 8.977.683 10.139.876 1.166.291 1.4 1.166.626 1.983s-1.279.933.683.991c1.866.069 6.716-.176 7.466-1.866-.7-.768-2.608-.467-3.033-.992 1.226-.408 2.626-1.283 3.16-1.926-3.16-.068-4.316-.116-6.366-.36-1.06-.228-1.808-.624-.626-1.22 1.283-.7 1.866-1.283 2.276-1.76-2.276.642-6.828 1.167-8.802-1.166 1.108.291 3.728.116 4.66-.292-.99-.626-1.803-.933-2.62-.933 2.388-1.167 7.111-2.217 12.94.116 2.916-.233 6.064-.116 8.276.467.933-.933 2.916-3.16 3.966-3.733-6.877.683-19.237-.7-19.004-4.312-2.216 2.912-7.344 4.646-9.66 4.079-.233 1.06.7 2.333 1.617 3.033-2.333.466-6.299.816-8.16.466 1.049 1.06 3.027 1.984 4.194 1.867-2.446 0-3.728.467-6.663.292z" fill="#00d860"/>
    <path d="M498.164 441.193c1.867.069 6.716-.176 7.466-1.866-.7-.768-2.607-.467-3.032-.992 1.224-.408 2.624-1.283 3.149-1.926 4.894-.403 9.268-.17 11.364-.812 2.1-.641 7.466-.291 8.614-.683-4.666.764-6.698 1.162-6.832 1.92s1.617 1.4 2.626 1.4c-2.1-.116-4.724 2.1-4.968 2.976-2.794-1.633-4.136.292-4.427.933-1.167-.466-6.016-.36-6.999 1.342-2.662-.769-4.263-1.167-6.819-.769 1.676-.36 1.283-1.4-1.06-1.633zM620.64 427.664c1.676-.069 6.012.116 6.236-.069-.816.409-1.862 1.167-2.096 1.617 3.962-.467 9.38-.768 10.966-.626-1.92-.292-3.903.933-4.896 1.676s-.408 1.06.933 1.226 3.16 1.224.7.876-7.286-.36-8.462-.176-1.808-.409-.117-.642 2.864-.817 3.67-1.283c-1.4.36-4.078.36-4.894.116s-1.342-.7-.409-.933.292-.683-.7-.466-3.499 1.166-4.898 2.608c1.616-1.676 2.867-2.976 3.966-3.733z" fill="#00d860"/>
    <path d="M602.776 430.2c1.926 2.169 4.196 3.384 7.81 3.6.769.023 2.172 1.041.36 1.109-4.898.176-7.343-.992-9.601-4.142-.444-.646.377-1.647 1.341-.466zM631.98 389.417c2.676 1.216 7.762 2.274 11.777 2.1.7-.032 2.108.717.346.874-4.646.409-8.627-.228-12.413-2.333-1.06-.683-.7-1.108.291-.641z"/>
    <path d="M634.682 389.372c3.962-.117 6.936-.068 8.16 1.108 2.27-.7 6.363-1.108 7.286-.933s1.983-.233-.176-.768c-2.168-.62-7.169-.696-8.743-.404-1.676.287-6.474.462-8.102.287.7.117 1.162.233 1.674.7zM649.97 390.942c1.866-.991 7.227-.068 8.86-.768-1.166 1.4 3.733 1.616 7.986.408-1.633 1.06-6.128 1.226-6.644 1.867s-2.333.176-3.6-.36-4.136-1.676-6.702-1.167z" fill="#00d860"/>
    <path d="M666.838 390.683c-4.263 1.108-9.162.992-7.986-.408-1.633.7-6.994-.233-8.86.768 1.924-1.166 3.382-.233 4.777-2.624.876.179 2.916.296 3.616-.638 1.226.292 3.383.817 4.024 1.464.642.642 1.629-.176.812-1.162 1.926-.7.704.83 6.19-.292.934-.233 3.208-.641 3.966-.7-1.616 1.226-3.324 2.662-6.64 3.612z" fill="#00d860"/>
    <path d="M373.36 664.19c-.017-1.966-.207-18.422-.207-22.226 0-.91-.468-.728-.468 0v22.122c.216.039.606.078.676.104zM380.69 640.77l.812 23.461-.142.188-.471.007-.613-23.666h.314zM387.43 660.68c-.066-2.389-.366-13.448-.482-18.9-.016-.727-.448-.6-.441.026.047 4.391.308 16.672.366 18.887.17 0 .463-.017.667-.013z" transform="matrix(4.4862 0 0 4.4867 -1190.9 -2609)" stroke-width=".138" stroke="#000" fill="#ff0"/>
    <path d="M376.6 644.67l-6.913-.104c-.389 1.403 1.362 1.377 2.002 1.013.763.672 1.326.62 1.741.062.698.494 1.361.364 1.663.062.832.624 1.689 0 1.607-1.013zM377.12 648.16l-7.069-.026c-1.221 1.169.364 1.741 1.716.936.182.39 1.013.624 1.663.312.698.468 1.361.13 1.741-.26.728.338 1.686.442 1.949-.961zM376.92 662.67l-6.809-.062c-.13 1.221 1.248 1.066 1.793.764.62.806 1.664.623 2.106.166.649.442 1.247.338 1.686-.078.764.66 1.377-.181 1.326-.779zM377.26 666.99l-7.614-.13c-.416 1.299.763 1.633 1.299 1.221.182.764 1.196.494 1.466-.062.39.39.884.182 1.118-.078.104.702.987.728 1.663.13 1.377.962 2.677-.166 2.079-1.091zM384.01 666.17l-6.341-.062c.286 1.299.909 1.637 1.923.883.764.78 2.001.494 2.313.104 1.377 1.118 2.131-.182 2.106-.936zM383.36 660.83l-6.133-.182c.104 1.669 1.686 1.607 2.339.831.672.728 1.686.62 1.949 0 .78.78 2.063.312 1.846-.649zM384.17 646.94h-6.601c.078 1.091 1.633 1.716 2.661.676.311 1.247 1.607.867 2.027.363.763.962 2.494-.129 1.923-1.039zM383.78 642.62l-6.899.078c-.104.961 1.299 1.377 1.819.697.286.494 1.273.442 1.669-.026.468.728 1.04.234 1.221 0 .676.494 1.404.26 1.3-.649zM390.69 644.77l-7.226-.078c-.026.763.764 1.066 1.221.763 0 .728 1.014.962 1.664.39.442.624 1.741.806 2.261-.062 1.066.884 2.209.26 2.079-1.013zM390.69 660.7l-7.069-.026c.062.987 1.196 1.326 1.846.806.166.832 1.04.884 1.669.468.624.702 1.664.764 2.236-.026.868.312 1.608-.416 1.43-1.221zM390.22 666.03l-6.688-.078c0 .988 1.17 1.118 1.69.698.646.66 1.377.66 1.846.13.763.66 1.897.468 2.063-.66z" fill="#fff" transform="matrix(4.4862 0 0 4.4867 -1190.9 -2609)" stroke-width=".138" stroke="#000"/>
    <path d="M381.26 664.42c-3.014.062-6.081.062-8.16-.26s-2.734-.604-4.168-1.466c-2.131-1.273-2.661-1.686-6.666-3.362-.462-.271-.963.066-.312.493 3.04 2.001 4.192 2.743 6.639 3.691 1.607.987 2.479 1.864 3.404 2.91 1.196 1.362 2.079 1.378 2.626 1.17s1.404-.494 2.261-.286c.868.208 2.001.234 2.699.13.646.494 1.793.39 2.496.234.701-.166 1.221-.234 1.716-.13s1.247.026 1.741-.062 1.793-.208 2.703-.078c.909.13 1.846.062 2.443-.13.697-.182 1.689-.13 2.063-.026.619-.39.779-.884.909-1.403.611-.078.814-.164.949-.607.247-.66.48-1.287.669-1.672h.246l.078-.686-.606-.686.182-1.117.646-.13c.026-.338-.13-.868-.234-1.066-3.274.13-6.484.234-8.783.286-.26.208-.646.764-.698 1.092-1.403.233-2.236.337-2.699.416s-.667.107-.867.494c-.468.624-.91 1.361-1.274 1.819z" transform="matrix(4.4862 0 0 4.4867 -1190.9 -2609)" stroke-width=".138" stroke="#000"/>
    <path d="M391.78 660.46c.169-.661.684-2.036 1.364-4.84.129-.468-.326-.663-.493-.062-.916 3.276-1.262 4.603-1.378 4.912.176-.003.428-.022.617-.02z" transform="matrix(4.4862 0 0 4.4867 -1190.9 -2609)" stroke-width=".138" stroke="#000"/>
    <path d="M396.86 664.96c-1.106.671-1.638.792-2.144.697-.466-.179-1.161-.28-1.662-.083a.623.623 0 0 1-.021.136 493.286 493.286 0 0 1-1.048 3.768c.818.289 2.227.328 2.666-.026.337-.364 1.26-.286 1.728-.26.299-.39.416-.871.338-1.106s-.062-.649.066-.974.273-1.378.078-2.063z" transform="matrix(4.4862 0 0 4.4867 -1190.9 -2609)" stroke-width=".138" stroke="#000" fill="#fff"/>
    <path d="M371.69 646.68c-1.222 3.634-6.468 11.461-8.014 14.014M366.64 660.76c2.901-2.244 10.236-9.628 11.483-12.694M370.11 662.62c-.337 2.677-1.11 7.462-1.626 9.973M371.24 668.48c-.987.962-2.387 2.641-3.427 3.661M380.64 663.14c-.831.806-1.78 1.744-2.611 1.978M381.02 663.27c.731.779 1.77 1.669 2.628 1.893M380.46 648.96c-.763.649-1.871 1.413-2.884 1.699M380.88 649.11c.66.646 1.342 1.342 2.173 1.706M377.72 646.94c.806-.234 2.004-.868 2.628-1.607M380.71 644.31c.706.806 2.066 1.466 2.732 1.637M377.88 642.7c.831-.182 1.861-.624 2.407-1.404M380.6 641.08c.701.698 1.933 1.462 2.738 1.64M386.63 643.41c-.461.468-1.666 1.309-2.267 1.296M386.99 643.37c.326.62 1.144 1.316 1.612 1.381M383.8 660.67c.909-.312 2.183-1.066 2.82-1.823M387.12 648.91c.266.48 1.28 1.666 1.862 1.786M384.88 666.96c.416-.09 1.647-.662 1.868-1.316M387.26 664.27c.429.633 1.481 1.607 2.131 1.741M370.68 666.87c1.273-.403 3.846-1.966 6.12-3.447M373.26 666.3c1.066.763 2.303 1.607 3.261 1.676M370.34 662.62c.702-.299 1.624-.809 2.339-1.649M373.22 660.87c.286.402 2.388 1.686 3.284 1.699M372.68 646.72c-.646.441-1.868 1.234-2.496 1.403M373.18 646.76c.728.606 2.167 1.4 3.164 1.4M372.68 642.66c-.686.662-1.672 1.686-2.391 1.919M373.16 642.81c.466.728 1.673 1.712 2.466 1.842M383.67 647.18c1.822 3.369 6.201 7.466 8.618 9.622M378.2 643.46c2.767 3.976 8.199 12.696 13.367 16.914M392.62 666.97a18.428 18.428 0 0 1-4.796 4.607M392.21 667.07c-1.741-2.78-2.641-6.296-3.943-10.924M374.16 668.61l2.144 6.899M373.76 668.37l1.896 6.017M373.34 668.09l1.76 6.262M373.16 668.19l1.369 6.128M374.47 664.1h1.699M376.96 663.46h-1.602M376.77 662.96h-1.646M376.69 662.46h-1.476M376.39 661.92h-1.404M373.89 661.44h1.332M373.79 661h1.264M373.68 660.62h1.202M373.69 660.09h1.134M373.49 669.66h1.078M373.4 669.24h1.02M373.3 668.86h.991M373.24 668.64h.923M371.67 668.66l-1.208 4.932M371.92 668.46l-1.037 6.21M372.2 668.27l-.839 6.649M372.66 668.16l-.609 6.803M372.68 663.63h-1.923M372.68 663.1h-2.226M372.68 662.66h-2.096M372.68 662.03h-1.966M372.68 661.6h-1.838M372.68 660.91h-1.692M372.68 660.4h-1.669M372.68 669.88h-1.436M372.68 669.38h-1.316M372.68 668.94h-1.212M372.68 668.69h-1.121M372.68 664.09v-6.88M379.16 666.27l-4.029 8.08M379.4 666.14l-3.43 8.264M379.66 666.06l-2.721 8.383M379.82 666.2l-2.116 8.238M377.8 664.06h-2.634M378 663.32h-2.369M378.11 662.72h-2.17M378.32 662.07h-2.063M378.42 661.66h-1.897M378.6 660.96h-1.787M378.78 660.26h-1.618M378.92 669.72h-1.488M379.07 669.11h-1.348M379.18 668.7h-1.247M379.28 668.31h-1.143M379.38 667.91h-1.063M379.47 667.66h-.968M379.66 667.21h-.887M379.66 666.86h-.8M379.74 666.62h-.721M382.36 666.4l1.763 6.68M382.7 666.62l2.139 6.366M383 666.63l2.606 6.237M386.11 661.32l-2.763-4.888M386.11 661.31h-2.192M386.73 660.66h-2.019M386.36 669.99h-1.861M384.98 669.32h-1.688M384.61 668.66h-1.629M384.23 668h-1.36M383.86 667.34h-1.194M383.48 666.67h-1.032M386.74 666.83l-1.726 6.173M386.26 666.6l-1.6 6.303M386.4 661.78l1.174-4.992M386.88 666.96l-.988 4.76M384.22 661.41h1.731M384.44 660.76h1.66M384.66 660.12h1.672M384.86 669.48h1.491M386.08 668.83h1.41M386.3 668.19h1.329M386.61 667.66h1.248M386.72 666.9h1.027M387.67 667.01l.846 3.647M387.98 666.84l1.169 3.697M388.38 666.83l1.276 3.702M388.9 667.03l1.277 3.477M390.06 660.2h-1.638M389.87 669.68h-1.666M389.68 669.16h-1.491M389.49 668.64h-1.43M389.29 668.12h-1.368M389.1 667.6h-1.284M388.91 667.08h-1.218" transform="matrix(4.4862 0 0 4.4867 -1190.9 -2609)" stroke-width=".138" stroke="#000" fill="none"/>
    <path d="M479.626 380.309c3.616-2.329 9.794-1.862 12.943.466 3.732-2.096 10.493-1.616 13.643 1.284 4.777-3.262 8.86-3.729 13.62-.684 3.617-2.662 9.211-2.796 13.627.234 4.194-1.984 8.86-3.612 12.938.7-2.446-1.76-7.694-3.267-12.938.816-4.083-4.083-11.193-2.666-13.626.233-3.033-3.616-9.444-4.2-13.293.234-4.194-3.6-10.488-3.617-13.871-.934-2.683-2.1-6.644-3.846-12.943-2.46z" fill="#00b800"/>
    <path d="M643.33 376.329c-18.637 3.203-68.936.933-67.796-1.284-3.046-.762-2.216-1.866.36-1.283 10.21 2.32 32 2.333 44.01 1.76 2.332-3.091 6.002-8.336 7.11-9.796s1.697-1.692 3.908-1.983c4.136-.7 6.6-1.076 10.086-1.691.068.466.068 1.06.068 1.4-.292.233-.683.641-.817.768 0 2.391.467 8.22.933 10.32.467-.069 1.06-.234 1.342-.292.816-.234 1.628 1.866.816 2.1z" fill="#cf6200"/>
    <path d="M673.702 376.226c.668-.018 2.064-.06 2.46-.068.768-.018 1.82-.639 2.287-1.706s1.911-6.479 2.436-7.287l-1.866-2.813c.408-2.32.933-6.466.992-6.106.933-.36 1.92-.7 2.386-.876.117-.626-.112-1.962-.683-2.419-7.986.306-31.883 1.136-36.267 1.194-1.06 0-1.621-.046-1.92 1.468-2.217 8.278.847 19.894 9.21 26.684.683.466 1.319.076.346-.817-1.396-1.283-3.663-3.908-6.011-6.601 1.633-.027 4.944-.08 6.936-.121.476 1.96 1.966 6.097 2.267 6.797s1.01.799.668-.247c-.803-2.46-1.226-6.24-1.674-6.682 1.616-.036 4.374-.009 6.123-.107.086 2.216.319 6.186.377 6.003s.768.876.772-.068c.018-.934.036-4.877.022-6.04 1.974-.063 4.496-.139 6.428-.139-.13 1.261-.372 6.34-.462 6.986-.134.96.364 1.4.697.068s.7-4.478.83-6.066c.79-.023 2.867-.108 3.741-.13-.086 1.243-1.261 6.02-1.601 6.012s.216 1.023.61.086c.413-.96 1.691-4.761 1.808-6.106z" fill="#cf6200"/>
    <path d="M647.233 376.284c-.641-1.284-2.624-6.847-2.8-9.167 1.692-.031 6.923-.112 7.964-.167.3 2.604 1.072 7.897 1.48 9.176-2.386.068-6.302.134-6.644.148zM663.783 366.906c.22 1.912 1.22 8.476 1.382 9.234 1.732-.103 6.742-.117 6.438-.176-.072-1.76-.366-8.314-.386-9.247-1.813.06-6.623.166-7.434.188zM644.766 367.786c-.323 1.678-.381 6.262-.292 6.792 2.042.04 7.066-.08 7.761-.139-.17-1.74-.444-4.89-.619-6.866-1.664.071-6.742.17-6.86.202zM663.11 367.661c.069 1.633.422 6.626.639 6.847 1.763-.06 6.078-.14 7.636-.189-.076-1.494-.314-6.308-.34-6.891-2.342.063-6.26.21-7.736.233zM662.362 367.292c.072 1.616.266 6.797.206 6.906 1.87-.06 6.446-.086 6.666-.176.086-1.621.332-6.869.216-6.977-2.1.081-6.446.193-6.976.247zM670.606 366.978c0 1.283-.161 6.792-.22 7.017 1.863-.072 6.061-.22 7.166-.247.292-1.603.876-6.406 1.06-7.063-1.76.069-6.707.247-7.986.283zM677.83 366.278c-2.392.077-6.237.18-7.638.23-.201 2.961-.67 8.063-.744 9.22 2.104-.046 6.367-.18 7.29-.207.7-1.4 2.216-6.77 2.666-7.112-.626-.816-.933-1.283-1.676-2.13zM662.621 366.682c0 1.06.184 8.666.229 9.207 1.368-.046 4.921-.094 6.446-.163.266-2.926.664-8.629.736-9.229-2.423.067-4.8.14-6.411.176zM631.666 363.887l-3.037.639c-1.4 2.261-6.686 9.266-7.227 10.072 3.611-.103 9.26-.21 10.619-.34-.1-1.876-.36-9.342-.366-10.27zM633.012 363.618c.072 2.392.3 8.763.369 10.464 1.79-.103 6.087-.318 6.429-.436-.31-3.006-.876-10.186-.992-11.06-1.603.274-4.466.794-6.796 1.041z"/>
    <path d="M377.29 666.93c.091.001.103.079-.001.078l-7.678-.096c-.104-.001-.09-.079.001-.078l7.678.096zM383.33 660.78c.091.003.102.081-.002.078l-6.083-.167c-.104-.003-.089-.081.002-.078l6.083.167zM376.91 662.64c.091.001.103.079-.001.078l-6.808-.06c-.104 0-.09-.078 0-.078l6.809.06zM377.11 648.12c.091 0 .104.078 0 .078l-7.121-.037c-.104 0-.09-.078.001-.077l7.12.036zM376.62 644.63c.091.001.102.08-.001.078l-6.919-.104c-.104-.002-.09-.08.001-.078l6.919.104z" transform="matrix(4.4862 0 0 4.4867 -1190.9 -2609)" stroke-width=".138" stroke="#000"/>
    <path d="M383.78 642.69c.091-.001.106.077.001.078l-6.938.067c-.104.001-.092-.077-.001-.078l6.938-.067z" fill="#fff" transform="matrix(4.4862 0 0 4.4867 -1190.9 -2609)" stroke-width=".138" stroke="#000"/>
    <path d="M384.16 646.91c.091 0 .104.078 0 .078h-6.662c-.104 0-.091-.078 0-.078h6.662zM390.69 660.64c.091 0 .104.078 0 .078h-7.072c-.104 0-.091-.078 0-.078h7.072zM390.69 644.73c.091.001.103.079-.001.078l-7.226-.071c-.104-.001-.09-.079.001-.078l7.226.071zM384.01 666.12c.091.001.103.079-.001.078l-6.366-.042c-.104-.001-.09-.079.001-.078l6.366.042zM390.22 666.98c.091.001.103.079-.001.078l-6.687-.074c-.104-.001-.089-.079.002-.078l6.686.074z" transform="matrix(4.4862 0 0 4.4867 -1190.9 -2609)" stroke-width=".138" stroke="#000"/>
    <path d="M396.26 667.06c.167-.349.179-1.161.089-1.466a1.106 1.106 0 0 1-.647-.04 2.973 2.973 0 0 0-.341-.106c-.022.402-.168 1.426-.348 1.822-.314.089-.947-.016-1.307-.128l-.262.942a3.46 3.46 0 0 0 1.462-.009c-.036.601-.114 1.148-.439 1.626.631.012 1.006-.066 1.18-.262a.403.403 0 0 1 .063-.048c.246-.41.262-.944.311-1.304.181.013.416-.039.619-.143s.273-.166.442-.143c.164.012.394-.02.699-.143.008-.184.044-.384.107-.668.034-.096.071-.263.102-.444-.387.186-1.26.494-1.61.483z" transform="matrix(4.4862 0 0 4.4867 -1190.9 -2609)" stroke-width=".138" stroke="#000" fill="#ef072d"/>
    <path d="M370.46 623.2c-.791.023-2.613.039-2.876.242-.361.204-.62.294.113.407s1.704.414 2.291.776c.687.361 1.079 1.001.917 1.914-.486 2.743.949 6.381 3.027 6.376.201.096.249.169.204.642s-.181.996-.294 1.163c-.113.169-.169.419.192.294-.248.464-.802 1.391-.971 1.628-1.661-.203-3.016.023-3.141 1.763-.012.17.046.441.306.012.26-.43.664-.837 1.266-.96-.418.644-.663 1.221-.486 1.694.067.373.169.699.36.124.181-.474.614-.918.87-1.187.136-.101.226-.124.124.17s.046.927.249 1.142c.203.214.306.124.248-.226-.066-.361.032-1.084.463-1.312.621-.327 1.162-.168 1.401.272.248.429.463.022.192-.464s-.664-.826-1.006-.869c.396-.701.869-1.649.961-1.718.101-.17.26-.249.396-.147.136.102.226.09.362-.192.136-.283.372-1.119.711-1.468.17-.046.441-.113.642-.204.441.644.836 1.367.938 1.616.101.168.216.226.113.664s-.462 1.368-.608 1.694c-1.232.046-1.796.067-2.192.767-.173.301.102.418.396.26.293-.168.711-.294.926-.26.214.034.316.144.101.249-.766.373-1.229.847-1.197 1.603.011.237.109.366.294.034.26-.462.734-.904 1.31-1.029-.034.664.091 1.368.429 1.638.339.169.363-.003.237-.328-.203-.62.008-1.043.26-1.323.631-.688 1.74.226 1.966.43.226.203.432.288.306-.238-.17-.7-1.164-1.107-2.011-1.22.237-1.142.87-3.448 1.209-4.239.497.271.886-.444 1.717-.136 1.4.62 3.601 1.831 3.863 2.126.361.294.497.226.678.068.18-.168.497 0 .746.046.249.046.476.113.168-.62-.316-.633-1.084-1.741-2.372-2.6.768.068 1.808.068 1.808-.136 0-.204-1.198-.688-1.696-.633.476-.113 1.198-.386 1.636-.769.201-.227-.04-.28-.746-.294-2.169-.046-3.263-.028-4.383-.678-1.807-1.04-2.841-2.136-3.728-2.6-.474-.249-.763-.823-.946-1.319-.687-1.683-.668-2.296-1.936-2.816s-2.963.117-3.686.772z" transform="matrix(4.4862 0 0 4.4867 -1190.9 -2609)" stroke-width=".138" stroke="#000"/>
    <path d="M370.66 623.66c-.361-.013-1.04-.096-1.611-.039-.13.013-.286.078.026.117s1.166.246 1.466.36.169.26-.091.196-.366.031-.143.182c1.106.78 1.222 1.079.936 3.766.208.143.377.247.669.338s.13.221-.066.169-.377.066-.066.13.464.208.166.196c-.299-.013-.66.247-.066.182.684-.066.818.208.13.221-.689.013-.429.234-.066.234.649 0 .464.182.286.182-.169 0-.247.221.182.182.428-.039.697-.062.763-.026s.221.166-.013.169c-.234.012-.221.181.13.181s.497.106.182.169c-.13.026-.31.091.066.143.66.091.676.247.468.273s-.234.143.066.169c.298.026.668.117.312.182-.247.066-.377.208-.066.234.312.026.672.143.338.221s-.286.221.013.208.416.166.208.272c-.208.117-.361.196-.481-.012-.129-.208-.207-.273-.246-.117-.039.166-.13.062-.234-.182s-.286-.299-.234-.117-.182.208-.403.117c.819.831 2.027 1.686 3.96.806.164-.066.196 0 .326.273s.494.871.624 1.092.233.022.298-.196c.26-.868.466-1.496.633-1.728.078-.234.442-.468.326.36.286-.196 1.663-.379 2.634-.013 1.078.403 2.162 1.028 2.716 1.443a.624.624 0 0 0 .493.143c.26-.026.326-.066-.169-.62-.493-.466-.286-.676.026-.466.312.221.481.091.247-.182s-.792-.806-.974-.936-.208-.182-.624-.208-1.299-.026-1.669-.026-.338.026.234.234c.671.207 1.741.961 2.001 1.143s.442.698-.13.234-2.366-1.481-3.66-1.897c-2.729.182-4.886.646-6.497-1.221-.772-.846-.806-2.781.493-3.687-.26-.221-.221-.361-.117-.403s.143-.104.039-.234c-.103-.13-.091-.246 0-.298-.286-.166-.416-.338-.402-.633-.361-.078-.607-.494-.976-.364s-.702.026-.844-.091c-.144-.117-.26-.169-.62-.143s-.468-.078-.481-.208.22-.193.672-.039c.74.326 1.338.481 1.793-.13.466-.61-.13-1.182-1.001-1.361-.87-.169-1.607.468-1.832.767z" transform="matrix(4.4862 0 0 4.4867 -1190.9 -2609)" stroke-width=".138" stroke="#000" fill="#fff"/>
    <path d="M374.92 623.33c-.262-.284-.728-.646-.961-.624-.234-.078-.26.166-.13.273-.104.166-.143.633.039.637s.184.262.013.337c-.26.13-.172.82.22.624.13-.066.234-.039.208.066s.026.234.143.26.104.196.078.26.013.091.143.104.143.326-.091.429c.286 0 .364-.062.442.182.078.233.39.286.39.671s-.062.338-.39.286-.468.062-.672.182-.13.26.13.273.312.13.062.247-.688.039-.763.286c-.066.246 0 .363.194.272.196-.09.698-.269.764-.36s.299-.104.429.104.026.441-.196.26c-.221-.182-.326-.014-.466.09s-.326.169-.633.169c-.207 0-.36.027-.324.494.078 1.404 1.169 2.443 3.17 2.417s2.989-.062 3.288-.013c-.663-.364-1.079-.669-1.313-.633s-.429.066-.326-.117-.013-.182-.117-.26-.233-.182-.441.039-.702.468-.949.62-.646.039-.312-.196.764-.312.91-.416.166-.168.166-.246-.039-.299.26-.13c.697.338 1.633.844 1.78.831s.416-.117.196-.26-.286-.36-.221-.428.104-.166.494.066c.389.22 1.026.606 1.26.61s.646.066.066-.286c-.481-.36-1.976-1.338-2.391-1.66s-.234.066-.196.182-.286.26-.466.117-.286-.299-.062-.429.286-.143-.066-.466c-.36-.311-.464-.286-.376-.026.078.26.104.646-.26.403s-.646-.312-.312-.466c.234-.142.633-.22.143-.646s-.273 0-.364.182-.39.182-.669.039-.247-.286-.13-.403.104-.182.273-.091.429.039.117-.234-.429-.166-.364 0-.182.429-.671.066c-.186-.172-.182-.403.013-.442.194-.039.213-.14.077-.338-.792-1.166-.467-2.092-1.26-2.949z" transform="matrix(4.4862 0 0 4.4867 -1190.9 -2609)" stroke-width=".138" stroke="#000" fill="#fff"/>
    <path d="M491.66 188.413c-.306.467-.418.44-.983.816-.696.462-.863 1.786.314 1.629.807-.108 1.278-.688 1.697-.978-.266-.494-.66-.983-.929-1.467zM488.016 186.496c-.897.87-1.064 1.261-.696 1.261.643 0 .31.076-.08.7-.387.624.78.933 1.246.467s.643-.624.776 0c.189.607.966.026 1.44-.463-.794-.767-1.861-1.476-2.786-1.966zM486.4 190.621c-1.166.684-.771 3.68.987 2.8.684-.292 1.06-.176.934.292-.063.246-.023.63.107.763a6.406 6.406 0 0 0 1.934-1.396c1.09-1.243.076-1.166-1.662-1.166-1.633 0-2.1-.31-.648-1.243 1.391-.836.486-1.414-1.44-1.144.278.394.14.826-.422 1.103zM493.086 197.386c-.867-.933-.314-1.4.619-1.866a1.21 1.21 0 0 0 .498-.427c-.266-1.027-.476-2.014-.764-2.974-.489.139-1.068 1.229-1.22 1.767-.233.777-.467 1.243-1.243 1.01-.69-.207-1.381.67-1.626 1.4.108.046.274.076.494.098.323.032.484.472.386.938 2.104-.067 2.463 1.387 2.822 2.383.39 1.09.867.933 1.167.314.31-.624-.39-1.71-1.243-2.643z" fill="#cf6200"/>
    <path d="M493.668 209.69c-.381.861-.39.776-1.633.862-1.243.081-2.808.292-3.496 1.014-.372.386-2.62.49-2.626 1.436-.01.961 0 1.76.933 1.808.928.068 1.046.176.7.876-.366.7-.684 1.867 1.046 1.983 1.633.117 2.8-.408 3.208.62.408.934-.032 2.423.291 2.976s1.427.907 3.136 1.436c1.14.366 6.442.666 6.766.404 1.32-.167.826-.947-.498-1.063-1.319-.117-2.292-.31-2.602-1.28-.31-.973-.683-1.48.167-2.292.736-.816 1.476-1.44 1.06-2.8-.43-1.36-1.13-2.966-2.683-3.383-1.666-.426-1.063-2.662-2.606-2.769-.683-.076-1.086-.076-1.243.274z" fill="#ff0"/>
    <path d="M486.131 222.242c1.337.117 2.604.626 1.4.817-1.108.292-1.691.933-.296 1.06 1.4.116 2.666.641 1.616.991s-1.283.992.069.934 1.866.7.933 1.22c-.933.626-1.676.876-2.168-.064-.679-.933-.929-1.226-1.104-.626-.176.696-.683.233-1.06-.816s-1.283-1.342-1.06-.626-.816.933-1.807.626c.978.991 2.077 1.966 3.328 2.772 1.432-.489 3.01-.09 3.66-.036.682.069 2.39.467 3.382.992s1.633-.408 1.224-1.468c-.408-1.046-.466-.696-.991-.117-.626.683-.642-.233-.683-1.463.06-1.032-.642-.769-.876-.117s-.768-.408-.467-1.06-.068-.876-.683-.7-.683 0-.641-1.167-.684-.991-.769-.624-.641-.176-1.34-1.109c-.611-.816-1.316-.336-2.636.148.163.09.431.166.848.202z" fill="#cf6200"/>
    <path d="M600.308 229.466c-6.37 2.684-10.966 1.436-14.423-.867 1.43-.49 3.041-.072 3.68-.018.683.068 2.39.467 3.382.992s1.633-.409 1.226-1.469c.876 1.109 1.616 1.867 2.661 1.809 1.06-.069 2.8-.234 3.676-.467zM486.714 200.123c-.39-1.32-.776-1.633-1.476-1.663-.7.077-1.01-.08-1.79-.39-.777-.31-1.786.076-1.943 1.476s-1.01 2.1-2.176 2.963c-1.166.866-1.866 1.666-1.866 2.966s-.31 1.786-1.086 2.8c-.346.449-.834.96-1.292 1.498.603.316.974.688 1.467.83.817.409.683.992-.291.769s-1.692.291-.292.683 2.037.933.7.876c-1.341-.068-2.916 1.108-.292.817 2.62-.292 3.67.933.683.991-3.09.068-1.924 1.06-.291 1.06 2.911 0 2.037.817 1.283.817-.768 0-1.108.991.816.816.027-.004.06-.009.081-.009.278-.287.486-.646.637-1.1.31-.932.62-3.666 1.71-4.432 1.086-.776 1.632-1.866 1.632-2.643s1.629-4.196 2.72-6.062 1.666-2.719 1.166-4.042z" fill="#ff0"/>
    <path d="M484.427 200.168c-1.104-.736-2.176-.31-2.176 1.09s-.7 1.786-1.633 2.262c-.929.467-1.786 1.633-1.943 2.724-.162 1.086.167 1.786-.619 2.642-.78.863-.867 1.663-.31 2.02.643.466.643.647.777 1.242.233.7 1.662-.076 1.662-.862s.314-.776 1.166-1.243c.867-.467 2.267-2.723 1.943-3.343-.31-.623-1.086-1.166-.076-2.023 1.009-.863 2.1-.933 2.1-1.786 0-.867.309-1.166.618-1.476.314-.314-.7-.78-1.4-1.247z" fill="#cf6200"/>
    <path d="M484.427 199.046c-.727-.283-1.162 1.243-.163 1.476s1.166-1.09.163-1.476zM484.247 201.02c-.772.094-1.633 1.108-.36.933s1.808-1.108.36-.933zM482.722 202.906c-.794.399-.642 1.468.626.7s1.468-1.692-.626-.7zM481.466 204.62c-.799.396-.642 1.464.626.7 1.166-.768 1.468-1.692-.626-.7z"/>
    <path d="M479.86 206.283c-.793.399-.291 1.468.876.7s1.109-1.692-.874-.7zM480.838 206.27c-.794.399-.292 1.468.874.7s1.108-1.692-.874-.7z"/>
    <path d="M479.447 206.673c-.794.4-.292 1.469.876.7s1.108-1.691-.876-.7zM480.344 207.796c-.798.4-.292 1.468.87.7 1.167-.768 1.109-1.691-.87-.7z"/>
    <path d="M478.998 208.468c-.794.396-.291 1.464.876.696s1.108-1.687-.876-.696z"/>
    <path d="M479.088 209.6c-.794.4-.292 1.468.876.7s1.108-1.691-.876-.7z"/>
    <path d="M478.46 219.326c-.803.103-1.32 1.247-.31 1.48s1.243.31 1.243 1.086.314 1.867 1.4 1.943c1.09.08 2.023-1.166 1.09-1.662-.933-.39-1.79-.7-1.866-1.667-.077-.863-.934-1.476-1.667-1.4z" fill="#cf6200"/>
    <path d="M607.082 212.64c.143.18.323.378.63.663.767.641 2.216 0 2.04-.626s-.991-2.217.876-.817 8.669 6.833 10.727 7.403c2.168 1.676.768 1.76-.292 1.283s-3.907-1.76-6.662-2.737c-1.76-.991-1.926-.641-2.217-.291-.246.291-.049.996.693 1.693-1.041.162-2.733-.077-3.217-1.186-.683-1.341-1.983-2.976-2.974-4.268-.368-.476-.476-.771-.413-1.018z" fill="#ff0"/>
    <path d="M664.909 403.64c-1.464.991-3.378 2.741-2.1 6.186.163-.08.297-.176.446-.26 6.702-6.9 10.682-14.166 14.764-21.693.049-.26.094-.607.126-.723-1.633 1.4-4.199 2.796-6.249 3.146.7 1.866-2.661 4.316-4.31 6.016.699 1.166.466 2.916-1.06 3.266.36 1.046-.817 1.046-2.217 1.629s-2.1 1.06-2.661 1.76c.763-.409 1.803-.769 2.386-.684s.7 1.06-.36 1.283-1.746.817-2.1 1.284c1.617-.684 3.676-.292 2.217.7z" fill="#00d860"/>
    <path d="M376.97 628.41c-.384-.336-.481-.13-.326.078s.039.312-.299.364-.846.117-1.063.117-.464.286.039.26c.494-.026 1.326-.196 1.647-.286s.402-.26.091-.633zM376.72 629c-.317-.286-.429-.208-.361 0s-.066.247-.272.312c-.208.066-1.027.338-1.378.377s-.429.286.091.273 1.62-.429 1.637-.607.166-.234.286-.166.247-.066-.013-.299zM376.96 629.83c-.23.137-.806.389-1.039.464s-.429.326.066.286c.493-.039 1.078-.494 1.234-.684.166-.091.234-.166.364-.143s.364-.169-.066-.403-.689-.117-.481.066.062.247-.078.326z" transform="matrix(4.4862 0 0 4.4867 -1190.9 -2609)" stroke-width=".138" stroke="#000"/>
    <path d="M482.049 187.616c-2.849-1.87-6.101 2.06-2.962 4.2 2.769 1.884 6.676-2.41 2.962-4.2z"/>
    <path d="M478.606 189.22l.843.069c-.176.87.7 2.186 2.041 1.861-1.076.817-3.176-.116-2.884-1.92zM489.64 231.71c.862.26 3.864.666 4.868.606-.607 1.068-.964 1.777-1.27 2.64-.304.768-.462.812-.606-.366-.06-1.171-.709-1.93-1.316-.713-.61 1.22-.916 1.673-1.216 2.18-.306.607-.763.714-.61-.666s.103-2.69.049-3.702z" fill="#fff"/>
    <path d="M399.67 640.77c-.046 16.332-2.623 33.927-23.764 42.308-21.142-8.381-23.719-26.976-23.766-42.308h47.629zM399.67 640.77c.018-6.162-.324-12.126-.168-17.369-7.9-3.636-18.296-4.262-23.696-4.262-6.302 0-16.697.727-23.697 4.262.166 6.234-.186 11.207-.168 17.369h47.629z" transform="matrix(4.4862 0 0 4.4867 -1190.9 -2609)" stroke="#000" stroke-width=".276" fill="none"/>
  </g>
</svg>
