<svg xmlns="http://www.w3.org/2000/svg" height="480" width="640">
  <defs>
    <clipPath id="a">
      <path fill-opacity=".67" d="M-16.067 0h682.67v612h-682.67z"/>
    </clipPath>
  </defs>
  <g fill-rule="evenodd" clip-path="url(#a)" transform="translate(14.126) scale(.9376)" stroke-width="1pt">
    <path fill="#fff" d="M-62 0H962v612H-62z"/>
    <path fill="#de2918" d="M-62 341.33H962V612H-62z"/>
    <path fill="#08399c" d="M-62 170.67H962v170.67H-62z"/>
    <path d="M228.37 92.976c-4.02 61.661-6.322 96.436-16.709 111.07-10.16 16.789-20.026 29.081-69.63 43.882-39.61-14.81-49.48-27.1-69.633-43.89-9.387-16.63-11.69-49.41-16.709-111.06l6.863-1.971c11.783-3.694 20.674-6.484 27.077-7.767 9.313-1.971 17.228-4.2 42.267-4.722 26.029.43 32.983 2.797 42.296 4.768 6.46 1.376 16.617 4.081 27.312 7.744l6.884 1.948z" fill="#de2918"/>
    <path d="M222.6 90.966c-3.802 61.618-6.983 89.69-11.943 103.24-9.626 23.193-24.866 36.909-67.666 48.038-32.8-12.14-48.04-24.86-67.664-48.06-4.961-13.64-8.096-41.64-11.788-103.3 11.634-3.602 20.677-6.418 27.08-7.7 9.313-1.972 17.228-4.294 42.267-4.726 26.029.431 33.037 2.763 42.36 4.724 6.603 1.283 16.732 4.098 27.373 7.763z" fill="#08399c"/>
    <path d="M162.96 109.79l1.673 3.723 6.91.947-4.478 2.7 4.33 2.894-6.298 1.066-1.916 3.374-2.166-3.474-6.996-.86 4.08-2.968-4.2-2.691 6.636-1.017 1.616-3.703z" fill="#fc0"/>
    <path d="M208.28 179.62l-3.83-3.028-2.769-4.664-6.422-4.704-2.826-4.763-6.423-4.862-2.663-4.763-2.883-2.327-1.903-1.832-4.899 4.296-2.67 4.666-3.326 3.016-3.666-2.864-2.763-4.867L163 134.866l-10.26 18.217-2.763 4.867-3.664 2.864-3.327-3.016-2.67-4.666-4.898-4.296-1.904 1.832-2.883 2.328-2.663 4.762-6.423 4.862-2.826 4.763-6.423 4.704-2.768 4.664-3.821 3.099c1.984 16.886 12.748 30.116 18.613 36.168 6.646 6.366 20.039 14.868 36.64 20.486 16.648-6.608 30.229-14.131 36.774-20.486 6.866-6.062 16.629-19.282 18.626-36.239z" fill="#fff"/>
    <path d="M169.46 83.89l1.673 3.723 6.91.947-4.478 2.7 4.33 2.894-6.298 1.066-1.916 3.374-2.166-3.474-6.996-.86 4.08-2.968-4.2-2.691 6.636-1.017 1.616-3.703zM136.47 83.834l1.673 3.723 6.91.947-4.478 2.7 4.33 2.894-6.298 1.066-1.916 3.374-2.166-3.474-6.996-.86 4.08-2.968-4.2-2.691 6.636-1.017 1.616-3.703z" fill="#fc0"/>
    <path d="M199.72 203.03l-7.468.023-6.892-.613-8.348-4.094-9.409.066-8.149 3.981-6.427.669-6.428-.669-8.148-3.98-9.41-.067-8.347 4.094-6.892.613-7.662-.104-3.662-6.187.136-.142 11.172 1.848 6.891-.612 8.348-4.096 9.41.067 8.148 3.981 6.427.668 6.428-.668 8.148-3.981 9.41-.067 8.347 4.096 6.892.612 10.874-1.906.144.286-3.643 6.182zM113.26 212.64l7.393-.613 8.348-4.094 9.409.067 8.148 3.98 6.428.669 6.427-.668 8.149-3.981 9.41-.067 8.347 4.094 7.493.613 4.836-6.96-.163-.136-6.18 1.61-6.892-.612-8.347-4.094-9.41.066-8.148 3.981-6.428.669-6.427-.669-8.149-3.98-9.409-.067-8.347 4.094-6.892.613-6.077-1.28-.061.26 4.643 6.614z" fill="#08399c"/>
  </g>
</svg>
