<svg xmlns="http://www.w3.org/2000/svg" height="480" width="640" version="1">
  <defs>
    <clipPath id="a">
      <path fill-opacity=".67" d="M-26.334 0h682.67v612h-682.67z"/>
    </clipPath>
  </defs>
  <g fill-rule="evenodd" clip-path="url(#a)" transform="translate(24.688) scale(.9376)" stroke-width="1pt">
    <path fill="#fff" d="M-69 0h768v612H-69z"/>
    <path fill="#01017e" d="M-69 170.67h768V612H-69z"/>
    <path fill="#fe0101" d="M-69 341.33h768V612H-69z"/>
    <path d="M64.736 116.2v143.67c9.833 66.061 36.893 113.09 123.9 142.09 87.619-29.009 116.64-83.686 126.87-143.08V116.19H64.736z" fill="#fff"/>
    <path d="M74.669 127.61v126.38c8.86 46.726 26.069 108.17 114.07 137.18 87.619-29.009 107.68-91.462 116.64-137.18V127.61H74.669z" fill="#fe0101"/>
    <path d="M202.41 203.23v20.169h40.318c6.406 0 10.489-2.623 16.734-3.934v37.869c-6.409-1.147-10.696-3.441-16.226-3.441h-39.334v46.218l-27.043-.984v-46.234h-38.36c-6.764 0-11.144 2.96-16.717 4.426v-40.317c6.246 1.639 10.239 4.916 16.734 4.916h39.334v-20.169h-29.009c-6.083 0-9.606 3.606-14.269 6.41v-38.36c6.409 2.294 10.36 6.882 16.226 6.882h27.634v-17.209c0-8.037-4.69-16.406-6.884-23.109h38.842c-1.967 7.867-6.9 16.492-6.9 23.601v16.717h26.06c6.799 0 13.111-3.606 19.667-6.408v37.86c-6.9-1.967-11.482-6.901-17.7-6.901H202.41z" fill="#fff"/>
    <path d="M162.76 306.6c-23.11-11.666-46.184-6.102-66.744 13.398 16.41 31.344 47.632 66.666 91.637 71.17 43.76-14.606 76.696-39.826 93.06-69.696-13.697-26.94-39.467-22.496-66.174-14.381-11.8-29.009-69.986-27.634-72.768-.492z" fill="#01017e"/>
  </g>
</svg>
