<svg xmlns="http://www.w3.org/2000/svg" height="480" width="640">
  <g fill-rule="evenodd" stroke-width="1pt">
    <path fill="#19b6ef" d="M0 240h640v240H0z"/>
    <path fill="#fff" d="M0 0h640v240H0z"/>
  </g>
  <path d="M317.07 339.221c62.46-39.239 108.96-119.306 42.74-161.41-12.336-2.388-26.107-1.672-32.713 3.682-3.601-1.99-6.288-1.83-9.79 1.91-2.466-3.026-4.936-4.379-10.028-2.866-10.188-6.173-19.42-6.288-31.617-3.106-67.623 34.622-22.366 116.76 41.308 161.888z" fill-rule="evenodd" stroke="#7d6c00" stroke-width="2.3686264" fill="#fd0"/>
  <g stroke="#3a9d4f">
    <path stroke-linejoin="round" d="M414.08 260.106s6.903-7.939 6.106-7.939c6.904-3.46 6.616-7.938 6.616-7.938 6.903-1.833 4.07-6.718 4.477-7.328 2.862-3.063 1.833-6.108 1.426-7.126 0-.812 2.036-8.346-.814-9.362.136-8.008-4.818-7.261-8.764-2.036-4.207 1.221-6.167 4.682-3.664 8.66-6.497 0-6.7 7.939-4.071 12.416-7.328-.203-3.267 7.939-3.461 8.347-2.442 1.221 1.832 12.824 2.24 12.416zM367.867 318.3l3.664 2.239c.746 2.781 3.326 4.647 6.294 4.072.96 4.274 6.663 3.666 8.966 1.221 2.714 3.936 6.04 4.006 10.686 2.647 4.07 2.986 9.364 1.696 12.824-1.426 3.731 3.063 6.243.816 8.142-2.442 2.917.746 6.224.272 6.31-2.647 6.7-.474 2.86-6.836-1.83-8.142 3.73-3.268 7.87-9.976 2.036-10.993-1.833-1.366-6.292-1.084-7.94.206-.677-2.987-4.818-3.733-9.364-.408-1.66-3.326-6.989-1.764-9.668.611-3.266-2.86-7.124-2.86-12.824.406L367.867 318.3zM367.867 309.666c.678-3.731-1.9-10.617 2.036-11.196-.746-6.243.34-13.3 7.632-12.621 1.166-6.903.883-11.4 7.736-12.216 0 0 6.497-19.134 11.197-6.903 2.239 3.87 1.832 10.177-2.647 8.966.883 4.761-.678 8.889-6.903 8.764 2.307 3.324 1.66 7.872-1.018 9.976-6.311 4.748-12.62 9.6-18.932 14.248zM401.037 286.736l6.904-1.22c6.106-4.071 8.66-6.7 11.603-1.223 6.089-1.086 9.974-.643 9.771 3.461 6.04.407 6.971 4.274 6.294 7.328.949 6.36-1.368 12.36-6.09 3.867-11.807-7.192-18.626-6.243-37.263-2.036l9.771-10.178zM404.102 279.822c.206-.203 17.607-4.682 16.676-9.974 4.886-.816 6.904-6.7 6.108-6.7 10.177-3.266 9.666-9.161 9.666-9.161 2.918-3.122 8.076-6.243 6.922-11.807.34-6.31.882-10.177-7.632-6.106-6.311-.612-8.66 3.063-10.382 8.66-2.986-3.628-7.802 2.104-8.346 7.124 0 0-7.736 7.632-7.736 7.736s-6.614 12.01-6.614 12.01l2.238 7.33z" fill-rule="evenodd" stroke-width="2.3686264" fill="#4fd46b"/>
    <path stroke-linejoin="round" d="M404.602 266.397c-4.14-3.122-6.446-6.863-6.7-10.686-2.713-3.664-4.614-6.903-2.036-9.16 0 0-2.036-7.329-2.036-7.632-6.292-2.036-3.063-6.613-1.629-8.142-2.61-3.461-2.678-7.126-.203-10.382-.068-6.616 4.646-4.071 8.346 0 0 0 6.311 4.479 1.63 8.66 4.681 1.629 6.107 6.698 3.46 7.327 4.071 1.833 4.681 6.497 2.442 7.94 4.14 3.326 2.679 7.466 3.868 11.196l-8.142 10.789z" fill-rule="evenodd" stroke-width="2.3686264" fill="#4fd46b"/>
    <path stroke-linejoin="round" d="M411.831 236.064c-.203-.203-6.92-8.763-6.089-9.364-.406-2.647-2.441-6.497-1.22-8.142-3.326-3.326-3.394-7.26-.816-10.38-2.239-3.064-1.221-7.126 1.832-9.772-.96-6.022 2.679-6.176 6.7-7.126 2.307-8.076 6.038-6.971 8.142.203 3.19 2.782 2.716 6.99 1.63 10.18 3.799 2.678 1.492 6.766-.204 7.124l-9.976 27.277z" fill-rule="evenodd" stroke-width="2.3686264" fill="#4fd46b"/>
    <path stroke-linejoin="round" d="M410.816 193.106l-6.7-6.7c1.473-3.02 2.669-8.344-1.627-10.789-2.364-6.767-14.182-12.892-16.083.816-1.799-4.136-6.663-8.21-8.346-3.46-6.176-6.292-9.6-3.666-6.311 3.063 0 0-2.848 4.478 4.682 7.939.611.61-2.442 8.142 6.616 8.346-1.696 2.679 1.086 6.176 4.682 6.903-2.679 3.19 1.764 6.683 4.477 6.294-1.164 3.628-1.086 6.226 3.868 6.7l6.497 6.31 4.477 6.106 3.868-29.616z" fill-rule="evenodd" stroke-width="2.3686264" fill="#4fd46b"/>
    <path d="M414.28 246.608c.288-.288 10.938-24.767 12.378-32.243M416.43 203.06s1.726 19.864-3.167 34.646M382.616 182.896s21.879 21.016 23.893 29.661M397.873 180.696s1.439 17.274 7.484 34.269M436.46 243.343s-21.879 18.426-32.63 34.646M416.712 307.84s-28.788 4.03-41.464 4.318M406.218 320.216s-36.698-.864-38.29-3.464M388.361 273.869c0 .287-18.136 30.226-18.712 40.016" stroke-linecap="round" stroke-width="2.2203781" fill="none"/>
  </g>
  <path d="M316.87 333.441c-37.768-36.624-76.464-102.482-37.972-136.27 6.84 3.88 14.903.409 26.03-3.98 3.368 3.674 7.664 4.694 11.942 1.837 4.797 2.042 8.37.408 10.718-2.144 10.922 6.33 24.906 9.696 28.172 3.37 37.87 36.93-.611 103.096-38.89 137.187z" fill-rule="evenodd" stroke="#7d6c00" stroke-width="2.3686264" fill="#66c7ff"/>
  <path d="M317.086 332.408c-16.219-16.307-31.017-34.386-42.347-67.66 1.939-1.632 2.84-2.138 3.861-4.997 6.818.818 8.88 1.021 16.636-.306 1.63 6.717 1.837 10.614 6.611 16.311l7.666-16.006c6.206 1.226 11.637 1.633 16.636 0 3.166 4.288 2.042 10.72 7.666 16.618 3.368-9.9 6.738-10.616 10.106-16.924 6.002 1.736 8.167 1.021 12.26-.307 2.143 2.46 1.072 2.41 4.976 6.007-10.233 20.32-24.266 40.728-42.739 67.263z" fill-rule="evenodd" fill="#8fc763"/>
  <path d="M272.66 164.304a3.346 3.346 0 1 1-6.692 0 3.346 3.346 0 0 1 6.692 0zM269.168 166.694a3.346 3.346 0 1 1-6.691 0 3.346 3.346 0 0 1 6.691 0zM266.086 149.466a3.346 3.346 0 1 1-6.692 0 3.346 3.346 0 0 1 6.692 0zM262.321 142.482a3.346 3.346 0 1 1-6.692 0 3.346 3.346 0 0 1 6.692 0zM262.767 134.918a3.346 3.346 0 1 1-6.691 0 3.346 3.346 0 0 1 6.691 0zM280.42 122.407a3.346 3.346 0 1 1-6.692 0 3.346 3.346 0 0 1 6.692 0z" fill-rule="evenodd" stroke="#000" stroke-width="1.1110219000000001" fill="#fff"/>
  <path d="M273.814 123.671a3.346 3.346 0 1 1-6.692 0 3.346 3.346 0 0 1 6.692 0zM266.64 127.936a3.346 3.346 0 1 1-6.692 0 3.346 3.346 0 0 1 6.692 0zM288.943 122.662a3.346 3.346 0 1 1-6.692 0 3.346 3.346 0 0 1 6.692 0zM298.264 123.28a3.346 3.346 0 1 1-6.692 0 3.346 3.346 0 0 1 6.692 0zM306.646 122.843a3.346 3.346 0 1 1-6.692 0 3.346 3.346 0 0 1 6.692 0z" fill-rule="evenodd" stroke="#000" stroke-width="1.1110219000000001" fill="#fff"/>
  <path d="M326.874 117.604a8.683 8.683 0 1 1-17.166 0 8.683 8.683 0 0 1 17.166 0z" fill-rule="evenodd" stroke="#7d6c00" stroke-width="1.110941" fill="#fd0"/>
  <path d="M334.913 122.698a3.346 3.346 0 1 1-6.692 0 3.346 3.346 0 0 1 6.692 0zM343.642 123.426a3.346 3.346 0 1 1-6.691 0 3.346 3.346 0 0 1 6.691 0zM362.08 122.988a3.346 3.346 0 1 1-6.693 0 3.346 3.346 0 0 1 6.692 0zM369.207 122.698a3.346 3.346 0 1 1-6.692 0 3.346 3.346 0 0 1 6.692 0zM368.082 123.716a3.346 3.346 0 1 1-6.692 0 3.346 3.346 0 0 1 6.692 0zM376.064 128.08a3.346 3.346 0 1 1-6.692 0 3.346 3.346 0 0 1 6.692 0z" fill-rule="evenodd" stroke="#000" stroke-width="1.1110219000000001" fill="#fff"/>
  <path d="M269.414 161.697c2.86 6.42 6.698 11.06 8.648 16.47h79.23l9.174-16.846c-6.362-3.683-9.036-6.633-16.68-4.796-4.31-6.186-9.036-7.366-16.064-6.671-2.086-2.164-3.963-3.476-7.608-3.961l-16.678.416c-4.38.416-7.716 3.763-7.924 3.763-7.09-.836-13.662-.627-16.22 6.264-6.463-1.699-11.06.14-16.888 4.38z" fill-rule="evenodd" stroke="#ac0000" stroke-width="2.3686264" fill="#e40000"/>
  <path d="M377.974 136.364a3.346 3.346 0 1 1-6.692 0 3.346 3.346 0 0 1 6.692 0zM378.666 143.21a3.346 3.346 0 1 1-6.692 0 3.346 3.346 0 0 1 6.692 0zM376.082 160.484a3.346 3.346 0 1 1-6.692 0 3.346 3.346 0 0 1 6.692 0zM373.027 166.448a3.346 3.346 0 1 1-6.692 0 3.346 3.346 0 0 1 6.692 0zM369.39 164.013a3.346 3.346 0 1 1-6.69 0 3.346 3.346 0 0 1 6.69 0z" fill-rule="evenodd" stroke="#000" stroke-width="1.1110219000000001" fill="#fff"/>
  <path d="M322.666 164.424a4.946 4.946 0 1 1-9.893 0 4.946 4.946 0 0 1 9.893 0z" fill-rule="evenodd" stroke="#000" stroke-width="1.1106424000000002" fill="#fff"/>
  <path d="M323.646 143.046a6.964 6.964 0 1 1-11.93 0 6.964 6.964 0 0 1 11.93 0z" fill-rule="evenodd" stroke="#000" stroke-width="1.11061072" fill="#fff"/>
  <path d="M322.686 131.996a6.383 6.383 0 1 1-10.766 0 6.383 6.383 0 0 1 10.766 0z" fill-rule="evenodd" stroke="#000" stroke-width="1.10936864" fill="#fff"/>
  <path d="M316.487 109.066c0-.926-.028-4.166.037-4.296l-3.672-.064.102-3.176 3.1-.037.037-2.776h4.396v2.644h3.47l-.072 3.378-3.6-.037-.03 4.626-3.867-.066z" fill-rule="evenodd" stroke="#7d6c00" stroke-width="1.1110219000000001" fill="#fd0"/>
  <path d="M277.66 168.17c-7.092-12.023-17.61-28.367-11.063-36.444 8.966-10.143 29.963-.973 43.367-6.881.972 11.468-2.224 30.44 2.92 34.403l-4.796 4.17c-2.92-3.763-8.418-8.782-16.22.208-3.892-3.403-8.316-2.806-10.4 1.72-1.982.267-1.867 1.06-4.819 1.824zM367.68 167.764c7.09-12.023 17.61-28.367 11.061-36.444-8.966-10.143-29.962-.973-43.366-6.882-.973 11.469 2.223 30.441-2.92 34.404l4.796 4.17c4.614-6.489 10.373-6.699 16.22.207 3.893-3.403 7.926-2.936 10.4 1.721 1.983.267 1.868 1.06 4.82 1.824z" stroke="#fd0" stroke-width="3.3314" fill="none"/>
  <path d="M277.343 177.132c28.496-2.918 64.904-1.877 79.23 0l3.127-8.967c-27.66-6.003-46.773-6.628-82.982-.624l.626 9.69z" fill-rule="evenodd" stroke="#7d6c00" stroke-width="2.3686264" fill="#fd0"/>
  <path d="M314.121 329.377c.206-1.43.408-2.762.613-4.191 2.834.763 4.996.468 7.36-.402.816-1.226 1.633-2.46 2.46-3.676l-1.838-2.142c-1.616.348-2.941 1.86-3.98 3.168-1.628.077-3.064-.71-4.696-1.016l-1.63-6.43c-1.62-1.796-4.671-1.668-3.982 1.631l.307 2.46c.613 1.631.841 3.639 1.837 4.786v2.611c1.123 1.141 2.246 2.28 3.368 3.422zM316.337 311.087c-2.13 1.066-4.669-.78-7.349-1.837-2.46-.168-4.419 1.872-7.349 1.224.636-1.69 1.837-1.837 2.767-2.766-.673-4.131 1.63-6.612 2.144-6.612.61 0 3.061.613 3.061.613l2.46.306c1.43 2.664 3.433 6.02 4.286 7.962z" fill-rule="evenodd" fill="#c76e2e"/>
  <path d="M300.779 366.089c7.066-11.472 66.269-34.608 102.422-84.261-46.99 46.243-76.367 66.36-114.812 83.974l12.39.277z" fill-rule="evenodd" stroke="#e9bf00" stroke-width="2.3686264" fill="#ffe100"/>
  <path d="M368.406 313.186a3.682 3.682 0 1 1-7.163 0 3.682 3.682 0 0 1 7.163 0zM402.786 278.323a4.06 4.06 0 1 1-8.118 0 4.06 4.06 0 0 1 8.118 0zM414.262 248.713a3.682 3.682 0 1 1-7.163 0 3.682 3.682 0 0 1 7.163 0zM403.02 210.28a3.682 3.682 0 1 1-7.164 0 3.682 3.682 0 0 1 7.164 0z" fill-rule="evenodd" stroke="#68300e" stroke-width="1.1110219000000001" fill="#9d4916"/>
  <path d="M279.126 269.696v-16.148l-1.64-1.283v-3.694l2.824-.267.613-16.946-1.797-1.028-.267-2.823s2.064.77 2.064.267.613-3.339.613-3.339-1.282-.266-1.282-.77 1.639-1.796 1.639-1.796-.77-.772-1.026-1.286-.77-2.823-.77-2.823l.77-2.826-.613-1.64-1.286-2.311 1.798-1.797s-.613-2.31-.613-2.824 1.282-2.667 1.639-2.826c.268-.266 2.312-3.08 2.312-3.08l4.364-1.027 6.136.77 2.824 1.798.613 4.62s-.613 2.824-.77 2.824-2.31 1.028-2.31 1.028-2.669.266-2.826 0 .77 3.081.77 3.081v3.08l-.266 3.861s0 1.798-.268 2.064c-.266.267-.77 1.028-.77 1.028l-.266 3.861 4.108 1.026-.267 2.312-2.826.267.616 16.66 4.108.77v4.366l-1.798 1.026-.613 16.66h-14.378zM341.622 269.861v-16.148l-1.64-1.282v-3.696l2.824-.266.613-16.946-1.797-1.028-.267-2.823s2.064.77 2.064.266.613-3.338.613-3.338-1.282-.267-1.282-.77 1.639-1.797 1.639-1.797-.77-.771-1.026-1.284-.77-2.823-.77-2.823l.77-2.826-.613-1.64-1.286-2.31 1.798-1.798s-.613-2.31-.613-2.823 1.282-2.667 1.639-2.826c.268-.267 2.312-3.08 2.312-3.08l4.364-1.028 6.136.771 2.824 1.798.613 4.62s-.613 2.824-.77 2.824-2.31 1.027-2.31 1.027-2.669.267-2.826 0 .771 3.082.771 3.082V218l-.266 3.86s0 1.798-.269 2.066c-.266.266-.77 1.027-.77 1.027l-.266 3.862 4.108 1.026-.267 2.312-2.826.266.616 16.661 4.108.77v4.366l-1.798 1.026-.613 16.661h-14.378zM309.94 270.378V266.23l-1.64-1.283v-3.694l2.826-.267.613-16.946-1.798-1.028-.266-2.823s2.064.77 2.064.266.613-3.338.613-3.338-1.283-.266-1.283-.77 1.64-1.797 1.64-1.797-.77-.77-1.027-1.284-.77-2.823-.77-2.823l.77-2.826-.613-1.64-1.284-2.311 1.797-1.798s-.613-2.31-.613-2.823 1.283-2.667 1.64-2.826c.267-.266 2.311-3.08 2.311-3.08l4.364-1.028 6.136.772 2.823 1.797.613 4.62s-.613 2.824-.77 2.824-2.31 1.028-2.31 1.028-2.668.266-2.826 0 .771 3.081.771 3.081v3.08l-.266 3.861s0 1.798-.268 2.064c-.267.267-.77 1.028-.77 1.028l-.266 3.86 4.107 1.027-.266 2.312-2.826.266.614 16.661 4.108.77v4.366l-1.797 1.026-.613 16.66H309.94z" fill-rule="evenodd" stroke="#a9a9a9" stroke-width="1.1110219000000001" fill="#fff"/>
  <path fill-rule="evenodd" d="M282.923 269.496v-11.938h6.686v12.416l-6.686-.478zM314.438 270.444l.238-12.178h6.97v11.938l-6.208.24zM346.486 270.211l-.478-11.46 6.448-.24v11.94l-6.97-.24zM284.688 234.149h3.82v6.208h-3.82zM314.92 234.399h6.264v6.97h-6.263zM346.963 234.866h4.637v6.73h-4.637z"/>
  <path d="M286.67 206.966c4.108 4.62 4.366 4.62 4.366 4.62M317.12 206.966c.769 1.639 2.063 4.877 3.694 6.133M349.984 207.73s1.284 3.696 3.081 4.108" stroke="#a8a8a8" stroke-width="1.1110219000000001" fill="none"/>
  <path d="M282.206 194.022c12.012-3.883-2.806-11.648-6.267 0-3.886.628-4.389 3.611-12.789 2.269-20.313 33.102-6.267 86.618 64.169 141.816-106.467-90.694-63.194-167.604-33.714-166.077 16.034 1.096 7.946 21.096-2.399 11.002z" fill-rule="evenodd" fill="#b97700"/>
  <path d="M286.664 177.049s9.781 2.633 9.781 6.77M296.332 176.299s6.771 3.008 8.276 6.642M348.761 177.432s-8.663 1.129-10.634 3.76M336.676 178.181s-4.888 4.138-4.614 6.266M334.46 196.237c-.763-.376-4.138-4.89-3.387-10.633M301.346 193.24s2.267-2.634 2.267-7.626M317.163 183.828l.376 10.909M326.93 193.24c0-.764 3.01-7.9-.376-11.286M306.242 180.447s-2.633 7.147-.76 13.166M326.431 186.843s-4.137 1.128-6.02 3.01M307.742 187.969c0-.376 4.614-1.128 6.018 1.606" stroke="#7d6c00" stroke-width="2.3686264" fill="none"/>
  <path d="M300.63 301.86c.19.096 3.746-.674 3.746-2.403 1.826-1.162.48-4.419.48-4.419l-3.361-.673-4.613-6.187c-.223-1.6.322-3.104-.671-4.802-3.17.833-4.996 3.49-6.063 6.631.77.962.866 2.018 2.307 2.882 1.604.267 2.628-.64 3.938-.383.736 1.28.61 2.37.767 3.666 1.923 1.344 2.307 3.266 3.46 4.898zM296.498 279.672v-6.148l-4.419-.193c-.646.93-1.67 1.378-2.21 2.21l-3.074 1.638c1.281 1.637 2.86 2.402 3.843 3.17 2.242.673 4.1.673 6.86-.677zM282.666 288.8l-2.402-4.036c1.473-.48 3.33-.288 4.707.289 0 0 1.068 2.498.289 3.468-.386.864-2.69.48-2.694.29zM319.168 292.931c1.281-.64 2.466-1.76 2.69-3.361l-4.419-6.092-4.034-.096c-.928-.961-2.434-1.163-3.66-1.163 0 0 1.26 1.92 2.882 2.306 1.163 2.691 6.148 7.396 6.631 7.396zM323.6 293.498c0-.096 3.937-1.441 6.06-1.248-.19-1.634 2.979-6.38 2.979-6.38l6.672 7.3c-1.026.866-2.819.677-4.228.866 0 0-2.69 2.694-2.978 2.69s-6.187 1.248-7.69-.191c-1.066-2.018.29-4.326.194-4.036zM326.664 280.722c.673-2.337.864-4.676 0-7.69 0 0-6.341-.096-6.341 0s-4.226 1.921-4.226 2.018 1.346 4.13 2.978 3.746c.736 2.146 2.913 1.6 3.938 2.402 1.217-.192 2.433-.386 3.661-.676zM361.66 274.292c-.866 2.669-1.346 6.609-.097 8.07 1.163.192 2.498.96 3.666.768l6.092-9.223c-3.623-1.12-6.373-.992-8.66.386z" fill-rule="evenodd" fill="#c76e2e"/>
  <path d="M363.116 193.19c-12.011-3.884 2.807-11.66 6.267 0 3.886.627 4.39 3.61 12.79 2.268 20.313 33.102 6.266 86.618-64.17 141.816 106.467-90.694 63.194-167.604 33.716-166.077-16.034 1.096-7.946 21.096 2.398 11.002z" fill-rule="evenodd" fill="#b97700"/>
  <path d="M364.331 284.67c-.191 0-3.073 2.112-3.073 2.112-1.378.644-2.763 1.089-4.13 1.634l-4.42.096-.961-3.074 3.363-2.978c-2.86-.416-6.7.706-7.974 2.787 0 0 0 3.361 1.922 4.996 1.163 1.44 4.614 4.036 4.614 4.036 2.114.416 4.131.063 6.476-1.068 1.76-2.86 3.623-6.699 6.283-8.649zM331.078 314.836c1.443.386 11.337-12.776 11.337-12.776-.866-2.466-2.787-4.269-4.9-6.38 0 0-4.806 6.667-4.9 7.689-.767 1.729-2.976 8.367-2.017 9.223-.096.192-.48 2.88.48 1.344z" fill-rule="evenodd" fill="#c76e2e"/>
  <path stroke-linejoin="round" d="M266.366 317.4c-14.817-12.887-34.809-19.991-62.716-10.36 7.61 3.248 16.628 4.364 22.629 7.916l40.187 2.436z" fill-rule="evenodd" stroke="#004100" stroke-width="2.3686264" fill="#006800"/>
  <path d="M223.44 308.266c29.227.608 37.762 7.913 36.23 6.696" stroke="#00a400" stroke-linecap="round" stroke-width="2.2203781" fill="none"/>
  <path stroke-linejoin="round" d="M266.966 318.916c-8.728 1.724-20.804 10.164-24.366 9.741-9.64-1.11-18.464-4.976-27.704-7.916-3.842-1.221-7.713 0-11.67 0 32.78-16.626 43.943-13.396 63.63-1.826z" fill-rule="evenodd" stroke="#004100" stroke-width="2.2203781" fill="#006800"/>
  <path stroke-linejoin="round" d="M246.361 296.08s-10.969 1.62-16.83 1.826c-4.873-.303-11.966-4.842-19.79-13.09-4.088-4.48-13.396-3.968-13.396-3.968 20.602-4.366 36.634-.204 49.016 16.222zM230.436 274.776c-14.92-.914-33.49-14.308-37.761-30.139-.002.202 6.479 3.46 4.666 4.263 24.467 6.19 26.081 11.161 33.186 26.876zM266.406 300.344c2.13-13.498 2.74-22.427-3.663-30.444-6.277-6.09-6.696-9.743-10.36-18.268-1.116 17.76-4.974 32.474 14.003 48.712zM231.962 262.899c11.06-16.136 12.99-28.314 11.264-47.494-.306 1.622-3.968 10.96-4.261 10.96-16.44 10.36-9.133 26.488-7.003 36.634z" fill-rule="evenodd" stroke="#004100" stroke-width="2.3686264" fill="#006800"/>
  <path stroke-linejoin="round" d="M222.226 184.96c11.06 16.136 9.336 31.36 7.61 60.64-.306-1.623-3.968-10.96-4.26-10.96-16.441-10.361-6.48-29.634-3.36-39.68z" fill-rule="evenodd" stroke="#004100" stroke-width="2.3686264" fill="#006800"/>
  <path stroke-linejoin="round" d="M231.363 209.93c26.79-13.498 16.438-30.648 21.31-43.84-18.67 13.802-21.006 28.616-21.31 43.84z" fill-rule="evenodd" stroke="#004100" stroke-width="2.3686264" fill="#006800"/>
  <path d="M236 206.681c3.36-9.437 10.048-26.673 10.666-26.673M227.088 226.37c-.608-6.7-3.966-24.662-4.26-26.488" stroke="#00a400" stroke-linecap="round" stroke-width="2.2203781" fill="none"/>
  <path stroke-linejoin="round" d="M228.304 266.602c-14.92-.914-31.066-21.31-36.316-37.141-.001.201 6.479 3.46 4.666 4.262 21.412 9.638 23.646 18.166 30.76 32.88zM223.874 242.494c-11.06-16.136-12.99-28.314-11.264-47.494.306 1.622 3.968 10.96 4.261 10.96 16.44 10.36 9.133 26.488 7.003 36.634zM233.786 214.194c27.703-12.28 19.178-26.167 27.399-38.666-18.671 13.802-27.096 23.34-27.4 38.666z" fill-rule="evenodd" stroke="#004100" stroke-width="2.3686264" fill="#006800"/>
  <path d="M236 211.446c11.266-11.266 16.223-20.703 16.223-20.703" stroke="#00a400" stroke-linecap="round" stroke-width="2.2203781" fill="none"/>
  <g fill-rule="evenodd">
    <path d="M333.66 366.366l13.49.276c-44.787-41.942-130.699-60.206-118.667-137.39-12.298 83.701 70.117 91.41 106.177 137.116z" stroke="#e9bf00" stroke-width="2.3686264" fill="#ffe100"/>
    <path d="M236.417 212.661a4.298 4.298 0 1 1-8.696 0 4.298 4.298 0 0 1 8.696 0zM232.786 236.297a4.06 4.06 0 1 1-8.118 0 4.06 4.06 0 0 1 8.118 0zM236.6 269.978a3.682 3.682 0 1 1-7.164 0 3.682 3.682 0 0 1 7.164 0zM267.876 307.223a3.682 3.682 0 1 1-7.163 0 3.682 3.682 0 0 1 7.163 0zM272.412 317.907a3.682 3.682 0 1 1-7.163 0 3.682 3.682 0 0 1 7.163 0z" stroke="#68300e" stroke-width="1.1110219000000001" fill="#9d4916"/>
  </g>
  <g fill-rule="evenodd" fill="#fff">
    <g stroke="#000" stroke-width=".667">
      <path d="M288.203 349.032c-2.366-2.134-3.863-3.603-4.777-6.828l-14.044-1.628c-.063 2.676-.126 6.349-.191 8.024l19.012-.668z" stroke-width="1.1110219000000001"/>
      <path stroke-linejoin="round" d="M186.313 339.67c8.167 1.607 20.466-.762 24.472 4.618 4.822 6.466-16.093 13.872-12.241 18.6 6.16 6.617 12.6 3.83 19.394.226 1.624-3.623 2.878-9.804 3.766-11.672-2.61-6.773-9.263-8.601-7.63-17.32 11.37-4.249 33.23-3.897 36.683-2.268 1.848 3.623.187 6.273.664 8.16-1.883 3.64-6.728 9.81-6.738 13.074 11.93 4.203 16.074-.648 26.806-.363 12.676.166 20.226 3.631 22.966-1.467-1.87-4.316-13.403-.806-17.78-3.677-2.19-.74-3.604-2.6-6.496-4.44s-7.21-2.04-8.007-6.817c2.226-10.214 16.966-8.663 19.376-10.217l38.406 2.636c6.967-.196 10.892 12.323 1.497 16.09-9.394 3.767-37.18-6.688-49.233.842-.623-2.622-9.283-6.688-9.907-6.713-3.69 1.106-10.88.7-10.88.7-1.768 3.263-3.764 6.662-6.621 8.916-7.976-3.497-16.614 2.716-24.224.874 0 0-13.178 1.606-13.664 1.606s-8.668-.763-8.668-.763c-4.393 1.264-8.786 2.61-13.178 3.766l9.412-8.284-8.282-6.023z" stroke-width="1.1110219000000001"/>
      <path d="M184.732 337.964a3.63 3.63 0 1 1-7.26 0 3.63 3.63 0 0 1 7.26 0zM183.78 366.911a3.63 3.63 0 1 1-7.26 0 3.63 3.63 0 0 1 7.26 0z" stroke-width="1.1110219000000001"/>
    </g>
    <g stroke="#000" stroke-width=".667">
      <path d="M346.263 349.097c2.366-2.134 3.862-3.603 4.777-6.828l14.043-1.628.192 8.024-19.012-.668z" stroke-width="1.1110219000000001"/>
      <path stroke-linejoin="round" d="M449.143 339.636c-8.167 1.606-20.467-.763-24.473 4.617-4.822 6.466 16.093 13.872 12.242 18.6-6.16 6.617-12.6 3.83-19.394.226-1.624-3.623-2.878-9.804-3.766-11.671 2.61-6.774 9.263-8.602 7.63-17.32-11.371-4.26-33.23-3.898-36.684-2.26-1.847 3.624-.187 6.274-.663 8.161 1.882 3.64 6.728 9.81 6.738 13.074-11.93 4.203-16.076-.648-26.807-.363-12.674.166-20.226 3.631-22.966-1.467 1.87-4.316 13.404-.806 17.781-3.677 2.19-.74 3.603-2.6 6.496-4.44s7.21-2.04 8.007-6.816c-2.226-10.216-16.966-8.664-19.376-10.218l-38.404 2.636c-6.968-.196-10.892 12.323-1.498 16.091 9.396 3.766 37.18-6.688 49.233.841.623-2.622 9.283-6.688 9.908-6.713 3.69 1.106 10.88.7 10.88.7 1.768 3.263 3.763 6.662 6.62 8.916 7.976-3.497 16.616 2.716 24.226.874 0 0 13.177 1.606 13.664 1.606s8.668-.763 8.668-.763l13.177 3.766c-3.136-2.762-6.274-6.622-9.411-8.284l8.282-6.023z" stroke-width="1.1110219000000001"/>
      <path d="M449.723 338.02a3.63 3.63 0 1 0 7.261 0 3.63 3.63 0 0 0-7.26 0zM460.676 366.976a3.63 3.63 0 1 0 7.26 0 3.63 3.63 0 0 0-7.26 0z" stroke-width="1.1110219000000001"/>
    </g>
    <path d="M316.986 329.343c-3.231-.606-4.38-.433-6.67-.66-1.716 6.271-3.427 10.641-6.141 16.812 7.938.716 16.29.716 16.29.661-4.816-.976-3.644-16.748-3.679-16.813z"/>
  </g>
  <g font-size="9" font-family="Trebuchet MS" font-weight="bold">
    <text y="344.274" x="448.606" transform="translate(-464.91 -233.28) scale(1.6667)">
      <tspan y="344.274" x="448.606">L</tspan>
    </text>
    <text y="344.622" x="463.64" transform="translate(-464.91 -233.28) scale(1.6667)">
      <tspan y="344.622" x="463.64">I</tspan>
    </text>
    <text y="346.066" x="466.678" transform="translate(-464.91 -233.28) scale(1.6667)">
      <tspan y="346.066" x="466.678">B</tspan>
    </text>
    <text y="346.49" x="462.68" transform="translate(-464.91 -233.28) scale(1.6667)">
      <tspan y="346.49" x="462.68">E</tspan>
    </text>
    <text y="346.676" x="468.309" transform="translate(-464.91 -233.28) scale(1.6667)">
      <tspan y="346.676" x="468.309">R</tspan>
    </text>
    <text y="346.403" x="473.962" transform="translate(-464.91 -233.28) scale(1.6667)">
      <tspan y="346.403" x="473.962">T</tspan>
    </text>
    <text y="344.636" x="479.247" transform="translate(-464.91 -233.28) scale(1.6667)">
      <tspan y="344.636" x="479.247">A</tspan>
    </text>
    <text y="344.274" x="486.497" transform="translate(-464.91 -233.28) scale(1.6667)">
      <tspan y="344.274" x="486.497">S</tspan>
    </text>
  </g>
  <path d="M231.363 318.616c10.047 1.218 24.062.304 30.14-.001M216.128 284.203c8.626 6.698 27.096 10.664 26.791 10.664M263.673 296.696c-2.74-14.004-6.783-17.363-8.219-26.183M201.82 264.67c14.31 6.393 16.44 10.664 26.673 17.047M232.669 267.718c1.219-17.366 3.664-21.922 7.917-26.88M201.82 229.718c6.177 6.786 22.226 23.746 22.226 23.746M217.044 213.877c6.396 4.666 6.396 21.006 6.396 21.006" stroke="#00a400" stroke-linecap="round" stroke-width="2.2203781" fill="none"/>
</svg>
