<svg xmlns="http://www.w3.org/2000/svg" height="480" width="640">
  <defs>
    <clipPath id="a">
      <path fill-opacity=".67" d="M0 0h682.67v612H0z"/>
    </clipPath>
  </defs>
  <g clip-path="url(#a)" fill-rule="evenodd" transform="scale(.9376)">
    <path fill="#ff0" d="M0 0h1024v604.3H0z"/>
    <path fill="#009d00" d="M0 0h1024v146.29H0zM0 366.71h1024V612H0z"/>
    <path d="M.708 0c1.417 0 266.29 263.03 266.29 263.03L-.002 612 .707 0z" fill="#f10600"/>
    <g stroke-width="1pt">
      <path d="M411.966 268.686l-31.97-23.896 39.499.04 12.174-38.706 12.173 38.706 39.6-.029-31.977 23.886 12.236 38.687-31.938-23.942-31.938 23.937zM216.048 268.686l-31.971-23.896 39.6.04 12.173-38.706 12.174 38.706 39.6-.029-31.977 23.886 12.236 38.687-31.938-23.942-31.937 23.937z"/>
    </g>
  </g>
</svg>
