<svg xmlns="http://www.w3.org/2000/svg" height="480" width="640" version="1">
  <defs>
    <clipPath id="a">
      <path fill-opacity=".67" d="M0 0h682.67v612H0z"/>
    </clipPath>
  </defs>
  <g clip-path="url(#a)" transform="scale(.9376)">
    <path d="M0 0h768v266H341.33L0 0z" fill-rule="evenodd" fill="#ed2939"/>
    <path d="M0 612h768V266H341.33L0 612z" fill-rule="evenodd" fill="#002396"/>
    <path d="M0 0l341.33 266L0 612V0z" fill-rule="evenodd" fill="#fff"/>
    <path fill="#ff0" d="M172.318 193.168l.104-3.963s-2.128-3.39.342-7.033c0 0-6.248-2.776-4.026-7.123 0 0-4.746-1.213-4.397-6.432 0 0-6.122-.366-6.662-4.716 0 0-6.123.844-7.377-3.406 0 0-4.996.977-6.406-2.626 0 0-4.867 1.683-7.74-2.436 0 0-6.128 2.073-7.278-1.813-2.121 3.872-7.26 1.813-7.26 1.813-2.848 4.103-7.74 2.4-7.74 2.4-1.36 3.617-6.343 2.619-6.343 2.619-2.247 4.26-7.363 3.406-7.363 3.406-.602 4.347-6.617 4.702-6.617 4.702.404 6.232-4.334 6.42-4.334 6.42 1.26 4.346-3.992 7.116-3.992 7.116 2.633 3.663.426 7.026.426 7.026l-.119 3.666 84.776.392"/>
    <path d="M377.17 843.11l.091-3.468s-1.866-2.968.299-6.136c0 0-4.678-2.422-3.613-6.216 0 0-4.14-1.069-3.836-6.613 0 0-4.468-.31-4.93-4.114 0 0-4.469.736-6.436-2.971 0 0-4.368.862-6.688-2.204 0 0-4.237 1.468-6.761-2.126 0 0-4.474 1.808-6.36-1.682-1.86 3.379-6.324 1.682-6.324 1.682-2.484 3.68-6.76 2.094-6.76 2.094-1.188 3.068-6.634 2.198-6.634 2.198-1.96 3.708-6.422 2.97-6.422 2.97-.439 3.794-4.9 4.103-4.9 4.103.362 4.666-3.78 6.601-3.78 6.601 1.089 3.793-3.483 6.209-3.483 6.209 2.21 3.196.372 6.13.372 6.13l-.104 3.19 73.949.341h-.012z" stroke="#000" stroke-width=".289" fill="none" transform="matrix(1.1464 0 0 1.1461 -260.07 -773.12)"/>
    <path fill="red" d="M170.346 188.217c-13.316-1.332-28.648-4.493-40.483 2.17-7.936-4.674-18.982-4.388-28.388-3.474-6.108.914-11.117.914-16.466 1.786l-.837.118c-9.686.643-18.472-2.218-26.889-6.979 2.673 16.168 6.639 30.712 7.097 46.692 3.176 23.618-11.13 43.263-6.262 66.496 3.604 11.148 16.766 17.63 26.987 18.914 10.866.641 22.108 2.421 32.164 4.604 1.912.398 4.18 1.286 6.6 1.866 2.77 1.168 4.8 2.861 6.68 4.682 6.071-6.322 14.969-8.08 23.748-9.008 16.82-1.849 36.326-.843 46.01-16.173v-.81c6.263-7.926 4.666-20.016 2.283-28.996-.164-3.133-.991-6.896-1.446-8.88-9.666-26.622-1.389-64.224 2.77-79.948-6.08 2.777-10.746 4.088-16.399 6.477-4.608.6-9.632.328-14.096.083l-1.89-.609"/>
    <path fill="#80cfe1" d="M190.224 261.464c-.062 1.681.846 3 1.173 4.666 1.86 11.166 3.636 26.932-7.861 32.864-12.708 8.078-29.373 4.618-44.077 8.894-2.938.817-6.986 3.617-9.061 6.428-1.326-.872-2.669-2.211-4.369-3-12.1-6.432-27.83-4.277-41.487-7.761-6.86-2.17-14.012-7.613-16.76-14.633-4.466-18.417 6.232-34.116 4.969-62.387-.817-13.963-3.162-27.348-6.386-40.43 10.677 4.974 23.036 6.806 36.04 3.42 8.89-1.243 19.24-1.27 27.672 2.49 4.692-1.976 9.966-2.861 14.914-3.406 9.407.914 19.618 2.616 29.206 2.647 6.47-.336 12.346-2.206 17.97-4.696-3.336 21.62-9.742 44.268-1.877 66.014"/>
    <path fill="#fff" d="M171.022 266.774l-.104-20.33h2.606L142.34 226.37l-.066-10.43h3l-16.641-11.127-16.466 11.121h2.994l.066 10.423-30.916 20.046 2.47.013.106 20.317 82.026.066"/>
    <path d="M376.04 906.46l-.091-17.739h2.186l-27.113-17.613-.049-9.1h2.618l-13.667-9.71-13.49 9.704h2.611l.06 9.094-26.968 17.49 2.166.011.091 17.727 71.661.06.006-.014z" stroke="#000" stroke-width="1.242" fill="none" transform="matrix(1.1464 0 0 1.1461 -260.07 -773.12)"/>
    <path fill="#fff" d="M180.683 292.478l.007 6.362-100.134-.112-.042-6.336 100.177.086"/>
    <path d="M384.38 929.76l.006 6.661-87.347-.097-.036-6.628 87.384.074h-.006z" stroke="#000" stroke-width="1.242" fill="none" transform="matrix(1.1464 0 0 1.1461 -260.07 -773.12)"/>
    <path fill="#fff" d="M87.106 292.1l-.084-21.63 4.064-.009-.223 21.782.244-21.607-6.84-.167v-4.62l89.492.1.042 4.676h-6.62l.104 21.802-.196-21.802h4.11l.091 21.667"/>
    <path d="M302.84 929.43l-.073-18.786 3.636-.007-.194 19.006.213-18.862-6.096-.146v-4.03l78.064.086.036 3.994h-4.816l.091 19.023-.17-19.023h3.686l.08 18.809" stroke="#000" stroke-width="1.242" fill="none" transform="matrix(1.1464 0 0 1.1461 -260.07 -773.12)"/>
    <path d="M319.62 924.8l-.066-13.1h-10.482l.061 13.087 10.476.013" stroke="#000" stroke-width="1.242" fill="none" transform="matrix(1.1464 0 0 1.1461 -260.07 -773.12)"/>
    <path d="M311.94 914.43l.03 7.61h4.797l-.024-7.61h-4.803M370.86 924.84l-.06-13.087-10.447-.012.049 13.099h10.468" stroke="#000" stroke-width="1.242" fill="none" transform="matrix(1.1464 0 0 1.1461 -260.07 -773.12)"/>
    <path d="M363.18 914.48l.066 7.686h4.79l-.042-7.686h-4.803M370.78 903.61l-.06-13.101H360.26l.037 13.101h10.488-.006z" stroke="#000" stroke-width="1.242" fill="none" transform="matrix(1.1464 0 0 1.1461 -260.07 -773.12)"/>
    <path d="M363.1 893.16l.03 7.697h4.791l-.006-7.697H363.1M319.63 903.46l-.073-13.076-10.464-.013.049 13.082h10.488v.007z" stroke="#000" stroke-width="1.242" fill="none" transform="matrix(1.1464 0 0 1.1461 -260.07 -773.12)"/>
    <path d="M311.86 893.11l.024 7.686 4.803.012-.036-7.697h-4.791M338.6 903.48l-.049-13.076-10.47-.012.043 13.087H338.6" stroke="#000" stroke-width="1.242" fill="none" transform="matrix(1.1464 0 0 1.1461 -260.07 -773.12)"/>
    <path d="M330.83 893.13l.024 7.686 4.797.024-.03-7.609h-4.791M363.12 903.61l-.073-13.101-10.464-.012.049 13.087 10.488.026" stroke="#000" stroke-width="1.242" fill="none" transform="matrix(1.1464 0 0 1.1461 -260.07 -773.12)"/>
    <path d="M346.44 893.14l.036 7.61h4.797l-.024-7.61h-4.809" stroke="#000" stroke-width="1.242" fill="none" transform="matrix(1.1464 0 0 1.1461 -260.07 -773.12)"/>
    <path fill="#fff" d="M147.727 267.786l.133 34.612-34.774-.066-.126-34.683 34.76.027"/>
    <path d="M366.72 899.49l.116 30.199-30.333-.049-.11-30.174 30.321.024h.006zM326.21 908.11l30.64.024M329.02 929.68l-.103-21.342M362.14 929.69l-.103-21.329M366.79 886.63l-17.081-12.474-19.193-.024-16.947 12.449 63.222.048M331.99 863.8l.03 7.61 16.144.011-.03-7.609-16.144-.012" stroke="#000" stroke-width="1.242" fill="none" transform="matrix(1.1464 0 0 1.1461 -260.07 -773.12)"/>
    <path d="M336.37 866.69l.024 3.792h7.416l-.026-3.792h-7.414M340.04 866.14l8.979 6.348-17.891-.023 8.912-6.326" stroke="#000" stroke-width="1.242" fill="none" transform="matrix(1.1464 0 0 1.1461 -260.07 -773.12)"/>
    <path fill="#fff" d="M171.366 202.028c2.924-.07 3.678 12.042 3.686 18.042 2.612.704 8.08 4.207 10.644 7.374l-28.26-.042c2.43-3.126 7.966-6.642 10.448-7.346 0-6.007.614-18.111 3.673-18.042"/>
    <path d="M376.34 860.84c2.66-.06 3.208 10.607 3.214 16.742 2.191.616 7.06 3.671 9.198 6.434l-24.642-.036c2.118-2.727 6.94-6.796 9.113-6.41 0-6.241.636-16.803 3.117-16.742M326.81 900.33h2.21l-.646 1.186s1.066 1.37.019 2.94l.678 1.09h-2.13l.678-1.036s-1.09-1.82.048-2.996l-.667-1.186M331.31 900.33h2.21l-.64 1.186s1.066 1.334.007 2.94l.672 1.09h-2.126l.672-1.036s-1.066-1.82.066-2.996l-.661-1.186M336.23 900.33h2.204l-.668 1.186s1.078 1.37.018 2.94l.679 1.116-2.113-.024.667-1.036s-1.078-1.807.042-2.996l-.646-1.186h.006zM341.77 900.36h2.222l-.661 1.2s1.066 1.346.006 2.921l.696 1.108H341.8l.673-1.036s-1.066-1.832.073-2.996l-.67-1.199h-.006zM346.7 900.36h2.204l-.662 1.2s1.072 1.346.012 2.916l.686 1.114h-2.126l.664-1.036s-1.071-1.82.086-2.996l-.663-1.199M361.6 900.36l2.204-.012-.662 1.199s1.09 1.346.03 2.922l.666 1.108h-2.131l.672-1.036s-1.066-1.82.073-2.996l-.661-1.187" stroke="#000" stroke-width="1.242" fill="none" transform="matrix(1.1464 0 0 1.1461 -260.07 -773.12)"/>
    <path fill="#ff0" d="M130.608 336.763c13.022.042 29.038-2.616 36.64-6.494l16.476-1.46.328 20.101c-13.968 7.696-46.184 9.348-63.276 9.292-7.097.066-39.721-1.626-63.742-9.348l.182-20.114 16.611 1.486c7.602 3.869 24.006 6.637 37.014 6.637h-.036"/>
    <path d="M340.7 968.4c11.369.036 26.329-2.283 31.873-6.667l14.372-1.273.286 17.638c-12.176 6.714-40.286 8.167-46.47 8.108-6.192.049-34.66-1.418-46.88-8.166l.168-17.66 14.403 1.296c6.644 3.367 20.94 6.704 32.287 6.704h-.03" stroke="#000" stroke-width=".289" fill="none" transform="matrix(1.1464 0 0 1.1461 -260.07 -773.12)"/>
    <path fill="#ff0" d="M34.417 261.023l14.616 4.62-4.39 23.498-13.74 2.134s-2.317-12.366 3.614-30.266"/>
    <path d="M266.88 893.69l12.662 4.03-3.829 20.603-11.986 1.862s-2.021-10.781 3.163-26.407v.012z" stroke="#000" stroke-width=".289" fill="none" transform="matrix(1.1464 0 0 1.1461 -260.07 -773.12)"/>
    <path fill="#7e7e7e" d="M44.64 278.886l-13.734 2.393 8.688-12.366 6.046 9.963"/>
    <path d="M266.71 917.9l-11.98 2.088 7.679-10.781 4.401 8.693" stroke="#000" stroke-width=".289" fill="none" transform="matrix(1.1464 0 0 1.1461 -260.07 -773.12)"/>
    <path fill="#ff0" d="M26.739 267.961l13.992 1.011c.314 11.864 1.761 67.091 66.779 69.647l-1.682 16.468c-66.766.683-70.762-66.486-68.089-77.016"/>
    <path d="M249.31 908.36l12.206.882c.274 10.343 1.628 49.813 48.666 61.966l-1.467 14.36c-67.367.696-61.726-48.413-69.394-67.198zM294.11 978.6l14.384-3.141" stroke="#000" stroke-width=".289" fill="none" transform="matrix(1.1464 0 0 1.1461 -260.07 -773.12)"/>
    <path fill="#ff0" d="M226.463 261.196l-14.46 4.677 4.686 23.463 13.768 2.211s2.212-12.348-3.894-30.264"/>
    <path d="M423.62 893.74l-12.613 3.993 4 20.472 12.01 1.93s1.93-10.776-3.397-26.407v.012z" stroke="#000" stroke-width=".289" fill="none" transform="matrix(1.1464 0 0 1.1461 -260.07 -773.12)"/>
    <path fill="#7e7e7e" d="M216.671 278.988l13.769 2.47-8.807-12.362-4.962 9.892"/>
    <path d="M414.9 917.99l12.01 2.166-7.682-10.786-4.328 8.631" stroke="#000" stroke-width=".289" fill="none" transform="matrix(1.1464 0 0 1.1461 -260.07 -773.12)"/>
    <path fill="#ff0" d="M234.292 268.136l-14.012.966c-.203 11.84-1.236 67.097-66.264 69.497l1.836 16.444c66.761.76 70.274-66.382 67.44-76.906"/>
    <path d="M431.23 908.62l-12.223.836c-.177 10.33-1.077 49.818-48.206 61.912l1.601 14.348c67.366.662 61.3-48.322 68.828-67.101v.006zM387.04 978.67l-14.42-3.16" stroke="#000" stroke-width=".289" fill="none" transform="matrix(1.1464 0 0 1.1461 -260.07 -773.12)"/>
    <path fill="#009fc6" d="M121.761 346.666c-.37.237-.872.3-1.461.272l-2.61-.133.223-3.267 2.69.138c.609.036.913.134 1.166.287.623.272.763.776.704 1.472-.034.6-.244.991-.628 1.22m-4.382 6.13l.268-3.971 3.043.21c.984.076 1.716-.182 2.212-.686.616-.488.782-1.13.816-1.866.063-.846-.163-1.636-.666-2.046-.481-.488-1.166-.746-2.023-.83l-4.348-.271-.6 9.348 1.291.084M126.84 343.972l3.182.036c.46.042.824.098 1.089.223.488.23.719.691.719 1.36 0 .63-.182 1.048-.638 1.3-.342.229-.837.333-1.43.333l-3.067-.036.028-3.216m-.049 8.282l.028-3.991 2.987.042c.63 0 .92.042 1.193.174.44.202.666.629.677 1.214l.077 1.67c.02.376.028.607.049.76.041.112.062.23.118.316h1.606l-.028-.203c-.181-.098-.328-.286-.39-.672-.066-.182-.084-.464-.098-.796l-.028-1.248c-.02-.666-.119-.966-.336-1.173a1.673 1.673 0 0 0-.844-.6c.446-.236.781-.608 1.026-.844.23-.37.349-.837.349-1.408 0-1.076-.44-1.808-1.333-2.206-.482-.216-1.096-.328-1.822-.342l-4.487-.042-.036 9.376h1.291M136.746 360.299c-.672-.697-.88-1.67-.96-2.602-.062-1.298.19-2.288.782-2.969.6-.726 1.376-1.073 2.387-1.13 1.019-.066 1.866.273 2.477.914.636.629.998 1.6 1.061 2.689.036 1.046-.146 1.974-.628 2.79-.474.83-1.263 1.298-2.428 1.326-1.216.063-2.122-.223-2.701-.928m-1.636-6.903c-.6.928-.846 2.003-.782 3.301.09 1.402.623 2.66 1.34 3.433.907.872 2.108 1.31 3.687 1.227 1.684-.07 2.777-.67 3.687-1.772.666-.997.97-2.166.9-3.686-.09-1.277-.46-2.317-1.161-3.091-.873-1.04-2.16-1.6-3.88-1.43-1.633.104-2.834.704-3.608 1.918M179.276 330.907c.9-.164 1.682-.111 2.394.132 1.047.328 1.762 1.103 2.191 2.289l-1.29.18c-.28-.64-.678-1.08-1.216-1.326-.623-.23-1.18-.286-1.933-.173a3.01 3.01 0 0 0-2.08 1.276c-.488.763-.636 1.768-.418 3.042.181 1.06.672 1.96 1.214 2.66.693.614 1.466.83 2.603.67.861-.14 1.636-.48 2.017-1.068.602-.667.649-1.402.481-2.49l-3.008.46-.163-1.032 4.187-.642.816 4.96-.83.126-.616-1.144c-.36.617-.698.914-1.006 1.144-.617.406-1.216.663-2.087.789-1.13.174-2.163-.029-3.098-.629-1.026-.76-1.69-1.89-1.94-3.46-.273-1.641-.028-2.86.684-3.9.676-1.004 1.66-1.69 2.986-1.78M188.746 330.186l3-1.089c.412-.163.768-.202 1.076-.166.661.04.966.369 1.186 1.024.217.669.217 1.047-.027 1.39-.269.366-.663.613-1.26.829l-2.819 1.012-1.166-3m3 7.761l-1.466-3.76 2.791-1.006c.624-.168.887-.269 1.169-.23.496.062.872.363 1.123.934l.636 1.431c.14.366.262.671.342.67.042.126.133.202.203.286l1.614-.667-.084-.203c-.223 0-.44-.126-.6-.37-.118-.174-.23-.426-.39-.718l-.496-1.173c-.223-.609-.464-.822-.719-1.011a2.396 2.396 0 0 0-.998-.272c.307-.366.63-.712.614-1.13.091-.426.06-.9-.163-1.43-.384-.998-1.089-1.642-2.08-1.612-.623-.042-1.123.07-1.814.313l-4.216 1.601 3.406 8.818 1.236-.464M202.72 333.29l-6.362-7.807 6.876-3.747.649.943-4.816 3.076 1.647 2.386 4.446-2.86.607.914-4.446 2.86 1.816 2.63 4.899-3.132.649.921-6.98 3.817M207.409 319.48l1.636-1.688c.712-.764 1.466-1.096 2.29-.998.823.07 1.66.602 2.663 1.284.246.188.46.432.684.704.391.61.621.967.768 1.403.126.669.098 1.068-.098 1.666-.118.244-.328.63-.642.872l-1.642 1.676-6.648-4.821m8.11 3.676c1.088-1.2 1.326-2.49.69-3.948a6.668 6.668 0 0 0-1.717-2.226c-.984-.873-2.01-1.319-3.091-1.402-1.2-.091-2.22.342-3.106 1.31l-2.617 2.806 7.216 6.294 2.617-2.819M221.108 316.87l-8.304-4.877.677-1.074 8.318 4.86-.684 1.116M224.364 310.208l-8.967-3.687 2.646-6.307 1.088.419-2.166 6.198 2.7 1.06 2.017-4.786 1.033.426-1.996 4.78 3.022 1.227 2.212-6.26 1.089.41-2.694 6.42M228.48 299.194l-9.436-2.086.314-1.468 8.716-2.944-7.666-1.689.279-1.144 9.436 2.03-.3 1.416-8.73 3.008 7.666 1.663-.272 1.214M227.736 287.217l.118-1.186c.646.016 1.006-.07 1.364-.267.684-.37 1.082-1.074 1.186-2.116.042-.487.021-.914-.09-1.318-.203-.781-.642-1.214-1.347-1.284-.623-.066-.9.07-1.173.366-.244.328-.602.802-.697 1.472l-.433 1.236c-.28.809-.637 1.367-.817 1.681-.446.687-1.074.79-1.877.733-.868-.09-1.666-.432-2.061-1.088-.61-.6-.72-1.468-.694-2.62.084-.968.406-1.786.977-2.44.63-.6 1.364-.887 2.408-.776l-.098 1.186c-.616 0-.928.091-1.228.3-.644.3-.844.936-.936 1.863-.077.768.028 1.284.32 1.676.294.328.664.637 1.096.672.461.041.824-.106 1.076-.46.182-.246.398-.776.691-1.633l.426-1.298c.21-.6.46-1.06.763-1.388.624-.644 1.208-.776 2.066-.711 1.047.11 1.794.644 2.177 1.34.377.802.624 1.688.433 2.692-.119 1.137-.488 2.03-1.172 2.63-.684.614-1.636.823-2.668.74M32.147 286.644l.217 1.172c-.624.104-.942.314-1.26.686-.66.616-.74 1.291-.66 2.346.083.446.244.886.446 1.236.419.711.963.997 1.664.886.61-.09.844-.286 1.006-.648.163-.367.266-.9.3-1.698l.063-1.32c.041-.816.132-1.466.314-1.813.286-.642.823-1.04 1.626-1.171.868-.166 1.612.04 2.26.63.667.463 1.09 1.241 1.26 2.287.202.967.112 1.816-.266 2.689-.363.764-1.061 1.214-2.129 1.409l-.21-1.186c.496-.182.866-.367 1.11-.6.42-.468.646-1.146.384-2.072-.126-.766-.384-1.243-.774-1.486-.384-.287-.768-.399-1.187-.328-.467.07-.774.328-.92.746-.091.279-.161.868-.224 1.744l-.063 1.367c-.036.642-.132 1.173-.349 1.636-.342.669-.921 1.08-1.766 1.213-1.068.181-1.892-.063-2.478-.747-.6-.67-.97-1.472-1.168-2.47-.21-1.186-.066-2.106.419-2.846.481-.76 1.242-1.2 2.276-1.347M31.661 299.01l9.226-2.776 2.16 6.496-1.124.366-1.769-6.337-2.806.846 1.626 4.932-1.076.342-1.612-4.946-3.126.934 1.786 6.466-1.102.316-2.186-6.614M36.644 310.277l8.486-4.6.907 1.684-6.834 6.167 8.62-1.468.88 1.67-8.466 4.472-.6-1.04 4.996-2.63c.182-.106.461-.268.866-.474.397-.181.844-.426 1.29-.666l-8.486 1.444-.621-1.102 6.792-6.147-.28.14c-.18.104-.496.268-.92.602a6.979 6.979 0 0 1-.936.602l-4.983 2.672-.614-1.06M61.463 322.77c-.426-.098-.846-.342-1.266-.768l-1.794-1.849 2.416-2.212 1.807 1.843c.36.342.672.676.691.963.168.66 0 1.063-.61 1.627-.46.426-.92.6-1.363.496m-6.818.868l2.969-2.714 2.1 2.128c.677.691 1.368 1.006 2.094.992a2.963 2.963 0 0 0 1.933-.846c.628-.668.928-1.214.928-1.918-.007-.684-.321-1.326-.9-1.926l-3.016-3.077-7.02 6.446.907.914M63.104 331.169l6.087-7.976 6.016 3.666-.628.96-4.94-2.968-1.629 2.414L61.662 330l-.686.914-4.66-2.741-1.73 2.699 6.003 3.008-.6.941-6.086-3.663M68.166 329.623l3.066.97c.433.132.747.3.966.489.391.37.496.9.266 1.641-.189.668-.476.921-.921 1.076-.398.07-.9.07-1.487-.112l-2.882-.92 1.012-3.043m-2.638 7.836l1.27-3.802 2.847.928c.61.133.88.314 1.061.602.349.314.464.781.28 1.36l-.427 1.614c-.097.37-.146.614-.188.726 0 .119 0 .246.021.328l1.6.488.091-.216c-.16-.126-.261-.366-.244-.641.036-.176.084-.464.181-.776l.363-1.214c.147-.63.203-.927.07-1.213-.112-.3-.3-.673-.614-.83.474-.084.886-.23 1.236-.49.328-.286.607-.683.776-1.24.342-1.013.163-1.867-.6-2.499-.377-.334-.916-.62-1.62-.886l-4.27-1.318-2.987 8.896 1.249.384"/>
    <path fill="#bc716f" d="M78.486 176.676c1.102-2.66 11.32-9.908 44.844-6.733 0 0 6.666 3.46 8.996 3.014 1.898-.246-1.117.118-3.694-1.94-2.626-2.068-3.064-6.278 2.708-6.167 6.743.147 27.244 1.36 27.649 3.292.376 1.964-11.369 2.77-16.737 2.669-4.39-.118-3.88 2.1.488 1.933 13.66-.489 28.66-6.296 44.286 6.832 1.877 1.363-4.746 1.67-9.868-.607 0 0-13.88.719-19.882-.266 0 0-4.613 3.763-10.621 3.384.781 1.946-2.22 9.21-21.11 3.746-3.12.966-14.487 2.86-13.246-.616-2.994 0-8.242.963-9.024-.74-.763-1.674 9.24-4.207 10.992-6.02 0 0-21.139.202-26.144-1.267 0 0-12.47 2.798-11.738.37"/>
    <path fill="#008737" d="M86.26 206.168c.464-.613.636-1.716 1.698-1.688 2.094.668 3.617 4.388 6.092 1.904.916-.202 1.263 1.04 2.017 1.187.482 2.128 2.191-.433 3.468-.287 2.73-1.214 6.107-1.6 9.338-.9.097 2.086-1.636 4.389-3.687 6.676.042 2.1 1.947 3.447 1.912 6.66-.328.79-.066 2.03-1.26 2.288-1.614-.272-3.007-.432-4.263-1.276-.164-.164-.28-.464-.6-.366-.164.704.949 1.403 1.381 2.12-.76 1.298-2.023.112-3.084.126-.314.747-.014 1.689-.782 2.17-1.34-.042-1.612-1.6-2.436-2.226-.846.913.693 1.468.796 2.183-.616 2.749-.446 6.436-3.196 7.236l-1.842.916c-.603-1.382-.189-3.476-.624-4.92-1.088 1.773-1.94 3.322-3.638 4.821-1.87-.614-2.969-2.818-3.37-4.646-.782-2.128-.336-4.676 1.347-6.216-.673-1.117-2.634-.868-2.813-2.448-2.938-1.913-4.664 3.348-6.462.613-.614-2.663.119-6.728 1.968-7.633-.412-1.046-1.78-.773-2.69-1.373-1.848-1.671-4.614-3.23-4.382-6.064 6.06-1.91 11.11-.609 14.788 3.336"/>
    <path fill="#ff0" d="M87.886 204.882c-.118 2.316 1.664.627 2.813 2.029-.977-.384-1.69 1.688-2.646.602l-.6.673c.349.796 1.026.9.32 1.772-1.046.397-1.266-.914-1.744-1.43-.084-.23.16-.663-.223-.817-.693.602-1.214.684-2.031.6-.223-.446-.666-1.032-.216-1.374.802-1.082 2.044.39 2.662-.37.097-.67-.489-1.486.272-1.947.623.091 1.193-.194 1.41.462M94.146 206.784c.062.447-.23 1.074.366 1.39.76-.413 1.67-.1 2.01.666-.007.404.118.934-.412 1.13l-1.187-.223c.084-.231-.293-.377-.44-.6-.623-.16-.83.264-1.22.622.293.447.97.691.809 1.264-.698.697-1.04-.6-1.807-.273-.624-.202.188-1.29-.636-1.618-.977 0-.328 1.604-1.678.977-.446-.603-.886-1.18-.404-1.744.623-.36 1.41-.26 1.866.194.76-.843.837-4.101 2.669-1.674M86.36 210.142c.609.733-.113 1.73.636 2.647 1.02-1.904 2.003.411 3.218.23.37.463.126 1.082.196 1.698-1.6.397-3.308.872-4.634-.328l-.37.426c.789.733 1.636 1.663.908 2.79-1.124.246-2.862.273-3.427-.886-.293-.966.684-1.646-.349-2.414-.746.928-.712 2.17-2.268 1.326-.963-.63-1.249-1.624-.767-2.646 1.004-1.684 2.763.06 3.862-.726.163-1.36-.36-2.646.9-3.299 1.068-.189 1.663.613 2.212 1.283"/>
    <path fill="#fff" d="M90.602 210.979c-.602 2.316-2.247-.119-3.063-.217 1.088-1.931 1.772.63 3.063.217M96.036 213.6c-1.214.341-1.026-1.173-1.626-1.766l.468-.426c.44.63.774 1.487 1.168 2.191"/>
    <path fill="#ff0" d="M94.397 213.03c.349.803-.789 1.446.181 2.03.307-.267.684-.613.846-.76.83.246 1.793.391 2.372 1.214.622 1.703-1.102 1.66-2.08 2.136l-.97-.042c.231-.474-.418-.677-.678-1.004-.447-.112-.817.027-1.068.404.216 1.082 1.636 1.926.174 2.888-1.161-.076-2.938.37-2.833-1.22-.433-.9 1.172-2.289-.644-2.344-.666 1.214-1.187 2.386-2.66 1.236l.182-1.73c1.41.04 3.078.286 3.713-1.291.406-1.144-.706-2.198.286-3.106 1.438-.328 2.247.636 2.98 1.69"/>
    <path d="M93.366 216.632c.363.869-.614.916-1.076 1.34-.62.049-1.063-.196-1.43-.614-.28-1.04.496-1.146 1.088-1.666.691-.286.977.616 1.417.83"/>
    <path fill="#fff" d="M92.617 216.194c-.164.202-.37.14-.6.196l-.217-1.039c.46.041 1.061.188.817.844"/>
  </g>
</svg>
