<svg xmlns="http://www.w3.org/2000/svg" height="480" width="640" version="1">
  <g fill-rule="evenodd">
    <rect rx="0" ry="0" height="480" width="640" fill="#fff"/>
    <rect rx="0" ry="0" height="169.3" width="480" y="320.7" fill="#fff"/>
    <path fill="#fff" d="M0 0h480v169.3H0zM201.9 281l-28.822-20.867-28.68 21.072 10.667-34.242-28.628-21.146 36.418-.296 10.986-34.138 11.221 34.06 36.418.046-28.481 21.344L201.9 281zM609.64 281l-28.822-20.867-28.68 21.072 10.667-34.242-28.628-21.146 36.418-.296 10.986-34.138 11.221 34.06 36.418.046-28.481 21.344L609.64 281z"/>
    <rect rx="0" ry="0" height="169.3" width="640" y="320.7"/>
    <path fill="red" d="M0 0h640v169.3H0z"/>
    <path d="M201.9 281l-28.822-20.867-28.68 21.072 10.667-34.242-28.628-21.146 36.418-.296 10.986-34.138 11.221 34.06 36.418.046-28.481 21.344L201.9 281zM609.64 281l-28.822-20.867-28.68 21.072 10.667-34.242-28.628-21.146 36.418-.296 10.986-34.138 11.221 34.06 36.418.046-28.481 21.344L609.64 281z" fill="#090"/>
  </g>
</svg>
