<svg xmlns="http://www.w3.org/2000/svg" height="480" width="640">
  <defs>
    <clipPath id="a">
      <path fill-opacity=".67" d="M-86.333 0h682.67v612h-682.67z"/>
    </clipPath>
  </defs>
  <g clip-path="url(#a)" transform="translate(80) scale(.9376)">
    <path fill-rule="evenodd" fill="#3e6eb9" d="M-128 0h768v612h-768z"/>
    <path fill-rule="evenodd" fill="#ffd900" d="M-128 91.429h768v329.14h-768z"/>
    <path fill-rule="evenodd" fill="#b10c0c" d="M-128 128h768v266h-768z"/>
    <rect fill-rule="evenodd" rx="6.767" ry="6.861" height="10.971" width="621.71" stroke="#000" y="260.61" x="-61.439" stroke-width="1.474" fill="#ffd900"/>
    <g stroke="#000" transform="translate(-767.03 -26.6) scale(1.0321)">
      <path d="M-106.3 266.76l-88.683 36.433 88.683 36.433 88.682-36.433-88.682-36.433z" fill-rule="evenodd" transform="matrix(.34 0 0 .3 1266.8 136.42)" stroke-width="4.176" fill="#fff"/>
      <rect fill-rule="evenodd" rx="4.108" ry="3.78" height="7.087" width="442.91" y="223.23" x="761.81" stroke-width="1.333" fill="#ffd900"/>
      <path d="M1224.4 279.92c-3.64 0-7.09-3.644-7.09-7.087s3.66-7.087 7.09-7.087" transform="matrix(-.60001 0 0 .6 1806.3 90.364)" stroke-width="2.667" fill="none"/>
      <path d="M1224.4 279.92c-3.64 0-7.09-3.644-7.09-7.087s3.66-7.087 7.09-7.087" transform="matrix(-.60001 0 0 .6 1802.8 90.364)" stroke-width="2.667" fill="none"/>
      <path d="M1224.4 279.92c-3.64 0-7.09-3.644-7.09-7.087s3.66-7.087 7.09-7.087" transform="matrix(-.60001 0 0 .6 1799.2 90.366)" stroke-width="2.667" fill="none"/>
    </g>
    <g stroke="#000" transform="translate(-786.29 -3.667) scale(1.0321)">
      <path d="M-106.3 266.76l-88.683 36.433 88.683 36.433 88.682-36.433-88.682-36.433z" fill-rule="evenodd" transform="matrix(.34 0 0 .3 1266.8 136.42)" stroke-width="4.176" fill="#fff"/>
      <rect fill-rule="evenodd" rx="4.108" ry="3.78" height="7.087" width="442.91" y="223.23" x="761.81" stroke-width="1.333" fill="#ffd900"/>
      <path d="M1224.4 279.92c-3.64 0-7.09-3.644-7.09-7.087s3.66-7.087 7.09-7.087" transform="matrix(-.60001 0 0 .6 1806.3 90.364)" stroke-width="2.667" fill="none"/>
      <path d="M1224.4 279.92c-3.64 0-7.09-3.644-7.09-7.087s3.66-7.087 7.09-7.087" transform="matrix(-.60001 0 0 .6 1802.8 90.364)" stroke-width="2.667" fill="none"/>
      <path d="M1224.4 279.92c-3.64 0-7.09-3.644-7.09-7.087s3.66-7.087 7.09-7.087" transform="matrix(-.60001 0 0 .6 1799.2 90.366)" stroke-width="2.667" fill="none"/>
    </g>
    <g fill-rule="evenodd">
      <path d="M338.07-.416c-6.671 12.442 4.276-4.138 28.299 16.69 4.462 3.87 8.342 14.09 8.342 21.178-1.13-.976-1.969-3.146-3.214-4.663-1.743 2.263 1.664 12.677 2.162 17.467-3.766-2.71-3.394-3.993-4.642-7.324.249 4.026-.646 16.116.849 19.386-2.96-1.09-2.764-4.163-4.31-4.78 1.062 4.834-.916 10.094-.394 16.628-1.73-2.208-3.673-3.937-4.376-4.829-.136 2.688-3.327 9.388-3.4 11.836-1.468-1.143-1.866-2.926-2.111-4.126-1.824 2.966-8.308 13.872-8.724 17.202-4.996-6.69-17.793-19.646-19.469-26.9-1.473 4.176-3.604 6.684-7.817 8.632-1.666-11.666-7.891-24.766-4.661-34.747-2.369 1.804-4.302 3.608-6.66 6.828 2.234-16.88 13.628-36.674 30.016-46.477z" transform="matrix(.9944 0 0 .77118 190.368 261.963)" stroke="#000" stroke-width="1.422" fill="#3d6da7"/>
      <path d="M606.878 299.164c2.3-4.697 4.419-6.066 6.906-9.016 2.626-6.203 3-9.343 6.288-8.736 2.288.607 2.286 2.737-.678 7.864-2.964 6.116-4.372 6.209-10.616 9.898zM621.438 310.116c-.296-3.6.72-4.963.634-7.217-.316-3.967-1.938-6.69.171-6.883 2.11-.194 3.096 1.169 3.102 6.166.006 3.998-.612 6.048-3.807 8.944zM633.243 316.979c-.922-4.887-.233-7.066-.822-10.203-1.027-6.64-3.068-9.187-1.103-9.693 1.966-.607 3.134 1.284 3.874 6.902.74 6.618.36 7.162-1.96 12.994zM646.616 282.734c-2.882-2.188-4.666-2.334-6.424-3.74-3.274-2.468-4.931-6.108-6.984-3.797-1.063 1.311-.306 2.746 3.126 6.02 3.431 2.276 4.693 2.466 9.283 2.617zM643.484 298.962c-1.62-3.166-3.119-3.966-4.101-6.986-1.738-3.667-1.74-6.663-3.626-6.862-1.884.791-2.036 2.407-.02 6.86 2.016 3.462 3.07 4.077 7.746 6.988z" fill="#a70000"/>
    </g>
    <g fill-rule="evenodd">
      <path d="M329.6 20.703c-.272-2.662.263-2.98-1.268-4.989 2.2.997 2.284 3.649 4.969 1.767.983-.661 1.411-.669.217-3.626 2.79.14 11.927 3.636 13.39 3.614 3.842.191 10.866-4.373 16.723 1.24 4.672 6.117 3.112 10.428 3.112 17.616-1.877-.976-.973-1.466-2.966-3.989 1.494 6.196-.08 17.364-.08 23.934-.767-1.684-.664-.896-1.404-2.637-1.992 6.997-4.38 7.231-4.38 14.318-.719-2.78-.026-2.191-.826-3.663-1.936 4.662-14.926 8.443-9.92 13.033-4.618-2.87-6.499-2.67-8.648-6.16-.882.617-1.684 1.786-2.404 3.386-7.943-3.96-6.103-12.6-11.326-18.206-1.077 2.393-.686 2.046-1.76 6.939-1.26-6.408-1.604-8.844-3.021-12.82-1.223 2.204-1.113 1.36-3.333 4.69-.918-6.687-2.413-8.142-1.822-12.601-2.369 1.804-.816 1.073-3.173 3.293 2.234-16.88 11.884-29.362 18.808-26.368z" transform="matrix(1.1372 0 0 1.0496 -399.418 239.16)" stroke="#000" stroke-width="1.422" fill="#3d6da7"/>
      <path d="M-36.707 289.802c2.327-6.704 4.426-7.496 6.929-11.167 2.666-6.464 3.088-11.613 6.32-10.826 2.23.787 2.194 3.444-.79 9.786-2.986 6.342-4.383 7.686-10.469 12.207zM-26.893 304.072c.932-6.114 2.406-6.976 3.01-10.27 1.076-6.79.476-10.102 2.649-9.876 2.073.227 2.643 2.412 1.163 8.173-1.38 6.76-2.332 7.126-6.722 11.972zM-16.364 313.993c.263-4.967 1.424-6.893 1.698-10.086.316-6.616-.767-9.637 1.211-9.66 1.978-.023 2.682 1.997 2.076 7.62-.606 6.622-1.338 7.026-4.886 12.126zM6.28 281.674c-4.328-4.312-6.946-6.116-9.736-7.89-4.917-4.87-7.294-9.44-9.044-7.82-1.76 1.62-.698 4.06 4.48 8.684 6.177 4.634 6.978 6.309 14.3 7.026zM3.647 298.24c-2.819-4.33-4.887-6.461-6.707-8.237-3.21-4.896-4.312-9.1-6.132-8.06-1.82 1.042-1.413 3.24 2.066 7.986 3.478 4.744 4.878 6.617 10.774 8.311z" fill="#a70000"/>
    </g>
    <g fill-rule="evenodd">
      <path d="M637.8 230.32c-63.16 69.06-124.02 177.16-266.76 177.16-124.02 0-212.6-118.11-266.76-177.16 63.16-69.06 141.73-177.17 266.76-177.17 141.73 0 212.6 118.11 266.76 177.17z" transform="matrix(.68807 0 0 .61926 .001 113.366)" stroke="#000" stroke-width="2.108" fill="#fff"/>
      <path d="M243.234 184.446c9.73 10.943 1.606 16.364 11.903 16.073 10.86.797 4.706 11.662 13.84 11.936 6.387.28-.638 26.794 6.611 34.213 6.263 8.777 11.608 2.671 11.618 8.913.109 6.668-17.046 6.896-17.346 26.099-.603 11.642-14.476 12.388-16.143 19.879-.83 7.046 27.628 11.002 27.16 17.31-.388 6.288-30.62 6.303-31.936 12.476-.676 6.442 41.631 11.721 44.926 30.362-6.298 2.06-24.216 3.998-37.76 4.009-86.327.068-146.283-73.14-182.864-109.708 36.671-36.674 97.62-109.714 182.866-109.714 0 0-26.33 23.144-12.763 38.163z"/>
      <g stroke-width="1pt" fill="#fff">
        <path d="M141.408 216.989h8.866v29.266h-8.866zM141.408 266.76h8.866v29.266h-8.866zM169.138 216.989h8.866v29.266h-8.866zM169.138 266.76h8.866v29.266h-8.866zM176.868 216.989h8.866v29.266h-8.866zM176.868 266.76h8.866v29.266h-8.866zM194.602 216.989h8.866v29.266h-8.866zM194.602 266.76h8.866v29.266h-8.866zM212.332 216.989h8.866v29.266h-8.866zM212.332 266.76h8.866v29.266h-8.866zM230.062 216.989h8.866v29.266h-8.866zM230.062 266.76h8.866v29.266h-8.866z"/>
      </g>
      <g stroke-width="1pt">
        <path d="M276.499 216.989h8.866v29.266h-8.866zM276.499 266.76h8.866v29.266h-8.866zM293.228 216.989h8.866v29.266h-8.866zM293.228 266.76h8.866v29.266h-8.866zM310.968 216.989h8.866v29.266h-8.866zM310.968 266.76h8.866v29.266h-8.866zM328.693 216.989h8.866v29.266h-8.866zM328.693 266.76h8.866v29.266h-8.866zM346.422 216.989h8.866v29.266h-8.866zM346.422 266.76h8.866v29.266h-8.866zM364.162 216.989h8.866v29.266h-8.866zM364.162 266.76h8.866v29.266h-8.866z"/>
      </g>
    </g>
    <g fill-rule="evenodd">
      <path d="M338.07-.416c-6.671 12.442 9.764-4.138 33.778 16.69 4.462 3.87 10.833 19.16 10.833 26.246-6.116-1.267-14.173-7.087-14.173-7.087s10.63 12.296 10.63 26.468c-3.766-2.71-6.636-2.304-6.883-6.634 0 4.688 3.34 7.612 3.34 14.699-2.711-2.498-6.006-4.163-7.3-6.626 3.643 7.086-6.467 20.834-1.462 26.423-8.762-1.462-17.707-7.92-21.26-16.006-1.878 1.462-2.082 3.766-2.166 6.203.276.264-13.322-11.666-12.073-16.236-1.824 2.966-2.081 4.679-2.497 7.909-4.996-6.69-9.674-11.378-11.24-18.733-2.22 3.33-2.369 3.33-4.679 6.66-1.666-11.666-1.666-11.24 1.666-21.23-2.369 1.804-4.302 3.608-6.66 6.828 2.234-16.88 13.628-36.674 30.016-46.477z" transform="matrix(.9094 0 0 .78749 -110.68 166.096)" stroke="#000" stroke-width="1.422" fill="#3d6da7"/>
      <path d="M184.376 213.644c.81-6.762 2.676-9.296 3.103-13.643.94-7.648-.176-13.237 2.634-13.096 2.71.141 3.49 2.962 2.161 10.693-1.34 7.63-2.468 9.484-7.788 16.146zM198.62 226.007c-.66-6.697.603-8.122.164-11.791-.602-6.467-2.696-10.83-.234-11.233 2.362-.402 3.666 1.764 3.81 8.283.266 6.619-.376 8.266-3.73 14.74zM220.602 236.092c-2.401-4.929-4.464-6.4-6.016-9.672-2.739-6.676-3.31-10.129-6.422-9.304-2.112.826-1.996 3.18 1.064 8.639 3.06 6.468 4.429 6.67 10.383 10.237zM228.236 191.946c-6.116-3.22-9.267-3.26-13.199-6.329-6.94-3.627-10.98-7.726-12.414-6.47-1.434 2.266.48 4.499 7.636 7.796 7.166 3.298 9.364 3.464 17.978 3.003zM230.48 210.382c-4.466-3.706-7.088-4.26-9.96-6.633-6.06-4.182-7.678-8.288-9.268-6.624-1.69 1.666-.66 3.864 4.76 7.804 6.31 3.94 7.127 4.43 14.477 6.463z" fill="#a70000"/>
    </g>
  </g>
</svg>
