<svg xmlns="http://www.w3.org/2000/svg" height="480" width="640" version="1">
  <path d="M640 480V0H0v480h640z" fill="#006"/>
  <path fill-rule="evenodd" fill="#006" d="M0 0h373.68v232.168H0z"/>
  <g stroke-width="1pt">
    <path d="M0 0v26.967l331.901 206.21h41.778v-26.966L41.777.001H0zm373.679 0v26.966L41.777 232.166H0V206.21L331.901 0h41.778z" fill="#fff"/>
    <path d="M166.7 0v232.167h62.28V0H166.7zM0 77.389v77.389h373.679v-77.39H0z" fill="#fff"/>
    <path d="M0 92.867V139.3h373.679V92.867H0zM168.166 0v232.167h37.368V0h-37.368zM0 232.167l124.66-77.39h27.861l-124.66 77.39H0zM0 0l124.66 77.389H96.708L0 17.306V0zm221.267 77.389L346.827 0h27.862l-124.66 77.389h-27.862zM373.68 232.167l-124.66-77.39h27.862l96.708 60.086v17.306z" fill="#c00"/>
  </g>
  <g>
    <path d="M612.64 212.442v79.91c0 66.607-26.77 126.663-102.217 162.169-76.416-36.606-102.189-96.66-102.189-162.168v-79.911h204.444z" fill-opacity=".996" fill="#fff"/>
    <path d="M606.691 220.686v74.636c0 61.192-24.036 117.209-96.34 161.266-71.307-34.048-96.34-90.063-96.34-161.266v-74.636h190.69z" fill-opacity=".996" fill="#fdc300"/>
    <g stroke="#000" stroke-width=".091">
      <path d="M206.96 62.847a2.086 2.086 0 0 0-1.266-.441c.117-1.296-.824-1.864-1.601-2.09-.676-.236-.912-.6-1.029-1.03-.118-.629-.471-.862-1.089-1.029-.618-.176-1.148-.794-1.383-1.088-.236-.296-.324-.236-.6.264-.177.6-.883 1.442-.236 1.472-.47.382-.736.823-.441 1.412-.324.266-.669.647-.118.794.442.147.669.266.689.383-.397 0-.6.794.441.97-.206.03-.294.677.089.677-.63 0-.972.796-1.648.796-.677 0-1.03.147-1.069.441-.03.294-.383.647-.669.794.6.06.823 0 1.088-.206s.706-.264 1.001-.029c.294.236.912.363 1.206.294-.647.442-1.118 1.03-1.177 1.689-.069.66-.441 1.206-.883 1.383-.441.176-1.029.647-1.236 1.206.669 1.383 1.362 1.726 2.147 2.09 1.413.646 2.296 1.117 2.884 1.764.688.648.824.177 1.706 1.296.883 1.118 1.707 3.236 2.689 3.69.883.363 2.001.117 2.648-1 .648-1.119 1.06-12.417-2.266-14.3z" fill="#ff9e3d" transform="matrix(3.909 0 0 3.9094 -339.132 46.663)"/>
      <path d="M207.46 48.139c-.824.883-1.884 1.766-1.707 3.364s.363 4.178-1.118 6.06c-1.471.884-2.177 3.12-.412 4.414 1.766 1.296 1.824 2.884 2.118 4.366.296 1.47 1.06 2.648 2.237 1.647 1.176.177 1.824-.294 1.824-1.236s.069-1.471.941-1.766c.883-.294 1.118-.688 1.63-1.383.412-.794.647-1.147.412-1.618-.236-.47-.324-1.441-.147-2.148.177-.706-.236-1.088-.471-1.63-.236-.44-.323-.823-.206-1.412.118-.688-.176-.97-.688-1.266-.412-.294-.689-.688-.6-1.06.088-.47-.296-.764-.736-1.117s-.766-.824-.766-1.63c0-.706-1.363-2.364-2.412-2.766z" fill="#ff927f" transform="matrix(3.909 0 0 3.9094 -339.132 46.663)"/>
      <path d="M207.79 67.362c1.971-.6 1.796-3.737 1.601-6.09-.296-1.363-1.061-3.292-.471-4.826.824-2.177-1.001-4.237-.63-6.06.471-.826.412-1.266.363-1.63-.068-.266-.6-.472-.629.087-.03.66-.177.766-.63 1.118s-.266 1.118 0 1.972c.266.863.824 2.148-.069 3.864-.882 1.706-.619 2.467-.176 3.266.629 1.236 1.796 6.631.441 6.208z" fill="#ff9ee1" transform="matrix(3.909 0 0 3.9094 -339.132 46.663)"/>
      <path d="M198.96 48.904c.221 0 .648-.088.648.206M198.62 60.316c.266-.191.736.03 1.206-.26M198.99 61.493c.363 0 .824-.016 1.266-.368M199.43 62.464c.324 0 .927-.206 1.074-.632M199.62 63.141c.632-.03 1.471.206 1.688-.016M199.66 66.23c.441-.412 1.486-.691 1.721-1.118M200.67 48.669c.736.236.431.69.794.971.648.6.069 1.06.689 1.206.629.147.62.237.382.824-.162.692.6.72.266 1.177M204.7 62.406c-.294 0-1.162.03-1.63.81M198.42 60.894c.339.069.608-.134.603-.324.103-.206.147-.363.466-.367.309-.016.78-.103.883-.339.103-.236.471-.016.78-.632.309-.618.616-1.364 1.338-1.619" fill="none" transform="matrix(3.909 0 0 3.9094 -339.132 46.663)"/>
    </g>
    <g stroke="#000" stroke-width=".091">
      <path d="M221.76 73.76c.333.484-.012 1.007.663 1.216.662.246.084 1.116.866 1.422.692.273.006 1.106.763 1.479.669.334-.112 1.116.781 1.662.892.446-.168 1.46.602 1.84.669.391-.223 1.396.668 1.786.781.39-.336 1.171.39 1.729.726.668-.167 1.394.668 1.896s-.446 1.173.279 1.897c.668.668-.201 1.104.223 1.963.279.667-.279 2.789-1.841 2.666-.668.948-2.733 1.786-3.614 1.606-.781.668-3.291 1.339-4.676.111-1.282 1.228-3.793.447-4.674-.111-.781.279-2.966-.668-3.614-1.606-1.662.223-2.12-2.009-1.841-2.666.424-.849-.336-1.396.223-1.963.724-.724-.446-1.394.279-1.897s-.167-1.338.668-1.896c.726-.668-.391-1.339.39-1.73.781-.39-.111-1.394.668-1.786.67-.39-.39-1.394.602-1.84.893-.447.112-1.228.781-1.662.748-.374.061-1.206.763-1.479.781-.306.203-1.177.866-1.422.674-.212.208-.749.67-1.24 1.661.664 6.803 1.123 8.918.024z" fill="#00a728" transform="matrix(3.909 0 0 3.9094 -339.132 46.663)"/>
      <g fill-opacity=".996" fill="#fdc300">
        <path d="M213.61 76.668c.001.26-.006.6-.237.809-.602.67.223 1.004-.336 1.73-.667.724.112 1.17-.602 1.784-.613.614.112 1.172-.602 1.841-.613.67.112 1.116-.602 1.73-.613.613.112 1.283-.602 1.896-.613.614.112 1.396-.668 2.12-.669.726.112 1.283-.446 1.84-.668.669-.066 1.116-.446 1.607.669-.602.669-1.283 1.171-1.674.602-.39-.167-.948.112-1.227s.066-1.46.668-2.008.066-1.674.602-2.064.111-1.662.669-1.962 0-1.34.446-1.841c.447-.602 0-1.283.447-1.897.446-.614.02-1.17.334-1.673.14-.224.14-1.841-.209-.921zM216.12 77.366c-.39.726.279.892-.223 1.618s.279 1.283-.279 2.008.279 1.116-.223 1.84c-.602.726.223 1.116-.223 1.674-.447.668.334 1.116-.223 1.786-.668.67.223 1.172-.224 1.786-.446.614.168 1.283-.223 1.786-.39.602.279 1.228-.279 1.897s.112 1.116-.223 1.662c.67-.223.419-1.144.67-1.339.261-.196-.084-1.478.306-1.813.391-.334-.261-1.367.112-1.813.614-.763.084-1.266.446-1.84.363-.686-.138-1.338.14-1.73.474-.67-.21-1.273.139-1.767.602-.697-.097-1.272.261-1.73.63-.697-.066-1.394.168-1.767.223-.362.686-1.924-.112-2.176zM217.29 77.974c-.39.972.279 1.36.066 2.138-.223.778.279 1.361-.066 2.203-.334.843.447 1.49 0 2.692-.446 1.102.288 1.376 0 2.463-.334 1.263.668 1.933 0 2.826-.667.893.639 1.188.066 2.12-.279.446.028 1.69.474.223.447-1.366-.334-1.634.066-2.092.391-.668-.139-2.036.028-2.817.168-.78-.39-1.84-.028-2.677.363-.837-.668-1.73-.196-2.466.363-.726-.167-1.618.167-2.203.336-.686-.261-1.367-.111-1.702.139-.334-.14-1.67-.447-.618z" transform="matrix(3.909 0 0 3.9094 -339.132 46.663)"/>
      </g>
      <path d="M221.47 74.408c0-6.303-.892-8.479-4.184-8.479-3.291 0-4.183 2.176-4.183 8.479h8.367z" fill="#ef072d" transform="matrix(3.909 0 0 3.9094 -339.132 46.663)"/>
      <g fill="none">
        <path d="M214.33 73.906c-.614.614.112 1.06-.602 1.786-.614.726-.066 1.116-.668 1.786s.223 1.004-.336 1.73c-.667.726.112 1.17-.602 1.784-.613.614.112 1.172-.602 1.841-.613.67.112 1.116-.602 1.73-.613.613.112 1.283-.602 1.896-.613.614.112 1.396-.668 2.12-.669.726.112 1.283-.446 1.84-.668.669-.066 1.117-.446 1.607-.391.39-.446.936-.279 1.172M216.6 74.129c-.667.726.279 1.06-.223 1.673-.602.614.223.837-.167 1.663s.279.892-.223 1.617.279 1.283-.279 2.008.279 1.116-.223 1.841c-.602.726.223 1.116-.223 1.674-.447.668.334 1.116-.223 1.786-.668.67.223 1.171-.224 1.786-.446.614.168 1.283-.223 1.786-.39.602.279 1.227-.279 1.897s.112 1.116-.223 1.662c-.336.446-.699 1.101-.279 1.283M217.29 74.799c-.278 1.166.391 2.203 0 3.176-.39.972.279 1.36.066 2.138-.223.778.279 1.361-.066 2.203-.334.843.447 1.49 0 2.692-.446 1.102.288 1.376 0 2.463-.334 1.263.668 1.933 0 2.826-.667.893.603 1.116.066 2.12-.446 1.004.279 1.396-.066 2.399M220.26 73.906c.614.614-.112 1.06.602 1.786.614.726.066 1.116.668 1.786s-.223 1.004.336 1.73c.667.726-.112 1.17.602 1.784.613.614-.112 1.172.602 1.841.613.67-.112 1.116.602 1.73.613.613-.112 1.283.602 1.896.613.614-.112 1.396.668 2.12.669.726-.112 1.283.446 1.84.668.669.066 1.117.446 1.607.391.39.447.936.279 1.172M219.08 74.129c.667.726-.279 1.06.223 1.673.602.614-.223.837.167 1.663.391.726-.279.892.223 1.617s-.279 1.283.279 2.008-.279 1.116.223 1.841c.602.726-.223 1.116.223 1.674.447.668-.334 1.116.224 1.786.667.67-.224 1.171.223 1.786.446.614-.168 1.283.223 1.786.39.602-.279 1.227.279 1.897s-.112 1.116.223 1.662c.336.446.6 1.101.279 1.283" transform="matrix(3.909 0 0 3.9094 -339.132 46.663)"/>
      </g>
      <path d="M213.11 74.408c0-6.303.892-8.479 4.183-8.479-1.606 0-2.426 1.171-2.677 1.962s-.112.726.223.419.167.362-.111.726c-.279.362-.668 1.394-.168 1.06.391-.336.697.066.279.641s-.781 1.963-.363 1.479c.419-.476.602.306.262.697-.262.39-.224.726 0 .668.223-.168.196.641-.028.948h-1.69zM220.83 74.046c0-4.937-.613-6.416-1.84-6.917-.696-.286-.716-.223-.383.223s.281 1.088-.026.641c-.306-.446-.408-.63-.636-.334-.128.196.367 1.116.716 1.962.288.673.102 1.004-.332.336s-.434-.063-.063.602c.489.726.474 2.929.474 3.849l1.981-.261z" transform="matrix(3.909 0 0 3.9094 -339.132 46.663)"/>
      <path d="M217.29 76.329c1.311 0 2.746-.234 3.71-.608 1.144-.444 1.206-.834.809-1.332-.279-.361-.893-.14-1.478.117-.686.267-2.204.42-3.041.42-.836 0-2.464-.163-3.04-.42-.686-.268-1.199-.468-1.478-.117-.396.498-.336.888.809 1.332.963.374 2.399.608 3.709.608z" fill="#ef072d" transform="matrix(3.909 0 0 3.9094 -339.132 46.663)"/>
    </g>
    <g fill-rule="evenodd" fill="#b96a1e">
      <path d="M779.41 912.6s-.12 103.6 0 179.24c.12 76.63 19.822 104.91 64.262 103.69 34.44-1.33 41.108-68.83 34.631-92.08-6.677-33.26-63.24-198.97-63.24-198.97l-36.663 8.222z" transform="matrix(.063 -.03423 .03246 .0669 489.023 284.186)" stroke="#000" stroke-width="6.377"/>
      <path d="M779.41 912.6s-.12 103.6 0 179.24c.12 76.63 19.822 104.91 64.262 103.69 34.44-1.33 41.108-68.83 34.631-92.08-6.677-33.26-63.24-198.97-63.24-198.97l-36.663 8.222z" transform="matrix(.0608 -.01361 .0129 .06412 499.988 261.06)" stroke="#000" stroke-width="6.377"/>
      <path d="M779.41 912.6s-.12 103.6 0 179.24c.12 76.63 19.822 104.91 64.262 103.69 34.44-1.33 41.108-68.83 34.631-92.08-6.677-33.26-63.24-198.97-63.24-198.97l-36.663 8.222z" transform="matrix(.06216 0 0 .06666 609.298 249.363)" stroke="#000" stroke-width="6.377"/>
      <path d="M779.63 266.12c169.67-1.394 177.16-36.432 177.16-36.432s36.43-70.866 17.716-88.684c-17.717-17.716-194.88-17.716-194.88-17.716v141.73z" transform="matrix(.03867 0 0 .06666 627.683 292.32)" stroke="#000" stroke-width="8.096"/>
      <path d="M779.63 266.12c106.3 0 124.02-36.432 124.02-36.432s36.43-70.866 17.716-88.684c-17.717-17.716-141.73-17.716-141.73-17.716v141.73z" transform="matrix(.06216 0 0 .06666 609.298 287.673)" stroke="#000" stroke-width="6.377"/>
      <path d="M779.63 266.12c88.683 0 141.73-36.433 141.73-36.433s36.43-70.866 17.716-88.684c-17.72-17.72-169.46-17.71-169.46-17.71v141.73z" transform="matrix(.06216 0 0 .06666 609.298 283.026)" stroke="#000" stroke-width="6.377"/>
      <path d="M832.68 113.39s70.866-88.683 194.88-177.17c124.01-88.682 213.73-166.72 230.31-141.73 0 17.717-106.3 106.3-194.88 177.17C974.4 42.62 868.1 148.82 868.1 148.82l-36.433-36.433z" transform="matrix(.07714 0 0 .06666 497.232 249.488)" stroke="#000" stroke-width="6.724"/>
      <path d="M832.68 113.39s70.06-62.026 204.38-124.02c132.23-63.918 318.89-63.16 318.89-36.433-17.71 17.716-177.16 17.716-283.46 70.866-101.48 60.729-204.39 124.01-204.39 124.01l-36.433-36.433z" transform="matrix(.07714 0 0 .06666 497.87 264.136)" stroke="#000" stroke-width="6.724"/>
      <path d="M832.68 113.39s61.676-36.068 204.38-88.683c141.72-63.16 329.87-17.717 329.87 0-17.7 17.713-170.4 6.944-276.7 36.429-109.99 27.768-222.09 88.684-222.09 88.684l-36.433-36.433z" transform="matrix(.07714 0 0 .06666 497.93 262.136)" stroke="#000" stroke-width="6.724"/>
      <path d="M832.68 113.39s71.079-70.976 222.47-88.683c162.3-17.72 276.3 88.683 276.3 106.29-17.7 17.72-169.6-77.972-266.7-64.286-112.67 13.664-197.69 82.006-197.69 82.006l-36.433-36.433z" transform="matrix(.07714 0 0 .06666 498.46 270.263)" stroke="#000" stroke-width="6.724"/>
      <path d="M779.63 266.12c169.67-1.394 169.46-46.608 169.46-46.608s36.43-70.866 17.716-88.684c-17.717-17.716-177.16-7.64-177.16-7.64v141.73z" transform="matrix(.06216 0 0 .06666 609.298 277.227)" stroke="#000" stroke-width="6.377"/>
      <path d="M779.63 266.12c169.67-1.394 177.16-36.432 177.16-36.432s36.43-70.866 17.716-88.684c-17.717-17.716-194.88-17.716-194.88-17.716v141.73z" transform="matrix(.06216 0 0 .06666 609.298 272.68)" stroke="#000" stroke-width="6.377"/>
      <path d="M779.63 266.12c169.67-1.394 194.88-36.433 194.88-36.433s36.43-70.866 17.716-88.683c-17.717-17.716-212.6-17.716-212.6-17.716v141.73z" transform="matrix(.06216 0 0 .06666 609.298 266.774)" stroke="#000" stroke-width="6.377"/>
      <path d="M779.63 266.12c169.67-1.394 212.6-36.433 212.6-36.433s17.714-70.866 0-88.683c-17.717-17.716-212.6-17.716-212.6-17.716v141.73z" transform="matrix(.06216 0 0 .06666 609.298 260.967)" stroke="#000" stroke-width="6.377"/>
      <path d="M832.68 113.39S946.89 24.807 946.89-46.06c0-70.866-60.349-141.73-64.626-177.17 28.662 0 93.176 106.3 93.176 177.17 0 77.444-107.32 194.88-107.32 194.88l-36.433-36.433z" transform="matrix(.07714 0 0 .06666 496.728 244.706)" stroke="#000" stroke-width="6.724"/>
      <path d="M832.68 113.39s-14.276-63.16-14.276-169.46c0-124.02 63.001-202.89 86.664-230.32 6.898 27.422-67.102 124.02-67.102 230.32 0 77.444 21.167 194.88 21.167 194.88l-36.433-36.433z" transform="matrix(.07714 0 0 .06666 496.728 244.706)" stroke="#000" stroke-width="6.724"/>
      <path d="M779.63 266.12c169.67-1.394 212.6-36.433 212.6-36.433s0-70.866-17.716-88.683c-17.717-17.716-194.88-17.716-194.88-17.716v141.73z" transform="matrix(.06216 0 0 .06666 609.298 266.16)" stroke="#000" stroke-width="6.377"/>
      <path d="M779.63 266.12c169.67-1.394 194.88-36.433 194.88-36.433s0-70.866-17.716-88.683c-17.717-17.716-177.16-17.716-177.16-17.716v141.73z" transform="matrix(.06216 0 0 .06666 609.298 249.363)" stroke="#000" stroke-width="6.377"/>
      <path d="M318.9 1318.1c66.066-122.32 70.866-336.61 70.866-372.06 0-99.782-32.948-686.11-36.433-779.63s124.02-301.18 248.03-301.18c106.3 0 177.17 70.866 177.17 177.17h-63.16c0-70.866-63.16-124.02-124.02-124.02-106.3 0-187.99 83.739-194.88 248.03-7.606 189.89 21.316 682.94 17.717 814.96s-61.234 249.72-106.3 336.61z" transform="matrix(-.06216 0 0 .06666 606.204 249.363)" stroke="#fdc301" stroke-width="16.071"/>
      <path d="M779.41 912.6s-.12 103.6 0 179.24c.12 76.63 19.822 104.91 64.262 103.69 34.44-1.33 41.108-68.83 34.631-92.08-6.677-33.26-63.24-198.97-63.24-198.97l-36.663 8.222z" transform="matrix(-.063 -.03423 -.03246 .0669 626.48 284.186)" stroke="#000" stroke-width="6.377"/>
      <path d="M779.63 32.884c124.13.141 177.77 102.39 177.46 100.31l-36.734 33.347c-18.986 17.717-141.73 17.717-140.21 17.626l-1.62-161.29z" transform="matrix(.06216 0 0 .06666 609.298 249.363)" stroke="#000" stroke-width="6.377"/>
      <path d="M779.41 912.6s-.12 103.6 0 179.24c.12 76.63 19.822 104.91 64.262 103.69 34.44-1.33 41.108-68.83 34.631-92.08-6.677-33.26-63.24-198.97-63.24-198.97l-36.663 8.222z" transform="matrix(-.0608 -.01361 -.0129 .06412 616.606 261.06)" stroke="#000" stroke-width="6.377"/>
      <path d="M779.41 912.6s-.12 103.6 0 179.24c.12 76.63 19.822 104.91 64.262 103.69 34.44-1.33 41.108-68.83 34.631-92.08-6.677-33.26-63.24-198.97-63.24-198.97l-36.663 8.222z" transform="matrix(-.06216 0 0 .06666 606.196 249.363)" stroke="#000" stroke-width="6.377"/>
      <path d="M779.63 266.12c169.67-1.394 177.16-36.432 177.16-36.432s36.43-70.866 17.716-88.684c-17.717-17.716-194.88-17.716-194.88-17.716v141.73z" transform="matrix(-.03867 0 0 .06666 687.811 292.32)" stroke="#000" stroke-width="8.096"/>
      <path d="M779.63 266.12c106.3 0 124.02-36.432 124.02-36.432s36.43-70.866 17.716-88.684c-17.717-17.716-141.73-17.716-141.73-17.716v141.73z" transform="matrix(-.06216 0 0 .06666 606.196 287.673)" stroke="#000" stroke-width="6.377"/>
      <path d="M779.63 266.12c88.683 0 141.73-36.433 141.73-36.433s36.43-70.866 17.716-88.684c-17.72-17.72-169.46-17.71-169.46-17.71v141.73z" transform="matrix(-.06216 0 0 .06666 606.196 283.026)" stroke="#000" stroke-width="6.377"/>
      <path d="M832.68 113.39s70.866-88.683 194.88-177.17c124.01-88.682 213.73-166.72 230.31-141.73 0 17.717-106.3 106.3-194.88 177.17C974.4 42.62 868.1 148.82 868.1 148.82l-36.433-36.433z" transform="matrix(-.07714 0 0 .06666 618.262 249.488)" stroke="#000" stroke-width="6.724"/>
      <path d="M832.68 113.39s70.06-62.026 204.38-124.02c132.23-63.918 318.89-63.16 318.89-36.433-17.71 17.716-177.16 17.716-283.46 70.866-101.48 60.729-204.39 124.01-204.39 124.01l-36.433-36.433z" transform="matrix(-.07714 0 0 .06666 617.632 264.136)" stroke="#000" stroke-width="6.724"/>
      <path d="M832.68 113.39s61.676-36.068 204.38-88.683c141.72-63.16 329.87-17.717 329.87 0-17.7 17.713-170.4 6.944-276.7 36.429-109.99 27.768-222.09 88.684-222.09 88.684l-36.433-36.433z" transform="matrix(-.07714 0 0 .06666 617.673 262.136)" stroke="#000" stroke-width="6.724"/>
      <path d="M832.68 113.39s71.079-70.976 222.47-88.683c162.3-17.72 276.3 88.683 276.3 106.29-17.7 17.72-169.6-77.972-266.7-64.286-112.67 13.664-197.69 82.006-197.69 82.006l-36.433-36.433z" transform="matrix(-.07714 0 0 .06666 617.062 270.263)" stroke="#000" stroke-width="6.724"/>
      <path d="M779.63 266.12c169.67-1.394 169.46-46.608 169.46-46.608s36.43-70.866 17.716-88.684c-17.717-17.716-177.16-7.64-177.16-7.64v141.73z" transform="matrix(-.06216 0 0 .06666 606.196 277.227)" stroke="#000" stroke-width="6.377"/>
      <path d="M779.63 266.12c169.67-1.394 177.16-36.432 177.16-36.432s36.43-70.866 17.716-88.684c-17.717-17.716-194.88-17.716-194.88-17.716v141.73z" transform="matrix(-.06216 0 0 .06666 606.196 272.68)" stroke="#000" stroke-width="6.377"/>
      <path d="M779.63 266.12c169.67-1.394 194.88-36.433 194.88-36.433s36.43-70.866 17.716-88.683c-17.717-17.716-212.6-17.716-212.6-17.716v141.73z" transform="matrix(-.06216 0 0 .06666 606.196 266.774)" stroke="#000" stroke-width="6.377"/>
      <path d="M779.63 266.12c169.67-1.394 212.6-36.433 212.6-36.433s17.714-70.866 0-88.683c-17.717-17.716-212.6-17.716-212.6-17.716v141.73z" transform="matrix(-.06216 0 0 .06666 606.196 260.967)" stroke="#000" stroke-width="6.377"/>
      <path d="M832.68 113.39S946.89 24.807 946.89-46.06c0-70.866-60.349-141.73-64.626-177.17 28.662 0 93.176 106.3 93.176 177.17 0 77.444-107.32 194.88-107.32 194.88l-36.433-36.433z" transform="matrix(-.07714 0 0 .06666 619.776 244.706)" stroke="#000" stroke-width="6.724"/>
      <path d="M832.68 113.39s-14.276-63.16-14.276-169.46c0-124.02 63.001-202.89 86.664-230.32 6.898 27.422-67.102 124.02-67.102 230.32 0 77.444 21.167 194.88 21.167 194.88l-36.433-36.433z" transform="matrix(-.07714 0 0 .06666 619.776 244.706)" stroke="#000" stroke-width="6.724"/>
      <path d="M779.63 266.12c169.67-1.394 212.6-36.433 212.6-36.433s0-70.866-17.716-88.683c-17.717-17.716-194.88-17.716-194.88-17.716v141.73z" transform="matrix(-.06216 0 0 .06666 606.196 266.16)" stroke="#000" stroke-width="6.377"/>
      <path d="M779.63 266.12c169.67-1.394 194.88-36.433 194.88-36.433s0-70.866-17.716-88.683c-17.717-17.716-177.16-17.716-177.16-17.716v141.73z" transform="matrix(-.06216 0 0 .06666 606.196 249.363)" stroke="#000" stroke-width="6.377"/>
      <path d="M318.9 1318.1c66.066-122.32 70.866-336.61 70.866-372.06 0-99.782-32.948-686.11-36.433-779.63s124.02-301.18 248.03-301.18c106.3 0 177.17 70.866 177.17 177.17h-63.16c0-70.866-63.16-124.02-124.02-124.02-106.3 0-187.99 83.739-194.88 248.03-7.606 189.89 21.316 682.94 17.717 814.96s-61.234 249.72-106.3 336.61z" transform="matrix(.06216 0 0 .06666 609.29 249.363)" stroke="#fdc301" stroke-width="16.071"/>
      <path d="M779.63 32.884c124.13.141 177.77 102.39 177.46 100.31l-36.734 33.347c-18.986 17.717-141.73 17.717-140.21 17.626l-1.62-161.29z" transform="matrix(-.06216 0 0 .06666 606.196 249.363)" stroke="#000" stroke-width="6.377"/>
    </g>
  </g>
</svg>
