<svg xmlns="http://www.w3.org/2000/svg" xmlns:xlink="http://www.w3.org/1999/xlink" height="480" width="640" version="1">
  <defs>
    <path d="M0-21l12.344 37.99-32.316-23.48h39.944l-32.316 23.48z" fill="#fff" id="a"/>
  </defs>
  <path fill="#002396" d="M0 0h640v480H0z"/>
  <path fill="#fff" d="M0 0h292.8v196.8H0z"/>
  <path fill="#002396" d="M0 0h96v192H0z"/>
  <path fill="#ed2939" d="M192 0h96v192h-96z"/>
  <path d="M426 219.6l16.46 24.6h43.96V330l-33-61.6-44.4 70.8h21.6l22.8-40.8 46.8 84 46.8-84 22.8 40.8h21.6L646 278.4 613 330v-47.4h19.8l14.7-23.4H613v-16h43.96l16.46-24.6H426zm61.6 106h-48v16.8h48zm91.2 0h-48v16.8h48z" fill="#fff"/>
  <use height="100%" width="100%" xlink:href="#a" x="416" y="362" transform="scale(1.2)"/>
  <use height="100%" width="100%" xlink:href="#a" x="371" y="328" transform="scale(1.2)"/>
  <use height="100%" width="100%" xlink:href="#a" x="461" y="328" transform="scale(1.2)"/>
  <use height="100%" width="100%" xlink:href="#a" x="333" y="227" transform="scale(1.2)"/>
  <use height="100%" width="100%" xlink:href="#a" x="499" y="227" transform="scale(1.2)"/>
</svg>
