<svg xmlns="http://www.w3.org/2000/svg" height="480" width="640">
  <defs>
    <clipPath id="a">
      <path fill-opacity=".67" d="M0 0h682.67v612H0z"/>
    </clipPath>
  </defs>
  <g clip-path="url(#a)" fill-rule="evenodd" transform="scale(.9376)">
    <path fill="#ffe300" d="M0 0h767.63v612H0z"/>
    <path fill="#118600" d="M0 208.14h767.63v102.81H0zM0 .248h767.63v102.81H0z"/>
    <path fill="#d80000" d="M0 .248h306.61v310.71H0z"/>
    <path d="M134.42 128.43c0-.866 18.836-63.083 18.836-63.083l17.124 62.227s67.366 1.713 67.366.866-46.378 34.248-46.378 34.248 21.404 69.933 20.649 68.221c-.866-1.712-49.669-36.96-49.669-36.96s-49.668 34.248-48.802 34.248c.866 0 18.836-66.608 18.836-66.608l-44.622-33.392 66.662-.866z" fill="#fff"/>
    <path fill="#118600" d="M0 409.19h767.63V612H0z"/>
  </g>
</svg>
