<svg xmlns="http://www.w3.org/2000/svg" width="640" height="480" viewBox="-169 41 640 480">
  <path fill="#00247D" d="M-169 41h640v480h-640z"/>
  <g fill="#FED100">
    <path d="M-60.9 396.6c-6.7-.1 62.8-37 120.9-84.4 76.2-62.1 240.3-161.4 288.6-177.6 6-1.7-10.3 8.6-12.3 11.9-61.6 61-10.4 176 64 233.9 19.4 14.8 18.4 16.6 64.3 17v3.4l-606.6-4.2zM-66.1 402.3s-4.9 3.6-4.9 6.1c0 2.9 6.6 6.7 6.6 6.7l498.6 6.6 9.2-6.1-12.8-7.9-496.6-4.3z"/>
  </g>
  <g fill="#FFF">
    <path d="M-62.2 160.1l-4 12.2 10.4-7.6 10.3 7.6-3.9-12.2 10.3-7.6h-12.8l-3.9-12.2-4 12.2h-12.8zM26.9 207.6l8.6-6.3H23.8l-3.3-10.1-3.3 10.1H6.6l8.6 6.3-3.3 10.1 8.6-6.3 8.7 6.3zM-119.3 220.6l-4-12.2-3.9 12.2H-140l10.3 7.6-3.9 12.2 10.3-7.6 10.4 7.6-4-12.2 10.4-7.6zM-41.2 342.8l-4.6-14.2-4.6 14.2h-16l12.1 8.7-4.6 14.3 12.1-8.8 12.1 8.8-4.7-14.3 12.1-8.7z"/>
  </g>
</svg>
