<svg xmlns="http://www.w3.org/2000/svg" height="480" width="640" version="1">
  <defs>
    <clipPath id="a">
      <path fill-opacity=".67" d="M42.666 0h682.67v612H42.666z"/>
    </clipPath>
  </defs>
  <g fill-rule="evenodd" clip-path="url(#a)" transform="translate(-40) scale(.9376)">
    <path fill="#004e00" d="M0 0h768v612H0z"/>
    <g stroke-width="1pt">
      <path d="M260.673 171.886h14.12" fill="#ffef00"/>
      <path d="M263.306 137.494c27.9 13.463 61.12-.064 73.139-18.637 12.323-17.332 13.836-46.437-7.468-73.14 33.07 27.426 40.379 68.613 23.927 84.113-21.944 29.264-70.627 28.407-89.698 7.664z" fill="#fff"/>
      <path fill="#feffff" d="M312.836 69.431l6.614.072-4.443 3.628 1.666 6.62-4.633-3.263-4.687 3.339 1.683-6.643-4.499-3.463 6.61-.167 1.8-6.473zM286.123 104.173l6.616.071-4.444 3.629 1.666 6.619-4.633-3.262-4.687 3.338 1.683-6.643-4.499-3.462 6.61-.167 1.8-6.474zM286.96 76.763l6.614.071-4.443 3.629 1.666 6.62-4.633-3.263-4.687 3.338 1.683-6.643-4.499-3.462 6.61-.167 1.8-6.474zM286.96 49.317l6.614.072-4.443 3.628 1.666 6.62-4.633-3.263-4.687 3.339 1.683-6.643-4.499-3.463 6.61-.166 1.8-6.474zM266.162 84.066l6.616.072-4.444 3.628 1.666 6.62-4.633-3.262-4.687 3.338 1.683-6.643-4.499-3.463 6.61-.166 1.8-6.474z"/>
    </g>
    <path fill="#980000" d="M47.642 0H212.11v611.984H47.642z"/>
    <g stroke-width="1pt" fill="#e69900">
      <path d="M47.642 133.481v-3.667l6.803-9.143-1.371-1.828 4.114-6.486-1.371-1.828-2.743 3.667-1.372-1.829 9.6-12.8 1.371 1.83-1.37 1.828 2.826 3.694 6.773-9.18-6.887-8.896-2.713 3.41 1.371 1.83-1.37 1.828-9.6-12.8 1.37-1.828 2.744 3.667 1.37-1.829-4.113-6.486 1.371-1.828-6.803-9.142v-3.668l9.646 12.8-1.371 1.828 4.114 6.486-2.743 3.667 2.743 3.667 4.114-6.486 9.664 13.017-9.664 12.682-4.114-6.486-2.743 3.668 2.743 3.666-4.114 6.486 1.37 1.828-9.646 12.8z"/>
      <path d="M47.641 87.77l1.372 3.666v6.486h4.114l2.743 1.828-2.743 1.829h-4.114v6.486l-1.372 3.668V87.769z"/>
    </g>
    <g stroke-width="1pt" fill="#e69900">
      <path d="M47.642 221.26v-3.667l6.803-9.143-1.371-1.828 4.114-6.486-1.371-1.828-2.743 3.667-1.372-1.829 9.6-12.8 1.371 1.829-1.37 1.829 2.826 3.694 6.773-9.18-6.887-8.896-2.713 3.41 1.371 1.829-1.37 1.828-9.6-12.8 1.37-1.828 2.744 3.668 1.37-1.83-4.113-6.486 1.371-1.828-6.803-9.143v-3.667l9.646 12.8-1.371 1.828 4.114 6.486-2.743 3.667 2.743 3.667 4.114-6.486 9.664 13.017-9.664 12.682-4.114-6.486-2.743 3.667 2.743 3.667-4.114 6.486 1.37 1.828-9.646 12.8z"/>
      <path d="M47.641 176.638l1.372 3.667v6.486h4.114l2.743 1.83-2.743 1.828h-4.114v6.486l-1.372 3.667v-21.942z"/>
    </g>
    <g stroke-width="1pt" fill="#e69900">
      <path d="M47.643 309.02v-3.667l6.803-9.143-1.371-1.828 4.114-6.486-1.371-1.828-2.743 3.666-1.372-1.828 9.6-12.8 1.371 1.829-1.37 1.829 2.826 3.694 6.773-9.18-6.887-8.897-2.713 3.411 1.371 1.829-1.37 1.828-9.6-12.8 1.37-1.828 2.744 3.667 1.37-1.828-4.113-6.486 1.371-1.828-6.803-9.143v-3.667l9.646 12.8-1.371 1.828 4.114 6.486-2.743 3.667 2.743 3.667 4.114-6.486 9.664 13.018-9.664 12.682-4.114-6.486-2.743 3.667 2.743 3.667-4.114 6.486 1.37 1.828-9.646 12.8z"/>
      <path d="M47.642 263.308l1.372 3.667v6.486h4.114l2.743 1.829-2.743 1.828h-4.114v6.486l-1.372 3.667v-21.942z"/>
    </g>
    <g stroke-width="1pt" fill="#e69900">
      <path d="M47.643 391.3v-3.667l6.803-9.143-1.371-1.828 4.114-6.486-1.371-1.828-2.743 3.666-1.372-1.828 9.6-12.8 1.371 1.829-1.37 1.829 2.826 3.694 6.773-9.18-6.887-8.897-2.713 3.411 1.371 1.829-1.37 1.828-9.6-12.8 1.37-1.828 2.744 3.667 1.37-1.828-4.113-6.486 1.371-1.828-6.803-9.143v-3.667l9.646 12.8-1.371 1.828 4.114 6.486-2.743 3.667 2.743 3.667 4.114-6.486 9.664 13.018-9.664 12.682-4.114-6.486-2.743 3.667 2.743 3.667-4.114 6.486 1.37 1.828-9.646 12.8z"/>
      <path d="M47.642 346.688l1.372 3.667v6.486h4.114l2.743 1.83-2.743 1.827h-4.114v6.486l-1.372 3.667v-21.942z"/>
    </g>
    <g stroke-width="1pt" fill="#e69900">
      <path d="M212.106 133.481v-3.667l-6.803-9.143 1.372-1.828-4.114-6.486 1.37-1.828 2.744 3.667 1.371-1.829-9.6-12.8-1.37 1.83 1.37 1.828-2.827 3.694-6.772-9.18 6.886-8.896 2.713 3.41-1.37 1.83 1.37 1.828 9.6-12.8-1.371-1.828-2.743 3.667-1.371-1.829 4.114-6.486-1.372-1.828 6.803-9.142v-3.668l-9.646 12.8 1.37 1.828-4.113 6.486 2.743 3.667-2.743 3.667-4.116-6.486-9.663 13.017 9.663 12.682 4.116-6.486 2.743 3.668-2.743 3.666 4.114 6.486-1.371 1.828 9.646 12.8z"/>
      <path d="M212.107 87.77l-1.371 3.666v6.486h-4.114l-2.743 1.828 2.743 1.829h4.114v6.486l1.371 3.668V87.769z"/>
    </g>
    <g stroke-width="1pt" fill="#e69900">
      <path d="M212.66 221.26v-3.666l-6.803-9.143 1.372-1.828-4.114-6.486 1.371-1.828 2.743 3.667 1.371-1.829-9.6-12.8-1.37 1.829 1.37 1.829-2.826 3.694-6.773-9.18 6.886-8.896 2.714 3.41-1.372 1.829 1.372 1.828 9.6-12.8-1.372-1.828-2.743 3.668-1.371-1.83 4.114-6.486-1.372-1.828 6.803-9.143v-3.667l-9.646 12.8 1.371 1.828-4.114 6.486 2.743 3.667-2.743 3.667-4.114-6.486-9.664 13.017 9.664 12.682 4.114-6.486 2.743 3.667-2.743 3.667 4.114 6.486-1.371 1.828 9.646 12.8z"/>
      <path d="M212.661 176.64l-1.371 3.666v6.486h-4.114l-2.743 1.83 2.743 1.828h4.114v6.486l1.371 3.668v-21.943z"/>
    </g>
    <g stroke-width="1pt" fill="#e69900">
      <path d="M212.106 309.02v-3.667l-6.803-9.143 1.372-1.828-4.114-6.486 1.37-1.828 2.744 3.666 1.371-1.828-9.6-12.8-1.37 1.829 1.37 1.829-2.827 3.694-6.772-9.18 6.886-8.897 2.713 3.411-1.37 1.829 1.37 1.828 9.6-12.8-1.371-1.828-2.743 3.667-1.371-1.828 4.114-6.486-1.372-1.828 6.803-9.143v-3.667l-9.646 12.8 1.37 1.828-4.113 6.486 2.743 3.667-2.743 3.667-4.116-6.486-9.663 13.018 9.663 12.682 4.116-6.486 2.743 3.667-2.743 3.667 4.114 6.486-1.371 1.828 9.646 12.8z"/>
      <path d="M212.107 263.308l-1.371 3.667v6.486h-4.114l-2.743 1.829 2.743 1.828h4.114v6.486l1.371 3.667v-21.942z"/>
    </g>
    <g stroke-width="1pt" fill="#e69900">
      <path d="M212.106 391.3v-3.667l-6.803-9.143 1.372-1.828-4.114-6.486 1.37-1.828 2.744 3.666 1.371-1.828-9.6-12.8-1.37 1.829 1.37 1.829-2.827 3.694-6.772-9.18 6.886-8.897 2.713 3.411-1.37 1.829 1.37 1.828 9.6-12.8-1.371-1.828-2.743 3.667-1.371-1.828 4.114-6.486-1.372-1.828 6.803-9.143v-3.667l-9.646 12.8 1.37 1.828-4.113 6.486 2.743 3.667-2.743 3.667-4.116-6.486-9.663 13.018 9.663 12.682 4.116-6.486 2.743 3.667-2.743 3.667 4.114 6.486-1.371 1.828 9.646 12.8z"/>
      <path d="M212.107 346.688l-1.371 3.667v6.486h-4.114l-2.743 1.83 2.743 1.827h4.114v6.486l1.371 3.667v-21.942z"/>
    </g>
    <g stroke-width="1pt" fill="#e69900">
      <path d="M47.646 34.74v-3.666l6.803-9.143-1.371-1.828 4.114-6.486L66.72 12.8l-2.743 3.667-1.371-1.829 9.6-12.8 1.37 1.829-1.37 1.829 2.826 3.694L70.806 0h2.797l-9.664 12.8-4.114-6.486-2.743 3.667 2.743 3.667-4.114 6.486 1.371 1.828-9.646 12.8zM47.646 0h8.229L63.03 1.83h-4.114v6.486l-1.372 3.667V.001z"/>
    </g>
    <g stroke-width="1pt" fill="#e69900">
      <path d="M212.103 34.74v-3.666l-6.803-9.143 1.372-1.828-4.116-6.486 1.372-1.828 2.743 3.667 1.371-1.829-9.6-12.8-1.371 1.829 1.371 1.829-2.827 3.694L188.844 0h-2.798l9.664 12.8 4.116-6.486 2.742 3.667-2.742 3.667 4.114 6.486-1.372 1.828 9.646 12.8zM212.103 0h-8.228l2.742 1.829h4.114v6.486l1.372 3.667V.001z"/>
    </g>
    <path d="M116.122 604.693s6.904-10.366 20.782-13.607c14.879-3.142 17.477 6.91 26.978 6.91 8.602 0 21.964-6.91 21.964-6.91s-13.462 13.193-23.863 12.879c-10.391-.314-13.934-6.91-24.661-6.968-10.628.942-20.31 6.91-20.31 6.696z" fill="#e69900"/>
    <path d="M144.846 604.693s-6.904-10.366-20.783-13.607c-14.878-3.142-17.476 6.91-26.978 6.91-8.602 0-21.963-6.91-21.963-6.91s13.461 13.193 23.862 12.879c10.392-.314 13.934-6.91 24.661-6.968 10.628.942 20.31 6.91 20.31 6.696z" fill="#e69900"/>
    <g stroke-width="1pt" fill="#e69900">
      <path d="M96.193 487.644c-1.31-2.743-4.686-14.71-2.839-16.206 2.62-.996 9.607 11.22 8.962 22.19-4.686 2.493-20.086-.998-19.868-4.24 1.092-4.487 9.826-2.99 13.766-1.744z"/>
      <path d="M86.824 477.086c-.867-3.044-2.208-16.664-.268-16.638 2.718-.264 7.663 13.622 6.324 24.176-4.872 1.177-19.6-6.606-18.784-9.616 1.763-4.09 10.076-.223 13.728 2.078z"/>
      <path d="M79.212 466.383c-.68-3.168-.8-16.893 1.214-16.662 2.722.178 6.397 14.738 3.136 24.847-4.943.398-18.782-9.644-17.796-12.62 2.116-3.783 10.026 1.373 13.447 4.236z"/>
      <path d="M73.21 462.922c-.206-3.24 1.067-16.867 3.126-16.112 2.668.738 4.606 16.882.208 26.196-4.929-.628-17.446-13.31-16.126-16.047 2.629-3.3 9.744 3.429 12.792 6.964z"/>
      <path d="M69.036 439.868c.146-3.246 2.766-16.6 4.827-16.346 2.661 1.241 2.848 16.6-2.607 24.973-4.81-1.666-16.832-16.613-14.23-18.968 2.868-2.781 9.274 6.269 11.91 9.341z"/>
      <path d="M70.2 426.014c-.364 12.998-2.716 13.16-7.029 3.643-1.908-3.63-2.144-18.704-.424-19.266 2.486-.061 7.386 10.699 7.464 16.723z"/>
    </g>
    <g stroke-width="1pt" fill="#e69900">
      <path d="M164.034 488.912c1.31-2.742 4.686-14.71 2.838-16.206-2.62-.997-9.606 11.22-8.962 22.19 4.686 2.492 20.086-.998 19.869-4.24-1.092-4.487-9.826-2.991-13.766-1.746z"/>
      <path d="M173.402 478.463c.867-3.044 2.209-16.664.269-16.637-2.719-.264-7.663 13.622-6.324 24.176 4.872 1.177 19.499-6.604 18.784-9.616-1.763-4.09-10.077-.223-13.729 2.078z"/>
      <path d="M181.014 466.762c.68-3.168.8-16.893-1.214-16.662-2.722.177-6.396 14.737-3.136 24.846 4.943.398 18.783-9.643 17.796-12.62-2.116-3.782-10.026 1.373-13.447 4.236z"/>
      <path d="M187.016 464.29c.207-3.24-1.067-16.866-3.124-16.111-2.668.738-4.606 16.882-.209 26.194 4.93-.628 17.446-13.31 16.126-16.046-2.628-3.3-9.744 3.428-12.792 6.963z"/>
      <path d="M191.19 441.236c-.144-3.246-2.764-16.499-4.827-16.346-2.66 1.24-2.847 16.699 2.608 24.973 4.81-1.666 16.831-16.613 14.229-18.968-2.868-2.782-9.274 6.268-11.91 9.34z"/>
      <path d="M190.026 426.383c.364 12.998 2.717 13.16 7.029 3.642 1.909-3.63 2.144-18.703.424-19.266-2.486-.062-7.386 10.698-7.463 16.723z"/>
    </g>
    <g transform="matrix(.99986 0 0 1.26616 188.276 -77.036)">
      <path d="M-3.643 290.66h-6.316v3.643h-6.316v3.643h-21.26l-3.643 3.644 1.771 1.771h8.868l1.772-1.771h-8.868l1.772-1.772h12.402l-6.316 6.316h-12.402l-3.644-1.772-3.643 1.771-12.402.001-6.316-6.317 12.402.002 1.771 1.772-8.868-.002 1.772 1.773h8.868l1.772-1.771-3.644-3.644h-19.488v-3.643h-6.316v-3.643h-6.316v-16.946h6.316v-3.643h6.316v-3.643h19.488l3.644-3.644-1.772-1.771h-8.868l-1.772 1.773 8.868-.002-1.771 1.772-12.402.002 6.316-6.317 12.402.001 3.643 1.771 3.644-1.772h12.402l6.316 6.316h-12.402l-1.772-1.772h8.868l-1.772-1.771h-8.868l-1.771 1.771 3.643 3.644h21.26v3.643h6.316v3.643h6.316v16.946z" transform="matrix(1.4884 0 0 1.24 3.602 -39.474)" stroke="#000" stroke-width=".133" fill="#980000"/>
      <path d="M376.69 499.67v24.803h10.629v7.019h10.63v7.087h36.433l14.174 10.63 14.173-10.63h38.976v-7.019l10.63-.068v-7.087h10.63v-24.803h-10.63v-7.086l-10.63.068v-7.166h-38.976l-14.173-10.63-14.174 10.63h-36.433v7.166h-10.63v7.086H376.69z" transform="matrix(.74419 0 0 .62 -392.03 -6.621)" stroke="#e69900" stroke-width="1.422" fill="#004e00"/>
      <path d="M-76.6 296.644l-16.822 10.984v-10.984H-76.6zM-43.97 296.644l16.822 10.986v-10.986H-43.97zM-76.6 326.208l-16.822-10.984v10.984H-76.6zM-43.966 326.208l16.82-10.986v10.986h-16.82zM-38.689 303.233l-6.273 4.394h10.647l-6.274-4.394zM-80.877 303.233l-6.273 4.394h10.647l-6.274-4.394zM-80.877 318.622l-6.273-4.394h10.647l-6.274 4.394zM-38.687 318.622l-6.273-4.394h10.647l-6.274 4.394z" fill="#980000"/>
      <path d="M-69.787 329.602l-6.273-4.394h10.647l-6.274 4.394zM-69.787 307.632l-6.273-4.394h10.647l-6.274 4.394zM-69.787 292.249l-6.273 4.394h10.647l-6.274-4.394zM-69.787 314.217l-6.273 4.394h10.647l-6.274-4.394z" fill="#e69900"/>
      <path transform="matrix(.74419 0 0 .62 -392.03 -6.621)" stroke="#000" stroke-width=".133" fill="#e69900" d="M467.72 606.69h14.173v3.643H467.72z"/>
      <path transform="matrix(.74419 0 0 .62 -392.03 -6.621)" stroke="#000" stroke-width=".133" fill="#c00" d="M414.67 610.24h7.087v3.643h-7.087zM471.26 610.24h7.087v3.643h-7.087z"/>
      <path transform="matrix(.74419 0 0 .62 -392.03 -6.621)" stroke="#000" stroke-width=".133" fill="#900" d="M439.37 488.98h14.173v3.643H439.37zM439.37 496.06h14.173v3.643H439.37z"/>
      <path transform="matrix(.74419 0 0 .62 -392.03 -6.621)" stroke="#000" stroke-width=".133" fill="#900" d="M436.83 492.62h21.26v3.643h-21.26zM439.37 624.41h14.173v3.643H439.37zM439.37 631.6h14.173v3.643H439.37z"/>
      <path transform="matrix(.74419 0 0 .62 -392.03 -6.621)" stroke="#000" stroke-width=".133" fill="#900" d="M436.83 627.96h21.26v3.643h-21.26z"/>
      <path transform="matrix(.74419 0 0 .62 -392.03 -6.621)" stroke="#000" stroke-width=".133" fill="#e69900" d="M467.72 613.78h14.173v3.643H467.72zM411.02 606.69h14.173v3.643H411.02zM411.02 613.78h14.173v3.643H411.02z"/>
      <path transform="matrix(.74419 0 0 .62 -392.03 -6.621)" stroke="#000" stroke-width=".133" fill="#e69900" d="M407.48 610.24h7.087v3.643h-7.087zM421.66 610.24h7.087v3.643h-7.087zM464.17 610.24h7.087v3.643h-7.087zM478.36 610.24h7.087v3.643h-7.087z"/>
      <ellipse fill="#fff" transform="matrix(.74419 0 0 .62 -374.14 -38.912)" cx="413.68" rx=".886" cy="681.99" ry=".886"/>
      <ellipse fill="#fff" transform="matrix(.74419 0 0 .62 -367.67 -38.912)" cx="413.68" rx=".886" cy="681.99" ry=".886"/>
      <ellipse fill="#fff" transform="matrix(.74419 0 0 .62 -361 -38.968)" cx="413.68" rx=".886" cy="681.99" ry=".886"/>
      <ellipse fill="#fff" transform="matrix(.74419 0 0 .62 -371.61 -41.102)" cx="413.68" rx=".886" cy="681.99" ry=".886"/>
      <ellipse fill="#fff" transform="matrix(.74419 0 0 .62 -363.68 -41.148)" cx="413.68" rx=".886" cy="681.99" ry=".886"/>
      <ellipse fill="#fff" transform="matrix(.74419 0 0 .62 -371.67 -36.768)" cx="413.68" rx=".886" cy="681.99" ry=".886"/>
      <ellipse fill="#fff" transform="matrix(.74419 0 0 .62 -363.68 -36.677)" cx="413.68" rx=".886" cy="681.99" ry=".886"/>
      <ellipse fill="#fff" transform="matrix(.74419 0 0 .62 -363.17 -49.999)" cx="413.68" rx=".886" cy="681.99" ry=".886"/>
      <ellipse fill="#fff" transform="matrix(.74419 0 0 .62 -346.69 -49.999)" cx="413.68" rx=".886" cy="681.99" ry=".886"/>
      <ellipse fill="#fff" transform="matrix(.74419 0 0 .62 -340.02 -60.046)" cx="413.68" rx=".886" cy="681.99" ry=".886"/>
      <ellipse fill="#fff" transform="matrix(.74419 0 0 .62 -360.64 -62.189)" cx="413.68" rx=".886" cy="681.99" ry=".886"/>
      <ellipse fill="#fff" transform="matrix(.74419 0 0 .62 -342.71 -62.236)" cx="413.68" rx=".886" cy="681.99" ry=".886"/>
      <ellipse fill="#fff" transform="matrix(.74419 0 0 .62 -360.69 -47.866)" cx="413.68" rx=".886" cy="681.99" ry=".886"/>
      <ellipse fill="#fff" transform="matrix(.74419 0 0 .62 -342.71 -47.764)" cx="413.68" rx=".886" cy="681.99" ry=".886"/>
      <ellipse fill="#fff" transform="matrix(.74419 0 0 .62 -374.2 -60.904)" cx="413.68" rx=".886" cy="681.99" ry=".886"/>
      <ellipse fill="#fff" transform="matrix(.74419 0 0 .62 -367.62 -60.904)" cx="413.68" rx=".886" cy="681.99" ry=".886"/>
      <ellipse fill="#fff" transform="matrix(.74419 0 0 .62 -361.06 -60.949)" cx="413.68" rx=".886" cy="681.99" ry=".886"/>
      <ellipse fill="#fff" transform="matrix(.74419 0 0 .62 -371.67 -63.094)" cx="413.68" rx=".886" cy="681.99" ry=".886"/>
      <ellipse fill="#fff" transform="matrix(.74419 0 0 .62 -363.74 -63.139)" cx="413.68" rx=".886" cy="681.99" ry=".886"/>
      <ellipse fill="#fff" transform="matrix(.74419 0 0 .62 -371.62 -68.769)" cx="413.68" rx=".886" cy="681.99" ry=".886"/>
      <ellipse fill="#fff" transform="matrix(.74419 0 0 .62 -363.74 -68.668)" cx="413.68" rx=".886" cy="681.99" ry=".886"/>
      <ellipse fill="#fff" transform="matrix(.74419 0 0 .62 -396.28 -49.817)" cx="413.68" rx=".886" cy="681.99" ry=".886"/>
      <ellipse fill="#fff" transform="matrix(.74419 0 0 .62 -388.71 -49.817)" cx="413.68" rx=".886" cy="681.99" ry=".886"/>
      <ellipse fill="#fff" transform="matrix(.74419 0 0 .62 -382.14 -49.862)" cx="413.68" rx=".886" cy="681.99" ry=".886"/>
      <ellipse fill="#fff" transform="matrix(.74419 0 0 .62 -392.66 -62.007)" cx="413.68" rx=".886" cy="681.99" ry=".886"/>
      <ellipse fill="#fff" transform="matrix(.74419 0 0 .62 -384.82 -62.062)" cx="413.68" rx=".886" cy="681.99" ry=".886"/>
      <ellipse fill="#fff" transform="matrix(.74419 0 0 .62 -392.71 -47.672)" cx="413.68" rx=".886" cy="681.99" ry=".886"/>
      <ellipse fill="#fff" transform="matrix(.74419 0 0 .62 -384.82 -47.681)" cx="413.68" rx=".886" cy="681.99" ry=".886"/>
    </g>
    <path d="M138.896 266.766l4.636-2.126 4.636 2.126h-9.07zM126.291 266.766l4.636-2.126 4.634 2.126h-9.069zM111.687 266.766l4.636-2.126 4.634 2.126h-9.07zM138.896 206.886l4.636 2.126 4.636-2.126h-9.07zM126.291 206.886l4.636 2.126 4.634-2.126h-9.069zM111.687 206.886l4.636 2.126 4.634-2.126h-9.07z" fill="#fff"/>
    <path d="M136.116 262.133l-6.29 4.26-6.292-4.26-6.29 4.26-6.29-4.26v2.124l3.626 2.127-1.763 2.124v2.126h1.763l1.764-2.126 1.763 2.126h1.764v-2.126l-1.764-2.124 3.627-2.126 3.628 2.126-1.764 2.124v2.126h1.764l1.763-2.126 1.763 2.126h1.764v-2.126l-1.764-2.124 3.628-2.126 3.627 2.126-1.764 2.126v2.126h1.764l1.763-2.126 1.764 2.126h1.764v-2.126l-1.764-2.126 3.627-2.126v-2.124l-6.29 4.26-6.291-4.26zM136.116 200.497l-6.29-4.26-6.292 4.26-6.29-4.26-6.29 4.26v-2.124l3.627-2.127-1.764-2.124v-2.126h1.764l1.763 2.126 1.763-2.126h1.764v2.126l-1.764 2.124 3.627 2.126 3.628-2.126-1.764-2.124v-2.126h1.764l1.763 2.126 1.763-2.126h1.764v2.126l-1.764 2.124 3.628 2.126 3.627-2.126-1.764-2.126v-2.126h1.764l1.764 2.126 1.763-2.126h1.764v2.126l-1.764 2.126 3.627 2.126v2.124l-6.29-4.26-6.291 4.26zM176.187 236.92l6.669-4.604-6.67-4.606 6.67-4.604-6.67-4.604h2.834l2.836 3.07 2.833-1.636h2.834v1.636l-2.834 1.636 2.834 1.636v1.636h-2.834l-2.833-1.636-2.836 3.07 2.836 3.07 2.833-1.636h2.834v1.636l-2.834 1.636 2.834 1.636v1.636h-2.834l-2.833-1.636-2.836 3.07 2.833 3.07 2.836-1.636h2.834v1.636l-2.834 1.634 2.834 1.636v1.636h-2.834l-2.836-1.636-2.834 3.07h-2.833l6.667-4.606-6.667-4.604zM84.47 236.92l-6.67-4.604 6.67-4.606-6.67-4.604 6.67-4.604h-2.834l-2.836 3.07-2.833-1.636h-2.836v1.636l2.836 1.636-2.836 1.636v1.636h2.836l2.833-1.636 2.836 3.07-2.836 3.07-2.833-1.636h-2.836v1.636l2.836 1.636-2.836 1.636v1.636h2.836l2.833-1.636 2.836 3.07-2.833 3.07-2.836-1.636h-2.836v1.636l2.836 1.634-2.836 1.636v1.636h2.836l2.836-1.636 2.834 3.07h2.833l-6.667-4.606 6.667-4.604z" fill="#004e00"/>
    <path transform="matrix(1.2798 0 0 1.1996 211.46 -6.633)" stroke="#000" stroke-width=".267" fill="#004e00" d="M-26.676 214.37h1.772v1.772h-1.772z"/>
    <path transform="matrix(1.2798 0 0 1.1996 211.46 -6.633)" stroke="#000" stroke-width=".267" fill="#004e00" d="M-28.346 216.14h1.772v1.772h-1.772zM-37.206 226h1.772v1.772h-1.772zM-36.433 223.23h1.772v1.772h-1.772zM-93.898 223.23h1.772v1.772h-1.772zM-102.76 214.37h1.772v1.772h-1.772zM-100.98 216.14h1.772v1.772h-1.772zM-100.98 177.17h1.772v1.772h-1.772zM-102.76 178.94h1.772v1.772h-1.772zM-92.126 168.31h1.772v1.772h-1.772z"/>
    <path transform="matrix(1.2798 0 0 1.1996 211.46 -6.633)" stroke="#000" stroke-width=".267" fill="#004e00" d="M-93.898 170.08h1.772v1.772h-1.772zM-37.206 168.31h1.772v1.772h-1.772zM-36.433 170.08h1.772v1.772h-1.772zM-28.346 177.17h1.772v1.772h-1.772z"/>
    <path transform="matrix(1.2798 0 0 1.1996 211.46 -6.633)" stroke="#000" stroke-width=".267" fill="#004e00" d="M-26.676 178.94h1.772v1.772h-1.772zM-92.126 226h1.772v1.772h-1.772z"/>
    <path d="M122.907 231.314l-6.683-.001-.001-4.177 4.466.003v-3.917h4.467v-3.696h4.466v4.496c-3.69 0-6.686 3.046-6.686 7.193z" fill="#fff"/>
    <path d="M136.274 231.314l6.683-.001.001-4.177-4.466.003v-3.917h-4.467v-3.696h-4.466v4.496c3.69 0 6.686 3.046 6.686 7.193z" fill="#e69900"/>
    <path d="M136.274 231.314h6.683l.001 4.177-4.466-.002v3.916h-4.467v3.697h-4.466v-4.496c3.69 0 6.686-3.046 6.686-7.192z" fill="#fff"/>
    <path d="M122.907 231.314h-6.683l-.001 4.177 4.466-.002v3.916h4.467v3.697h4.466v-4.496c-3.69 0-6.686-3.046-6.686-7.192z" fill="#e69900"/>
    <path d="M136.273 231.317h-6.684v-7.193c3.69 0 6.684 3.223 6.684 7.193z" fill="#004e00"/>
    <path d="M136.273 231.31h-6.684v7.193c3.69 0 6.684-3.222 6.684-7.192z" fill="#980000"/>
    <path d="M122.908 231.31h6.684v7.193c-3.69 0-6.684-3.222-6.684-7.192z" fill="#004e00"/>
    <path d="M122.908 231.317h6.684v-7.193c-3.69 0-6.684 3.223-6.684 7.193z" fill="#980000"/>
    <path d="M136.627 267.876l-6.802-4.261-6.802 4.26-6.802-4.26-6.802 4.26v-2.124l4.636-2.126-2.268-2.126v-2.126h2.268l2.267 2.126 2.267-2.126h2.268v2.126l-2.268 2.126 4.636 2.126 4.636-2.126-2.268-2.126v-2.126h2.268l2.267 2.126 2.267-2.126h2.268v2.126l-2.268 2.126 4.636 2.126 4.636-2.124-2.267-2.126v-2.126h2.267l2.267 2.126 2.267-2.126h2.268v2.126l-2.268 2.126 4.636 2.126v2.126l-6.802-4.26-6.802 4.26zM136.627 204.767l-6.802 4.26-6.802-4.26-6.802 4.26-6.802-4.26v2.124l4.636 2.127-2.268 2.124v2.126h2.268l2.267-2.126 2.267 2.126h2.268v-2.126l-2.268-2.124 4.636-2.126 4.636 2.126-2.268 2.124v2.126h2.268l2.267-2.126 2.267 2.126h2.268v-2.126l-2.268-2.124 4.636-2.126 4.636 2.126-2.267 2.126v2.126h2.267l2.267-2.126 2.267 2.126h2.268v-2.126l-2.268-2.126 4.636-2.126v-2.124l-6.802 4.26-6.802-4.26zM161.662 236.626l-3.402-6.313 3.402-6.313-3.402-6.313 3.402-6.312h-1.7l-1.702 3.642-1.7-1.772h-1.701v1.772l1.7 1.77-1.7 1.771v1.771h1.7l1.7-1.77 1.702 3.641-1.701 3.642-1.7-1.77h-1.701v1.77l1.7 1.771-1.7 1.77v1.772h1.7l1.7-1.771 1.702 3.642-1.7 3.642-1.701-1.771h-1.701v1.771l1.7 1.771-1.7 1.77v1.772h1.7l1.702-1.771 1.7 3.642h1.7l-3.4-6.313 3.4-6.313z" fill="#004e00"/>
    <path d="M-100.98 177.17l-7.087 7.086v26.676l7.087 7.087h31.889l7.087-7.087v-26.676l-7.087-7.086h-31.889zm-1.772-6.316l-17.717 17.716v16.946l17.717 17.717h36.433l17.716-17.717V189.67l-17.716-17.716h-36.433z" transform="matrix(1.2798 0 0 1.1996 238.66 -6.632)" stroke="#000" stroke-width=".427" fill="#004e00"/>
    <path d="M-93.898 147.06l3.643 6.316 3.644-6.316h-7.087z" transform="matrix(1.02384 0 0 .79966 216.078 140.296)" stroke="#000" stroke-width=".267" fill="#e69900"/>
    <path d="M-93.898 147.06l3.643 6.316 3.644-6.316h-7.087z" transform="matrix(1.02384 0 0 -.79966 216.078 322.344)" stroke="#000" stroke-width=".267" fill="#e69900"/>
    <path d="M-93.898 147.06l3.643 6.316 3.644-6.316h-7.087z" transform="matrix(1.02384 0 0 -.79966 229.69 322.344)" stroke="#000" stroke-width=".267" fill="#e69900"/>
    <path d="M-93.898 147.06l3.643 6.316 3.644-6.316h-7.087z" transform="matrix(1.02384 0 0 .79966 229.69 140.296)" stroke="#000" stroke-width=".267" fill="#e69900"/>
    <path d="M-93.898 147.06l3.643 6.316 3.644-6.316h-7.087z" transform="matrix(1.02384 0 0 -.79966 207.823 322.344)" stroke="#000" stroke-width=".267" fill="#980000"/>
    <path d="M-93.898 147.06l3.643 6.316 3.644-6.316h-7.087z" transform="matrix(1.02384 0 0 -.79966 222.334 322.344)" stroke="#000" stroke-width=".267" fill="#980000"/>
    <path d="M-93.898 147.06l3.643 6.316 3.644-6.316h-7.087z" transform="matrix(1.02384 0 0 -.79966 236.846 322.344)" stroke="#000" stroke-width=".267" fill="#980000"/>
    <path d="M-104.63 180.71l3.644-3.644h-3.644v3.644z" transform="matrix(1.9196 0 0 -1.7991 303.262 676.628)" stroke="#000" stroke-width=".267" fill="#980000"/>
    <path d="M98.084 236.626l3.402-6.313L98.084 226l3.402-6.313-3.402-6.312h1.7l1.702 3.642 1.7-1.772h1.7v1.772l-1.7 1.77 1.7 1.771v1.771h-1.7l-1.7-1.77L99.786 226l1.7 3.642 1.7-1.77h1.701v1.77l-1.7 1.771 1.7 1.77v1.772h-1.7l-1.7-1.771-1.701 3.642 1.7 3.642 1.7-1.771h1.701v1.771l-1.7 1.771 1.7 1.77v1.772h-1.7l-1.701-1.771-1.701 3.642h-1.7l3.4-6.313-3.4-6.313z" fill="#004e00"/>
    <path d="M-76.181 164.13h7.087l1.771 1.772-1.771 1.771h-7.087v-3.643z" transform="matrix(1.2798 0 0 1.07968 261.333 69.18)" stroke="#000" stroke-width=".267" fill="#980000"/>
    <path d="M-99.213 180.71l-3.643 3.644v26.676l3.643 3.643h-6.316l.001-33.662h6.316z" transform="matrix(1.2798 0 0 1.1996 229.69 -6.632)" stroke="#000" stroke-width=".4" fill="#980000"/>
    <path d="M-93.898 147.06l3.643 6.316 3.644-6.316h-7.087z" transform="matrix(1.02384 0 0 .79966 207.823 140.296)" stroke="#000" stroke-width=".267" fill="#980000"/>
    <path d="M-93.898 147.06l3.643 6.316 3.644-6.316h-7.087z" transform="matrix(1.02384 0 0 .79966 222.334 140.296)" stroke="#000" stroke-width=".267" fill="#980000"/>
    <path d="M-93.898 147.06l3.643 6.316 3.644-6.316h-7.087z" transform="matrix(1.02384 0 0 .79966 236.846 140.296)" stroke="#000" stroke-width=".267" fill="#980000"/>
    <path d="M-99.212 180.71l-3.644 3.644v26.676l3.644 3.643h-6.316V180.71h6.316z" transform="matrix(-1.2798 0 0 1.1996 30.066 -6.632)" stroke="#000" stroke-width=".4" fill="#980000"/>
    <path d="M-104.63 180.71l3.644-3.644h-3.644v3.644z" transform="matrix(-1.9196 0 0 -1.7991 -43.617 676.628)" stroke="#000" stroke-width=".267" fill="#980000"/>
    <path d="M-104.63 180.71l3.644-3.644h-3.644v3.644z" transform="matrix(-1.9196 0 0 1.7991 -43.617 -113.993)" stroke="#000" stroke-width=".267" fill="#980000"/>
    <path d="M-104.63 180.71l3.644-3.644h-3.644v3.644z" transform="matrix(1.9196 0 0 1.7991 303.262 -113.993)" stroke="#000" stroke-width=".267" fill="#980000"/>
    <path d="M-100.98 177.17l-7.087 7.086v26.676l7.087 7.087h31.889l7.087-7.087v-26.676l-7.087-7.086h-31.889zm-.001-1.773l-8.868 8.868v26.676l8.869 8.868h31.889l8.868-8.868v-26.676l-8.869-8.868h-31.889z" transform="matrix(1.2798 0 0 1.1996 238.66 -6.632)" stroke="#000" stroke-width=".427" fill="#004e00"/>
    <path d="M-76.181 164.13h7.087l1.771 1.772-1.771 1.771h-7.087v-3.643z" transform="matrix(1.2798 0 0 1.07966 261.332 62.992)" stroke="#000" stroke-width=".267" fill="#e69900"/>
    <path d="M-76.181 164.13h7.087l1.771 1.772-1.771 1.771h-7.087v-3.643z" transform="matrix(1.2798 0 0 1.07968 261.333 66.83)" stroke="#000" stroke-width=".267" fill="#980000"/>
    <path d="M-76.181 164.13h7.087l1.771 1.772-1.771 1.771h-7.087v-3.643z" transform="matrix(1.2798 0 0 1.07966 261.333 70.642)" stroke="#000" stroke-width=".267" fill="#e69900"/>
    <path d="M-76.181 164.13h7.087l1.771 1.772-1.771 1.771h-7.087v-3.643z" transform="matrix(1.2798 0 0 1.07966 261.333 66.341)" stroke="#000" stroke-width=".267" fill="#e69900"/>
    <path d="M-76.181 164.13h7.087l1.771 1.772-1.771 1.771h-7.087v-3.643z" transform="matrix(-1.2798 0 0 1.07968 -1.682 69.18)" stroke="#000" stroke-width=".267" fill="#980000"/>
    <path d="M-76.181 164.13h7.087l1.771 1.772-1.771 1.771h-7.087v-3.643z" transform="matrix(-1.2798 0 0 1.07966 -1.682 62.993)" stroke="#000" stroke-width=".267" fill="#e69900"/>
    <path d="M-76.181 164.13h7.087l1.771 1.772-1.771 1.771h-7.087v-3.643z" transform="matrix(-1.2798 0 0 1.07968 -1.682 66.83)" stroke="#000" stroke-width=".267" fill="#980000"/>
    <path d="M-76.181 164.13h7.087l1.771 1.772-1.771 1.771h-7.087v-3.643z" transform="matrix(-1.2798 0 0 1.07966 -1.682 70.643)" stroke="#000" stroke-width=".267" fill="#e69900"/>
    <path d="M-76.181 164.13h7.087l1.771 1.772-1.771 1.771h-7.087v-3.643z" transform="matrix(-1.2798 0 0 1.07966 -1.682 66.343)" stroke="#000" stroke-width=".267" fill="#e69900"/>
    <path d="M-100.98 178.94v37.206h8.868v8.868h66.693v-8.868h8.868V178.94h-8.868v-8.868h-66.693v8.868h-8.868zm1.771 1.772v33.661h8.869v8.868h63.16v-8.868h8.868v-33.661H-37.2v-8.869h-63.16v8.869h-8.869z" transform="matrix(1.2798 0 0 1.1996 211.46 -6.633)" stroke="#000" stroke-width=".267" fill="#970000"/>
    <g>
      <path d="M-28.347 69.094l-6.316-7.087v-6.316l-6.316-6.314h-10.63l-8.868-6.316h-28.346l-8.869 6.316h-10.63l-6.316 6.316v6.316l-6.316 7.086v14.173l6.316 7.087v6.316l6.316 6.316h10.63l8.869 6.316h28.346l8.868-6.316h10.63l6.316-6.314v-6.316l6.316-7.087V69.093z" transform="matrix(1.2798 0 0 1.1636 222.786 -36.677)" stroke="#000" stroke-width=".267" fill="#980000"/>
      <path d="M76.427 61.199v6.13l6.802 8.174v6.13l6.802 6.131h13.604l11.337 6.131h16.872l-.002-32.696H76.427z" fill="#e69900"/>
      <path d="M110.69 66.498l-8.281 6.266h-4.947l1.66 1.761-3.298 3.604 1.648 1.761 4.947-1.761 1.649 1.761.762-4.68 9.131-6.64-3.26-2.041z" fill="#980000"/>
      <path d="M101.626 61.411l-8.281 6.266h-4.947l1.66 1.761-3.298 3.604 1.648 1.762 4.947-1.762 1.649 1.762.762-4.68 9.132-6.641-3.262-2.04zM97.087 63.241l-8.282 6.266H83.86l1.649 1.761-3.298 3.604 1.649 1.762 4.946-1.762 1.66 1.762.761-4.68 9.132-6.641-3.26-2.04z" fill="#980000"/>
      <path d="M184.224 61.199v-6.131l-6.802-8.174v-6.13l-6.802-6.131h-13.604l-11.337-6.13h-16.872l.002 32.696h64.416z" fill="#e69900"/>
      <path d="M129.83 83.894h-4.198l-4.87-4.087h-7.726l-4.199-2.044 2.1-2.043 4.198 2.043h4.199l4.198-6.13 6.298 2.043v4.087h-6.298l6.298 6.13z" fill="#980000"/>
      <path d="M76.427 61.199v-6.131l6.802-8.174v-6.13l6.802-6.131h13.604l11.337-6.13h16.872l-.002 32.696H76.427z" fill="#fff"/>
      <path d="M129.83 18.499h-4.198l-4.87 4.087h-7.726l-4.199 2.043 2.1 2.044 4.198-2.044h4.199l4.198 6.131 6.298-2.044V24.63h-6.298l6.298-6.13z" fill="#980000"/>
      <path d="M129.826 18.499h4.199l4.87 4.087h7.726l4.198 2.043-2.099 2.044-4.199-2.044h-4.198l-4.199 6.131-6.298-2.044V24.63h6.298l-6.298-6.13z" fill="#980000"/>
      <path d="M184.224 61.199v6.13l-6.802 8.174v6.13l-6.802 6.131h-13.604l-11.337 6.131h-16.872l.002-32.696h64.416z" fill="#fff"/>
      <path d="M129.826 83.894h4.199l4.87-4.087h7.726l4.198-2.044-2.099-2.043-4.199 2.043h-4.198l-4.199-6.13-6.298 2.043v4.087h6.298l-6.298 6.13zM101.626 40.978l-8.281-6.266h-4.947l1.66-1.761-3.298-3.604 1.648-1.762 4.947 1.762 1.649-1.762.762 4.68 9.132 6.641-3.262 2.04zM148.96 36.896l8.282-6.266h4.947l-1.66-1.76 3.298-3.604-1.648-1.762-4.947 1.762-1.649-1.762-.762 4.68-9.131 6.64 3.26 2.042z" fill="#980000"/>
      <path d="M110.69 36.896l-8.281-6.266h-4.947l1.66-1.76-3.298-3.604 1.648-1.762 4.947 1.762 1.649-1.762.762 4.68 9.131 6.64-3.26 2.042zM97.087 49.166l-8.282-6.266H83.86l1.649-1.761-3.298-3.604 1.649-1.762 4.946 1.762 1.66-1.762.761 4.681 9.132 6.64-3.26 2.041z" fill="#980000"/>
      <path d="M79.463 61.209h2.1l2.1 2.043 2.1-2.043 44.086-.002V79.82h-2.099l2.1 2.044v2.043l-6.298-6.13v-2.044h2.099v2.044h2.1v-2.044l-17.047-9.026h-14.36v-8.867l-6.382-4.697h-4.199l-2.1 2.043 2.1 2.046h-2.1l-4.199-6.131z" fill="#fff"/>
      <path d="M79.463 61.188h2.1l2.1-2.043 2.1 2.043 44.086.002V22.678h-2.099l2.1-2.044V18.49l-6.298 6.13v2.044h2.099v-2.043h2.1v2.043l-17.047 9.026h-14.36v8.867l-6.382 4.697h-4.199l-2.1-2.043 2.1-2.044h-2.1l-4.199 6.13z" fill="#e69900"/>
      <path d="M89.026 61.187h40.811V76.71l-18.138-10.218H98.096v-8.174l-9.07-6.131z" fill="#004e00"/>
      <path d="M168.026 40.978l8.281-6.266h4.947l-1.66-1.761 3.298-3.604-1.648-1.762-4.947 1.762-1.649-1.762-.762 4.68-9.132 6.641 3.262 2.04zM162.664 49.166l8.282-6.266h4.946l-1.649-1.761 3.298-3.604-1.649-1.762-4.946 1.762-1.66-1.762-.761 4.681-9.132 6.64 3.26 2.041z" fill="#980000"/>
      <path d="M180.198 61.188h-2.1l-2.1-2.043-2.1 2.043-44.086.002V22.678h2.099l-2.1-2.044V18.49l6.298 6.13v2.044h-2.099v-2.043h-2.1v2.043l17.047 9.026h14.36v8.867l6.382 4.697h4.199l2.1-2.043-2.1-2.044h2.1l4.199 6.13z" fill="#fff"/>
      <path d="M170.626 61.21h-40.811V26.687l18.138 10.218h13.603v8.174l9.07 6.131z" fill="#004e00"/>
      <path d="M148.96 66.498l8.282 6.266h4.947l-1.66 1.761 3.298 3.604-1.648 1.761-4.947-1.761-1.649 1.761-.762-4.68-9.131-6.64 3.26-2.041z" fill="#980000"/>
      <path d="M168.026 61.411l8.281 6.266h4.947l-1.66 1.761 3.298 3.604-1.648 1.762-4.947-1.762-1.649 1.762-.762-4.68-9.132-6.641 3.262-2.04zM162.664 63.241l8.282 6.266h4.946l-1.649 1.761 3.298 3.604-1.649 1.762-4.946-1.762-1.66 1.762-.761-4.68-9.132-6.641 3.26-2.04z" fill="#980000"/>
      <path d="M180.198 61.209h-2.1l-2.1 2.043-2.1-2.043-44.086-.002V79.82h2.099l-2.1 2.044v2.043l6.298-6.13v-2.044h-2.099v2.044h-2.1v-2.044l17.047-9.026h14.36v-8.867l6.382-4.697h4.199l2.1 2.043-2.1 2.046h2.1l4.199-6.131z" fill="#e69900"/>
      <path d="M170.626 61.187h-40.811V76.71l18.138-10.218h13.603v-8.174l9.07-6.131z" fill="#980000"/>
      <path d="M89.026 61.21h40.811V26.687l-18.138 10.218H98.096v8.174l-9.07 6.131z" fill="#980000"/>
      <path d="M134.306 61.198l11.388-6.131h6.802l-2.268-2.043 4.636-4.088-2.267-2.043-6.802 2.043-2.268-2.043-1.047 6.46-12.667 6.464 4.484 2.381zM126.346 61.187l-11.388 6.132h-6.802l2.268 2.043-4.636 4.087 2.267 2.044 6.802-2.044 2.268 2.044 1.047-6.46 12.667-6.466-4.484-2.38z" fill="#980000"/>
      <path d="M126.346 61.198l-11.388-6.131h-6.802l2.268-2.043-4.636-4.088 2.267-2.043 6.802 2.043 2.268-2.043 1.047 6.46 12.667 6.464-4.484 2.381zM134.306 61.187l11.388 6.132h6.802l-2.268 2.043 4.636 4.087-2.267 2.044-6.802-2.044-2.268 2.044-1.047-6.46-12.667-6.466 4.484-2.38z" fill="#004e00"/>
      <path d="M116.223 61.2l13.603-10.219L143.431 61.2l-13.606 10.218L116.223 61.2z" fill="#fff"/>
      <path d="M86.742 66.282l2.1 2.043-2.1 2.044h-2.1l-6.298-8.174h2.1l4.198 6.13h2.1l-2.1-2.043 2.1-2.044h4.198v2.044h-4.198z" fill="#980000"/>
      <path d="M86.742 47.109l2.1-2.043-2.1-2.044h-2.1l-6.298 8.174h2.1l4.198-6.13h2.1l-2.1 2.043 2.1 2.044h4.198v-2.044h-4.198zM173.913 66.282l-2.1 2.043 2.1 2.044h2.1l6.297-8.174h-2.1l-4.198 6.13h-2.1l2.1-2.043-2.1-2.044h-4.198v2.044h4.199z" fill="#980000"/>
      <path d="M173.913 47.109l-2.1-2.043 2.1-2.044h2.1l6.297 8.174h-2.1l-4.198-6.13h-2.1l2.1 2.043-2.1 2.044h-4.198v-2.044h4.199zM127.727 43.022h4.198V69.37h-4.198z" fill="#980000"/>
      <path fill="#980000" d="M121.429 47.11h16.794v8.174H121.43z"/>
    </g>
    <g>
      <path d="M333.07 170.08l-10.63 6.316v8.868l10.63 6.316h10.63l10.63-6.316v-8.868l-10.63-6.316h-10.63z" transform="matrix(3.666 0 0 3.847 -1073.167 -292.234)" stroke="#000" stroke-width=".07" fill="#004e00"/>
      <path d="M87.169 396.271h2.286v-4.19h4.672v4.19h2.286v-9.778h-2.286v4.19h-4.672v-4.19h-2.286v9.778zM146.07 428.866h2.286v-4.191h4.672v4.19h2.286v-9.778h-2.286v4.191h-4.672v-4.19h-2.286v9.778zM108.602 379.974h2.286v-4.19h4.673v4.19h2.286v-9.778h-2.286v4.19h-4.673v-4.19h-2.286v9.778zM142.026 379.974h2.286v-4.19h4.673v4.19h2.286v-9.778h-2.286v4.19h-4.673v-4.19h-2.286v9.778zM163.348 396.271h2.286v-4.19h4.673v4.19h2.286v-9.778h-2.286v4.19h-4.673v-4.19h-2.286v9.778zM163.348 412.668h2.286v-4.191h4.673v4.191h2.286v-9.779h-2.286v4.191h-4.673v-4.19h-2.286v9.778z" fill="#c00"/>
      <path d="M129.827 436.389v-36.866h64.866v16.298l-36.67 19.667h-18.286zM129.828 363.673v36.866H74.972V383.23l36.67-19.668h18.286z" fill="#e69900"/>
      <path d="M129.827 363.673v36.866h64.866V383.23l-36.67-19.668h-18.286zM129.828 436.389l-.001-36.864-64.866-.001v16.298l36.67 19.667h18.286z" fill="#fff"/>
      <path d="M-177.16 368.6h21.269l-21.269-10.63v10.63zm24.803-1.772l-.001 17.717h-33.661v-14.173h-7.086l-8.868-6.316v-12.402l6.314-6.316h-7.086v17.717h-1.772v-19.489h17.717l36.433 21.26z" transform="matrix(1.0321 0 0 .92 341.934 46.873)" stroke="#000" stroke-width=".133" fill="#e69900"/>
      <path d="M111.61 388.116v22.814h6.484l12.802 6.62 12.8-6.62h6.486v-22.814h-6.484l-12.801-6.62-12.802 6.62h-6.484z" fill="#980000"/>
      <path d="M-177.16 368.6h21.269l-21.269-10.63v10.63zm24.803-1.772l-.001 17.717h-33.661v-14.173h-7.086l-8.868-6.316v-12.402l6.314-6.316h-7.086v17.717h-1.772v-19.489h17.717l36.433 21.26z" transform="matrix(-1.0321 0 0 -.92 -82.279 763.19)" stroke="#000" stroke-width=".133" fill="#e69900"/>
      <path d="M-177.16 368.6h21.269l-21.269-10.63v10.63zm24.803-1.772l-.001 17.717h-33.661v-14.173h-7.086l-8.868-6.316v-12.402l6.314-6.316h-7.086v17.717h-1.772v-19.489h17.717l36.433 21.26z" transform="matrix(-1.0321 0 0 .92 -82.279 46.873)" stroke="#000" stroke-width=".133" fill="#fff"/>
      <path d="M-177.16 368.6h21.269l-21.269-10.63v10.63zm24.803-1.772l-.001 17.717h-33.661v-14.173h-7.086l-8.868-6.316v-12.402l6.314-6.316h-7.086v17.717h-1.772v-19.489h17.717l36.433 21.26z" transform="matrix(1.0321 0 0 -.92 341.936 763.19)" stroke="#000" stroke-width=".133" fill="#fff"/>
      <path d="M86.961 412.678h2.286v-4.89h4.673v4.89h2.286V401.17h-2.286v4.89h-4.673v-4.89h-2.286v11.408zM107.883 428.876h2.286v-4.89h4.673v4.89h2.286v-11.409h-2.286v4.89h-4.673v-4.89h-2.286v11.409zM86.961 386.497h2.286v4.89h4.673v-4.89h2.286v11.408h-2.286v-4.89h-4.673v4.89h-2.286v-11.408zM107.883 370.198h2.286v4.89h4.673v-4.89h2.286v11.408h-2.286v-4.89h-4.673v4.89h-2.286v-11.408zM142.634 428.876h2.286v-4.89h4.673v4.89h2.286v-11.409h-2.286v4.89h-4.673v-4.89h-2.286v11.409zM164.676 397.902h2.286v-4.89h4.673v4.89h2.286v-11.409h-2.286v4.89h-4.673v-4.89h-2.286v11.409z" fill="#980000"/>
      <path d="M142.634 428.876h2.286v-4.89h4.673v4.89h2.286v-11.409h-2.286v4.89h-4.673v-4.89h-2.286v11.409z" fill="#980000"/>
      <path d="M142.634 428.876h2.286v-4.89h4.673v4.89h2.286v-11.409h-2.286v4.89h-4.673v-4.89h-2.286v11.409zM164.676 412.668h2.286v-4.89h4.673v4.89h2.286v-11.409h-2.286v4.89h-4.673v-4.89h-2.286v11.409zM142.634 381.606h2.286v-4.89h4.673v4.89h2.286v-11.409h-2.286v4.89h-4.673v-4.89h-2.286v11.409z" fill="#980000"/>
      <path d="M131.668 399.632l7.314-6.944h3.667v2.971h-3.667v1.486h6.486v-6.942h-6.486v-4.467h-7.314v4.466h1.829v-2.972h3.666v2.972l-7.313 6.943-7.316-6.942v-2.97h3.667v2.97h1.829v-4.467l-7.314.001v4.466H116.2v6.944h6.486v-1.486h-3.668v-2.972h3.668l7.314 6.942-7.314 6.942h-3.667v-2.97h3.667v-1.487h-6.486v6.943h6.486v4.466l7.314.002v-4.468h-1.828v2.972h-3.667v-2.972l7.313-6.942 7.316 6.944v2.97h-3.666v-2.97h-1.83v4.466h7.314v-4.466l6.486-.002v-6.942h-6.486v1.486h3.668v2.972h-3.668l-7.314-6.943z" fill="#004e00"/>
    </g>
    <g transform="matrix(1.0321 0 0 .96838 204.8 18.166)">
      <path d="M-122.362 134.286l3.43-3.73h20.673l16.43-16.784h20.674l16.43 16.784h20.676l3.429 3.729-3.429 3.73h-20.674l-16.43 16.784H-82.92l-16.43-16.784h-20.674l-3.43-3.729z" fill="#980000"/>
      <path d="M372.06 391.64l1.903-1.949h22.834l17.126-19.489h19.029l17.126 19.489h22.836l1.903 1.949-1.903 1.948h-22.836l-16.223 17.64h-22.834l-16.224-17.64h-22.834l-1.903-1.948z" transform="matrix(.93104 0 0 .90908 -466.86 -221.29)" stroke="#000" stroke-width=".29" fill="#980000"/>
      <path d="M-64.071 136.148l6.868 7.468-3.428 3.73-1.716-1.866h-1.714v1.866l1.714 1.866h3.43l3.428-3.73v-3.73l-6.867-7.468 6.867-7.46v-3.73l-3.429-3.729h-3.428l-1.716 1.864v1.866h1.716l1.714-1.866 3.428 3.73-6.867 7.46-6.869-7.46 6.869-7.46v-1.863h-1.716l-6.867 7.468-6.869-7.46h-1.716v1.866l6.869 7.46-6.869 7.46-6.868-7.46 3.429-3.73 1.716 1.866h1.714v-1.866l-1.714-1.864h-3.43l-3.429 3.73v3.729l6.869 7.46-6.869 7.46v3.729l3.43 3.73h3.429l1.714-1.866v-1.866h-1.714l-1.716 1.866-3.429-3.73 6.868-7.46 6.868 7.46-6.868 7.46v1.864h1.714l6.869-7.46 6.868 7.46h1.714v-1.866l-6.868-7.46 6.868-7.468zm-8.672-9.326l-6.869 7.46 6.869 7.46 6.868-7.46-6.868-7.46zM-82.917 164.79v14.918l1.716-1.866 1.716 1.866 1.714-1.866 1.714 1.866 1.716-1.866 1.714 1.866 1.716-1.866 1.716 1.866 1.714-1.866 1.716 1.866 1.713-1.866 1.716 1.866V164.79h-20.674zM-62.363 113.79V98.872l-1.716 1.866-1.716-1.866-1.714 1.866-1.714-1.866-1.716 1.866-1.714-1.866-1.716 1.866-1.716-1.866-1.714 1.866-1.716-1.866-1.713 1.866-1.716-1.866v14.918h20.674zM-33.206 130.68v-14.918l-1.716 1.866-1.713-1.866-1.716 1.866-1.716-1.866-1.714 1.866-1.716-1.866-1.714 1.866-1.714-1.866v14.918h13.716zM-98.366 130.68v-14.918l-1.716 1.866-1.713-1.866-1.716 1.866-1.716-1.866-1.714 1.866-1.716-1.866-1.714 1.866-1.714-1.866v14.918h13.716zM-33.206 138.01v14.918l-1.716-1.866-1.713 1.866-1.716-1.866-1.716 1.866-1.714-1.866-1.716 1.866-1.714-1.866-1.714 1.866V138.01h13.716zM-98.366 138.01v14.918l-1.716-1.866-1.713 1.866-1.716-1.866-1.716 1.866-1.714-1.866-1.716 1.866-1.714-1.866-1.714 1.866V138.01h13.716z" fill="#e69900"/>
      <path d="M-62.347 164.79v9.324l1.714-1.866 1.716 1.866 1.714-1.866 1.714 1.866 1.716-1.866 1.714 1.866 1.716-1.866 1.714 1.866 1.716-1.866v-24.242l-16.43 16.784zM-82.933 164.79v9.326l-1.716-1.866-1.716 1.866-1.714-1.866-1.714 1.866-1.716-1.866-1.714 1.866-1.716-1.866-1.714 1.866-1.716-1.866.001-24.243 16.43 16.784zM-82.933 113.79v-9.324l-1.714 1.866-1.716-1.866-1.714 1.866-1.714-1.866-1.716 1.866-1.714-1.866-1.716 1.866-1.714-1.866-1.716 1.866v24.242l16.43-16.784zM-62.347 113.79v-9.324l1.714 1.866 1.716-1.866 1.714 1.866 1.714-1.866 1.716 1.866 1.714-1.866 1.716 1.866 1.714-1.866 1.716 1.866v24.242l-16.43-16.784zM-112.078 149.206l-1.716-1.866-1.713 1.866-1.714-1.866-1.716 1.866-1.716-1.866-1.716 1.866-1.713-1.866-1.716 1.866v-29.838l1.714 1.866 1.714-1.866 1.716 1.866 1.714-1.866 1.716 1.866 1.714-1.866 1.714 1.866 1.716-1.866v11.19h-6.867l-3.43 3.73 3.43 3.73h6.867v11.188zM-33.202 149.206l1.716-1.866 1.713 1.866 1.714-1.866 1.716 1.866 1.716-1.866 1.716 1.866 1.713-1.866 1.716 1.866v-29.838l-1.714 1.866-1.714-1.866-1.716 1.866-1.714-1.866-1.716 1.866-1.714-1.866-1.714 1.866-1.716-1.866v11.19h6.867l3.43 3.73-3.43 3.73h-6.867v11.188z" fill="#004e00"/>
      <path d="M-91.36 166.978s-1.428 1.474-1.428 2.21c-.028.687 1.624 2.227 2.143 2.211.81.016 2.143-1.474 2.143-2.21 0-.737-1.43-2.211-1.43-2.211v-2.948s3.104 6.068 3.104 2.867c0-1.686-3.103-4.331-3.103-4.331h-1.429s-3.103 3.214-3.103 4.33c0 2.212 3.103-2.866 3.103-2.866v2.948z" fill="#fff"/>
      <path d="M-73.497 161.669s-1.716 2.063-1.716 3.096c-.034.962 1.829 3.118 2.672 3.096.971.023 2.672-2.063 2.672-3.096s-1.716-3.096-1.716-3.096v-4.127s3.037 6.761 3.037 3.666c0-2.001-3.037-6.72-3.037-6.72h-1.714s-3.606 4.666-3.037 6.72c0 3.096 3.037-3.666 3.037-3.666v4.127z" fill="#980000"/>
      <ellipse fill="#004e00" transform="matrix(.96774 0 0 1.0626 -482.4 -277.86)" cx="403.94" rx="3.643" cy="391.64" ry="1.772"/>
      <ellipse fill="#004e00" transform="matrix(.96774 0 0 1.0626 -463.64 -277.86)" cx="403.94" rx="3.643" cy="391.64" ry="1.772"/>
      <ellipse fill="#004e00" transform="matrix(.96774 0 0 1.0626 -444.69 -277.86)" cx="403.94" rx="3.643" cy="391.64" ry="1.772"/>
      <path d="M-91.72 112.76s-1.428-1.474-1.428-2.21c-.028-.688 1.624-2.228 2.143-2.211.81-.017 2.143 1.473 2.143 2.21 0 .737-1.43 2.211-1.43 2.211v2.948s3.104-6.068 3.104-2.867c0 1.686-3.103 4.33-3.103 4.33h-1.429s-3.103-3.213-3.103-4.33c0-2.21 3.103 2.867 3.103 2.867v-2.948z" fill="#fff"/>
      <path d="M-73.867 107.062s-1.716-2.063-1.716-3.096c-.034-.962 1.829-3.118 2.672-3.096.971-.023 2.672 2.063 2.672 3.096s-1.716 3.096-1.716 3.096v4.127s3.037-6.761 3.037-3.666c0 2.001-3.037 6.72-3.037 6.72h-1.714s-3.606-4.666-3.037-6.72c0-3.096 3.037 3.666 3.037 3.666v-4.127z" fill="#980000"/>
      <path d="M-64.86 166.978s-1.428 1.474-1.428 2.21c-.028.687 1.624 2.227 2.143 2.211.81.016 2.143-1.474 2.143-2.21 0-.737-1.43-2.211-1.43-2.211v-2.948s3.104 6.068 3.104 2.867c0-1.686-3.103-4.331-3.103-4.331h-1.429s-3.103 3.214-3.103 4.33c0 2.212 3.103-2.866 3.103-2.866v2.948zM-66.22 112.76s-1.428-1.474-1.428-2.21c-.028-.688 1.624-2.228 2.143-2.211.81-.017 2.143 1.473 2.143 2.21 0 .737-1.43 2.211-1.43 2.211v2.948s3.104-6.068 3.104-2.867c0 1.686-3.103 4.33-3.103 4.33h-1.429s-3.103-3.213-3.103-4.33c0-2.21 3.103 2.867 3.103 2.867v-2.948z" fill="#fff"/>
      <path d="M-106.273 146.693s-1.9 1.383-1.9 2.074c-.037.644 2.026 2.089 2.86 2.074 1.076.016 2.86-1.383 2.86-2.074 0-.691-1.9-2.074-1.9-2.074v-2.766s3.364 4.623 3.364 2.46c0-1.342-3.366-3.833-3.366-3.833h-1.9s-3.882 3.119-3.363 3.832c0 2.074 3.364-2.46 3.364-2.46v2.766zM-106.673 124.471s-1.9-1.383-1.9-2.074c-.037-.644 2.026-2.09 2.86-2.074 1.076-.016 2.86 1.383 2.86 2.074 0 .691-1.9 2.074-1.9 2.074v2.766s3.364-4.624 3.364-2.46c0 1.342-3.366 3.833-3.366 3.833h-1.9s-3.882-3.12-3.363-3.832c0-2.074 3.364 2.46 3.364 2.46v-2.766zM-40.423 146.16s-1.9 1.384-1.9 2.076c-.037.644 2.026 2.089 2.86 2.074 1.076.016 2.86-1.383 2.86-2.074 0-.691-1.9-2.074-1.9-2.074v-2.766s3.364 4.623 3.364 2.46c0-1.342-3.366-3.833-3.366-3.833h-1.9s-3.882 3.119-3.363 3.832c0 2.074 3.364-2.46 3.364-2.46v2.766zM-40.823 124.031s-1.9-1.383-1.9-2.074c-.037-.644 2.026-2.09 2.86-2.074 1.076-.016 2.86 1.383 2.86 2.074 0 .691-1.9 2.074-1.9 2.074v2.766s3.364-4.624 3.364-2.46c0 1.342-3.366 3.833-3.366 3.833h-1.9s-3.882-3.12-3.363-3.832c0-2.074 3.364 2.46 3.364 2.46v-2.766z" fill="#980000"/>
      <path d="M-120.286 146.363c-.616-1.277-.463-1.86-.463-2.697-.028-.687 1.716-2.026 2.336-2.009.809-.016 2.143 1.474 2.143 2.21 0 .737.034 1.374-.298 2.644l-.893-2.164c-1.084 3.066-1.143 3.127-1.787-.074l-1.048 1.98zM-120.226 123.93c-.616 1.278-.463 1.862-.463 2.698-.028.687 1.716 2.026 2.336 2.009.809.016 2.143-1.474 2.143-2.21 0-.737.034-1.374-.298-2.644l-.893 2.164c-1.084-3.066-1.143-3.127-1.787.074l-1.048-1.98zM-27.806 146.093c-.616-1.277-.463-1.86-.463-2.697-.028-.687 1.716-2.026 2.336-2.009.809-.016 2.143 1.474 2.143 2.21 0 .737.034 1.374-.298 2.644l-.893-2.164c-1.084 3.066-1.143 3.127-1.787-.074l-1.048 1.98zM-27.766 123.666c-.616 1.277-.463 1.86-.463 2.697-.028.687 1.716 2.026 2.336 2.009.809.016 2.143-1.474 2.143-2.21 0-.737.034-1.374-.298-2.644l-.893 2.164c-1.084-3.066-1.143-3.127-1.787.074l-1.048-1.98z" fill="#fff"/>
      <path d="M116.16 177.16v-6.316H99.216v-10.63H86.043v-3.643H72.641v-31.89h12.402v-3.643h14.173v-10.63h16.944v-6.316h21.26v6.316h16.946v10.63h14.173v3.643h12.402v31.89h-12.402v3.643h-14.173v10.63H136.42v6.316h-21.26zm-1.772 1.772v-6.316H97.444v-10.63H83.271v-3.643H70.869v-36.433h12.402v-3.644h14.173v-10.63h16.946v-6.316h24.803v6.316h16.946v10.63h14.173v3.644h12.402v36.433H168.31v3.643h-14.173v10.63h-16.946v6.316h-24.804z" transform="matrix(1 0 0 .99999 -198.43 -7.086)" stroke="#000" stroke-width=".133" fill="#980000"/>
    </g>
  </g>
</svg>
