<svg xmlns="http://www.w3.org/2000/svg" height="480" width="640" version="1">
  <defs>
    <clipPath id="a">
      <path fill-opacity=".67" d="M-86.333 0h682.67v612h-682.67z"/>
    </clipPath>
  </defs>
  <g fill-rule="evenodd" clip-path="url(#a)" transform="translate(80) scale(.9376)">
    <path fill="#e70013" d="M-128 0h768v612h-768z"/>
    <path d="M386.808 266.773c0 71.316-67.813 129.129-129.129 129.129-71.317 0-129.13-67.814-129.13-129.13s67.814-129.129 129.13-129.129c71.317 0 129.13 67.814 129.13 129.13z" fill="#fff"/>
    <path d="M266.68 341.41c-47.27 0-86.636-38.364-86.636-86.636s38.364-86.636 86.636-86.636c11.818 0 26.27 2.719 34.407 9.43-62.63 2.367-78.472 66.477-78.472 76.886s10.128 69.164 78.471 76.206c-7.777 6.013-22.688 8.76-34.406 8.76z" fill="#e70013"/>
    <path fill="#e70013" d="M332.11 291.786l-38.89-14.18-26.72 32.417 1.477-41.366-38.787-14.46 39.798-11.373 1.744-41.366 23.12 34.338 39.87-11.116-26.604 32.694z"/>
  </g>
</svg>
