<svg xmlns="http://www.w3.org/2000/svg" height="480" width="640">
  <g fill-rule="evenodd">
    <path fill="#f31930" d="M0 0h640v480H0z"/>
    <path d="M406.977 247.473c0 66.216-64.606 119.89-121.97 119.89S163.04 313.686 163.04 247.472s64.606-119.89 121.968-119.89 121.97 63.677 121.97 119.89z" fill="#fff"/>
    <path d="M413.077 247.467c0 62.97-43.686 96.91-97.676 96.91s-97.674-42.94-97.674-96.91 43.686-96.91 97.674-96.91 97.676 42.94 97.676 96.91z" fill="#f31830"/>
    <path d="M430.726 191.466l-.986 44.318-41.346 11.226 40.766 14.614-.984 40.642 26.68-31.738 40.164 13.934-23.233-34.06 28.362-33.868-43.613 11.998-26.793-36.964z" fill="#fff"/>
  </g>
</svg>
