<svg xmlns="http://www.w3.org/2000/svg" height="480" width="640">
  <defs>
    <clipPath id="a">
      <path fill-opacity=".67" d="M0 0h640v480H0z"/>
    </clipPath>
  </defs>
  <g clip-path="url(#a)">
    <g fill-rule="evenodd" transform="matrix(.64608 0 0 .92069 0 23.331)" stroke-width="1pt" fill="#009fca">
      <path d="M606.97-19.81h486.16v616.87H606.97z"/>
      <rect ry="0" height="621.41" width="623.49" y="-26.343"/>
    </g>
    <path fill-rule="evenodd" fill="#fff" d="M.017 0h396.867v196.697H.017z"/>
    <path d="M.016 0L0 14.767l94.466 48.639 36.643 1.029L.017 0z" fill="#c00"/>
    <path d="M40.463 0l114.623 69.822V0H40.463z" fill="#006"/>
    <path fill="#c00" d="M170.26 0v76.368H.018v43.639H170.26v76.367h62.386v-76.367H392.89V76.368H222.646V.001H170.26z"/>
    <path d="M237.921 0v66.368L349.967.438 237.921 0z" fill="#006"/>
    <path d="M241.462 62.613l31.614-.263L396.394.437l-32.49.63-121.442 61.646z" fill="#c00"/>
    <path d="M.016 132.736v41.82l78.676-41.39-78.676-.436z" fill="#006"/>
    <path d="M302.688 134.462l-32.766-.266 123.474 61.477-.813-14.066-89.904-47.167zm-271.884 62.26l116.774-60.777-30.407.2L.02 196.63" fill="#c00"/>
    <path d="M394.66 17.271l-93.602 46.368 92.267.346v69.093H314.73l77.848 42.181 1.143 21.468-41.681-.497-113.8-66.869v66.366H166.4V140.36L48.66 196.666l-48.213.162v196.37h786.76V.347l-390.82-.34M.417 22.171L.002 62.964l82.722 1.037L.417 22.171z" fill="#006"/>
    <g fill-rule="evenodd" transform="matrix(.79241 0 0 .79977 .006 0)" fill="#009fca">
      <path d="M496.06 0h496.06v496.06H496.06z"/>
      <rect rx="0" ry="0" height="261.46" width="626.79" y="244.61" x="-2.303"/>
    </g>
    <g fill-rule="evenodd" stroke-width="1pt" fill="#fff40d">
      <path d="M693.34 122.692l27.672-.018-22.32 16.232 8.64 24.674-22.293-16.27-22.293 16.266 8.644-24.67-22.316-16.24 27.671.026 8.498-24.684zM624.14 319.472l27.671-.019-22.32 16.233 8.64 24.673-22.293-16.269-22.293 16.266 8.644-24.67-22.316-16.24 27.671.026 8.498-24.686zM693.34 274.927l27.672-.018-22.32 16.232 8.64 24.673-22.293-16.269-22.293 16.266 8.644-24.67-22.316-16.24 27.671.026 8.498-24.684zM296.788 417.646l27.672-.019-22.32 16.233 8.64 24.673-22.293-16.269-22.293 16.266 8.644-24.67-22.317-16.24 27.672.026 8.498-24.684zM368.362 341.16l-27.672.018 22.32-16.232-8.64-24.674 22.293 16.27 22.293-16.266-8.644 24.67 22.316 16.24-27.671-.026-8.498 24.684zM439.668 228.716l-27.671.018 22.32-16.233-8.64-24.673 22.293 16.27 22.293-16.266-8.644 24.67 22.316 16.24-27.671-.026-8.498 24.684zM608.004 206.366l-27.672.018 22.32-16.232-8.64-24.674 22.293 16.27 22.293-16.266-8.644 24.67 22.316 16.24-27.671-.026-8.498 24.684zM439.668 399.972l-27.671.018 22.32-16.233-8.64-24.673 22.293 16.27 22.293-16.266-8.644 24.67 22.316 16.24-27.671-.026-8.498 24.684zM368.362 419.87l-27.672.018 22.32-16.233-8.64-24.673 22.293 16.269 22.293-16.266-8.644 24.67 22.316 16.24-27.671-.026-8.498 24.684z"/>
    </g>
  </g>
</svg>
