<svg xmlns="http://www.w3.org/2000/svg" height="480" width="640">
  <defs>
    <clipPath id="a">
      <path fill-opacity=".67" d="M0 0h682.67v612H0z"/>
    </clipPath>
  </defs>
  <g fill-rule="evenodd" clip-path="url(#a)" transform="scale(.9376)" stroke-width="1pt">
    <path fill="#de2110" d="M0 0h768v612H0z"/>
    <path fill="#08399c" d="M0 0h386.69v266H0z"/>
    <path fill="#fff" d="M282.098 178.666l-47.332-9.733 10.083 47.26-36.133-32.088-14.904 46.97-16.244-46.867-36.886 32.367 9.733-47.332-47.26 10.073 32.088-36.123-46.969-14.904 46.866-16.244-32.366-36.89 47.332 9.73-10.073-47.262 36.123 32.093 14.904-46.97 16.244 46.869 36.886-32.36-9.733 47.336 47.26-10.08-32.088 36.132 46.97 14.893-46.866 16.244z"/>
    <path fill="#006387" d="M238.47 174.924l-14.936 7.932-14.67 8.608-16.918-.683-16.919.198-14.36-8.941-14.769-8.276-7.963-14.906-8.631-14.62.674-16.874-.188-16.883 8.966-14.32 8.298-14.716 14.936-7.934 14.67-8.607 16.919.68 16.928-.193 14.362 8.94 14.747 8.276 7.963 14.901 8.632 14.62-.674 16.874.187 16.883-8.966 14.323z"/>
    <path d="M244.637 128.28c0 28.646-23.222 61.867-61.866 61.867s-61.867-23.221-61.867-61.866 23.222-61.866 61.867-61.866 61.866 23.221 61.866 61.866z" fill="#fff"/>
  </g>
</svg>
