<svg xmlns="http://www.w3.org/2000/svg" height="480" width="640">
  <defs>
    <clipPath id="a">
      <path fill-opacity=".67" d="M-86.333 0h682.67v612h-682.67z"/>
    </clipPath>
  </defs>
  <g clip-path="url(#a)" transform="translate(80) scale(.9376)">
    <path fill-rule="evenodd" fill="#ffe700" d="M-128 341.36h768v86.321h-768z"/>
    <path fill-rule="evenodd" d="M-128 266h768v86.321h-768z"/>
    <path fill-rule="evenodd" fill="#de3908" d="M-128 170.68h768v86.321h-768z"/>
    <path fill-rule="evenodd" fill="#ffe700" d="M-128 86.368h768v86.321h-768z"/>
    <path fill-rule="evenodd" d="M-128 0h768v86.321h-768z"/>
    <path d="M336.71 266.997c0 44.023-36.688 79.71-79.71 79.71s-79.71-36.687-79.71-79.71 36.687-79.71 79.71-79.71 79.71 36.687 79.71 79.71z" fill-rule="evenodd" stroke="#000" stroke-width=".98663086" fill="#fffdff"/>
    <path d="M241.936 194.89l-6.176-9.631c1.997-1.997 6.366-3.64 10.712-3.64 0 .363-.646 10.44-.646 10.44l-4.992 2.632z" fill-rule="evenodd" stroke="#000" stroke-width=".98663086" fill="#de3108"/>
    <path d="M246.926 192.364l.727-10.63s10.712-.636 16.622 6.364c.09-.09-6.72 8.17-6.72 8.17l-11.629-3.994z" fill-rule="evenodd" stroke="#000" stroke-width=".98663086" fill="#ffe700"/>
    <path d="M268.64 196.266l6.266-8.17c3.64 3.723 4.993 6.366 6.638 10.36.09.09-8.362 2.087-8.362 1.996s-2.36-4.086-2.46-4.176z" fill-rule="evenodd" stroke="#000" stroke-width=".98663086" fill="#de3108"/>
    <path stroke-linejoin="round" d="M244.67 331.163s9.896-11.348 29.14-8.896c-2.906-4.72-12.266-4.176-12.266-4.176s-2.906-22.06-.636-23.16 11.892.092 11.892.092c1.27 0 3.46-3.46 1.726-6.629-1.726-2.179-6.809-10.63-4.721-12.166 2.088-1.634 13.436.908 13.436.908l-32.046-41.032s-3.268-16.433 3.268-22.877c7.898-6.636 7.081-13.617 6.809-13.627-1.09-7.171-11.983-12.346-19.337-6.719-4.367 6.266-1.462 9.26-1.462 9.26s-11.439 3.086-11.893 6.083c-.464 1.998 12.891-.362 12.891-.362l-1.27 9.169s-26.964 23.602-6.083 44.028c.182-.091.636-.908.636-.908s6.99 8.624 14.342 10.63c6.9 7.082 6.266 6.992 6.266 6.992s1.361 11.166.09 13.346c-1.724-.646-19.336-1.18-21.969-.182-2.36.727-11.438.273-9.168 16.07 1.724-3.994 3.268-7.636 3.268-7.636s-.273 6.366 1.906 7.263c-.363-6.63 2.088-9.441 2.088-9.441s.464 6.173 1.816 7.08c1.362.908 1.362-9.986 8.897-9.078 7.634.908 12.981.636 12.981.636s2.642 21.333 1.726 23.33c-6.448-1.27-18.429.646-19.246 3.813 7.626-.464 11.167.464 11.167.464s-6.173 6.447-4.267 8.624z" fill-rule="evenodd" stroke="#000" stroke-linecap="round" stroke-width=".92394229"/>
    <path stroke-linejoin="round" d="M247.626 214.749s-18.892 20.823-10.741 36.767c.434-2.222.246-3.618.617-3.627-.464-.272 2.343 1.917 2.13 1.491.06-1.162-.862-3.62-.862-3.62l2.666.638-1.491-2.769 3.621.426s-1.278-3.408-.861-3.408c.426 0 2.981.212 2.981.212-6.372-9.641-.304-17.648 2.13-26.2z" fill-rule="evenodd" stroke="#9ca69c" stroke-linecap="round" stroke-width=".92394229" fill="#9ca69c"/>
    <path d="M264.19 196.887s1 7.172-2.906 9.26c-.636.464-3.086 1.27-2.723 2.724.464 1.997 1.643 1.633 3.087 1.27 4.084-.726 8.806-9.441 2.641-13.264z" fill-rule="evenodd" stroke="#9ca69c" stroke-width=".98663086" fill="#9ca69c"/>
    <path d="M247.204 203.063a1.643 1.643 0 1 1-3.087 0 1.643 1.643 0 0 1 3.087 0z" fill-rule="evenodd" fill="#fff"/>
    <path d="M241.118 209.062c-.999.817-6.264 6.264-1.09 8.26 6.367-1.462 3.904-2.46 6.084-3.63.03-2.461-2.663-3.087-3.994-4.63z" fill-rule="evenodd" stroke="#000" stroke-width=".98663086" fill="#de3108"/>
    <path stroke-linejoin="round" d="M262.664 260.63c-.272 1.18-1.462 6.638.182 8.897 4.64-1.907 6.627-1.362 8.17-.364-3.72-2.996-6.174-4.267-8.362-8.633z" fill-rule="evenodd" stroke="#9ca69c" stroke-linecap="round" stroke-width=".92394229" fill="#9ca69c"/>
    <path stroke-linejoin="round" d="M260.366 281.137l.272 10.168s3.641.636 6.176 0c1.634-.636-.091-7.081-6.447-10.168z" fill-rule="evenodd" stroke="#fff" stroke-linecap="round" stroke-width=".92394229" fill="#fff"/>
    <path d="M286.063 282.406s-6.636-16.796-23.24-19.79-14.626-21.787-13.163-22.877c.727-1.643 1.271-3.903 6.082-1.633 4.812 2.27 26.963 13.436 30.14 13.98s.464 30.684.181 30.32z" fill-rule="evenodd" stroke="#000" stroke-width=".98663086" fill="#9ca69c"/>
    <path stroke-linejoin="round" d="M270.167 262.626c-.272.182 22.332 13.346 16.623 24.693 6.446-4.267 4.368-11.71 4.368-11.71s6.266 13.707-7.636 20.426c1.362 1.18 2.27.907 2.27.907l-2.18 2.18s-.998 1.633 7.627-2.643c-2.361 1.907-2.642 3.268-2.642 3.268s.636 1.816 6.264-3.086c-4.64 4.902-6.638 7.444-6.638 7.363 12.266-1.09 38.944-40.942-8.443-62.744 2.643 2.634 2.179 2.27 2.179 2.27l-11.983 8.987z" fill-rule="evenodd" stroke="#000" stroke-width=".92394229" fill="#de3108"/>
    <path stroke-linejoin="round" d="M271.166 268.624c3.087 2.179 4.176 2.906 4.639 3.996-2.814-.636-6.366-.464-6.366-.464s-6.082-6.81-7.172-6.264c-.817 0-6.637-2.996-6.637-2.996-2.36-1.18-4.639-9.36 4.176-6.99 8.986 4.266 10.267 4.63 10.267 4.63l10.713 3.369 6.173 6.9s-10.984-6.448-12.346-6.639c2.996 2.461 4.72 6.81 4.72 6.81-3.48-.999-6.606-1.906-10.167-2.46z" fill-rule="evenodd" stroke="#000" stroke-linecap="round" stroke-width=".92394229" fill="#fff"/>
    <path d="M228.413 209.87s10.63-2.642 11.801-2.18" stroke="#fff" stroke-linecap="round" stroke-width=".92394229" fill="none"/>
    <path fill-rule="evenodd" fill="#de3908" d="M-128 426.68h768v86.321h-768z"/>
  </g>
</svg>
