<svg xmlns="http://www.w3.org/2000/svg" height="480" width="640">
  <desc>
    The United States of America flag, produced by Daniel McRae
  </desc>
  <defs>
    <clipPath id="a">
      <path fill-opacity=".67" d="M0 0h682.67v612H0z"/>
    </clipPath>
  </defs>
  <g fill-rule="evenodd" clip-path="url(#a)" transform="scale(.9376)">
    <g stroke-width="1pt">
      <g fill="#bd3d44">
        <path d="M0 0h972.81v39.386H0zM0 78.77h972.81v39.386H0zM0 167.64h972.81v39.386H0zM0 236.31h972.81v39.386H0zM0 316.08h972.81v39.386H0zM0 393.86h972.81v39.386H0zM0 472.62h972.81v39.386H0z"/>
      </g>
      <g fill="#fff">
        <path d="M0 39.386h972.81V78.77H0zM0 118.166h972.81v39.386H0zM0 196.926h972.81v39.386H0zM0 276.696h972.81v39.386H0zM0 364.466h972.81v39.386H0zM0 433.236h972.81v39.386H0z"/>
      </g>
    </g>
    <path fill="#192f6d" d="M0 0h389.12v276.69H0z"/>
    <g fill="#fff">
      <path d="M32.427 11.8l3.64 10.896h11.468l-9.27 6.736 3.641 10.896-9.27-6.734-9.268 6.734 3.64-10.896-9.269-6.736h11.467zM97.28 11.8l3.641 10.896h11.468l-9.27 6.736 3.641 10.896-9.27-6.734-9.268 6.734 3.64-10.896-9.269-6.736H93.74zM162.136 11.8l3.64 10.896h11.468l-9.27 6.736 3.641 10.896-9.269-6.734-9.269 6.734 3.64-10.896-9.269-6.736h11.468zM226.988 11.8l3.64 10.896h11.467l-9.269 6.736 3.64 10.896-9.268-6.734-9.27 6.734 3.641-10.896-9.27-6.736h11.468zM291.843 11.8l3.64 10.896h11.468l-9.27 6.736 3.641 10.896-9.27-6.734-9.268 6.734 3.64-10.896-9.269-6.736h11.467zM366.698 11.8l3.64 10.896h11.468l-9.27 6.736 3.641 10.896-9.269-6.734-9.27 6.734 3.642-10.896-9.27-6.736h11.468z"/>
      <g>
        <path d="M64.866 39.37l3.64 10.896h11.468L70.683 67l3.642 10.897-9.27-6.734-9.269 6.734L69.126 67l-9.269-6.734h11.468zM129.707 39.37l3.64 10.896h11.467L136.436 67l3.64 10.897-9.268-6.734-9.27 6.734L123.978 67l-9.27-6.734h11.468zM194.662 39.37l3.64 10.896h11.468L200.29 67l3.641 10.897-9.27-6.734-9.268 6.734L188.833 67l-9.269-6.734h11.467zM269.417 39.37l3.64 10.896h11.468L266.146 67l3.641 10.897-9.269-6.734-9.27 6.734L263.69 67l-9.27-6.734h11.468zM324.269 39.37l3.64 10.896h11.467L329.997 67l3.64 10.897-9.268-6.734-9.27 6.734L318.64 67l-9.27-6.734h11.468z"/>
      </g>
      <g>
        <path d="M32.427 66.939l3.64 10.896h11.468l-9.27 6.736 3.641 10.896-9.27-6.734-9.268 6.734 3.64-10.896-9.269-6.736h11.467zM97.28 66.939l3.641 10.896h11.468l-9.27 6.736 3.641 10.896-9.27-6.734-9.268 6.734 3.64-10.896-9.269-6.736H93.74zM162.136 66.939l3.64 10.896h11.468l-9.27 6.736 3.641 10.896-9.269-6.734-9.269 6.734 3.64-10.896-9.269-6.736h11.468zM226.988 66.939l3.64 10.896h11.467l-9.269 6.736 3.64 10.896-9.268-6.734-9.27 6.734 3.641-10.896-9.27-6.736h11.468zM291.843 66.939l3.64 10.896h11.468l-9.27 6.736 3.641 10.896-9.27-6.734-9.268 6.734 3.64-10.896-9.269-6.736h11.467zM366.698 66.939l3.64 10.896h11.468l-9.27 6.736 3.641 10.896-9.269-6.734-9.27 6.734 3.642-10.896-9.27-6.736h11.468z"/>
        <g>
          <path d="M64.866 94.608l3.64 10.897h11.468l-9.27 6.734 3.642 10.897-9.27-6.734-9.269 6.734 3.64-10.897-9.269-6.734h11.468zM129.707 94.608l3.64 10.897h11.467l-9.269 6.734 3.64 10.897-9.268-6.734-9.27 6.734 3.641-10.897-9.27-6.734h11.468zM194.662 94.608l3.64 10.897h11.468l-9.27 6.734 3.641 10.897-9.27-6.734-9.268 6.734 3.64-10.897-9.269-6.734h11.467zM269.417 94.608l3.64 10.897h11.468l-9.27 6.734 3.641 10.897-9.269-6.734-9.27 6.734 3.642-10.897-9.27-6.734h11.468zM324.269 94.608l3.64 10.897h11.467l-9.269 6.734 3.64 10.897-9.268-6.734-9.27 6.734 3.641-10.897-9.27-6.734h11.468z"/>
        </g>
      </g>
      <g>
        <path d="M32.427 122.078l3.64 10.896h11.468l-9.27 6.736 3.641 10.896-9.27-6.734-9.268 6.734 3.64-10.896-9.269-6.736h11.467zM97.28 122.078l3.641 10.896h11.468l-9.27 6.736 3.641 10.896-9.27-6.734-9.268 6.734 3.64-10.896-9.269-6.736H93.74zM162.136 122.078l3.64 10.896h11.468l-9.27 6.736 3.641 10.896-9.269-6.734-9.269 6.734 3.64-10.896-9.269-6.736h11.468zM226.988 122.078l3.64 10.896h11.467l-9.269 6.736 3.64 10.896-9.268-6.734-9.27 6.734 3.641-10.896-9.27-6.736h11.468zM291.843 122.078l3.64 10.896h11.468l-9.27 6.736 3.641 10.896-9.27-6.734-9.268 6.734 3.64-10.896-9.269-6.736h11.467zM366.698 122.078l3.64 10.896h11.468l-9.27 6.736 3.641 10.896-9.269-6.734-9.27 6.734 3.642-10.896-9.27-6.736h11.468z"/>
        <g>
          <path d="M64.866 149.647l3.64 10.897h11.468l-9.27 6.734 3.642 10.897-9.27-6.734-9.269 6.734 3.64-10.897-9.269-6.734h11.468zM129.707 149.647l3.64 10.897h11.467l-9.269 6.734 3.64 10.897-9.268-6.734-9.27 6.734 3.641-10.897-9.27-6.734h11.468zM194.662 149.647l3.64 10.897h11.468l-9.27 6.734 3.641 10.897-9.27-6.734-9.268 6.734 3.64-10.897-9.269-6.734h11.467zM269.417 149.647l3.64 10.897h11.468l-9.27 6.734 3.641 10.897-9.269-6.734-9.27 6.734 3.642-10.897-9.27-6.734h11.468zM324.269 149.647l3.64 10.897h11.467l-9.269 6.734 3.64 10.897-9.268-6.734-9.27 6.734 3.641-10.897-9.27-6.734h11.468z"/>
        </g>
      </g>
      <g>
        <path d="M32.427 177.217l3.64 10.896h11.468l-9.27 6.736 3.641 10.896-9.27-6.734-9.268 6.734 3.64-10.896-9.269-6.736h11.467zM97.28 177.217l3.641 10.896h11.468l-9.27 6.736 3.641 10.896-9.27-6.734-9.268 6.734 3.64-10.896-9.269-6.736H93.74zM162.136 177.217l3.64 10.896h11.468l-9.27 6.736 3.641 10.896-9.269-6.734-9.269 6.734 3.64-10.896-9.269-6.736h11.468zM226.988 177.217l3.64 10.896h11.467l-9.269 6.736 3.64 10.896-9.268-6.734-9.27 6.734 3.641-10.896-9.27-6.736h11.468zM291.843 177.217l3.64 10.896h11.468l-9.27 6.736 3.641 10.896-9.27-6.734-9.268 6.734 3.64-10.896-9.269-6.736h11.467zM366.698 177.217l3.64 10.896h11.468l-9.27 6.736 3.641 10.896-9.269-6.734-9.27 6.734 3.642-10.896-9.27-6.736h11.468z"/>
        <g>
          <path d="M64.866 204.786l3.64 10.897h11.468l-9.27 6.734 3.642 10.897-9.27-6.734-9.269 6.734 3.64-10.897-9.269-6.734h11.468zM129.707 204.786l3.64 10.897h11.467l-9.269 6.734 3.64 10.897-9.268-6.734-9.27 6.734 3.641-10.897-9.27-6.734h11.468zM194.662 204.786l3.64 10.897h11.468l-9.27 6.734 3.641 10.897-9.27-6.734-9.268 6.734 3.64-10.897-9.269-6.734h11.467zM269.417 204.786l3.64 10.897h11.468l-9.27 6.734 3.641 10.897-9.269-6.734-9.27 6.734 3.642-10.897-9.27-6.734h11.468zM324.269 204.786l3.64 10.897h11.467l-9.269 6.734 3.64 10.897-9.268-6.734-9.27 6.734 3.641-10.897-9.27-6.734h11.468z"/>
        </g>
      </g>
      <g>
        <path d="M32.427 232.366l3.64 10.896h11.468l-9.27 6.736 3.641 10.896-9.27-6.734-9.268 6.734 3.64-10.896-9.269-6.736h11.467zM97.28 232.366l3.641 10.896h11.468l-9.27 6.736 3.641 10.896-9.27-6.734-9.268 6.734 3.64-10.896-9.269-6.736H93.74zM162.136 232.366l3.64 10.896h11.468l-9.27 6.736 3.641 10.896-9.269-6.734-9.269 6.734 3.64-10.896-9.269-6.736h11.468zM226.988 232.366l3.64 10.896h11.467l-9.269 6.736 3.64 10.896-9.268-6.734-9.27 6.734 3.641-10.896-9.27-6.736h11.468zM291.843 232.366l3.64 10.896h11.468l-9.27 6.736 3.641 10.896-9.27-6.734-9.268 6.734 3.64-10.896-9.269-6.736h11.467zM366.698 232.366l3.64 10.896h11.468l-9.27 6.736 3.641 10.896-9.269-6.734-9.27 6.734 3.642-10.896-9.27-6.736h11.468z"/>
      </g>
    </g>
  </g>
</svg>
