<svg xmlns="http://www.w3.org/2000/svg" height="480" width="640" version="1" xmlns:xlink="http://www.w3.org/1999/xlink">
  <defs>
    <linearGradient id="a">
      <stop stop-color="red" offset="0"/>
      <stop stop-color="#ff0" offset="1"/>
    </linearGradient>
    <linearGradient id="c" y2="107.76" xlink:href="#a" gradientUnits="userSpaceOnUse" y1="111.28" gradientTransform="matrix(.64274 0 0 1.4634 -94.683 29.21)" x2="92.661" x1="103.08"/>
    <linearGradient id="d" y2="107.76" xlink:href="#a" gradientUnits="userSpaceOnUse" y1="111.28" gradientTransform="matrix(.64274 0 0 1.4634 -94.666 30.166)" x2="92.661" x1="103.08"/>
    <linearGradient id="e" y2="107.76" xlink:href="#a" gradientUnits="userSpaceOnUse" y1="111.28" gradientTransform="matrix(.64274 0 0 1.4634 -97.986 31.014)" x2="92.661" x1="103.08"/>
    <linearGradient id="f" y2="107.76" xlink:href="#a" gradientUnits="userSpaceOnUse" y1="111.28" gradientTransform="matrix(.64274 0 0 1.4634 -94.743 31.932)" x2="92.661" x1="103.08"/>
    <linearGradient id="g" y2="107.76" xlink:href="#a" gradientUnits="userSpaceOnUse" y1="111.28" gradientTransform="matrix(.64274 0 0 1.4634 -94.76 32.836)" x2="92.661" x1="103.08"/>
    <linearGradient id="h" y2="107.76" xlink:href="#a" gradientUnits="userSpaceOnUse" y1="111.28" gradientTransform="matrix(.64274 0 0 1.4634 -94.767 33.761)" x2="92.661" x1="103.08"/>
    <linearGradient id="i" y2="107.76" xlink:href="#a" gradientUnits="userSpaceOnUse" y1="111.28" gradientTransform="matrix(.64274 0 0 1.4634 -98.011 33.736)" x2="92.661" x1="103.08"/>
    <linearGradient id="j" y2="107.76" xlink:href="#a" gradientUnits="userSpaceOnUse" y1="111.28" gradientTransform="matrix(.64274 0 0 1.4634 -97.981 32.837)" x2="92.661" x1="103.08"/>
    <linearGradient id="k" y2="107.76" xlink:href="#a" gradientUnits="userSpaceOnUse" y1="111.28" gradientTransform="matrix(.64274 0 0 1.4634 -97.942 31.918)" x2="92.661" x1="103.08"/>
    <linearGradient id="l" y2="107.76" xlink:href="#a" gradientUnits="userSpaceOnUse" y1="111.28" gradientTransform="matrix(.8281 0 0 1.8726 602.82 148.17)" x2="92.661" x1="103.08"/>
    <linearGradient id="m" y2="107.76" xlink:href="#a" gradientUnits="userSpaceOnUse" y1="111.28" gradientTransform="matrix(.64274 0 0 1.4634 -97.976 30.11)" x2="92.661" x1="103.08"/>
    <linearGradient id="n" y2="107.76" xlink:href="#a" gradientUnits="userSpaceOnUse" y1="111.28" gradientTransform="matrix(.64274 0 0 1.4634 -96.336 30.966)" x2="92.661" x1="103.08"/>
    <clipPath id="b">
      <path fill-opacity=".67" d="M0 0h640v480H0z"/>
    </clipPath>
  </defs>
  <g clip-path="url(#b)">
    <path fill="#006" d="M0 0h960v480H0z"/>
    <path fill-rule="evenodd" fill="#006" d="M0 0h360.002v176H0z"/>
    <g stroke-width="1pt">
      <path d="M0 0v19.666L310.871 176h39.13v-19.666L39.132.001H0zm360.002 0v19.666L39.13 176.001H0v-19.666L310.871 0h39.13z" fill="#fff"/>
      <path d="M146.834 0v176h68.334V0h-68.334zM0 68.334v68.333h360.002V68.334H0z" fill="#fff"/>
      <path d="M0 70v36h360.002V70H0zM167.6 0v176h36V0h-36zM0 176l116.667-68.333h26.087L26.087 176.001H0zM0 0l116.667 68.334H90.68L0 13.044V0zm207.248 68.334L323.916 0h26.087L233.334 68.334h-26.086zM360.002 176l-116.668-68.334h26.087l90.68 46.29v13.044z" fill="#c00"/>
    </g>
    <g>
      <path d="M378.474 164.467l219.342-.814-.407 196.333s7.732 29.706-91.967 74.876c36.81-3.663 74.876-41.914 74.876-41.914s16.87-20.347 23.603-8.963c7.731 11.394 16.066 17.091 20.763 21.668 6.697 4.476 10.174 16.686 1.628 26.637-8.646 8.962-21.974 10.173-26.637-.814-6.697 2.849-40.693 46.17-112.31 47.206-72.84-1.221-112.72-47.612-112.72-47.612s-9.766 16.464-23.602 3.266c-13.428-16.87-3.266-26.044-3.266-26.044s11.394-6.611 14.66-10.988c6.29-6.104 6.917-14.243 16.87-14.243 10.68.814 14.66 9.36 14.66 9.36s36.624 38.669 76.096 43.642c-89.12-42.728-92.376-69.18-91.968-76.69l.407-193.7z" fill-rule="evenodd" fill="#fff"/>
      <path d="M383.76 169.743l209.16-1.22v188.003c.407 24.416-40.694 49.24-104.99 80.98-66.323-34.183-104.67-64.939-104.98-81.381l.813-186.372z" fill-rule="evenodd" stroke="#000" stroke-width="1.7173346" fill="#006129"/>
      <path d="M408.912 366.902l12.346-18.133 12.407 18.172" stroke="#f7c600" stroke-width="1.71797946" fill="none"/>
      <path d="M423.739 360.116a2.462 2.462 0 1 1-4.904.002 2.462 2.462 0 0 1 4.904-.002z" fill-rule="evenodd" stroke="#000" stroke-width=".8060660000000001" fill="#f7c600"/>
      <path d="M411.233 380.3l19.141.064s.3-2.484-2-3.994c10.026-1.378 7.422-10.222 16.818-10.723 1.63.26-4.386 3.76-4.386 3.76s-6.062 3.672-2.767 6.388c1.83 1.442 2.632-.877 2.883-2.631.26-1.766 8.146-2.883 7.018-7.896-1.88-4.136-12.908 2.767-12.908 2.767l-7.868-.044c-.49-.883-2.66-4.424-4.898-4.44-2.667.096-4.628 4.484-4.628 4.484h-17.796s-.61 4.666 8.413 6.443c2.032 2.663 3.607 3.394 6.373 4.081-1.178.981-1.61 2.168-1.604 3.76z" fill-rule="evenodd" stroke="#000" stroke-width=".80642686" fill="#f7c600"/>
      <path d="M412.611 376.411l16.943-.064M406.31 367.008s1.276 7.467 7.161 9.223" stroke="#000" stroke-width=".80642686" fill="none"/>
      <path d="M66.32 170.64c.446-2.161 1.261-2.622 2.161-6.267.149-2.67-2.161-2.374-1.483-4.08 1.187-1.866.693-3.636-1.632-6.046.446 2.448-2.894 4.748-2.894 6.761s1.707 1.668 1.484 4.6c.148 1.78-.446 1.336-.693 3.041h2.967z" fill-rule="evenodd" stroke="#000" stroke-width=".609" fill="url(#c)" transform="matrix(1.3226 0 0 1.3226 316.617 141.369)"/>
      <path d="M423.642 349.227a2.266 2.266 0 1 1-4.612.001 2.266 2.266 0 0 1 4.612-.001z" fill-rule="evenodd" stroke="#000" stroke-width=".80642686" fill="#f7c600"/>
      <path d="M408.214 329.68l12.346-18.134 12.407 18.172" stroke="#f7c600" stroke-width="1.71797946" fill="none"/>
      <path d="M423.04 322.793a2.462 2.462 0 1 1-4.903.001 2.462 2.462 0 0 1 4.904-.001z" fill-rule="evenodd" stroke="#000" stroke-width=".8060660000000001" fill="#f7c600"/>
      <path d="M410.636 342.977l19.141.066s.3-2.486-2-3.994c10.026-1.379 7.422-10.222 16.818-10.723 1.63.26-4.386 3.76-4.386 3.76s-6.062 3.672-2.767 6.388c1.83 1.442 2.632-.877 2.883-2.632.26-1.764 8.146-2.882 7.018-7.896-1.88-4.136-12.908 2.767-12.908 2.767l-7.868-.044c-.49-.883-2.66-4.424-4.898-4.44-2.667.097-4.628 4.484-4.628 4.484h-17.796s-.61 4.666 8.413 6.443c2.032 2.663 3.607 3.396 6.372 4.081-1.177.982-1.608 2.169-1.603 3.76z" fill-rule="evenodd" stroke="#000" stroke-width=".80642686" fill="#f7c600"/>
      <path d="M411.913 339.089l16.943-.066M404.611 329.686s1.276 7.466 7.162 9.222" stroke="#000" stroke-width=".80642686" fill="none"/>
      <path d="M66.32 170.64c.446-2.161 1.261-2.622 2.161-6.267.149-2.67-2.161-2.374-1.483-4.08 1.187-1.866.693-3.636-1.632-6.046.446 2.448-2.894 4.748-2.894 6.761s1.707 1.668 1.484 4.6c.148 1.78-.446 1.336-.693 3.041h2.967z" fill-rule="evenodd" stroke="#000" stroke-width=".609" fill="url(#d)" transform="matrix(1.3226 0 0 1.3226 316.919 104.047)"/>
      <path d="M422.844 311.904a2.266 2.266 0 1 1-4.612.001 2.266 2.266 0 0 1 4.612-.001z" fill-rule="evenodd" stroke="#000" stroke-width=".80642686" fill="#f7c600"/>
      <path d="M639.38 296.662l12.347-18.134 12.406 18.172" stroke="#f7c600" stroke-width="1.71797946" fill="none"/>
      <path d="M664.207 288.866a2.462 2.462 0 1 1-4.904.002 2.462 2.462 0 0 1 4.904-.002z" fill-rule="evenodd" stroke="#000" stroke-width=".8060660000000001" fill="#f7c600"/>
      <path d="M641.701 309.06l19.141.064s.3-2.484-1.999-3.994c10.026-1.379 7.421-10.222 16.818-10.723 1.629.26-4.387 3.76-4.387 3.76s-6.062 3.672-2.767 6.388c1.83 1.442 2.632-.877 2.883-2.632.26-1.764 8.146-2.882 7.018-7.896-1.88-4.136-12.908 2.767-12.908 2.767l-7.868-.043c-.49-.884-2.66-4.426-4.898-4.441-2.667.097-4.628 4.484-4.628 4.484H629.42s-.61 4.666 8.413 6.443c2.032 2.664 3.607 3.396 6.373 4.082-1.178.98-1.61 2.168-1.604 3.76z" fill-rule="evenodd" stroke="#000" stroke-width=".80642686" fill="#f7c600"/>
      <path d="M643.08 306.16l16.942-.063M636.777 296.768s1.276 7.466 7.163 9.222" stroke="#000" stroke-width=".80642686" fill="none"/>
      <path d="M66.32 170.64c.446-2.161 1.261-2.622 2.161-6.267.149-2.67-2.161-2.374-1.483-4.08 1.187-1.866.693-3.636-1.632-6.046.446 2.448-2.894 4.748-2.894 6.761s1.707 1.668 1.484 4.6c.148 1.78-.446 1.336-.693 3.041h2.967z" fill-rule="evenodd" stroke="#000" stroke-width=".609" fill="url(#e)" transform="matrix(1.3226 0 0 1.3226 447.086 70.119)"/>
      <path d="M664.01 277.976a2.266 2.266 0 1 1-4.612.002 2.266 2.266 0 0 1 4.612-.002z" fill-rule="evenodd" stroke="#000" stroke-width=".80642686" fill="#f7c600"/>
      <path d="M411.273 269.372l12.346-18.134 12.407 18.172" stroke="#f7c600" stroke-width="1.71797946" fill="none"/>
      <path d="M426.1 262.686a2.462 2.462 0 1 1-4.904.001 2.462 2.462 0 0 1 4.904-.001z" fill-rule="evenodd" stroke="#000" stroke-width=".8060660000000001" fill="#f7c600"/>
      <path d="M413.694 272.769l19.141.064s.3-2.484-2-3.994c10.026-1.378 7.422-10.221 16.818-10.723 1.63.261-4.386 3.76-4.386 3.76s-6.062 3.672-2.767 6.389c1.83 1.442 2.632-.877 2.883-2.632.26-1.764 8.146-2.882 7.018-7.896-1.88-4.136-12.908 2.767-12.908 2.767l-7.868-.044c-.49-.883-2.66-4.424-4.898-4.44-2.667.097-4.628 4.484-4.628 4.484h-17.796s-.61 4.666 8.413 6.443c2.032 2.663 3.606 3.394 6.372 4.081-1.177.981-1.608 2.168-1.603 3.76z" fill-rule="evenodd" stroke="#000" stroke-width=".80642686" fill="#f7c600"/>
      <path d="M414.972 268.88l16.943-.064M407.67 269.477s1.276 7.467 7.162 9.223" stroke="#000" stroke-width=".80642686" fill="none"/>
      <path d="M66.32 170.64c.446-2.161 1.261-2.622 2.161-6.267.149-2.67-2.161-2.374-1.483-4.08 1.187-1.866.693-3.636-1.632-6.046.446 2.448-2.894 4.748-2.894 6.761s1.707 1.668 1.484 4.6c.148 1.78-.446 1.336-.693 3.041h2.967z" fill-rule="evenodd" stroke="#000" stroke-width=".609" fill="url(#f)" transform="matrix(1.3226 0 0 1.3226 318.978 33.838)"/>
      <path d="M426.903 241.696a2.266 2.266 0 1 1-4.612.001 2.266 2.266 0 0 1 4.612-.001z" fill-rule="evenodd" stroke="#000" stroke-width=".80642686" fill="#f7c600"/>
      <g>
        <path d="M411.66 223.713l12.347-18.134 12.406 18.172" stroke="#f7c600" stroke-width="1.71797946" fill="none"/>
        <path d="M426.377 216.926a2.462 2.462 0 1 1-4.904.001 2.462 2.462 0 0 1 4.904-.001z" fill-rule="evenodd" stroke="#000" stroke-width=".8060660000000001" fill="#f7c600"/>
        <path d="M413.871 237.11l19.141.066s.3-2.486-1.999-3.994c10.026-1.38 7.421-10.222 16.818-10.723 1.629.26-4.387 3.76-4.387 3.76s-6.062 3.672-2.767 6.388c1.83 1.442 2.632-.877 2.883-2.632.26-1.764 8.146-2.882 7.018-7.896-1.88-4.136-12.908 2.767-12.908 2.767l-7.868-.044c-.49-.883-2.66-4.424-4.898-4.44-2.667.097-4.628 4.484-4.628 4.484H401.69s-.61 4.666 8.413 6.443c2.032 2.663 3.607 3.396 6.373 4.081-1.178.982-1.61 2.169-1.604 3.76z" fill-rule="evenodd" stroke="#000" stroke-width=".80642686" fill="#f7c600"/>
        <path d="M416.26 233.222l16.942-.066M407.947 223.818s1.276 7.467 7.163 9.223" stroke="#000" stroke-width=".80642686" fill="none"/>
        <path d="M66.32 170.64c.446-2.161 1.261-2.622 2.161-6.267.149-2.67-2.161-2.374-1.483-4.08 1.187-1.866.693-3.636-1.632-6.046.446 2.448-2.894 4.748-2.894 6.761s1.707 1.668 1.484 4.6c.148 1.78-.446 1.336-.693 3.041h2.967z" fill-rule="evenodd" stroke="#000" stroke-width=".609" fill="url(#g)" transform="matrix(1.3226 0 0 1.3226 319.266 -1.82)"/>
        <path d="M426.18 206.037a2.266 2.266 0 1 1-4.612.001 2.266 2.266 0 0 1 4.612-.001z" fill-rule="evenodd" stroke="#000" stroke-width=".80642686" fill="#f7c600"/>
      </g>
      <g>
        <path d="M412.228 187.633l12.346-18.134 12.407 18.172" stroke="#f7c600" stroke-width="1.71797946" fill="none"/>
        <path d="M427.064 180.746a2.462 2.462 0 1 1-4.903.001 2.462 2.462 0 0 1 4.903-.001z" fill-rule="evenodd" stroke="#000" stroke-width=".8060660000000001" fill="#f7c600"/>
        <path d="M414.649 200.93l19.14.064s.3-2.484-1.999-3.993c10.026-1.38 7.422-10.222 16.818-10.724 1.63.261-4.386 3.76-4.386 3.76s-6.062 3.673-2.767 6.389c1.83 1.442 2.632-.877 2.882-2.632.26-1.764 8.146-2.882 7.018-7.896-1.88-4.136-12.908 2.767-12.908 2.767l-7.868-.044c-.49-.883-2.669-4.424-4.898-4.44-2.667.097-4.628 4.484-4.628 4.484h-17.796s-.61 4.666 8.413 6.443c2.031 2.663 3.606 3.396 6.372 4.081-1.177.982-1.609 2.169-1.604 3.76z" fill-rule="evenodd" stroke="#000" stroke-width=".80642686" fill="#f7c600"/>
        <path d="M416.927 197.042l16.943-.066M408.626 187.638s1.276 7.467 7.162 9.223" stroke="#000" stroke-width=".80642686" fill="none"/>
        <path d="M66.32 170.64c.446-2.161 1.261-2.622 2.161-6.267.149-2.67-2.161-2.374-1.483-4.08 1.187-1.866.693-3.636-1.632-6.046.446 2.448-2.894 4.748-2.894 6.761s1.707 1.668 1.484 4.6c.148 1.78-.446 1.336-.693 3.041h2.967z" fill-rule="evenodd" stroke="#000" stroke-width=".609" fill="url(#h)" transform="matrix(1.3226 0 0 1.3226 319.933 -38)"/>
        <path d="M426.867 169.867a2.266 2.266 0 1 1-4.611.001 2.266 2.266 0 0 1 4.611-.001z" fill-rule="evenodd" stroke="#000" stroke-width=".80642686" fill="#f7c600"/>
      </g>
      <g>
        <path d="M640.366 188.122l12.347-18.134 12.406 18.172" stroke="#f7c600" stroke-width="1.71797946" fill="none"/>
        <path d="M666.182 181.336a2.462 2.462 0 1 1-4.904.002 2.462 2.462 0 0 1 4.904-.002z" fill-rule="evenodd" stroke="#000" stroke-width=".8060660000000001" fill="#f7c600"/>
        <path d="M642.676 201.62l19.141.064s.3-2.484-1.999-3.994c10.026-1.379 7.421-10.222 16.818-10.723 1.629.26-4.386 3.76-4.386 3.76s-6.063 3.672-2.767 6.388c1.83 1.442 2.631-.877 2.882-2.632.26-1.764 8.146-2.882 7.018-7.896-1.88-4.136-12.908 2.767-12.908 2.767l-7.868-.043c-.49-.884-2.669-4.426-4.898-4.441-2.667.097-4.628 4.484-4.628 4.484h-17.796s-.61 4.666 8.413 6.443c2.031 2.664 3.606 3.396 6.372 4.082-1.177.98-1.609 2.168-1.604 3.76z" fill-rule="evenodd" stroke="#000" stroke-width=".80642686" fill="#f7c600"/>
        <path d="M644.064 197.63l16.944-.063M636.763 188.228s1.276 7.466 7.162 9.222" stroke="#000" stroke-width=".80642686" fill="none"/>
        <path d="M66.32 170.64c.446-2.161 1.261-2.622 2.161-6.267.149-2.67-2.161-2.374-1.483-4.08 1.187-1.866.693-3.636-1.632-6.046.446 2.448-2.894 4.748-2.894 6.761s1.707 1.668 1.484 4.6c.148 1.78-.446 1.336-.693 3.041h2.967z" fill-rule="evenodd" stroke="#000" stroke-width=".609" fill="url(#i)" transform="matrix(1.3226 0 0 1.3226 448.06 -37.411)"/>
        <path d="M664.986 170.446a2.266 2.266 0 1 1-4.611.002 2.266 2.266 0 0 1 4.611-.002z" fill-rule="evenodd" stroke="#000" stroke-width=".80642686" fill="#f7c600"/>
      </g>
      <g>
        <path d="M639.186 223.638l12.347-18.134 12.406 18.172" stroke="#f7c600" stroke-width="1.71797946" fill="none"/>
        <path d="M664.012 216.86a2.462 2.462 0 1 1-4.904.002 2.462 2.462 0 0 1 4.904-.001z" fill-rule="evenodd" stroke="#000" stroke-width=".8060660000000001" fill="#f7c600"/>
        <path d="M641.606 237.036l19.141.066s.3-2.486-1.999-3.994c10.026-1.379 7.421-10.222 16.818-10.723 1.629.26-4.387 3.76-4.387 3.76s-6.062 3.672-2.767 6.388c1.83 1.442 2.632-.877 2.883-2.632.26-1.764 8.146-2.882 7.018-7.896-1.88-4.136-12.908 2.767-12.908 2.767l-7.868-.044c-.49-.883-2.66-4.424-4.898-4.44-2.667.097-4.628 4.484-4.628 4.484h-17.796s-.61 4.666 8.413 6.443c2.032 2.663 3.607 3.396 6.373 4.081-1.178.982-1.61 2.169-1.604 3.76z" fill-rule="evenodd" stroke="#000" stroke-width=".80642686" fill="#f7c600"/>
        <path d="M642.884 233.147l16.943-.066M636.682 223.744s1.276 7.466 7.163 9.222" stroke="#000" stroke-width=".80642686" fill="none"/>
        <path d="M66.32 170.64c.446-2.161 1.261-2.622 2.161-6.267.149-2.67-2.161-2.374-1.483-4.08 1.187-1.866.693-3.636-1.632-6.046.446 2.448-2.894 4.748-2.894 6.761s1.707 1.668 1.484 4.6c.148 1.78-.446 1.336-.693 3.041h2.967z" fill-rule="evenodd" stroke="#000" stroke-width=".609" fill="url(#j)" transform="matrix(1.3226 0 0 1.3226 446.89 -1.896)"/>
        <path d="M663.816 206.962a2.266 2.266 0 1 1-4.612.001 2.266 2.266 0 0 1 4.612-.001z" fill-rule="evenodd" stroke="#000" stroke-width=".80642686" fill="#f7c600"/>
      </g>
      <g>
        <path d="M637.616 269.94l12.346-18.134 12.407 18.172" stroke="#f7c600" stroke-width="1.71797946" fill="none"/>
        <path d="M662.441 263.162a2.462 2.462 0 1 1-4.903.002 2.462 2.462 0 0 1 4.903-.002z" fill-rule="evenodd" stroke="#000" stroke-width=".8060660000000001" fill="#f7c600"/>
        <path d="M639.936 273.337l19.14.064s.3-2.484-1.999-3.994c10.026-1.379 7.421-10.222 16.818-10.723 1.63.26-4.386 3.76-4.386 3.76s-6.062 3.672-2.767 6.388c1.83 1.442 2.632-.877 2.882-2.631.26-1.766 8.146-2.883 7.018-7.896-1.88-4.136-12.908 2.767-12.908 2.767l-7.868-.044c-.49-.883-2.669-4.424-4.898-4.44-2.667.096-4.628 4.484-4.628 4.484h-17.796s-.61 4.666 8.413 6.443c2.031 2.663 3.606 3.394 6.372 4.08-1.177.982-1.609 2.17-1.604 3.76z" fill-rule="evenodd" stroke="#000" stroke-width=".80642686" fill="#f7c600"/>
        <path d="M641.314 269.448l16.943-.064M634.012 260.046s1.276 7.467 7.162 9.223" stroke="#000" stroke-width=".80642686" fill="none"/>
        <path d="M66.32 170.64c.446-2.161 1.261-2.622 2.161-6.267.149-2.67-2.161-2.374-1.483-4.08 1.187-1.866.693-3.636-1.632-6.046.446 2.448-2.894 4.748-2.894 6.761s1.707 1.668 1.484 4.6c.148 1.78-.446 1.336-.693 3.041h2.967z" fill-rule="evenodd" stroke="#000" stroke-width=".609" fill="url(#k)" transform="matrix(1.3226 0 0 1.3226 446.32 34.406)"/>
        <path d="M662.244 242.263a2.266 2.266 0 1 1-4.611.002 2.266 2.266 0 0 1 4.611-.002z" fill-rule="evenodd" stroke="#000" stroke-width=".80642686" fill="#f7c600"/>
      </g>
      <path d="M639.183 367.27l12.346-18.132 12.407 18.17" stroke="#f7c600" stroke-width="1.2882674999999998" fill="none"/>
      <path d="M664.006 360.496a2.462 2.462 0 1 1-4.903.002 2.462 2.462 0 0 1 4.903-.002z" fill-rule="evenodd" stroke="#000" stroke-width=".804776" fill="#f7c600"/>
      <path d="M641.603 380.667l19.14.064s.3-2.484-1.999-3.994c10.026-1.378 7.422-10.222 16.818-10.723 1.629.261-4.386 3.76-4.386 3.76s-6.063 3.672-2.767 6.389c1.83 1.442 2.631-.877 2.882-2.632.26-1.764 8.146-2.882 7.018-7.896-1.88-4.136-12.908 2.767-12.908 2.767l-7.868-.044c-.49-.883-2.66-4.424-4.898-4.44-2.667.097-4.628 4.484-4.628 4.484H629.22s-.61 4.666 8.413 6.443c2.031 2.663 3.606 3.394 6.372 4.081-1.177.981-1.609 2.168-1.604 3.76z" fill-rule="evenodd" stroke="#000" stroke-width=".804776" fill="#f7c600"/>
      <path d="M642.878 376.776l16.943-.064M636.68 367.384s1.276 7.466 7.162 9.222" stroke="#000" stroke-width=".804776" fill="none"/>
      <path d="M814.6 330.27c.673-2.772 1.626-3.26 2.772-6.786.191-3.44-2.772-3.069-1.912-6.267 1.63-2.39.766-4.683-2.103-6.6.674 3.166-3.727 6.118-3.727 8.698 0 2.681 2.198 2.008 1.911 6.926.192 2.294-.673 1.72-.764 3.92h3.823z" fill-rule="evenodd" stroke="#000" stroke-width=".784" fill="url(#l)" transform="translate(-301.49 28.269) scale(1.0266)"/>
      <path d="M663.81 349.606a2.266 2.266 0 1 1-4.611.001 2.266 2.266 0 0 1 4.611-.001z" fill-rule="evenodd" stroke="#000" stroke-width=".804776" fill="#f7c600"/>
      <g>
        <path d="M638.99 331.364l12.346-18.134 12.407 18.172" stroke="#f7c600" stroke-width="1.71797946" fill="none"/>
        <path d="M663.817 324.677a2.462 2.462 0 1 1-4.904.002 2.462 2.462 0 0 1 4.904-.002z" fill-rule="evenodd" stroke="#000" stroke-width=".8060660000000001" fill="#f7c600"/>
        <path d="M641.311 344.761l19.141.066s.3-2.486-2-3.994c10.026-1.379 7.422-10.222 16.819-10.723 1.629.26-4.387 3.76-4.387 3.76s-6.062 3.672-2.767 6.388c1.83 1.442 2.632-.877 2.883-2.632.26-1.764 8.146-2.882 7.018-7.896-1.88-4.136-12.908 2.767-12.908 2.767l-7.868-.044c-.49-.883-2.66-4.424-4.898-4.44-2.667.097-4.628 4.484-4.628 4.484H629.03s-.61 4.666 8.413 6.443c2.032 2.663 3.607 3.396 6.373 4.082-1.178.98-1.61 2.168-1.604 3.76z" fill-rule="evenodd" stroke="#000" stroke-width=".80642686" fill="#f7c600"/>
        <path d="M642.69 340.873l16.942-.066M636.387 331.47s1.276 7.466 7.163 9.222" stroke="#000" stroke-width=".80642686" fill="none"/>
        <path d="M66.32 170.64c.446-2.161 1.261-2.622 2.161-6.267.149-2.67-2.161-2.374-1.483-4.08 1.187-1.866.693-3.636-1.632-6.046.446 2.448-2.894 4.748-2.894 6.761s1.707 1.668 1.484 4.6c.148 1.78-.446 1.336-.693 3.041h2.967z" fill-rule="evenodd" stroke="#000" stroke-width=".609" fill="url(#m)" transform="matrix(1.3226 0 0 1.3226 446.696 106.83)"/>
        <path d="M663.62 313.688a2.266 2.266 0 1 1-4.612.002 2.266 2.266 0 0 1 4.612-.002z" fill-rule="evenodd" stroke="#000" stroke-width=".80642686" fill="#f7c600"/>
      </g>
      <g>
        <path d="M434.677 297.99l12.347-18.134 12.406 18.172" stroke="#f7c600" stroke-width="1.71797946" fill="none"/>
        <path d="M449.604 291.202a2.462 2.462 0 1 1-4.904.002 2.462 2.462 0 0 1 4.904-.002z" fill-rule="evenodd" stroke="#000" stroke-width=".8060660000000001" fill="#f7c600"/>
        <path d="M436.998 311.387l19.141.064s.3-2.484-1.999-3.994c10.026-1.379 7.421-10.222 16.818-10.723 1.629.26-4.387 3.76-4.387 3.76s-6.062 3.672-2.767 6.388c1.83 1.442 2.632-.877 2.883-2.631.26-1.766 8.146-2.883 7.018-7.896-1.88-4.136-12.908 2.767-12.908 2.767l-7.868-.044c-.49-.883-2.66-4.424-4.898-4.44-2.667.096-4.628 4.484-4.628 4.484h-17.796s-.61 4.666 8.413 6.443c2.032 2.663 3.607 3.394 6.373 4.08-1.178.982-1.61 2.17-1.604 3.76z" fill-rule="evenodd" stroke="#000" stroke-width=".80642686" fill="#f7c600"/>
        <path d="M438.376 307.498l16.943-.064M431.074 298.096s1.276 7.467 7.163 9.223" stroke="#000" stroke-width=".80642686" fill="none"/>
        <path d="M66.32 170.64c.446-2.161 1.261-2.622 2.161-6.267.149-2.67-2.161-2.374-1.483-4.08 1.187-1.866.693-3.636-1.632-6.046.446 2.448-2.894 4.748-2.894 6.761s1.707 1.668 1.484 4.6c.148 1.78-.446 1.336-.693 3.041h2.967z" fill-rule="evenodd" stroke="#000" stroke-width=".609" fill="url(#n)" transform="matrix(1.3226 0 0 1.3226 342.382 72.466)"/>
        <path d="M449.307 280.313a2.266 2.266 0 1 1-4.612.002 2.266 2.266 0 0 1 4.612-.002z" fill-rule="evenodd" stroke="#000" stroke-width=".80642686" fill="#f7c600"/>
      </g>
      <g stroke="#000">
        <path d="M600.741 384.174s4.996 11.616 10.684 4.44 3.608-10.129 3.608-10.129l-12.766-6.937-3.747 7.909 2.22 4.717z" fill-rule="evenodd" stroke-width=".80642686" fill="#f7c600"/>
        <path d="M611.706 382.663s.833.139 1.626-1.11-1.626-1.804-2.497-3.191l-1.11 2.22 2.081 2.081zM482.834 379.698l-11.239 6.106s-6.66 1.11-6.966 0c-.416-1.11.139-2.081 3.062-2.22 2.914-.139 10.823-7.364 10.823-7.364l3.33 3.469zM482.98 179.934s.277 2.636.416 4.023-2.22 4.302-2.369 4.163-1.249.139-1.11.971 1.804 1.11 1.804 1.11-.694 2.914 0 3.063c.694.139-1.804 3.746 0 4.717 1.804.971 4.866 2.22 6.244 1.943 1.387-.278 0 6.411 0 6.411l-3.886 8.326 21.367-2.22-4.44-7.076s-2.082-1.388-1.627-6.412c.666-4.023-.277-22.2-.277-22.2l-16.262-2.081-.972 6.273zM479.091 211.669s-6.937 3.191-6.66 11.794c-1.803 8.326-2.776 16.66-2.776 16.66s-8.186 9.296-10.683 12.626c-2.498 3.33-6.244 10.128-7.632 11.932s-6.799 7.77-6.66 9.99c.139 2.22-1.249 12.072 4.163 13.181 1.387.666 6.827-11.377 6.827-11.377s.278-6.134-1.248-6.106 3.33-4.301 3.33-4.301 9.296-6.8 11.377-8.464 7.77-8.048 7.77-8.048l3.191-37.879z" fill-rule="evenodd" stroke-width=".80642686" fill="#ffc6b6"/>
        <path d="M487 206.048s1.804 4.866 6.828 4.023c4.023-.832 8.741-4.679 8.741-4.679s3.746-.138 4.301.417c.666.666 10.129 9.86 9.862 12.766-.278 2.914-4.44 2.08-6.967 4.023s-4.024 6.8-3.33 10.407 2.776 8.326 2.498 10.129-1.804 2.368-1.804 3.33c0 .97 1.249 2.636 1.249 4.44s-1.666 4.44-1.388 6.243c.278 1.804.417 7.076.417 7.076l-.417 24.421s1.388.833 1.627 2.22c.138 1.388 9.436 41.763 9.436 41.763s-.417 1.26-1.388 1.11 3.746 6.244 3.886 8.048 4.866 16.967 4.718 17.9c-.14 1.942-.833 6.243-1.26 6.382-.416.139 3.063 8.88 2.498 10.267-.666 1.388-6.243 1.26-6.243 1.26l-1.627-.278s.14 1.803-.97 1.942-9.297-.416-9.297-.416-2.369 3.607-3.746 3.469c-1.388-.14-3.192-2.637-3.608-2.22-.416.416 1.249 2.776.832 3.468-.416.694-7.492 2.22-8.88-1.11-1.387-3.33.833-2.497.417-3.19-.417-.696-3.608-2.498-4.679-1.943s2.497 1.387 2.369 2.776c-.139 1.387-3.063 3.468-4.163 3.468s-3.746-6.133-7.631-4.678c-3.886.666-6.383 1.626-6.383 1.626s-4.678 1.942-6.621 1.626c-1.942-.416-2.776-1.942-2.776-2.776 0-.832 1.388-4.44 1.249-6.66s-1.249-2.22-1.249-3.886c0-1.666 3.191-7.364 3.191-7.364l-.138-26.63s-2.914 0-3.063-1.804 4.44-40.376 6.134-42.874c.694-2.498 2.497-11.378 2.497-11.378s-2.08.972-2.22 0 6.244-23.032 6.244-23.032 1.11-10.961 1.11-13.876c0-2.913-.666-6.937-.666-6.937s-6.696-2.412-6.827-6.106c-.621-6.877 6.41-9.168 6.106-11.1l2.776-7.77s3.062-6.273 8.047-6.106z" fill-rule="evenodd" stroke-width=".80642686" fill="#fff"/>
        <path d="M484.924 381.264s-13.468 7.077-16.401 7.632c-1.943.666-3.192-2.369-1.249-2.914 1.943-.666 4.996-.833 4.996-.833s-4.679-3.607-4.44-3.746c.139-.139 6.244-2.368 6.383-2.368s1.942 3.607 3.19 3.33 4.867-3.063 4.867-3.063 1.943 2.22 1.666 1.942z" fill-rule="evenodd" stroke-width=".80642686" fill="#f7c600"/>
        <path d="M603.889 386.14c1.273 1.64 1.77 4.487 4.684 2.822s-1.493-4.766-1.493-4.766l-3.191 1.932zM609.206 384.862s1.387 1.11 2.636-.139-2.498-3.886-2.498-3.886l-1.803 2.081 1.666 1.943z" fill-rule="evenodd" stroke-width=".80642686" fill="#ffc6b6"/>
        <path d="M606.04 210.468s-12.36 7.909-12.072 10.684M607.817 211.846s-2.776 3.063-2.914 3.063M611.66 216.176s-6.106 4.996-6.134 8.186M482.702 209.766s-1.804 3.746-1.388 4.996c.417 1.249 3.47 6.966 3.886 8.88.417 2.914 0 4.996 0 4.996M479.616 216.702s.664 4.44 1.387 6.272c.833.833 3.063 4.68 3.33 6.106M478.404 236.166s3.607 1.804 6.937-6.134M490.743 226.166c-.139 0-2.636 6.799 1.804 9.296s7.77 2.22 9.712 1.627c1.943-.694 4.024-1.943 4.024-1.943M488.812 233.491s.277 9.168 13.736 18.177M489.367 242.093s-.138 8.048 6.134 11.666M486.69 232.668s-4.024 11.933-7.216 13.182M486.334 241.4s-.139 8.603-1.249 11.666M482.98 266.136s2.776 3.469 6.827 3.191c3.063-.277 4.301-3.886 6.383-3.33 2.08.666 4.023 2.22 8.88 1.804M497.13 260.408s0 7.076 1.26 7.77.693 7.216.693 7.216M480.202 267.079s-.138 6.66-.971 9.019c-.832 2.368-2.497 6.382-2.22 9.861M471.738 279.839c.694-.278 3.063-2.369 3.063-2.369M476.036 279.006s-6.966 26.63-4.301 40.793M477.426 280.249s-3.063 19.147-1.666 22.766M476.904 279.693c.139 0 11.666.833 11.666.833M489.222 279.006s3.191 1.666 7.631 1.388M487.833 288.303s-.666 32.746-1.387 39.96M604.907 296.788s3.608 28.722 6.69 31.368M497.964 299.399s2.22 26.392 3.469 27.612M466.474 336.888s4.301-1.388 8.186-6.66c4.44 6.966 11.24.278 11.24.278s10.644 7.216 16.261-.833c7.216 4.718 10.823-.694 10.823-.694s2.636 4.024 4.679 3.608M606.04 336.478s6.41 26.391 13.468 32.606M477.147 332.833s.694 21.23 1.943 36.214M476.182 366.837s-.694 13.876-1.627 14.847M467.996 373.078s1.626 6.966 9.168.416c7.631-6.66 7.77 2.082 8.047 2.914.278.832 1.627 6.799 4.44 1.804M496.742 370.023s-1.249 12.348 9.713 3.33c10.961-9.019 12.766-.139 13.042 2.636" stroke-width=".80642686" fill="none"/>
        <path d="M482.666 179.1s3.063.417 4.718-.664c1.666-.972 3.608-1.388 4.996.666s2.369 1.803 2.369 1.803-2.082 6.134 0 6.689c2.081.666 3.062.666 3.191 1.249.139.694-1.804 2.22-1.249 2.913.666.694 1.627 1.627 1.666 2.082.139.666-1.248 2.913-.832 3.469.416.666 1.666 2.776 2.497 2.776.833 0 .278 3.468 2.776 2.636s2.36-3.063 2.36-3.063 2.636-.416 3.33-2.776c.693-2.368 2.368-2.913 2.368-2.913s3.33-1.804-1.11-4.68c0-19.426-12.766-17.343-12.766-17.343s-1.627-3.469-4.024-3.063c-2.498.417-2.636 3.33-4.44 3.063-1.804-.278-2.22-1.626-2.369-1.387-.139.138-1.666 2.913-1.666 3.607 0 .694-4.866-.971-4.44 2.636s2.776 3.469 2.636 3.192z" fill-rule="evenodd" stroke-width=".80642686" fill="#9c6100"/>
        <path d="M496.888 174.383s-.972 6.106 6.66 6.66c-.833 3.33 1.666 4.44 1.666 4.44M607.96 188.119c.138 0 2.913 1.804-.14 4.024M498.62 192.976s1.387 1.666 2.913 1.26c1.626-.417 4.024 1.626 4.024 1.626s2.081.694 2.369.278M490.066 198.248s4.718 1.804 7.77-6.688M481.313 190.34l2.776.138" stroke-width=".80642686" fill="none"/>
        <path stroke-linejoin="round" d="M481.736 193.114h2.498l-2.22.972" stroke-width=".80642686" fill="none"/>
        <path stroke-linejoin="round" d="M486.201 186.344c.417 0 1.943-.666 2.22-.138.278.416-1.666.693-2.22.138z" stroke-width="1.4496038400000002" fill="none"/>
        <path d="M616.17 218.31c.139 0 4.68 13.736 6.134 17.206.666 3.469 2.369 17.344 1.666 19.287-.694 1.942-7.77 11.238-8.603 13.697-.832 2.368-6.827 11.377-6.827 11.377s-1.249 8.88-1.804 9.297c-.666.416 1.433 2.696 1.249 3.33-.276.826-4.024 4.717-6.689 4.301-1.666-.416-4.301-2.369-4.44-4.163s.139-7.77 1.388-9.296 7.77-16.927 8.186-17.9c.416-.97 6.966-13.042 6.106-16.122.139-2.082-1.727-6.894-3.689-8.66-4.367-12.863-2.66-20.604 6.326-23.263z" fill-rule="evenodd" stroke-width=".80642686" fill="#ffc6b6"/>
        <path d="M460.624 277.842l.218 6.08M444.827 277.392s3.898 6.62 3.673 9.994" stroke-width=".80642686" fill="none"/>
        <path stroke-linejoin="round" d="M497.078 291.014s2.916-.306 2.823 4.66c1.861-6.046 6.646-6.189 6.646-6.189" stroke-width=".80642686" fill="none"/>
      </g>
      <path d="M487.119 429.949c68.698-1.628 96.443-43.949 96.036-44.366-.407-.407 7.732-11.8 14.243-10.173 6.61 1.627 16.87 20.763 27.264 24.822 6.697 8.963-1.627 17.092-4.069 18.72-2.442 1.627-13.429 6.104-16.067-.407-1.627-6.611-4.883-6.29-4.883-6.29s-62.088 60.867-112.31 48.832c-62.267.41-113.63-48.83-113.63-48.83l-4.477 4.883s-4.883 6.29-7.324 4.883c-2.442-.407-13.023-7.326-13.837-14.243-.813-6.918 6.611-11.394 6.611-11.394s17.906-13.836 19.94-21.16c4.07-4.07 11.8 2.848 11.8 2.848s47.206 64.123 99.7 60.868z" fill-rule="evenodd" stroke="#000" stroke-width="1.7173346" fill="#f7c600"/>
      <path d="M364.464 398.476s4.842-1.29 6.618.727c1.776 2.017 13.961 13.961 13.961 13.961" stroke="#000" stroke-width="1.7173346" fill="none"/>
      <path d="M366.62 404.122l-4.843 3.632s12.186 2.42 9.442 10.41M620.297 398.066s-2.421-1.291-6.214 1.633c-3.793 2.826-13.397 13.668-13.397 13.668" stroke="#000" stroke-width="1.7173346" fill="none"/>
      <path d="M609.406 403.804l6.246 4.036s-10.976.726-8.664 11.137" stroke="#000" stroke-width="1.7173346" fill="none"/>
      <path d="M416.496 411.39l-.362.496c-.736-.364-1.676-.431-2.619-.203-.692.179-1.996.83-3.912 1.96l-16.126 9.4-.44-.314 4.061-18.86c.491-2.272.716-3.662.673-4.14-.033-.48-.374-1.013-1.02-1.696l.362-.496 8.692 6.199-.363.496-.294-.21c-.786-.66-1.39-.843-1.816-.86-.3-.013-.642.11-.727.369-.114.16-.216.377-.303.66-.081.266-.267 1.021-.627 2.268l-2.672 11.782 9.316-6.481c1.12-.667 1.847-1.13 2.18-1.39.334-.26.683-.606.749-.737.19-.268.287-.666.291-.862.003-.306-.096-.612-.296-.916-.276-.426-.729-.863-1.362-1.314l.363-.496 6.96 4.244m6.79 28.018l-.29.633-10.218-6.687.292-.633.648.364c.667.31 1.079.469 1.636.446.323.002.641-.123.966-.376.231-.173.616-.76 1.161-1.73l7.03-12.863c.646-.999.834-1.662.866-1.96.031-.307-.067-.642-.293-1.003-.212-.366-.692-.698-1.14-.997l-.648-.366.291-.633 10.217 6.687-.292.633-.648-.364c-.667-.31-1.078-.46-1.634-.446-.324-.003-.647.12-.97.368-.231.173-.616.76-1.16 1.729l-7.03 12.864c-.647.999-.836 1.662-.866 1.96-.022.313.074.662.286 1.017.226.362.614.692 1.161.991l.649.366m37.323-8.764l-2.634 7.396-.672-.204c.029-2.267-.46-4.174-1.468-6.718-1.008-1.644-2.331-2.609-3.971-3.193-1.668-.668-3.03-.68-4.388-.063-1.366.606-2.63 1.47-3.626 2.894a19.392 19.392 0 0 0-2.38 4.627c-.716 2.01-1.107 3.86-1.173 6.644s.301 3.072 1.1 4.168c.809 1.09 1.94 1.894 3.396 2.412.606.18 1.04.312 1.602.397.677.077 1.18.112 1.81.104l1.666-4.363c.294-.826.426-1.377.397-1.664-.026-.288-.183-.694-.476-.919-.28-.32-.674-.671-1.179-.761l-.642-.193.204-.673 10.196 3.632-.204.672c-.792-.224-1.372-.308-1.74-.263-.364.048-.68.228-.977.64-.163.164-.38.627-.662 1.39l-1.664 4.363c-1.664.12-3.111.071-4.672-.147a22.762 22.762 0 0 1-4.668-1.14c-1.99-.709-3.66-1.667-4.68-2.673a13.666 13.666 0 0 1-2.72-3.376c-.686-1.244-1.114-2.618-1.289-3.824-.216-1.68-.008-3.403.62-6.167 1.126-3.166 3.183-6.427 6.176-6.814 2.993-1.386 6.17-1.48 9.633-.283 1.042.371 1.96.788 2.728 1.26.424.246 1.072.743 1.943 1.496.886.746 1.42 1.16 1.606 1.217.29.103.694.096.916-.023.326-.128.696-.46 1.11-.964l.673.204m16.724 26.238l-.09.601-11.614-1.744.09-.6.732.11c.638.097 1.17.06 1.694-.107.304-.11.66-.336.768-.682.168-.241.32-.914.488-2.019l2.194-14.486c.171-1.126.218-1.838.142-2.138-.077-.3-.284-.68-.62-.841-.326-.27-.796-.463-1.413-.646l-.73-.11.09-.602 11.614 1.744-.091.601-.731-.11c-.639-.097-1.17-.062-1.694.107-.306.109-.666.336-.784.678-.169.242-.322.916-.489 2.02l-2.194 14.484c-.17 1.126-.218 1.839-.141 2.138.087.302.293.687.617.868.337.262.814.439 1.431.632l.731.111m29.886-7.26l-.439 7.861-19.748 1.008-.031-.607.738-.038c.646-.033 1.168-.174 1.64-.424.277-.167.482-.441.616-.82.107-.27.132-.961.076-2.077l-.746-14.63c-.068-1.138-.166-1.846-.29-2.123-.134-.279-.393-.612-.776-.7-.372-.201-.87-.286-1.493-.264l-.738.038-.031-.607 11.869-.606.03.607-.967.06c-.646.032-1.169.174-1.64.423-.277.168-.488.442-.633.822-.107.269-.132.96-.076 2.076l.723 14.172c.068 1.137.16 1.86.308 2.171.147.3.416.616.806.66.279.084.943.1 1.993.046l1.863-.094c1.181-.06 2.166-.319 2.92-.774.767-.466 1.411-1.147 1.934-2.072.634-.927 1.013-2.278 1.438-4.064l.673-.034m21.602-3.748l-7.638 2.262-.276 2.346c-.087.78-.063 1.396.072 1.847.178.698.661.967 1.118 1.106.334.083 1.07 0 2.206-.248l.174.683-7.097 2.12-.174-.682c.731-.346 1.267-.847 1.606-1.609.337-.672.624-1.929.862-3.771l2.646-19.308.299-.089 12.922 16.2c1.23 1.439 2.146 2.302 2.746 2.692.463.218 1.013.267 1.68.116l.174.682-10.324 3.084-.174-.682.426-.127c.829-.248 1.377-.637 1.643-.868.181-.237.224-.613.13-.828a2.014 2.014 0 0 0-.268-.664c-.06-.088-.324-.434-.826-1.039l-1.927-2.32m-.883-1.006l-6.376-6.399-1.077 8.327 6.462-1.927m28.46-29.002l2.866 6.309-.621.28c-.967-1.06-1.781-1.763-2.443-2.08-.666-.339-1.413-.49-2.24-.466-.46.023-1.147.281-2.064.774l-1.46.786 8.136 16.132c.639 1.003.929 1.601 1.17 1.796.26.189.687.294 1.009.316.426.007.919-.14 1.478-.441l.661-.36.288.636L660.986 442l-.288-.636.661-.36c.669-.306.973-.664 1.21-1.043.18-.27.262-.607.22-1.013-.018-.289-.291-.926-.82-1.908l-8.136-16.132-1.418.762c-1.321.71-2.13 1.606-2.428 2.387-.419 1.232-.36 2.631.206 4.197l-.66.296-2.864-6.31 17.619-9.472m13.369-7.92l6.46 7.237.363-.267c1.128-.86 1.678-1.82 1.661-2.911s-.492-2.38-1.394-3.866l.499-.376 7.022 9.31-.498.376c-.87-.934-1.72-1.697-2.648-1.986-.82-.397-1.636-.636-2.146-.418-.618.109-1.36.483-2.198 1.123l3.778 6.008c.739.98 1.23 1.649 1.473 1.708.262.162.646.213.878.181.333-.031.762-.238 1.26-.62l1.061-.802c1.661-1.263 2.7-2.64 3.116-4.16.426-1.628.263-3.243-.487-6.146l.486-.366 3.463 6.264-16.368 11.691-.366-.486.69-.446c.616-.389.862-.794 1.038-1.216.136-.294.162-.636.06-1.026-.062-.282-.43-.87-1.102-1.76l-8.822-11.697c-.607-.804-1.001-1.281-1.183-1.432a1.672 1.672 0 0 0-1.02-.342c-.616.006-1.063.226-1.64.662l-.69.446-.366-.486 14.882-11.226 3.966 6.268-.498.376c-1.223-1.094-2.277-1.746-3.162-1.966-.877-.217-1.834-.14-2.87.231-.609.212-1.686.826-2.932 1.841l-1.836 1.386"/>
      <path d="M380.637 413.063c72.788 69.04 144.131 60.122 213.933 0" fill="none"/>
    </g>
  </g>
</svg>
