<svg xmlns="http://www.w3.org/2000/svg" xmlns:xlink="http://www.w3.org/1999/xlink" height="480" width="640" version="1">
  <path fill="#fff" d="M0 0h640v480H0z"/>
  <path d="M204.348 314.932s-.618-3.608 6.144-6.08c6.66-2.673 7.18-12.162 6.847-18.664 0 0-3.48 6.08-7.7 8.107 0 0-6.883 3.686-7.198 10.436 0 0-.066 2.606-.673 4.464-.284 1.067-3.332-8.674 2.442-16.746 6.968-7.4 7.624-13.408 2.886-26.1 0 0-.444 7.093-6.107 11.146-4.662 4.064-6.266 4.366-6.18 14.032 0 0 .074 3.362-1.703 4.443 0 0-3.627-6.302-4.69-8.81-.96-3.607-1.406-4.99 2.74-9.042 0 0 13.28-8.68 3.7-27.362 0 0-.296 6.47-4.884 10.29-4.69 3.82-4.22 6.392-4.442 13.018-.22 6.626-.666 6.16-1.183 7.094 0 0-8.438-16.613-1.924-23.776 6.613-8.263 10.14-9.978 2.96-26.336 0 0 .32 7.874-6.43 11.77-6.747 3.9-4.414 13.02-4.414 13.02s.37 3.43-.816 6.924c0 0-8.13-16.868-.37-24.398 6.687-7.26 7.032-12.317 3.48-22.607 0 0-.446 4.766-4.072 7.328-3.627 2.672-6.614 6.146-6.848 16.046 0 0 .296 6.937-.692 8.886 0 0-3.406-6.314-4.367-10.446-.962-4.133-1.333-6.66 1.184-10.68 2.617-4.132 12.61-16.98.692-33.063 0 0-.37 6.636-3.406 10.624-3.036 4.99-1.628 10.914-.962 16.436.666 4.622-1.664 8.887-1.664 8.887s-6.18-9.61-4.07-20.424c1.11-10.913-3.33-19.878-13.398-26.348 0 0-7.328 16.994 2.666 26.647 0 0 8.612 8.42 10.66 18.63 0 0-6.44-.623-12.29-12.004-6.846-11.38-17.986-9.69-18.8-9.667 0 0 2 17.618 20.662 22.607 0 0 11.916 2.027 14.136 10.767 0 0 2 6.003 2.813 9.2 0 0-3.776-1.482-7.266-6.627-3.48-6.146-3.036-6.77-14.804-6.938 0 0-4.736-.646-7.263-3.898 0 0 4.96 18.63 17.69 18.476 0 0 11.622-1.247 18.136 14.032 0 0-1.26-.78-2.96-1.96-1.704-1.168-6.997-3.36-14.61-2.338-8.61 1.014-10.88-.39-13.026-1.09 0 0 8.686 16.746 20.726 11.07 12.14-4.68 18.003 12.377 18.136 12.706 0 0-1.628-1.246-3.776-3.36-2.147-2.106-6.603-4.7-16.026-2.028 0 0-6.07 2.34-12.213.468 0 0 6.92 11.46 19.763 9.61 13.842-1.96 17.32 10.212 17.32 10.212s-1.86-1.09-3.108-2.106c-1.26-1.013-6.922-3.664-16.914-.7-9.993 2.96-13.62-.47-13.62-.47s6.66 10.136 16.21 11.304c0 0 6.922-.077 8.438-1.012 2.617-.936 9.18-2.417 13.768 4.21 0 0-1.268.233-3.183-.624 0 0-7.106-2.673-12.61 1.948 0 0-4.81 4.91-11.62 3.976 0 0 8.808 8.676 22.798 1.326 0 0 4.737-3.43 8.216-.78 3.48 2.662 11.648-2.67 11.648-2.67z" stroke-miterlimit="10" fill="#369443" stroke="#010002" stroke-width="1.606"/>
  <g stroke-miterlimit="10" fill="#f4c63d" stroke="#010002" stroke-width="10">
    <path d="M282.21 103.676s-1.624-14.607 9.968-16.902c12.09-1.466 18.06 1.091 18.06 1.091l6.429 10.664-1.876 7.171-7.6 3.43s1.282-11.017-8.817-11.246c-2.669-.068-4.063.967-8.11.316-4.07-.647-6.247 3.826-7.164 4.487z" stroke-width="1.6064999999999998"/>
    <path d="M363.778 139.686c-1.727 2.234-8.636 3.014-8.636 3.014s7.106 6.467 10.166 13.262c3.06 7.796-82.367.062-82.367.062s3.702-2.66 6.22-7.64c0 0-3.776 1.404-7.66-2.338 0 0 2.81.936 6.612-4.677 0 0 6.478-7.017 9.327-8.888 0 0-1.778 1.092-6.07-1.247 0 0 7.4-.936 10.066-13.664 0 0 .444-2.806 3.266-6.868 2.813-4.064 2.22.78 7.402-6.467 0 0 2.37-4.417.296-7.12-2.072-2.702-4.293-1.714-8.636-4.313-4.343-2.698-6.267-4.063-4.787-8.066 1.48-4 6.33-3.378 6.872-3.378.643 0 .84-3.483 6.677-6.873s17.32-1.36 19.196-.312c1.876 1.04 9.474 3.274 13.916 14.6 4.44 11.224-1.184 16.434 10.906 32.376 0 0-4.836 1.04-7.946.104 0 0 6.266 11.12 17.27 16.422z" stroke-width="1.606"/>
    <path d="M310.93 92.217c-9.846-.468-6.07-9.848-6.07-9.848" fill="none" stroke-width="1.606"/>
    <path d="M328.028 93.603s-1.74-.818-3.21-2.767c-2.066-2.736-6.672-4.063-9.16-1.48 0 0-2.618 2.806-4.74 2.96 0 0 2.618.78 4.268 2.38 1.74 1.697 3.662 2.766 6.143 2.416 2.69-.36 2.997-1.714 4.218-2.632 1.22-.82 2.48-.976 2.48-.976z" stroke-width="1.606"/>
  </g>
  <path d="M202.813 336.466s-.222-6.314 7.772-6.782l23.637 32.74s-.888 2.103-11.647 1.87c0 0-1.128-.008-1.72 1.24-.91 1.914-18.042-29.068-18.042-29.068z" stroke-miterlimit="10" fill="#369443" stroke="#010002" stroke-width="1.606"/>
  <g id="a" transform="translate(3.697 26.17) scale(.16066)" fill="#f4c63d" stroke="#010002" stroke-width="10">
    <path d="M1494.918 1807.886s-49.82 86.606-110.13 86.987c0 0-103.74-12.628-133.073 14.498-20.464 18.916-41.3 34.62-49.82 82.846-8.623 48.326 16.387 68.682 22.287 60.763 0 0 4.69 34.618 38.676 26.643 0 0 1.967 36.9 62.276 18.64 60.31-17.26 86.22-11.736 97.02-71.8 11.8-60.06 22.693-69.078 33.43-66.276 14.423-9.666 41.618-18.8 61.62-30.376 18.062-10.4 87.187-46.666 110.786-48.326 23.6-2.76 18.366-82.164 18.366-82.164h-60.964l-29.498-43.493-60.964 63.166zm192.01-429.409s-60.966 49.707-112.096 0c0 0-20.66 24.863-61.948 17.604-41.3-7.248-48.182-28.996-62.116-41.42 0 0-36.728 20.84-66.882 4.38-30.166-16.463-30.166-41.316-30.166-41.316s-62.443 10.338-79.32-26.207c-26.876-36.646-10.488-70.764 3.934-74.897 0 0-66.7 14.864-72.11-33.828-13.11-41.422 16.39-62.824 16.39-62.824s-119.47-.674-168.473-37.97c0 0-40.643-26.644-16.388-62.468 0 0-107.607-17.26-134.384-60.062 0 0-11.8-11.736-7.866-32.448 0 0 .666-11.736 12.466-12.427 0 0-122.6-18.937-167.982-69.372 0 0-17.044-18.64-8.622-43.492 0 0 1.803-6.66 4.763-10.96 0 0-111.606-23.66-166.67-73.266 0 0-31.787-28.32-16.4-66.29 0 0-186.606-61.073-143.24-133.228 0 0-87.186-28.306-69.663-107.008 0 0-72.11-36.69-40.643-94.68 30.114-66.6 122.686 9.664 232.08 39.96 0 0 296.28 93.28 442.188 118.106l414.673 617.222 241.892 93.2 24.68 172.693z"/>
    <path d="M1689.878 923.866s-38.867-29.17-108.163 6.178c0 0-23.333 16.068-41.687-1.636-16.336-14.71-16.776-41.83 4.322-67.49 61.623-38.316 70.798-163.263-7.866-200.898 0 0-114.063-67.666-632.32-174.096 0 0-36.044-9.717-63.727-6.067-20.672 6.13-34.743 22.782-37.66 37.886 0 0-18.716 63.188 44.206 83.62 0 0 28.408 13 67.687 21.402 0 0-32.16-6.962-46.887 24.863-13.11 30.376 6.9 61.442 64.898 81.463 0 0 16.968 6.21 38.677 11.736 0 0-60.476 14.497-26.22 66.23 0 0 21.632 42.802 98 60.396 0 0-67.03 6.213-16.716 60.408 0 0 17.7 29.686 73.42 40.732 0 0-42.282 1.38-20.977 39.36 21.306 37.972 71.44 69.373 120.776 62.826 0 0 26.72 1.382 46.403-2.76 0 0-46.87 23.473-19.338 62.824 0 0 20.32 27.96 71.126 26.68 0 0-13.187 43.944 24.09 60.68 29.008 12.943 63.1-7.768 63.1-7.768s-9.834 47.118 32.448 63.687c0 0 21.14 10.873 62.606 0 0 0 24.09 63.86 109.638 16.06 86.646-37.798 20.166-366.197 20.166-366.197zm6.074 489.39s-12.662 67.393-112.09 162.22c0 0-76.8 67.746-74.834 146.767 2.003 79.44-13.766 88.368-43.92 116.292 0 0 62.276 4.833 92.43-36.69 0 0-1.312 69.037-10.49 76.26 0 0 19.632 1.246 47.864-29.686 0 0 17.044-17.96 32.777-24.863 0 0-18.366 47.636-3.934 91.82 0 0 4.69-17.26 28.843-24.864 0 0 43.92-8.976 60.964-72.49 0 0 11.144-42.112 79.976-79.392 0 0 78.007-29.42 76.04-67.87-1.966-38.447-173.618-244.604-173.618-244.604z"/>
    <path d="M2066.624 2282.172s-17.87 78.866-79.976 72.49c0 0-43.922-4.143-40.644-77.323 0 0-64.898 34.618-76.386-61.088 0 0-68.998 13.807-68.342-66.276 0 0-66.066 9.666-48.61-61.443 0 0-69.663 16.88-69.663-61.088 0 0-139.628-23.167 161.428-288.676l269.69 164.642-48.61 368.66z" stroke-miterlimit="10"/>
    <path d="M2086.368 1928.287s-43.266 38.386-74.076-18.916c0 0-41.964-2.07-48.61-33.828 0 0-34.087-3.462-40.642-36.9 0 0-46.642-4.832-46.23-44.183 0 0-84.62-6.63-.028-102.333 84.69-96.802 228.163 168.946 228.163 168.946l-19.667 76.216zm48.276-23.747c41.94 0 89.463 261.996 77.13 419.84-4.48 67.328-36.19 104.162-77.13 104.162s-72.66-46.824-77.13-104.16c-12.333-167.846 36.19-419.843 77.13-419.843"/>
    <ellipse ry="86.961" rx="68.032" cy="1902.468" cx="2133.643"/>
    <path d="M1936.906 2277.34s6.666-138.766 126.824-337.694m-202.21 286.606s-18.683-80.083 160.773-316.88c0 0-19.666-66.612 40.643-92.866m-249.76 343.46s-6.243-86.642 160.607-284.433c0 0-14.66-61.088 46.446-91.82m-264.66 314.81s6.228-87.677 168.472-268.89c0 0-8.117-62.468 60.023-84.916m-278.16 292.72s11.8-100.106 182.896-261.987c0 0-6.9-39.36 61.132-79.393" stroke-miterlimit="10" fill="none"/>
    <path d="M372.267 431.976s134.384 77.806 662.896 166.612M431.91 638.984S796.627 667.63 966.01 672.21m-389.86 0s213.37 66.98 463.238 109.247m-281.17 30.31s241.072 67.906 366.164 67.616m-194.41 46.31s203.908 42.626 266.672 47.64m-126.777 67.297s148.806 22.61 208.03 21.4m-23.17 69.038s60.166-2.826 89.08-7.626m-33.36 104.278s61.132-13.807 81.286-33.138m-6.9 133.242s39.333-16.188 68.343-66.61m37.693 93.646s30.48-27.27 32.448-67.647m81.614 81.464s-11.413-9.846-3.606-62.64m-11.146-62.826s-6.9-12.264-3.933-31.686m-211.082-681.293s68.83 27.616 91.776 66.686c22.944 37.97 7.833 74.873 0 96.047-3.936 10.64-62.443 104.16 4.69 171.816m-96.382 73.626s.33-.346 24.684-7.94m-169.784-91.473s41.026 8.26 81.286 8.63m-137.99-109.77s48.183 4.833 93.414 4.142m-166.194-109.77s69.486 13.808 106.862 14.6m-164.64-132.663s86.7 24.46 149.463 33.138m141.696 60.397s-61.62 67.3 12.466 110.46c0 0-30.81 48.326 30.81 98.722m-16.388 23.82s-9.177 92.164 103.674 92.16c0 0-21.633 82.167 87.186 79.396 0 0 12.466 66.686 91.12 62.468m-173.327 721.441s-17.84 3.97-66.64 0m-108.818 48.326s-64.41-8.286-61.787 109.768m84.666-82.846s-49.166-6.213-46.887 108.388m620.664-384.636s-23.6 4.833-39.988 23.473c-16.39 18.64-47.864 16.188-47.864 16.188s17.044-13.807 22.944-48.326c6.9-34.62 24.91-44.876 24.91-44.876m-66.3-32.688s-23.698 4.833-39.986 23.473c-16.388 18.64-47.864 16.188-47.864 16.188s17.044-13.807 22.944-48.326c6.9-34.62 24.91-44.874 24.91-44.874m23.76 188.637s-20.604 4.22-34.913 20.496c-14.31 16.276-41.783 13.26-41.783 13.26s14.882-12.066 20.033-42.194c6.16-30.14 21.76-39.18 21.76-39.18" fill="none"/>
  </g>
  <use transform="matrix(-1 0 0 1 647.196 0)" xlink:href="#a" width="100%" height="100%" stroke="#010002" stroke-width="10"/>
  <path fill="#0081c6" stroke="#010002" stroke-width="1.6064999999999998" stroke-miterlimit="10" d="M466.06 266.929l-14.32 61.816-6.908-4.244 13.94-69.222-9.72.178 23.071-42.248 1.638 48.71zm36.97 13.06l-42.979 60.784-4.664-6.21 42.816-60.14-8.661-4.649 39.206-26.896-20.367 43.77z"/>
  <path fill="#0081c6" stroke="#010002" stroke-width="1.6064999999999998" stroke-miterlimit="10" d="M492.61 242.046l-38.466 73.966-6.928-3.46 38.726-73.813-9.432-2.477 32.668-34.62-10.486 47.47z"/>
  <path d="M444.626 338.67l-2.88 11.78 7.887 7.86-11.16 47.092-9.916-13.32-14.694 6.868 11.16-47.093 10.336-2.88 2.682-11.76s3.127-1.226 6.683 1.464z" fill="#0081c6" stroke="#010002" stroke-width="1.606" stroke-miterlimit="10"/>
  <path d="M447.266 330.802l-6.678 10.694 6.688 9.74-22.342 42.46-6.306-16.67-16.878 2.62 22.343-42.46 10.692.036 6.483-10.627s3.988-.008 6.998 3.21z" fill="#0081c6" stroke="#010002" stroke-width="1.606" stroke-miterlimit="10"/>
  <path d="M448.226 333.883L433.12 363.07l3.463 10.84-30.837 36.068-2.818-16.664-16.03-1.21 30.837-36.068 10.41 2.666 16.02-20.37s4.298 2.134 4.06 6.66zM66.624 288.898c3.6-1.47 6.193-2.888 6.182-6.73-.002-.916-.61-2.943-1.633-6.08l-24.177-73.89c-1.432-4.39-2.614-7-3.017-7.962-1.087-2.08-3.22-2.928-6.094-4.126h30.729c-3.338 1.678-6.382 2.83-6.363 6.37.01 1.36.39 3.266 1.176 6.717l18.62 67.983 18.604-67.983c.786-2.46 1.19-4.366 1.177-6.718-.036-3.638-3.206-4.96-6.32-6.37H124.1c-2.724 1.092-4.943 1.947-6.083 4.126-.603.96-1.686 3.67-3.016 7.96L90.826 276.09c-1.023 3.137-1.393 6.198-1.634 6.162 0 0-1.112 4.673 6.183 6.668h-29.96zm616.231-7.698v-83.663c0-1.447-.238-2.666-.716-3.33-.477-.77-2.664-2.994-6.618-4.196h27.689c-2.963.982-6.04 3.366-6.617 4.162-.477.796-.716 1.918-.716 3.366v83.66c0 1.497.247 2.643.74 3.44.494.796 2.63 2.738 6.493 4.16h-27.689c2.964-1.348 6.04-3.426 6.618-4.197.477-.77.716-1.906.716-3.4z" fill="#0081c6" stroke="#010002" stroke-width="1.606" stroke-miterlimit="10"/>
  <path d="M324.823 309.767s74.102-32.838 74.287-108.803H260.636c.186 76.966 74.287 108.803 74.287 108.803z" fill="#fff" stroke="#010002" stroke-width="1.606"/>
  <g fill="#a60032" stroke="#010002" stroke-width="10">
    <path d="M261.96 200.96v48.637s6.676 11.267 11.428 18.317V200.96H261.96z" stroke-width="1.6064999999999998"/>
    <path d="M284.817 200.96v80.01s7.147 7.008 11.428 10.386V200.96h-11.428zm22.867 0v98.9s8.164 6.266 11.43 6.993V200.96h-11.43zm80 0v48.637s-6.676 11.267-11.43 18.317V200.96h11.43zm-22.867 0v80.01s-7.147 7.008-11.43 10.386V200.96h11.43zm-22.867 0v98.9s-8.164 6.266-11.43 6.993V200.96h11.43z" stroke-width="1.606"/>
  </g>
  <path d="M399.11 146.773s-36.36 19.02-74.287-1.66c-37.926 20.68-74.287 1.66-74.287 1.66v66.19H399.11v-66.19z" stroke-miterlimit="10" fill="#162667" stroke="#010002" stroke-width="1.606"/>
</svg>
