<svg xmlns="http://www.w3.org/2000/svg" height="480" width="640">
  <defs>
    <clipPath id="a">
      <path fill-opacity=".67" d="M0 0h682.67v612H0z"/>
    </clipPath>
  </defs>
  <g clip-path="url(#a)" transform="scale(.9376)">
    <g fill-rule="evenodd">
      <path d="M0 0l347.416 219.424h420.66v73.142h-420.66L0 611.98V-.003z"/>
      <path d="M0 493.706l364.733-226.732h413.242v-21.941H364.733L0 18.29V61.2l332.79 204.789L0 460.789V493.7z" fill="#ff0"/>
      <path d="M0 611.984l364.733-226.732h413.242v226.732H0z" fill="#40aa40"/>
      <path d="M0 0l364.733 226.732h413.242V0H0z" fill="#ce0000"/>
      <path d="M96.806 266.623c1.227.27 1.66.62 2.766-1.162.261-.897 1.023-2.162 1.686-3.264.887-1.466 1.276-2.04 2.11-.933.64.633 2.69-.634 3.682.078 1.379.917.66.784 1.68-.207.867-1.848.103-1.63-1.12-2.47-.869-.69-3.062.626-3.91.037.3-1.846.888-2.044 1.96-2.403.804.662 3.146-.42 3.87-.404 1.022.214 1.932.327 2.264-1.174.606-1.063.286-.33-.12-1.103-.868-.689-3.061.627-3.91.037-1.116-.844-.931-1.168-.28-2.673.872-.479 1.621-.247 2.699.423 1.109.762 2.866-.718 3.829-.772.876-.996 1.907-1.327 1.266-2.64-.366-.921-.639-1.026-1.84-1.263-1.227-.842-2.826.7-3.293-.66.974-1.396 1.337-1.097 2.618-.312.76.26 3.064-1.1 3.79-1.14 1.092-.316.663.913 1.334-1.806-.267-1.178-2.243.723-3.368.416-1.07.143-1.922-.236-2.023-1.389.016-1.66.786-1.666 1.887-1.426.97.174 3.169-1.031 3.973-1.014 1.169.616 1.626.386 2.438-1.047.673-1.692-.073-.993-1.223-1.86-.868-.69-3.061.626-3.91.037.16-.626.422-1.386 1.007-1.69.846.167 1.674.129 2.639.791 1.047.468 2.772-1.666 3.669-2.243-.17-.964-1.884.408-2.926-.308-.66-.463-1.488-.929-1.696-1.604.691-1.688.303-1.604 1.926-1.068.864-.226 2.328-.212 1.336-1.806-.168-.267-1.013-.166-1.769-.627-.9-.618-1.766-1.24-2.718-1.627-.688-.106-1.687-.328-2.231-.17-.068 1.003.196 1.64.136 2.814.448.732 1.296.76 1.472 1.01-.9.79-1.386.386-2.336.438-1.13-.776-.482-3.18-1.816-2.606.307.706.196 3.376.768 3.928.604.416 1.373.82 1.611 1.378-.96 1.478-1.324 1.396-2.478.68-.964-.662-.66-2.833-1.487-2.722-1.016.767-1.033.732-.823 1.816.064 1.417-.612 3.39.624 4.17 1.367.969 1.64.864.464 2.7-.741.898-1.167.734-2.007.323-.914-.628-.716-2.942-1.423-3.7-1.34-.8-.664-.77-1.68.209-.344 1.266-.094 1.687.466 2.7.464.69.426 3.061 1.2 3.204 1.26.716 1.296.672-.128 1.964-1.117.044-1.697.36-2.464-.666-1.04-.784-.39-3.202-1.712-3.216-1.224.1-1.49.132-1.334 1.806.211 1.472-.336 3.788.848 4.664 1.108.606 1.778.473 2.167 1.147-.346.303-.996 1.24-1.376 1.438-.776.066-1.676-.482-2.466-.666-1.044-.481-.672-1.413-1.407-1.987-.966.313-.983-1.037-1.496.334.198 1.126-.183 2.696.872 3.32.868.69 1.613 1.788 2.47 2.377.986 1.166.699 1.368-.007 3.066-.821.023-1.784-.646-2.678-1.169-.868-.689-.71-2.868-1.668-3.467-.742-.73-.627-1.363-1.679.208-.108 1.107.099 1.187.384 1.964.033 1.131-.27 3.216.769 3.93 1.06.211 2.182.76 3.006 1.043.79.926.103.746-.783 2.183-.667 1.44-.663 1.696-1.439 2.414-.76 1.013-1.06 1.468-.376 2.804z" fill="#ff0"/>
      <path d="M120.918 267.849c.736-1.196 1.187-1.398.034-3.402-.72-.636-1.668-1.946-2.326-3.096-.984-1.623-1.366-2.17-.016-2.613.796-.321.68-3.07 1.497-3.773 1.39-1.098.938-.27.477-1.866-1.36-1.66-1.464-.762-2.712.202-.883.676-.64 3.49-1.622 4.167-1.676-1.067-1.623-1.76-1.43-3.032.827-.633.866-3.608 1.169-4.27.603-1.001 1.07-1.922-.18-2.864-.776-.96-.19-.434-1.06-.313-.883.676-.64 3.49-1.622 4.167-1.22.847-1.436.626-2.476-.731-.092-1.118.38-1.714 1.423-2.69 1.141-.874.478-3.32.816-4.376-.666-1.327-.46-2.666-1.832-2.347-.991.018-1.196.268-1.891 1.448-1.262.967-.482 3.281-1.826 3.274-.893-1.692-.476-1.869.716-2.8.641-.701.207-3.682.462-4.479.144-1.287 1.062-.233-1.126-2.139-1.188-.187-.23 2.671-.966 3.732-.294 1.194-.982 1.948-2.08 1.694-1.416-.637-1.208-1.496-.668-2.674.646-.96.31-3.767.66-4.624 1.027-.986.962-1.467.01-3.008-1.286-1.391-.941-.319-2.196.666-.883.676-.64 3.491-1.622 4.167-.614-.41-1.104-1.001-1.16-1.746.49-.831.744-1.62 1.776-2.486.837-.929-.333-3.67-.699-4.793-.963-.204-.376 2.164-1.447 2.986-.68.62-1.446 1.209-2.066 1.199-1.314-1.303-1.362-.964-.206-2.47.138-1.006.732-2.666-1.126-2.138-.3.066-.666 1.01-1.184 1.667-.926.709-1.842 1.38-2.484 2.277-.37.688-.973 1.66-1.044 2.3.898.463 1.683.46 2.638.98.86-.182 1.203-1.074 1.613-1.168.367 1.272-.198 1.626-.627 2.664-1.162.89-3.11-.769-3.116.886.771-.044 3.177 1.142 3.913.766.62-.476 1.298-1.131 1.866-1.066.976 1.612.763 1.966-.362 2.904-.992.76-2.864-.43-3.091.492.3 1.386.261 1.39 1.34 1.6 1.322.609 2.908 1.898 4.076 1.003 1.434-1.064 1.398-1.294 2.663.686.63 1.147.214 1.623-.602 2.26-.94.721-2.986-.414-3.962.034-1.268 1.103-.932.29-.477 1.866 1.016.869 1.42.736 2.663.686.816-.206 2.97.769 3.42.007 1.166-1.042 1.04-1.146 1.742.916-.404 1.206-.314 1.837-1.687 2.341-1.134.79-3.096-.866-3.634.632-.396 1.34-.471 1.636 1.126 2.14 1.436.363 3.344 1.87 4.62.962.906-.974 1.141-1.699 1.916-1.842.141.487.742 1.662.772 2.034-.267.847-1.069 1.482-1.687 2.341-.867.918-1.626.043-2.384.701-.097 1.16-1.343.63-.288 1.721 1.113.24 2.31 1.232 3.396.4.882-.676 2.283-.997 3.166-1.673 1.462-.68 1.494-.088 2.803 1.23-.306.88-1.21 1.676-2.13 2.38-.882.677-2.916-.392-3.798.284-.966.496-1.461.02-.477 1.866.973.667 1.13.37 1.966.377 1.062.417 2.846 1.672 3.913.764.612-1.03 1.667-2.013 2.164-2.776 1.166-.47.726.189 1.693 1.704 1.1 1.166 1.332 1.276 1.644 2.493.627 1.21.916 1.708 2.424 1.619z" fill="#ff0"/>
      <path d="M98.007 314.604c0-6.32-.826-10.639 0-10.639 46.81 0 68.611-31.916 68.611-63.196 0-21.277-16.26-42.664-46.809-42.664-36.108 0-46.81 20.787-46.81 42.664 0 21.278 17.666 37.237 36.108 37.237 23.406 0 29.267-6.32 46.81-26.697-6.861 26.697-36.108 37.237-46.81 37.237-23.406 0-46.809-16.968-46.809-47.876 0-26.696 17.664-63.192 68.614-63.192 36.108 0 68.611 26.697 68.611 63.192 0 37.237-29.266 63.833-70.216 63.833z" fill="#ff0"/>
    </g>
  </g>
</svg>
