<svg xmlns="http://www.w3.org/2000/svg" height="480" width="640">
  <g fill-rule="evenodd" stroke-width="1pt">
    <path fill="red" d="M0 0h640v480H0z"/>
    <path fill="#00006b" d="M0 0h314.407v167.21H0z"/>
    <g fill="#fff">
      <path d="M162.77 144.4l-12.468-8.416-11.96 8.666 3.796-16.007-11.471-9.26 14.817-.868 4.862-14.274 6.367 14.477 14.477.427-11.604 9.81zM160.634 44.674l-9.976-6.41-9.796 6.362 2.72-11.963-8.781-7.817 11.66-.977 4.367-11.192 4.49 11.349 11.48.9-8.888 7.99zM116.661 80.496l-9.708-6.66-9.922 6.668 3.089-11.673-9.147-7.768 11.607-.664 4.273-11.46 4.091 11.33 11.781.687-9.08 7.666zM204.934 72.47l-9.316-6.01-9.064 6.083 2.608-11.083-8.36-7.096 10.926-.841 3.899-10.468 4.143 10.664 10.763.626-8.362 7.37zM178.882 98.717l-6.21-3.868-6.188 3.907 1.613-7.347-6.482-4.924 7.208-.673 2.804-6.96 2.841 6.93 7.213.63-6.463 4.966z"/>
    </g>
  </g>
</svg>
