<svg xmlns="http://www.w3.org/2000/svg" height="480" width="640" version="1">
  <defs>
    <clipPath id="a">
      <path fill-opacity=".67" d="M-71.873-.012h682.68v612.01h-682.68z"/>
    </clipPath>
  </defs>
  <g clip-path="url(#a)" transform="translate(67.379 .011) scale(.93748)">
    <g fill-rule="evenodd" stroke-width="1pt">
      <path d="M-71.878 407.837V104.428l226.832 161.627-226.832 161.793z"/>
      <path d="M82.217 612.121l263.638-170.644h360.372v170.644H82.217z" fill="#00c"/>
      <path d="M66.917.062l630.19.013v170.672H336.736S69.296-1.626 66.917.062z" fill="red"/>
      <path d="M-71.878 64.076v40.329L163.964 266.03-71.878 407.823v40.327l284.44-192.12-284.44-191.966z" fill="#fc0"/>
      <path d="M-71.878 64.076V.062h94.891l301.313 203.88h371.778v104.261H324.326L23.013 612.063h-94.89V448.16l284.439-192.12-284.44-191.966z" fill="#093"/>
      <path d="M23.013.062h69.194l263.638 170.673h360.372v33.207H324.339L23.026.062zM23.013 612.121h69.194l263.638-170.644h360.372v-33.206H324.339L23.026 612.12z" fill="#fff"/>
    </g>
  </g>
</svg>
