<svg xmlns="http://www.w3.org/2000/svg" height="480" width="640">
  <defs>
    <clipPath id="a">
      <path fill-opacity=".67" d="M-170.67 0H612v612h-682.67z"/>
    </clipPath>
  </defs>
  <g fill-rule="evenodd" clip-path="url(#a)" transform="translate(160) scale(.9376)">
    <path fill="#198a00" d="M-266 0h768v612h-768z"/>
    <path fill="#ef7d00" d="M421.87 183.94h90.126v328.03H421.87z"/>
    <path d="M331.86 183.78h90.029v328.1H331.86z"/>
    <path fill="#de2010" d="M239.96 183.98h91.936V612H239.96z"/>
    <g stroke="#000" fill="#ef7d00">
      <path stroke-linejoin="round" d="M461.61 66.69s33.917-14.494 37.204-17.482c1.494 1.793-13.697 20.021-42.881 26.746 26.696-6.276 49.306-26.998 63.937-26.4 1.346.299 1.046 19.274-69.914 36.71 42.134-11.068 66.637-31.377 66.339-29.136.298.448-4.184 16.986-41.088 28.09 10.31-2.392 38.26-19.424 37.96-16.137.897 1.346-27.043 37.203-77.64 26.66 40.34 10.468 66.487-14.793 70.222-14.344.747.16-7.47 22.113-68.27 23.467 24.366-2.64 17.331-.16 17.331-.16s-14.343 11.206-31.676 3.687c13.697 3.736 16.09 3.886 16.39 6.08-.897 1.493-12.103 3.736-22.86-2.092 8.666 3.686 16.436 4.184 16.684 6.628-.149.448-6.677 3.686-10.607 1.346-4.93-2.242-60.362-30.181-60.362-30.181l77.392-21.217 2.839 1.046zM360.622 141.169c-6.806 0-6.994 6.066-6.994 6.066s-.661.437-.187 3.373c1.124-2 1.686-2.624 1.686-2.624.76.126 3.871 1.062 8.804-2.809-4.496 4.682-1.81 6.431-1.81 6.431s-1.062 3.684 2.372 4.434c-1.061-1.6-.437-2.81-.437-2.81s4.808-.6 4.496-6.369c.187 6.307 3.06 6.618 3.06 6.618s0 2.936 3.121 3.186c-1.686-1.6-1.311-3.81-1.311-3.81s4.069-2.934.624-7.93c2.06-1.186 3.747-4.496 3.747-4.496s-2.81-1.187-4.12-2.186c-.626-1.312-.063-8.492-.063-8.492l-1.686-9.304-4.809 14.487c.187-2.06.313 6.244-6.493 6.244z" stroke-width=".99311166"/>
      <path stroke-linejoin="round" d="M394.237 120.271c.149.16 6.08 6.679 9.86 6.38 1.793-1.496-3.736-4.782-3.736-6.629 1.943 1.793 10.16 8.816 16.39 6.276 2.091-2.988-3.736-2.64-10.16-10.608 4.482 2.988 16.688 9.662 20.917 7.023 2.242-2.391-11.664-9.862-16.286-16.689l-11.962-6.126-16.286 13.297 12.262 6.976z" stroke-width=".99311166"/>
      <path stroke-linejoin="round" d="M376.867 74.863s6.628-3.287 27.641-1.644c2.39.299 16.09-4.333 19.126-6.677 6.424-1.196 26.893-6.678 32.422-9.861 3.886-.449-1.047 7.171-6.976 8.964-6.23 2.391-24.206 8.966-30.93 8.069 8.07.16 3.687 6.723-9.86 3.686 6.426 3.686 4.034 4.183 4.034 4.183s-11.366.698-14.343-1.942c7.62 2.839 4.482 3.886 4.482 3.886s-7.769.747-11.366-.897c6.628 1.644 2.69 2.69 2.69 2.69s-4.483.747-8.218-.698c-3.736-1.346-9.413-10.767-9.712-10.767z" stroke-linecap="round" stroke-width=".99311166"/>
      <path stroke-linejoin="round" d="M384.723 123.37l.812 14.612s-.437.76-.812 1.186c-.376.437-10.366-1.661-8.992 6.067 0 3.122.063 3.933 2.186 6.682-.662-2.06-.374-3.497-.374-3.497s2.809 1.686 6.667-2.934c-1.873 4.668-.663 6.181-.126 6.306.438.812-.748 4.496 2.998 4.433-1.436-1.374-.76-3.372-.76-3.372s3.936-.623 2.66-7.742c1.437-1.436 1.999-.062 1.999-.062s.437 4.246 3.871 3.371c1.662.874-.26 3.186-.26 3.186s2.498.062 3.247-2.061c.76-2.123 1.624-6.932-2.498-7.493-.499-1.498 1.624-1.623 1.624-1.623s2.623.874 3.372 2.186c.749 1.311.6-3.434-2.747-3.934-3.997-.126-4.246-.936-4.246-1.123 0-.188-.687-10.616-1-13.612l-6.431.436z" stroke-width=".99311166"/>
      <path stroke-linejoin="round" d="M398.626 136.82c.06-.67-6.817-9.916-6.076-11.11 1.741.368 4.697 4.663 6.91 3.198-.701-1.639-2.768-.716-6.116-4.912-2.346-4.743-2.688-11.864-10.906-19.632 6.32 8.22 17.389 13.038 17.9 10.642s-10.627-11.46-10.066-13.646c2.216 4.486 13.398 14.481 21.638 13.663.666-1.924-6.748-6.808-8.63-9.434-6.263-3.636-19.36-16.679-19.631-18.494-6.126-7.476-8.326-9.737-9.816-10.699-.676-.678-.72-1.326-.833-1.739-3.182-7.601 1.033-9.937 3.6-10.297 2.03-.226 2.619.078 4.08-.63-1.73-.676-3.46-1.309-6.188-1.986 2.266 1.664 8.016.198 6.766 4.963 2.626-.961 7.9-7.364-6.09-8.797-4.663-6.223-23.271-8.226-27.967 14.67.374.32.67.683 1.76 1.472-6.916-2.869-21.868-6.068-27.602-6.997-16.626-4.479-31.648-16.272-33.198-13.946-2.073.92 9.38 11.676 8.784 11.81-9.93-6.79-19.002-9.891-27.442-13.626-6.939-2.22-11.886-7.387-12.642-6.404-2.186 4.627 9.62 16.908 11.698 17.246 2.177 1.28 19.303 9.226 19.06 9.324-26.793-11.708-30.118-13.83-31.412-16.18-2.274-.613-7.812-7.99-9.366-7.609-.846.83.86 12.646 13.168 17.949 2.006 1.462 26.384 10.207 26.146 10.893-.06.171-27.921-11.6-29.004-11.917-6.371-2.107-11.962-9.49-13.196-8.66-1.176.764 3.039 8.746 8.467 11.262 2.846 1.266 13.768 6.66 23.69 10.101.628.227-17.673-6.94-26.472-10.617-3.99-2.214-6.868-4.974-6.476-4.38-.899.693 1.462 12.399 29.728 19.06.746.317 9.963-2.182 9.498-1.86-.114.083-9.144 2.049-10.023 1.981-.782-.12-6.73.686-6.819.842-.299.799 1.793 6.026 16.392 4.146 1.867-.113 11.996-3.689 11.144-2.92-.426.386-13.792 4.729-14.81 4.814-.884.126-6.68.616-6.764 1.116-.212.681 3.476 3.69 11.316 4.171 6.942.37 20.133-4.241 19.868-3.942-.264.299-12.716 4.666-13.042 4.826-.46.266-6.01.602-6.17.863-.371.87 6.677 7.369 27.128.434-2.066 2.789-12.026 4.696-12.011 6.198-.047.364 2.194 2.63 6.677 3.304 1.74.387 4.126.308 6.303-.036 3.91-.783 8.033-2.33 13.27-7.17.626 1.619-13.083 8.466-12.44 9.118 2.974 2.766 12.848-.366 13.496-.717.647-.362 19.016-10.72 18.961-11.918.286 1.636-23.68 14.668-23.421 16.093 1.638 2.464 9.726-.13 10.116-.366.39-.226 10.448-6.668 10.724-6.819.276-.16-11.82 7.08-10.743 8.181-.621 4.701 18.89-3.244 20.41-4.234.762-.494-9.324 4.436-9.36 6.776 3.247 6.491 13.646 3.76 16.26 2.642.802-.606-.944 4.079-.381 3.663.196-.088 2.261-2.63 3.066-4.299-.264 1.634-1.394 3.961-2.069 6.724-.666 2.773-.867 6.902-1.77 9.226-.21 1.46 6.407-2.864 6.446-13.17.666 6.366-2.09 16.399-1.396 16.92 1.39 1.043 6.234-4.997 6.622-9.08 1.142 2.062 3.637 6.368 6.698 7.36-.226-3.122.039-2.979-.889-6.046.636-4.072.61-9.708.74-16.072 6.699 10.727 7.833 16.266 6.268 23.471 1.666.694 4.326-6.734 4.11-9.042 2.139 9.193 11.368 10.672 11.616 10.304z" stroke-linecap="round" stroke-width="1.06941844"/>
      <path stroke-linejoin="round" d="M306.366 67.72s-3.811 2.879-8.664 2.71c1.186 4.742 11.01 1.1 11.01 1.1s-4.743 6.262-8.131 6.099c2.033 1.693 10.687 1.1 12.027.264 1.44-.847 3.98-4.16 3.98-4.16S306.88 83.896 306.61 83.81c-.17 1.186 9.232.762 11.18-1.016 1.948-1.779 6.86-4.404 6.86-4.404s-12.873 8.977-13.466 8.977c4.827 1.27 14.483-1.624 20.666-6.336-9.148 6.098-9.994 7.2-14.662 9.232 4.16.931 6.267 3.726 20.327-2.372 8.046-3.81 12.619-10.766 12.619-10.766-4.997 6.69-12.874 12.366-21.697 17.966-.609 1.017 9.316 6.166 21.86-7.877" stroke-linecap="round" stroke-width="1.06941844"/>
      <path d="M373.461 96.006s.847 3.98 4.236 7.03c3.388 3.049 3.642 6.013 3.642 6.013M371.76 70.09s1.186 3.668 4.668 6.846c3.667 2.286 8.894 9.486 9.317 10.766.41 1.638 2.466 12.62 2.286 13.806M360.162 76.696c.264 1.366-4.998 8.216 2.201 16.262-6.622 7.96-6.62 8.977-6.62 8.977s3.64 2.033 10.163-3.667c10.766 13.213 7.171 19.26 7.171 19.26" stroke-linecap="round" stroke-width="1.06941844"/>
      <path stroke-linejoin="round" d="M362.32 107.211s-.99-1.42.776-6.72c1.69 1.917 3.36 2.326 4.136 3.101.776.776 8.896 1.962 9.412 7.38" stroke-linecap="round" stroke-width="1.06941844"/>
      <path d="M371.864 67.462c0-.399-1.636-3.908-7.736.478 3.27.2 6.6 2.074 7.736-.478z" stroke-width="1.06941844"/>
      <path stroke-linejoin="round" d="M430.094 73.608c.3.16 18.229 4.034 24.206 2.092-7.62 10.16-22.86 3.287-22.86 3.287 7.47 2.24 7.77 2.092 10.16 4.183.747 1.943-13.746 1.046-18.627-1.643 13.298 4.183 13.696 3.884 14.046 6.628.698 2.241-21.814-.698-23.766-3.686 6.976 4.632 9.263 6.628 12.66 7.62-4.034 1.793-11.604 3.686-26.26-6.126 18.078 16.436 34.364 16.39 36.904 18.378-6.276 9.263-30.63-6.628-41.836-13-11.206-7.47 24.603 18.08 27.791 17.63-1.644 2.64-13.447.3-14.196-.896" stroke-width="1.06941844"/>
      <path d="M434.728 90.69c-2.09.3-8.366.3-9.262.16" stroke-linecap="round" stroke-width="1.06941844"/>
      <path stroke-linejoin="round" d="M300.106 66.009s13.636 7.199 19.396 6.69c-1.624 1.44-3.812 2.033-3.812 2.033 1.44.693 6.421 2.71 11.436 1.366-1.44 1.44-3.303 3.049-3.303 3.049s6.166 1.948 11.01-1.101c-1.778 2.202-2.796 3.81-2.796 3.81l4.066.266" stroke-linecap="round" stroke-width="1.06941844"/>
    </g>
  </g>
</svg>
