<svg xmlns="http://www.w3.org/2000/svg" height="480" width="640">
  <defs>
    <clipPath id="a">
      <path fill-opacity=".67" d="M0 0h682.67v612H0z"/>
    </clipPath>
  </defs>
  <g clip-path="url(#a)" transform="scale(.9376)">
    <path fill-rule="evenodd" fill="#319208" d="M0 438.86h1024v73.143H0z"/>
    <path fill-rule="evenodd" fill="#de2010" d="M0 292.67h1024v73.143H0z"/>
    <path fill-rule="evenodd" fill="#ffd200" d="M0 366.71h1024v73.143H0z"/>
    <path fill-rule="evenodd" fill="#de2010" d="M0 146.29h1024v73.143H0z"/>
    <path fill-rule="evenodd" fill="#ffd200" d="M0 73.143h1024v73.143H0z"/>
    <path fill-rule="evenodd" fill="#319208" d="M0 0h1024v73.143H0z"/>
    <path d="M28.891 0v612l343.77-266L28.891 0z" fill-rule="evenodd"/>
    <path fill-rule="evenodd" d="M0 0h29.267v612H0z"/>
    <path d="M0 0v612l373.03-266L0 0z" fill-rule="evenodd"/>
    <path fill-rule="evenodd" d="M0 219.43h1024v73.143H0z"/>
    <path d="M0 0v612l343.77-266L0 0z" fill-rule="evenodd" fill="#fff"/>
    <path fill="#d62419" fill-rule="evenodd" d="M131.967 114.662l27.271 90.366 97.406.864-77.623 63.863 29.296 92.886-76.178-67.08-79.296 66.666 31.064-89.142-78.309-67.931 94.387 1.986z"/>
    <path d="M60.042 166.226c1.667-2.986 1.988-4.643 10.612-8.292 11.276-32.832 40.129-19.898 66.048 26.637 14.692 6.301 101.814 71.303 100.488 74.961-.663 3.317-11.608.664-11.608.664s-17.246 73.626-17.676 73.626c-32.171-4.311-82.249-4.976-116.411-4.311.331-6.639-9.286-42.461-9.286-42.461s-8.292-2.663 6.638-30.843c14.924-36.486 17.909-93.192-17.908-88.88z" fill-rule="evenodd" stroke="#000" stroke-width="1.4676462" fill="#f7df00"/>
    <path d="M79.66 162.963a3.648 3.648 0 1 1-7.297 0 3.648 3.648 0 0 1 7.296 0zM116.704 183.472s-28.622 16.26-36.813 16.918M206.68 269.084c-1.99-1.669-106.791-6.633-101.484-41.788M120.679 269.746s11.276 6.633 20.892-10.613M133.28 269.414s7.96 7.296 19.668-8.622M62.644 286.96s7.296.996 8.623-3.317M97.126 328.73c0-.331-7.296-47.094-7.296-47.094 36.039 3.206 73.404 3.428 108.113 9.619" stroke="#000" stroke-width="1.4676462" fill="none"/>
    <path d="M93.483 282.296l9.948 11.607 10.282-9.96 8.622 9.287M124.993 293.677l8.622-7.628 9.287 8.964M144.661 294.898l9.618-8.622 7.296 8.623M166.461 296.238l8.623-6.97 7.627 7.297M187.672 296.23l6.301-6.97" stroke="#000" stroke-width="1.4676462" fill="none"/>
    <path d="M91.821 292.906l10.613 12.272 10.612-9.619 9.286 9.96 10.613-9.286 8.966 10.612 10.944-9.286s8.29 10.281 9.286 10.281 10.944-8.622 10.944-8.622l9.618 10.612 13.266-10.612M93.483 304.847s86.664 3.317 99.492 6.634M107.746 266.06s81.262 4.312 94.187 9.286" stroke="#000" stroke-width="1.4676462" fill="none"/>
    <path d="M91.16 232.218c.664 4.976-6.306 22.22-11.606 28.19-8.624 6.966-7.629 21.667-7.629 21.667.996 6.97 13.93 6.306 16.688 2.322 1.326-13.698 16.918-16.683 16.918-16.683s20.231-6.637 28.864-22.661M131.96 276.33a4.311 4.311 0 1 1-8.624 0 4.311 4.311 0 0 1 8.623 0zM161.187 276.99a4.311 4.311 0 1 1-8.622.001 4.311 4.311 0 0 1 8.622 0z" stroke="#000" stroke-width="1.4676462" fill="none"/>
  </g>
</svg>
