<?xml version="1.0" standalone="no"?>
<!DOCTYPE svg PUBLIC "-//W3C//DTD SVG 1.1//EN" "http://www.w3.org/Graphics/SVG/1.1/DTD/svg11.dtd">
<svg xmlns="http://www.w3.org/2000/svg">
<metadata>Generated by Fontastic.me</metadata>
<defs>
<font id="linea-arrows-10" horiz-adv-x="612">
<font-face font-family="linea-arrows-10" units-per-em="612" ascent="480" descent="-32"/>
<missing-glyph horiz-adv-x="612" />

<glyph unicode="&#67344;" d="M266 612c-141 0-266-116-266-266 0-64 16-106 48-149l36-36-67 0 0-16 88 0 8 8 0 88-16 0 0-71-36 36c-29 41-44 89-44 139 0 132 108 240 240 240 132 0 240-108 240-240 0-132-108-240-240-240l0-16c141 0 266 116 266 266 0 141-116 266-266 266z"/>
<glyph unicode="&#67346;" d="M266 612c-141 0-266-116-266-266 0-64 16-106 48-149l36-36-67 0 0-16 88 0 8 8 0 88-16 0 0-71-36 36c-29 41-44 89-44 139 0 132 108 240 240 240 6 0 10 0 16 0l2 16c-6 1-11 1-17 1z m169-63l-11-12c8-7 16-16 22-23l12 11c-7 8-16 16-23 24z m74-276l-16 6c-3-10-7-20-12-29l16-7c6 10 9 20 13 31z m-116-140c10 6 19 12 28 19l-10 13c-8-7-17-13-26-18z m-8 430c9-6 18-11 26-17l10 12c-9 7-19 13-28 19z m119-192c1-6 1-11 1-16 0-6 0-10 0-16l16-1c1 6 1 10 1 16 0 6 0 11-1 17z m-166-268c10 3 20 8 30 12l-7 16c-9-6-19-9-29-12z m-49-12c11 2 22 4 32 7l-4 16c-10-3-20-6-30-6z m-3 492c10-1 21-3 31-6l4 16c-11 3-22 6-33 7z m216-171l-16-6c3-10 6-20 6-30l16 2c-2 11-4 22-7 33z m-89-247l11-12c8 7 16 16 24 23l-12 11c-7-8-16-16-23-22z m96 147l-16 2c-1-10-3-21-6-31l16-4c3 11 6 22 7 33z m-64 179c7-8 13-17 18-26l14 8c-6 10-12 19-19 28z m26-40c6-9 9-19 12-29l16 6c-3 10-8 20-12 30z m-138 121c10-3 20-7 29-12l7 16c-10 6-20 9-31 13z m146-366l-14 8c-6-9-11-18-17-26l12-10c7 9 13 19 19 28z m-222-112l0-16c6 0 11 0 17 1l-2 16c-6 0-10 0-16 0z"/>
<glyph unicode="&#67346;" d="M266 612c-76 0-136-61-136-136l0-240c0-76 61-136 136-136 76 0 136 61 136 136l0 240c0 76-61 136-136 136z m120-376c0-66-64-120-120-120-66 0-120 64-120 120l0 240c0 66 64 120 120 120 66 0 120-64 120-120z m-120 104c-67 0-104-47-104-104 0-67 47-104 104-104 67 0 104 47 104 104 0 67-47 104-104 104z m0-192c-49 0-88 39-88 88 0 49 39 88 88 88 49 0 88-39 88-88 0-49-39-88-88-88z"/>
<glyph unicode="&#67347;" d="M376 392l-240 0c-76 0-136-61-136-136 0-76 61-136 136-136l240 0c76 0 136 61 136 136 0 76-61 136-136 136z m0-266l-240 0c-66 0-120 64-120 120 0 66 64 120 120 120l240 0c66 0 120-64 120-120 0-66-64-120-120-120z m-240 224c-67 0-104-47-104-104 0-67 47-104 104-104 67 0 104 47 104 104 0 67-47 104-104 104z m0-192c-49 0-88 39-88 88 0 49 39 88 88 88 49 0 88-39 88-88 0-49-39-88-88-88z"/>
<glyph unicode="&#67348;" d="M376 392l-240 0c-76 0-136-61-136-136 0-76 61-136 136-136l240 0c76 0 136 61 136 136 0 76-61 136-136 136z m0-266l-240 0c-66 0-120 64-120 120 0 66 64 120 120 120l240 0c66 0 120-64 120-120 0-66-64-120-120-120z m0 224c-67 0-104-47-104-104 0-67 47-104 104-104 67 0 104 47 104 104 0 67-47 104-104 104z m0-192c-49 0-88 39-88 88 0 49 39 88 88 88 49 0 88-39 88-88 0-49-39-88-88-88z"/>
<glyph unicode="&#67349;" d="M392 136l0 240c0 76-61 136-136 136-76 0-136-61-136-136l0-240c0-76 61-136 136-136 76 0 136 61 136 136z m-136-120c-66 0-120 64-120 120l0 240c0 66 64 120 120 120 66 0 120-64 120-120l0-240c0-66-64-120-120-120z m0 464c-67 0-104-47-104-104 0-67 47-104 104-104 67 0 104 47 104 104 0 67-47 104-104 104z m0-192c-49 0-88 39-88 88 0 49 39 88 88 88 49 0 88-39 88-88 0-49-39-88-88-88z"/>
<glyph unicode="&#67360;" d="M110 264l-12-13 96-97 12 0 192 193-12 12-186-186z"/>
<glyph unicode="&#67361;" d="M206 144l192 193-12 12-186-186-90 91-12-13 96-97z m60-144c0 0 0 0 0 0 68 0 133 27 181 76 48 48 76 113 76 181 0 68-27 133-76 181-48 48-113 76-181 76 0 0 0 0 0 0-68 0-133-27-181-76-48-48-76-113-76-181 0-68 27-133 76-181 48-48 113-76 181-76z m-170 426c46 46 106 70 170 70 0 0 0 0 0 0 64 0 124-26 170-70 46-46 70-106 70-170 0-64-26-124-70-170-46-46-106-70-170-70l0 0c0 0 0 0 0 0-64 0-124 26-170 70-46 46-70 106-70 170 0 64 26 124 70 170z"/>
<glyph unicode="&#67362;" d="M262 176l136 137-12 12-130-130-130 131-12-13 136-137z m-6-176c0 0 0 0 0 0 68 0 133 27 181 76 48 48 76 113 76 181 0 68-27 133-76 181-48 48-113 76-181 76 0 0 0 0 0 0-68 0-133-27-181-76-48-48-76-113-76-181 0-68 27-133 76-181 48-48 113-76 181-76z m-170 426c46 46 106 70 170 70 0 0 0 0 0 0 64 0 124-26 170-70 46-46 70-106 70-170 0-64-26-124-70-170-46-46-106-70-170-70l0 0c0 0 0 0 0 0-64 0-124 26-170 70-46 46-70 106-70 170 0 64 26 124 70 170z"/>
<glyph unicode="&#67363;" d="M266 0c0 0 0 0 0 0 68 0 133 27 181 76 48 48 76 113 76 181 0 68-27 133-76 181-48 48-113 76-181 76 0 0 0 0 0 0-68 0-133-27-181-76-48-48-76-113-76-181 0-68 27-133 76-181 48-48 113-76 181-76z m-170 426c46 46 106 70 170 70 0 0 0 0 0 0 64 0 124-26 170-70 46-46 70-106 70-170 0-64-26-124-70-170-46-46-106-70-170-70l0 0c0 0 0 0 0 0-64 0-124 26-170 70-46 46-70 106-70 170 0 64 26 124 70 170z m290-260l0 16-184 0 0 184-16 0 0-192 8-8z"/>
<glyph unicode="&#67364;" d="M266 0c0 0 0 0 0 0 68 0 133 27 181 76 48 48 76 113 76 181 0 68-27 133-76 181-48 48-113 76-181 76 0 0 0 0 0 0-68 0-133-27-181-76-48-48-76-113-76-181 0-68 27-133 76-181 48-48 113-76 181-76z m-170 426c46 46 106 70 170 70 0 0 0 0 0 0 64 0 124-26 170-70 46-46 70-106 70-170 0-64-26-124-70-170-46-46-106-70-170-70l0 0c0 0 0 0 0 0-64 0-124 26-170 70-46 46-70 106-70 170 0 64 26 124 70 170z m260-242l0 192-16 0 0-184-184 0 0-16 192 0z"/>
<glyph unicode="&#67366;" d="M223 114l137 136 0 12-137 136-12-12 130-130-130-130z m33-114c0 0 0 0 0 0 68 0 133 27 181 76 48 48 76 113 76 181 0 68-27 133-76 181-48 48-113 76-181 76 0 0 0 0 0 0-68 0-133-27-181-76-48-48-76-113-76-181 0-68 27-133 76-181 48-48 113-76 181-76z m-170 426c46 46 106 70 170 70 0 0 0 0 0 0 64 0 124-26 170-70 46-46 70-106 70-170 0-64-26-124-70-170-46-46-106-70-170-70l0 0c0 0 0 0 0 0-64 0-124 26-170 70-46 46-70 106-70 170 0 64 26 124 70 170z"/>
<glyph unicode="&#67366;" d="M112 272l288 0 0-16-288 0z m144-272c0 0 0 0 0 0 68 0 133 27 181 76 48 48 76 113 76 181 0 68-27 133-76 181-48 48-113 76-181 76 0 0 0 0 0 0-68 0-133-27-181-76-48-48-76-113-76-181 0-68 27-133 76-181 48-48 113-76 181-76z m-170 426c46 46 106 70 170 70 0 0 0 0 0 0 64 0 124-26 170-70 46-46 70-106 70-170 0-64-26-124-70-170-46-46-106-70-170-70l0 0c0 0 0 0 0 0-64 0-124 26-170 70-46 46-70 106-70 170 0 64 26 124 70 170z"/>
<glyph unicode="&#67367;" d="M248 112l16 0 0 136 136 0 0 16-136 0 0 136-16 0 0-136-136 0 0-16 136 0z m8-112c0 0 0 0 0 0 68 0 133 27 181 76 48 48 76 113 76 181 0 68-27 133-76 181-48 48-113 76-181 76 0 0 0 0 0 0-68 0-133-27-181-76-48-48-76-113-76-181 0-68 27-133 76-181 48-48 113-76 181-76z m-170 426c46 46 106 70 170 70 0 0 0 0 0 0 64 0 124-26 170-70 46-46 70-106 70-170 0-64-26-124-70-170-46-46-106-70-170-70l0 0c0 0 0 0 0 0-64 0-124 26-170 70-46 46-70 106-70 170 0 64 26 124 70 170z"/>
<glyph unicode="&#67368;" d="M147 172l11-11 98 99 99-98 11 11-99 98 98 99-11 11-98-99-99 98-11-11 99-98z m109-172c0 0 0 0 0 0 68 0 133 27 181 76 48 48 76 113 76 181 0 68-27 133-76 181-48 48-113 76-181 76 0 0 0 0 0 0-68 0-133-27-181-76-48-48-76-113-76-181 0-68 27-133 76-181 48-48 113-76 181-76z m-170 426c46 46 106 70 170 70 0 0 0 0 0 0 64 0 124-26 170-70 46-46 70-106 70-170 0-64-26-124-70-170-46-46-106-70-170-70l0 0c0 0 0 0 0 0-64 0-124 26-170 70-46 46-70 106-70 170 0 64 26 124 70 170z"/>
<glyph unicode="&#67369;" d="M302 126l-131 130 131 130-13 12-137-136 0-12 137-136z m-46-126c0 0 0 0 0 0 68 0 133 27 181 76 48 48 76 113 76 181 0 68-27 133-76 181-48 48-113 76-181 76 0 0 0 0 0 0-68 0-133-27-181-76-48-48-76-113-76-181 0-68 27-133 76-181 48-48 113-76 181-76z m-170 426c46 46 106 70 170 70 0 0 0 0 0 0 64 0 124-26 170-70 46-46 70-106 70-170 0-64-26-124-70-170-46-46-106-70-170-70l0 0c0 0 0 0 0 0-64 0-124 26-170 70-46 46-70 106-70 170 0 64 26 124 70 170z"/>
<glyph unicode="&#67360;" d="M266 317l130-131 12 13-136 137-12 0-136-137 12-12z m0-317c0 0 0 0 0 0 68 0 133 27 181 76 48 48 76 113 76 181 0 68-27 133-76 181-48 48-113 76-181 76 0 0 0 0 0 0-68 0-133-27-181-76-48-48-76-113-76-181 0-68 27-133 76-181 48-48 113-76 181-76z m-170 426c46 46 106 70 170 70 0 0 0 0 0 0 64 0 124-26 170-70 46-46 70-106 70-170 0-64-26-124-70-170-46-46-106-70-170-70l0 0c0 0 0 0 0 0-64 0-124 26-170 70-46 46-70 106-70 170 0 64 26 124 70 170z"/>
<glyph unicode="&#67361;" d="M266 0c0 0 0 0 0 0 68 0 133 27 181 76 48 48 76 113 76 181 0 68-27 133-76 181-48 48-113 76-181 76 0 0 0 0 0 0-68 0-133-27-181-76-48-48-76-113-76-181 0-68 27-133 76-181 48-48 113-76 181-76z m-170 426c46 46 106 70 170 70 0 0 0 0 0 0 64 0 124-26 170-70 46-46 70-106 70-170 0-64-26-124-70-170-46-46-106-70-170-70l0 0c0 0 0 0 0 0-64 0-124 26-170 70-46 46-70 106-70 170 0 64 26 124 70 170z m106-106l184 0 0 16-200 0 0-200 16 0z"/>
<glyph unicode="&#67362;" d="M266 0c0 0 0 0 0 0 68 0 133 27 181 76 48 48 76 113 76 181 0 68-27 133-76 181-48 48-113 76-181 76 0 0 0 0 0 0-68 0-133-27-181-76-48-48-76-113-76-181 0-68 27-133 76-181 48-48 113-76 181-76z m-170 426c46 46 106 70 170 70 0 0 0 0 0 0 64 0 124-26 170-70 46-46 70-106 70-170 0-64-26-124-70-170-46-46-106-70-170-70l0 0c0 0 0 0 0 0-64 0-124 26-170 70-46 46-70 106-70 170 0 64 26 124 70 170z m234-290l16 0 0 192-8 8-192 0 0-16 184 0z"/>
<glyph unicode="&#67363;" d="M266 612c-141 0-266-116-266-266 0-141 116-266 266-266l0 16c-132 0-240 108-240 240 0 132 108 240 240 240 132 0 240-108 240-240 0-60-16-98-44-139l-36-36 0 71-16 0 0-88 8-8 88 0 0 16-67 0 36 34 0 1c32 44 48 96 48 149 0 141-116 266-266 266z"/>
<glyph unicode="&#67364;" d="M66 110c-6 8-12 17-17 26l-14-8c6-9 12-19 19-28z m-31 274l14-8c6 9 11 18 18 26l-13 10c-7-9-13-18-19-28z m-34-128c0-6 0-11 1-16l16 1c0 6 0 10 0 16 0 6 0 11 1 16l-16 1c-1-6-1-11-1-17z m2-33c2-11 4-22 7-33l16 4c-3 10-6 21-6 31z m0 67l16-2c1 10 3 20 6 30l-16 6c-3-11-6-22-7-33z m12 49l16-6c3 10 7 20 12 29l-16 7c-4-10-9-20-12-30z m27-189c-6 9-9 19-12 29l-16-6c4-11 8-21 13-31z m138 333l-6 16c-11-4-21-8-31-13l7-16c9 6 19 9 29 12z m-61-449l8 14c-9 6-18 11-26 18l-10-13c9-7 18-13 28-19z m94-32l2 16c-10 1-20 3-30 6l-6-16c11-3 22-6 33-7z m-49 12l6 16c-10 3-20 7-29 12l-7-16c10-4 20-9 30-12z m-37 460l-8 14c-9-6-19-12-28-19l10-12c8 6 17 12 26 17z m89 30l-2 16c-11-2-22-4-33-7l4-16c10 3 21 6 31 6z m-138-46c-8-8-16-16-23-24l12-11c7 8 14 16 22 23z m0-386l11 12c-8 7-16 14-23 22l-12-11c8-8 16-16 24-23z m169-48c-6 0-10 0-16 0l-2-16c6-1 11-1 17-1z m0 496c-6 0-11 0-17-1l2-16c6 0 10 0 16 0 132 0 240-108 240-240 0-60-16-98-44-139l-36-36 0 71-16 0 0-88 8-8 88 0 0 16-67 0 36 34 0 1c32 44 48 96 48 149 0 141-116 266-266 266z"/>
<glyph unicode="&#67366;" d="M382 306l-13 12-67-66 0-12 67-66 12 12-42 42 173 0 0 16-173 0z m-262-100l13-12 67 66 0 12-67 66-12-12 42-42-173 0 0-16 173 0z m120-6l-66-67 12-12 42 42 0-173 16 0 0 173 42-43 12 13-66 67z m-2 312l0-173-42 43-12-13 66-67 12 0 66 67-12 12-42-42 0 173z"/>
<glyph unicode="&#67366;" d="M266 612c-68 0-133-27-181-76-48-48-76-113-76-181 0-68 27-133 76-181 48-48 113-76 181-76 68 0 133 27 181 76 48 48 76 113 76 181 0 68-27 133-76 181-48 48-113 76-181 76z m-170-426c-46 46-70 106-70 170 0 61 23 119 66 164l339-339c-46-42-103-66-164-66-64 0-124 26-170 70z m346 6l-339 339c46 42 103 66 164 66 64 0 124-26 170-70 46-46 70-106 70-170 0-61-23-119-66-164z"/>
<glyph unicode="&#67367;" d="M416 612l0-16 69 0-469-469 0 69-16 0 0-88 8-8 88 0 0 16-69 0 469 469 0-69 16 0 0 88-8 8z"/>
<glyph unicode="&#67368;" d="M496 27l-469 469 69 0 0 16-88 0-8-8 0-88 16 0 0 69 469-469-69 0 0-16 88 0 8 8 0 88-16 0z"/>
<glyph unicode="&#67369;" d="M386 326l-130-131-130 131-12-13 136-137 12 0 136 137z"/>
<glyph unicode="&#67370;" d="M266 139l-130 131-11-13 136-137 11 0 136 137-11 12z m0 120l-130 131-11-13 136-137 11 0 136 137-11 12z"/>
<glyph unicode="&#67371;" d="M176 376l0-192 8-8 192 0 0 16-184 0 0 184z"/>
<glyph unicode="&#67372;" d="M136 192l0-16 192 0 8 8 0 192-16 0 0-184z"/>
<glyph unicode="&#67373;" d="M266 612c-71 0-128-67-128-128 0-68 63-123 120-128l0-229-68 69-12-13 72-73 12 0 72 73-12 12-68-68 0 229c67 6 120 60 120 128 0 71-67 128-128 128z m0-240c-62 0-112 60-112 112 0 62 60 112 112 112 62 0 112-60 112-112 0-62-60-112-112-112z"/>
<glyph unicode="&#67374;" d="M248 72l16 0 0-32-16 0z m0 48l16 0 0-32-16 0z m0 96l16 0 0-32-16 0z m0-48l16 0 0-32-16 0z m136 216c0 71-67 128-128 128-71 0-128-67-128-128 0-68 63-123 120-128l0-24 16 0 0 24c67 6 120 60 120 128z m-128-112c-62 0-112 60-112 112 0 62 60 112 112 112 62 0 112-60 112-112 0-62-60-112-112-112z m-66-186l-12-13 72-73 12 0 72 73-12 12-61-61-10 0z"/>
<glyph unicode="&#67376;" d="M184 612l16 0 0-612-16 0z m64 0l16 0 0-612-16 0z m64 0l16 0 0-612-16 0z"/>
<glyph unicode="&#67376;" d="M384 384c-68 0-123-63-128-120l-229 0 69 68-13 12-73-72 0-12 73-72 12 12-68 68 229 0c6-67 60-120 128-120 71 0 128 67 128 128 0 71-67 128-128 128z m0-240c-62 0-112 60-112 112 0 62 60 112 112 112 62 0 112-60 112-112 0-62-60-112-112-112z"/>
<glyph unicode="&#67377;" d="M40 264l32 0 0-16-32 0z m144 0l32 0 0-16-32 0z m-48 0l32 0 0-16-32 0z m-48 0l32 0 0-16-32 0z m296 120c-68 0-123-63-128-120l-24 0 0-16 24 0c6-67 60-120 128-120 71 0 128 67 128 128 0 71-67 128-128 128z m0-240c-62 0-112 60-112 112 0 62 60 112 112 112 62 0 112-60 112-112 0-62-60-112-112-112z m-311 190l-73-72 0-12 73-72 12 12-61 61 0 10 61 61z"/>
<glyph unicode="&#67378;" d="M426 322l69-68-229 0c-6 67-60 120-128 120-71 0-128-67-128-128 0-71 67-128 128-128 68 0 123 63 128 120l229 0-69-68 13-12 73 72 0 12-73 72z m-298-178c-62 0-112 60-112 112 0 62 60 112 112 112 62 0 112-60 112-112 0-62-60-112-112-112z"/>
<glyph unicode="&#67379;" d="M296 264l32 0 0-16-32 0z m48 0l32 0 0-16-32 0z m96 0l32 0 0-16-32 0z m-48 0l32 0 0-16-32 0z m-136-16l24 0 0 16-24 0c-6 67-60 120-128 120-71 0-128-67-128-128 0-71 67-128 128-128 68 0 123 63 128 120z m-128-104c-62 0-112 60-112 112 0 62 60 112 112 112 62 0 112-60 112-112 0-62-60-112-112-112z m298 178l62-61 0-10-62-61 13-12 73 72 0 12-73 72z"/>
<glyph unicode="&#67380;" d="M264 266l0 229 68-69 12 13-72 73-12 0-72-73 12-12 68 68 0-229c-67-6-120-60-120-128 0-71 67-128 128-128 71 0 128 67 128 128 0 68-63 123-120 128z m-8-240c-62 0-112 60-112 112 0 62 60 112 112 112 62 0 112-60 112-112 0-62-60-112-112-112z"/>
<glyph unicode="&#67381;" d="M248 376l16 0 0-32-16 0z m0 96l16 0 0-32-16 0z m0-48l16 0 0-32-16 0z m0-96l16 0 0-32-16 0z m-120-200c0-71 67-128 128-128 71 0 128 67 128 128 0 68-63 123-120 128l0 24-16 0 0-24c-67-6-120-60-120-128z m128 112c62 0 112-60 112-112 0-62-60-112-112-112-62 0-112 60-112 112 0 62 60 112 112 112z m66 186l12 13-72 73-12 0-72-73 12-12 61 61 10 0z"/>
<glyph unicode="&#67382;" d="M0 200l612 0 0-16-612 0z m0 64l612 0 0-16-612 0z m0 64l612 0 0-16-612 0z"/>
<glyph unicode="&#67383;" d="M266 612c-68 0-133-27-181-76-48-48-76-113-76-181 0-68 27-133 76-181 48-48 113-76 181-76 68 0 133 27 181 76 48 48 76 113 76 181 0 68-27 133-76 181-48 48-113 76-181 76z m170-426c-46-46-106-70-170-70-64 0-124 26-170 70-46 46-70 106-70 170 0 64 26 124 70 170 46 46 106 70 170 70 64 0 124-26 170-70 46-46 70-106 70-170 0-64-26-124-70-170z m-178 290l16 0 0-176-16 0z m0-208l16 0 0-32-16 0z"/>
<glyph unicode="&#67384;" d="M16 486l164-166 12 12-166 164 69 0 0 16-88 0-8-8 0-88 16 0z m80-486l0 16-69 0 166 164-12 12-164-166 0 69-16 0 0-88 8-8z m400 27l-164 166-12-12 166-164-69 0 0-16 88 0 8 8 0 88-16 0z m-80 486l0-16 69 0-166-164 12-12 164 166 0-69 16 0 0 88-8 8z"/>
<glyph unicode="&#67386;" d="M416 612l0-16 69 0-181-181-194 196-12-12 400-400 12 12-196 194 181 181 0-69 16 0 0 88-8 8z m-320-612l0 16-69 0 181 181 196-196 11 11-401 402-12-12 196-194-181-181 0 69-16 0 0-88 8-8z"/>
<glyph unicode="&#67386;" d="M336 612l0-612 16 0 0 248 133 0-43-42 13-12 67 66 0 12-67 66-12-12 42-42-133 0 0 248z m-279-194l-67-66 0-12 67-66 12 12-42 42 133 0 0-248 16 0 0 612-16 0 0-248-133 0 42 42z"/>
<glyph unicode="&#67387;" d="M0 160l248 0 0-133-42 43-12-13 66-67 12 0 66 67-12 12-42-42 0 133 248 0 0 16-612 0z m264 326l42-43 12 13-66 67-12 0-66-67 12-12 42 42 0-133-248 0 0-16 612 0 0 16-248 0z"/>
<glyph unicode="&#67388;" d="M134 206l-43 42 330 0-43-42 13-12 67 66 0 12-67 66-12-12 42-42-330 0 43 42-13 12-67-66 0-12 67-66z m362 306l16 0 0-612-16 0z m-496 0l16 0 0-612-16 0z"/>
<glyph unicode="&#67389;" d="M206 134l-12-13 66-67 12 0 66 67-12 12-42-42 0 330 42-43 12 13-66 67-12 0-66-67 12-12 42 42 0-330z m-206 378l612 0 0-16-612 0z m0-496l612 0 0-16-612 0z"/>
<glyph unicode="&#67390;" d="M266 20l-106 106-12-13 112-113 11 0 112 113-11 12z m-6 492l-113-113 12-12 106 106 107-106 11 12-112 113z m63-266c0 27-22 48-48 48-27 0-48-21-48-48 0-26 21-48 48-48 26 0 48 22 48 48z m-80 0c0 18 14 32 32 32 17 0 32-14 32-32 0-17-16-32-32-32-18 0-32 16-32 32z m162 106l107-106-107-106 13-12 113 112 0 12-113 112z m-261 1l-12 11-113-112 0-11 113-112 12 11-106 107z"/>
<glyph unicode="&#67391;" d="M362 386l131-130-131-130 13-12 137 136 0 12-137 136z m-226 12l-137-136 0-11 137-136 12 11-130 131 130 130z m119-94c-26 0-48-22-48-48 0-26 22-48 48-48 26 0 48 22 48 48 0 26-22 48-48 48z m0-80c-18 0-32 14-32 32 0 18 14 32 32 32 18 0 32-14 32-32 0-18-14-32-32-32z"/>
<glyph unicode="&#67392;" d="M266 20l-131 130-11-13 136-137 11 0 136 137-11 12z m-6 492l-136-137 11-12 130 130 131-130 11 12-136 137z m63-266c0 27-22 48-48 48-27 0-48-21-48-48 0-26 21-48 48-48 26 0 48 22 48 48z m-80 0c0 18 14 32 32 32 17 0 32-14 32-32 0-17-16-32-32-32-18 0-32 16-32 32z"/>
<glyph unicode="&#67393;" d="M0 362l48 0 0-16-48 0z m128 0l384 0 0-16-384 0z m-128-96l48 0 0-16-48 0z m128 0l384 0 0-16-384 0z m-128-96l48 0 0-16-48 0z m128 0l384 0 0-16-384 0z"/>
<glyph unicode="&#67394;" d="M96 362l320 0 0-16-320 0z m0-96l320 0 0-16-320 0z m0-96l320 0 0-16-320 0z"/>
<glyph unicode="&#67396;" d="M67 318l-67-66 0-12 67-66 12 12-42 42 468 0-43-42 13-12 67 66 0 12-67 66-12-12 42-42-468 0 42 42z"/>
<glyph unicode="&#67396;" d="M266 612c-68 0-133-27-181-76-48-48-76-113-76-181 0-68 27-133 76-181 48-48 113-76 181-76 68 0 133 27 181 76 48 48 76 113 76 181 0 68-27 133-76 181-48 48-113 76-181 76z m170-426c-46-46-106-70-170-70-64 0-124 26-170 70-46 46-70 106-70 170 0 64 26 124 70 170 46 46 106 70 170 70 64 0 124-26 170-70 46-46 70-106 70-170 0-64-26-124-70-170z m-178 226l16 0 0-176-16 0z m0 64l16 0 0-32-16 0z"/>
<glyph unicode="&#67397;" d="M8 612l-8-8 0-496 8-8 496 0 8 8 0 496-8 8z m488-496l-480 0 0 480 480 0z m-263 166l7-4 224 0 0 16-220 0-93 140-7 4-96 0 0-16 92 0z m7 166l224 0 0-16-224 0z"/>
<glyph unicode="&#67398;" d="M8 612l-8-8 0-496 8-8 496 0 8 8 0 496-8 8z m488-496l-480 0 0 480 480 0z m-320 208c-26 0-48-22-48-48 0-26 22-48 48-48 26 0 48 22 48 48l0 32 64 0 0-32c0-26 22-48 48-48 26 0 48 22 48 48 0 26-22 48-48 48l-32 0 0 64 32 0c26 0 48 22 48 48 0 26-22 48-48 48-26 0-48-22-48-48l0-32-64 0 0 32c0 26-22 48-48 48-26 0-48-22-48-48 0-26 22-48 48-48l32 0 0-64z m32-48c0-18-14-32-32-32-18 0-32 14-32 32 0 18 14 32 32 32l32 0z m96 160c0 18 14 32 32 32 18 0 32-14 32-32 0-18-14-32-32-32l-32 0z m0-128l32 0c18 0 32-14 32-32 0-18-14-32-32-32-18 0-32 14-32 32z m-80 80l64 0 0-64-64 0z m-48 16c-18 0-32 14-32 32 0 18 14 32 32 32 18 0 32-14 32-32l0-32z"/>
<glyph unicode="&#67399;" d="M8 612l-8-8 0-496 8-8 496 0 8 8 0 496-8 8z m488-496l-480 0 0 480 480 0z m-48 136l0 208-300 0-86-104 86-104z m-292 192l276 0 0-176-276 0-74 88z m66-160l60 61 60-61 12 12-61 60 61 60-12 12-60-61-60 61-12-12 61-60-61-60z"/>
<glyph unicode="&#67400;" d="M8 612l-8-8 0-496 8-8 496 0 8 8 0 496-8 8z m488-496l-480 0 0 480 480 0z m-233 162l88 130-7 14-176 0-7-14 88-130z m66 128l-73-106-73 106z"/>
<glyph unicode="&#67401;" d="M8 612l-8-8 0-496 8-8 496 0 8 8 0 496-8 8z m488-496l-480 0 0 480 480 0z m-184 162l0 176-14 7-130-88 0-14 130-88z m-16 16l-106 73 106 73z"/>
<glyph unicode="&#67402;" d="M8 612l-8-8 0-496 8-8 496 0 8 8 0 496-8 8z m488-496l-480 0 0 480 480 0z m-346 134l-69 68 367 0 0 168-96 0 0-16 80 0 0-136-341 0 69 68-13 12-73-72 0-12 73-72z"/>
<glyph unicode="&#67403;" d="M8 612l-8-8 0-496 8-8 496 0 8 8 0 496-8 8z m488-496l-480 0 0 480 480 0z m-162 233l0 14-130 88-14-7 0-176 14-7z m-128 80l106-73-106-73z"/>
<glyph unicode="&#67404;" d="M8 612l-8-8 0-496 8-8 496 0 8 8 0 496-8 8z m488-496l-480 0 0 480 480 0z m-304 200l0-72 8-8 112 0 8 8 0 72 66 0 6 16-120 146-12 0-120-146 6-16z m64 140l103-124-47 0-8-8 0-72-96 0 0 72-8 8-47 0z"/>
<glyph unicode="&#67406;" d="M8 612l-8-8 0-496 8-8 496 0 8 8 0 496-8 8z m488-496l-480 0 0 480 480 0z m-190 190l13-12 67 66 0 12-67 66-12-12 42-42-263 0 0-16 263 0z m86 122l16 0 0-144-16 0z"/>
<glyph unicode="&#67406;" d="M8 612l-8-8 0-496 8-8 496 0 8 8 0 496-8 8z m488-496l-480 0 0 480 480 0z m-162 168l7 14-88 130-14 0-88-130 7-14z m-88 122l73-106-146 0z"/>
<glyph unicode="&#67407;" d="M289 398l-137-136 0-12 137-136 12 12-130 130 130 130z"/>
<glyph unicode="&#67408;" d="M269 387l-12 11-137-136 0-11 137-136 12 11-130 131z m108 11l-137-136 0-11 137-136 12 11-130 131 130 130z"/>
<glyph unicode="&#67409;" d="M112 272l288 0 0-16-288 0z"/>
<glyph unicode="&#67410;" d="M70 306l-13 12-67-66 0-12 67-66 12 12-42 42 189 0 0 16-189 0z m226-68l189 0-43-42 13-12 67 66 0 12-67 66-12-12 42-42-189 0z m-46 264l-66-67 12-12 42 42 0-189 16 0 0 189 42-43 12 13-66 67z m-2-296l0-189-42 43-12-13 66-67 12 0 66 67-12 12-42-42 0 189z"/>
<glyph unicode="&#67411;" d="M0 260l67-66 12 12-42 42 221 0 0-221-42 43-12-13 66-67 12 0 66 67-12 12-42-42 0 221 221 0-43-42 13-12 67 66 0 12-67 66-12-12 42-42-221 0 0 221 42-43 12 13-66 67-12 0-66-67 12-12 42 42 0-221-221 0 43 42-13 12-67-66z"/>
<glyph unicode="&#67412;" d="M262 96l66 67-12 12-42-42 0 349-16 0 0-349-42 43-12-13 66-67z m-262-48l612 0 0-16-612 0z"/>
<glyph unicode="&#67413;" d="M166 206l-43 42 349 0 0 16-349 0 43 42-13 12-67-66 0-12 67-66z m-134 306l16 0 0-612-16 0z"/>
<glyph unicode="&#67414;" d="M346 206l13-12 67 66 0 12-67 66-12-12 42-42-349 0 0-16 349 0z m118 306l16 0 0-612-16 0z"/>
<glyph unicode="&#67416;" d="M264 40l0 349 42-43 12 13-66 67-12 0-66-67 12-12 42 42 0-349z m-264 440l612 0 0-16-612 0z"/>
<glyph unicode="&#67416;" d="M248 400l0-136-136 0 0-16 136 0 0-136 16 0 0 136 136 0 0 16-136 0 0 136z"/>
<glyph unicode="&#67417;" d="M266 612c-68 0-133-27-181-76-48-48-76-113-76-181 0-68 27-133 76-181 48-48 113-76 181-76 68 0 133 27 181 76 48 48 76 113 76 181 0 68-27 133-76 181-48 48-113 76-181 76z m170-426c-46-46-106-70-170-70-64 0-124 26-170 70-46 46-70 106-70 170 0 64 26 124 70 170 46 46 106 70 170 70 64 0 124-26 170-70 46-46 70-106 70-170 0-64-26-124-70-170z m-194 82l16 0 0-32-16 0z m24 224c-48 0-72-16-72-48l16 0c0 16 6 32 66 32 34 0 66-19 66-48 0-22-31-43-44-49-1-1-36-19-36-71l0-8 16 0 0 8c0 42 26 66 28 67 2 1 62 26 62 63 0 38-30 64-72 64z"/>
<glyph unicode="&#67418;" d="M364 381l-98-99-99 98-11-11 99-98-98-99 11-11 98 99 99-98 11 11-99 98 98 99z"/>
<glyph unicode="&#67419;" d="M360 262l-137 136-12-12 130-130-131-130 13-12 137 136z"/>
<glyph unicode="&#67420;" d="M242 386l131-130-131-130 13-12 137 136 0 12-137 136z m30-124l-137 136-12-12 130-130-131-130 13-12 137 136z"/>
<glyph unicode="&#67421;" d="M264 496c62 0 120-24 164-68 81-81 91-211 22-303l-34-34 0 69-16 0 0-88 8-8 88 0 0 16-69 0 36 34 0 1c74 98 64 238-23 324-46 47-109 73-176 73z m-202-109l34 34 0-69 16 0 0 88-8 8-88 0 0-16 69 0-36-34 0-1c-74-98-64-238 23-324 46-47 109-73 176-73l0 16c-62 0-120 24-164 68-81 81-91 211-22 303z"/>
<glyph unicode="&#67422;" d="M60 116l36-36-69 0 0-16 88 0 8 8 0 88-16 0 0-69-34 34c-69 92-69 222 22 303 44 44 102 68 164 68l0 16c-66 0-129-26-176-73-87-86-97-226-23-324z m377 317l69 0 0 16-88 0-8-8 0-88 16 0 0 69 34-34c69-92 69-222-22-303-44-44-102-68-164-68l0-16c66 0 129 26 176 73 87 86 97 226 23 324z"/>
<glyph unicode="&#67423;" d="M248 612c-6 0-11 0-17-1l2-16c6 1 10 1 16 1z m-246-288l16 2c-2 11-3 22-3 32l-16 0c0-12 1-23 3-34z m-3 61l16-1c1 11 2 22 4 32l-16 3c-2-11-3-22-4-34z m8 61l16-4c3 11 6 21 11 31l-16 6c-6-11-8-22-11-33z m66-201l23-24-11-11-24 23z m161 386c-11-2-22-4-33-7l4-16c10 3 21 6 32 7z m-60-13c-11-3-21-8-31-13l7-16c10 6 20 10 30 13z m-140-339c6-10 10-21 17-30l13 9c-6 9-11 18-16 28z m2 217l14-8c6 10 11 19 17 28l-14 9c-6-9-12-19-17-29z m-19-168c2-11 6-23 10-33l16 6c-4 10-7 20-10 30z m119 264l-8 14c-10-6-19-13-28-20l10-12c8 6 17 13 26 18z m-63-22c-7-6-13-14-19-21l12-10c6 7 12 14 18 20 1 1 3 3 4 4l-11 12c-2-2-3-3-4-6z m191-423l0-16c6 0 11 0 17 1l-2 16c-6-1-10-1-16-1z m231 322l-16-6c4-10 7-20 10-30l16 3c-2 11-6 23-10 33z m9-162l-16 4c-3-11-6-21-11-31l16-6c6 11 8 22 11 33z m-11 100c2-11 3-22 3-32l16 0c0 12-1 23-3 34z m-1-80l16-3c2 11 3 22 4 34l-16 1c-1-11-2-22-4-32z m-98-169c10 6 19 13 28 20l-10 12c-8-6-17-13-26-18z m41 31c2 2 3 3 4 6 7 6 13 14 19 21l-12 10c-6-7-12-14-18-20-1-1-3-3-4-4z m61 69l-14 8c-6-10-11-19-17-28l14-9c6 9 12 19 17 29z m-169-112c-10-3-21-6-32-7l3-16c11 2 22 4 33 7z m46 18c-10-6-20-10-30-13l6-16c11 3 21 8 31 13z m116 311c-6 10-10 21-17 30l-13-9c6-9 11-18 16-28z m-39 33l-23 24 11 11 24-23z m-433-307l0-16 88 0 8 8 0 88-16 0 0-73-7-7z m384 360l0-88 16 0 0 73 7 7 73 0 0 16-88 0z"/>
<glyph unicode="&#67424;" d="M264 612l0-16c6 0 10 0 16-1l2 16c-6 1-11 1-17 1z m34-2l-3-16c11-2 22-4 32-7l4 16c-11 3-22 6-33 7z m207-303l-16 3c-3-10-6-20-10-30l16-6c4 10 8 21 10 33z m7 61l-16 0c0-10-1-21-3-32l16-2c2 11 3 22 3 34z m-76-168l-11 11 23 24 12-12z m-89 407l-6-16c10-3 20-8 30-13l7 16c-10 6-20 10-31 13z m140-339l-14 7c-6-10-10-19-16-28l13-9c7 10 12 20 17 30z m4 148c2-10 3-21 4-32l16 1c-1 12-2 23-4 34z m-37 89c6-9 12-18 17-28l14 8c-6 10-11 20-17 29z m23-42c4-10 8-20 11-31l16 4c-3 11-6 22-11 33z m-43 91l-11-12c1-1 3-3 4-4 6-6 12-13 18-20l12 10c-6 7-12 16-19 21-1 2-2 3-4 6z m-49 17c9-6 18-11 26-18l10 12c-9 7-18 14-28 20z m30-374l0 73-16 0 0-88 8-8 88 0 0 16-73 0z m-168-71c-6 0-10 0-16 1l-2-16c6-1 11-1 17-1z m-168 41c9-7 18-14 28-20l8 14c-9 6-18 11-26 18z m-90 180c1-12 2-23 4-34l16 3c-2 10-3 21-4 32z m8-61c3-11 6-22 11-33l16 6c-4 10-8 20-11 31z m14 116c3 10 6 20 10 30l-16 6c-4-10-8-21-10-33z m118-269l-7-16c10-6 20-10 31-13l6 16c-10 3-20 8-30 13z m-140 211l16 0c0 10 1 21 3 32l-16 2c-2-11-3-22-3-34z m24 100l14-7c6 10 10 19 16 28l-13 9c-7-10-12-20-17-30z m2-217c6-10 11-20 17-29l14 9c-6 9-12 18-17 28z m61-69l11 12c-1 1-3 3-4 4-6 6-12 13-18 20l-12-10c6-7 12-16 19-21 1-2 2-3 4-6z m-14 319l-12 12 24 23 11-11z m122-362l-4-16c11-3 22-6 33-7l3 16c-11 2-22 4-32 7z m-169 423l0-16 73 0 7-7 0-73 16 0 0 88-8 8z"/>
<glyph unicode="&#67426;" d="M14 2l162 163 0-69 16 0 0 88-8 8-88 0 0-16 69 0-163-162z m306 94l16 0 0 69 162-163 12 12-163 162 69 0 0 16-88 0-8-8z m0 320l0-88 8-8 88 0 0 16-69 0 163 162-12 12-162-163 0 69z m-224-96l88 0 8 8 0 88-16 0 0-69-162 163-12-12 163-162-69 0z"/>
<glyph unicode="&#67426;" d="M14 222l-12-12 208-208 12 12-99 98 101 101 0-69 16 0 0 88-8 8-88 0 0-16 69 0-101-101z m268 146l0-88 8-8 88 0 0 16-69 0 101 101 98-99 12 12-208 208-12-12 99-98-101-101 0 69z"/>
<glyph unicode="&#67427;" d="M368 272l0 16-69 0 211 210-12 12-210-211 0 69-16 0 0-88 8-8z m-364-270l210 211 0-69 16 0 0 88-8 8-88 0 0-16 69 0-211-210z"/>
<glyph unicode="&#67428;" d="M366 306l-13 12-67-66 0-12 67-66 12 12-42 42 189 0 0 16-189 0z m-220 0l43-42-189 0 0-16 189 0-43-42 13-12 67 66 0 12-67 66z"/>
<glyph unicode="&#67429;" d="M32 612l0-612 16 0 0 248 141 0-43-42 13-12 67 66 0 12-67 66-12-12 42-42-141 0 0 248z m321-194l-67-66 0-12 67-66 12 12-42 42 141 0 0-248 16 0 0 612-16 0 0-248-141 0 42 42z"/>
<glyph unicode="&#67430;" d="M0 464l248 0 0-141-42 43-12-13 66-67 12 0 66 67-12 12-42-42 0 141 248 0 0 16-612 0z m264-276l42-43 12 13-66 67-12 0-66-67 12-12 42 42 0-141-248 0 0-16 612 0 0 16-248 0z"/>
<glyph unicode="&#67431;" d="M264 323l0 189-16 0 0-189-42 43-12-13 66-67 12 0 66 67-12 12z m-14-107l-66-67 12-12 42 42 0-189 16 0 0 189 42-43 12 13-66 67z"/>
<glyph unicode="&#67432;" d="M112 149l144-163 144 163 0 363-288 0z m16 347l266 0 0-341-128-136-128 136z"/>
<glyph unicode="&#67433;" d="M149 400l-163-144 163-144 363 0 0 288z m347-272l-341 0-136 128 136 128 341 0z"/>
<glyph unicode="&#67434;" d="M0 400l0-288 363 0 163 144-163 144z m367-272l-341 0 0 266 341 0 136-128z"/>
<glyph unicode="&#67436;" d="M266 616l-144-163 0-363 288 0 0 363z m128-600l-266 0 0 341 128 136 128-136z"/>
<glyph unicode="&#67436;" d="M368 496l0 16-160 0 0-486-68 69-12-13 72-73 12 0 72 73-12 12-68-68 0 469z"/>
<glyph unicode="&#67437;" d="M144 496l144 0 0-469-68 69-12-13 72-73 12 0 72 73-12 12-68-68 0 486-160 0z"/>
<glyph unicode="&#67438;" d="M86 362l-13 12-73-72 0-12 73-72 12 12-68 68 469 0 0-144 16 0 0 160-486 0z"/>
<glyph unicode="&#67439;" d="M496 224l-469 0 69 68-13 12-73-72 0-12 73-72 12 12-68 68 486 0 0 160-16 0z"/>
<glyph unicode="&#67440;" d="M16 288l469 0-69-68 13-12 73 72 0 12-73 72-12-12 68-68-486 0 0-160 16 0z"/>
<glyph unicode="&#67441;" d="M426 160l13-12 73 72 0 12-73 72-12-12 68-68-469 0 0 144-16 0 0-160 486 0z"/>
<glyph unicode="&#67442;" d="M144 16l0-16 160 0 0 486 68-69 12 13-72 73-12 0-72-73 12-12 68 68 0-469z"/>
<glyph unicode="&#67443;" d="M368 0l0 16-144 0 0 469 68-69 12 13-72 73-12 0-72-73 12-12 68 68 0-486z"/>
<glyph unicode="&#67444;" d="M248 612l0-486-68 69-12-13 72-73 12 0 72 73-12 12-68-68 0 486z"/>
<glyph unicode="&#67446;" d="M248 224l16 0 0-32-16 0z m0 144l16 0 0-32-16 0z m0-96l16 0 0-32-16 0z m0 48l16 0 0-32-16 0z m0 96l16 0 0-32-16 0z m0 96l16 0 0-32-16 0z m0-48l16 0 0-32-16 0z m0-288l16 0 0-32-16 0z m0-48l16 0 0-32-16 0z m0-48l16 0 0-8-16 0z m2-80l12 0 72 73-12 12-66-66-66 67-12-13z"/>
<glyph unicode="&#67446;" d="M86 322l-13 12-73-72 0-12 73-72 12 12-68 68 486 0 0 16-486 0z"/>
<glyph unicode="&#67447;" d="M336 264l32 0 0-16-32 0z m-48 0l32 0 0-16-32 0z m-48 0l32 0 0-16-32 0z m144 0l32 0 0-16-32 0z m48 0l32 0 0-16-32 0z m48 0l32 0 0-16-32 0z m-384 0l32 0 0-16-32 0z m48 0l32 0 0-16-32 0z m48 0l32 0 0-16-32 0z m-144 0l32 0 0-16-32 0z m26 70l-73-72 0-12 73-72 12 12-68 68 6 0 0 16-6 0 68 68z"/>
<glyph unicode="&#67448;" d="M426 190l13-12 73 72 0 12-73 72-12-12 68-68-486 0 0-16 486 0z"/>
<glyph unicode="&#67449;" d="M192 264l32 0 0-16-32 0z m-144 0l32 0 0-16-32 0z m48 0l32 0 0-16-32 0z m48 0l32 0 0-16-32 0z m-144 0l32 0 0-16-32 0z m432 0l32 0 0-16-32 0z m-48 0l32 0 0-16-32 0z m-48 0l32 0 0-16-32 0z m-48 0l32 0 0-16-32 0z m-48 0l32 0 0-16-32 0z m199-86l73 72 0 12-73 72-12-12 68-68-6 0 0-16 6 0-68-68z"/>
<glyph unicode="&#67460;" d="M264 0l0 486 68-69 12 13-72 73-12 0-72-73 12-12 68 68 0-486z"/>
<glyph unicode="&#67461;" d="M248 80l16 0 0-32-16 0z m0 288l16 0 0-32-16 0z m0-240l16 0 0-32-16 0z m0 96l16 0 0-32-16 0z m0 192l16 0 0-32-16 0z m0-240l16 0 0-32-16 0z m0 96l16 0 0-32-16 0z m0 192l16 0 0-32-16 0z m0-432l16 0 0-32-16 0z m0 288l16 0 0-32-16 0z m-68 106l68 69 0-6 16 0 0 6 68-69 12 13-72 73-12 0-72-73z"/>
<glyph unicode="&#67462;" d="M200 163l-90 91-12-13 96-97 12 0 192 193-12 12z m-200-163l612 0 0 612-612 0z m16 496l480 0 0-480-480 0z"/>
<glyph unicode="&#67463;" d="M266 196l-130 131-12-13 136-137 12 0 136 137-12 12z m-266-196l612 0 0 612-612 0z m16 496l480 0 0-480-480 0z"/>
<glyph unicode="&#67464;" d="M192 376l-16 0 0-192 8-8 192 0 0 16-184 0z m-192-376l612 0 0 612-612 0z m16 496l480 0 0-480-480 0z"/>
<glyph unicode="&#67466;" d="M320 192l-184 0 0-16 192 0 8 8 0 192-16 0z m-320-192l612 0 0 612-612 0z m16 496l480 0 0-480-480 0z"/>
<glyph unicode="&#67466;" d="M289 398l-137-136 0-12 137-136 12 12-130 130 130 130z m-289-398l612 0 0 612-612 0z m16 496l480 0 0-480-480 0z"/>
<glyph unicode="&#67467;" d="M112 272l288 0 0-16-288 0z m-112-272l612 0 0 612-612 0z m16 496l480 0 0-480-480 0z"/>
<glyph unicode="&#67468;" d="M248 112l16 0 0 136 136 0 0 16-136 0 0 136-16 0 0-136-136 0 0-16 136 0z m-248 400l0-612 612 0 0 612z m496-496l-480 0 0 480 480 0z"/>
<glyph unicode="&#67469;" d="M366 370l-11 11-98-99-99 98-11-11 99-98-98-99 11-11 98 99 99-98 11 11-99 98z m-366-370l612 0 0 612-612 0z m16 496l480 0 0-480-480 0z"/>
<glyph unicode="&#67460;" d="M210 386l131-130-131-130 13-12 137 136 0 12-137 136z m-210-386l612 0 0 612-612 0z m16 496l480 0 0-480-480 0z"/>
<glyph unicode="&#67461;" d="M260 336l-136-137 12-12 130 130 130-131 12 13-136 137z m-260-336l612 0 0 612-612 0z m16 496l480 0 0-480-480 0z"/>
<glyph unicode="&#67462;" d="M176 328l0-192 16 0 0 184 184 0 0 16-192 0z m-176-328l612 0 0 612-612 0z m16 496l480 0 0-480-480 0z"/>
<glyph unicode="&#67463;" d="M136 336l0-16 184 0 0-184 16 0 0 192-8 8z m-136-336l612 0 0 612-612 0z m16 496l480 0 0-480-480 0z"/>
<glyph unicode="&#67464;" d="M232 612l-232 0 0-232 232 0z m-16-216l-200 0 0 200 200 0z m64-16l232 0 0 232-232 0z m16 216l200 0 0-200-200 0z m-64-264l-232 0 0-232 232 0z m-16-216l-200 0 0 200 200 0z m64-16l232 0 0 232-232 0z m16 216l200 0 0-200-200 0z"/>
<glyph unicode="&#67466;" d="M416 612l0-16 69 0-187-186 12-12 186 187 0-69 16 0 0 88-8 8z m-214-298l-186-187 0 69-16 0 0-88 8-8 88 0 0 16-69 0 187 186z m112-28l-128 128 12 12 128-128z"/>
<glyph unicode="&#67466;" d="M496 27l-186 187-12-12 187-186-69 0 0-16 88 0 8 8 0 88-16 0z m-294 271l12 12-187 186 69 0 0 16-88 0-8-8 0-88 16 0 0 69z m-16-100l128 128 12-12-128-128z"/>
<glyph unicode="&#67467;" d="M416 612l0-16 69 0-229-229-242 243-12-12 243-242-229-229 0 69-16 0 0-88 8-8 88 0 0 16-69 0 229 229 242-243 12 12-243 242 229 229 0-69 16 0 0 88-8 8z"/>
<glyph unicode="&#67468;" d="M496 27l-229 229 243 242-12 12-242-243-229 229 69 0 0 16-88 0-8-8 0-88 16 0 0 69 229-229-243-242 12-12 242 243 229-229-69 0 0-16 88 0 8 8 0 88-16 0z"/>
<glyph unicode="&#67469;" d="M434 314l61-60-181 0 0-16 181 0-61-60 13-12 66 64 0 12-66 64z m-366 0l-13 12-66-64 0-12 66-64 12 12-60 60 181 0 0 16-181 0z m170 30l16 0 0-176-16 0z"/>
<glyph unicode="&#67470;" d="M434 314l61-60-221 0 0 248-16 0 0-248-221 0 61 60-13 12-66-64 0-12 66-64 12 12-60 60 221 0 0-248 16 0 0 248 221 0-61-60 13-12 66 64 0 12-66 64z"/>
<glyph unicode="&#67471;" d="M260 612l-64-66 12-12 60 60 0-181 16 0 0 181 60-61 12 13-64 66z m14-486l0 181-16 0 0-181-60 61-12-13 64-66 12 0 64 66-12 12z m-96 237l176 0 0-16-176 0z"/>
<glyph unicode="&#67472;" d="M264 486l60-61 12 13-64 66-12 0-64-66 12-12 60 60 0-221-248 0 0-16 248 0 0-221-60 61-12-13 64-66 12 0 64 66-12 12-60-60 0 221 248 0 0 16-248 0z"/>
<glyph unicode="&#67473;" d="M439 98l73 72 0 12-73 72-12-12 68-68-413 0 0-16 413 0-68-68z m-366 316l-74-72 0-12 74-72 12 12-68 68 412 0 0 16-412 0 68 68z"/>
<glyph unicode="&#67474;" d="M344 72l1 413 68-69 11 13-72 73-11 0-72-73 11-12 69 68-1-413z m-246 1l72-73 11 0 72 73-11 12-68-68-1 413-16 0 1-413-69 68z"/>
<glyph unicode="&#67476;" d="M398 199l-136 137-12 0-136-137 12-12 130 130 130-130z"/>
<glyph unicode="&#67476;" d="M260 392l-136-137 12-12 130 130 130-130 12 12-136 137z m0-120l-136-137 12-12 130 130 130-130 12 12-136 137z"/>
<glyph unicode="&#67477;" d="M192 320l184 0 0 16-192 0-8-8 0-192 16 0z"/>
<glyph unicode="&#67478;" d="M336 136l0 192-8 8-192 0 0-16 184 0 0-184z"/>
<glyph unicode="&#67479;" d="M206 70l-12-13 66-67 12 0 66 67-12 12-42-42 0 468 42-43 12 13-66 67-12 0-66-67 12-12 42 42 0-468z"/>
</font>
</defs>
</svg>
