<?xml version="1.0" standalone="no"?>
<!DOCTYPE svg PUBLIC "-//W3C//DTD SVG 1.1//EN" "http://www.w3.org/Graphics/SVG/1.1/DTD/svg11.dtd">
<svg xmlns="http://www.w3.org/2000/svg">
<metadata>Generated by Fontastic.me</metadata>
<defs>
<font id="linea-weather-10" horiz-adv-x="612">
<font-face font-family="linea-weather-10" units-per-em="612" ascent="480" descent="-32"/>
<missing-glyph horiz-adv-x="612" />

<glyph unicode="&#67344;" d="M324 301l-32 96-128-96-32 96-137-103 10-12 119 89 32-96 128 96 32-96 122 97 69-88 14 8-69 104z m0-160l-32 96-128-96-32 96-137-103 10-12 119 89 32-96 128 96 32-96 122 97 69-88 14 8-69 104z"/>
<glyph unicode="&#67346;" d="M408 612c-84 0-134-97-162-303-18 206-68 303-162 303-68 0-104-39-104-112 0-61 41-92 42-94l12 12c-1 0-38 38-38 82 0 66 29 96 88 96 97 0 144-162 144-496l16 0c0 334 47 496 144 496 69 0 88-31 88-96 0-44-37-82-38-82l12-12c1 2 42 43 42 94 0 73-36 112-104 112z"/>
<glyph unicode="&#67346;" d="M36 366l0 0c-21-16-36-41-36-70 0-49 39-88 88-88 49 0 88 39 88 88 0 42-29 76-68 86 36 9 86 18 166 18 116 0 242-78 244-79l8 14c-6 3-131 81-262 81-169 0-227-48-229-60z m126-70c0-40-32-72-72-72-40 0-72 32-72 72 0 40 32 72 72 72 40 0 72-32 72-72z m264 8c-49 0-88-39-88-88 0-42 29-76 68-86-36-9-86-18-166-18-116 0-242 78-244 79l-8-14c6-3 131-81 262-81 169 0 227 48 229 60l0 0c21 16 36 41 36 70 0 49-39 88-88 88z m0-160c-40 0-72 32-72 72 0 40 32 72 72 72 40 0 72-32 72-72 0-40-32-72-72-72z"/>
<glyph unicode="&#67347;" d="M384 200c-41 0-83-18-98-66-16 27-14 66-14 67l0 232c0 30-13 88-64 88-26 0-42-16-62-34-2 9-6 17-11 23-7 7-16 11-26 11-66 0-66-40-66-40l16 0c0 2 2 24 40 24 6 0 9-2 13-6 10-11 12-37 12-64-1-4-1-8-1-12l0-232 16 0 0 231c0 1 0 6 1 10 2 20 10 63 47 63 47 0 48-69 48-72l0-231c0-2-3-46 26-80-1-6-1-11-1-17l0-2c1-23-6-42-18-66-16-16-38-23-70-23l0-16c36 0 64 9 82 28 16 16 23 39 22 67l0 1c0 1 0 2 0 2 22-17 61-26 88-26 36 0 64 29 64 64 0 36-29 64-64 64z m0-112c-38 0-67 10-86 30 11 69 62 66 86 66 26 0 48-22 48-48 0-26-22-48-48-48z"/>
<glyph unicode="&#67348;" d="M88 104l362 0c41 0 72 31 72 72 0 36-26 76-64 80-4 90-80 160-176 160-86 0-167-63-174-128l-10 0c-48 0-88-44-88-96 0-60 38-88 88-88z m0 168l23 0 1 7c13 70 80 121 160 121 90 0 160-67 160-162l0-8 8 0c33 0 66-34 66-64 0-32-24-66-66-66l-362 0c-41 0-72 31-72 72 0 43 33 80 72 80z"/>
<glyph unicode="&#67349;" d="M448 336c-4 90-80 160-176 160-86 0-167-63-174-128l-10 0c-48 0-88-44-88-96 0-60 38-88 88-88l66 0 0 16-66 0c-41 0-72 31-72 72 0 43 33 80 72 80l23 0 1 7c13 70 80 121 160 121 90 0 160-67 160-162l0-8 8 0c33 0 66-34 66-64 0-32-24-66-66-66l-80 0 0-16 80 0c41 0 72 31 72 72 0 36-26 76-64 80z m-120-160c0 68-63 138-66 141l-6 7-6-7c-3-3-74-83-74-141 0-42 34-72 80-72 44 0 72 28 72 72z m-72-66c-31 0-64 18-64 66 0 43 46 103 64 123 16-21 66-80 66-123 0-36-21-66-66-66z"/>
<glyph unicode="&#67360;" d="M290 333l-112-162 6-13 39 0-16-96 14-6 112 162-6 13-39 0 16 96z m22-117l-83-113 11 72-8 9-32 0 83 113-11-72 8-9z m136 120c-4 90-80 160-176 160-86 0-167-63-174-128l-10 0c-48 0-88-44-88-96 0-60 38-88 88-88l66 0 0 16-66 0c-41 0-72 31-72 72 0 43 33 80 72 80l23 0 1 7c13 70 80 121 160 121 90 0 160-67 160-162l0-8 8 0c33 0 66-34 66-64 0-32-24-66-66-66l-72 0 0-16 72 0c41 0 72 31 72 72 0 36-26 76-64 80z"/>
<glyph unicode="&#67361;" d="M88 184l66 0 0 16-66 0c-41 0-72 31-72 72 0 43 33 80 72 80l23 0 1 7c13 70 80 121 160 121 90 0 160-67 160-162l0-8 8 0c33 0 66-34 66-64 0-32-24-66-66-66l-72 0 0-16 72 0c41 0 72 31 72 72 0 36-26 76-64 80-4 90-80 160-176 160-86 0-167-63-174-128l-10 0c-48 0-88-44-88-96 0-60 38-88 88-88z m87-20l13 20 62 0 0 16-62 0-13 20-14-8 13-20-13-20z m162 66l-13-20-62 0 0-16 62 0 13-20 14 8-13 20 13 20z m-81-110l20-13 8 14-20 13 0 62-16 0 0-62-20-13 8-14z m0 164l-20 13-8-14 20-13 0-62 16 0 0 62 20 13-8 14z m-63-1l-6-23-23-6 3-16 24 6 32-32 12 12-32 32 6 24z m106-162l6 23 23 6-3 16-24-6-32 32-12-12 32-32-6-24z m-76 71l-32-32-24 6-3-16 23-6 6-23 16 3-6 24 32 32z m44 20l32 32 24-6 3 16-23 6-6 23-16-3 6-24-32-32z"/>
<glyph unicode="&#67362;" d="M466 287c-4 81-78 146-168 146-33 0-64-9-89-26-21 26-63 41-87 41-62 0-112-60-112-112 0-21 6-42 18-60 6-11 16-20 26-28-2-8-3-16-3-24 0-46 34-80 80-80l328 0c38 0 64 26 64 64 0 36-22 74-66 79z m-426-3c-10 16-16 34-16 62 0 63 43 96 96 96 29 0 66-13 74-34-28-22-48-61-66-86l-10 0c-31 0-68-20-71-48-7 6-13 13-18 20z m417-124l-328 0c-38 0-64 26-64 64 0 40 29 72 64 72l23 0 1 7c12 66 73 113 144 113 84 0 162-61 162-136l0-8 8 0c28 0 48-34 48-64 0-29-19-48-48-48z m-369-140l64 112 14-8-64-112z m80 0l64 112 14-8-64-112z m80 0l64 112 14-8-64-112z m80 0l64 112 14-8-64-112z"/>
<glyph unicode="&#67363;" d="M18 276c6-11 16-20 26-28-2-8-3-16-3-24 0-46 34-80 80-80l328 0c38 0 64 26 64 64 0 36-22 74-66 79-4 81-78 146-168 146-33 0-64-9-89-26-21 26-63 41-87 41-7 0-14-1-21-2l-11-2 6-10c7-10 10-22 10-34 0-36-29-64-64-64-7 0-14 1-21 3l-11 4 0-12c1-20 7-39 18-66z m422 4l0-8 8 0c28 0 48-34 48-64 0-29-19-48-48-48l-328 0c-38 0-64 26-64 64 0 40 29 72 64 72l23 0 1 7c12 66 73 113 144 113 84 0 162-61 162-136z m-408 40c44 0 80 36 80 80 0 11-2 22-7 32 2 0 6 0 7 0 29 0 66-13 74-34-28-22-48-61-66-86l-10 0c-31 0-68-20-71-48-7 6-13 13-18 20-7 11-12 24-14 37 6-1 10-1 16-1z m136-196l-64-112-14 8 64 112z m80 0l-64-112-14 8 64 112z m80 0l-64-112-14 8 64 112z m80 0l-64-112-14 8 64 112z"/>
<glyph unicode="&#67364;" d="M466 287c-4 81-78 146-168 146-16 0-31-2-46-6-20 14-43 22-67 22-62 0-112-60-112-112 0-17 4-29 10-40-21-16-34-42-34-72 0-46 34-80 80-80l328 0c38 0 64 26 64 64 0 36-22 74-66 79z m-376 49c0 63 43 96 96 96 17 0 33-4 48-13-47-19-83-68-94-107l-10 0c-12 0-22-3-32-8-6 10-8 19-8 32z m368-176l-328 0c-38 0-64 26-64 64 0 40 29 72 64 72l23 0 1 7c12 66 73 113 144 113 84 0 162-61 162-136l0-8 8 0c28 0 48-34 48-64 0-29-19-48-48-48z m-448 184l48 0 0-16-48 0z m168 168l16 0 0-48-16 0z m-130-26l48-48-12-12-48 48z m116-364l14-8-64-112-14 8z m16-112l64 112 14-8-64-112z m80 0l64 112 14-8-64-112z m80 0l64 112 14-8-64-112z"/>
<glyph unicode="&#67366;" d="M266 0c97 0 176 82 176 182 0 126-163 319-170 327l-6 7-6-7c-7-8-171-201-170-327 0-100 79-182 176-182z m0 491c30-36 160-202 160-309 0-92-72-166-160-166-88 0-160 74-160 166 0 107 130 273 160 309z"/>
<glyph unicode="&#67366;" d="M266 0c141 0 266 116 266 266 0 141-116 266-266 266-141 0-266-116-266-266 0-141 116-266 266-266z m-240 266c0 6 0 11 1 16l231 0 0-32-231 0c-1 6-1 11-1 16z m232-240c-27 1-64 7-78 16l78 0z m0 464l-78 0c24 9 61 16 78 16z m0-16l0-32-166 0c13 12 28 23 43 32z m0-48l0-32-196 0c7 11 16 22 24 32z m0-48l0-32-218 0c4 11 8 22 14 32z m0-48l0-32-230 0c2 11 4 22 7 32z m0-96l0-32-223 0c-3 10-6 21-7 32z m0-48l0-32-204 0c-6 10-10 21-14 32z m0-48l0-32-171 0c-9 10-17 21-24 32z m0-48l0-32-112 0c-16 9-30 20-43 32z m248 176c0-130-103-236-232-240l0 480c129-4 232-110 232-240z"/>
<glyph unicode="&#67367;" d="M448 336c-4 90-80 160-176 160-86 0-167-63-174-128l-10 0c-48 0-88-44-88-96 0-60 38-88 88-88l0 16c-41 0-72 31-72 72 0 43 33 80 72 80l23 0 1 7c13 70 80 121 160 121 90 0 160-67 160-162l0-8 8 0c33 0 66-34 66-64 0-32-24-66-66-66l0-16c41 0 72 31 72 72 0 36-26 76-64 80z m-344-136l320 0 0-16-320 0z m0-64l320 0 0-16-320 0z m0-64l320 0 0-16-320 0z"/>
<glyph unicode="&#67368;" d="M43 248c-2-8-3-16-3-24 0-46 34-80 80-80l0 16c-38 0-64 26-64 64 0 40 29 72 64 72l23 0 1 7c12 66 73 113 144 113 84 0 162-61 162-136l0-8 8 0c28 0 48-34 48-64 0-29-19-48-48-48l0-16c38 0 64 26 64 64 0 36-22 74-66 79-4 81-78 146-168 146-33 0-64-9-89-26-21 26-63 41-87 41-62 0-112-60-112-112 0-21 6-42 18-60 6-11 16-20 26-28z m69 184c29 0 66-13 74-34-28-22-48-61-66-86l-10 0c-31 0-68-20-71-48-7 6-13 13-18 20-10 16-16 34-16 62 0 63 43 96 96 96z m24-272l296 0 0-16-296 0z m0-48l296 0 0-16-296 0z m0-48l296 0 0-16-296 0z"/>
<glyph unicode="&#67369;" d="M466 287c-4 81-78 146-168 146-33 0-64-9-89-26-21 26-63 41-87 41-7 0-14-1-21-2l-11-2 6-10c7-10 10-22 10-34 0-36-29-64-64-64-7 0-14 1-21 3l-11 4 0-12c1-20 7-39 18-66 6-11 16-20 26-28-2-8-3-16-3-24 0-46 34-80 80-80l0 16c-38 0-64 26-64 64 0 40 29 72 64 72l23 0 1 7c12 66 73 113 144 113 84 0 162-61 162-136l0-8 8 0c28 0 48-34 48-64 0-29-19-48-48-48l0-16c38 0 64 26 64 64 0 36-22 74-66 79z m-326 26l-10 0c-31 0-68-20-71-48-7 6-13 13-18 20-7 11-12 24-14 37 6-1 10-1 16-1 44 0 80 36 80 80 0 11-2 22-7 32 2 0 6 0 7 0 29 0 66-13 74-34-28-22-48-61-66-86z m6-162l296 0 0-16-296 0z m0-48l296 0 0-16-296 0z m0-48l296 0 0-16-296 0z"/>
<glyph unicode="&#67360;" d="M466 287c-4 81-78 146-168 146-16 0-31-2-46-6-20 14-43 22-67 22-62 0-112-60-112-112 0-17 4-29 10-40-21-16-34-42-34-72 0-46 34-80 80-80l0 16c-38 0-64 26-64 64 0 40 29 72 64 72l23 0 1 7c12 66 73 113 144 113 84 0 162-61 162-136l0-8 8 0c28 0 48-34 48-64 0-29-19-48-48-48l0-16c38 0 64 26 64 64 0 36-22 74-66 79z m-326 26l-10 0c-12 0-22-3-32-8-6 10-8 19-8 32 0 63 43 96 96 96 17 0 33-4 48-13-47-19-83-68-94-107z m-130 32l48 0 0-16-48 0z m168 168l16 0 0-48-16 0z m-130-26l48-48-12-12-48 48z m98-326l296 0 0-16-296 0z m0-48l296 0 0-16-296 0z m0-48l296 0 0-16-296 0z"/>
<glyph unicode="&#67361;" d="M266 612c-141 0-266-116-266-266 0-141 116-266 266-266 141 0 266 116 266 266 0 141-116 266-266 266z m0-496c-132 0-240 108-240 240 0 132 108 240 240 240 132 0 240-108 240-240 0-132-108-240-240-240z"/>
<glyph unicode="&#67362;" d="M614 440l-4 16c-1-1-128-32-264-32-126 0-263 31-264 32l-4-16c1 0 73-18 162-27l0-314c-89-9-161-27-162-27l4-16c1 1 128 32 264 32 126 0 263-31 264-32l4 16c-1 0-73 18-162 27l0 314c89 9 161 27 162 27z m-178-340c-26 3-63 4-80 4-27 0-64-1-80-4l0 312c26-3 63-4 80-4 27 0 64 1 80 4z"/>
<glyph unicode="&#67363;" d="M448 336c-4 90-80 160-176 160-86 0-167-63-174-128l-10 0c-48 0-88-44-88-96 0-60 38-88 88-88l362 0c41 0 72 31 72 72 0 36-26 76-64 80z m-8-136l-362 0c-41 0-72 31-72 72 0 43 33 80 72 80l23 0 1 7c13 70 80 121 160 121 90 0 160-67 160-162l0-8 8 0c33 0 66-34 66-64 0-32-24-66-66-66z m-296-133l40 88 14-6-40-88z m-80 0l40 88 14-6-40-88z m160 0l40 88 14-6-40-88z m80 0l40 88 14-6-40-88z m120 88l14-6-40-88-14 6z m-304-127l8 16 14-8-8-16z m-80 0l8 16 14-8-8-16z m160 0l8 16 14-8-8-16z m80 0l8 16 14-8-8-16z m80 0l8 16 14-8-8-16z"/>
<glyph unicode="&#67364;" d="M466 287c-4 81-78 146-168 146-33 0-64-9-89-26-21 26-63 41-87 41-62 0-112-60-112-112 0-21 6-42 18-60 6-11 16-20 26-28-2-8-3-16-3-24 0-46 34-80 80-80l328 0c38 0 64 26 64 64 0 36-22 74-66 79z m-426-3c-10 16-16 34-16 62 0 63 43 96 96 96 29 0 66-13 74-34-28-22-48-61-66-86l-10 0c-31 0-68-20-71-48-7 6-13 13-18 20z m417-124l-328 0c-38 0-64 26-64 64 0 40 29 72 64 72l23 0 1 7c12 66 73 113 144 113 84 0 162-61 162-136l0-8 8 0c28 0 48-34 48-64 0-29-19-48-48-48z m-296-29l14-6-32-72-14 6z m80 0l14-6-32-72-14 6z m80 0l14-6-32-72-14 6z m80 0l14-6-32-72-14 6z m-274-119l-14 8 8 16 14-8z m80 0l-14 8 8 16 14-8z m80 0l-14 8 8 16 14-8z m80 0l-14 8 8 16 14-8z"/>
<glyph unicode="&#67366;" d="M466 287c-4 81-78 146-168 146-33 0-64-9-89-26-21 26-63 41-87 41-7 0-14-1-21-2l-11-2 6-10c7-10 10-22 10-34 0-36-29-64-64-64-7 0-14 1-21 3l-11 4 0-12c1-20 7-39 18-66 6-11 16-20 26-28-2-8-3-16-3-24 0-46 34-80 80-80l328 0c38 0 64 26 64 64 0 36-22 74-66 79z m-426-3c-7 11-12 24-14 37 6-1 10-1 16-1 44 0 80 36 80 80 0 11-2 22-7 32 2 0 6 0 7 0 29 0 66-13 74-34-28-22-48-61-66-86l-10 0c-31 0-68-20-71-48-7 6-13 13-18 20z m417-124l-328 0c-38 0-64 26-64 64 0 40 29 72 64 72l23 0 1 7c12 66 73 113 144 113 84 0 162-61 162-136l0-8 8 0c28 0 48-34 48-64 0-29-19-48-48-48z m-296-29l14-6-32-72-14 6z m80 0l14-6-32-72-14 6z m80 0l14-6-32-72-14 6z m80 0l14-6-32-72-14 6z m-274-119l-14 8 8 16 14-8z m80 0l-14 8 8 16 14-8z m80 0l-14 8 8 16 14-8z m80 0l-14 8 8 16 14-8z"/>
<glyph unicode="&#67366;" d="M466 287c-4 81-78 146-168 146-16 0-31-2-46-6-20 14-43 22-67 22-62 0-112-60-112-112 0-17 4-29 10-40-21-16-34-42-34-72 0-46 34-80 80-80l328 0c38 0 64 26 64 64 0 36-22 74-66 79z m-376 49c0 63 43 96 96 96 17 0 33-4 48-13-47-19-83-68-94-107l-10 0c-12 0-22-3-32-8-6 10-8 19-8 32z m368-176l-328 0c-38 0-64 26-64 64 0 40 29 72 64 72l23 0 1 7c12 66 73 113 144 113 84 0 162-61 162-136l0-8 8 0c28 0 48-34 48-64 0-29-19-48-48-48z m-448 184l48 0 0-16-48 0z m168 168l16 0 0-48-16 0z m-130-26l48-48-12-12-48 48z m116-366l14-6-32-72-14 6z m80 0l14-6-32-72-14 6z m80 0l14-6-32-72-14 6z m80 0l14-6-32-72-14 6z m-274-119l-14 8 8 16 14-8z m80 0l-14 8 8 16 14-8z m80 0l-14 8 8 16 14-8z m80 0l-14 8 8 16 14-8z"/>
<glyph unicode="&#67367;" d="M266 612c-141 0-266-116-266-266 0-141 116-266 266-266 141 0 266 116 266 266 0 141-116 266-266 266z m240-266c0-6 0-11-1-16l-231 0 0 32 231 0c1-6 1-11 1-16z m-232 240c27-1 64-7 78-16l-78 0z m0-464l78 0c-24-9-61-16-78-16z m0 16l0 32 166 0c-13-12-28-23-44-32z m0 48l0 32 196 0c-7-11-16-22-24-32z m0 48l0 32 218 0c-4-11-8-22-14-32z m0 48l0 32 230 0c-2-11-4-22-7-32z m0 96l0 32 223 0c3-10 6-21 7-32z m0 48l0 32 204 0c6-10 10-21 14-32z m0 48l0 32 171 0c9-10 17-21 24-32z m0 48l0 32 112 0c16-9 30-20 43-32z m-248-176c0 130 103 236 232 240l0-480c-129 4-232 110-232 240z"/>
<glyph unicode="&#67368;" d="M360 16c-36 0-64 29-64 64 0 61 83 208 84 209 41 71 17 161-63 203-34 20-74 26-112 16-39-10-71-34-91-68-36-61-22-137 27-183-44-1-79-36-79-80 0-44 36-80 80-80 44 0 80 36 80 80 0 32-20 60-47 73l0 1c-63 37-84 118-47 181 18 30 47 62 81 61 34 9 69 4 100-14 63-37 84-118 47-181-4-6-86-162-86-217 0-44 36-80 80-80 31 0 68 17 72 44l-16 8c-11-22-33-36-67-36z m-144 160c0-36-29-64-64-64-36 0-64 29-64 64 0 36 29 64 64 64 36 0 64-29 64-64z"/>
<glyph unicode="&#67369;" d="M393 311c0 76-62 137-137 137-76 0-137-61-137-137 0-36 14-70 39-96l-168 0 0-16 184 0 0 16-2 0c-30 23-47 68-47 96 0 67 64 121 121 121 67 0 121-64 121-121 0-37-17-72-47-96l-2 0 0-16 184 0 0 16-168 0c26 26 39 69 39 96z m-393-231l612 0 0-16-612 0z"/>
<glyph unicode="&#67370;" d="M238 208l-64-198 14-7 208 288-6 13-103 0 31 199-16 6-184-288 7-12z m68 260l-26-171 8-9 96 0-173-240 46 166-8 10-97 0z"/>
<glyph unicode="&#67371;" d="M448 336c-4 90-80 160-176 160-86 0-167-63-174-128l-10 0c-48 0-88-44-88-96 0-60 38-88 88-88l362 0c41 0 72 31 72 72 0 36-26 76-64 80z m-8-136l-362 0c-41 0-72 31-72 72 0 43 33 80 72 80l23 0 1 7c13 70 80 121 160 121 90 0 160-67 160-162l0-8 8 0c33 0 66-34 66-64 0-32-24-66-66-66z m-306-180l-14 8 8 16 14-8z m-80 0l-14 8 8 16 14-8z m160 0l-14 8 8 16 14-8z m80 0l-14 8 8 16 14-8z m80 0l-14 8 8 16 14-8z m-198 64l8 16 14-8-8-16z m-72 16l14-8-8-16-14 8z m162-16l8 16 14-8-8-16z m80 0l8 16 14-8-8-16z m80 0l8 16 14-8-8-16z m-272 80l14-8-8-16-14 8z m-80 0l14-8-8-16-14 8z m160 0l14-8-8-16-14 8z m80 0l14-8-8-16-14 8z m80 0l14-8-8-16-14 8z"/>
<glyph unicode="&#67372;" d="M466 287c-4 81-78 146-168 146-33 0-64-9-89-26-21 26-63 41-87 41-62 0-112-60-112-112 0-21 6-42 18-60 6-11 16-20 26-28-2-8-3-16-3-24 0-46 34-80 80-80l328 0c38 0 64 26 64 64 0 36-22 74-66 79z m-426-3c-10 16-16 34-16 62 0 63 43 96 96 96 29 0 66-13 74-34-28-22-48-61-66-86l-10 0c-31 0-68-20-71-48-7 6-13 13-18 20z m417-124l-328 0c-38 0-64 26-64 64 0 40 29 72 64 72l23 0 1 7c12 66 73 113 144 113 84 0 162-61 162-136l0-8 8 0c28 0 48-34 48-64 0-29-19-48-48-48z m-336-124l14-8-8-16-14 8z m80 0l14-8-8-16-14 8z m72-16l8 16 14-8-8-16z m80 0l8 16 14-8-8-16z m-194 88l-14 8 8 16 14-8z m80 0l-14 8 8 16 14-8z m80 0l-14 8 8 16 14-8z m66 8l8 16 14-8-8-16z m-304-48l8 16 14-8-8-16z m88 16l14-8-8-16-14 8z m80 0l14-8-8-16-14 8z m80 0l14-8-8-16-14 8z"/>
<glyph unicode="&#67373;" d="M466 287c-4 81-78 146-168 146-33 0-64-9-89-26-21 26-63 41-87 41-7 0-14-1-21-2l-11-2 6-10c7-10 10-22 10-34 0-36-29-64-64-64-7 0-14 1-21 3l-11 4 0-12c1-20 7-39 18-66 6-11 16-20 26-28-2-8-3-16-3-24 0-46 34-80 80-80l328 0c38 0 64 26 64 64 0 36-22 74-66 79z m-426-3c-7 11-12 24-14 37 6-1 10-1 16-1 44 0 80 36 80 80 0 11-2 22-7 32 2 0 6 0 7 0 29 0 66-13 74-34-28-22-48-61-66-86l-10 0c-31 0-68-20-71-48-7 6-13 13-18 20z m417-124l-328 0c-38 0-64 26-64 64 0 40 29 72 64 72l23 0 1 7c12 66 73 113 144 113 84 0 162-61 162-136l0-8 8 0c28 0 48-34 48-64 0-29-19-48-48-48z m-336-124l14-8-8-16-14 8z m80 0l14-8-8-16-14 8z m72-16l8 16 14-8-8-16z m80 0l8 16 14-8-8-16z m-194 88l-14 8 8 16 14-8z m80 0l-14 8 8 16 14-8z m80 0l-14 8 8 16 14-8z m66 8l8 16 14-8-8-16z m-296-32l14-8-8-16-14 8z m80 0l14-8-8-16-14 8z m80 0l14-8-8-16-14 8z m80 0l14-8-8-16-14 8z"/>
<glyph unicode="&#67374;" d="M466 287c-4 81-78 146-168 146-16 0-31-2-46-6-20 14-43 22-67 22-62 0-112-60-112-112 0-17 4-29 10-40-21-16-34-42-34-72 0-46 34-80 80-80l328 0c38 0 64 26 64 64 0 36-22 74-66 79z m-376 49c0 63 43 96 96 96 17 0 33-4 48-13-47-19-83-68-94-107l-10 0c-12 0-22-3-32-8-6 10-8 19-8 32z m368-176l-328 0c-38 0-64 26-64 64 0 40 29 72 64 72l23 0 1 7c12 66 73 113 144 113 84 0 162-61 162-136l0-8 8 0c28 0 48-34 48-64 0-29-19-48-48-48z m-448 184l48 0 0-16-48 0z m168 168l16 0 0-48-16 0z m-130-26l48-48-12-12-48 48z m67-466l8 16 14-8-8-16z m80 0l8 16 14-8-8-16z m80 0l8 16 14-8-8-16z m80 0l8 16 14-8-8-16z m-194 88l-14 8 8 16 14-8z m80 0l-14 8 8 16 14-8z m80 0l-14 8 8 16 14-8z m66 8l8 16 14-8-8-16z m-296-32l14-8-8-16-14 8z m86-24l-14 8 8 16 14-8z m74 24l14-8-8-16-14 8z m80 0l14-8-8-16-14 8z"/>
<glyph unicode="&#67376;" d="M232 0c141 0 266 116 266 266 0 141-116 266-266 266-33 0-72-6-99-17l-16-6 16-8c71-37 116-107 116-177 0-110-90-200-200-200l-6 0-20 0 12-13c48-67 122-91 198-91z m32 304c0 71-42 140-108 182 23 6 61 10 76 10 132 0 240-108 240-240 0-132-108-240-240-240-66 0-129 27-174 72 114 6 206 100 206 216z"/>
<glyph unicode="&#67376;" d="M0 128l612 0 0 16-113 0c11 22 17 47 17 72 0 88-72 160-160 160-88 0-160-72-160-160 0-26 6-60 17-72l-113 0z m112 88c0 79 66 144 144 144 79 0 144-66 144-144 0-26-7-60-19-72l-260 0c-12 22-19 47-19 72z m94-122l-12-13 66-67 12 0 66 67-12 12-60-60z"/>
<glyph unicode="&#67377;" d="M612 144l-113 0c11 22 17 47 17 72 0 88-72 160-160 160 0 0-1 0-2 0l-12 0 6-11c6-13 9-27 9-41 0-66-46-100-100-100-17 0-33 4-48 12l-10 6-1-12c-1-6-1-9-1-14 0-26 6-60 17-72l-113 0 0-16 612 0z m-400 72c0 0 0 0 0 1 14-6 29-9 44-9 64 0 116 62 116 116 0 12-2 24-6 36 76-6 134-68 134-144 0-26-7-60-19-72l-260 0c-12 22-19 47-19 72z m94-122l-12-13 66-67 12 0 66 67-12 12-60-60z"/>
<glyph unicode="&#67378;" d="M612 144l-113 0c11 22 17 47 17 72 0 88-72 160-160 160-88 0-160-72-160-160 0-26 6-60 17-72l-113 0 0-16 612 0z m-400 72c0 79 66 144 144 144 79 0 144-66 144-144 0-26-7-60-19-72l-260 0c-12 22-19 47-19 72z m82-177l12-12 60 60 60-61 12 13-66 67-12 0z"/>
<glyph unicode="&#67379;" d="M416 216c0 88-72 160-160 160 0 0-1 0-2 0l-12 0 6-11c6-13 9-27 9-41 0-66-46-100-100-100-17 0-33 4-48 12l-10 6-1-12c-1-4-1-9-1-14 0-26 6-60 17-72l-113 0 0-16 612 0 0 16-113 0c11 22 17 47 17 72z m-304 0c0 0 0 0 0 1 14-6 29-9 44-9 64 0 116 62 116 116 0 12-2 24-6 36 76-6 134-68 134-144 0-26-7-60-19-72l-260 0c-12 22-19 47-19 72z m194-190l12 13-66 67-12 0-66-67 12-12 60 60z"/>
<glyph unicode="&#67380;" d="M266 0c141 0 266 116 266 266 0 141-116 266-266 266-141 0-266-116-266-266 0-141 116-266 266-266z m-240 266c0 6 0 11 1 16l231 0 0-32-231 0c-1 6-1 11-1 16z m232-240c-27 1-64 7-78 16l78 0z m0 464l-78 0c24 9 61 16 78 16z m0-16l0-32-166 0c13 12 28 23 43 32z m0-48l0-32-196 0c7 11 16 22 24 32z m0-48l0-32-218 0c4 11 8 22 14 32z m0-48l0-32-230 0c2 11 4 22 7 32z m0-96l0-32-223 0c-3 10-6 21-7 32z m0-48l0-32-204 0c-6 10-10 21-14 32z m0-48l0-32-171 0c-9 10-17 21-24 32z m0-48l0-32-112 0c-16 9-30 20-43 32z m248 176c0-130-103-236-232-240l0 480c129-4 232-110 232-240z"/>
<glyph unicode="&#67381;" d="M266 612c-141 0-266-116-266-266 0-141 116-266 266-266 141 0 266 116 266 266 0 141-116 266-266 266z m240-266c0-6 0-11-1-16l-478 0c-1 6-1 11-1 16 0 6 0 11 1 16l478 0c1-6 1-11 1-16z m-403-176l326 0c-13-12-28-23-44-32l-239 0c-16 9-30 20-43 32z m-16 16c-9 10-17 21-24 32l406 0c-7-11-16-22-24-32z m-33 48c-6 10-10 21-14 32l462 0c-4-11-8-22-14-32z m-19 48c-3 10-6 21-7 32l476 0c-2-11-4-22-7-32z m-7 96c2 11 4 22 7 32l462 0c3-10 6-21 7-32z m12 48c4 11 8 22 14 32l424 0c6-10 10-21 14-32z m23 48c7 11 16 22 24 32l368 0c9-10 17-21 24-32z m40 48c13 12 28 23 43 32l239 0c16-9 31-20 44-32z m249 48l-172 0c27 10 66 16 86 16 30 0 69-6 86-16z m-172-448l172 0c-27-10-66-16-86-16-30 0-69 6-86 16z"/>
<glyph unicode="&#67382;" d="M439 608l-14 8c-3-6-78-126-81-262l-176 0c-3 126-78 247-81 262l-14-8c1-1 76-122 79-244l-96 0 0-16 96 0c-3-122-78-243-79-244l14-8c3 6 78 126 81 262l176 0c3-126 78-247 81-262l14 8c-1 1-76 122-79 244l96 0 0 16-96 0c3 122 78 243 79 244z"/>
<glyph unicode="&#67383;" d="M88 184l362 0c41 0 72 31 72 72 0 36-26 76-64 80-4 90-80 160-176 160-86 0-167-63-174-128l-10 0c-48 0-88-44-88-96 0-60 38-88 88-88z m0 168l23 0 1 7c13 70 80 121 160 121 90 0 160-67 160-162l0-8 8 0c33 0 66-34 66-64 0-32-24-66-66-66l-362 0c-41 0-72 31-72 72 0 43 33 80 72 80z m80-208l16 0 0-112-16 0z m-80 0l16 0 0-112-16 0z m160 0l16 0 0-112-16 0z m80 0l16 0 0-112-16 0z m80 0l16 0 0-112-16 0z"/>
<glyph unicode="&#67384;" d="M43 248c-2-8-3-16-3-24 0-46 34-80 80-80l328 0c38 0 64 26 64 64 0 36-22 74-66 79-4 81-78 146-168 146-33 0-64-9-89-26-21 26-63 41-87 41-62 0-112-60-112-112 0-21 6-42 18-60 6-11 16-20 26-28z m397 32l0-8 8 0c28 0 48-34 48-64 0-29-19-48-48-48l-328 0c-38 0-64 26-64 64 0 40 29 72 64 72l23 0 1 7c12 66 73 113 144 113 84 0 162-61 162-136z m-328 162c29 0 66-13 74-34-28-22-48-61-66-86l-10 0c-31 0-68-20-71-48-7 6-13 13-18 20-10 16-16 34-16 62 0 63 43 96 96 96z m40-304l16 0 0-112-16 0z m80 0l16 0 0-112-16 0z m80 0l16 0 0-112-16 0z m80 0l16 0 0-112-16 0z"/>
<glyph unicode="&#67386;" d="M466 287c-4 81-78 146-168 146-33 0-64-9-89-26-21 26-63 41-87 41-7 0-14-1-21-2l-11-2 6-10c7-10 10-22 10-34 0-36-29-64-64-64-7 0-14 1-21 3l-11 4 0-12c1-20 7-39 18-66 6-11 16-20 26-28-2-8-3-16-3-24 0-46 34-80 80-80l328 0c38 0 64 26 64 64 0 36-22 74-66 79z m-426-3c-7 11-12 24-14 37 6-1 10-1 16-1 44 0 80 36 80 80 0 11-2 22-7 32 2 0 6 0 7 0 29 0 66-13 74-34-28-22-48-61-66-86l-10 0c-31 0-68-20-71-48-7 6-13 13-18 20z m417-124l-328 0c-38 0-64 26-64 64 0 40 29 72 64 72l23 0 1 7c12 66 73 113 144 113 84 0 162-61 162-136l0-8 8 0c28 0 48-34 48-64 0-29-19-48-48-48z m-296-32l16 0 0-112-16 0z m80 0l16 0 0-112-16 0z m80 0l16 0 0-112-16 0z m80 0l16 0 0-112-16 0z"/>
<glyph unicode="&#67386;" d="M466 287c-4 81-78 146-168 146-16 0-31-2-46-6-20 14-43 22-67 22-62 0-112-60-112-112 0-17 4-29 10-40-21-16-34-42-34-72 0-46 34-80 80-80l328 0c38 0 64 26 64 64 0 36-22 74-66 79z m-376 49c0 63 43 96 96 96 17 0 33-4 48-13-47-19-83-68-94-107l-10 0c-12 0-22-3-32-8-6 10-8 19-8 32z m368-176l-328 0c-38 0-64 26-64 64 0 40 29 72 64 72l23 0 1 7c12 66 73 113 144 113 84 0 162-61 162-136l0-8 8 0c28 0 48-34 48-64 0-29-19-48-48-48z m-448 184l48 0 0-16-48 0z m168 168l16 0 0-48-16 0z m-130-26l48-48-12-12-48 48z m114-368l16 0 0-112-16 0z m80 0l16 0 0-112-16 0z m80 0l16 0 0-112-16 0z m80 0l16 0 0-112-16 0z"/>
<glyph unicode="&#67387;" d="M288 496l197 0-337-337-134 136-12-12 136-134-143-142 12-12 142 143 134-136 12 12-136 134 337 337 0-197 16 0 0 224-224 0z"/>
<glyph unicode="&#67388;" d="M410 82l27-26-21 0c-39 0-40 36-40 40l0 320c0 33-16 96-72 96-36 0-66-24-64-61-10 27-29 61-64 61-36 0-66-26-66-63-9 24-28 46-63 46l0-16c66 0 66-69 66-72l0-320 16 0 0 320c0 3 1 80 66 80 66 0 66-77 66-80l0-320 16 0 0 320c0 3 1 80 66 80 66 0 66-77 66-80l0-320c0-19 12-66 66-66l21 0-27-26 13-12 41 40 0 12-41 40z"/>
<glyph unicode="&#67389;" d="M88 184l362 0c41 0 72 31 72 72 0 36-26 76-64 80-4 90-80 160-176 160-86 0-167-63-174-128l-10 0c-48 0-88-44-88-96 0-60 38-88 88-88z m0 168l23 0 1 7c13 70 80 121 160 121 90 0 160-67 160-162l0-8 8 0c33 0 66-34 66-64 0-32-24-66-66-66l-362 0c-41 0-72 31-72 72 0 43 33 80 72 80z m80-184l16 0 0-40-16 0z m0-72l16 0 0-40-16 0z m42 62l12-12-24-24-12 12z m-66-66l12-12-24-24-12 12z m68-24l-12-12-24 24 12 12z m-92 68l12 12 24-24-12-12z m62-26l40 0 0-16-40 0z m-72 0l40 0 0-16-40 0z m208 8l16 0 0-40-16 0z m0-72l16 0 0-40-16 0z m42 62l12-12-24-24-12 12z m-66-66l12-12-24-24-12 12z m68-24l-12-12-24 24 12 12z m-92 68l12 12 24-24-12-12z m62-26l40 0 0-16-40 0z m-72 0l40 0 0-16-40 0z"/>
<glyph unicode="&#67390;" d="M43 248c-2-8-3-16-3-24 0-46 34-80 80-80l328 0c38 0 64 26 64 64 0 36-22 74-66 79-4 81-78 146-168 146-33 0-64-9-89-26-21 26-63 41-87 41-62 0-112-60-112-112 0-21 6-42 18-60 6-11 16-20 26-28z m397 32l0-8 8 0c28 0 48-34 48-64 0-29-19-48-48-48l-328 0c-38 0-64 26-64 64 0 40 29 72 64 72l23 0 1 7c12 66 73 113 144 113 84 0 162-61 162-136z m-328 162c29 0 66-13 74-34-28-22-48-61-66-86l-10 0c-31 0-68-20-71-48-7 6-13 13-18 20-10 16-16 34-16 62 0 63 43 96 96 96z m72-304l16 0 0-32-16 0z m0-64l16 0 0-32-16 0z m34 64l12-12-16-16-12 12z m-48-48l12-12-16-16-12 12z m60-16l-12-12-16 16 12 12z m-76 62l12 12 16-16-12-12z m64-18l32 0 0-16-32 0z m-64 0l32 0 0-16-32 0z m200 24l16 0 0-32-16 0z m0-64l16 0 0-32-16 0z m34 64l12-12-16-16-12 12z m-48-48l12-12-16-16-12 12z m60-16l-12-12-16 16 12 12z m-76 62l12 12 16-16-12-12z m64-18l32 0 0-16-32 0z m-64 0l32 0 0-16-32 0z"/>
<glyph unicode="&#67391;" d="M466 287c-4 81-78 146-168 146-33 0-64-9-89-26-21 26-63 41-87 41-7 0-14-1-21-2l-11-2 6-10c7-10 10-22 10-34 0-36-29-64-64-64-7 0-14 1-21 3l-11 4 0-12c1-20 7-39 18-66 6-11 16-20 26-28-2-8-3-16-3-24 0-46 34-80 80-80l328 0c38 0 64 26 64 64 0 36-22 74-66 79z m-426-3c-7 11-12 24-14 37 6-1 10-1 16-1 44 0 80 36 80 80 0 11-2 22-7 32 2 0 6 0 7 0 29 0 66-13 74-34-28-22-48-61-66-86l-10 0c-31 0-68-20-71-48-7 6-13 13-18 20z m417-124l-328 0c-38 0-64 26-64 64 0 40 29 72 64 72l23 0 1 7c12 66 73 113 144 113 84 0 162-61 162-136l0-8 8 0c28 0 48-34 48-64 0-29-19-48-48-48z m-264-32l16 0 0-32-16 0z m0-64l16 0 0-32-16 0z m30 26l-12 12 16 16 12-12z m-48-48l-12 12 16 16 12-12z m64 12l-12-12-16 16 12 12z m-76 62l12 12 16-16-12-12z m64-18l32 0 0-16-32 0z m-64 0l32 0 0-16-32 0z m200 24l16 0 0-32-16 0z m0-64l16 0 0-32-16 0z m30 26l-12 12 16 16 12-12z m-48-48l-12 12 16 16 12-12z m64 12l-12-12-16 16 12 12z m-76 62l12 12 16-16-12-12z m64-18l32 0 0-16-32 0z m-64 0l32 0 0-16-32 0z"/>
<glyph unicode="&#67392;" d="M466 287c-4 81-78 146-168 146-16 0-31-2-46-6-20 14-43 22-67 22-62 0-112-60-112-112 0-17 4-29 10-40-21-16-34-42-34-72 0-46 34-80 80-80l328 0c38 0 64 26 64 64 0 36-22 74-66 79z m-376 49c0 63 43 96 96 96 17 0 33-4 48-13-47-19-83-68-94-107l-10 0c-12 0-22-3-32-8-6 10-8 19-8 32z m368-176l-328 0c-38 0-64 26-64 64 0 40 29 72 64 72l23 0 1 7c12 66 73 113 144 113 84 0 162-61 162-136l0-8 8 0c28 0 48-34 48-64 0-29-19-48-48-48z m-448 184l48 0 0-16-48 0z m168 168l16 0 0-48-16 0z m-130-26l48-48-12-12-48 48z m146-368l16 0 0-32-16 0z m0-64l16 0 0-32-16 0z m30 26l-12 12 16 16 12-12z m-48-48l-12 12 16 16 12-12z m64 12l-12-12-16 16 12 12z m-76 62l12 12 16-16-12-12z m64-18l32 0 0-16-32 0z m-64 0l32 0 0-16-32 0z m200 24l16 0 0-32-16 0z m0-64l16 0 0-32-16 0z m30 26l-12 12 16 16 12-12z m-48-48l-12 12 16 16 12-12z m64 12l-12-12-16 16 12 12z m-76 62l12 12 16-16-12-12z m64-18l32 0 0-16-32 0z m-64 0l32 0 0-16-32 0z"/>
<glyph unicode="&#67393;" d="M14 186l61 62 109 0c2-14 8-27 16-37l-83-83-77 0 0-16 72 0 0-72 16 0 0 77 83 83c10-8 23-14 37-16l0-109-62-61 12-12 68 69 68-69 12 12-62 61 0 109c14 2 27 8 37 16l83-83 0-77 16 0 0 72 72 0 0 16-77 0-83 83c8 10 14 23 16 37l109 0 61-62 12 12-69 68 69 68-12 12-61-62-109 0c-2 14-8 27-16 37l83 83 77 0 0 16-72 0 0 72-16 0 0-77-83-83c-10 8-23 14-37 16l0 109 62 61-12 12-68-69-68 69-12-12 62-61 0-109c-14-2-27-8-37-16l-83 83 0 77-16 0 0-72-72 0 0-16 77 0 83-83c-8-10-14-23-16-37l-109 0-61 62-12-12 69-68-69-68z m242 126c31 0 66-26 66-66 0-31-26-66-66-66-31 0-66 26-66 66 0 31 26 66 66 66z"/>
<glyph unicode="&#67394;" d="M266 628l-70-200-193 0 168-123-71-211 176 132 176-132-71 211 168 123-193 0z m87-317l67-173-144 108-144-108 67 173-130 101 169 0 68 168 68-168 169 0z"/>
<glyph unicode="&#67396;" d="M448 336c-4 90-80 160-176 160-86 0-167-63-174-128l-10 0c-48 0-88-44-88-96 0-60 38-88 88-88l362 0c41 0 72 31 72 72 0 36-26 76-64 80z m-8-136l-362 0c-41 0-72 31-72 72 0 43 33 80 72 80l23 0 1 7c13 70 80 121 160 121 90 0 160-67 160-162l0-8 8 0c33 0 66-34 66-64 0-32-24-66-66-66z m-327-164l64 112 14-8-64-112z m-80 0l64 112 14-8-64-112z m160 0l64 112 14-8-64-112z m80 0l64 112 14-8-64-112z m80 0l64 112 14-8-64-112z"/>
<glyph unicode="&#67396;" d="M448 336c-4 90-80 160-176 160-86 0-167-63-174-128l-10 0c-48 0-88-44-88-96 0-60 38-88 88-88l362 0c41 0 72 31 72 72 0 36-26 76-64 80z m-8-136l-362 0c-41 0-72 31-72 72 0 43 33 80 72 80l23 0 1 7c13 70 80 121 160 121 90 0 160-67 160-162l0-8 8 0c33 0 66-34 66-64 0-32-24-66-66-66z m-191-63l-29-67 30 0-26-44 14-8 39 68-34 0 19 46z m80 0l-29-67 30 0-26-44 14-8 39 68-34 0 19 46z m-160 0l-29-67 30 0-26-44 14-8 39 68-34 0 19 46z"/>
<glyph unicode="&#67397;" d="M43 248c-2-8-3-16-3-24 0-46 34-80 80-80l328 0c38 0 64 26 64 64 0 36-22 74-66 79-4 81-78 146-168 146-33 0-64-9-89-26-21 26-63 41-87 41-62 0-112-60-112-112 0-21 6-42 18-60 6-11 16-20 26-28z m397 32l0-8 8 0c28 0 48-34 48-64 0-29-19-48-48-48l-328 0c-38 0-64 26-64 64 0 40 29 72 64 72l23 0 1 7c12 66 73 113 144 113 84 0 162-61 162-136z m-328 162c29 0 66-13 74-34-28-22-48-61-66-86l-10 0c-31 0-68-20-71-48-7 6-13 13-18 20-10 16-16 34-16 62 0 63 43 96 96 96z m136-420l39 68-42 0 19 46-14 6-29-67 38 0-26-44z m80 0l39 68-42 0 19 46-14 6-29-67 38 0-26-44z m-160 0l39 68-42 0 19 46-14 6-29-67 38 0-26-44z"/>
<glyph unicode="&#67398;" d="M466 287c-4 81-78 146-168 146-33 0-64-9-89-26-21 26-63 41-87 41-7 0-14-1-21-2l-11-2 6-10c7-10 10-22 10-34 0-36-29-64-64-64-7 0-14 1-21 3l-11 4 0-12c1-20 7-39 18-66 6-11 16-20 26-28-2-8-3-16-3-24 0-46 34-80 80-80l328 0c38 0 64 26 64 64 0 36-22 74-66 79z m-426-3c-7 11-12 24-14 37 6-1 10-1 16-1 44 0 80 36 80 80 0 11-2 22-7 32 2 0 6 0 7 0 29 0 66-13 74-34-28-22-48-61-66-86l-10 0c-31 0-68-20-71-48-7 6-13 13-18 20z m417-124l-328 0c-38 0-64 26-64 64 0 40 29 72 64 72l23 0 1 7c12 66 73 113 144 113 84 0 162-61 162-136l0-8 8 0c28 0 48-34 48-64 0-29-19-48-48-48z m-199-29l-29-67 38 0-26-44 14-8 39 68-42 0 19 46z m80 0l-29-67 38 0-26-44 14-8 39 68-42 0 19 46z m-160 0l-29-67 38 0-26-44 14-8 39 68-42 0 19 46z"/>
<glyph unicode="&#67399;" d="M466 287c-4 81-78 146-168 146-16 0-31-2-46-6-20 14-43 22-67 22-62 0-112-60-112-112 0-17 4-29 10-40-21-16-34-42-34-72 0-46 34-80 80-80l328 0c38 0 64 26 64 64 0 36-22 74-66 79z m-376 49c0 63 43 96 96 96 17 0 33-4 48-13-47-19-83-68-94-107l-10 0c-12 0-22-3-32-8-6 10-8 19-8 32z m368-176l-328 0c-38 0-64 26-64 64 0 40 29 72 64 72l23 0 1 7c12 66 73 113 144 113 84 0 162-61 162-136l0-8 8 0c28 0 48-34 48-64 0-29-19-48-48-48z m-448 184l48 0 0-16-48 0z m168 168l16 0 0-48-16 0z m-130-26l48-48-12-12-48 48z m211-366l-29-67 38 0-26-44 14-8 39 68-42 0 19 46z m80 0l-29-67 38 0-26-44 14-8 39 68-42 0 19 46z m-160 0l-29-67 38 0-26-44 14-8 39 68-42 0 19 46z"/>
<glyph unicode="&#67400;" d="M266 120c76 0 136 61 136 136 0 76-61 136-136 136-76 0-136-61-136-136 0-76 61-136 136-136z m0 266c66 0 120-64 120-120 0-66-64-120-120-120-66 0-120 64-120 120 0 66 64 120 120 120z m-8 136l16 0 0-80-16 0z m0-432l16 0 0-80-16 0z m184 184l80 0 0-16-80 0z m-432 0l80 0 0-16-80 0z m418 166l12-12-40-40-12 12z m-296-296l12-12-40-40-12 12z m296-62l-40 40 12 12 40-40z m-324 348l40-40-12-12-40 40z"/>
<glyph unicode="&#67401;" d="M0 224l80 0 0-16-80 0z m432 0l80 0 0-16-80 0z m-184 266l16 0 0-88-16 0z m-194-82l64-64-12-12-64 64z m340-64l64 64 12-12-64-64z m-76-263l-12 12-60-60-60 61-12-13 66-67 12 0z m98 136c0 88-72 160-160 160-88 0-160-72-160-160 0-26 6-60 17-72l-113 0 0-16 612 0 0 16-113 0c11 22 17 47 17 72z m-304 0c0 79 66 144 144 144 79 0 144-66 144-144 0-26-7-60-19-72l-260 0c-12 22-19 47-19 72z"/>
<glyph unicode="&#67402;" d="M0 224l80 0 0-16-80 0z m432 0l80 0 0-16-80 0z m-184 266l16 0 0-88-16 0z m-194-82l64-64-12-12-64 64z m340-64l64 64 12-12-64-64z m-88-308l12 13-66 67-12 0-66-67 12-12 60 60z m110 190c0 88-72 160-160 160-88 0-160-72-160-160 0-26 6-60 17-72l-113 0 0-16 612 0 0 16-113 0c11 22 17 47 17 72z m-304 0c0 79 66 144 144 144 79 0 144-66 144-144 0-26-7-60-19-72l-260 0c-12 22-19 47-19 72z"/>
<glyph unicode="&#67403;" d="M384 392c0-1-1-72-128-72-126 0-128 69-128 73-3 36-34 103-128 103l0-16c103 0 112-86 112-88 0-1 0-23 19-46 16-19 39-31 70-38-67-22-97-77-97-141 0-84 68-162 162-162 84 0 162 68 162 162 0 64-40 119-97 141 31 7 64 19 70 38 19 22 19 44 19 44 0 1 2 23 17 46 19 29 61 44 96 44l0 16c-94 0-126-68-128-104z m8-224c0-76-61-136-136-136-76 0-136 61-136 136 0 76 61 136 136 136 76 0 136-61 136-136z"/>
<glyph unicode="&#67404;" d="M448 336c-4 90-80 160-176 160-86 0-167-63-174-128l-10 0c-48 0-88-44-88-96 0-60 38-88 88-88l362 0c41 0 72 31 72 72 0 36-26 76-64 80z m-8-136l-362 0c-41 0-72 31-72 72 0 43 33 80 72 80l23 0 1 7c13 70 80 121 160 121 90 0 160-67 160-162l0-8 8 0c33 0 66-34 66-64 0-32-24-66-66-66z m-191-63l-29-67 30 0-26-44 14-8 39 68-34 0 19 46z m66-111l64 112 14-8-64-112z m-200 0l64 112 14-8-64-112z"/>
<glyph unicode="&#67406;" d="M466 287c-4 81-78 146-168 146-33 0-64-9-89-26-21 26-63 41-87 41-62 0-112-60-112-112 0-21 6-42 18-60 6-11 16-20 26-28-2-8-3-16-3-24 0-46 34-80 80-80l328 0c38 0 64 26 64 64 0 36-22 74-66 79z m-426-3c-10 16-16 34-16 62 0 63 43 96 96 96 29 0 66-13 74-34-28-22-48-61-66-86l-10 0c-31 0-68-20-71-48-7 6-13 13-18 20z m417-124l-328 0c-38 0-64 26-64 64 0 40 29 72 64 72l23 0 1 7c12 66 73 113 144 113 84 0 162-61 162-136l0-8 8 0c28 0 48-34 48-64 0-29-19-48-48-48z m-199-29l-29-67 30 0-26-44 14-8 39 68-34 0 19 46z m-136-111l64 112 14-8-64-112z m192 0l64 112 14-8-64-112z"/>
<glyph unicode="&#67406;" d="M466 287c-4 81-78 146-168 146-33 0-64-9-89-26-21 26-63 41-87 41-7 0-14-1-21-2l-11-2 6-10c7-10 10-22 10-34 0-36-29-64-64-64-7 0-14 1-21 3l-11 4 0-12c1-20 7-39 18-66 6-11 16-20 26-28-2-8-3-16-3-24 0-46 34-80 80-80l328 0c38 0 64 26 64 64 0 36-22 74-66 79z m-426-3c-7 11-12 24-14 37 6-1 10-1 16-1 44 0 80 36 80 80 0 11-2 22-7 32 2 0 6 0 7 0 29 0 66-13 74-34-28-22-48-61-66-86l-10 0c-31 0-68-20-71-48-7 6-13 13-18 20z m417-124l-328 0c-38 0-64 26-64 64 0 40 29 72 64 72l23 0 1 7c12 66 73 113 144 113 84 0 162-61 162-136l0-8 8 0c28 0 48-34 48-64 0-29-19-48-48-48z m-199-29l-29-67 30 0-26-44 14-8 39 68-34 0 19 46z m-136-111l64 112 14-8-64-112z m192 0l64 112 14-8-64-112z"/>
<glyph unicode="&#67407;" d="M466 287c-4 81-78 146-168 146-16 0-31-2-46-6-20 14-43 22-67 22-62 0-112-60-112-112 0-17 4-29 10-40-21-16-34-42-34-72 0-46 34-80 80-80l328 0c38 0 64 26 64 64 0 36-22 74-66 79z m-376 49c0 63 43 96 96 96 17 0 33-4 48-13-47-19-83-68-94-107l-10 0c-12 0-22-3-32-8-6 10-8 19-8 32z m368-176l-328 0c-38 0-64 26-64 64 0 40 29 72 64 72l23 0 1 7c12 66 73 113 144 113 84 0 162-61 162-136l0-8 8 0c28 0 48-34 48-64 0-29-19-48-48-48z m-448 184l48 0 0-16-48 0z m168 168l16 0 0-48-16 0z m-94-86l-48 48 12 12 48-48z m176-296l-29-67 30 0-26-44 14-8 39 68-34 0 19 46z m-136-111l64 112 14-8-64-112z m192 0l64 112 14-8-64-112z"/>
<glyph unicode="&#67408;" d="M43 208c-2-8-3-16-3-24 0-46 34-80 80-80l328 0c38 0 64 26 64 64 0 36-22 74-66 79-4 81-78 146-168 146-33 0-64-9-89-26-21 26-63 41-87 41-62 0-112-60-112-112 0-21 6-42 18-60 6-11 16-20 26-28z m397 32l0-8 8 0c28 0 48-34 48-64 0-29-19-48-48-48l-328 0c-38 0-64 26-64 64 0 40 29 72 64 72l23 0 1 7c12 66 73 113 144 113 84 0 162-61 162-136z m-328 162c29 0 66-13 74-34-28-22-48-61-66-86l-10 0c-31 0-68-20-71-48-7 6-13 13-18 20-10 16-16 34-16 62 0 63 43 96 96 96z"/>
<glyph unicode="&#67409;" d="M466 247c-4 81-78 146-168 146-33 0-64-9-89-26-21 26-63 41-87 41-7 0-14-1-21-2l-11-2 6-10c7-10 10-22 10-34 0-36-29-64-64-64-7 0-14 1-21 3l-11 4 0-12c1-20 7-39 18-66 6-11 16-20 26-28-2-8-3-16-3-24 0-46 34-80 80-80l328 0c38 0 64 26 64 64 0 36-22 74-66 79z m-426-3c-7 11-12 24-14 37 6-1 10-1 16-1 44 0 80 36 80 80 0 11-2 22-7 32 2 0 6 0 7 0 29 0 66-13 74-34-28-22-48-61-66-86l-10 0c-31 0-68-20-71-48-7 6-13 13-18 20z m417-124l-328 0c-38 0-64 26-64 64 0 40 29 72 64 72l23 0 1 7c12 66 73 113 144 113 84 0 162-61 162-136l0-8 8 0c28 0 48-34 48-64 0-29-19-48-48-48z"/>
<glyph unicode="&#67410;" d="M466 247c-4 81-78 146-168 146-16 0-31-2-46-6-20 14-43 22-67 22-62 0-112-60-112-112 0-17 4-29 10-40-21-16-34-42-34-72 0-46 34-80 80-80l328 0c38 0 64 26 64 64 0 36-22 74-66 79z m-376 49c0 63 43 96 96 96 17 0 33-4 48-13-47-19-83-68-94-107l-10 0c-12 0-22-3-32-8-6 10-8 19-8 32z m368-176l-328 0c-38 0-64 26-64 64 0 40 29 72 64 72l23 0 1 7c12 66 73 113 144 113 84 0 162-61 162-136l0-8 8 0c28 0 48-34 48-64 0-29-19-48-48-48z m-448 184l48 0 0-16-48 0z m168 168l16 0 0-48-16 0z m-130-26l48-48-12-12-48 48z"/>
<glyph unicode="&#67411;" d="M488 320c0 12-2 120-66 120-19 0-32-13-40-31l0 7c0 33-16 96-72 96-36 0-66-24-64-61-10 27-29 61-64 61-36 0-66-26-66-63-9 24-28 46-63 46l0-16c66 0 66-69 66-72l0-320 16 0 0 320c0 3 1 80 66 80 66 0 66-77 66-80l0-320 16 0 0 320c0 1 1 80 66 80 66 0 66-77 66-80l0-320c0-1 0-2 0-3-31-24-68-37-112-37l0-16c47 0 86 14 114 36 9-48 47-80 49-81l10 12c0 0-40 34-44 81 89 79 96 231 96 233z m-96 0c0 27 7 104 40 104 33 0 40-77 40-104 0 0-2-67-30-133-13-33-30-69-60-80z"/>
<glyph unicode="&#67412;" d="M326 602l0 2c-1 0-2-1-3-1-21 6-44 9-67 9-141 0-266-116-266-266 0-141 116-266 266-266 23 0 46 3 67 9 1 0 2 0 3-1l0 2c107 31 186 129 186 246 0 117-79 216-186 246z m170-246c0-6 0-11-1-16l-334 0c-1 6-1 11-1 16 0 6 0 11 1 16l334 0c1-6 1-11 1-16z m-223-208c-16 9-29 20-42 32l188 0c-13-12-28-23-44-32z m69-16c-6-2-12-4-18-6-7 2-13 4-18 6z m-126 64c-9 10-16 21-23 32l266 0c-7-11-16-22-24-32z m-32 48c-6 10-9 21-13 32l310 0c-4-11-8-22-14-32z m-17 48c-3 10-6 21-6 32l332 0c-2-11-4-22-7-32z m-6 96c1 11 3 22 6 32l319 0c3-10 6-21 7-32z m10 48c4 11 8 22 13 32l283 0c6-10 10-21 14-32z m22 48c7 11 14 22 23 32l218 0c9-10 17-21 24-32z m37 48c13 12 27 23 42 32l103 0c16-9 30-20 43-32z m74 48c6 2 12 4 19 6 6-2 12-4 18-6z m-49-464c-132 0-240 108-240 240 0 132 108 240 240 240 13 0 26-1 39-3-92-38-161-130-161-237 0-107 69-199 161-237-13-2-26-3-39-3z"/>
<glyph unicode="&#67413;" d="M266 612c-23 0-46-3-67-9-1 0-2 0-3 1l0-2c-107-31-186-129-186-246 0-117 79-216 186-246l0-2c1 0 2 1 3 1 21-6 44-9 67-9 141 0 266 116 266 266 0 141-116 266-266 266z m240-266c0-6 0-11-1-16l-128 0c1 6 1 11 1 16 0 6 0 11-1 16l128 0c1-6 1-11 1-16z m-193-176l116 0c-13-12-28-23-43-32l-108 0c12 10 24 20 36 32z m13 16c8 10 14 21 20 32l123 0c-7-11-16-22-24-32z m28 48c6 10 9 21 12 32l126 0c-4-11-8-22-14-32z m17 48c2 10 4 21 6 32l128 0c-2-11-4-22-7-32z m6 96c-1 11-3 22-6 32l126 0c3-10 6-21 7-32z m-10 48c-3 11-7 22-12 32l124 0c6-10 10-21 14-32z m-20 48c-6 11-12 22-20 32l119 0c9-10 17-21 24-32z m-33 48c-11 12-23 22-36 32l108 0c16-9 30-20 43-32z m-47 64c30 0 69-6 86-16l-98 0c-9 6-18 9-27 13 13 2 26 3 39 3z m-240-240c0 109 73 201 172 230 98-29 164-121 164-230 0-109-66-201-164-230-99 29-172 121-172 230z m201-237c9 4 18 8 27 13l98 0c-27-10-66-16-86-16-13 0-26 1-39 3z"/>
<glyph unicode="&#67414;" d="M186 10l0-2c1 0 2 1 3 1 21-6 44-9 67-9 141 0 266 116 266 266 0 141-116 266-266 266-23 0-46-3-67-9-1 0-2 0-3 1l0-2c-107-31-186-129-186-246 0-117 79-216 186-246z m-170 246c0 6 0 11 1 16l334 0c1-6 1-11 1-16 0-6 0-11-1-16l-334 0c-1 6-1 11-1 16z m223 208c16-9 29-20 42-32l-188 0c13 12 28 23 43 32z m-69 16c6 2 12 4 18 6 7-2 13-4 19-6z m126-64c9-10 16-21 23-32l-266 0c7 11 16 22 24 32z m32-48c6-10 9-21 13-32l-310 0c4 11 8 22 14 32z m-88-320l-103 0c-16 9-30 20-43 32l188 0c-13-12-27-23-42-32z m-32-16c-6-2-12-4-19-6-6 2-12 4-18 6z m88 64l-218 0c-9 10-17 21-24 32l266 0c-7-11-14-22-23-32z m32 48l-283 0c-6 10-10 21-14 32l310 0c-4-11-8-22-13-32z m17 176c3-10 6-21 6-32l-332 0c2 11 4 22 7 32z m6-96c-1-11-3-22-6-32l-319 0c-3 10-6 21-7 32z m-94 272c132 0 240-108 240-240 0-132-108-240-240-240-13 0-26 1-39 3 92 38 161 130 161 237 0 107-69 199-161 237 13 2 26 3 39 3z"/>
<glyph unicode="&#67416;" d="M326 602l0 2c-1 0-2-1-3-1-21 6-44 9-67 9-141 0-266-116-266-266 0-141 116-266 266-266 23 0 46 3 67 9 1 0 2 0 3-1l0 2c107 31 186 129 186 246 0 117-79 216-186 246z m-31-9c-9-4-18-8-27-13l-98 0c27 10 66 16 86 16 13 0 26-1 39-3z m-202-413l116 0c11-12 23-22 36-32l-108 0c-16 9-30 20-43 32z m-16 16c-9 10-17 21-24 32l123 0c6-11 12-22 20-32z m-33 48c-6 10-10 21-14 32l126 0c3-11 7-22 12-32z m-28 112c0 6 0 11 1 16l128 0c-1-6-1-11-1-16 0-6 0-11 1-16l-128 0c-1 6-1 11-1 16z m130-32c1-11 3-22 6-32l-126 0c-3 10-6 21-7 32z m0 64l-128 0c2 11 4 22 7 32l126 0c-2-10-4-21-6-32z m10 48l-126 0c4 11 8 22 14 32l124 0c-6-10-9-21-12-32z m20 48l-123 0c7 11 16 22 24 32l119 0c-8-10-14-21-20-32z m33 48l-116 0c13 12 28 23 43 32l108 0c-12-10-24-20-36-32z m47-416c-30 0-69 6-86 16l98 0c9-6 18-9 27-13-13-2-26-3-39-3z m68 10c-98 29-164 121-164 230 0 109 66 201 164 230 99-29 172-121 172-230 0-109-73-201-172-230z"/>
<glyph unicode="&#67416;" d="M88 184l0 16c-41 0-72 31-72 72 0 43 33 80 72 80l23 0 1 7c13 70 80 121 160 121 90 0 160-67 160-162l0-8 8 0c33 0 66-34 66-64 0-32-24-66-66-66l0-16c41 0 72 31 72 72 0 36-26 76-64 80-4 90-80 160-176 160-86 0-167-63-174-128l-10 0c-48 0-88-44-88-96 0-60 38-88 88-88z m168-168c-18 0-32 14-32 32l-16 0c0-26 22-48 48-48 26 0 48 22 48 48 0 26-22 48-48 48l-240 0 0-16 240 0c18 0 32-14 32-32 0-18-14-32-32-32z m162 160c0 26-22 48-48 48-26 0-48-22-48-48l16 0c0 18 14 32 32 32 18 0 32-14 32-32 0-18-14-32-32-32l-328 0 0-16 328 0c26 0 48 22 48 48z"/>
<glyph unicode="&#67417;" d="M266 612c-141 0-266-116-266-266 0-141 116-266 266-266 141 0 266 116 266 266 0 141-116 266-266 266z m0-496c-132 0-240 108-240 240 0 132 108 240 240 240 132 0 240-108 240-240 0-132-108-240-240-240z m-40 240c0-22 18-40 40-40 22 0 40 18 40 40 0 22-18 40-40 40-22 0-40-18-40-40z m64 0c0-13-11-24-24-24-13 0-24 11-24 24 0 13 11 24 24 24 13 0 24-11 24-24z m-128 0c0-67 47-104 104-104 66 0 198 93 204 97l11 7-11 7c-6 4-149 97-204 97-67 0-104-47-104-104z m104-88c-49 0-88 39-88 88 0 49 39 88 88 88 38 0 138-68 186-88-47-30-147-88-186-88z"/>
<glyph unicode="&#67418;" d="M466 287c-4 81-78 146-168 146-33 0-64-9-89-26-21 26-63 41-87 41-62 0-112-60-112-112 0-21 6-42 18-60 6-11 16-20 26-28-2-8-3-16-3-24 0-46 34-80 80-80l0 16c-38 0-64 26-64 64 0 40 29 72 64 72l23 0 1 7c12 66 73 113 144 113 84 0 162-61 162-136l0-8 8 0c28 0 48-34 48-64 0-29-19-48-48-48l0-16c38 0 64 26 64 64 0 36-22 74-66 79z m-326 26l-10 0c-31 0-68-20-71-48-7 6-13 13-18 20-10 16-16 34-16 62 0 63 43 96 96 96 29 0 66-13 74-34-28-22-48-61-66-86z m-114-232l240 0c18 0 32-14 32-32 0-18-14-32-32-32-18 0-32 14-32 32l-16 0c0-26 22-48 48-48 26 0 48 22 48 48 0 26-22 48-48 48l-240 0z m344 48l-328 0 0-16 328 0c26 0 48 22 48 48 0 26-22 48-48 48-26 0-48-22-48-48l16 0c0 18 14 32 32 32 18 0 32-14 32-32 0-18-14-32-32-32z"/>
<glyph unicode="&#67419;" d="M466 287c-4 81-78 146-168 146-33 0-64-9-89-26-21 26-63 41-87 41-7 0-14-1-21-2l-11-2 6-10c7-10 10-22 10-34 0-36-29-64-64-64-7 0-14 1-21 3l-11 4 0-12c1-20 7-39 18-66 6-11 16-20 26-28-2-8-3-16-3-24 0-46 34-80 80-80l0 16c-38 0-64 26-64 64 0 40 29 72 64 72l23 0 1 7c12 66 73 113 144 113 84 0 162-61 162-136l0-8 8 0c28 0 48-34 48-64 0-29-19-48-48-48l0-16c38 0 64 26 64 64 0 36-22 74-66 79z m-326 26l-10 0c-31 0-68-20-71-48-7 6-13 13-18 20-7 11-12 24-14 37 6-1 10-1 16-1 44 0 80 36 80 80 0 11-2 22-7 32 2 0 6 0 7 0 29 0 66-13 74-34-28-22-48-61-66-86z m-114-232l240 0c18 0 32-14 32-32 0-18-14-32-32-32-18 0-32 14-32 32l-16 0c0-26 22-48 48-48 26 0 48 22 48 48 0 26-22 48-48 48l-240 0z m344 48l-328 0 0-16 328 0c26 0 48 22 48 48 0 26-22 48-48 48-26 0-48-22-48-48l16 0c0 18 14 32 32 32 18 0 32-14 32-32 0-18-14-32-32-32z"/>
<glyph unicode="&#67420;" d="M266 612c-141 0-266-116-266-266 0-141 116-266 266-266 141 0 266 116 266 266 0 141-116 266-266 266z m0-496c-132 0-240 108-240 240 0 132 108 240 240 240 132 0 240-108 240-240 0-132-108-240-240-240z m-40 240c0-22 18-40 40-40 22 0 40 18 40 40 0 22-18 40-40 40-22 0-40-18-40-40z m64 0c0-13-11-24-24-24-13 0-24 11-24 24 0 13 11 24 24 24 13 0 24-11 24-24z m-24 216l-7-11c-4-6-97-149-97-204 0-67 47-104 104-104 67 0 104 47 104 104 0 66-93 198-97 204z m0-303c-49 0-88 39-88 88 0 38 68 138 88 186 30-47 88-147 88-186 0-49-39-88-88-88z"/>
<glyph unicode="&#67421;" d="M266 612c-68 0-133-27-181-76-100-100-100-262 0-362 48-48 113-76 181-76 68 0 133 27 181 76 100 100 100 262 0 362-48 48-113 76-181 76z m170-426c-46-46-106-70-170-70-64 0-124 26-170 70-93 94-93 246 0 340 46 46 106 70 170 70 64 0 124-26 170-70 93-94 93-246 0-340z m-170 130c11 0 21 4 28 12 16 16 16 41 0 66-7 8-17 12-28 12-11 0-21-4-28-12-16-16-16-41 0-66 7-8 17-12 28-12z m-17 67c6 6 11 7 17 7 6 0 12-2 17-7 9-9 9-26 0-34-9-9-26-9-34 0-9 9-9 26 0 34z m-67 67c-40-41-40-107 0-148 20-19 46-30 74-30 28 0 64 11 74 30 38 39 69 202 70 209l2 11-11-2c-7-1-170-32-209-70z m136-136c-16-17-38-26-62-26-24 0-46 9-62 26-36 34-36 90 0 124 27 27 136 64 188 64-10-62-37-161-64-188z"/>
<glyph unicode="&#67422;" d="M266 612c-68 0-133-27-181-76-48-48-76-113-76-181 0-68 27-133 76-181 48-48 113-76 181-76 68 0 133 27 181 76 48 48 76 113 76 181 0 68-27 133-76 181-48 48-113 76-181 76z m170-426c-46-46-106-70-170-70-64 0-124 26-170 70-46 46-70 106-70 170 0 64 26 124 70 170 46 46 106 70 170 70 64 0 124-26 170-70 46-46 70-106 70-170 0-64-26-124-70-170z m-170 210c-11 0-21-4-28-12-8-7-12-17-12-28 0-11 4-21 12-28 7-8 17-12 28-12 11 0 21 4 28 12 8 7 12 17 12 28 0 11-4 21-12 28-7 8-17 12-28 12z m17-67c-9-9-26-9-34 0-6 6-7 11-7 17 0 6 2 12 7 17 6 6 11 7 17 7 6 0 12-2 17-7 4-6 7-11 7-17 0-6-2-12-7-17z m-162 161l-11 2 2-11c1-7 32-170 70-209 20-19 46-30 74-30 28 0 64 11 74 30 19 20 30 46 30 74 0 28-11 64-30 74-39 38-202 69-209 70z m197-206c-16-17-39-26-62-26-24 0-46 9-62 26-27 27-63 136-64 188 62-11 161-37 188-64 17-16 26-38 26-62 0-24-9-46-26-62z"/>
<glyph unicode="&#67423;" d="M266 0c141 0 266 116 266 266 0 141-116 266-266 266-141 0-266-116-266-266 0-141 116-266 266-266z m0 496c132 0 240-108 240-240 0-132-108-240-240-240-132 0-240 108-240 240 0 132 108 240 240 240z m40-240c0 22-18 40-40 40-22 0-40-18-40-40 0-22 18-40 40-40 22 0 40 18 40 40z m-64 0c0 13 11 24 24 24 13 0 24-11 24-24 0-13-11-24-24-24-13 0-24 11-24 24z m24-216l7 11c4 6 97 149 97 204 0 67-47 104-104 104-67 0-104-47-104-104 0-66 93-198 97-204z m0 303c49 0 88-39 88-88 0-38-68-138-88-186-30 47-88 147-88 186 0 49 39 88 88 88z"/>
<glyph unicode="&#67424;" d="M266 612c-68 0-133-27-181-76-100-100-100-262 0-362 48-48 113-76 181-76 68 0 133 27 181 76 100 100 100 262 0 362-48 48-113 76-181 76z m170-426c-46-46-106-70-170-70-64 0-124 26-170 70-93 94-93 246 0 340 46 46 106 70 170 70 64 0 124-26 170-70 93-94 93-246 0-340z m-170 210c-11 0-21-4-28-12-16-16-16-41 0-66 7-8 17-12 28-12 11 0 21 4 28 12 16 16 16 41 0 66-7 8-17 12-28 12z m17-67c-9-9-26-9-34 0-9 9-9 26 0 34 6 6 11 7 17 7 6 0 12-2 17-7 9-9 9-26 0-34z m67 91c-20 19-46 30-74 30-28 0-64-11-74-30-19-20-30-46-30-74 0-28 11-64 30-74 39-38 202-69 209-70l11-2-2 11c-1 7-32 170-70 209z m-136-136c-17 16-26 39-26 62 0 24 9 46 26 62 16 17 38 26 62 26 24 0 46-9 62-26 27-27 63-136 64-188-62 11-161 37-188 64z"/>
<glyph unicode="&#67426;" d="M466 287c-4 81-78 146-168 146-16 0-31-2-46-6-20 14-43 22-67 22-62 0-112-60-112-112 0-17 4-29 10-40-21-16-34-42-34-72 0-46 34-80 80-80l0 16c-38 0-64 26-64 64 0 40 29 72 64 72l23 0 1 7c12 66 73 113 144 113 84 0 162-61 162-136l0-8 8 0c28 0 48-34 48-64 0-29-19-48-48-48l0-16c38 0 64 26 64 64 0 36-22 74-66 79z m-326 26l-10 0c-12 0-22-3-32-8-6 10-8 19-8 32 0 63 43 96 96 96 17 0 33-4 48-13-47-19-83-68-94-107z m-130 32l48 0 0-16-48 0z m168 168l16 0 0-48-16 0z m-130-26l48-48-12-12-48 48z m218-470c-18 0-32 14-32 32l-16 0c0-26 22-48 48-48 26 0 48 22 48 48 0 26-22 48-48 48l-240 0 0-16 240 0c18 0 32-14 32-32 0-18-14-32-32-32z m104 112l-328 0 0-16 328 0c26 0 48 22 48 48 0 26-22 48-48 48-26 0-48-22-48-48l16 0c0 18 14 32 32 32 18 0 32-14 32-32 0-18-14-32-32-32z"/>
<glyph unicode="&#67426;" d="M437 76c100 100 100 262 0 362-48 48-113 76-181 76-68 0-133-27-181-76-100-100-100-262 0-362 48-48 113-76 181-76 68 0 133 27 181 76z m-361 361c46 46 106 70 170 70 64 0 124-26 170-70 93-94 93-246 0-340-46-46-106-70-170-70-64 0-124 26-170 70-93 94-93 246 0 340z m170-130c-11 0-21-4-28-12-16-16-16-41 0-66 7-8 17-12 28-12 11 0 21 4 28 12 16 16 16 41 0 66-7 8-17 12-28 12z m17-67c-9-9-26-9-34 0-9 9-9 26 0 34 6 6 11 7 17 7 6 0 12-2 17-7 9-9 9-26 0-34z m67 91c-20 19-46 30-74 30-28 0-64-11-74-30-38-39-69-202-70-209l-2-11 11 2c7 1 170 32 209 70 40 41 40 107 0 148z m-200-200c11 62 37 161 64 188 16 17 38 26 62 26 24 0 46-9 62-26 36-34 36-90 0-124-27-27-136-63-188-64z"/>
<glyph unicode="&#67427;" d="M266 0c141 0 266 116 266 266 0 141-116 266-266 266-141 0-266-116-266-266 0-141 116-266 266-266z m0 496c132 0 240-108 240-240 0-132-108-240-240-240-132 0-240 108-240 240 0 132 108 240 240 240z m40-240c0 22-18 40-40 40-22 0-40-18-40-40 0-22 18-40 40-40 22 0 40 18 40 40z m-64 0c0 13 11 24 24 24 13 0 24-11 24-24 0-13-11-24-24-24-13 0-24 11-24 24z m-180-7c6-4 149-97 204-97 67 0 104 47 104 104 0 67-47 104-104 104-66 0-198-93-204-97l-11-7z m204 96c49 0 88-39 88-88 0-49-39-88-88-88-38 0-138 68-186 88 47 30 147 88 186 88z"/>
<glyph unicode="&#67428;" d="M0 240l408 0c26 0 48-22 48-48 0-26-22-48-48-48-26 0-48 22-48 48l-16 0c0-36 29-64 64-64 36 0 64 29 64 64 0 36-29 64-64 64l-408 0z m0 66l448 0c36 0 64 29 64 64 0 36-29 64-64 64-36 0-64-29-64-64l16 0c0 26 22 48 48 48 26 0 48-22 48-48 0-26-22-48-48-48l-448 0z m0-112l266 0c18 0 32-14 32-32 0-18-14-32-32-32-18 0-32 14-32 32l-16 0c0-26 22-48 48-48 26 0 48 22 48 48 0 26-22 48-48 48l-266 0z"/>
</font>
</defs>
</svg>
