<?xml version="1.0" standalone="no"?>
<!DOCTYPE svg PUBLIC "-//W3C//DTD SVG 1.1//EN" "http://www.w3.org/Graphics/SVG/1.1/DTD/svg11.dtd" >
<svg xmlns="http://www.w3.org/2000/svg">
<metadata></metadata>
<defs>
<font id="glyphicons_halflingsregular" horiz-adv-x="1200" >
<font-face units-per-em="1200" ascent="960" descent="-240" />
<missing-glyph horiz-adv-x="600" />
<glyph />
<glyph />
<glyph unicode=" " />
<glyph unicode="*" d="M1100 600h-269l183 -183l-141 -141l-183 183v-269h-200v269l-183 -183l-141 141l183 183h-269v200h269l-183 183l141 141l183 -183v269h200v-269l183 183l141 -141l-183 -183h269v-200z" />
<glyph unicode="+" d="M1100 400h-400v-400h-300v400h-400v300h400v400h300v-400h400v-300z" />
<glyph unicode="&#xa0;" />
<glyph unicode="&#x2000;" horiz-adv-x="662" />
<glyph unicode="&#x2001;" horiz-adv-x="1304" />
<glyph unicode="&#x2002;" horiz-adv-x="662" />
<glyph unicode="&#x2003;" horiz-adv-x="1304" />
<glyph unicode="&#x2004;" horiz-adv-x="434" />
<glyph unicode="&#x2006;" horiz-adv-x="326" />
<glyph unicode="&#x2006;" horiz-adv-x="217" />
<glyph unicode="&#x2007;" horiz-adv-x="217" />
<glyph unicode="&#x2008;" horiz-adv-x="163" />
<glyph unicode="&#x2009;" horiz-adv-x="260" />
<glyph unicode="&#x200a;" horiz-adv-x="72" />
<glyph unicode="&#x202f;" horiz-adv-x="260" />
<glyph unicode="&#x206f;" horiz-adv-x="326" />
<glyph unicode="&#x20ac;" d="M800 600h-300q9 -74 33 -132t62.6 -91t62 -64.6t69 -29t46.6 -7.6q29 0 66 13t76 37t63.6 67.6t26.6 96.6h174q-31 -172 -128 -278q-107 -117 -274 -117q-206 0 -324 168q-36 46 -69 131.6t-46 206.6h-217l100 100h113q0 47 6 100h-218l100 100h136q37 167 112 267 q117 141 297 141q242 0 364 -189q60 -103 66 -209h-181q0 66 -26.6 99t-63.6 68t-76 36.6t-67 12.6q-24 0 -62.6 -10t-62.6 -32t-66.6 -67t-60.6 -107h379l-100 -100h-300q-6 -46 -6 -100h406z" />
<glyph unicode="&#x2212;" d="M1100 700h-900v-300h900v300z" />
<glyph unicode="&#x2601;" d="M178 300h760q120 0 206 86t86 208q0 120 -86 206.6t-206 86.6q-46 0 -90 -14q-44 97 -134.6 166.6t-200.6 69.6q-162 0 -260 -107.6t-108 -260.6q0 -26 2 -37q-66 -14 -108.6 -67.6t-42.6 -122.6q0 -80 66.6 -137t136.6 -67z" />
<glyph unicode="&#x2709;" d="M1200 1100h-1200l600 -603zM300 600l-300 -300v600zM1200 900v-600l-300 300zM800 600l400 -400h-1200l400 400l200 -200z" />
<glyph unicode="&#x270f;" d="M1101 889l99 92q13 13 13 32.6t-13 33.6l-163 163q-16 13 -33 13t-33 -13l-94 -97zM401 189l614 614l-214 214l-614 -614zM-13 -13l333 112l-223 223z" />
<glyph unicode="&#xe000;" horiz-adv-x="600" d="M0 0z" />
<glyph unicode="&#xe001;" d="M700 100h300v-100h-800v100h300v660l-600 660h1200l-600 -660v-660z" />
<glyph unicode="&#xe002;" d="M1000 934v-621q-64 16 -138 -7q-79 -26 -122.6 -83t-26.6 -111q17 -66 86.6 -76.6t147.6 4.6q70 23 111.6 63.6t41.6 96.6v881q0 10 -7 16.6t-17 2.6l-762 -193q-10 -3 -17 -12.6t-7 -19.6v-689q-64 17 -138 -7q-79 -26 -122.6 -82t-26.6 -112t86 -76.6t147 6.6 q66 21 109 69t44 90v606z" />
<glyph unicode="&#xe003;" d="M913 432l300 -300q7 -8 7 -18t-7 -18l-109 -109q-8 -7 -18 -7t-18 7l-300 300q-119 -78 -261 -78q-200 0 -342 142t-142 342t142 342t342 142t342 -142t142 -342q0 -142 -78 -261zM176 693q0 -136 97 -233t234 -97t233.6 96.6t96.6 233.6t-96.6 233.6t-233.6 96.6 t-234 -97t-97 -233z" />
<glyph unicode="&#xe006;" d="M649 949q48 69 109.6 106t121.6 38t118.6 -20.6t102.6 -64t71 -100.6t27 -123q0 -67 -33.6 -117.6t-94 -124.6t-126.6 -127.6t-160 -162.6t-146 -174q-62 86 -146.6 174t-149.6 162.6t-126.6 127.6t-94 124.6t-33.6 117.6q0 64 28 123t73 100.6t104.6 64t119 20.6 t120 -38.6t104.6 -104.6z" />
<glyph unicode="&#xe006;" d="M791 622l146 -449l-384 276l-382 -276l146 447l-388 280h479l146 400h2l146 -400h472zM168 71l2 1z" />
<glyph unicode="&#xe007;" d="M791 622l146 -449l-384 276l-382 -276l146 447l-388 280h479l146 400h2l146 -400h472zM747 331l-74 229l193 140h-236l-77 211l-78 -211h-239l196 -142l-73 -226l192 140zM168 71l2 1z" />
<glyph unicode="&#xe008;" d="M1200 143v-143h-1200v143l400 267v100q-37 0 -68.6 74.6t-31.6 126.6v200q0 124 88 212t212 88t212 -88t88 -212v-200q0 -61 -31.6 -126.6t-68.6 -74.6v-100z" />
<glyph unicode="&#xe009;" d="M1200 1100v-1100h-1200v1100h1200zM200 1000h-100v-100h100v100zM900 1000h-600v-400h600v400zM1100 1000h-100v-100h100v100zM200 800h-100v-100h100v100zM1100 800h-100v-100h100v100zM200 600h-100v-100h100v100zM1100 600h-100v-100h100v100zM900 600h-600v-400h600 v400zM200 400h-100v-100h100v100zM1100 400h-100v-100h100v100zM200 200h-100v-100h100v100zM1100 200h-100v-100h100v100z" />
<glyph unicode="&#xe010;" d="M600 1060v-400q0 -21 -14.6 -36.6t-36.6 -14.6h-400q-21 0 -36.6 14.6t-14.6 36.6v400q0 21 14.6 36.6t36.6 14.6h400q21 0 36.6 -14.6t14.6 -36.6zM1100 1060v-400q0 -21 -14.6 -36.6t-36.6 -14.6h-400q-21 0 -36.6 14.6t-14.6 36.6v400q0 21 14.6 36.6t36.6 14.6h400 q21 0 36.6 -14.6t14.6 -36.6zM600 460v-400q0 -21 -14.6 -36.6t-36.6 -14.6h-400q-21 0 -36.6 14.6t-14.6 36.6v400q0 21 14.6 36.6t36.6 14.6h400q21 0 36.6 -14.6t14.6 -36.6zM1100 460v-400q0 -21 -14.6 -36.6t-36.6 -14.6h-400q-21 0 -36.6 14.6t-14.6 36.6v400 q0 21 14.6 36.6t36.6 14.6h400q21 0 36.6 -14.6t14.6 -36.6z" />
<glyph unicode="&#xe011;" d="M300 1060v-200q0 -21 -14.6 -36.6t-36.6 -14.6h-200q-21 0 -36.6 14.6t-14.6 36.6v200q0 21 14.6 36.6t36.6 14.6h200q21 0 36.6 -14.6t14.6 -36.6zM700 1060v-200q0 -21 -14.6 -36.6t-36.6 -14.6h-200q-21 0 -36.6 14.6t-14.6 36.6v200q0 21 14.6 36.6t36.6 14.6h200 q21 0 36.6 -14.6t14.6 -36.6zM1100 1060v-200q0 -21 -14.6 -36.6t-36.6 -14.6h-200q-21 0 -36.6 14.6t-14.6 36.6v200q0 21 14.6 36.6t36.6 14.6h200q21 0 36.6 -14.6t14.6 -36.6zM300 660v-200q0 -21 -14.6 -36.6t-36.6 -14.6h-200q-21 0 -36.6 14.6t-14.6 36.6v200 q0 21 14.6 36.6t36.6 14.6h200q21 0 36.6 -14.6t14.6 -36.6zM700 660v-200q0 -21 -14.6 -36.6t-36.6 -14.6h-200q-21 0 -36.6 14.6t-14.6 36.6v200q0 21 14.6 36.6t36.6 14.6h200q21 0 36.6 -14.6t14.6 -36.6zM1100 660v-200q0 -21 -14.6 -36.6t-36.6 -14.6h-200 q-21 0 -36.6 14.6t-14.6 36.6v200q0 21 14.6 36.6t36.6 14.6h200q21 0 36.6 -14.6t14.6 -36.6zM300 260v-200q0 -21 -14.6 -36.6t-36.6 -14.6h-200q-21 0 -36.6 14.6t-14.6 36.6v200q0 21 14.6 36.6t36.6 14.6h200q21 0 36.6 -14.6t14.6 -36.6zM700 260v-200 q0 -21 -14.6 -36.6t-36.6 -14.6h-200q-21 0 -36.6 14.6t-14.6 36.6v200q0 21 14.6 36.6t36.6 14.6h200q21 0 36.6 -14.6t14.6 -36.6zM1100 260v-200q0 -21 -14.6 -36.6t-36.6 -14.6h-200q-21 0 -36.6 14.6t-14.6 36.6v200q0 21 14.6 36.6t36.6 14.6h200q21 0 36.6 -14.6 t14.6 -36.6z" />
<glyph unicode="&#xe012;" d="M300 1060v-200q0 -21 -14.6 -36.6t-36.6 -14.6h-200q-21 0 -36.6 14.6t-14.6 36.6v200q0 21 14.6 36.6t36.6 14.6h200q21 0 36.6 -14.6t14.6 -36.6zM1200 1060v-200q0 -21 -14.6 -36.6t-36.6 -14.6h-700q-21 0 -36.6 14.6t-14.6 36.6v200q0 21 14.6 36.6t36.6 14.6h700 q21 0 36.6 -14.6t14.6 -36.6zM300 460v200q0 21 -14.6 36.6t-36.6 14.6h-200q-21 0 -36.6 -14.6t-14.6 -36.6v-200q0 -21 14.6 -36.6t36.6 -14.6h200q21 0 36.6 14.6t14.6 36.6zM1200 660v-200q0 -21 -14.6 -36.6t-36.6 -14.6h-700q-21 0 -36.6 14.6t-14.6 36.6v200 q0 21 14.6 36.6t36.6 14.6h700q21 0 36.6 -14.6t14.6 -36.6zM300 260v-200q0 -21 -14.6 -36.6t-36.6 -14.6h-200q-21 0 -36.6 14.6t-14.6 36.6v200q0 21 14.6 36.6t36.6 14.6h200q21 0 36.6 -14.6t14.6 -36.6zM1200 260v-200q0 -21 -14.6 -36.6t-36.6 -14.6h-700 q-21 0 -36.6 14.6t-14.6 36.6v200q0 21 14.6 36.6t36.6 14.6h700q21 0 36.6 -14.6t14.6 -36.6z" />
<glyph unicode="&#xe013;" d="M448 34l818 820l-212 212l-607 -607l-206 207l-212 -212z" />
<glyph unicode="&#xe014;" d="M882 106l-282 282l-282 -282l-212 212l282 282l-282 282l212 212l282 -282l282 282l212 -212l-282 -282l282 -282z" />
<glyph unicode="&#xe016;" d="M913 432l300 -300q7 -8 7 -18t-7 -18l-109 -109q-8 -7 -18 -7t-18 7l-300 300q-119 -78 -261 -78q-200 0 -342 142t-142 342t142 342t342 142t342 -142t142 -342q0 -142 -78 -261zM607 363q137 0 233.6 96.6t96.6 233.6t-96.6 233.6t-233.6 96.6t-234 -97t-97 -233 t97 -233t234 -97zM600 800h100v-200h-100v-100h-200v100h-100v200h100v100h200v-100z" />
<glyph unicode="&#xe016;" d="M913 432l300 -299q7 -7 7 -18t-7 -18l-109 -109q-8 -8 -18 -8t-18 8l-300 299q-120 -77 -261 -77q-200 0 -342 142t-142 342t142 342t342 142t342 -142t142 -342q0 -141 -78 -262zM176 694q0 -136 97 -233t234 -97t233.6 97t96.6 233t-96.6 233t-233.6 97t-234 -97 t-97 -233zM300 801v-200h400v200h-400z" />
<glyph unicode="&#xe017;" d="M700 760v400q0 21 -14.6 36.6t-36.6 14.6h-100q-21 0 -36.6 -14.6t-14.6 -36.6v-400q0 -21 14.6 -36.6t36.6 -14.6h100q21 0 36.6 14.6t14.6 36.6zM800 976v166q167 -62 272 -210t106 -331q0 -118 -46.6 -224.6t-123 -184t-184 -123t-224.6 -46.6t-224.6 46.6t-184 123 t-123 184t-46.6 224.6q0 183 106 331t272 210v-166q-103 -66 -166 -166t-62 -220q0 -177 126 -302t302 -126t302 126t126 302q0 120 -62 220t-166 166z" />
<glyph unicode="&#xe018;" d="M1200 1h-200v1200h200v-1200zM900 1h-200v800h200v-800zM600 1h-200v600h200v-600zM300 301h-200v-300h200v300z" />
<glyph unicode="&#xe019;" d="M488 183l38 -161q40 -6 74 -6q27 0 74 6l38 161l6 2q46 13 93 39l6 3l134 -81q66 44 104 106l-80 134l3 6q24 44 39 93l1 6l162 38q6 40 6 74q0 28 -6 73l-162 38l-1 6q-16 61 -39 93l-3 6l80 134q-44 68 -104 106l-134 -81l-6 3q-46 26 -93 39l-6 1l-38 162q-40 6 -74 6 q-27 0 -74 -6l-38 -162l-6 -1q-60 -14 -94 -39l-6 -3l-133 81q-69 -47 -106 -106l80 -134l-3 -6q-26 -47 -38 -93l-2 -6l-161 -38q-6 -48 -6 -73q0 -33 6 -74l161 -38l2 -6q14 -49 38 -93l3 -6l-80 -134q46 -69 106 -106l133 81l6 -3q46 -26 94 -39zM600 816q89 0 162 -63 t63 -161q0 -89 -63 -162t-162 -63t-162 63t-63 162q0 88 63 161t162 63z" />
<glyph unicode="&#xe020;" d="M900 1100h276q10 0 17.6 -7.6t7.6 -17.6v-60q0 -11 -7 -18t-18 -7h-1060q-11 0 -18 7t-7 18v60q0 10 7.6 17.6t17.6 7.6h276v100q0 41 29.6 70.6t70.6 29.6h300q41 0 70.6 -29.6t29.6 -70.6v-100zM800 1100v100h-300v-100h300zM200 900h900v-800q0 -41 -29.6 -71 t-70.6 -30h-700q-41 0 -70.6 30t-29.6 71v800zM300 100h100v700h-100v-700zM600 100h100v700h-100v-700zM700 100h100v700h-100v-700zM900 100h100v700h-100v-700z" />
<glyph unicode="&#xe021;" d="M1301 601h-200v-600h-300v400h-300v-400h-300v600h-200l666 644z" />
<glyph unicode="&#xe022;" d="M600 700h400v-676q0 -11 -7 -18t-18 -7h-860q-11 0 -18 7t-7 18v1160q0 11 7 18t18 7h476v-600zM1000 800h-300v300z" />
<glyph unicode="&#xe023;" d="M600 1196q162 0 299 -80t217 -217t80 -299t-80 -299t-217 -217t-299 -80t-299 80t-217 217t-80 299t80 299t217 217t299 80zM600 1014q-171 0 -292.6 -121.6t-121.6 -292.6t121.6 -292.6t292.6 -121.6t292.6 121.6t121.6 292.6t-121.6 292.6t-292.6 121.6zM600 600h200 v-100h-300v400h100v-300z" />
<glyph unicode="&#xe024;" d="M721 400h-242l-40 -400h-639l431 1200h209l-21 -300h162l-20 300h208l431 -1200h-638zM712 600l-27 300h-170l-27 -300h224z" />
<glyph unicode="&#xe026;" d="M1100 400v-400h-1100v400h490l-290 300h200v600h300v-600h200l-290 -300h490zM988 300h-176v-100h176v100z" />
<glyph unicode="&#xe026;" d="M600 1199q122 0 233 -47.6t191 -127.6t127.6 -191t47.6 -233t-47.6 -233t-127.6 -191t-191 -127.6t-233 -47.6t-233 47.6t-191 127.6t-127.6 191t-47.6 233t47.6 233t127.6 191t191 127.6t233 47.6zM600 1012q-170 0 -291 -121t-121 -291t121 -291t291 -121t291 121 t121 291t-121 291t-291 121zM700 600h160l-260 -300l-260 300h160v300h200v-300z" />
<glyph unicode="&#xe027;" d="M600 1196q162 0 299 -80t217 -217t80 -299t-80 -299t-217 -217t-299 -80t-299 80t-217 217t-80 299t80 299t217 217t299 80zM600 1014q-171 0 -292.6 -121.6t-121.6 -292.6t121.6 -292.6t292.6 -121.6t292.6 121.6t121.6 292.6t-121.6 292.6t-292.6 121.6zM860 600h-160 v-300h-200v300h-160l260 300z" />
<glyph unicode="&#xe028;" d="M0 600l200 700h800q199 -700 200 -700v-476q0 -11 -7 -18t-18 -7h-1160q-11 0 -18 7t-7 18v476zM903 1000h-606l-97 -600h200l60 -200h300l60 200h200z" />
<glyph unicode="&#xe029;" d="M600 1196q162 0 299 -80t217 -217t80 -299t-80 -299t-217 -217t-299 -80t-299 80t-217 217t-80 299t80 299t217 217t299 80zM600 1014q-171 0 -292.6 -121.6t-121.6 -292.6q0 -172 121.6 -293t292.6 -121t292.6 121t121.6 293q0 171 -121.6 292.6t-292.6 121.6zM797 698 l-297 -201v401z" />
<glyph unicode="&#xe030;" d="M1177 600h-160q0 -177 -126 -302t-302 -126t-302 126t-126 302t126 302t302 126q136 0 246 -81l-146 -146h400v400l-146 -146q-167 122 -366 122q-118 0 -224.6 -46.6t-184 -123t-123 -184t-46.6 -224.6t46.6 -224.6t123 -184t184 -123t224.6 -46.6t224.6 46.6t184 123 t123 184t46.6 224.6z" />
<glyph unicode="&#xe031;" d="M700 800l147 147q-112 80 -247 80q-177 0 -302 -126t-126 -302h-160q0 118 46.6 224.6t123 184t184 123t224.6 46.6q198 0 366 -122l146 146v-400h-400zM600 400l-147 -147q112 -80 247 -80q177 0 302 126t126 302h160q0 -118 -46.6 -224.6t-123 -184t-184 -123 t-224.6 -46.6q-198 0 -366 122l-146 -146v400h400z" />
<glyph unicode="&#xe032;" d="M100 1200v-1200h1100v1200h-1100zM1100 100h-900v900h900v-900zM400 800h-100v100h100v-100zM1000 800h-600v100h600v-100zM400 600h-100v100h100v-100zM1000 600h-600v100h600v-100zM400 400h-100v100h100v-100zM1000 400h-600v100h600v-100zM400 200h-100v100h100v-100 zM1000 300h-600v-100h600v100z" />
<glyph unicode="&#xe034;" d="M200 0h-100v1100h100v-1100zM1100 600v600q-40 -81 -101.6 -116.6t-127.6 -29.6t-138 26t-139.6 40t-126.6 26t-103 -29.6t-66 -116.6v-600q60 60 127.6 84t127.6 17.6t122 -23t119 -30t110 -11t103 42t91 120.6z" />
<glyph unicode="&#xe036;" d="M1200 276v300q0 116 -49.6 227t-131 192.6t-192.6 131t-227 49.6t-227 -49.6t-192.6 -131t-131 -192.6t-49.6 -227v-300q0 -11 7 -18t18 -7h60q11 0 18 7t7 18v300q0 127 70.6 231.6t184.6 161.6t246 67t246 -67t184.6 -161.6t70.6 -231.6v-300q0 -11 7 -18t18 -7h60 q11 0 18 7t7 18zM400 480v-460q0 -8 -6 -14t-14 -6h-160q-8 0 -14 6t-6 14v460q0 8 6 14t14 6h160q8 0 14 -6t6 -14zM1000 480v-460q0 -8 -6 -14t-14 -6h-160q-8 0 -14 6t-6 14v460q0 8 6 14t14 6h160q8 0 14 -6t6 -14z" />
<glyph unicode="&#xe036;" d="M0 800v-400h300l300 -200v800l-300 -200h-300zM971 600l141 -141l-71 -71l-141 141l-141 -141l-71 71l141 141l-141 141l71 71l141 -141l141 141l71 -71z" />
<glyph unicode="&#xe037;" d="M0 800v-400h300l300 -200v800l-300 -200h-300zM700 867l69 63q111 -136 111 -310q0 -169 -106 -302l-67 64q86 110 86 248q0 146 -93 267z" />
<glyph unicode="&#xe038;" d="M974 186l6 8q142 178 142 406q0 230 -144 408l-6 8l-83 -64l7 -8q123 -161 123 -344q0 -189 -119 -339l-7 -8zM300 801l300 200v-800l-300 200h-300v400h300zM702 868l69 63q111 -136 111 -310q0 -170 -106 -303l-67 66q86 110 86 248q0 146 -93 267z" />
<glyph unicode="&#xe039;" d="M100 700h400v100h100v100h-100v300h-600v-600h100v100zM1200 700v600h-600v-200h100v-300h200v-300h300v200h-200v100h200zM100 1100h300v-300h-300v300zM800 800v300h300v-300h-300zM200 900h100v100h-100v-100zM900 1000h100v-100h-100v100zM300 600h-100v-100h-200 v-600h600v600h-200v100zM900 200v-100h-200v100h-100v100h100v200h-200v100h300v-300h200v-100h-100zM400 400v-300h-300v300h300zM300 200h-100v100h100v-100zM1100 300h100v-100h-100v100zM600 100h100v-100h-100v100zM1200 100v-100h-300v100h300z" />
<glyph unicode="&#xe040;" d="M100 1200h-100v-1000h100v1000zM300 200h-100v1000h100v-1000zM700 200h-200v1000h200v-1000zM900 200h-100v1000h100v-1000zM1200 1200v-1000h-200v1000h200zM400 100v-100h-300v100h300zM600 91h100v-91h-100v91zM700 91h100v-91h-100v91zM1100 91v-91h-200v91h200z " />
<glyph unicode="&#xe041;" d="M1200 600l-600 -600l-699 700v476q0 10 7.6 17.6t17.6 7.6h474zM320 882q29 29 29 71t-29 71q-30 30 -71.6 30t-71.6 -30q-29 -29 -29 -71t29 -71q30 -30 71.6 -30t71.6 30z" />
<glyph unicode="&#xe042;" d="M1201 600l-600 -600l-699 700v476q0 11 7 18t18 7h474zM1601 600l-600 -600l-60 60l460 460l-700 700h100zM320 882q30 29 30 71t-30 71q-29 30 -71 30t-71 -30q-30 -29 -30 -71t30 -71q29 -30 71 -30t71 30z" />
<glyph unicode="&#xe043;" d="M1200 1200v-1000l-100 -100v1000h-760l-100 -100h760v-1000h-900v1026l176 176h926z" />
<glyph unicode="&#xe046;" d="M947 829l-94 346q-2 11 -10 18t-18 7h-460q-10 0 -18 -7t-10 -18l-94 -346l40 -124h692zM1200 800v-700h-200v200h-800v-200h-200v700h200l100 -200h600l100 200h200zM881 176l38 -162q2 -10 -3.6 -17t-16.6 -7h-600q-10 0 -16.6 7t-3.6 17l38 162q2 10 11.6 17t19.6 7 h600q10 0 19.6 -7t11.6 -17z" />
<glyph unicode="&#xe047;" d="M1200 0v66q-34 1 -74 43q-18 19 -33 42t-21 37l-6 13l-386 998h-93l-399 -1006q-24 -48 -62 -76q-12 -12 -33 -26t-36 -20l-16 -7v-66h366v66q-41 0 -72 11t-49 38t1 71l92 234h391l82 -222q16 -46 -6.6 -88.6t-74.6 -43.6v-66h417zM416 621l178 467l46 -140l116 -317 h-340z" />
<glyph unicode="&#xe048;" d="M100 1199h471q120 0 213 -88t93 -228q0 -66 -11.6 -101.6t-28 -74t-33.6 -47.6t-28 -28l-12 -7q8 -3 21.6 -9t48 -31.6t60.6 -68t47.6 -91.6t21.6 -129q0 -84 -69 -166.6t-142 -111t-162 -38.6h-600v89q41 7 70.6 32.6t29.6 66.6v827q0 28 -1 39.6t-6.6 26t-16.6 21 t-29 14t-49 14.6v70zM400 1079v-379h139q76 0 130 61.6t64 138.6q0 82 -84 130.6t-239 48.6zM400 200h161q89 0 163 48.6t64 132.6q0 90 -62.6 164.6t-166.6 64.6h-169v-400z" />
<glyph unicode="&#xe049;" d="M877 1200l2 -67q-33 -8 -62 -26.6t-46 -37t-29.6 -38t-17.6 -30.6l-6 -12l-128 -826q-10 -62 14 -82t96 -36v-67h-600v67q77 7 134.6 40.6t66.6 80.6l173 849q10 66 -10 74t-91 37q-6 1 -10.6 2.6t-9.6 2.6v67h426z" />
<glyph unicode="&#xe060;" d="M1160 1200h160v-300h-60q0 29 -8 48.6t-18.6 30t-33.6 16t-39.6 6.6t-60.6 1h-200v-860l100 -60v-100h-400v100l100 60v860h-200q-34 0 -60.6 -1t-40 -6.6t-33.6 -16t-18.6 -30t-8.6 -48.6h-49v300h160h700zM100 1000v-800h76l-126 -167l-126 167h76v800h-76l126 167 l126 -167h-76z" />
<glyph unicode="&#xe061;" d="M960 1201h160v-300h-60q0 29 -8 48.6t-18 30t-33.6 16t-40 6.6t-60.6 1h-200v-660l100 -60v-100h-400v100l100 60v660h-200q-34 0 -60.6 -1t-39.6 -6.6t-33.6 -16t-18.6 -30t-8 -48.6h-60v300h160h700zM200 101h800v76l167 -126l-167 -126v76h-800v-76l-167 126l167 126 v-76z" />
<glyph unicode="&#xe062;" d="M700 960v100q0 21 -14.6 36.6t-36.6 14.6h-600q-21 0 -36.6 -14.6t-14.6 -36.6v-100q0 -20 14.6 -36t36.6 -16h600q21 0 36.6 16t14.6 36zM1100 660v100q0 21 -14.6 36.6t-36.6 14.6h-1000q-21 0 -36.6 -14.6t-14.6 -36.6v-100q0 -20 14.6 -36t36.6 -16h1000 q21 0 36.6 16t14.6 36zM900 360v100q0 21 -14.6 36.6t-36.6 14.6h-800q-21 0 -36.6 -14.6t-14.6 -36.6v-100q0 -20 14.6 -36t36.6 -16h800q21 0 36.6 16t14.6 36zM1200 60v100q0 21 -14.6 36.6t-36.6 14.6h-1100q-21 0 -36.6 -14.6t-14.6 -36.6v-100q0 -20 14.6 -36 t36.6 -16h1100q21 0 36.6 16t14.6 36z" />
<glyph unicode="&#xe063;" d="M1000 960v100q0 21 -14.6 36.6t-36.6 14.6h-700q-21 0 -36.6 -14.6t-14.6 -36.6v-100q0 -20 14.6 -36t36.6 -16h700q21 0 36.6 16t14.6 36zM1200 660v100q0 21 -14.6 36.6t-36.6 14.6h-1100q-21 0 -36.6 -14.6t-14.6 -36.6v-100q0 -20 14.6 -36t36.6 -16h1100 q21 0 36.6 16t14.6 36zM1000 360v100q0 21 -14.6 36.6t-36.6 14.6h-700q-21 0 -36.6 -14.6t-14.6 -36.6v-100q0 -20 14.6 -36t36.6 -16h700q21 0 36.6 16t14.6 36zM1200 60v100q0 21 -14.6 36.6t-36.6 14.6h-1100q-21 0 -36.6 -14.6t-14.6 -36.6v-100q0 -20 14.6 -36 t36.6 -16h1100q21 0 36.6 16t14.6 36z" />
<glyph unicode="&#xe064;" d="M600 960v100q0 21 14.6 36.6t36.6 14.6h600q21 0 36.6 -14.6t14.6 -36.6v-100q0 -20 -14.6 -36t-36.6 -16h-600q-21 0 -36.6 16t-14.6 36zM100 660v100q0 21 14.6 36.6t36.6 14.6h1000q21 0 36.6 -14.6t14.6 -36.6v-100q0 -20 -14.6 -36t-36.6 -16h-1000q-21 0 -36.6 16 t-14.6 36zM300 360v100q0 21 14.6 36.6t36.6 14.6h800q21 0 36.6 -14.6t14.6 -36.6v-100q0 -20 -14.6 -36t-36.6 -16h-800q-21 0 -36.6 16t-14.6 36zM0 60v100q0 21 14.6 36.6t36.6 14.6h1100q21 0 36.6 -14.6t14.6 -36.6v-100q0 -20 -14.6 -36t-36.6 -16h-1100 q-21 0 -36.6 16t-14.6 36z" />
<glyph unicode="&#xe066;" d="M0 960v100q0 21 14.6 36.6t36.6 14.6h1100q21 0 36.6 -14.6t14.6 -36.6v-100q0 -20 -14.6 -36t-36.6 -16h-1100q-21 0 -36.6 16t-14.6 36zM0 660v100q0 21 14.6 36.6t36.6 14.6h1100q21 0 36.6 -14.6t14.6 -36.6v-100q0 -20 -14.6 -36t-36.6 -16h-1100q-21 0 -36.6 16 t-14.6 36zM0 360v100q0 21 14.6 36.6t36.6 14.6h1100q21 0 36.6 -14.6t14.6 -36.6v-100q0 -20 -14.6 -36t-36.6 -16h-1100q-21 0 -36.6 16t-14.6 36zM0 60v100q0 21 14.6 36.6t36.6 14.6h1100q21 0 36.6 -14.6t14.6 -36.6v-100q0 -20 -14.6 -36t-36.6 -16h-1100 q-21 0 -36.6 16t-14.6 36z" />
<glyph unicode="&#xe066;" d="M0 960v100q0 21 14.6 36.6t36.6 14.6h100q21 0 36.6 -14.6t14.6 -36.6v-100q0 -20 -14.6 -36t-36.6 -16h-100q-21 0 -36.6 16t-14.6 36zM300 960v100q0 21 14.6 36.6t36.6 14.6h800q21 0 36.6 -14.6t14.6 -36.6v-100q0 -20 -14.6 -36t-36.6 -16h-800q-21 0 -36.6 16 t-14.6 36zM0 660v100q0 21 14.6 36.6t36.6 14.6h100q21 0 36.6 -14.6t14.6 -36.6v-100q0 -20 -14.6 -36t-36.6 -16h-100q-21 0 -36.6 16t-14.6 36zM300 660v100q0 21 14.6 36.6t36.6 14.6h800q21 0 36.6 -14.6t14.6 -36.6v-100q0 -20 -14.6 -36t-36.6 -16h-800 q-21 0 -36.6 16t-14.6 36zM0 360v100q0 21 14.6 36.6t36.6 14.6h100q21 0 36.6 -14.6t14.6 -36.6v-100q0 -20 -14.6 -36t-36.6 -16h-100q-21 0 -36.6 16t-14.6 36zM300 360v100q0 21 14.6 36.6t36.6 14.6h800q21 0 36.6 -14.6t14.6 -36.6v-100q0 -20 -14.6 -36t-36.6 -16 h-800q-21 0 -36.6 16t-14.6 36zM0 60v100q0 21 14.6 36.6t36.6 14.6h100q21 0 36.6 -14.6t14.6 -36.6v-100q0 -20 -14.6 -36t-36.6 -16h-100q-21 0 -36.6 16t-14.6 36zM300 60v100q0 21 14.6 36.6t36.6 14.6h800q21 0 36.6 -14.6t14.6 -36.6v-100q0 -20 -14.6 -36t-36.6 -16 h-800q-21 0 -36.6 16t-14.6 36z" />
<glyph unicode="&#xe067;" d="M400 1100h-100v-1100h100v1100zM700 960v100q0 21 -16 36.6t-36 14.6h-100q-21 0 -36.6 -14.6t-14.6 -36.6v-100q0 -20 14.6 -36t36.6 -16h100q20 0 36 16t16 36zM1100 660v100q0 21 -16 36.6t-36 14.6h-600q-21 0 -36.6 -14.6t-14.6 -36.6v-100q0 -20 14.6 -36t36.6 -16 h600q20 0 36 16t16 36zM100 426v76h-201v100h201v76l166 -126zM900 360v100q0 21 -16 36.6t-36 14.6h-300q-21 0 -36.6 -14.6t-14.6 -36.6v-100q0 -20 14.6 -36t36.6 -16h300q20 0 36 16t16 36zM1200 60v100q0 21 -16 36.6t-36 14.6h-600q-21 0 -36.6 -14.6t-14.6 -36.6 v-100q0 -20 14.6 -36t36.6 -16h600q20 0 36 16t16 36z" />
<glyph unicode="&#xe068;" d="M201 960v100q0 21 -16 36.6t-36 14.6h-100q-21 0 -36.6 -14.6t-14.6 -36.6v-100q0 -20 14.6 -36t36.6 -16h100q20 0 36 16t16 36zM801 1100h100v-1100h-100v1100zM601 660v100q0 21 -16 36.6t-36 14.6h-600q-21 0 -36.6 -14.6t-14.6 -36.6v-100q0 -20 14.6 -36t36.6 -16 h600q20 0 36 16t16 36zM1101 426v76h200v100h-200v76l-167 -126zM401 360v100q0 21 -16 36.6t-36 14.6h-300q-21 0 -36.6 -14.6t-14.6 -36.6v-100q0 -20 14.6 -36t36.6 -16h300q20 0 36 16t16 36zM701 60v100q0 21 -16 36.6t-36 14.6h-600q-21 0 -36.6 -14.6t-14.6 -36.6 v-100q0 -20 14.6 -36t36.6 -16h600q20 0 36 16t16 36z" />
<glyph unicode="&#xe069;" d="M900 926v-660q0 -31 -22 -63t-63 -22h-760q-31 0 -63 22t-22 63v660q0 31 22 63t63 22h760q31 0 63 -22t22 -63zM1200 300l-300 300l300 300v-600z" />
<glyph unicode="&#xe060;" d="M1200 1066v-1012q0 -18 -12.6 -31t-31.6 -13h-1112q-18 0 -31 13t-13 31v1012q0 18 13 31t31 13h1112q19 0 31.6 -13t12.6 -31zM1100 1000h-1000v-737l247 182l298 -131l-74 166l293 318l236 -288v600zM476 760q0 -66 -39 -96t-96 -39t-96 39t-39 96t39 96t96 39t96 -39 t39 -96z" />
<glyph unicode="&#xe062;" d="M600 1213q123 0 227 -63t164.6 -169.6t60.6 -229.6t-73 -272q-73 -114 -166.6 -237t-160.6 -189l-67 -66q-10 9 -27 26t-66.6 70.6t-96 109t-104 136.6t-100.6 166q-63 139 -63 262q0 124 60.6 231.6t166 172t226.6 64.6zM699 614q107 0 182.6 76.6t76.6 182.6t-76.6 182 t-182.6 76t-182 -76.6t-76 -181.6q0 -107 76.6 -182.6t181.6 -76.6z" />
<glyph unicode="&#xe063;" d="M600 1199q122 0 233 -47.6t191 -127.6t127.6 -191t47.6 -233t-47.6 -233t-127.6 -191t-191 -127.6t-233 -47.6t-233 47.6t-191 127.6t-127.6 191t-47.6 233t47.6 233t127.6 191t191 127.6t233 47.6zM600 173v864q-176 0 -301.6 -126t-126.6 -302t126.6 -302t301.6 -126z " />
<glyph unicode="&#xe064;" d="M664 1296q21 -71 67.6 -142.6t76 -130.6t83 -118.6t82 -117t70 -116t60 -126.6t18.6 -136q0 -89 -39 -166.6t-102 -126.6t-140 -79.6t-166 -33.6q-114 6 -211.6 63t-161.6 138.6t-64 210.6q0 94 34 186t88.6 172.6t112 169t116 177t87.6 194.6zM466 296q-7 6 -18 17 t-34 48t-33 77q-16 73 -14 143.6t10 122.6l9 61q-92 -110 -119.6 -186t-12.6 -166q14 -82 69.6 -136t136.6 -80z" />
<glyph unicode="&#xe066;" d="M1108 902l113 113l-21 86l-92 28l-113 -113zM1100 626v-226q0 -166 -117.6 -282.6t-282.6 -117.6h-300q-166 0 -282.6 117.6t-117.6 282.6v300q0 166 117.6 282.6t282.6 117.6q366 -6 397 -14l-186 -186h-311q-41 0 -70.6 -29.6t-29.6 -70.6v-600q0 -41 29.6 -70.6 t70.6 -29.6h600q41 0 70.6 29.6t29.6 70.6v126zM436 341l161 60l412 412l-114 113l-406 -406z" />
<glyph unicode="&#xe066;" d="M1100 463v-63q0 -166 -117.6 -282.6t-282.6 -117.6h-300q-166 0 -282.6 117.6t-117.6 282.6v300q0 166 117.6 282.6t282.6 117.6h261l2 -80q-133 -32 -218 -120h-146q-41 0 -70.6 -29.6t-29.6 -70.6v-600q0 -41 29.6 -70.6t70.6 -29.6h600q41 0 70.6 29.6t29.6 70.6z M813 431l360 324l-369 318v-216q-7 0 -19 -1t-48 -8t-69.6 -18.6t-76.6 -37t-76.6 -69t-62 -88t-39.6 -121.6q30 38 81.6 64t103 36.6t99 14t77.6 3.6l29 -1v-209z" />
<glyph unicode="&#xe067;" d="M1100 669v-169q0 -166 -117.6 -282.6t-282.6 -117.6h-300q-166 0 -282.6 117.6t-117.6 282.6v300q0 166 117.6 282.6t282.6 117.6h300q60 0 127 -23l-178 -177h-349q-41 0 -70.6 -29.6t-29.6 -70.6v-600q0 -41 29.6 -70.6t70.6 -29.6h600q41 0 70.6 29.6t29.6 70.6v69z M626 348l666 667l-136 137l-430 -431l-147 147l-136 -136z" />
<glyph unicode="&#xe068;" d="M900 303v198h-200v-200h196l-296 -300l-300 300h200v200h-200v-198l-300 300l300 296v-198h200v200h-200l300 300l296 -300h-196v-200h200v198l300 -296z" />
<glyph unicode="&#xe069;" d="M900 0l-600 488v-438q0 -21 -14.6 -36.6t-36.6 -14.6h-100q-21 0 -36.6 14.6t-14.6 36.6v1000q0 21 14.6 36.6t36.6 14.6h100q21 0 36.6 -14.6t14.6 -36.6v-437l600 487v-1100z" />
<glyph unicode="&#xe070;" d="M1200 0l-600 488v-488l-600 488v-438q0 -21 -14.6 -36.6t-36.6 -14.6h-100q-21 0 -36.6 14.6t-14.6 36.6v1000q0 21 14.6 36.6t36.6 14.6h100q21 0 36.6 -14.6t14.6 -36.6v-437l600 487v-487l600 487v-1100z" />
<glyph unicode="&#xe071;" d="M1200 0l-600 488v-488l-664 660l664 660v-487l600 487v-1100z" />
<glyph unicode="&#xe072;" d="M1100 660l-900 660v-1100z" />
<glyph unicode="&#xe073;" d="M600 160v800q0 21 -14.6 36.6t-36.6 14.6h-200q-21 0 -36.6 -14.6t-14.6 -36.6v-800q0 -21 14.6 -36.6t36.6 -14.6h200q21 0 36.6 14.6t14.6 36.6zM900 160v800q0 21 -14.6 36.6t-36.6 14.6h-200q-21 0 -36.6 -14.6t-14.6 -36.6v-800q0 -21 14.6 -36.6t36.6 -14.6h200 q21 0 36.6 14.6t14.6 36.6z" />
<glyph unicode="&#xe074;" d="M1100 160v800q0 21 -14.6 36.6t-36.6 14.6h-800q-21 0 -36.6 -14.6t-14.6 -36.6v-800q0 -20 14.6 -36t36.6 -16h800q21 0 36.6 16t14.6 36z" />
<glyph unicode="&#xe076;" d="M600 0v488l-600 -488v1100l600 -487v487l664 -660z" />
<glyph unicode="&#xe076;" d="M1060 1100h100q21 0 36.6 -14.6t14.6 -36.6v-1000q0 -21 -14.6 -36.6t-36.6 -14.6h-100q-21 0 -36.6 14.6t-14.6 36.6v438l-600 -488v488l-600 -488v1100l600 -487v487l600 -487v437q0 21 14.6 36.6t36.6 14.6z" />
<glyph unicode="&#xe077;" d="M860 1100h100q21 0 36.6 -14.6t14.6 -36.6v-1000q0 -21 -14.6 -36.6t-36.6 -14.6h-100q-21 0 -36.6 14.6t-14.6 36.6v438l-600 -488v1100l600 -487v437q0 21 14.6 36.6t36.6 14.6z" />
<glyph unicode="&#xe078;" d="M660 1064l-660 -664h1100zM1200 360v-100q0 -21 -14.6 -36.6t-36.6 -14.6h-1000q-21 0 -36.6 14.6t-14.6 36.6v100q0 21 14.6 36.6t36.6 14.6h1000q21 0 36.6 -14.6t14.6 -36.6z" />
<glyph unicode="&#xe079;" d="M777 7l240 240l-363 363l363 363l-240 240l-692 -694z" />
<glyph unicode="&#xe080;" d="M613 -46l-241 240l363 363l-363 363l241 240l672 -671l21 -22l-1 -1v-1z" />
<glyph unicode="&#xe081;" d="M600 1197q162 0 299.6 -80t217.6 -217.6t80 -299.6t-80 -299.6t-217.6 -217.6t-299.6 -80t-299.6 80t-217.6 217.6t-80 299.6t80 299.6t217.6 217.6t299.6 80zM600 900v-200h-200v-200h200v-200h200v200h200v200h-200v200h-200z" />
<glyph unicode="&#xe082;" d="M600 1197q162 0 299.6 -80t217.6 -217.6t80 -299.6t-80 -299.6t-217.6 -217.6t-299.6 -80t-299.6 80t-217.6 217.6t-80 299.6t80 299.6t217.6 217.6t299.6 80zM300 700v-200h600v200h-600z" />
<glyph unicode="&#xe083;" d="M600 1197q162 0 299.6 -80t217.6 -217.6t80 -299.6t-80 -299.6t-217.6 -217.6t-299.6 -80t-299.6 80t-217.6 217.6t-80 299.6t80 299.6t217.6 217.6t299.6 80zM247 741l141 -141l-142 -141l213 -213l141 142l141 -142l213 213l-142 141l142 141l-213 212l-141 -141 l-141 142z" />
<glyph unicode="&#xe084;" d="M600 1197q162 0 299.6 -80t217.6 -217.6t80 -299.6t-80 -299.6t-217.6 -217.6t-299.6 -80t-299.6 80t-217.6 217.6t-80 299.6t80 299.6t217.6 217.6t299.6 80zM646 623l-102 102l-174 -174l276 -277l411 411l-176 174z" />
<glyph unicode="&#xe086;" d="M600 1197q162 0 299.6 -80t217.6 -217.6t80 -299.6t-80 -299.6t-217.6 -217.6t-299.6 -80t-299.6 80t-217.6 217.6t-80 299.6t80 299.6t217.6 217.6t299.6 80zM600 600h200q6 3 14 8t31.6 26.6t39.6 46.6t31 69t14 94q0 61 -17.6 89t-42 68t-68.6 32t-68.6 16t-61.6 3 q-106 0 -172 -66t-67 -183h144q4 0 11.6 -1t11 -1t6.6 3t3 9t1 11t3.6 8.6t3.6 6t6.6 4t6.6 2.6t9 1.6t9 0.6h11.6h12.6q19 0 30 -10t11 -26q0 -22 -4 -28t-27 -22q-6 -1 -12.6 -3t-27 -13.6t-34 -27t-26.6 -46t-11 -68.6zM600 400v-100h200v100h-200z" />
<glyph unicode="&#xe086;" d="M600 1197q162 0 299.6 -80t217.6 -217.6t80 -299.6t-80 -299.6t-217.6 -217.6t-299.6 -80t-299.6 80t-217.6 217.6t-80 299.6t80 299.6t217.6 217.6t299.6 80zM600 900v-100h200v100h-200zM400 700v-100h100v-200h-100v-100h400v100h-100v300h-300z" />
<glyph unicode="&#xe087;" d="M1200 700v-200h-203q-26 -102 -116.6 -186t-180.6 -117v-197h-200v197q-140 27 -208 102.6t-98 200.6h-194v200h194q16 60 36 104.6t66.6 86t88 69t126.6 40.6v200h200v-200q64 -20 113 -60t112.6 -106.6t71.6 -134.6h203zM700 600v-206q149 48 201 206h-201v200h200 q-26 74 -76 127.6t-124 76.6v-204h-200v203q-76 -24 -130 -77.6t-79 -126.6h209v-200h-210q24 -73 79.6 -127.6t130.6 -78.6v206h200z" />
<glyph unicode="&#xe088;" d="M600 1196q162 0 299 -80t217 -217t80 -299t-80 -299t-217 -217t-299 -80t-299 80t-217 217t-80 299t80 299t217 217t299 80zM600 1014q-171 0 -292.6 -121.6t-121.6 -292.6t121.6 -292.6t292.6 -121.6t292.6 121.6t121.6 292.6t-121.6 292.6t-292.6 121.6zM844 736 l-136 -136l136 -136l-109 -109l-136 136l-136 -136l-109 109l136 136l-136 136l109 109l136 -136l136 136z" />
<glyph unicode="&#xe089;" d="M600 1196q162 0 299 -80t217 -217t80 -299t-80 -299t-217 -217t-299 -80t-299 80t-217 217t-80 299t80 299t217 217t299 80zM600 1014q-171 0 -292.6 -121.6t-121.6 -292.6t121.6 -292.6t292.6 -121.6t292.6 121.6t121.6 292.6t-121.6 292.6t-292.6 121.6zM896 664 l-346 -346l-228 228l141 141l87 -87l204 206z" />
<glyph unicode="&#xe090;" d="M600 1196q162 0 299 -80t217 -217t80 -299t-80 -299t-217 -217t-299 -80t-299 80t-217 217t-80 299t80 299t217 217t299 80zM248 386l668 667q-100 62 -216 62q-171 0 -292.6 -121.6t-121.6 -292.6q0 -116 62 -216zM966 809l-664 -664q97 -69 209 -69q171 0 292.6 121.6 t121.6 292.6q0 112 -69 209z" />
<glyph unicode="&#xe091;" d="M1200 400h-600v-301l-600 448l600 463v-300h600v-300z" />
<glyph unicode="&#xe092;" d="M600 400h-600v300h600v300l600 -463l-600 -448v301z" />
<glyph unicode="&#xe093;" d="M1098 600h-298v-600h-300v600h-296l460 600z" />
<glyph unicode="&#xe094;" d="M998 600l-449 -600l-446 600h296v600h300v-600h298z" />
<glyph unicode="&#xe096;" d="M600 199v301q-96 -2 -183 -20t-170 -62t-147 -92.6t-100 -136.6q6 132 41 238.6t103.6 193t184 138t271.6 69.6v271l600 -463z" />
<glyph unicode="&#xe096;" d="M1200 1200h-400l129 -129l-294 -294l142 -142l294 294l129 -129v400zM666 423l-294 -294l129 -129h-400v400l129 -129l294 294z" />
<glyph unicode="&#xe097;" d="M871 730l129 -130h-400v400l129 -129l296 296l142 -141zM200 600h400v-400l-129 130l-296 -296l-142 141l296 296z" />
<glyph unicode="&#xe101;" d="M600 1177q118 0 224.6 -46.6t184 -123t123 -184t46.6 -224.6t-46.6 -224.6t-123 -184t-184 -123t-224.6 -46.6t-224.6 46.6t-184 123t-123 184t-46.6 224.6t46.6 224.6t123 184t184 123t224.6 46.6zM686 649l68 302q4 20 -8 34.6t-33 14.6h-207q-20 0 -32 -14.6t-8 -34.6 l68 -302q4 -20 21.6 -34.6t37.6 -14.6h64q20 0 37.6 14.6t21.6 34.6zM700 400h-200v-100h200v100z" />
<glyph unicode="&#xe102;" d="M1200 900h-111v6t-1 16t-3 18l-34 172q-11 39 -41.6 63t-69.6 24q-32 0 -61 -17l-239 -144q-22 -13 -40 -36q-19 24 -40 36l-238 144q-33 18 -62 18q-39 0 -69.6 -23t-40.6 -61l-36 -177q-2 -8 -3 -18t-1 -16v-6h-111v-100h100v-200h400v300h200v-300h400v200h100v100z M731 900l202 197q6 -12 12 -32.6t23 -64t26 -72t7 -28.6h-269zM481 900h-281q-3 0 14 48t36 96l18 47zM100 0h400v400h-400v-400zM700 400h400v-400h-400v400z" />
<glyph unicode="&#xe103;" d="M0 121l216 193q-9 63 -13 83t-6.6 94t9 113t38.6 114t74 124q47 60 99.6 102.6t103 68t127.6 48t146.6 37.6t184.6 43.6t220 68.6q0 -189 -22 -343t-69 -268t-89 -181.6t-108.6 -120t-122 -68t-126.6 -30t-121.6 -1.6t-107.6 12.6t-87.6 17t-66.6 7.6l-99 -66l-201 -202 v143zM692 611q70 38 118.6 69.6t102 79t99 111.6t86.6 148q22 60 24 60t-6 19q-7 6 -17 6t-26.6 -14.6t-33.6 -39.6q-36 -61 -113.6 -108.6t-139.6 -89.6l-61 -32q-369 -197 -468 -401q-48 -111 -28.6 -117.6t86.6 76.6q66 66 367 234z" />
<glyph unicode="&#xe106;" d="M1261 600l-26 -40q-6 -10 -20 -30t-49 -63.6t-74.6 -86.6t-97 -90t-116.6 -83.6t-132.6 -69t-146.6 -23.6t-146.6 23.6t-132.6 69t-116.6 83.6t-97 90t-74.6 86.6t-49 63.6t-20 30l-26 40l26 40q6 10 20 30t49 63.6t74.6 86.6t97 90t116.6 83.6t132.6 69t146.6 23.6 t146.6 -23.6t132.6 -69t116.6 -83.6t97 -90t74.6 -86.6t49 -63.6t20 -30zM600 240q64 0 123.6 20t100.6 46.6t86.6 71.6t66.6 76.6t68 81.6t47 66q-1 1 -28.6 37.6t-42 66t-43.6 63t-67.6 63.6t-68.6 64q49 -74 49 -163q0 -124 -88 -212t-212 -88t-212 88t-88 212 q0 86 46 168q-102 -87 -226 -268q7 -10 40.6 -68t66 -78.6t68 -77.6t87.6 -76t103 -49.6t126 -21.6zM484 762l-107 -106q49 -124 164 -191l106 106q-37 24 -76 72t-67 84z" />
<glyph unicode="&#xe106;" d="M906 1200l-314 -1200h-148l37 143q-82 21 -166 71.6t-140 102t-109.6 112t-72 88.6t-29.6 43l-26 40l26 40q6 10 20 30t49 63.6t74.6 86.6t97 90t116.6 83.6t132.6 69t146.6 23.6q61 0 121 -17l37 142h148zM1261 600l-26 -40q-7 -12 -26.6 -38t-63.6 -79.6t-96.6 -102.6 t-124 -100t-146.6 -79l38 146q22 16 44.6 34t46 44t40.6 44t41 60.6t33.6 43.6t33 44t24.6 34q-97 127 -140 176l39 146q67 -64 131.6 -126.6t87.6 -103.6t36 -62zM613 264l37 141q-107 18 -178.6 101.6t-71.6 193.6q0 86 46 168q-102 -87 -226 -268q210 -282 393 -336z M484 762l-107 -106q49 -124 164 -191l47 47l23 87q-30 28 -69 69t-44 68z" />
<glyph unicode="&#xe107;" d="M-47 0h1294q37 0 60.6 36.6t-7.6 67.6l-642 1066q-20 33 -48 36t-48 -29l-642 -1066q-21 -32 -7.6 -66t60.6 -34zM700 200v100h-200v-100h-346l446 723l446 -723h-346zM700 700h-200v-100l100 -300l100 300v100z" />
<glyph unicode="&#xe108;" d="M800 711l363 -326q16 -14 26 -38.6t11 -44.6v-41q0 -20 -12 -26.6t-29 6.6l-369 249v-263q100 -91 100 -113v-64q0 -21 -13 -29t-32 1l-94 78h-222l-94 -78q-19 -9 -32 -1t-13 29v64q0 22 100 113v263l-369 -249q-17 -12 -29 -6.6t-12 26.6v41q0 20 11 44.6t26 38.6 l363 326v339q0 62 44 106t106 44t106 -44t44 -106v-339z" />
<glyph unicode="&#xe110;" d="M941 800l-600 -600h-341v200h269l600 600h241v198l300 -296l-300 -300v197h-169zM381 678l141 142l-181 180h-341v-200h269zM1100 698l300 -296l-300 -300v197h-241l-181 181l141 142l122 -123h169v198z" />
<glyph unicode="&#xe111;" d="M100 1100h1000q41 0 70.6 -29.6t29.6 -70.6v-600q0 -41 -29.6 -70.6t-70.6 -29.6h-696l-304 -300v300h-100q-41 0 -70.6 29.6t-29.6 70.6v600q0 41 29.6 70.6t70.6 29.6z" />
<glyph unicode="&#xe112;" d="M400 900h-300v300h300v-300zM1100 900h-300v300h300v-300zM1100 800v-200q0 -42 -3 -83t-16 -104t-31.6 -116t-68 -109.6t-89 -96.6t-129 -66.6t-174.6 -26.6t-174.6 26.6t-129 66.6t-89 96.6t-68 109.6t-31.6 116t-16 104t-3 83v200h300v-260q0 -113 6 -146 q17 -92 102 -117q39 -11 92 -11q37 0 66.6 6.6t60 16.6t36 24t24 31.6t14 37.6t7 42t2.6 46t0 47v26v260h300z" />
<glyph unicode="&#xe113;" d="M902 184l226 227l-678 679l-680 -679l227 -227l362 363z" />
<glyph unicode="&#xe114;" d="M660 218l678 679l-226 227l-363 -363l-362 363l-227 -227z" />
<glyph unicode="&#xe116;" d="M1198 400v600h-796l216 -200h381v-400h-198l299 -283l299 283h-200zM-198 700l299 283l300 -283h-203v-400h386l216 -200h-800v600h-196z" />
<glyph unicode="&#xe116;" d="M1060 1200h94q20 0 36 -14.6t16 -36.6t-16 -36.6t-36 -14.6h-64l-201 -961q-2 -4 -6 -10.6t-19 -17.6t-33 -11h-31v-60q0 -20 -14.6 -36t-36.6 -16t-36.6 16t-14.6 36v60h-300v-60q0 -20 -14.6 -36t-36.6 -16t-36.6 16t-14.6 36v60h-60q-21 0 -36.6 16t-14.6 36 q0 21 14.6 36.6t36.6 14.6h636l48 200h-633q-32 0 -64.6 21t-27.6 43l-100 476q-6 24 10 42q14 19 39 19h896l38 162q6 17 18.6 27.6t30.6 10.6z" />
<glyph unicode="&#xe117;" d="M1200 1000v-100h-1200v100h200q0 41 29.6 70.6t70.6 29.6h300q41 0 70.6 -29.6t29.6 -70.6h600zM0 800h1200v-800h-1200v800z" />
<glyph unicode="&#xe118;" d="M201 800l-200 -400v600h200q0 41 29.6 70.6t70.6 29.6h300q41 0 70.6 -29.6t29.6 -70.6h600v-200h-1000zM1601 700l-300 -700h-1200l300 700h1200z" />
<glyph unicode="&#xe119;" d="M302 300h198v600h-198l298 300l298 -300h-198v-600h198l-298 -300z" />
<glyph unicode="&#xe120;" d="M900 303v197h-600v-197l-300 297l300 298v-198h600v198l300 -298z" />
<glyph unicode="&#xe121;" d="M31 400l172 739q6 22 23 41.6t38 19.6h672q19 0 37.6 -22.6t23.6 -46.6l172 -732h-1138zM100 300h1000q41 0 70.6 -29.6t29.6 -70.6v-100q0 -41 -29.6 -70.6t-70.6 -29.6h-1000q-41 0 -70.6 29.6t-29.6 70.6v100q0 41 29.6 70.6t70.6 29.6zM900 200h-100v-100h100v100z M1100 200h-100v-100h100v100z" />
<glyph unicode="&#xe122;" d="M1100 200v860q0 21 14.6 36.6t36.6 14.6q20 0 36 -14.6t16 -36.6v-860q0 -20 -16 -36t-36 -16q-21 0 -36.6 16t-14.6 36zM326 800l676 260v-860l-676 200h-38l47 -276q2 -12 -3 -17.6t-11 -6t-21 -0.6h-8h-83q-20 0 -34.6 14t-18.6 36q-66 337 -66 361v260v6 q0 13 0.6 18.6t2.6 13t8 10.6t16 3h200zM-101 600v60q0 24 26 49t60 38l26 13v-260l-11 6.6t-24 14t-30 21.6t-24 27.6t-11 31.6z" />
<glyph unicode="&#xe124;" d="M446 1180l-46 -233l-224 78l78 -226l-233 -44l179 -166l-179 -166l233 -46l-78 -224l224 78l46 -233l166 179l166 -179l46 233l224 -78l-78 224l234 46l-180 166l180 166l-234 44l78 226l-224 -78l-46 233l-166 -180z" />
<glyph unicode="&#xe126;" d="M700 1200h-60q-27 0 -61 -20t-38 -48l-96 -198l-146 -196q-20 -26 -20 -63v-400q0 -76 100 -76h61q123 -100 139 -100h260q46 0 83 67l238 344q29 31 29 74v100q0 44 -30.6 84.6t-69.6 40.6h-328q28 118 28 126v160q0 44 -30.6 84.6t-69.6 40.6zM700 926l-60 -226h460 v-126l-260 -376h-214l-136 100h-100v376l160 212l100 213h60v-176zM0 800v-600h200v600h-200z" />
<glyph unicode="&#xe126;" d="M700 0h-60q-27 0 -61 20t-38 48l-96 198l-146 196q-20 26 -20 63v400q0 76 100 76h61q123 100 139 100h260q46 0 83 -67l238 -344q29 -31 29 -74v-100q0 -44 -30.6 -84.6t-69.6 -40.6h-328q28 -118 28 -126v-160q0 -44 -30.6 -84.6t-69.6 -40.6zM200 400h-200v600h200 v-600zM700 276l-60 226h460v126l-260 376h-214l-136 -100h-100v-376l160 -212l100 -213h60v176z" />
<glyph unicode="&#xe127;" d="M364 873l362 230q14 6 26 6q17 0 29 -12l109 -112q14 -14 14 -34q0 -18 -11 -32l-86 -121h302q86 0 138.6 -38t63.6 -110t-64.6 -111t-138.6 -39h-107l-130 -339q-7 -22 -20.6 -41.6t-28.6 -19.6h-341q-7 0 -90 81t-83 94v626q0 17 14 36.6t28 28.6zM408 792v-603 l100 -89h293l131 339q6 21 19.6 41t28.6 20h203q16 0 26 16t9 36q0 20 -9 34.6t-26 14.6h-467h-6.6h-7.6t-6.6 0.6t-6 1t-6 1.6t-6.6 2.6t-4 4t-4 6.6q-6 12 -6 20q0 14 10 27l147 183l-86 83zM208 200h-200v600h200v-600z" />
<glyph unicode="&#xe128;" d="M476 1104l366 -230q7 -4 16.6 -10.6t26 -26t16.6 -36.6v-626q0 -13 -86.6 -93.6t-93.6 -80.6h-342q-16 0 -28.6 20t-19.6 41l-131 339h-106q-84 0 -139 39t-66 111t64 110t139 37h302l-86 121q-11 16 -11 32q0 21 14 34l109 113q13 12 29 12q11 0 26 -6zM370 946 l146 -184q10 -11 10 -26q0 -11 -6 -20q-1 -3 -3.6 -6.6l-4 -4t-6 -2.6t-6.6 -1.6t-6.6 -1t-6.6 -0.6h-7.6h-6.6h-476v-100h222q16 0 28.6 -20.6t19.6 -40.6l131 -339h293l106 89v602l-342 237zM1199 201h-200v600h200v-600z" />
<glyph unicode="&#xe129;" d="M1100 473v342q0 16 -20 28.6t-41 19.6l-339 131v106q0 84 -39 139t-111 66t-110 -63.6t-38 -138.6v-302l-121 84q-16 12 -33.6 11.6t-32.6 -13.6l-112 -110q-22 -22 -6 -63l230 -363q4 -6 10.6 -16.6t26 -26t36.6 -16.6h626q13 0 94 83t81 90zM911 400h-603l-236 339 l83 86l183 -146q22 -18 47 -6q3 1 6.6 3.6l4 4t2.6 6t1.6 6.6t1 6.6t0.6 6v7.6v7v466q0 22 26 31t60 -0.6t26 -30.6v-202q0 -16 20 -29.6t41 -19.6l339 -130v-294zM1000 200v-200h-600v200h600z" />
<glyph unicode="&#xe130;" d="M306 1104v200h600v-200h-600zM606 310l339 131q20 6 40.6 19.6t20.6 28.6v342q0 7 -81 90t-94 83h-626q-17 0 -36.6 -14t-28.6 -28l-10 -16l-230 -362q-16 -31 7 -63l112 -110q13 -13 32 -13.6t34 10.6l121 86l-1 -302q0 -84 38.6 -138t110.6 -64t111 66t39 139v106z M906 804v-294l-340 -130q-20 -6 -40 -20t-20 -29v-202q0 -22 -26 -31t-60 0t-26 31v466v14.6t-1.6 11.6t-6 12t-9.6 7q-24 13 -46 -6l-184 -146l-83 86l237 339h603z" />
<glyph unicode="&#xe131;" d="M603 1196q162 0 299.6 -80t217.6 -218t80 -300t-80 -299.6t-217.6 -217.6t-299.6 -80t-300 80t-218 217.6t-80 299.6q0 122 47.6 232.6t127.6 190.6t190.6 127.6t232.6 47.6zM698 701h-298v-201h300l-2 -194l402 294l-402 298v-197z" />
<glyph unicode="&#xe132;" d="M697 1196q122 0 232.6 -47.6t190.6 -127.6t127.6 -190.6t47.6 -232.6q0 -162 -80 -299.6t-218 -217.6t-300 -80t-299.6 80t-217.6 217.6t-80 299.6q0 122 47.6 232.6t127.6 190.6t190.6 127.6t231.6 47.6zM200 600l400 -294v194h302v201h-300v197z" />
<glyph unicode="&#xe133;" d="M603 1196q121 0 231.6 -47.6t190.6 -127.6t127.6 -190.6t47.6 -232.6q0 -162 -80 -299.6t-217.6 -217.6t-299.6 -80t-300 80t-218 217.6t-80 299.6q0 122 47.6 232.6t127.6 190.6t190.6 127.6t232.6 47.6zM300 600h200v-300h200v300h200l-300 400z" />
<glyph unicode="&#xe134;" d="M603 1196q121 0 231.6 -47.6t190.6 -127.6t127.6 -190.6t47.6 -232.6q0 -162 -80 -299.6t-217.6 -217.6t-299.6 -80t-300 80t-218 217.6t-80 299.6q0 122 47.6 232.6t127.6 190.6t190.6 127.6t232.6 47.6zM600 900v-300h-200l300 -400l300 400h-200v300h-200z" />
<glyph unicode="&#xe136;" d="M603 1196q121 0 231.6 -47.6t190.6 -127.6t127.6 -190.6t47.6 -232.6q0 -162 -80 -299.6t-217.6 -217.6t-299.6 -80t-300 80t-218 217.6t-80 299.6q0 122 47.6 232.6t127.6 190.6t190.6 127.6t232.6 47.6zM627 1101q-16 -12 -36.6 -21t-34.6 -12t-44 -8t-39 -6 q-16 -3 -46.6 0.6t-46.6 -2.6q-21 -7 -62 -26.6t-34 -34.6q-3 -11 6.6 -22.6t8.6 -18.6q-3 -34 -27.6 -90.6t-29.6 -79.6q-8 -33 6.6 -92.6t7.6 -87.6q0 -9 17 -44t16 -60q12 0 23 -6.6t23 -16t20 -13.6q24 -12 108 -42q22 -8 63 -31.6t69.6 -38.6t67.6 -11q8 -18 -16 -66 t-20 -67q42 -71 87 -80q0 -6 -3 -16.6t-3.6 -14.6t4.6 -17q102 -2 221 112q30 29 47 47t34.6 49t20.6 62q-14 9 -37 9.6t-36 7.6q-14 7 -49 16t-62 19q-9 0 -39.6 -0.6t-46.6 -1.6t-39 -6.6t-39 -16.6q-60 -36 -66 -12q-4 2 -3.6 26.6t0.6 26.6q-6 13 -26.6 17t-24.6 7 q2 22 -2 41t-16.6 28t-38.6 -20q-23 -26 -42 4q-19 28 -8 68q6 16 22 22q6 -1 26 -1.6t33.6 -4t19.6 -13.6q12 -19 32 -37.6t34 -27.6l14 -8q0 3 9.6 39.6t6.6 67.6q-4 23 14.6 44.6t22.6 31.6q6 14 10 36t8.6 31t16.6 22.6t34 21.6q-6 18 10 37q8 0 23.6 -1.6t24.6 -1.6 t20.6 4.6t20.6 16.6q-10 23 -30.6 42.6t-38 30t-49 26.6t-43.6 23q11 41 1 44q31 -13 68.6 -14.6t39.6 3.6l11 4q6 36 -17 63.6t-64 28.6t-66 23q-19 -3 -37 0zM613 994q0 -18 8 -42.6t16.6 -44t9.6 -23.6q-9 2 -31 6t-36 6t-32 8t-30 14q3 12 16 30t16 26q10 -10 18.6 -10 t14 6t14.6 14.6t16 12.6z" />
<glyph unicode="&#xe137;" horiz-adv-x="1220" d="M100 1196h1000q41 0 70.6 -29.6t29.6 -70.6v-100q0 -41 -29.6 -70.6t-70.6 -29.6h-1000q-41 0 -70.6 29.6t-29.6 70.6v100q0 41 29.6 70.6t70.6 29.6zM1100 1096h-200v-100h200v100zM100 796h1000q41 0 70.6 -29.6t29.6 -70.6v-100q0 -41 -29.6 -70.6t-70.6 -29.6h-1000 q-41 0 -70.6 29.6t-29.6 70.6v100q0 41 29.6 70.6t70.6 29.6zM1100 696h-600v-100h600v100zM100 396h1000q41 0 70.6 -29.6t29.6 -70.6v-100q0 -41 -29.6 -70.6t-70.6 -29.6h-1000q-41 0 -70.6 29.6t-29.6 70.6v100q0 41 29.6 70.6t70.6 29.6zM1100 296h-300v-100h300v100z " />
<glyph unicode="&#xe138;" d="M1100 1200v-100h-1000v100h1000zM160 1000h900l-360 -600v-300l-200 -200v600z" />
<glyph unicode="&#xe140;" d="M329 729l142 142l-200 200l129 129h-400v-400l129 129zM1200 1200v-400l-129 129l-200 -200l-142 142l200 200l-129 129h400zM271 129l129 -129h-400v400l129 -129l200 200l142 -142zM1071 271l129 129v-400h-400l129 129l-200 200l142 142z" />
<glyph unicode="&#xe141;" d="M696 1192q162 0 299 -80t217 -217t80 -299t-80 -299t-217 -217t-299 -80t-299 80t-217 217t-80 299t80 299t217 217t299 80zM696 1010q-171 0 -292.6 -121.6t-121.6 -292.6q0 -172 121.6 -293t292.6 -121t292.6 121t121.6 293q0 171 -121.6 292.6t-292.6 121.6zM466 906 q22 0 38 -16t16 -39t-16 -39t-38 -16q-23 0 -39 16.6t-16 38.6t16 38.6t39 16.6zM708 821l1 1q-9 14 -9 28q0 22 16 38.6t39 16.6q22 0 38 -16t16 -39t-16 -39t-38 -16q-14 0 -29 10l-66 -146q17 -22 17 -61q0 -36 -26.6 -61.6t-61.6 -26.6t-61.6 26.6t-26.6 61.6 q0 32 20.6 66.6t61.6 29.6zM866 709q23 0 38.6 -16.6t16.6 -38.6t-16 -39t-38 -16q-23 0 -39 16t-16 39q0 22 16 38t39 16zM346 709q23 0 39 -16t16 -38q0 -23 -16 -39t-39 -16q-22 0 -38 16t-16 39t16.6 38.6t38.6 16.6z" />
<glyph unicode="&#xe143;" d="M649 64l-16 22q-90 126 -293 323q-71 70 -104.6 106.6t-77 89.6t-61 99t-17.6 91q0 131 98.6 229.6t230.6 98.6q143 0 241 -129q103 129 246 129q129 0 226 -98.6t97 -229.6q0 -46 -17.6 -91t-61 -99t-77 -89.6t-104.6 -106.6q-203 -198 -293 -323zM844 624l12 12 q64 62 97.6 97t64.6 79t31 72q0 71 -48 119t-106 48q-74 0 -132 -82l-118 -171l-114 174q-61 79 -123 79q-60 0 -109.6 -49t-49.6 -118q0 -27 30.6 -70t61.6 -76.6t96 -94.6l22 -22q93 -90 190 -201q82 92 196 203z" />
<glyph unicode="&#xe144;" d="M476 406l19 -17l106 106l-212 212l389 389l247 -247l-96 -96l18 -18q46 -46 77 -99l29 29q36 36 62.6 88t27.6 96q0 93 -66 169l-141 141q-66 66 -169 66q-96 0 -169 -66l-283 -283q-66 -64 -66 -169q0 -93 66 -169zM123 193l141 -141q66 -66 169 -66q96 0 169 66 l283 283q66 66 66 169t-66 169l-141 141q-12 12 -19 17l-106 -106l212 -212l-389 -389l-247 248l96 96l-18 18q-46 46 -76 101l-66 -66q-66 -66 -66 -169q0 -94 66 -160z" />
<glyph unicode="&#xe146;" d="M200 100v963q0 21 30 46t81 48t129 38t163 16t162 -16t127 -38t79 -48t29 -46v-963q0 -41 -29.6 -70.6t-70.6 -29.6h-600q-41 0 -70.6 29.6t-29.6 70.6zM900 1000h-600v-700h600v700zM600 46q43 0 73.6 30.6t30.6 73.6t-30.6 73.6t-73.6 30.6t-73.6 -30.6t-30.6 -73.6 t30.6 -73.6t73.6 -30.6z" />
<glyph unicode="&#xe148;" d="M700 1029v-307l64 -14q34 -7 64 -16.6t70 -31.6t67.6 -62t47.6 -80.6t20 -112.6q0 -139 -89 -224t-244 -96v-77h-100v78q-162 17 -237 104q-40 40 -62.6 93.6t-16.6 139.6h139q6 -77 48.6 -126.6t117.6 -64.6v336l-27 7q-46 14 -79 26.6t-72 36t-62.6 62t-40 72.6 t-16.6 99q0 92 44 169.6t109 101t144 40.6v78h100v-79q38 -4 72.6 -13.6t76.6 -31.6t71 -63.6t61.6 -84t24.6 -118.6h-169q-8 72 -36 109.6t-101 60.6zM600 766v274q-61 -8 -97.6 -37.6t-36.6 -102.6q0 -29 8 -61t16.6 -34t29.6 -22.6t31 -13.6t38 -10q7 -2 11 -3zM700 648 v-311q170 18 170 161q0 64 -44 99.6t-126 60.6z" />
<glyph unicode="&#xe149;" d="M866 300l60 -147q-41 -26 -80.6 -36.6t-69 -13t-61.6 -1.6q-23 0 -128 33t-166 29q-39 -4 -82 -17t-66 -26l-24 -11l-66 146l16.6 11t16.6 10t13.6 9.6t14.6 12t14.6 14t17.6 18.6q48 66 64 126.6t-30 142.6h-221v100h166q-24 49 -44 104q-10 26 -14.6 66.6t-3 72.6 t26 90t68.6 87q97 88 263 88q129 0 230 -89t101 -208h-163q0 62 -34 89.6t-74 61.6t-76 14q-37 0 -79 -14.6t-62 -36.6q-41 -44 -41 -101q0 -11 2.6 -24.6t6.6 -24t9.6 -26.6t10.6 -26t14 -27.6t14 -26.6t16.6 -27t13.6 -24h242v-100h-197q8 -60 -2.6 -116t-31.6 -94 q-41 -69 -99 -113q36 11 84 18t70 7q32 1 102 -16t104 -17q76 0 136 30z" />
<glyph unicode="&#xe160;" d="M300 0l298 300h-198v900h-200v-900h-198zM900 1200l298 -300h-198v-900h-200v900h-198z" />
<glyph unicode="&#xe161;" d="M400 300h198l-298 -300l-298 300h198v900h200v-900zM1000 1200v-600h-100v100h-100v-100h-100v600h300zM901 1100h-100v-200h100v200zM700 600h300v-200h-99v-100h-100v100h99v100h-200v100zM800 100h200v-100h-300v200h100v-100z" />
<glyph unicode="&#xe162;" d="M400 300h198l-298 -300l-298 300h198v900h200v-900zM1000 1200v-200h-99v-100h-100v100h99v100h-200v100h300zM800 800h200v-100h-300v200h100v-100zM700 600h300v-600h-100v100h-100v-100h-100v600zM801 200h100v200h-100v-200z" />
<glyph unicode="&#xe163;" d="M300 0l298 300h-198v900h-200v-900h-198zM900 1100h-100v100h200v-600h-100v400zM1100 600v-600h-100v100h-200v400h300zM1001 400h-100v-200h100v200z" />
<glyph unicode="&#xe164;" d="M300 0l298 300h-198v900h-200v-900h-198zM1100 1200v-600h-100v100h-200v400h300zM1001 1100h-100v-200h100v200zM900 400h-100v100h200v-600h-100v400z" />
<glyph unicode="&#xe166;" d="M300 0l298 300h-198v900h-200v-900h-198zM900 1000h-200v200h200v-200zM1000 700h-300v200h300v-200zM1100 400h-400v200h400v-200zM1200 100h-600v200h600v-200z" />
<glyph unicode="&#xe166;" d="M300 0l298 300h-198v900h-200v-900h-198zM1200 1000h-600v200h600v-200zM1100 700h-400v200h400v-200zM1000 400h-300v200h300v-200zM900 100h-200v200h200v-200z" />
<glyph unicode="&#xe167;" d="M400 1100h300q162 0 281 -118.6t119 -281.6v-300q0 -166 -118.6 -282.6t-281.6 -117.6h-300q-166 0 -282.6 117.6t-117.6 282.6v300q0 166 117.6 282.6t282.6 117.6zM800 900h-600q-41 0 -70.6 -29.6t-29.6 -70.6v-600q0 -41 29.6 -70.6t70.6 -29.6h600q41 0 70.6 29.6 t29.6 70.6v600q0 41 -29.6 70.6t-70.6 29.6z" />
<glyph unicode="&#xe168;" d="M700 0h-300q-163 0 -281.6 117.6t-118.6 282.6v300q0 163 119 281.6t281 118.6h300q166 0 282.6 -117.6t117.6 -282.6v-300q0 -166 -117.6 -282.6t-282.6 -117.6zM800 900h-600q-41 0 -70.6 -29.6t-29.6 -70.6v-600q0 -41 29.6 -70.6t70.6 -29.6h600q41 0 70.6 29.6 t29.6 70.6v600q0 41 -29.6 70.6t-70.6 29.6zM400 800v-600l333 260z" />
<glyph unicode="&#xe169;" d="M0 400v300q0 163 117.6 281.6t282.6 118.6h300q163 0 281.6 -119t118.6 -281v-300q0 -166 -117.6 -282.6t-282.6 -117.6h-300q-166 0 -282.6 117.6t-117.6 282.6zM900 300v600q0 41 -29.6 70.6t-70.6 29.6h-600q-41 0 -70.6 -29.6t-29.6 -70.6v-600q0 -41 29.6 -70.6 t70.6 -29.6h600q41 0 70.6 29.6t29.6 70.6zM800 700h-600l260 -333z" />
<glyph unicode="&#xe160;" d="M1100 700v-300q0 -162 -118.6 -281t-281.6 -119h-300q-166 0 -282.6 118.6t-117.6 281.6v300q0 166 117.6 282.6t282.6 117.6h300q166 0 282.6 -117.6t117.6 -282.6zM900 300v600q0 41 -29.6 70.6t-70.6 29.6h-600q-41 0 -70.6 -29.6t-29.6 -70.6v-600q0 -41 29.6 -70.6 t70.6 -29.6h600q41 0 70.6 29.6t29.6 70.6zM660 733l-260 -333h600z" />
<glyph unicode="&#xe161;" d="M600 1100h400q166 0 282.6 -117.6t117.6 -282.6v-300q0 -166 -117.6 -282.6t-282.6 -117.6h-400v200h600q41 0 70.6 29.6t29.6 70.6v600q0 41 -29.6 70.6t-70.6 29.6h-600v200zM700 660l-400 -360v200h-300v300h300v200z" />
<glyph unicode="&#xe162;" d="M403 2l9 -1q13 0 26 16l638 630q16 19 6 36q-8 18 -32 16h-300q1 4 78 219.6t79 227.6q2 17 -6 27l-8 8h-9q-16 0 -26 -16q-4 -6 -98.6 -111.6t-228 -267t-209.6 -238.6q-17 -19 -7 -40q10 -19 32 -19h302q-166 -438 -160 -468q-6 -21 4 -32z" />
<glyph unicode="&#xe163;" d="M800 200h-600q-41 0 -70.6 29.6t-29.6 70.6v600q0 41 29.6 70.6t70.6 29.6h600v186q-14 4 -114 7.6t-193 6.6l-93 2q-166 0 -282.6 -117.6t-117.6 -282.6v-300q0 -166 117.6 -282.6t282.6 -117.6h300q47 0 100 16v186zM900 200v200h-300v300h300v200l400 -360z" />
<glyph unicode="&#xe164;" d="M1200 700l-149 149l-342 -363l-213 213l363 342l-149 149h600v-600zM1022 671l-122 -123v-148q0 -41 -29.6 -70.6t-70.6 -29.6h-600q-41 0 -70.6 29.6t-29.6 70.6v600q0 41 29.6 70.6t70.6 29.6h166l118 122l-74 78h-100q-166 0 -282.6 -117.6t-117.6 -282.6v-300 q0 -166 117.6 -282.6t282.6 -117.6h300q163 0 281.6 117.6t118.6 282.6v98z" />
<glyph unicode="&#xe166;" d="M600 1196q162 0 299 -80t217 -217t80 -299t-80 -299t-217 -217t-299 -80t-299 80t-217 217t-80 299t80 299t217 217t299 80zM600 1014q-171 0 -292.6 -121.6t-121.6 -292.6t121.6 -292.6t292.6 -121.6t292.6 121.6t121.6 292.6t-121.6 292.6t-292.6 121.6zM600 794 q80 0 137 -67t67 -137t-67 -137t-137 -67t-137 67t-67 137t67 137t137 67z" />
<glyph unicode="&#xe166;" d="M700 800v400h-300v-400h-300l446 -600l460 600h-296zM26 300h1048q11 0 19 -7.6t8 -17.6v-276h-1100v276q0 11 7 18t18 7zM1000 200h-100v-60h100v60z" />
<glyph unicode="&#xe167;" d="M400 700v-300h300v300h296l-446 600l-460 -600h300zM26 300h1048q11 0 19 -7.6t8 -17.6v-276h-1100v276q0 11 7 18t18 7zM1000 200h-100v-60h100v60z" />
<glyph unicode="&#xe168;" d="M406 400l696 696l-164 166l-442 -442l-160 161l-166 -166zM26 300h1048q11 0 19 -7.6t8 -17.6v-276h-1100v276q0 11 7 18t18 7zM1000 200h-100v-60h100v60z" />
<glyph unicode="&#xe169;" d="M409 1103l-97 97l-212 -212l97 -98zM660 861l-149 149l-212 -212l149 -149l-238 -248h700v699zM26 300h1048q11 0 19 -7.6t8 -17.6v-276h-1100v276q0 11 7 18t18 7zM1000 200h-100v-60h100v60z" />
<glyph unicode="&#xe170;" d="M639 960l-149 -149l212 -212l149 148l248 -237v700h-699zM297 709l-97 -97l212 -212l98 97zM26 300h1048q11 0 19 -7.6t8 -17.6v-276h-1100v276q0 11 7 18t18 7zM1000 200h-100v-60h100v60z" />
<glyph unicode="&#xe171;" d="M1200 1199v-1079l-476 272l-310 -393v416h-392zM1166 1148l-672 -712v-226z" />
<glyph unicode="&#xe172;" d="M1100 1000v-860q0 -21 -16 -36.6t-36 -14.6h-160v400h-700v-400h-160q-21 0 -36.6 14.6t-14.6 36.6v1000q0 20 14.6 36t36.6 16h260v-300h600v300h100zM700 1200h-100v-200h100v200z" />
<glyph unicode="&#xe173;" d="M678 600h-378v-400h-160q-21 0 -36.6 14.6t-14.6 36.6v1000q0 20 14.6 36t36.6 16h260v-300h600v300h100l200 -200v-218l-276 -276l-120 120zM700 1200h-100v-200h100v200zM1300 638l-476 -476l-244 244l123 123l120 -120l363 362z" />
<glyph unicode="&#xe174;" d="M629 600h-329v-400h-160q-21 0 -36.6 14.6t-14.6 36.6v1000q0 20 14.6 36t36.6 16h260v-300h600v300h100l200 -200v-269l-103 -103l-170 170zM700 1200h-100v-200h100v200zM1167 6l-170 170l-170 -170l-127 127l170 170l-170 170l127 127l170 -170l170 170l127 -128 l-170 -169l170 -170z" />
<glyph unicode="&#xe176;" d="M700 600h-600v-400h-160q-21 0 -36.6 14.6t-14.6 36.6v1000q0 20 14.6 36t36.6 16h260v-300h600v300h100l200 -200v-300h-400v-200zM700 1000h-100v200h100v-200zM1000 600h-200v-300h-200l300 -300l300 300h-200v300z" />
<glyph unicode="&#xe176;" d="M602 600h-402v-400h-160q-21 0 -36.6 14.6t-14.6 36.6v1000q0 20 14.6 36t36.6 16h260v-300h600v300h100l200 -200v-402l-200 200zM700 1000h-100v200h100v-200zM1000 300h200l-300 300l-300 -300h200v-300h200v300z" />
<glyph unicode="&#xe177;" d="M1200 900v160q0 21 -14.6 36.6t-36.6 14.6h-1100q-21 0 -36.6 -14.6t-14.6 -36.6v-160h1200zM0 800v-660q0 -21 14.6 -36.6t36.6 -14.6h1100q21 0 36.6 14.6t14.6 36.6v660h-1200zM100 600h400v-200h-400v200z" />
<glyph unicode="&#xe178;" d="M600 1000h400v198l300 -298l-300 -298v198h-400v200zM100 800v200h100v-200h-100zM400 800h-100v200h100v-200zM700 300h-400v-198l-300 298l300 298v-198h400v-200zM800 600h100v-200h-100v200zM1000 600v-200h100v200h-100z" />
<glyph unicode="&#xe179;" d="M1200 60v1106q0 31 -18 40.6t-44 -7.6l-276 -117q-26 -16 -43.6 -60.6t-18.6 -66.6v-369q0 -29 10.6 -66.6t26 -43t29 -28.6t26.6 -18l10 -6v-397q0 -21 14.6 -36.6t36.6 -14.6h200q21 0 36.6 14.6t14.6 36.6zM660 1200l60 -100v-400l-100 -203v-447q0 -21 -14.6 -36.6 t-36.6 -14.6h-200q-21 0 -36.6 14.6t-14.6 36.6v447l-100 203v400l60 100l60 -100v-300h100v300l60 100l60 -100v-300h100v300z" />
<glyph unicode="&#xe180;" d="M1100 106v888q0 22 26 34.6t60 13.6l26 2v66h-400v-66q76 0 87.6 -6t12.6 -44v-394h-600v394q0 38 12.6 44t87.6 6v66h-400v-66q4 0 11 -0.6t24 -3t30 -7t24 -16t11 -24.6v-888q0 -22 -26 -34.6t-60 -13.6l-26 -2v-66h400v66q-76 0 -87.6 6t-12.6 44v394h600v-394 q0 -38 -12.6 -44t-87.6 -6v-66h400v66q-4 0 -11 0.6t-24 3t-30 7t-24 16t-11 24.6z" />
<glyph unicode="&#xe181;" d="M676 1000l-100 100h-376l-100 -100h400l200 -200v-98l296 98h106v200h-426zM600 300v600q0 41 -29.6 70.6t-70.6 29.6h-300q-41 0 -70.6 -29.6t-29.6 -70.6v-600q0 -41 29.6 -70.6t70.6 -29.6h300q41 0 70.6 29.6t29.6 70.6zM100 800h300v-200h-300v200zM700 666l400 133 v-163l-400 -133v163zM100 600h300v-200h-300v200zM806 300l296 98v-298h-426l-100 -100h-376l-100 100h400l200 200h106z" />
<glyph unicode="&#xe182;" d="M179 1169l-162 -162q-1 -11 -0.6 -32.6t16 -90t46.6 -140t104 -177.6t176 -208q103 -103 207.6 -176t180 -103.6t137 -47t92.6 -16.6l31 1l163 162q16 17 13 40.6t-22 37.6l-192 136q-19 14 -46 12t-42 -19l-119 -118q-143 103 -267 227q-126 126 -227 268l118 118 q17 17 20 41.6t-11 44.6l-139 194q-14 19 -36.6 22t-40.6 -14z" />
<glyph unicode="&#xe183;" d="M1200 712v200q-6 8 -19 20.6t-63 46t-112 67t-171 46t-236 20.6q-92 0 -176 -10.6t-141.6 -27t-108.6 -36.6t-81.6 -40t-63.6 -36.6t-31 -27.6l-9 -10v-200q0 -21 14.6 -33.6t34.6 -8.6l202 33q20 4 34.6 21t14.6 38v146q141 24 300 24t300 -24v-146q0 -21 14.6 -38 t34.6 -21l202 -33q20 -4 34.6 8.6t14.6 33.6zM800 660l366 -303q14 -14 24.6 -39.6t10.6 -46.6v-212q0 -21 -16 -36.6t-36 -14.6h-1100q-21 0 -36.6 14.6t-14.6 36.6v212q0 20 10.6 46.6t24.6 39.6l366 303v60q0 4 1 10.6t12 22.6t30 28.6t60 23t97 10.6t97 -10t60 -23.6 t30 -27.6t12 -24l1 -10v-60z" />
<glyph unicode="&#xe184;" d="M176 200h960l-126 160v260l100 100v400h-100v-200h-100v200h-200v-200h-100v200h-200v-200h-100v200h-100v-400l100 -100v-260zM1200 100v-100h-1100v100h1100z" />
<glyph unicode="&#xe186;" d="M600 1100h100q41 0 70.6 -29.6t29.6 -70.6v-1000h-300v1000q0 41 29.6 70.6t70.6 29.6zM1000 800h100q41 0 70.6 -29.6t29.6 -70.6v-700h-300v700q0 41 29.6 70.6t70.6 29.6zM400 0v400q0 41 -29.6 70.6t-70.6 29.6h-100q-41 0 -70.6 -29.6t-29.6 -70.6v-400h300z" />
<glyph unicode="&#xe186;" d="M1200 800v-600q0 -124 -88 -212t-212 -88h-700q-124 0 -212 88t-88 212v600q0 124 88 212t212 88h700q124 0 212 -88t88 -212zM1000 900h-900v-700h900v700zM200 800v-300h200v-100h-200v-100h300v300h-200v100h200v100h-300zM800 800h-200v-600h200v100h100v300h-100 v100zM800 700v-300h-100v300h100z" />
<glyph unicode="&#xe187;" d="M1200 800v-600q0 -124 -88 -212t-212 -88h-700q-124 0 -212 88t-88 212v600q0 124 88 212t212 88h700q124 0 212 -88t88 -212zM1000 900h-900v-700h900v700zM400 600h-100v200h-100v-600h100v200h100v-200h100v600h-100v-200zM800 800h-200v-600h200v100h100v300h-100 v100zM800 700v-300h-100v300h100z" />
<glyph unicode="&#xe188;" d="M1200 800v-600q0 -124 -88 -212t-212 -88h-700q-124 0 -212 88t-88 212v600q0 124 88 212t212 88h700q124 0 212 -88t88 -212zM1000 900h-900v-700h900v700zM200 800v-600h300v100h-200v300h200v100h-300zM600 800v-600h300v100h-200v300h200v100h-300z" />
<glyph unicode="&#xe189;" d="M1200 800v-600q0 -124 -88 -212t-212 -88h-700q-124 0 -212 88t-88 212v600q0 124 88 212t212 88h700q124 0 212 -88t88 -212zM1000 900h-900v-700h900v700zM600 700l-300 -160l300 -160v300zM600 400l300 160l-300 160v-300z" />
<glyph unicode="&#xe190;" d="M1200 800v-600q0 -124 -88 -212t-212 -88h-700q-124 0 -212 88t-88 212v600q0 124 88 212t212 88h700q124 0 212 -88t88 -212zM1000 900h-900v-700h900v700zM900 800v-600h-700v600h700zM300 400h130q41 0 68 42t27 107t-28.6 108t-66.6 43h-130v-300zM800 700h-130 q-38 0 -66.6 -43t-28.6 -108t27 -107t68 -42h130v300z" />
<glyph unicode="&#xe191;" d="M1200 800v-600q0 -124 -88 -212t-212 -88h-700q-124 0 -212 88t-88 212v600q0 124 88 212t212 88h700q124 0 212 -88t88 -212zM1000 900h-900v-700h900v700zM200 800v-300h200v-100h-200v-100h300v300h-200v100h200v100h-300zM800 300h100v600h-200v-100h100v-400z M601 300h100v100h-100v-100z" />
<glyph unicode="&#xe192;" d="M1200 800v-600q0 -124 -88 -212t-212 -88h-700q-124 0 -212 88t-88 212v600q0 124 88 212t212 88h700q124 0 212 -88t88 -212zM1000 900h-900v-700h900v700zM300 700v100h-100v-600h300v400h-200zM800 300h100v600h-200v-100h100v-400zM401 400h-100v200h100v-200z M601 300h100v100h-100v-100z" />
<glyph unicode="&#xe193;" d="M200 1100h700q124 0 212 -88t88 -212v-600q0 -124 -88 -212t-212 -88h-700q-124 0 -212 88t-88 212v600q0 124 88 212t212 88zM1000 900h-900v-700h900v700zM400 700h-200v100h300v-300h-99v-100h-100v100h99v200zM800 700h-100v100h200v-600h-100v400zM201 400h100v-100 h-100v100zM701 300h-100v100h100v-100z" />
<glyph unicode="&#xe194;" d="M600 1196q162 0 299 -80t217 -217t80 -299t-80 -299t-217 -217t-299 -80t-299 80t-217 217t-80 299t80 299t217 217t299 80zM600 1014q-171 0 -292.6 -121.6t-121.6 -292.6t121.6 -292.6t292.6 -121.6t292.6 121.6t121.6 292.6t-121.6 292.6t-292.6 121.6zM800 700h-300 v-200h300v-100h-300l-100 100v200l100 100h300v-100z" />
<glyph unicode="&#xe196;" d="M696 1196q162 0 299 -80t217 -217t80 -299t-80 -299t-217 -217t-299 -80t-299 80t-217 217t-80 299t80 299t217 217t299 80zM696 1014q-171 0 -292.6 -121.6t-121.6 -292.6t121.6 -292.6t292.6 -121.6t292.6 121.6t121.6 292.6t-121.6 292.6t-292.6 121.6zM800 700v-100 h-100v100h-200v-100h200v-100h-200v-100h-100v400h300zM800 400h-100v100h100v-100z" />
<glyph unicode="&#xe197;" d="M800 300h128q120 0 206 86t86 208q0 120 -86 206.6t-206 86.6q-46 0 -90 -14q-44 97 -134.6 166.6t-200.6 69.6q-162 0 -260 -107.6t-108 -260.6q0 -26 2 -37q-66 -14 -108.6 -67.6t-42.6 -122.6q0 -80 66.6 -137t136.6 -67h222v300h400v-300zM700 200h200l-300 -300 l-300 300h200v300h200v-300z" />
<glyph unicode="&#xe198;" d="M600 714l403 -403q94 26 164.6 104t60.6 178q0 121 -86 207.6t-206 86.6q-46 0 -90 -14q-44 97 -134.6 166.6t-200.6 69.6q-162 0 -260 -107.6t-108 -260.6q0 -26 2 -37q-66 -14 -108.6 -67.6t-42.6 -122.6q0 -80 66.6 -137t136.6 -67h8zM700 -100h-200v300h-200l300 300 l300 -300h-200v-300z" />
<glyph unicode="&#xe199;" d="M700 200h400l-270 300h170l-270 300h170l-300 333l-300 -333h170l-270 -300h170l-270 -300h400v-166l-76 -46h360l-76 46v166z" />
<glyph unicode="&#xe200;" d="M700 46v306q46 -30 100 -30q74 0 126.6 62.6t62.6 126.6q0 24 -9 66q60 32 79.6 83t29.6 112q0 90 -61.6 166.6t-160.6 71.6q-26 89 -99.6 146.6t-167.6 66.6q-116 0 -197.6 -81.6t-81.6 -197.6q0 -4 1 -12t1 -11q-14 2 -23 2q-74 0 -126.6 -62.6t-62.6 -126.6 q0 -63 28.6 -97t76.6 -66q-4 -16 -4 -38q0 -74 62.6 -126.6t126.6 -62.6q66 0 100 30v-306l-76 -46h360z" />
<glyph unicode="&#x1f4bc;" d="M800 1000h300q41 0 70.6 -29.6t29.6 -70.6v-400h-600v100h-200v-100h-600v400q0 41 29.6 70.6t70.6 29.6h300v100q0 41 29.6 70.6t70.6 29.6h200q41 0 70.6 -29.6t29.6 -70.6v-100zM600 1000h200v100h-200v-100zM1200 400v-200q0 -41 -29.6 -70.6t-70.6 -29.6h-1000 q-41 0 -70.6 29.6t-29.6 70.6v200h1200z" />
<glyph unicode="&#x1f4c6;" d="M1100 900v160q0 21 -14.6 36.6t-36.6 14.6h-160v100h-100v-100h-600v100h-100v-100h-160q-21 0 -36.6 -14.6t-14.6 -36.6v-160h1100zM0 800v-760q0 -20 14.6 -36t36.6 -16h1000q21 0 36.6 16t14.6 36v760h-1100zM100 600h100v-100h-100v100zM300 600h100v-100h-100v100z M600 600h100v-100h-100v100zM700 600h100v-100h-100v100zM900 600h100v-100h-100v100zM100 400h100v-100h-100v100zM300 400h100v-100h-100v100zM600 400h100v-100h-100v100zM700 400h100v-100h-100v100zM900 400h100v-100h-100v100zM100 200h100v-100h-100v100zM300 200 h100v-100h-100v100zM600 200h100v-100h-100v100zM700 200h100v-100h-100v100zM900 200h100v-100h-100v100z" />
<glyph unicode="&#x1f4cc;" d="M902 1186l283 -282q16 -16 16 -36t-16 -36q-14 -16 -36 -16t-36 16l-36 36l-279 -267v-300l-212 210l-208 -207l-380 -303l303 380l207 208l-210 212h300l267 279l-36 36q-16 14 -16 36t16 36q14 16 36 16t36 -16z" />
<glyph unicode="&#x1f4ce;" d="M618 119l69 -60l617 611q67 67 96 167t11 183q-16 87 -67 164t-130 103q-69 33 -162 33q-107 0 -197 -66q-40 -24 -111 -96l-612 -612q-68 -68 -81 -163t36 -173q36 -67 94 -89t129 -32q63 0 119 28q33 16 66 40.6t62.6 46.6t69.6 64q40 44 67 61l394 394q36 36 47 84 t-3 96q-27 87 -117 104q-20 2 -29 2q-46 0 -79.6 -17t-67.6 -61l-388 -396l-7 -7l69 -67l377 373q20 22 39 38q23 23 60 23q38 0 63 -36q16 -39 -20 -76l-647 -647q-62 -62 -126 -62q-66 0 -100 33t-64 96q-6 36 2.6 66t31.6 63t42 60t66 64q24 21 44 41l348 348 q62 62 82.6 79.6t84 64t107.6 26.6q26 0 48 -4q96 -17 164 -94.6t61 -176.6q-7 -101 -98 -192l-262 -249l-263 -266z" />
<glyph unicode="&#x1f4f7;" d="M1200 200v600q0 41 -29.6 70.6t-70.6 29.6h-160q-4 8 -11.6 21.6t-33 48t-63 61t-69 48t-83.6 21.6h-200q-41 0 -82 -20.6t-70 -60t-62 -69t-34 -60.6l-12 -20h-160q-41 0 -70.6 -29.6t-29.6 -70.6v-600q0 -41 29.6 -70.6t70.6 -29.6h1000q41 0 70.6 29.6t29.6 70.6z M1000 700h-100v100h100v-100zM844 600q0 -100 -72 -172t-172 -72t-172 72t-72 172t72 172t172 72t172 -72t72 -172zM706 600q0 44 -31 76t-76 31t-76 -31t-31 -76t31 -76t76 -31t76 31t31 76z" />
<glyph unicode="&#x1f612;" d="M900 800h100q41 0 70.6 -29.6t29.6 -70.6v-600q0 -41 -29.6 -70.6t-70.6 -29.6h-900q-41 0 -70.6 29.6t-29.6 70.6v600q0 41 29.6 70.6t70.6 29.6h100v200q0 82 69 141t141 69h300q82 0 141 -69t69 -141v-200zM400 800h300v160q0 21 -14.6 36.6t-36.6 14.6h-200 q-21 0 -36.6 -14.6t-14.6 -36.6v-160z" />
<glyph unicode="&#x1f614;" d="M1062 400h17q20 0 33.6 -14.6t13.6 -36.6q0 -20 -13 -40t-31 -27q-22 -9 -63 -23t-167.6 -37t-261.6 -23t-246.6 20.6t-178.6 41.6l-68 20q-18 7 -31 27.6t-13 40.6q0 21 13.6 36.6t33.6 14.6h17l118 173l63 327q16 77 76 140t144 83l-18 32q-6 19 3 32t29 13h94 q20 0 29 -10.6t3 -29.6l-18 -37q83 -19 144 -82.6t76 -140.6l63 -327zM600 104q-64 0 -103 6q12 -49 40 -79.6t63 -30.6t63 30.6t39 79.6q-48 -6 -102 -6z" />
<glyph unicode="&#x1f616;" d="M200 0l460 444l460 -443v1160q0 20 -14.6 36t-36.6 16h-800q-21 0 -36.6 -16t-14.6 -36v-1161z" />
<glyph unicode="&#x1f626;" d="M400 766q2 -12 8 -41.6t8 -43t6 -39.6t3.6 -39.6t-1 -33.6t-6 -31.6t-13.6 -24t-21 -20.6t-31 -12q-38 -10 -67 13t-40.6 61.6t-16 81.6t10.6 76q-62 -46 -83.6 -101t-39 -107t-7.6 -86t6 -63q9 -66 44 -119.6t106 -108.6q31 -21 64 -16t62 23.6t67 49.6t48 61.6t36 60.6 q32 66 39 184.6t-13 167.6q79 -80 122 -164t26 -184q-6 -33 -20.6 -69.6t-37.6 -80.6q-10 -19 -14.6 -29t-12 -26t-9 -23.6t-3 -19t2.6 -16.6t11 -9.6t19.6 -6t30.6 2.6t42 8q67 20 91 34t87.6 44.6t87 64t66.6 88.6t47 122q38 172 -44.6 341.6t-246.6 278.6q22 -44 43 -129 q39 -169 -32 -164q-16 2 -33 9q-79 33 -120.6 100t-44 176.6t48.6 267.6q-13 -8 -34 -23.6t-72.6 -66.6t-88.6 -106.6t-60 -138t-8 -166.6z" />
<glyph unicode="&#x1f627;" d="M948 778l261 126q13 -176 -161 -267q-123 -70 -263 -23l-696 -696q-16 -16 -36.6 -16t-36.6 16l-111 110q-16 16 -16 36.6t16 37.6l600 699q-33 101 6 201.6t136 164.6q164 92 306 -9l-269 -138z" />
</font>
</defs>
</svg>
